<svg id="Layer_1" data-name="Layer 1" xmlns="http://www.w3.org/2000/svg" viewBox="0 0 200 200"><defs><style>.cls-1{fill:#ff0005;}</style></defs><g id="_2s4ECr.tif" data-name="2s4ECr.tif"><path class="cls-1" d="M188,51.53c-1.51,5.3-2.45,10.86-4.65,15.87-7.3,16.66-18.78,29-37.2,33.38-11.87,2.81-20-3.25-21.27-15.47C124.15,78,126,71.19,129.1,64.67c8.52-18,22.36-30.18,41.11-36.71,7.08-2.46,12.22-.1,15.42,6.68L183.44,36,188,45.31Zm-51,31.6c-.12,8.63,2.59,10.38,9.78,6.85a14.84,14.84,0,0,0,2-1.11c12.71-8.7,23.11-19.45,29.32-33.75a17.17,17.17,0,0,0,1.42-7.85,7.59,7.59,0,0,0-3.14-5.19c-1-.62-3.35.86-5,1.54-1.13.45-3,1.81-3.13,1.62-2-2.37-3.35-.25-4.51.64-4.8,3.69-9.83,7.21-14.06,11.49C142.52,64.6,137.72,73.23,137,83.13Z"/><path class="cls-1" d="M130,136.73c13,1.42,25.93,2.77,38.87,4.33a22.79,22.79,0,0,1,6.56,2.29c2.7,1.24,5.17,3.13,4.53,6.46-.67,3.52-3.61,5.13-6.92,5.09-5.29-.07-10.58-.68-15.87-1a303.21,303.21,0,0,0-57,1.47C85.82,157.17,71.57,159.65,58,165a144.12,144.12,0,0,0-14,6.64c-.94.49-1.38,2-2,3a10.72,10.72,0,0,1-.89,1.64c-3.55,3.93-12.8,5.28-17.41,2.57-3.27-1.91-4.88-5.77-2.7-9a34.33,34.33,0,0,1,9-9.34c13.87-9.16,29.32-14.57,45.53-17.91,18-3.7,36.14-4.85,54.43-4.82Z"/><path class="cls-1" d="M117.57,37.1c4.93,2.63,5.86,6.49,6,10.84.86,24.59-18.35,51-41.87,57.45a39.53,39.53,0,0,1-5.67,1.23c-9.14,1.1-15.69-3.2-18.59-12.19-2.29-7.1-1.4-14.15,1.08-21C66.73,51,82.46,36.15,104.8,28c5.8-2.11,10.64-.92,14.72,3.64C121.56,33.92,122.27,35.91,117.57,37.1ZM69.54,86c-.25,10.45,2.81,12.37,10.84,8.16a15.49,15.49,0,0,0,1.68-1c13.67-9.4,24.87-21,31.49-36.43.94-2.2,1.8-4.8,1.53-7.07s-1.5-5.19-3.27-6.42c-1.1-.76-4,1-6.09,1.79-1,.39-2.66,1.69-2.79,1.53-2.21-2.56-3.81-.25-5.18.77-4.65,3.46-9.48,6.82-13.59,10.88C76.09,66.24,70.37,75.64,69.54,86Z"/><path class="cls-1" d="M164.33,130.81c-7.69-1.23-14.8-2.67-22-3.45-27.18-2.92-54.24-3.15-80.72,5-4.05,1.25-7.86,3.26-11.76,5a3.77,3.77,0,0,0-1.82,1.31,11.09,11.09,0,0,1-15,4.93c-4.45-2.13-6.18-7.19-2.73-10.94a46.22,46.22,0,0,1,12.43-9.53c15.49-8.12,32.33-11.58,49.65-12.27,22-.89,44-.23,65.51,5.28a45.67,45.67,0,0,1,9.28,3.75c2.64,1.35,4.76,3.52,3.75,6.85S166.85,130.6,164.33,130.81Z"/><path class="cls-1" d="M29.83,49c-1-4.05.24-6.64,3.08-8.23,7.56-4.2,15.22-8.22,22.85-12.3,3.22-1.73,5.32-.37,7,2.47,2.28,3.88,2.64,7.71.3,11.72C55.37,55.8,47.63,68.93,40.16,82.23a146.76,146.76,0,0,0-9.32,19.12c-1.64,4.3-1.91,9.19-2.4,13.86-.27,2.58-.73,3.8-3.44,2.36-1.14-.6-2.31-1.17-3.47-1.74-8.48-4.18-9.54-6.65-7.22-16,3.06-12.38,9.18-23.25,16.38-33.6C36,58.59,41.38,51,47.33,42.55Z"/></g></svg>