<svg id="Layer_1" data-name="Layer 1" xmlns="http://www.w3.org/2000/svg" viewBox="0 0 200 200"><path d="M89.2,114a5.89,5.89,0,1,1-6.26-10l8.74-5.48L22,56.05v86.17L32,136a5.89,5.89,0,1,1,6.26,10l-10.34,6.48L97,194.62V109.1ZM70.29,125.84l-13.13,8.24A5.84,5.84,0,0,1,54,135a5.89,5.89,0,0,1-3.13-10.88L64,115.87a5.89,5.89,0,1,1,6.26,10Z"/><path d="M171.92,136l10,6.27V56.05L112.23,98.53,121,104a5.89,5.89,0,0,1-6.26,10l-8.42-5.28V195l69.77-42.54-10.41-6.53a5.89,5.89,0,1,1,6.26-10Zm-17-3.73a5.88,5.88,0,0,1-8.11,1.86l-13.13-8.23a5.89,5.89,0,0,1,6.25-10L153,124.1A5.89,5.89,0,0,1,154.87,132.22Z"/><polygon points="177.25 47.77 106.3 4.5 106.3 91.23 177.55 47.77 177.25 47.77"/><polygon points="26.67 47.77 26.36 47.77 97 90.85 97 4.88 26.67 47.77"/></svg>