<svg id="Layer_1" data-name="Layer 1" xmlns="http://www.w3.org/2000/svg" viewBox="0 0 200 200"><defs><style>.cls-1{font-size:52.18px;fill:#fff;font-family:MyriadPro-Regular, Myriad Pro;}</style></defs><g id="_8LevBD" data-name="8LevBD"><path d="M38.55,189c-4.13-1.47-5.58-4.49-5.57-8.75q.1-52.69,0-105.38c0-18.32.06-36.64-.05-54.95,0-4.36,1.27-7.56,5.58-9.09h87c2,2.11,4.17,4.15,6.11,6.35C141.37,28.24,151,39.35,160.76,50.4a6.77,6.77,0,0,1,1.62,4.79q0,34.35,0,68.7c0,18.67-.07,37.34,0,56,0,4.35-1.21,7.58-5.55,9.1ZM121,17.93H40.16V129.39H155.22V57.11h-1.88l-27.83,0c-3.12,0-4.45-1.23-4.49-4.21,0-3.59,0-7.19,0-10.79Z"/><path d="M93.68,69.67C91.23,76,88.91,81.94,86.57,87.91c-1.48,3.78-3,7.54-4.47,11.3a3.7,3.7,0,0,1-.93,1.62c-3.76,2.81-5.72,6.92-7.93,10.85a8.51,8.51,0,0,1-1.57,2.15c.7-3.27,1.42-6.53,2.1-9.79a4.68,4.68,0,0,0,.17-1.88C73.25,99,74,96,75.22,93.06c1.77-4.34,3.28-8.79,4.89-13.19.17-.47.31-1,.51-1.56h-3.9c-.09,1-.18,2-.28,3H74.76V73.2l1.72-.07.19,3.12c1.41,0,2.73.07,4,0a1.52,1.52,0,0,0,1-.88q1.83-4.77,3.52-9.61a1.79,1.79,0,0,0-.05-1.29,9.05,9.05,0,0,1,6.1-13.18,2.7,2.7,0,0,0,.56-.27V40.52h2.35v10c2.11,1.35,4,2.22,5.5,3.62,2.33,2.25,2.79,5.2,2.08,8.37a4.78,4.78,0,0,0,.1,2.49c1.09,3.23,2.37,6.4,3.42,9.65a2,2,0,0,0,2.49,1.67,21.75,21.75,0,0,1,2.69,0l.18-3,1.95-.15c0,2.59,0,5.06,0,7.52,0,.27-.67.68-1.06.72s-.8-.42-.87-.72a12.41,12.41,0,0,1,0-2.23h-3.83c1.13,3.08,2.23,6.11,3.34,9.13,1,2.71,2.08,5.4,3,8.15a8.07,8.07,0,0,1,.56,3.69c-.63,3.69.54,7.11,1.25,10.61a21.29,21.29,0,0,1,.61,4c-1.33-2.31-2.57-4.67-4-6.91a25.6,25.6,0,0,0-3.63-4.57,12.69,12.69,0,0,1-3.23-4.82C101.25,88.8,97.76,80,94.3,71.14,94.15,70.77,94,70.4,93.68,69.67Zm-.49-3.43a6.17,6.17,0,1,0,.11-12.33,6.17,6.17,0,1,0-.11,12.33Z"/><path d="M96.32,60.18a3.07,3.07,0,0,1-6.13,0,3.08,3.08,0,0,1,3-3.1A3.11,3.11,0,0,1,96.32,60.18Z"/></g><text class="cls-1" transform="translate(46.3 175.36)">3DM</text></svg>