<svg id="Layer_1" data-name="Layer 1" xmlns="http://www.w3.org/2000/svg" viewBox="0 0 200 200"><defs><style>.cls-1{fill:#009245;}</style></defs><g id="xdHg33"><path class="cls-1" d="M121.31,15.3,98.67,17l0,.78,5.15.28c20.74,1,39.91,6.8,56.77,19.16,18.69,13.71,30.28,32,33.52,55.06,2.81,20-1.25,38.86-11.37,56.29-11.64,20.07-28.38,34-50.75,40.76-26.72,8.12-52.2,4.61-75.87-9.61C32.66,165.62,16.91,145,9.86,118.38c-7.94-30-.81-56.66,19.72-79.55C46.3,20.18,67.66,9.77,92.39,6.34c5.63-.78,11.38-.68,17.08-1.1a7.86,7.86,0,0,1,7.18,3.2C118.24,10.5,119.59,12.74,121.31,15.3ZM99,183a84.35,84.35,0,0,0,49.62-16.95c21.86-16.45,33.82-38.61,36-65.84A67.9,67.9,0,0,0,178,65.11c-7.39-15.38-20-24.84-35.61-30.66a95.38,95.38,0,0,0-42.27-5.52,10.15,10.15,0,0,1-10.1-4.68,26.15,26.15,0,0,0-2.35-3.36,2.84,2.84,0,0,0-2.38-.78C74.06,24,63.2,28.7,53.53,35.9,37.63,47.72,26.21,62.71,20.42,81.76a78.79,78.79,0,0,0-1.2,40.89c3.57,15.79,11,29.48,23.17,40.34C58,176.9,76.57,182.74,99,183Z"/><path class="cls-1" d="M113.78,153.66c-3-1.39-6-2.66-8.83-4.18-2.22-1.19-3-3.37-3-5.79.08-9.14.24-18.27.34-27.41,0-3.47,0-6.94,0-10.65L91.5,107.19c-2.79.4-5.57.94-8.38,1.13-2.24.14-3.1,1.23-3.59,3.27C77.08,121.8,74.5,132,72,142.16c-.14.58-.32,1.15-.6,2.15-2.29-1.11-4.47-2.1-6.59-3.19-6.91-3.55-5.68-2.28-4-9,1.55-6.2,3.18-12.38,4.77-18.57.18-.73.3-1.47.49-2.45a25.45,25.45,0,0,0-3,0c-3.85.5-7.69,1.14-11.55,1.55a5,5,0,0,1-3.43-.62c-2.61-2.26-5-4.83-7.85-7.71,1.38-.34,2.06-.57,2.76-.67,7.91-1.14,15.82-2.35,23.75-3.33A3.81,3.81,0,0,0,70.4,97.2a280.56,280.56,0,0,1,14.74-40,59.6,59.6,0,0,1,5.32-9.28c3.13-4.37,7-5,11.56-2.29a51,51,0,0,1,6.52,4.59c2.87,2.39,4.17,5.66,4.85,9.31,2.56,13.9,2.07,27.9,1.68,41.91q-.61,23-1.28,45.9C113.73,149.29,113.78,151.26,113.78,153.66ZM83.69,97.56a10.76,10.76,0,0,0,1.84.09c5.2-.71,10.4-1.49,15.6-2.16,1.62-.21,1.91-1.14,1.88-2.53-.21-11.18-.39-22.35-.6-33.53a15.73,15.73,0,0,0-.35-2.11l-.64-.1C93.52,69.69,88.19,83.3,83.69,97.56Z"/><path class="cls-1" d="M178.2,92.87l-12.14,1.76a42.64,42.64,0,0,1-4.75.64c-2.4.07-3,1.25-3,3.49.15,6.32.14,12.65.12,19,0,1.86.33,4.4-1.9,4.86a8.09,8.09,0,0,1-5.39-1.43,8.55,8.55,0,0,1-3.86-7.82c.1-4.65,0-9.3.09-13.94,0-1.63-.54-2.26-2.16-1.89-.59.13-1.21.15-1.81.23-7,.87-11.06-1.27-14.65-8,.93-.19,1.76-.42,2.6-.54,4.3-.63,8.59-1.33,12.9-1.8,2.31-.26,3.25-1.09,3.14-3.58-.2-4.56-.09-9.14,0-13.71s2.52-5.82,6.39-3.47a9,9,0,0,1,4.71,8.53c-.09,2.67,0,5.34-.11,8-.07,1.79.65,2.29,2.34,2a38.51,38.51,0,0,1,5.63-.87c1.48-.08,3.37-.25,4.38.53,2.82,2.19,5.27,4.86,7.87,7.33Z"/></g></svg>