<svg id="Layer_1" data-name="Layer 1" xmlns="http://www.w3.org/2000/svg" viewBox="0 0 200 200"><g id="jAhEuk.tif"><path d="M103.82,92.63l24.05-32.87c4.91-6.72,9.84-13.42,14.7-20.17,2.27-3.14,5-6.28,1.18-10.2-.18-.19.37-1.51.47-1.5,1.08.15,2.14.47,3.49.8.52-.79,1.25-1.87,1.71-2.55L147.55,23h4.06L153,21.1c.43-3.21.43-3.21,1.35-2.51,4.23-4.77,5.16-4.89,10-1.3,4.46,3.3,4.55,3.91,1.63,8.51l1.56,3.64L164,28.6l-1.64,2.29,1.51,3.65-3.62-.68c-.42.58-1.19,1.64-1.68,2.33l1.78,3.34c-.87-.17-1.92-.74-2.57-.45-2.29,1-5.22,1.81-6.52,3.65C138.12,61.3,125.3,80.07,112.27,99c1.65,1.4,3.25,2.65,4.75,4,10,9.22,10.17,21.42-1.28,28.58-8.93,5.58-10.82,12.06-10.27,21.75,1,17.27-6.37,28.2-20.21,32.88a27.37,27.37,0,0,1-18.76,0,59.41,59.41,0,0,1-30-23.45c-10.32-15.63-5.88-32.25,10.82-40.82,4.33-2.22,9-3.67,13.62-5.43,5.74-2.21,9.95-5.53,10.87-12.23A30.3,30.3,0,0,1,75,95a14.55,14.55,0,0,1,18.55-7C96.85,89.29,100,90.91,103.82,92.63Zm-41.76,40c-1.28,1.85-2.27,3.26-3.87,5.56l27.27,19,3.75-5.5Zm41.28-13.34a11.86,11.86,0,0,0-11.9-11.8,12,12,0,1,0,.31,23.94A11.91,11.91,0,0,0,103.34,119.33Z"/><path d="M91.63,110.13a9.18,9.18,0,0,1,9.17,9.41,9.3,9.3,0,0,1-9.27,9.35,9.38,9.38,0,1,1,.1-18.76Z"/></g></svg>