<svg id="Layer_1" data-name="Layer 1" xmlns="http://www.w3.org/2000/svg" viewBox="0 0 200 200"><g id="i1y1TV.tif"><path d="M137,190q-12.09-8.82-24.19-17.62c-6.14-4.45-12.07-9-15.76-16A26,26,0,0,1,93.77,143a7.83,7.83,0,0,0-.71-4.07,7.28,7.28,0,0,0-1,1.81c-2.55,11.37-10.51,17.76-20.71,21.55C60.74,166.22,49.87,169.55,39,173c-6,1.89-9.81-1.4-8.41-7.55a151.23,151.23,0,0,1,5.2-16.69c2.69-7.59,5.17-15.3,8.6-22.55A25.67,25.67,0,0,1,63,111.51a11.41,11.41,0,0,0,2.12-1.1,6.86,6.86,0,0,0-1.84-.52c-12.74,1-21.75-5.19-29-14.83C28.12,86.72,22,78.27,15.83,69.89c-1.76-2.37-2.72-4.88-1.29-7.71s4-3.57,6.94-3.56c10.65,0,21.33-.4,32,.12,10.91.53,21.06,3.38,27.37,13.58a21,21,0,0,0,2.33,2.53A8.23,8.23,0,0,0,83,72.9c-4.74-11.75-1.79-22.31,5.15-32.14,6.14-8.69,12.45-17.25,18.66-25.89a6.58,6.58,0,0,1,6.87-3c2.95.43,4.08,2.59,4.84,4.92,3.55,10.89,7.17,21.77,10.4,32.77,3,10.34,2,20.2-5,28.9a2.83,2.83,0,0,0-.54,2.14c1.64-1.12,3.24-2.29,4.92-3.35,7.72-4.87,16.16-5.18,24.61-3,8.91,2.33,17.64,5.4,26.44,8.17,2.53.79,5.1,1.5,7.55,2.5,6.15,2.51,6.87,7.67,1.63,11.67-4.65,3.55-9.32,7.09-14.15,10.36-6.67,4.52-13.27,9.24-20.34,13-7.27,3.92-15.14,3.59-22.85.62a8.89,8.89,0,0,0-1.2-.4c-.17,0-.38.11-1.07.36,1.12.91,2,1.75,3,2.4,8.07,5.38,11.89,13.32,12.45,22.6.67,11,.48,22.13.75,33.2.11,4.34-.21,8.42-4.21,11.16Zm-50-87.1c.73-.34,2.9-.67,3.63-1.88.61-1,0-3.44-.86-4.53a24,24,0,0,0-17.28-8.93c-1.53-.1-4.14.81-4.48,1.85a6.07,6.07,0,0,0,1.27,5.1C73.77,99.32,79.32,102.25,87.05,102.9Zm13.63,13.62c.68,7.88,3.67,13.48,8.73,17.88,1.16,1,3.86,1.82,4.78,1.18,1.21-.85,2-3.27,1.86-4.92a24,24,0,0,0-8-16.12c-1.32-1.18-3.71-2.09-5.29-1.73C101.64,113.06,101.09,115.7,100.68,116.52ZM95.9,86.09c.51,3.15.57,5.65,1.37,7.89,1.08,3,3.79,3.33,6,1,4.13-4.29,6-16.9,3.24-22.07-1.19-2.24-3.44-2.81-5.26-1.09a9.73,9.73,0,0,0-2.69,3.86C97.43,79.3,96.66,83,95.9,86.09Zm20.38,21.39,0-.3a21.13,21.13,0,0,0,2.87,0c4.52-.63,9.11-1.2,12.39-4.91,1.87-2.11,1.41-4.06-1.1-5.36-5.05-2.61-18-.59-22.09,3.46-2.16,2.13-1.58,5.11,1.36,6A52.25,52.25,0,0,0,116.28,107.48Zm-27.41,3a11.12,11.12,0,0,0-2.34.69A25.54,25.54,0,0,0,75.17,121.9a13.24,13.24,0,0,0-1.64,4.71c-.29,2.69,1.13,3.84,3.85,3.56,5.76-.6,15.08-9.81,15.79-15.61C93.55,111.52,92.58,110.42,88.87,110.47Z"/></g></svg>