<svg id="Layer_1" data-name="Layer 1" xmlns="http://www.w3.org/2000/svg" viewBox="0 0 200 200"><g id="GgZiN0"><path d="M149.28,49.9a18.48,18.48,0,0,1,2.59,0,4.94,4.94,0,0,1,4.2,5V69.59h1.55c2.72-.09,5.44-.16,8.16-.28a1.49,1.49,0,0,0,.93-.41c2.52-2.43,5-4.88,7.5-7.35a1.2,1.2,0,0,0,.37-.78q0-7.67-.13-15.33a1,1,0,0,0,0-.2,18.47,18.47,0,0,1-1.89-.72,6.68,6.68,0,1,1,5.62.18c-.56.23-.67.5-.66,1.08.06,4.36.07,8.72.1,13.08,0,1,.06,2.07,0,3.11a1.46,1.46,0,0,1-.4.93q-4.53,4.5-9.11,8.93a2,2,0,0,1-1.22.5c-3.34.12-6.69.19-10,.28-.23,0-.46,0-.73.06v10.8h.81c4.17,0,8.35,0,12.53,0a1.25,1.25,0,0,0,.78-.21c1.51-1.45,3-2.94,4.49-4.43a3.56,3.56,0,0,1-.7-4.47,3.43,3.43,0,0,1,4.16-1.53,3.53,3.53,0,0,1,2.32,3.8,3.45,3.45,0,0,1-3.23,3,1.76,1.76,0,0,0-1.34.6c-1.48,1.52-3,3-4.49,4.53a1.89,1.89,0,0,1-1.5.62c-4.2,0-8.41,0-12.61,0h-1.21V92c.22,0,.45,0,.67,0,4.05,0,8.1,0,12.14,0a.86.86,0,0,0,.94-.57A3.47,3.47,0,0,1,176.5,93a3.48,3.48,0,0,1-2.68,3.39,3.56,3.56,0,0,1-4-2,.94.94,0,0,0-.57-.48c-4.35,0-8.71,0-13.12,0v5.74h25.11A6.76,6.76,0,0,1,185.38,95a6.54,6.54,0,0,1,4.49-.12,6.69,6.69,0,1,1-8.6,7.9H156.11v15.78c1.38,0,2.78-.08,4.16,0a3.21,3.21,0,0,0,2.84-1.16c1.52-1.66,3.15-3.23,4.78-4.79a1.9,1.9,0,0,1,1.19-.5c2.7,0,5.4,0,8.1,0a1.12,1.12,0,0,0,1.24-.71,3.4,3.4,0,0,1,4.58-1.53,3.5,3.5,0,0,1-2.81,6.4,3.24,3.24,0,0,1-1.86-1.77.74.74,0,0,0-.79-.56c-2.64,0-5.29,0-7.94,0a1.51,1.51,0,0,0-.91.44c-1.88,1.84-3.71,3.71-5.59,5.54a1.44,1.44,0,0,1-.92.39c-2,0-4,0-6.05,0V126h1.23c4.18,0,8.36,0,12.54,0a.83.83,0,0,0,.94-.56,3.41,3.41,0,0,1,4-1.94,3.51,3.51,0,0,1,0,6.81,3.49,3.49,0,0,1-4-1.9c-.17-.35-.3-.58-.77-.58-4.55,0-9.09,0-13.63,0a2.43,2.43,0,0,0-.33,0v6.45l4.48.16c1.9.06,3.79.1,5.68.18a1.32,1.32,0,0,1,.82.31q4.76,4.6,9.45,9.26a1.53,1.53,0,0,1,.25,1c0,3.48-.11,6.95-.16,10.43,0,1.89,0,3.79-.07,5.68,0,.59.24.73.68.91a6.67,6.67,0,0,1-1,12.64A6.67,6.67,0,0,1,172.86,162c.54-.15.67-.35.67-.88.07-4.95.17-9.9.23-14.86a1.25,1.25,0,0,0-.33-.79c-2.52-2.51-5.06-5-7.6-7.47a1,1,0,0,0-.57-.33l-9.19-.28v9.92a5,5,0,0,1-5.3,5.29H139.13c0,.24-.07.44-.08.63a23.76,23.76,0,0,1,0,3.27,3.88,3.88,0,0,0,1.54,3.62c1.53,1.39,2.94,2.92,4.43,4.36a1.64,1.64,0,0,1,.52,1.3c0,2.75,0,5.5,0,8.25a.85.85,0,0,0,.56.94,3.43,3.43,0,0,1,1.91,4,3.5,3.5,0,1,1-4.87-4,.85.85,0,0,0,.57-.94c0-2.57,0-5.14,0-7.7a1.5,1.5,0,0,0-.39-.94c-1.81-1.85-3.64-3.69-5.5-5.5a1.59,1.59,0,0,1-.52-1.29c0-2,0-3.94,0-6h-10.8c0,1.25,0,2.48,0,3.71,0,3.58,0,7.16,0,10.75a.89.89,0,0,0,.62,1,3.4,3.4,0,0,1,1.85,4,3.49,3.49,0,0,1-6.77,0,3.44,3.44,0,0,1,1.88-4,.88.88,0,0,0,.61-1c0-4.78,0-9.55,0-14.4H113v2.52c0,1.43,0,2.86,0,4.28a.92.92,0,0,0,.62,1,3.4,3.4,0,0,1,1.84,4,3.46,3.46,0,0,1-3.52,2.6,3.51,3.51,0,0,1-3.28-2.82,3.37,3.37,0,0,1,1.78-3.71,1.18,1.18,0,0,0,.77-1.3c0-2.18,0-4.35,0-6.59H102.4v25.14a7.07,7.07,0,0,1,3.95,2.8A6.68,6.68,0,1,1,98.7,178c.34-.12.58-.19.58-.66q0-12.25,0-24.52a1.2,1.2,0,0,0,0-.14H91.89v1.61c0,2.8,0,5.61,0,8.41a1.5,1.5,0,0,1-.49,1.22c-1.53,1.48-3,3-4.51,4.52a1.24,1.24,0,0,0-.39.7c0,2.2,0,4.4,0,6.58,2.1,1.05,2.9,2.43,2.49,4.25a3.49,3.49,0,0,1-6.77.12c-.49-1.78.3-3.22,2.42-4.37,0-2.31,0-4.64,0-7a1.85,1.85,0,0,1,.47-1.13c1.49-1.55,3-3.05,4.54-4.58a1.2,1.2,0,0,0,.37-.71c0-3.19,0-6.38,0-9.65H74.53c0,.22,0,.44,0,.67,0,3.79,0,7.57,0,11.36a.88.88,0,0,0,.58.94,3.45,3.45,0,0,1,1.91,4,3.52,3.52,0,0,1-6.81,0,3.57,3.57,0,0,1,1.93-4,1,1,0,0,0,.53-.68c0-4,0-8,0-12a1.66,1.66,0,0,0-.05-.26h-10c-.07,1.3-.14,2.61-.2,3.92-.06,1.74-.1,3.48-.19,5.21a1.39,1.39,0,0,1-.36.8q-4.53,4.77-9.1,9.49a1.74,1.74,0,0,1-1.13.46q-8.17,0-16.35,0a1.12,1.12,0,0,0-1.14.67,6.67,6.67,0,0,1-12.39-4.06,6.76,6.76,0,0,1,5.56-5.91,6.68,6.68,0,0,1,7.7,5.84c0,.12,0,.24.07.4.23,0,.43,0,.63,0q7.4,0,14.79,0a1.25,1.25,0,0,0,.8-.33q3.81-3.94,7.57-7.94a1.56,1.56,0,0,0,.38-.87c.12-2.44.2-4.87.29-7.31,0-.13,0-.25,0-.5H50.75a5,5,0,0,1-5.2-5.16V134.89a5.71,5.71,0,0,0-.63-.08c-2.8,0-5.6,0-8.4,0a1.67,1.67,0,0,0-1,.45q-3.5,3.43-6.94,6.93a1.73,1.73,0,0,1-1.35.57c-2.7,0-5.4,0-8.1,0a.88.88,0,0,0-.95.57,3.41,3.41,0,0,1-4.08,1.88,3.48,3.48,0,0,1-2.5-4,3.56,3.56,0,0,1,3.29-2.92,3.45,3.45,0,0,1,3.3,2,.86.86,0,0,0,.93.59c2.52,0,5,0,7.56,0a1.49,1.49,0,0,0,.93-.39c2.38-2.34,4.73-4.73,7.11-7.07a1.67,1.67,0,0,1,1.07-.45c3.21,0,6.43,0,9.7,0V120.4H44.8c-4.34,0-8.67,0-13,0a.88.88,0,0,0-1,.62A3.38,3.38,0,0,1,27,122.92a3.42,3.42,0,0,1-2.83-3.24,3.47,3.47,0,0,1,2.65-3.57,3.36,3.36,0,0,1,3.84,1.66,1.32,1.32,0,0,0,1.42.83c4.44,0,8.87,0,13.37,0V102.84H20.41q-2.79,6.09-8,4.92a6.68,6.68,0,0,1,.06-13c3.56-.73,6.24.93,8,5h25.1V82.64l-.58,0c-4.41,0-8.82,0-13.23,0a.87.87,0,0,0-.94.58,3.47,3.47,0,0,1-6.61-1.58,3.41,3.41,0,0,1,2.76-3.31,3.49,3.49,0,0,1,3.91,2,1,1,0,0,0,.63.5c4.59,0,9.19,0,13.78,0a1,1,0,0,0,.27-.07V69.12c-1.66,0-3.29,0-4.92,0-1.92,0-3.84-.06-5.75-.17a2.31,2.31,0,0,1-1.35-.57c-3-2.91-6-5.86-9-8.82A1.77,1.77,0,0,1,24,58.42c0-5.18,0-10.37.08-15.56a1.83,1.83,0,0,1,0-.47c.14-.57,0-.85-.62-1.09a6.65,6.65,0,0,1,1.24-12.66,6.67,6.67,0,0,1,3.15,13l-.74.2c0,.75,0,1.5,0,2.25,0,4.38-.1,8.76-.11,13.15a1.68,1.68,0,0,0,.46,1c2.39,2.38,4.81,4.73,7.2,7.11a1.82,1.82,0,0,0,1.35.58c3.13.07,6.26.19,9.49.3V55.14a5,5,0,0,1,5.33-5.28H62.76V48.39c0-4,0-8,0-12.06a.89.89,0,0,0-.61-1,3.41,3.41,0,0,1-1.9-3.87,3.48,3.48,0,0,1,6.79-.1,3.37,3.37,0,0,1-1.78,3.92,1.06,1.06,0,0,0-.71,1.17c0,4.15,0,8.3,0,12.45v.9h20c0-1.42,0-2.84,0-4.25,0-.21-.24-.44-.42-.62-1.79-1.8-3.58-3.61-5.4-5.38a1.68,1.68,0,0,1-.57-1.35c0-2.78,0-5.56,0-8.33a.79.79,0,0,0-.54-.87,3.43,3.43,0,0,1-2-4,3.5,3.5,0,1,1,5,3.91c-.2.11-.42.19-.66.3,0,2.88,0,5.76,0,8.64a1.44,1.44,0,0,0,.47.82c1.73,1.76,3.47,3.5,5.24,5.22a2,2,0,0,1,.68,1.61c-.06,1.4,0,2.8,0,4.28H99.27V48.46q0-11.52,0-23a.84.84,0,0,0-.67-1,6.67,6.67,0,1,1,4.39,0c-.45.15-.66.29-.66.83,0,7.91,0,15.83,0,23.74,0,.25,0,.51,0,.8h14.37V37.49a3.52,3.52,0,0,1-2.55-3.28,3.48,3.48,0,0,1,2.92-3.59A3.55,3.55,0,0,1,121,32.86a3.42,3.42,0,0,1-1.67,4.29,1.07,1.07,0,0,0-.71,1.16c0,3.45,0,6.91,0,10.36V49.8h15.33V32.34A6.59,6.59,0,0,1,130,29.55a6.47,6.47,0,0,1-.14-7.19,6.54,6.54,0,0,1,6.56-3.13A6.39,6.39,0,0,1,142,24a6.61,6.61,0,0,1-4.35,8.25c-.23.08-.54.37-.54.56,0,5.66,0,11.31,0,17h10.47V48.46c0-1.82,0-3.63,0-5.44a1.17,1.17,0,0,1,.31-.73c1.49-1.52,3-3,4.49-4.53a1.42,1.42,0,0,0,.36-.88c0-1.11.05-2.23,0-3.34a.93.93,0,0,0-.45-.66,3.58,3.58,0,0,1-2-4.05,3.5,3.5,0,0,1,6.88.46,3.34,3.34,0,0,1-1.89,3.44,1.05,1.05,0,0,0-.69,1.18c0,1.22.05,2.44,0,3.66a1.75,1.75,0,0,1-.45,1.06c-1.42,1.48-2.9,2.9-4.32,4.38a1.69,1.69,0,0,0-.44,1.07C149.26,46,149.28,47.86,149.28,49.9ZM50.42,54.71v93H151.2v-93Zm137.25,50.15a3.62,3.62,0,1,0-3.55-3.75A3.65,3.65,0,0,0,187.67,104.86ZM14,104.86a3.62,3.62,0,1,0-3.77-3.53A3.66,3.66,0,0,0,14,104.86Zm90.46,79.49a3.63,3.63,0,1,0-7.26,0,3.63,3.63,0,1,0,7.26,0ZM132,25.86a3.6,3.6,0,0,0,3.6,3.6,3.66,3.66,0,0,0,3.68-3.63,3.77,3.77,0,0,0-3.63-3.64A3.67,3.67,0,0,0,132,25.86Zm47.19,12.65a3.61,3.61,0,1,0-3.6,3.71A3.63,3.63,0,0,0,179.14,38.51Zm-.79,129.94a3.65,3.65,0,1,0-3.63,3.62A3.73,3.73,0,0,0,178.35,168.45ZM104.43,18.26a3.62,3.62,0,1,0-3.7,3.53A3.63,3.63,0,0,0,104.43,18.26ZM32,169.89a3.73,3.73,0,0,0-3.64-3.7,3.78,3.78,0,0,0-3.66,3.62,3.74,3.74,0,0,0,3.66,3.68A3.7,3.7,0,0,0,32,169.89Zm-9.5-134.7a3.61,3.61,0,1,0,3.64-3.67A3.64,3.64,0,0,0,22.48,35.19Zm159.05,79.55a1.68,1.68,0,0,0,0-3.36,1.68,1.68,0,1,0,0,3.36ZM27.6,80.07a1.64,1.64,0,1,0,.07,3.28,1.69,1.69,0,0,0,1.63-1.64A1.66,1.66,0,0,0,27.6,80.07Zm151.06-3.92a1.64,1.64,0,1,0-3.28-.05,1.64,1.64,0,0,0,3.28.05ZM73.56,170.41a1.64,1.64,0,0,0,1.66-1.59,1.66,1.66,0,1,0-3.32,0A1.62,1.62,0,0,0,73.56,170.41Zm40.18-6.79a1.65,1.65,0,1,0-1.7,1.64A1.65,1.65,0,0,0,113.74,163.62Zm-28.19,17.2a1.64,1.64,0,1,0,.07-3.28,1.64,1.64,0,1,0-.07,3.28ZM174,128.54a1.65,1.65,0,0,0,1.64-1.63,1.67,1.67,0,1,0-3.33,0A1.64,1.64,0,0,0,174,128.54ZM117.71,35.7A1.62,1.62,0,0,0,119.35,34a1.68,1.68,0,0,0-1.67-1.6,1.65,1.65,0,0,0-1.62,1.71A1.58,1.58,0,0,0,117.71,35.7Zm28.52,142.39a1.67,1.67,0,1,0-3.33.09,1.67,1.67,0,0,0,3.33-.09ZM63.68,33.83a1.61,1.61,0,0,0,1.65-1.59A1.65,1.65,0,1,0,62,32.17,1.58,1.58,0,0,0,63.68,33.83ZM152,29.65a1.7,1.7,0,0,0,1.68,1.67,1.74,1.74,0,0,0,1.63-1.66A1.66,1.66,0,0,0,153.6,28,1.63,1.63,0,0,0,152,29.65ZM26.06,119.49a1.65,1.65,0,0,0,1.58,1.67,1.66,1.66,0,1,0,0-3.31A1.64,1.64,0,0,0,26.06,119.49Zm99.46,50.07a1.66,1.66,0,0,0-1.66,1.68,1.71,1.71,0,0,0,1.66,1.62,1.68,1.68,0,0,0,1.65-1.7A1.63,1.63,0,0,0,125.52,169.56ZM80.77,25.89a1.65,1.65,0,0,0-1.63-1.71,1.72,1.72,0,0,0-1.67,1.61,1.67,1.67,0,0,0,1.66,1.69A1.61,1.61,0,0,0,80.77,25.89ZM13.41,141.79a1.62,1.62,0,0,0,1.64,1.69,1.7,1.7,0,0,0,1.67-1.61,1.74,1.74,0,0,0-1.67-1.7A1.66,1.66,0,0,0,13.41,141.79ZM174.67,92.93A1.7,1.7,0,0,0,173,91.3,1.75,1.75,0,0,0,171.36,93,1.72,1.72,0,0,0,173,94.64,1.69,1.69,0,0,0,174.67,92.93Z"/><path d="M83,112.65c-1,3.65-2,7.26-3,10.88-.19.71-.43,1-1.23,1-3.29-.06-6.58,0-10,0,.49-1.64,1-3.2,1.43-4.77l7.12-23.29c1.8-5.89,3.62-11.77,5.39-17.66A.92.92,0,0,1,83.75,78q6.1,0,12.22,0a.93.93,0,0,1,1.07.79q4.68,15.17,9.38,30.31L111,123.82c.06.19.09.38.16.67h-1.08c-3.14,0-6.27,0-9.41,0a.93.93,0,0,1-1.07-.8c-1-3.5-2.08-7-3.12-10.48-.11-.36-.18-.65-.69-.65-4.17,0-8.35,0-12.52,0C83.17,112.6,83.09,112.63,83,112.65Zm11.72-8L89.45,86.12c-1.6,6.09-3.22,12.29-4.86,18.55Z"/><path d="M127.92,124.45h-10.5V78h10.5Z"/></g></svg>