<svg id="Layer_1" data-name="Layer 1" xmlns="http://www.w3.org/2000/svg" viewBox="0 0 200 200"><g id="O8OfRw"><path d="M149.37,173.15c3.07,3,6,5.89,8.95,8.79s2.94,4.25,0,7.26l-.79.79c-2.7,2.67-4.06,2.69-6.79,0-3-2.95-6-5.9-8.87-8.93a1.88,1.88,0,0,0-2.84-.35,74.8,74.8,0,0,1-78.22.43c-1.75-1.06-2.77-1-4.15.51-2.69,2.93-5.57,5.66-8.39,8.46-2.58,2.56-4,2.53-6.62-.07-.53-.52-1.07-1.05-1.59-1.59-1.95-2.05-2-3.81,0-5.83,3-3,6-6.05,9-9.08a4.28,4.28,0,0,0,.36-.57c-17.54-16.81-26.29-37.29-24.27-61.77s14-43.16,34.21-57c-.56-1.26-1.13-2.53-1.83-4.06L38.37,58.43c-1.9-4.2-4.33-8-3.39-12.83a8.72,8.72,0,0,1,5.61-6.74c8-3.43,16.06-7,24.09-10.45,1.25-.54,2.36-1,2.6-2.7C69.19,12.4,78.34,6.65,90.34,4.4c9-1.69,17.92-1.25,26.46,2.35,8,3.36,13.43,8.9,14.7,17.8a4.61,4.61,0,0,0,3.2,4c7.67,3.19,15.16,6.82,22.88,9.85,6.5,2.55,7.51,8,6.24,12.42a78.65,78.65,0,0,1-3,7.64l-19.29-8.38c-.65,1.4-1.26,2.69-1.89,4,20.18,13.86,32.18,32.54,34.21,57S167.19,156,149.37,173.15Zm-88.49-5.44a.77.77,0,0,1,.22.22,49.23,49.23,0,0,0,6,4.49c3.38,1.84,7,3.31,10.49,4.83a50.82,50.82,0,0,0,17.36,3.93,67.7,67.7,0,0,0,30-5.14c8.23-3.4,14.81-8.85,21-14.86,4.54-4.44,7.94-9.88,10.91-15.62a63.24,63.24,0,0,0,6.76-26.87,56,56,0,0,0-4.26-24,104.66,104.66,0,0,0-7.89-14.42c-1.54-2.5-4-4.44-5.64-6.87-1.25-1.79-2.54-3.08-4.69-2.91-.26-.89-.26-1.82-.73-2.31A14.62,14.62,0,0,0,137,65.51c-5.19-2.85-10.25-6.06-15.71-8.27-10.06-4.09-20.69-4.72-31.35-3.18a56.23,56.23,0,0,0-22.41,8,70.74,70.74,0,0,0-11,8.25c-3.7,3.54-7.26,7.08-10,11.39-.85,1.33-1.25,3-2,4.34-.68,1.18-1.84,2.12-2.38,3.35a67.89,67.89,0,0,0-2.34,6.69,104,104,0,0,0-3.29,10.76,57.22,57.22,0,0,0,1.91,28.89,65.89,65.89,0,0,0,7.38,15.62c3.89,6,8.09,12,14.4,15.89l.41.26A2.48,2.48,0,0,1,60.88,167.71ZM69.79,26.05C77.1,25.58,81,30.34,83.26,38.81L65,46.87c1.25,3.52,1.25,3.51,4.22,2.19a72.69,72.69,0,0,1,25.35-6.23,8.26,8.26,0,0,0,1.59-.41c-.61-.57-1.16-.5-1.59-.7a18.57,18.57,0,0,1-2-1.28c.67-.53,1.28-1.34,2-1.53a13.91,13.91,0,0,1,3.36-.08c2.17,0,4.36-.12,6.51.08.73.07,1.38,1,2.07,1.49a15,15,0,0,1-2,1.32,5.16,5.16,0,0,1-1.6.25l0,.57a14.72,14.72,0,0,0,1.74.3A72.66,72.66,0,0,1,130,49.13c2.95,1.31,2.94,1.32,4-2.3l-18.29-8c1-4.18,3.31-8.34,5.59-10.32a9.74,9.74,0,0,1,8-2.29c-.8-8.73-5.78-14.12-13.25-17.12a43.38,43.38,0,0,0-32.66-.12C75.72,11.88,70.68,17.29,69.79,26.05Z"/><path d="M60.1,167.28l.48-.1c0,.12,0,.24-.07.36Z"/><path d="M60.88,167.71a.19.19,0,0,1,.22.22A.77.77,0,0,0,60.88,167.71Z"/><path d="M100.22,75.19c.41,3.43,1.07,6.87,1.15,10.31.18,7.79,0,15.58.1,23.37a11,11,0,0,0,.83,2.92,11.35,11.35,0,0,0,2.55-1.67c4.13-4.72,8.16-9.54,12.28-14.28a5.16,5.16,0,0,1,2.79-1.43,8.58,8.58,0,0,1-.5,2.14,46.58,46.58,0,0,1-3.35,5.56c-2.74,3.66-5.56,7.26-8.51,10.74-1.72,2-2.89,4.05-2.59,6.85.21,1.94-.83,3.08-3,3-1.72-.07-3.44,0-5.17,0a2.4,2.4,0,0,1-2.77-2.53,32.41,32.41,0,0,1,.07-5.83,3.16,3.16,0,0,1,1.77-2.2c1.55-.43,1.74-1.25,1.74-2.6,0-7.71-.12-15.43,0-23.14A92.61,92.61,0,0,1,98.6,77a8.59,8.59,0,0,1,.64-1.82Z"/><path d="M101.64,66.91c-.32,1.49-.54,2.89-1,4.23a1.87,1.87,0,0,1-1.26,1c-.29,0-.88-.55-1-1a11.76,11.76,0,0,1,0-8.54,1.92,1.92,0,0,1,1.26-1c.29,0,.9.57,1,1C101.06,64,101.33,65.49,101.64,66.91Z"/><path d="M77.51,76.65c-.07,1.7-.89,2.22-2,1.32a11.73,11.73,0,0,1-4.35-7.55,1.58,1.58,0,0,1,.55-1.3,1.55,1.55,0,0,1,1.4.21A12.86,12.86,0,0,1,77.51,76.65Z"/><path d="M121.46,77A12.89,12.89,0,0,1,126,69.3a1.15,1.15,0,0,1,1.91,1.16A12.1,12.1,0,0,1,123.52,78a1.6,1.6,0,0,1-1.42.17C121.75,78,121.62,77.35,121.46,77Z"/><path d="M49,119.33c-1.4-.27-2.8-.45-4.15-.84a1.88,1.88,0,0,1-1-1.26c-.05-.28.54-.89,1-1a12.19,12.19,0,0,1,8.52,0c.45.17,1.05.84,1,1.23a1.8,1.8,0,0,1-1.15,1.15C51.8,118.91,50.39,119.08,49,119.33Z"/><path d="M128.05,164.46c-.21.36-.37,1-.73,1.15a1.66,1.66,0,0,1-1.41-.28,12.31,12.31,0,0,1-4.32-7.37,2.28,2.28,0,0,1,.61-1.55c.13-.16.89,0,1.19.2C126,158.54,127.27,161.24,128.05,164.46Z"/><path d="M101.62,167.78c-.3,1.48-.48,2.81-.86,4.08A1.78,1.78,0,0,1,99.62,173a1.68,1.68,0,0,1-1.26-.95,11.76,11.76,0,0,1,0-8.5c.16-.41.75-1,1-.94a1.82,1.82,0,0,1,1.27,1C101.11,165,101.33,166.44,101.62,167.78Z"/><path d="M77.57,157.7c-.78,3.15-2.07,5.8-4.56,7.7a1.51,1.51,0,0,1-1.39.14,1.61,1.61,0,0,1-.48-1.35,12,12,0,0,1,4.43-7.53,1.53,1.53,0,0,1,1.4-.16C77.32,156.71,77.41,157.35,77.57,157.7Z"/><path d="M149.84,119.31c-1.36-.25-2.69-.41-4-.77-.47-.14-1.11-.74-1.13-1.16a1.57,1.57,0,0,1,1-1.18q4.16-.18,8.32,0c.41,0,1.2.88,1.12,1.11a2.29,2.29,0,0,1-1.25,1.32A38.55,38.55,0,0,1,149.84,119.31Z"/><path d="M52.43,145.78c-.31-.14-1-.24-1.15-.55s0-1.35.31-1.56q3.51-2.22,7.19-4.18a1.63,1.63,0,0,1,1.53.42,1.74,1.74,0,0,1-.26,1.6A12.85,12.85,0,0,1,52.43,145.78Z"/><path d="M146.61,145.8a13,13,0,0,1-7.61-4.28,2,2,0,0,1-.29-1.61c.07-.26.89-.51,1.33-.45a11.64,11.64,0,0,1,7.54,4.36,1.57,1.57,0,0,1,.2,1.4C147.58,145.56,146.93,145.66,146.61,145.8Z"/><path d="M59.15,95.36a13.19,13.19,0,0,1-7.69-4.49c-.26-.34-.41-1.18-.21-1.39s1.18-.7,1.53-.52c2.41,1.24,4.79,2.56,7.09,4,.39.24.5,1.18.44,1.76C60.28,95,59.52,95.18,59.15,95.36Z"/><path d="M140.28,95.27c-1.78-.06-2.25-.84-1.36-2a12.18,12.18,0,0,1,7.56-4.36,1.49,1.49,0,0,1,1.3.58,1.57,1.57,0,0,1-.23,1.4A12.7,12.7,0,0,1,140.28,95.27Z"/></g></svg>