<svg id="Layer_1" data-name="Layer 1" xmlns="http://www.w3.org/2000/svg" viewBox="0 0 200 200"><g id="_5v8BON.tif" data-name="5v8BON.tif"><path d="M80.2,190l-1.39-.26a11.39,11.39,0,0,1-8-6.33,10,10,0,0,1-1-3.93c0-2.41-.08-4.83-.08-7.25,0-6.09,0-12.19,0-18.28v-.59h-.46c-2.43,0-4.85,0-7.28,0a13.56,13.56,0,0,1-4.63-.77,12.68,12.68,0,0,1-4.05-2.43,12,12,0,0,1-2.84-3.73,11,11,0,0,1-1.18-4.35c0-.89-.08-1.78-.08-2.67q0-35.88,0-71.75V67H151.4v.44q0,37,0,73.92a12.43,12.43,0,0,1-3.52,8.24,12.1,12.1,0,0,1-5.71,3.29,16.27,16.27,0,0,1-3.93.43h-7.35v.55c0,8.23,0,16.45,0,24.68a11.22,11.22,0,0,1-2.59,7.22,11.41,11.41,0,0,1-6.31,3.92c-.52.12-1,.18-1.57.27h-2c-.5-.09-1-.16-1.48-.26a11.27,11.27,0,0,1-8.08-6.63,10.51,10.51,0,0,1-.91-4q0-12.59,0-25.16v-.53H92.67v.53q0,12,0,24c0,.86-.09,1.72-.17,2.57A9.77,9.77,0,0,1,91.36,184a11.57,11.57,0,0,1-7.36,5.7c-.57.14-1.15.23-1.72.35Z"/><path d="M132.34,5a2.14,2.14,0,0,1,1.2,1,1.93,1.93,0,0,1-.27,1.74l-2.07,3.7q-1.45,2.6-2.9,5.19c-.68,1.22-1.35,2.45-2,3.68L125.37,22c.77.44,1.52.84,2.23,1.29,1.49.95,3,1.88,4.43,2.9,1,.73,2,1.55,3,2.38s2.1,1.82,3.07,2.82a49.45,49.45,0,0,1,5,6,46.45,46.45,0,0,1,4.22,7.25,41.75,41.75,0,0,1,2.83,8.09c.35,1.47.59,3,.8,4.47.18,1.29.25,2.6.36,3.91.05.64.08,1.28.12,1.95H49.2c0-.52,0-1,0-1.58s.1-1.28.17-1.91c.16-1.34.32-2.68.51-4a38.12,38.12,0,0,1,1.87-7.2,39.25,39.25,0,0,1,3.14-6.85c.92-1.57,1.92-3.1,3-4.6A33,33,0,0,1,61.9,32c1.19-1.17,2.4-2.33,3.63-3.46a41.71,41.71,0,0,1,5.82-4.34c1.24-.8,2.53-1.5,3.86-2.28-.11-.18-.24-.39-.36-.61-.77-1.4-1.53-2.8-2.31-4.2-1.13-2-2.28-4.07-3.41-6.11-.64-1.17-1.27-2.34-1.92-3.5a1.59,1.59,0,0,1,1-2.45s0-.05,0-.07H69a2.54,2.54,0,0,1,1.24,1.26c.61,1.17,1.26,2.32,1.9,3.46,1.22,2.2,2.46,4.39,3.69,6.59.78,1.39,1.54,2.79,2.31,4.19a55.55,55.55,0,0,1,44.24,0q1.36-2.43,2.7-4.85c.78-1.4,1.54-2.81,2.32-4.2,1-1.73,1.94-3.45,2.89-5.19A2.66,2.66,0,0,1,131.56,5ZM76.72,35.83A4.24,4.24,0,1,0,81,40.09,4.24,4.24,0,0,0,76.72,35.83Zm51.38,4.23a4.24,4.24,0,1,0-4.27,4.25A4.25,4.25,0,0,0,128.1,40.06Z"/><path d="M178.59,124.52a.74.74,0,0,0-.08.22,10.17,10.17,0,0,1-1.14,4.53,11,11,0,0,1-2.85,3.63,11.19,11.19,0,0,1-4.76,2.4,11.59,11.59,0,0,1-3.9.24,11.86,11.86,0,0,1-4-1.14,10.87,10.87,0,0,1-3.14-2.31,11.45,11.45,0,0,1-2.93-5.65,9.5,9.5,0,0,1-.18-1.91q0-24.33,0-48.66a10.19,10.19,0,0,1,.89-3.91,11.4,11.4,0,0,1,2.92-4,11,11,0,0,1,5.29-2.62,11.63,11.63,0,0,1,2.42-.25,11.42,11.42,0,0,1,7,2.41A10.9,10.9,0,0,1,178,73a22.83,22.83,0,0,1,.52,2.88,1.53,1.53,0,0,0,.08.26Z"/><path d="M22,76.11c.06-.42.13-.83.17-1.24a10,10,0,0,1,1.46-4.21,12.62,12.62,0,0,1,1.82-2.35,11.16,11.16,0,0,1,5.78-3A11.45,11.45,0,0,1,39,66.43,11.08,11.08,0,0,1,43.56,71a12.49,12.49,0,0,1,1.29,3.74A6,6,0,0,1,45,75.9q0,24.21,0,48.41a11.48,11.48,0,0,1-.82,4.18,11.22,11.22,0,0,1-8.74,6.94,14.17,14.17,0,0,1-2.52.16,11.34,11.34,0,0,1-9.57-6.13,10.59,10.59,0,0,1-1.14-3.57c-.05-.45-.11-.91-.17-1.37Z"/></g></svg>