<svg id="Layer_1" data-name="Layer 1" xmlns="http://www.w3.org/2000/svg" viewBox="0 0 200 200"><path d="M35.16,76.07c-15,26-5.45,65.37,11.1,89.26C54.52,177.28,62.88,188,74.34,188H75c5.38-.22,9.27-1.87,13-3.48,4.22-1.79,8.59-3.65,15.43-3.65,6.52,0,10.68,1.8,14.7,3.53s8,3.49,14.07,3.38c12.9-.24,20.83-11.81,27.81-22a97.21,97.21,0,0,0,12.19-25l.05-.16a1.46,1.46,0,0,0-.77-1.78l-.11,0c-2.27-.93-22.2-9.77-22.41-33.87-.19-19.58,15-29.94,18-31.82l.14-.09a1.44,1.44,0,0,0,.41-2c-10.45-15.3-26.47-17.6-32.92-17.88-.94-.09-1.91-.14-2.88-.14-7.57,0-14.83,2.86-20.66,5.16-4,1.59-7.5,3-9.9,3-2.7,0-6.19-1.39-10.24-3-5.42-2.14-11.55-4.58-18-4.58h-.46C57.31,53.74,43,62.38,35.16,76.07Z"/><path d="M134.61,11c-9.15.37-20.12,6-26.68,13.69-5.57,6.45-11,17.22-9.59,28.07A1.46,1.46,0,0,0,99.67,54c.62,0,1.25.07,1.88.07,8.94,0,18.59-5,25.18-12.91,6.93-8.42,10.44-19.22,9.38-28.89A1.45,1.45,0,0,0,134.61,11Z"/></svg>