<svg id="Layer_1" data-name="Layer 1" xmlns="http://www.w3.org/2000/svg" viewBox="0 0 200 200"><g id="nmQkoG.tif"><path d="M161.2,190.68h-4c-4.08-2.47-3.31-6.66-3.46-10.61h-5.4c-.2,4.06.6,8.3-3.73,10.61h-3.31c-4.91-2.14-3.73-6.81-4-10.67h-5.83c-.1,4,.57,8.14-3.39,10.67h-4c-4.36-2.35-3.28-6.71-3.64-10.66h-5.61c-.2,4,.7,8.48-4,10.66h-3.31c-4.55-2.27-3.48-6.79-3.88-10.65h-5.3c-.25,4.1.85,8.61-4.07,10.65H91c-4.4-2.33-3.28-6.71-3.64-10.6H81.58c0,4.15.58,8.36-3.85,10.6H74.42c-4.6-2.24-3.67-6.69-3.94-10.6H65c0,4.15.54,8.32-3.8,10.6H57.85c-4.65-2.2-3.71-6.66-4-10.59H48.44c0,4.17.54,8.33-3.84,10.59H41.29c-4.61-2.26-3.74-6.72-3.93-10.86-5.29.14-9.95-.66-13.55-4.64s-3.35-9.13-3.42-14.36c-1.8,0-3.33,0-4.84,0-3.61-.13-5.92-2.2-6-5.31s2.17-5.27,5.78-5.44c1.6-.08,3.22,0,4.8,0v-5.77c-1.94,0-3.59.08-5.24,0a5.32,5.32,0,0,1-5.35-5.21c-.07-3,2.09-5.24,5.44-5.42,1.72-.1,3.44,0,5.22,0v-5.74c-4.32-.5-10.26,1.31-10.48-5.26-.24-7.17,6.21-5,10.43-5.83v-5.56c-4.33-.43-10,1.1-10.41-5.1-.43-7.35,6.15-5.4,10.49-6.18V94.6c-1.83,0-3.46.06-5.09,0-3.37-.15-5.57-2.27-5.6-5.3s2.14-5.17,5.52-5.35c1.71-.09,3.42,0,5.13,0V78.14c-4.35-.47-10.25,1.22-10.47-5.3C9.5,65.69,16,67.78,20.14,67V61.39c-4.39-.53-10.32,1.11-10.41-5.45-.09-7,6.26-5.08,10.55-5.81.06-1.16.15-2.14.14-3.11a18.21,18.21,0,0,0-.29-2.17c-1.73,0-3.38.08-5,0-3.33-.18-5.55-2.38-5.56-5.38s2.16-5.13,5.57-5.32c1.7-.09,3.41,0,5,0C22.1,23,24.21,21.22,37.51,19c.6-4-1.23-10.22,5.53-10.25C50,8.7,48.1,15,48.67,19.13h5.26c.63-4.3-1-10.26,5.48-10.39,7-.15,5.23,6.15,5.84,10.37h5.5c.46-4.33-1.26-10.28,5.33-10.38,7.06-.11,5.13,6.23,5.74,10.45h5.65C88.09,14.93,86.11,8.74,93,8.72s5,6.16,5.52,10.39H104c.45-4.31-1.3-10.26,5.28-10.38,7-.13,5.13,6.21,5.7,10.43h5.59c.65-4.29-1.24-10.45,5.61-10.44S131,15,131.71,19.09h5.83c0-1.81-.09-3.35,0-4.87.24-3.4,2.35-5.59,5.32-5.66s5.35,2.22,5.57,5.76c.1,1.6,0,3.21,0,4.79h5.36c.45-4.28-1.13-10,5.09-10.36,7.34-.43,5.43,6.12,6.15,10.54,5,0,9.5.54,13.07,4.13s4.07,8.35,4,13.32c4.17.3,8.51-.8,10.9,3.56v4c-2.59,3.92-6.71,3.35-10.65,3.35v5.44c4.17,0,8.37-.58,10.65,3.8v3.31c-2.26,4.61-6.68,3.71-10.7,3.87v5.87c4,.17,8.28-.73,10.7,3.51v4c-2.57,3.94-6.69,3.34-10.72,3.33v5.85c4.05,0,8.21-.65,10.72,3.4v4c-2.48,4.15-6.73,3.27-10.7,3.43v5.5c4,.24,8.35-.71,10.7,3.66v3.31c-2.16,4.82-6.6,3.85-10.73,4v5.93c4.06-.06,8.21-.7,10.73,3.36v4c-2.45,4.34-6.93,3.08-10.71,3.54v5.64c4.05.08,8.21-.67,10.71,3.41v4c-2.45,4.33-6.92,3.09-10.68,3.53v5.56c4.05.15,8.27-.73,10.68,3.5v4c-2.58,3.93-6.71,3.35-10.5,3.34-2.73,13.54-3,13.78-17.88,16.73C164.62,184,165.31,188.21,161.2,190.68ZM101.33,22.49H36.74c-9,0-13.16,4.16-13.16,13.16q0,63.93,0,127.85c0,9,4.15,13.17,13.16,13.17H165.58c9.26,0,13.33-4.08,13.33-13.33q0-63.76,0-127.52c0-9.25-4.07-13.33-13.32-13.33Z"/><path d="M102.27,142.29q-17.38,0-34.76,0c-5.5,0-8-2.35-8-7.8q-.06-34.92,0-69.85c0-5.45,2.45-7.73,8-7.74h69.52c5.87,0,8.16,2.32,8.17,8.28q0,34.44,0,68.86c0,5.92-2.33,8.25-8.22,8.25Q119.66,142.31,102.27,142.29Zm.31-82.17H70.81c-5.69,0-7.86,2.09-7.86,7.72q0,31.77,0,63.54c0,5.46,2.21,7.64,7.62,7.64h63.54c5.39,0,7.78-2.28,7.78-7.56q0-31.93,0-63.87c0-5.14-2.39-7.46-7.54-7.47C123.76,60.11,113.17,60.13,102.58,60.12Z"/><path d="M40.75,62.76a50.07,50.07,0,0,1-6.25-.08c-.83-.1-1.55-1.14-2.32-1.75.75-.65,1.48-1.81,2.26-1.85,4.16-.18,8.35-.18,12.51,0,.78,0,1.5,1.17,2.25,1.79-.73.63-1.4,1.71-2.2,1.81A50.07,50.07,0,0,1,40.75,62.76Z"/><path d="M143.68,38.15a48.52,48.52,0,0,1-.09,6.27c-.1.82-1.19,1.52-1.84,2.27-.58-.78-1.64-1.55-1.68-2.35q-.25-6.12,0-12.24c0-.81,1.05-1.59,1.61-2.38.67.82,1.78,1.58,1.92,2.49a39.17,39.17,0,0,1,.09,5.94Z"/><path d="M40.93,65.63a56.61,56.61,0,0,1,6.25.08c.73.09,1.35,1.1,2,1.69-.7.66-1.37,1.87-2.1,1.9-4.27.18-8.56.16-12.84,0-.71,0-1.39-1.07-2.08-1.65.72-.67,1.38-1.83,2.17-1.93A53.41,53.41,0,0,1,40.93,65.63Z"/><path d="M40.82,72.24a38.93,38.93,0,0,1,5.92.09c.9.14,1.65,1.25,2.47,1.92-.78.59-1.53,1.65-2.33,1.69-4.06.17-8.13.19-12.18,0-.87,0-1.68-1.22-2.51-1.88.79-.6,1.53-1.62,2.38-1.72A50.06,50.06,0,0,1,40.82,72.24Z"/><path d="M84.3,160.73a47,47,0,0,1-.08,5.94c-.11.85-1.08,1.6-1.67,2.39-.68-.81-1.9-1.6-1.94-2.45-.2-4.06-.18-8.15,0-12.22,0-.75,1.2-1.46,1.85-2.19.61.75,1.65,1.45,1.75,2.26A50.38,50.38,0,0,1,84.3,160.73Z"/><path d="M77.67,160.55a50.38,50.38,0,0,1-.09,6.27c-.1.81-1.19,1.5-1.82,2.24-.63-.75-1.78-1.48-1.81-2.26-.18-4.18-.17-8.38,0-12.56,0-.71,1.3-1.36,2-2,.57.69,1.55,1.33,1.63,2.08A59.55,59.55,0,0,1,77.67,160.55Z"/><path d="M40.43,82.63a56.57,56.57,0,0,1-6.25-.08c-.72-.09-1.34-1.13-2-1.73.64-.64,1.26-1.81,1.92-1.84q6.59-.24,13.17,0c.66,0,1.29,1.15,1.93,1.76-.73.64-1.4,1.72-2.19,1.81A55.52,55.52,0,0,1,40.43,82.63Z"/><path d="M71,160.89a43.55,43.55,0,0,1-.09,5.94c-.11.81-1.19,1.49-1.83,2.23-.63-.76-1.77-1.49-1.8-2.27-.19-4.07-.18-8.16,0-12.23,0-.81,1.1-1.57,1.69-2.36.68.8,1.83,1.54,2,2.42A45.14,45.14,0,0,1,71,160.89Z"/><path d="M60.59,160.36a43.68,43.68,0,0,1,.08-6c.11-.8,1.19-1.47,1.83-2.21.63.74,1.77,1.47,1.81,2.23.17,4.18.16,8.38,0,12.56,0,.71-1.09,1.38-1.67,2.07-.69-.7-1.86-1.33-2-2.1A55.82,55.82,0,0,1,60.59,160.36Z"/><path d="M40.68,89.27a40.25,40.25,0,0,1-5.92-.09c-.93-.13-1.72-1.18-2.58-1.82.78-.62,1.53-1.74,2.33-1.78,4.17-.18,8.35-.18,12.51,0,.76,0,1.46,1.21,2.18,1.86-.75.61-1.46,1.63-2.27,1.73A54.25,54.25,0,0,1,40.68,89.27Z"/><path d="M40.52,142.28a46.74,46.74,0,0,1-5.92-.08c-.86-.11-1.62-1.07-2.42-1.64.72-.69,1.41-1.93,2.15-2,4.28-.19,8.57-.19,12.84,0,.71,0,1.36,1.31,2,2-.7.55-1.36,1.5-2.11,1.58C44.93,142.41,42.72,142.27,40.52,142.28Z"/><path d="M40.59,95.89a62.18,62.18,0,0,1-6.26-.08c-.76-.08-1.44-1-2.15-1.58.69-.7,1.36-2,2.09-2,4.27-.2,8.57-.2,12.84,0,.73,0,1.4,1.27,2.1,2-.79.57-1.53,1.54-2.37,1.64A54.25,54.25,0,0,1,40.59,95.89Z"/><path d="M40.77,135.65a65.54,65.54,0,0,1-6.58-.09c-.72-.07-1.34-1.12-2-1.72.64-.64,1.25-1.82,1.91-1.85q6.58-.26,13.17,0c.67,0,1.3,1.15,1.94,1.77-.72.63-1.39,1.71-2.19,1.81A49.9,49.9,0,0,1,40.77,135.65Z"/><path d="M40.64,129a48.2,48.2,0,0,1-6.25-.08c-.8-.11-1.47-1.2-2.2-1.85.67-.61,1.33-1.72,2-1.75,4.39-.15,8.79-.14,13.17,0,.64,0,1.22,1.22,1.83,1.87-.66.59-1.28,1.61-2,1.69A65.55,65.55,0,0,1,40.64,129Z"/><path d="M40.61,102.51a59.14,59.14,0,0,1-6.25-.08c-.78-.08-1.46-1-2.18-1.55.69-.71,1.35-2,2.07-2,4.27-.19,8.57-.19,12.84,0,.73,0,1.41,1.26,2.12,1.93-.78.58-1.52,1.57-2.35,1.67A52.09,52.09,0,0,1,40.61,102.51Z"/><path d="M40.54,109.16a46.69,46.69,0,0,1-5.92-.08c-.87-.11-1.63-1.07-2.44-1.64.71-.69,1.4-1.94,2.14-2,4.27-.19,8.56-.18,12.84,0,.71,0,1.37,1.3,2.05,2-.69.56-1.35,1.53-2.09,1.6a65.58,65.58,0,0,1-6.58.08Z"/><path d="M40.34,122.41a35.89,35.89,0,0,1-5.59-.08c-.93-.15-1.71-1.2-2.56-1.84.77-.62,1.52-1.75,2.32-1.78q6.26-.27,12.52,0c.75,0,1.45,1.22,2.18,1.88-.76.6-1.47,1.64-2.29,1.73A62.7,62.7,0,0,1,40.34,122.41Z"/><path d="M40.39,115.78a43.26,43.26,0,0,1-5.92-.09c-.83-.11-1.53-1.15-2.29-1.77.65-.63,1.28-1.79,2-1.81,4.39-.17,8.79-.16,13.17,0,.66,0,1.27,1.17,1.91,1.8-.75.62-1.44,1.69-2.24,1.78A57.7,57.7,0,0,1,40.39,115.78Z"/><path d="M162.64,102.51a57.12,57.12,0,0,1-6.28-.08c-.73-.09-1.34-1.11-2-1.7.61-.66,1.21-1.86,1.85-1.88,4.41-.16,8.83-.15,13.23,0,.63,0,1.22,1.22,1.82,1.88-.66.58-1.28,1.6-2,1.67C167.07,102.65,164.85,102.5,162.64,102.51Z"/><path d="M162.86,115.78a40.68,40.68,0,0,1-6-.08c-.92-.13-1.71-1.19-2.56-1.82.87-.63,1.72-1.77,2.62-1.81a112.66,112.66,0,0,1,11.91,0c.82,0,1.59,1.31,2.38,2-.81.56-1.58,1.49-2.45,1.6A49.13,49.13,0,0,1,162.86,115.78Z"/><path d="M162.75,109.15a57.3,57.3,0,0,1-6.29-.08c-.75-.08-1.41-1-2.11-1.61.69-.69,1.35-2,2.07-2q6.29-.28,12.58,0c.77,0,1.5,1.17,2.25,1.81-.74.63-1.42,1.7-2.22,1.8A50.57,50.57,0,0,1,162.75,109.15Z"/><path d="M162.51,122.41a35,35,0,0,1-5.61-.09c-.92-.14-1.7-1.19-2.55-1.83.77-.63,1.51-1.75,2.3-1.79q6.12-.27,12.25,0c.8,0,1.57,1.12,2.35,1.72-.82.66-1.57,1.77-2.46,1.9A46.92,46.92,0,0,1,162.51,122.41Z"/><path d="M63.84,38.34a59.71,59.71,0,0,1-.08,6.28c-.08.74-1.07,1.39-1.64,2.08-.64-.64-1.83-1.25-1.85-1.9-.17-4.4-.17-8.82,0-13.22,0-.64,1.19-1.24,1.84-1.86.57.67,1.58,1.29,1.65,2C64,33.92,63.84,36.14,63.84,38.34Z"/><path d="M162.66,129a45.4,45.4,0,0,1-5.95-.08c-.85-.11-1.58-1.1-2.36-1.69.71-.67,1.41-1.89,2.15-1.92q6.28-.28,12.58,0c.75,0,1.45,1.23,2.17,1.89-.76.6-1.48,1.62-2.31,1.72A52.54,52.54,0,0,1,162.66,129Z"/><path d="M70.47,38.37a59.7,59.7,0,0,1-.09,6.28c-.08.73-1.07,1.36-1.64,2-.64-.64-1.82-1.26-1.84-1.92-.16-4.4-.15-8.82,0-13.22,0-.63,1.21-1.22,1.86-1.83.56.68,1.54,1.32,1.61,2.05A66,66,0,0,1,70.47,38.37Z"/><path d="M162.78,62.76a48.65,48.65,0,0,1-6.28-.09c-.79-.1-1.44-1.23-2.15-1.9.68-.59,1.34-1.66,2-1.69,4.29-.15,8.61-.15,12.9,0,.68,0,1.31,1.14,2,1.75-.73.64-1.4,1.73-2.19,1.83A50.55,50.55,0,0,1,162.78,62.76Z"/><path d="M162.71,95.89a49.15,49.15,0,0,1-6-.07c-.86-.11-1.61-1.07-2.41-1.64.81-.69,1.59-1.93,2.44-2,4.07-.2,8.17-.18,12.24,0,.77,0,1.48,1.19,2.22,1.84-.75.61-1.44,1.66-2.26,1.76A52.54,52.54,0,0,1,162.71,95.89Z"/><path d="M163.11,135.65a56,56,0,0,1-6.61-.09c-.78-.09-1.43-1.23-2.14-1.88.67-.6,1.33-1.69,2-1.72q6.45-.22,12.91,0c.67,0,1.31,1.14,2,1.76-.73.64-1.39,1.72-2.19,1.83A45.35,45.35,0,0,1,163.11,135.65Z"/><path d="M162.8,89.26a48.7,48.7,0,0,1-6.28-.09c-.79-.1-1.45-1.21-2.17-1.86.67-.6,1.32-1.7,2-1.72q6.45-.24,12.91,0c.68,0,1.32,1.12,2,1.73-.72.64-1.38,1.74-2.17,1.84A48.65,48.65,0,0,1,162.8,89.26Z"/><path d="M162.86,142.28a40.68,40.68,0,0,1-6-.08c-.92-.13-1.71-1.18-2.56-1.82.87-.63,1.72-1.76,2.61-1.81a112.85,112.85,0,0,1,11.92,0c.82,0,1.59,1.32,2.38,2-.81.56-1.58,1.49-2.45,1.6A49.13,49.13,0,0,1,162.86,142.28Z"/><path d="M162.7,69.39a45.38,45.38,0,0,1-5.95-.07c-.86-.11-1.6-1.08-2.4-1.66.81-.69,1.6-1.91,2.45-2,4.07-.2,8.16-.18,12.24,0,.76,0,1.48,1.2,2.21,1.84-.75.61-1.45,1.66-2.27,1.76A52.54,52.54,0,0,1,162.7,69.39Z"/><path d="M133.34,37.94a45.22,45.22,0,0,1,.09-5.94c.1-.82,1.12-1.52,1.72-2.27.63.75,1.78,1.47,1.82,2.25.18,4.07.21,8.16,0,12.23-.05.86-1.29,1.66-2,2.49-.55-.83-1.48-1.61-1.58-2.48A57.13,57.13,0,0,1,133.34,37.94Z"/><path d="M162.75,82.64a59.71,59.71,0,0,1-6.28-.08c-.76-.08-1.42-1-2.12-1.6.69-.7,1.35-2,2.07-2,4.18-.19,8.39-.19,12.57,0,.78,0,1.51,1.18,2.26,1.8-.74.63-1.42,1.7-2.22,1.8A50.54,50.54,0,0,1,162.75,82.64Z"/><path d="M97.56,160.85a54.39,54.39,0,0,1-.09,6.26c-.08.71-1.13,1.3-1.73,1.95-.64-.63-1.8-1.25-1.82-1.9-.16-4.4-.14-8.81,0-13.21,0-.61,1.25-1.17,1.92-1.76.56.69,1.54,1.33,1.61,2.06A66,66,0,0,1,97.56,160.85Z"/><path d="M162.63,76a57.12,57.12,0,0,1-6.28-.08c-.72-.09-1.34-1.12-2-1.72.62-.65,1.21-1.84,1.85-1.86q6.62-.24,13.24,0c.63,0,1.21,1.22,1.81,1.88-.66.58-1.29,1.6-2,1.67C167.06,76.15,164.84,76,162.63,76Z"/><path d="M90.94,160.34c0,2.21.14,4.42-.08,6.61-.08.75-1,1.41-1.6,2.12-.7-.69-2-1.35-2-2.07-.19-4.29-.16-8.59,0-12.88,0-.66,1.17-1.28,1.79-1.92.63.73,1.69,1.4,1.8,2.2A43.55,43.55,0,0,1,90.94,160.34Z"/><path d="M104.21,160.73a47.06,47.06,0,0,1-.07,5.94c-.11.85-1.06,1.6-1.63,2.4-.69-.71-1.93-1.38-2-2.12-.2-4.17-.2-8.37,0-12.55,0-.76,1.21-1.47,1.86-2.2.61.75,1.64,1.45,1.74,2.26A52.4,52.4,0,0,1,104.21,160.73Z"/><path d="M110.86,160.86a45.07,45.07,0,0,1-.08,5.93c-.11.82-1.14,1.52-1.75,2.27-.64-.75-1.79-1.47-1.83-2.24-.19-4.07-.2-8.15,0-12.21,0-.84,1.29-1.61,2-2.42.56.8,1.51,1.55,1.6,2.4A54.6,54.6,0,0,1,110.86,160.86Z"/><path d="M117.48,160.69a62.19,62.19,0,0,1-.07,6.26c-.08.76-1,1.42-1.57,2.13-.69-.7-2-1.37-2-2.09-.18-4.28-.16-8.58,0-12.86,0-.67,1.16-1.29,1.78-1.93.62.74,1.66,1.42,1.76,2.22A52.37,52.37,0,0,1,117.48,160.69Z"/><path d="M124.13,160.83a59.32,59.32,0,0,1-.09,6.26c-.08.71-1.1,1.32-1.69,2-.64-.63-1.8-1.24-1.82-1.89-.15-4.39-.14-8.8,0-13.19,0-.62,1.23-1.19,1.89-1.79.56.68,1.53,1.32,1.6,2.05A65.78,65.78,0,0,1,124.13,160.83Z"/><path d="M130.35,38.25a39.06,39.06,0,0,1-.09,5.93c-.13.91-1.24,1.67-1.9,2.5-.55-.82-1.54-1.61-1.57-2.45-.17-4.06-.17-8.14,0-12.21,0-.79,1.09-1.54,1.68-2.3.62.75,1.67,1.45,1.78,2.27a52.23,52.23,0,0,1,.08,6.26Z"/><path d="M83.75,38.38a59.55,59.55,0,0,1-.08,6.27C83.59,45.38,82.6,46,82,46.7c-.61-.65-1.73-1.28-1.75-2q-.24-6.59,0-13.19c0-.63,1.17-1.22,1.8-1.83.56.68,1.51,1.33,1.59,2.06C83.89,34,83.75,36.18,83.75,38.38Z"/><path d="M120.07,38a57,57,0,0,1,.08-6.27c.08-.72,1.09-1.33,1.67-2,.62.63,1.75,1.26,1.78,1.92.15,4.39.14,8.8,0,13.19,0,.64-1.2,1.24-1.84,1.85-.55-.7-1.51-1.36-1.58-2.11A65.78,65.78,0,0,1,120.07,38Z"/><path d="M90.42,38a54.61,54.61,0,0,1-.07,6.27c-.1.85-1.07,1.6-1.65,2.4-.63-.74-1.78-1.46-1.81-2.24-.18-4.17-.18-8.36,0-12.53,0-.76,1.18-1.47,1.82-2.2.57.79,1.53,1.53,1.63,2.37A46.87,46.87,0,0,1,90.42,38Z"/><path d="M77.13,38.22A52.22,52.22,0,0,1,77,44.48c-.1.79-1.18,1.47-1.82,2.2-.57-.7-1.62-1.37-1.64-2.09-.16-4.28-.16-8.58,0-12.87,0-.68,1.1-1.33,1.69-2,.62.73,1.67,1.42,1.77,2.22A50.35,50.35,0,0,1,77.13,38.22Z"/><path d="M93.48,38.15a50.19,50.19,0,0,1,.09-6.26c.1-.79,1.19-1.45,1.83-2.16C96,30.42,97,31.09,97,31.8c.14,4.28.14,8.58,0,12.86,0,.7-1.09,1.36-1.68,2-.61-.76-1.65-1.47-1.75-2.29A52.23,52.23,0,0,1,93.48,38.15Z"/><path d="M106.78,38a59.33,59.33,0,0,1,.08-6.26c.08-.72,1.08-1.34,1.66-2,.62.63,1.74,1.25,1.76,1.91q.23,6.6,0,13.2c0,.64-1.18,1.24-1.82,1.85-.55-.7-1.51-1.36-1.58-2.1C106.65,42.4,106.78,40.18,106.78,38Z"/><path d="M117,38.24a48.37,48.37,0,0,1-.09,6.26c-.1.79-1.2,1.46-1.85,2.18-.55-.7-1.56-1.39-1.58-2.11-.15-4.28-.15-8.58,0-12.87,0-.68,1.1-1.32,1.68-2,.61.65,1.67,1.24,1.75,1.94a62.9,62.9,0,0,1,.08,6.59Z"/><path d="M103.72,38a57,57,0,0,1-.07,6.27c-.1.86-1.05,1.62-1.61,2.43-.65-.83-1.82-1.65-1.86-2.51C100,40.11,100,36,100.19,32c0-.77,1.15-1.49,1.76-2.24.59.77,1.58,1.5,1.69,2.33A46.87,46.87,0,0,1,103.72,38Z"/><path d="M130.76,161a43.11,43.11,0,0,1-.09,5.91c-.1.79-1.16,1.46-1.79,2.18-.58-.67-1.63-1.32-1.65-2q-.24-6.41,0-12.82c0-.69,1.08-1.34,1.66-2,.62.73,1.69,1.4,1.78,2.18A57.7,57.7,0,0,1,130.76,161Z"/><path d="M137.42,160.73a48.63,48.63,0,0,1-.07,5.92c-.11.86-1,1.61-1.6,2.41-.66-.71-1.86-1.4-1.89-2.13-.18-4.16-.19-8.34,0-12.5,0-.77,1.16-1.49,1.79-2.24.59.76,1.6,1.48,1.7,2.3A54.05,54.05,0,0,1,137.42,160.73Z"/><path d="M144,160.83a59,59,0,0,1-.09,6.24c-.07.72-1.07,1.34-1.65,2-.6-.64-1.71-1.26-1.74-1.92q-.23-6.57,0-13.15c0-.62,1.17-1.2,1.8-1.8.56.68,1.51,1.32,1.58,2C144.17,156.43,144,158.64,144,160.83Z"/><path d="M125,89.65c-8.68,5.7-9.28,18.1,1.78,24.37a31.57,31.57,0,0,1-9.16,14.12c-2.49,2.17-5.49,2.3-8.41,1a16.61,16.61,0,0,0-13.78,0c-3.74,1.59-6.91.6-9.55-2.29-7.23-7.94-11.16-17.14-10.14-28,1-11.09,11.38-18.24,21.26-13.76,3.87,1.75,7.23.56,10.82-.59C114.84,82.34,121.13,84.23,125,89.65Z"/><path d="M113.72,69.59c1,6.67-5,13.63-11.8,13.68C100.26,77,106.61,69.59,113.72,69.59Z"/></g></svg>