<svg id="Layer_1" data-name="Layer 1" xmlns="http://www.w3.org/2000/svg" viewBox="0 0 200 200"><g id="_2UWK5M.tif" data-name="2UWK5M.tif"><path d="M99.84,30.27c.3-.47.53-.82.74-1.17.59-1,1.13-2,1.75-2.94a13.12,13.12,0,0,1,24,7.23,13.41,13.41,0,0,1-1.89,6.88L105.2,73.66,80.53,116.38c-.26.46-.51.93-.89,1.63h1.74c8.42,0,16.83,0,25.25,0a2.06,2.06,0,0,1,2.07,1.22c4.51,7.89,9.07,15.75,13.61,23.63.23.4.45.8.79,1.41-.61,0-1.08.05-1.56.05h-98a12.67,12.67,0,0,1-9.64-4.08,12.49,12.49,0,0,1-2.79-13.64c1.87-5,5.67-7.85,11-8.46a19.23,19.23,0,0,1,2.28-.1c7.87,0,15.74,0,23.6,0a1.8,1.8,0,0,0,1.8-1Q66.94,87.32,84.08,57.68l.58-1L82.2,52.36C79.8,48.19,77.34,44,75,39.83A13.12,13.12,0,0,1,97.36,26.15c.63,1,1.17,2,1.75,2.94C99.32,29.44,99.54,29.79,99.84,30.27Z"/><path d="M165.68,144.3c.32.59.52,1,.75,1.39,2.49,4.32,5,8.65,7.49,12.95a14,14,0,0,1,2.11,7.2,13.13,13.13,0,0,1-24.42,6.71q-7-12-13.89-24-15.57-27-31.15-53.89a2,2,0,0,1,0-2.4c4.62-7.92,9.19-15.87,13.78-23.8.21-.36.44-.71.74-1.19.34.55.6,1,.85,1.39q13.88,24,27.73,48.11A2.25,2.25,0,0,0,152,118c7.87-.05,15.73,0,23.6,0a13.24,13.24,0,0,1,9.63,3.52,13.11,13.11,0,0,1-6.58,22.54,14.75,14.75,0,0,1-2.65.23C172.61,144.31,169.27,144.3,165.68,144.3Z"/><path d="M58.22,154.84c-.19.4-.3.7-.46,1-3.21,5.56-6.37,11.15-9.64,16.67a13.13,13.13,0,0,1-23-12.65c.75-1.42,1.62-2.77,2.37-4.19a1.55,1.55,0,0,1,1.61-.89c7.56,0,15.13,0,22.69,0H57C57.36,154.78,57.73,154.81,58.22,154.84Z"/></g></svg>