<svg id="Layer_1" data-name="Layer 1" xmlns="http://www.w3.org/2000/svg" viewBox="0 0 200 200"><g id="aAIHxd.tif"><path d="M74.33,158.79c-4.65,0-6.59-1.44-7.82-5.83-2.31-8.26-4.42-16.58-6.79-24.82-1.83-6.38-.69-5.84-7.4-4.17-5.81,1.44-11.62,2.91-17.35,4.61-2.13.63-3.62.45-5.21-1.16-8.44-8.53-17-17-25.43-25.49-2-2-1.83-2.47,1.21-3.29q18.74-5,37.51-10c5.71-1.52,5.7-1.52,4.2-7.11C45.16,73.69,43.06,65.88,41,58.06c-1.48-5.62.19-8.57,5.84-10.08q56.76-15.21,113.52-30.34c6.37-1.7,9.13-.12,10.8,6.11q12.42,46.43,24.75,92.86c.13.47.34.92.44,1.4,1.14,5.46-.43,8.31-5.85,9.86-7.31,2.09-14.69,4-22,5.93q-45,12.06-90,24.1C76.86,158.32,75.26,158.59,74.33,158.79Zm83-126.24c-1.21.28-2.33.49-3.42.78Q116.11,43.41,78.36,53.52c-6.56,1.76-13.07,3.73-19.65,5.4-2.25.57-3.05,1.54-2.35,3.72.24.77.47,1.55.68,2.33q6.59,24.86,13.18,49.73c2.17,8.12,4.39,16.23,6.6,24.34,1.28,4.69,1.3,4.71,5.89,3.53,3.92-1,7.83-2,11.73-3.07q41.28-11,82.55-22.09c4.7-1.26,4.68-1.33,3.56-5.9-.12-.47-.2-1-.33-1.42Q172.44,81,164.63,52c-1.51-5.62-3.07-11.24-4.6-16.86C159.63,33.64,159.22,32.22,157.3,32.55ZM47.7,89.46c-.75.09-.91.09-1.07.13-12.48,3.34-25,6.64-37.42,10.07-2.74.76-2.88,1.5-.8,3.62,7.27,7.39,14.64,14.66,21.94,22,1.58,1.59,3.25,1.72,5.32,1.12,4.8-1.4,9.67-2.56,14.48-3.93,8.37-2.39,7.76-.63,5.56-9.43C54,106.16,52,99.32,50.2,92.45,49.77,90.82,49.35,89.23,47.7,89.46Zm17,17.71A4,4,0,0,0,61,103.39a4,4,0,0,0-3.6,3.89,4,4,0,0,0,3.72,3.77A4,4,0,0,0,64.69,107.17Z"/><path d="M168.14,100.17a6,6,0,0,1-1.28.89c-1.54.49-3.1.92-4.66,1.34-18.9,5.08-37.8,10.12-56.68,15.26-2.35.64-4.12.8-6.07-1.21C91.31,108.1,83,100,74.72,91.68c-2.55-2.57-2.44-2.89,1-3.85,6.7-1.86,13.43-3.65,20.13-5.51,4.15-1.15,4.3-1.2,4.33-5.13.06-8.6.19-6.94,7.56-9.08,3.72-1.09,7.5-2,11.22-3.12a4.74,4.74,0,0,1,4.93,1c1.7,1.51,3.53,2.86,5.19,4.4,1.83,1.71,3.75,2.38,6.19,1.44s4.54-.44,6.53,1.61c8,8.25,16.23,16.32,24.35,24.47C166.82,98.57,167.4,99.33,168.14,100.17Zm-31-11.87c0,3.07,0,6.15,0,9.23a3.34,3.34,0,0,1-2.9,3.77c-5.33,1.37-10.6,2.94-15.9,4.4a5.29,5.29,0,0,1-5.39-1.23,69.91,69.91,0,0,0-7.07-5.92C102,95.79,99,92.73,100.19,87.4a4.8,4.8,0,0,0-.1-1.45c-.2-1.9-1.2-2.45-3-2-6.08,1.68-12.2,3.23-18.25,5-2.49.72-2.63,1.37-.76,3.27,7.28,7.38,14.67,14.65,22,22a5,5,0,0,0,5.7,1.34c2.92-.93,5.93-1.62,8.89-2.41q22.5-6,45-12c5.14-1.38,5.18-1.65,1.3-5.53q-9.61-9.63-19.25-19.24a11.38,11.38,0,0,0-2.89-2.56c-.84-.39-2.06.05-3.11.12.17.8.33,1.6.53,2.4A19.82,19.82,0,0,1,137.1,80C137.25,82.78,137.15,85.54,137.15,88.3Zm-20.93,7.51.7.26c0,1.13-.09,2.27,0,3.39.28,2.85.82,3.23,3.77,2.57,2.2-.5,4.39-1,6.54-1.71a35.48,35.48,0,0,0,3.85-1.7c-1-1.17-1.85-2.42-2.91-3.51a23.48,23.48,0,0,0-3.31-2.82c-1.88-1.31-3.68-4.17-6.17-2.21C117.27,91.21,117,93.85,116.22,95.81Zm18.5-7.71c-.34-9.41.47-8.72-9-6.13-3.14.86-3.66,3.4-1.38,5.87A20.91,20.91,0,0,0,128,90.9c1.9,1.27,2.88,4,5.75,3.72ZM120.11,72.66c.07-4.35-.42-4.75-4.45-3.76-2.8.68-5.6,1.42-8.37,2.23-1,.3-1.64.92-.79,2.13,2.8,4,5.62,4.85,10.34,3.47C119.25,76,120.48,74.86,120.11,72.66ZM103.05,86.23c-.06,4.42.2,4.63,4.66,3.53a37.35,37.35,0,0,0,4.17-1.17c2.18-.82,2.91-2.62,2-4.57a5.6,5.6,0,0,0-6-2.91C103.58,82,103.09,82.51,103.05,86.23Zm11.53,9.88L114.2,96c0-.81,0-1.62,0-2.43-.11-1.66-1-2.35-2.6-1.82-1.82.6-3.59,1.31-5.39,2q1.77,2.08,3.55,4.15a1.1,1.1,0,0,0,.36.32c1.08.62,2.17,1.22,3.25,1.82Zm10.6-16.64,5.89-2.87a1.29,1.29,0,0,0-.1-.44c-2.16.21-4.34.37-6.48.72a1.71,1.71,0,0,0-.92,1.39C123.61,78.65,124.43,78.94,125.18,79.47ZM128,73.24l-3.92-2.78c-.39.59-1,1.14-1.13,1.77-.21,1.23.25,2.28,1.75,2.12A19.33,19.33,0,0,0,128,73.24Zm-23.55,7.34,2.45-2.28-2.7-2.46c-.36.59-1,1.21-1,1.76A11.57,11.57,0,0,0,104.42,80.58Zm13.72-2.42L115.46,80c.58.36,1.28,1.13,1.71,1a10.49,10.49,0,0,0,2.51-1.57ZM120.43,85c-1-.44-1.51-.91-1.88-.8a1.82,1.82,0,0,0-1.15,1.18c-.06.33.78,1.19,1,1.12A8.72,8.72,0,0,0,120.43,85Z"/></g></svg>