<svg id="Layer_1" data-name="Layer 1" xmlns="http://www.w3.org/2000/svg" viewBox="0 0 200 200"><defs><style>.cls-1{fill-rule:evenodd;}</style></defs><g id="layer1"><path id="path2518" class="cls-1" d="M100.84,5.33c-8.39,20.55-13.44,34-22.77,53.93a146.63,146.63,0,0,0,24.15,21.11C90,75.32,81.59,70.26,75.34,65c-12,24.92-30.66,60.42-68.63,128.66,29.84-17.24,53-27.86,74.54-31.91A54.74,54.74,0,0,1,79.84,149l0-1c.47-19.12,10.42-33.83,22.21-32.83S123,132.5,122.54,151.62a53.21,53.21,0,0,1-1.2,10.27c21.33,4.17,44.22,14.77,73.66,31.77-5.81-10.69-11-20.33-15.94-29.5-7.79-6-15.92-13.91-32.51-22.42,11.4,3,19.57,6.38,25.93,10.2C122.16,58.26,118.09,45.82,100.84,5.33Z"/></g></svg>