<svg id="Layer_1" data-name="Layer 1" xmlns="http://www.w3.org/2000/svg" viewBox="0 0 200 200"><g id="ZhYUAS.tif"><path d="M55.76,38c.44.23.89.68,1.32.67,5.83-.17,11.13,1.84,16.46,3.84,7.26,2.74,13,7.55,18.42,12.91,3.42,3.37,6,7.38,9.25,11.25,2-2.65,3.87-5.23,5.85-7.73.81-1,1.87-1.86,2.78-2.82a65.59,65.59,0,0,1,9.8-8.56,43.21,43.21,0,0,1,8.51-4.63c3.87-1.59,7.77-3.32,12-3.71,2-.18,4-.37,6-.49,7.53-.45,14.47,1.48,21.34,4.57a42,42,0,0,1,12.89,9.38c6,6.15,9.29,13.7,10.92,22.13a46.69,46.69,0,0,1,.4,12.75,40.92,40.92,0,0,1-3.07,11.17,40.17,40.17,0,0,1-11.42,15.91,33.26,33.26,0,0,1-5.42,3.88c-2.81,1.58-5.76,2.88-8.67,4.26a14.79,14.79,0,0,1-5.14,1.33c-2.86.24-5.69.79-8.53,1.2a5.11,5.11,0,0,1-1.35,0c-3.08-.35-6.17-.69-9.24-1.11a28,28,0,0,1-5.89-1c-2.92-1.07-5.67-2.59-8.53-3.84-6.06-2.65-10.79-7.08-15.37-11.62-2.51-2.49-4.45-5.56-6.63-8.38a18.29,18.29,0,0,1-1-1.77c-1.17,1.48-1.89,2.41-2.63,3.33-1.82,2.26-3.53,4.63-5.52,6.73a69.91,69.91,0,0,1-6,5.36c-1.46,1.2-3,2.25-4.57,3.36a5.8,5.8,0,0,1-1.09.79c-5.19,2.2-9.93,5.51-15.61,6.48-2.63.46-5.28.84-7.93,1-2.36.17-4.74.07-7.11,0a40.94,40.94,0,0,1-20.62-5.79,53.48,53.48,0,0,1-11-8.64,31.88,31.88,0,0,1-6.7-10.36A44.61,44.61,0,0,1,9.35,89.49a10.42,10.42,0,0,1-.24-1.65c.06-4.71-.62-9.46.64-14.1a62.8,62.8,0,0,1,2.81-8.85,39.52,39.52,0,0,1,6-10,44.1,44.1,0,0,1,26.18-15.5c2.19-.39,4.43-.48,6.64-.77.35-.05.65-.44,1-.67ZM92.59,82.53a11,11,0,0,0-.78-2.15c-2.93-4.88-5.85-9.84-10-13.81s-8.23-7.38-13.52-9.68a37.25,37.25,0,0,0-16.53-3.44,25.16,25.16,0,0,0-9.08,1.9c-1.54.65-3,1.53-4.52,2.2a20.5,20.5,0,0,0-9.48,8.75c-4.68,8-5.82,16.57-2.83,25.45a42.77,42.77,0,0,0,3.57,7.56,13.32,13.32,0,0,0,3.28,3.74c4.31,3.35,8.76,6.3,14.47,7a38.66,38.66,0,0,0,14.89-.69,38.79,38.79,0,0,0,12.83-6.3,69.76,69.76,0,0,0,8.48-7.66A55.12,55.12,0,0,0,92.59,82.53Zm17.32.51c1,2,1.85,3.72,2.84,5.34A39.06,39.06,0,0,0,117,94.76c3.65,3.93,7.39,7.72,12.12,10.57a36,36,0,0,0,14.6,5.1A29.82,29.82,0,0,0,165,105.16c3.74-2.63,6.94-5.6,8.72-9.91.38-.93.92-1.79,1.32-2.71a26.92,26.92,0,0,0,2.12-9.36,30.38,30.38,0,0,0-2-11.08,26.3,26.3,0,0,0-10.49-13.5,30.43,30.43,0,0,0-25.76-4.18c-4.6,1.24-9.11,3-12.77,6.33A100.22,100.22,0,0,0,118,68.36a25.2,25.2,0,0,0-5,7.47c-.32.82-1,1.47-1.41,2.27C110.8,79.79,109.44,81.32,109.91,83Z"/><path d="M146.61,162.55h-5.42c0-8.28,0-16.45,0-24.72h6.12l8,14.71,1.42-.07v-14.6h4.87c-.22,4-.08,8.08-.1,12.17s0,8.11,0,12.33c-1.88.6-3.77.17-5.87.32-3.18-4.72-5.07-10.27-9-15.26Z"/><path d="M66.18,137.72c2.82,0,5.41,0,8,0,7,.12,10.79,3.35,11.86,10.18A13.65,13.65,0,0,1,83,159.52a9.18,9.18,0,0,1-6.82,3.09c-3.26.11-6.52,0-9.77,0C65.89,160,65.75,143.85,66.18,137.72Zm13.18,17.87c1.69-3.16,1.08-6.37.69-9.47a6.88,6.88,0,0,0-7.88-2.93c-.51,5-.36,12.5.28,14.73C75.07,158.35,77.18,157.2,79.36,155.59Z"/><path d="M61.44,162.56H54.77c-.7-1.33-1.39-2.73-2.16-4.08s-1.5-2.46-2.32-3.79H47.07c-.39,2.53,0,5.11-.26,7.81H41.53c0-3.95,0-8.05,0-12.14s0-8.29,0-12.63c3.35,0,7.07-.2,10.75.06,3.86.26,6.66,2.34,7.73,4.9,1.32,5.55-.29,8.82-4.45,10.87ZM54.3,148.17v-3.54l-1.62-1.49H47.06v7.23C49.83,150.84,52.27,150.77,54.3,148.17Z"/><path d="M173.2,162.64c-3-1.11-5.25-2.61-6.32-5.52a12,12,0,0,1-.7-5.07,42.72,42.72,0,0,0,0-5.06,7.25,7.25,0,0,1,2.64-6.25,12.25,12.25,0,0,0,1.61-1.87,14.31,14.31,0,0,1,9.09-.67,8.63,8.63,0,0,1,6.79,7.79,25.12,25.12,0,0,1-.46,10.34,8.33,8.33,0,0,1-8,6.31C176.26,162.68,174.57,162.64,173.2,162.64Zm1.53-4.54,3.26-.16a4.69,4.69,0,0,0,2.47-3.78c.07-3.52.72-7.15-1-10.4-2.1-1.88-4.09-1.87-6.35.09-1.87,3.56-.57,7.64-.92,11.63Z"/><path d="M110.82,157l-1.95,3.84-3.56,1.84H99c-3.17,0-5.76-.86-6.75-4.28a2,2,0,0,0-.35-.61c-1.2-6.79-.94-13.34-.6-19.95h5.56v18.63l2.52,2.15c.4,0,.84.06,1.28.12,3,.44,4.79-1.7,4.67-4.61-.21-5.3-.06-10.61-.06-16.21,1,0,2-.13,2.92-.16s1.78,0,2.6,0Z"/><path d="M36.72,162.61H31L29,157.41H22.16c-2,1-.31,3.87-2.29,5.22H14.1c.44-3.4,1.86-6.47,2.9-9.66,1.48-4.52,3.74-8.78,4.42-13.57a5.93,5.93,0,0,1,.81-1.58h6.05ZM25.63,145l-.9,0-2.38,8h5.74C27.15,150.23,27.35,147.32,25.63,145Z"/><path d="M117.05,137.83H134.9v4.25c-1.73.69-3.68,0-5.71.45-.64,2.45-.19,5-.27,7.57s0,5,0,7.53c1.9.8,3.84.16,5.86.52.6,1.31.09,2.75.41,4.51-3.26,0-6.27,0-9.28,0s-5.82,0-8.88,0v-4.59h6.24c.66-2.69.23-5.27.31-7.81s0-5,0-7.72h-6.53Z"/><polygon points="186.25 42.6 186.16 42.36 186.38 42.38 186.25 42.6"/><path d="M42.42,85.92V78.2h26c.52,2.43.13,5,.2,7.48C65.92,86.2,48.91,86.36,42.42,85.92Z"/><path d="M132.91,77.35h8.21c.37-2.89,0-5.7.25-8.63h8.49V77c3.11.82,6.15.12,9.43.53.2,2.71,0,5.48.09,8.43h-7.81A2.28,2.28,0,0,0,150,88.3c0,2.12,0,4.24,0,6.49h-8.59V86.35c-3-.58-5.83,0-8.46-.34Z"/></g></svg>