<svg id="Layer_1" data-name="Layer 1" xmlns="http://www.w3.org/2000/svg" viewBox="0 0 200 200"><defs><style>.cls-1{fill:#fff;}</style></defs><path d="M140.71,46.23C115.8,31,87.38,29.82,63.49,30.62c-27.3.91-56.06,24.75-54.33,51.25s18.19,49.24,43.53,66.23C83.3,168.63,132,182,150.64,180.62c20.87-1.55,34.85-7.46,37.3-20.29s-5.23-20.68-16.13-32.08-8.83-14.91.94-28.06,3.74-25.77-21.64-46.58A89.85,89.85,0,0,0,140.71,46.23Zm-4,18a41.4,41.4,0,0,1,8.7,6.84c8.89,9,12.36,20.07,7.73,24.62s-15.61.91-24.5-8.14S116.33,67.49,121,62.94C124.14,59.81,130.32,60.54,136.76,64.24ZM70.42,41.17A11.54,11.54,0,1,1,54.56,45,11.53,11.53,0,0,1,70.42,41.17ZM43.22,67.59a11.54,11.54,0,1,1-15.86,3.87A11.54,11.54,0,0,1,43.22,67.59Zm85.83,76a11.57,11.57,0,1,1-15.89,3.92A11.65,11.65,0,0,1,129.05,143.59ZM55.15,100.3a11.54,11.54,0,1,1-15.86,3.87A11.52,11.52,0,0,1,55.15,100.3Zm31.33,27a11.54,11.54,0,1,1-15.86,3.87A11.54,11.54,0,0,1,86.48,127.31Z"/><circle class="cls-1" cx="64.5" cy="54.5" r="15.5"/><circle class="cls-1" cx="37.5" cy="77.5" r="11.5"/><circle class="cls-1" cx="52.5" cy="110.5" r="16.5"/><circle class="cls-1" cx="80" cy="137" r="13"/><circle class="cls-1" cx="123" cy="153" r="13"/></svg>