<svg id="Layer_1" data-name="Layer 1" xmlns="http://www.w3.org/2000/svg" viewBox="0 0 200 200"><path d="M102.12,82.73a15.56,15.56,0,1,0,15.56,15.55A15.57,15.57,0,0,0,102.12,82.73Z"/><path d="M32.82,67.12a8.46,8.46,0,1,0,8.45,8.45A8.47,8.47,0,0,0,32.82,67.12Z"/><path d="M113.25,164.39a8.46,8.46,0,1,0,8.45,8.46A8.48,8.48,0,0,0,113.25,164.39Z"/><path d="M148.84,41.24a8.46,8.46,0,1,0,8.45,8.45A8.47,8.47,0,0,0,148.84,41.24Z"/><path d="M156.22,98.28C173,81.94,180.86,66,175.14,56.12c-3.08-5.34-9.67-8.35-19-8.71a2.59,2.59,0,0,0-.2,5.18c5.24.2,12.05,1.42,14.76,6.13,4.13,7.15-2.48,20.93-18.17,36.06A183.18,183.18,0,0,0,133.74,80a182.76,182.76,0,0,0-3.4-23.55,115,115,0,0,1,11.58-2.73,2.59,2.59,0,1,0-.92-5.1,117.1,117.1,0,0,0-11.83,2.78C123.43,28.7,113.56,14,102.12,14s-21.31,14.73-27,37.47c-22.56-6.4-40.25-5.22-46,4.68C27,59.8,26.62,64.29,28,69.48a2.59,2.59,0,1,0,5-1.37c-1-3.8-.85-7,.56-9.39C37.73,51.56,53,50.4,73.92,56.43A183.27,183.27,0,0,0,70.51,80a182.41,182.41,0,0,0-18.7,14.72A99.08,99.08,0,0,1,39,80,2.59,2.59,0,1,0,34.73,83,104,104,0,0,0,48,98.29c-16.81,16.33-24.63,32.24-18.92,42.15,3.38,5.85,10.94,8.66,21.21,8.66,7.11,0,15.54-1.37,24.77-4,5.73,22.75,15.6,37.49,27,37.49a14.84,14.84,0,0,0,7.65-2.22,2.59,2.59,0,1,0-2.65-4.46,9.7,9.7,0,0,1-5,1.49c-8.26,0-16.88-12.62-22.14-33.78a183.82,183.82,0,0,0,22.14-8.85,186.78,186.78,0,0,0,22.1,8.85c-2.18,8.77-5,16.4-8.36,22.31a2.59,2.59,0,1,0,4.5,2.57c3.55-6.23,6.52-14.22,8.81-23.37a121.52,121.52,0,0,0,12,2.81A75,75,0,0,0,154,149.18c10.45,0,17.78-3,21.1-8.74C180.86,130.53,173,114.62,156.22,98.28ZM70.07,86.66c-.19,3.79-.3,7.67-.3,11.62s.11,7.81.3,11.6a178.32,178.32,0,0,1-14.5-11.62A173.07,173.07,0,0,1,70.07,86.66ZM33.6,137.85c-4.13-7.16,2.48-20.93,18.16-36.06a185.91,185.91,0,0,0,18.75,14.74,183.27,183.27,0,0,0,3.41,23.6C53,146.16,37.73,145,33.6,137.85ZM134.17,86.66A175.85,175.85,0,0,1,148.7,98.28a173.8,173.8,0,0,1-14.53,11.63c.19-3.82.3-7.7.3-11.63S134.37,90.45,134.17,86.66Zm-6-10.32q-4.79-3.11-9.91-6.08c-3.41-2-6.82-3.8-10.19-5.53A174.6,174.6,0,0,1,125.42,58,173.92,173.92,0,0,1,128.21,76.34ZM102.12,19.15c8.26,0,16.89,12.61,22.15,33.77a185,185,0,0,0-22.14,8.86A183.93,183.93,0,0,0,80,52.93C85.24,31.77,93.86,19.15,102.12,19.15ZM78.84,57.94a173.42,173.42,0,0,1,17.32,6.77Q91.06,67.32,86,70.26T76,76.34A174.76,174.76,0,0,1,78.84,57.94Zm0,80.68A174.76,174.76,0,0,1,76,120.22q4.81,3.12,9.92,6.08t10.21,5.55A173.42,173.42,0,0,1,78.84,138.62Zm46.54-.06a176.36,176.36,0,0,1-17.27-6.73q5.07-2.58,10.19-5.53c3.41-2,6.7-4,9.88-6A176.51,176.51,0,0,1,125.38,138.56Zm3.38-24.89q-6.13,4.13-13,8.14T102.14,129c-4.52-2.21-9.07-4.62-13.6-7.23s-8.89-5.36-13.06-8.16c-.33-4.92-.52-10-.52-15.37s.19-10.46.52-15.38c4.09-2.75,8.44-5.48,13.06-8.15s9.07-5,13.6-7.23q6.63,3.26,13.57,7.23c4.62,2.67,9,5.4,13.06,8.15.33,4.92.52,10,.52,15.38S129.11,108.66,128.76,113.67Zm41.89,24.18c-3.34,5.78-13.74,7.6-28.55,5a113.66,113.66,0,0,1-11.76-2.76,185.69,185.69,0,0,0,3.38-23.53,183.71,183.71,0,0,0,18.75-14.77C168.17,116.91,174.78,130.69,170.65,137.85Z"/></svg>