<svg id="Layer_1" data-name="Layer 1" xmlns="http://www.w3.org/2000/svg" xmlns:xlink="http://www.w3.org/1999/xlink" viewBox="0 0 200 200"><defs><style>.cls-1{fill:none;}.cls-2{clip-path:url(#clip-path);}</style><clipPath id="clip-path"><rect class="cls-1" x="679" y="-210" width="178" height="178"/></clipPath></defs><g id="_0ZIJZD.tif" data-name="0ZIJZD.tif"><path d="M133.24,137.6c5.53,16.94,10.9,33.35,16.27,49.77l-1.09.64c-3.77-2.49-7.66-4.83-11.24-7.57-.92-.71-1.07-2.65-1.27-4.06-1.68-11.95-3.28-23.91-5-35.86a22.7,22.7,0,0,0-1.19-3.51c-18.65,3-37.14,5.93-55.59,9.05-7.51,1.27-7.55,1.47-8.38,8.8s-1.35,14.67-2.36,21.95a8.48,8.48,0,0,1-3,4.86,37.64,37.64,0,0,1-10.41,5.92l12.27-38.84c-6.81,1.58-12.73,2.76-18.51,4.44-1.21.35-2.13,2.46-2.75,3.94-3.7,8.84-7.27,17.74-10.9,26.62-.62,1.52-1.28,3-2.13,5a67.28,67.28,0,0,1-7.5-3.85,4,4,0,0,1-1.09-3.38C32.2,122.92,49.67,65.87,75.78,11.66c1.17-2.41,2.62-3.06,5.14-3,12.52.14,25,.21,37.55.06,2.79,0,4.09.89,5.29,3.35a632.38,632.38,0,0,1,38.67,101.39c6.28,21.71,11.26,43.79,17.12,65.62,1.18,4.36.1,6.49-3.93,7.74a39.35,39.35,0,0,0-4.19,1.89c-.77-1.72-1.47-3.17-2.08-4.66-6.14-14.9-12.35-29.78-18.35-44.74-1.14-2.85-2.65-3.92-5.6-3.43C141.48,136.5,137.53,137,133.24,137.6ZM56,121.64c16.48-9.38,32.15-18.25,47.77-27.21,10-5.71,10-5.79,5.33-16.16-2.91-6.55-5.92-13-9.41-20.73C95.49,67,92,75.23,88.08,83.29a17.12,17.12,0,0,1-5.51,6.24C78,92.67,73,95.16,68.29,98.13A9.9,9.9,0,0,0,64.67,102C61.77,108.1,59.16,114.39,56,121.64Z"/></g><g class="cls-2"><g id="vurX8n"><path d="M384.43,199.4c1.12-.67,2.24-1,2.43-1.53,1.17-3.56,4.4-1.11,6.42-2.2.33-.19,1.71,1.54,3.1,2.86,3.45.23,7.82-.55,12.44,1.72,1.64,3.05-.32,6.37-1.61,9.73-.14.35-1.24.73-1.43.57a3.17,3.17,0,0,1-1.16-1.85c-.15-1.94-.06-3.89-.06-6.5-1.65,2.59-2.82,4.67-4.26,6.55a11,11,0,0,1-2.79,1.94c-.45-1-.89-2-1.34-3a1.64,1.64,0,0,0-1.14-1c0,1,0,2.08,0,3.12,0,2.15-.07,4.15-3.32,3.2-.63-.18-2,1-2.47,1.81-.59,1.09-.29,2.71-1,3.68s-2.11,1.54-3.21,2.27c-.36-1.2-.8-2.39-1-3.62-.08-.4.6-.95.52-1.34-.27-1.19-.41-2.69-1.2-3.42-2.13-2-4.57-3.65-7.35-5.8a6.32,6.32,0,0,0-4.57,4.87c-1.32,5.19-2.74,10.55-7.09,14.4-1.62,1.44-1.69,3.42-1.87,5.63-.26,3.3-1.75,6.51-2.79,9.73a3.34,3.34,0,0,1-1.18,1.31c-7.26,5.63-7,12.79-4.25,20.5,1,2.67,1.86,5.37,2.69,8.08.74,2.41,2.76,1.95,4.42,2,4.76,0,9.51-.23,14.27-.21,12.6.06,25.2.2,37.79.31,3.59,0,4.33.66,4.35,3.69,0,4.28-.95,5.94-4.34,5.38-6.5-1.08-12.92.32-19.36,0a29,29,0,0,1-3.8-.65c-.68-.13-1.5-.64-2-.41-4.47,2-8.38-1.26-12.64-1.23s-8.69-.44-13-.46c-3.26,0-6.52.5-9.77.48-14.87-.14-29.74-.44-44.61-.57-16.95-.14-33.91,0-50.86-.29-5.61-.08-11.2-1.09-16.82-1.4-5.34-.29-10.7-.31-16.05-.26-5.14.05-10.27.36-15.41.54-7.19.25-14.41,1-21.56.53-3.51-.22-7-.09-10.35-.37-4.61-.38-9,1.33-13.45.46-1.83-.35-3.66-.7-5.46-1.16-3.18-.82-3.6-3.54-3.54-6.1,0-.82,1.79-2.33,2.69-2.28,4.9.27,9.77.93,14.53,1.44a13.4,13.4,0,0,1,10.76-5.07c2,0,3.94-.86,5.94-1.07,1.09-.11,2.25.49,3.38.48a19,19,0,0,0,4.64-.53c1.41-.39,2.64-1.38,4-1.81,10.88-3.3,15.54-12.13,18-21.92,1.79-7.19-1.27-13.91-7-18.81-4.72-4-9.15-8.38-10.92-14.35-1.4-4.67-1.66-9.71-2.12-14.61-.34-3.75-.44-4.08-4.12-4.07-3.86,0-7.73-.11-11.6,0-1.83.06-3.66.87-5.48.82a46.65,46.65,0,0,1-8.65-1.1c-.63-.13-1.46-2-1.25-2.78a70.58,70.58,0,0,1,2.58-6.88c1.13-3,2.2-6.06,3.27-9.11,1.36-3.87,2.7-7.74,4-11.62a7.38,7.38,0,0,0,.31-1.14c1-6,1.69-12.15,3-18.11,1-4.35,2.77-8.53,4.31-12.75a38.3,38.3,0,0,1,2.77-6.2c1.68-2.87,3.63-5.58,5.51-8.33,1.62-2.34,3-4.92,5-6.89a111.07,111.07,0,0,1,10.69-9.28c4-3.06,8.28-5.7,12.36-8.63,2-1.46,1.78-4.07-.73-4.87-4.64-1.46-6.59-4.4-7-9.13-.17-1.87-1.92-3.6-3-5.37-1.32-2.18-2.69-4.33-4-6.5-.62-1-1-2.31-1.84-3-4.18-3.24-5.08-7.88-5.28-12.62-.11-2.38-.33-3.61-3-3.9-1.31-.15-2.56-1.4-3.72-2.29-3.19-2.47-5.29-2-6.91,1.8-1.5,3.53-2.66,7.2-4.14,10.74-1.68,4-3.73,7.8-5.3,11.81-1.8,4.59-3.71,9-6.92,12.89A6.64,6.64,0,0,0,168,81.1c1.38,8.31-3.31,15.45-4.45,23.29-.68,4.71-1.64,10-5.3,14.16-3.31,3.74-5.87,4.83-10.44,3-1.66-.64-3.37-1.16-5-1.71-3-1-4.19-3.12-4.25-6.09,0-1.49-.13-3,0-4.47.21-2.9.24-5.57-3.33-6.65a2.63,2.63,0,0,1-1.35-2.11c.38-4,.54-8.08,1.64-11.9s3.07-7.41,4.91-11a12.88,12.88,0,0,1,3.34-3.94c1.76-1.43,2.87-2.77,3-5.31.23-3.17,1.68-6.24,2.19-9.42a154.83,154.83,0,0,0,2.27-17.89c.35-8.79.68-17.7-.32-26.4-.44-3.86-1.24-7,0-11.08,2-6.39,2.42-13.32,3-20.07.35-4.41-.27-8.9-.47-13.36a4.51,4.51,0,0,0-.21-1.47c-1.36-3.43-2.92-6.8-4.1-10.3a25.55,25.55,0,0,1-1.63-7.7,117.08,117.08,0,0,1,.66-16.33c.74-5.93,2.24-11.78,3.41-17.66a15.85,15.85,0,0,0,.34-2.35,53.56,53.56,0,0,1,6.53-24c4.4-7.88,9.33-15.36,18.08-19.15a7.31,7.31,0,0,1,3.39-.83c4.41.42,8.79,1.45,13.2,1.54,5.59.1,10.93,2.61,16.74,1.09,3.18-.83,6.79.09,10-.57,6.51-1.32,12.7,1.23,19.09,1,2.12-.09,3.63-.38,3.66-3.08s-1.2-3.3-3.6-3.5c-6.78-.56-13.56-1.18-20.29-2.14-3.8-.55-7.59-4-6-9,1.07-3.32.69-7.25.29-10.83-.13-1.16-2.25-2.32-3.68-3.06-3-1.54-4.55-4.33-3.1-7.28a57.91,57.91,0,0,1,6.13-9.73,19.09,19.09,0,0,0,3.59-7.61c1.57-6.71,3.07-13.55,5.69-19.88,1.89-4.58,5-8.85,10.31-10.77,2.44-.88,4.34-3.17,6.75-4.21a57.42,57.42,0,0,1,28.11-4.39,87,87,0,0,1,16.86,2.85c3.12.9,5.74,3.61,8.52,5.6a14.05,14.05,0,0,1,2.27,2.35c1.89,2.22,3.59,2.95,6.15.53,2.84-2.68,5.26-2.34,9.71.4,3.23,2,4.06,4,3.37,7.75-.54,3-.37,6.07-3,8.37-.56.48-.48,2.36,0,3.24,1.78,3.41,4,6.62,5.76,10,.9,1.71,1.22,3.72,2,5.52,2.2,5.29,4.57,10.51,6.7,15.82,1.8,4.48,1.36,5.41-2.51,8.35a2.84,2.84,0,0,0-.47,2.49c2.32,7.12,4.81,14.18,7.12,21.31,1,3.06,1.51,6.28,2.53,9.33a6.27,6.27,0,0,0,2.42,3c5.23,3.43,11,6.21,15.78,10.16,7.12,5.86,13.24,12.86,16.64,21.62a12.74,12.74,0,0,1-.26,8.08c-.51,1.47-3.16,2.2-4.84,3.26l-.73-.57c.1,1.25.11,2.52.32,3.75,1.34,7.66,2.67,15.32,4.12,23,.4,2.1,1.79,4.16,1.71,6.19-.22,5.47-.6,10.82-4.2,15.68a21.63,21.63,0,0,0-4,10.93c-.42,6.15-2.85,11.18-6.08,16.09a9,9,0,0,0-1.54,3.46c-.41,3-1.09,5.6-4,7.16a4.26,4.26,0,0,0-1.42,2.18c-1.69,4.42-5.56,6.52-10.15,6.13-4.39-.36-8.84.1-13.23-.22a45.55,45.55,0,0,1-8.3-1.85c-1.32-.35-2.5-1.22-3.81-1.57a2.78,2.78,0,0,0-3.49,3.77c2.26,6.16,5.72,11.36,11.41,15a27.19,27.19,0,0,0,13.71,4.22c-1.51-3.46-4.51-4-7.18-5.07a5.62,5.62,0,0,1-2.61-2.37c-.24-.46.67-2.21,1.19-2.27a5.55,5.55,0,0,1,3.4.83c1.1.7,1.84,2,2.83,2.87.76.71,1.65,1.28,2.49,1.92l.45-.66L329,32.13l6.13,1.19-2.39-3.11.25-.79,4.76.74c2.19-2,6.69-1.93,9.38.4a17.69,17.69,0,0,1,3,2.89c.51.71.88,2.42.57,2.63-.89.63-2.4,1.28-3.21.92a21.9,21.9,0,0,1-5.41-3.6c-2.39-2.12-4.25-1-7,.92,2.18,1.43,4,2.69,5.83,3.79,3.79,2.23,7.53,4.58,11.48,6.48a57.26,57.26,0,0,0,8.86,3c6.14,1.79,12.16,3.84,17.48,7.57,3,2.13,6.69,3.61,9.22,6.19a60.18,60.18,0,0,1,9.63,12.43,128.39,128.39,0,0,1,8.16,18.32c1.94,5.25,3.15,10.79,4.6,16.22,1.31,4.95,2.59,9.91,3.72,14.9a69.56,69.56,0,0,1,1.7,9.89c.42,5.63.38,11.29.7,16.92.12,2.24.81,4.45,1,6.69.34,3.52.65,7.06.72,10.6.12,6.65,0,13.3.1,19.94a28.34,28.34,0,0,0,.56,4.68,3,3,0,0,1-3.37,3.6c-6.57-.58-13.15-1.07-19.72-1.56-2.33-.17-4.67-.39-7-.34C384.39,193.71,384.39,193.79,384.43,199.4ZM281.89-183.78l1-2.43-5-1.84c-1.37,3.63-.85,4.23,4,4.23-.16,2.45-1.28,5,.47,7.33C286.48-178.64,286.32-180.39,281.89-183.78Zm-62,226.38,1,0c-.14,1.53-.18,3.09-.46,4.6-.19,1-.78,2-1.05,3.06-.95,3.62-2.33,6.82-6,8.56a3.39,3.39,0,0,0-1.52,2.83,6.69,6.69,0,0,0,2.07,3.18c1.48,1.48,3.41,2.51,5.31,1,3.89-3,7.76-6.14,7.84-11.8a11.06,11.06,0,0,1,1.15-4c.27-.61,1.21-1.49,1.57-1.38.71.22,1.66,1,1.74,1.64a8.23,8.23,0,0,1-.54,3.39c-.28.93-1.11,1.73-1.23,2.65-.81,6.31-3.34,11.18-9.71,13.7-2.94,1.17-2.86,4-.22,5.94a9.43,9.43,0,0,0,2.14,1,8.92,8.92,0,0,1,5.7,6.71c.63,2.66,2,3.37,4.51,2.75s5.25-.9,7.76-1.69c5.31-1.68,11-2.12,15.62-6,7.23-6.11,14.69-11.93,22-18,5.4-4.45,10.82-8.89,16-13.62,3.08-2.83,5.67-6.2,8.47-9.33,1.4-1.56,3.89-3.11,3.9-4.69,0-1.93-1.93-4-3.24-5.81-1.64-2.31-2.8-4.54-2.57-7.63.11-1.56-1.18-3.63-2.46-4.79a127.28,127.28,0,0,0-10.26-8.07C282.77,3.66,278.23.4,273.5-2.53,271.12-4,267.88-4.26,265.74-6a40.71,40.71,0,0,0-13.49-7c-4.39-1.37-8.86-2.6-13.07-4.39-2.08-.89-3.74-2.84-5.46-4.45-3.67-3.41-7.36-6.83-10.85-10.43-2.4-2.47-4.39-5.35-6.77-7.84a6.55,6.55,0,0,1-1.63-7.05,37.49,37.49,0,0,0,1.78-7.82c.22-2.84,2.33-4.91,4.95-3.86,2.16.87,3.08.77,3.1-1.88a3.47,3.47,0,0,1,4.86-3.15,60.38,60.38,0,0,1,6.67,3.12c3.95,2.16,7.81,4.45,11.69,6.73a5.89,5.89,0,0,1,1.55,1.35c2.55,3.14,5.06,6.3,7.58,9.46,1.5,1.89,2.68,4.22,4.56,5.59,3.94,2.88,8.41,5,12.36,7.89,3.75,2.7,8.09,2.56,11.92,2a28.84,28.84,0,0,1,23.17,6.44c.73.59,2.27,1.23,2.7.9a5.23,5.23,0,0,0,1.81-3.09,24.59,24.59,0,0,0,.1-6.47c-.14-1.12-1-2.81-1.89-3.06-8.29-2.42-9.9-12.89-7.15-19,1-2.26,1.3-4.19-.21-6.39-4.34-6.33-4.76-13.41-3.34-20.68.16-.82,1.35-1.44,2.07-2.15a10.14,10.14,0,0,1,2.09,2.55c.31.83-.2,1.94-.17,2.92.21,6.8-.32,13.9,8,16.95,2,.75,1.64,2.65-.41,4.07-1.24.86-2.68,1.91-3.18,3.2a17.29,17.29,0,0,0-.65,5.56c-.24,5.9,3.82,10.08,9.13,9.71,1.21-.09,2.46.58,3.69.91a28.56,28.56,0,0,1-1.59,3.62c-.5.81-1.44,1.35-2.08,2.1a2.3,2.3,0,0,0-.73,1.47c.38,3,1.17,5.54,4.56,6.81a12.09,12.09,0,0,1,7.72,8.46c.22.85-.39,1.92-.62,2.88a6.65,6.65,0,0,1-2.47-.88,8.85,8.85,0,0,1-2-2.9c-1.23-2.72-4.5-5.3-7.05-5-3.19.37-4.24,2.89-4.9,5.59-.39,1.6-1,3-3,2.47s-2.08-2.15-1.41-3.55c1.3-2.75-.28-3.69-2.35-4.67-2.23-1.06-4.34-2.35-6.54-3.46a6.17,6.17,0,0,0-2.49-.73c-6.24-.15-12.48-.33-18.71-.21a5,5,0,0,0-3.64,2c-1.74,2.85-2.93,6-4.48,9-.81,1.56-.59,2.72.93,3.45,1.85.89,3.9,1.39,5.65,2.42,3.64,2.16,7.23,4.43,10.67,6.89C293,4.84,293,4.85,294.14-2.46c.24-1.53,1.7-4.25,2.09-4.17C299-6,297.66-3.78,297.52-2c-.48,6,.48,11.5,6.15,15a3.46,3.46,0,0,0,2.72.55c.6-.31.84-1.63,1-2.55C307.86,7,308.2,3,308.78-1c.1-.64,1.1-1.15,1.68-1.72C311-2.08,312-1.48,312-.85c.06,2.15-.24,4.32-.36,6.48a9.91,9.91,0,0,0,0,2.72c1.07,4.53,3.82,7.45,8.49,8.33a17.89,17.89,0,0,0,2.44.12c-.05-.75,0-1.51-.15-2.26-.33-2.13-.83-4.24-1-6.37,0-.62.95-1.29,1.47-1.94A8.92,8.92,0,0,1,324.58,8c.66,1.3,1.05,2.74,1.65,4.08,1.48,3.25,4.82,3.86,7.6,5.27s4.26,1,5.95-2.07l-5.1-1.54c3.09-1.49,5.86-2.26,7.86-4,1.62-1.38,2.31-3.86,3.42-5.85C344.65,3.28,343.38,2.55,342,2c-2.91-1.2-5.54-2.74-7-5.65-.7-1.39-1.24-3,.52-3.91,2.14,1.63,4,3.24,6.06,4.57a6,6,0,0,0,9.25-3.78c.57-2.89,1.11-5.79,1.5-8.71a2.33,2.33,0,0,0-.89-2,25.6,25.6,0,0,0-5.72-2c-1.46-.28-7.65-3.76-8.1-5.21a6.62,6.62,0,0,1,.06-2.12l.74-1c3.23,5.88,9.57,2.7,13.83,5.8.74.53,2.36-.15,3.57-.27-.5-.93-.78-2.11-1.53-2.74-4.19-3.58-8.57-6.92-12.68-10.59-1.12-1-1.52-2.83-2.17-4.32,0-.07.9-.79,1.06-.69,1.3.81,2.54,1.73,3.76,2.66,3,2.27,5.82,4.94,9.1,6.74,2.43,1.34,5.69-.44,5.82-2.79a25,25,0,0,0-.79-7.14c-.6-2.47-2.21-4.75-2.49-7.22a92.69,92.69,0,0,0-4.81-20.82c-2.65-7.38-5.33-14.66-9.92-21.09a19.16,19.16,0,0,0-11.9-8.12,35.45,35.45,0,0,1-13.22-5.5c-1.22-.82-2.06-2.26-3.34-2.89a89.15,89.15,0,0,0-9.46-4c-.7-.25-2.38.3-2.55.83a55.07,55.07,0,0,0-2.66,10c-1,7.84-4.63,11.14-12.62,11.38a14.13,14.13,0,0,0-5.71,1.77c-2.43,1.24-4.66,2.89-7,4.35a70.24,70.24,0,0,0-7,4.43c-3.4,2.74-6.12,6.66-11.39,5.44-4.28-1-8.71-1.31-11.52-5.71C238-85.82,231.39-92,224.45-97.73c-1.25-1-2.78-2.35-3.11-3.78-1.45-6.16-2.6-12.4-3.62-18.64-.33-2-.92-2.61-3-2.52-5.62.24-11.26.2-16.88.22-1.38,0-2.89-.67-4.11-.29-4,1.25-7.59-.18-11.34-1a7,7,0,0,0-5,.62c-5.5,3.73-10.21,8.18-13.24,14.38-3.66,7.48-5.27,15.53-6.93,23.5-1.51,7.18-1.79,14.62-2.75,21.92-.38,2.82-1.29,5.56-1.7,8.37-.67,4.57.31,9,1.4,13.42,1.13,4.62,1.57,4.93,5.83,2.78a2.3,2.3,0,0,1,1.86-.18,1.91,1.91,0,0,1,.64,1.76,5.45,5.45,0,0,1-2,2.66c-1.92,1-2.42,2.32-2.25,4.34.18,2.26,0,4.55,0,6.82v8.53l1,0c1.79-2.57,3.45-5.26,5.45-7.65.71-.86,2.27-1,3.44-1.5a39.58,39.58,0,0,1,.44,4c0,.38-.59.76-.88,1.16-2.77,3.81-5.79,7.47-8.19,11.5-1.4,2.36-4.43,4.59-2.39,8.18.92-1.85,1.74-3.65,2.69-5.37.24-.44,1-1,1.31-.92.56.14,1.38.77,1.4,1.23a16.43,16.43,0,0,1-.28,5C161.73,3,160.46,5,159.94,7.11c-1.3,5.49-2.93,11-3.38,16.58-.8,10.07-.89,20.19-1.1,30.29a4.13,4.13,0,0,0,1.89,3.09c2.77,1.41,5.82,2.27,8.64,3.58s4.89.58,5.88-2.31c.22-.65.13-1.54.54-2,3.75-4,4.05-9.33,5.58-14.11s2.07-9.66,6-13.26a4,4,0,0,0,.79-1.89c1.11-4.1,2.14-8.22,3.29-12.31,1.68-6,3.57-11.89,5.12-17.89,2.08-8,4.1-16.09,5.78-24.21a102.58,102.58,0,0,0,2-15.21,93.27,93.27,0,0,0-.62-12,52.27,52.27,0,0,0-.78-5.29c-.45-2.43-1-4.85-1.47-7.27-.83-3.93-1.57-7.88-2.57-11.76a21.76,21.76,0,0,0-2.39-6c-2.7-4.35-5.78-8.45-8.44-12.82-.58-1,0-2.61,0-3.94,1.17.45,2.62.62,3.45,1.43,1.46,1.43,2.44,3.34,3.8,4.9a39.09,39.09,0,0,1,9.55,20.5c.17,1.16.62,2.29.85,3.45.93,4.7,2.13,9.38,2.64,14.13.48,4.4,0,8.9.31,13.33.84,11.1-2.41,21.57-4.87,32.14-2,8.48-4.38,16.87-6.6,25.29-.26,1-.68,1.87-.9,2.83-.93,4-2.69,8.13-.75,12.13a41.7,41.7,0,0,0,5.56,7.82c1.62,2,7.07,3.61,8.71,2.13,3-2.71,6.14-5.71,7.86-9.26a23.21,23.21,0,0,0,1.8-15.11c-.2-.92,1.13-2.16,1.76-3.26a15.84,15.84,0,0,1,1.65,2.82c1.23,3.67,2.14,7.32.27,11.16a30.07,30.07,0,0,0-2,6.44A13.46,13.46,0,0,1,206.6,41.38c-2.9.33-4.29,2.58-3.31,5.32.44,1.2.78,2.44,1.18,3.66.82,2.46,2.2,4.5,4.88,5s3.67-1.56,4.79-3.53C215.93,48.72,217.94,45.69,219.86,42.6ZM322,59.75l1.06-.41c1,1.14,2.44,2.15,2.77,3.44,1.59,6.42-.23,12.45-2.55,18.39-1.39,3.57-2.77,7.16-3.88,10.82-.92,3-1.12,6.24-2.18,9.18-1.87,5.2-2.37,10.52-2.83,16-.42,4.84-2.11,9.58-3.39,14.33-.34,1.3-1.29,2.42-1.84,3.68-1.3,3-2.66,6-5.66,7.74-3.56,2.11-7.13,4.2-10.57,6.5-1,.66-2.14,1.95-2.19,3-.31,5.41-.27,10.84-.36,16.26-.08,4.56-.34,9.11-.21,13.66.1,3.48,1.74,4.36,5.1,3.27a15.71,15.71,0,0,1,4.25-1.11c4.26-.1,8.53.05,12.79.11,5.85.09,11.71,0,17.54.34,5.4.3,10.76,1.14,16.15,1.49,1.26.08,3.47-.6,3.7-1.38.43-1.46-.17-3.28-.54-4.9s-1.22-3-1.44-4.59c-.3-2.21-.1-4.5-.33-6.73a78,78,0,0,0-1.31-9.53c-1-4.42,2.92-5.6,4.89-8,.67-.82,1.82-1.23,2.59-2a4.56,4.56,0,0,0,.78-1.56L348.91,146a14.07,14.07,0,0,1-.31,3.18c-.26.79-1.09,2-1.53,2a3.28,3.28,0,0,1-2.37-1.56c-.73-2-1.62-4.21.32-5.18-.61-1.74-1.59-3.16-1.46-4.47a41.28,41.28,0,0,1,1.76-6.74c-2-2.17-1.87-3,.51-5.66a5,5,0,0,0,1.19-3.1c0-1.4-.74-2.77-.94-4.18a29.15,29.15,0,0,0-4.88-13A19.66,19.66,0,0,1,338,99c-.42-3.16,1.54-5.52,4.61-6.9a4.17,4.17,0,0,0,1.86-2.69c.1-.44-1.26-1.23-2-1.82-1-.84-2-1.64-3.14-2.52L338,86.73l-5.41-4.2c.45-3.09,3.56-2.71,5.46-4,2.16-1.48,3.48-1.33,4.71,1.06.81,1.58,2.12,2.55,4.47,1l-4.43-4,2.9-3.29.85,0,.36,3.7c3.83-.58,3.83-.58,7.44,2.41a11.26,11.26,0,0,1,1.53-1.31,1.07,1.07,0,0,1,1,.24c.2.23.28.89.11,1-1.63,1.51-3.09,3.64-5,4.28-4,1.31-5.73,3.73-3.9,7.61,1,2.12-.31,5.49,3.24,6.29a1.47,1.47,0,0,1,0,.25l-1.71,2,3,2.79,1.67-3.88c.28,1.25.36,1.69.49,2.13s.36,1,.53,1.51l.92.26q2-5.37,4.06-10.73l.86.17c-.2,1.46,0,3.18-.67,4.31-1.57,2.5-1.2,4.55.27,6.85s1.08,4.73-.09,7l-.87.06c-.33-1.77-.67-3.54-1.08-5.74-4.34,6.79-6.59,18.83-4.45,22.61l3.28-.33c-1.84,2-2.94,3.72-4.48,4.81a4.55,4.55,0,0,0-2,4.84c.28,2,.54,3.93.84,6.06l2.53-.95,1.4,2.62c2.17-2.48,4.86-1.16,7.28-1.39.95-.09,1.91-.07,3.52-.12l-2-3.12L362.26,141l-3.74-5.43-2.69,1.64c-1.54-2.18-1.36-3.84.26-5.75a16.45,16.45,0,0,0,2.53-4.91c1.53-4.13,2.88-8.32,4.31-12.49a17.34,17.34,0,0,0,.67-1.91c.83-4,1.63-8,2.43-12l1.4.17c-.08,1.23.3,2.79-.32,3.62-2.75,3.68.43,6,1.9,8.85l1.65-4.56.94.17c0,1.68.37,3.47-.07,5-1.11,3.95-4.94,2-7.76,2.81l1.79,3.15c-4.27.91-2.26,4.81-3.57,7.25-.24.44,1.07,1.82,1.82,2.61.2.21,1.43-.07,1.45-.23a12.22,12.22,0,0,0,0-2.77c0-.26-.49-.53-.44-.74a11.57,11.57,0,0,1,.86-2.92c.16-.31,1-.26,1.59-.38a18.43,18.43,0,0,1,.49,2.63,22.52,22.52,0,0,0-.12,2.94c.14.71.84,1.3,1.3,1.94a10.16,10.16,0,0,0,.95-1.93c.72-2.94,1.32-5.92,2.07-8.86a1.67,1.67,0,0,1,1.17-1.05c.38,0,1,.64,1.1,1.1a35.31,35.31,0,0,1,.7,3.71l2.42-3.14c1,1.43,2.25,2.49,2.34,3.63.33,4.42.37,8.87.29,13.31a3.76,3.76,0,0,1-1.73,2.36,20.47,20.47,0,0,1-3.75,1.61c-.63-1.22-1.24-2.38-1.52-2.93l-4.53,1c-.91,2.48,0,3.21,4.83,3.32.86,3.93-3.24,4.14-4.77,6.19,2.37,3.24,1.32,5.28-2.94,6.52-.31-.93-.59-1.83-.88-2.73-.45.47-1.27.93-1.27,1.4a29.16,29.16,0,0,0,.48,5.1c0,.25,1,.38,1.48.5.15,0,.4-.12.51-.26,1.84-2.48,4-4.81,5.4-7.5.93-1.75,1.82-3.52,3.71-2.91.88.28,1.54,2.71,1.49,4.14-.12,3.18-2.18,5.4-4.63,7.26-1.94,1.47-3.28,4.63-1.77,5.51,3.23,1.9,2.38,5.08,3.27,7.45,1,2.76,2.26,3.6,4.82,3.61,4.07,0,8.13,0,12.19.22a18.84,18.84,0,0,1,3.69.88c0,.42,0,.84,0,1.26a16.57,16.57,0,0,1-3.64,1c-2.77.13-5.56-.11-8.33,0a16.52,16.52,0,0,0-3.75,1.11,18.7,18.7,0,0,1,3.6.85,9.48,9.48,0,0,1,2.15,1.84c-.6.61-1.21,1.72-1.81,1.72-1.48,0-3-.68-4.45-.78a6.41,6.41,0,0,0-3.16.69c-.43.22-.41,1.3-.59,2a19.79,19.79,0,0,0,2.75.31c.88,0,1.75-.36,2.63-.35,9.22.09,18.44.26,27.66.33,3.23,0,4.36-1.2,4-4.4-.72-6.45-.23-12.9-1.45-19.45-1.4-7.57-1-15.45-2.38-23.22-1.57-8.67-1.95-17.57-4.24-26.16-1-3.82-1.62-7.79-3-11.46-2.93-7.69-6.32-15.2-9.38-22.84-2.82-7.06-7.67-12.51-13.55-17C373.7,60,368.87,59.07,367.6,55c-2,0-3.48.34-4.74-.06-6.16-2-12.24-4.18-18.39-6.21A29.56,29.56,0,0,0,338,47.18c-1.74-.15-3.61.82-5.33.58-2.39-.34-4.66-1.53-7.05-2-3-.58-6.29-1.44-8.75,1-6.53,6.58-12.51,13.75-19.36,20-9.15,8.27-18.95,15.81-28.41,23.73-7.62,6.39-16.17,10.25-26.26,10.34-2.46,0-4.91.32-8.35.56,2.31,2,3.8,3.82,5.73,4.76,10,4.91,20.27,9.37,30.21,14.44,3.38,1.73,7,4.22,8.89,7.35,2.45,4,3.4,9,4.78,13.59.92,3.06,2.53,4.08,5.75,3.59,3.49-.54,5.88-2.44,8.41-4.84,7.41-7,10.54-15.39,10.55-25.48,0-4.2,1.57-8.41,2.52-12.6.41-1.82,1.13-3.58,1.56-5.4,1.62-7,3.69-13.77,7.81-19.82,2.78-4.1,3.92-8.58,1.71-13.48C321.87,62.42,322.12,61,322,59.75ZM221.67,92a69.63,69.63,0,0,0-5.95,4.1c-5,4.23-10.19,8.33-14.79,13-5.5,5.57-8.73,12.7-11.61,19.86a93.59,93.59,0,0,0-3.88,13.21c-1.32,5.56-2.28,11.21-3.43,16.81a39.69,39.69,0,0,1-1.46,6c-1.66,4.41-3.62,8.7-5.33,13.1-1.25,3.21.29,5.69,3.69,5.15,5.26-.85,10.29-1.38,15.58.11,2.65.75,5.69.06,8.56.07,12.57.06,25.15.08,37.73.22,6.44.07,12.87.37,19.31.56,4.46.13,8.93.08,13.38.42,3.81.29,8.59-2.48,9.06-6.27,1.06-8.54,1.79-17.11,2.41-25.69a4.26,4.26,0,0,0-2-3.33c-2.87-1.26-3.95-3.14-4-6.21-.27-8.6-6.1-15.74-13.76-19.1-7.31-3.19-14.51-6.62-21.79-9.88-5.15-2.31-8.81-6.54-13.11-9.94-2.36-1.86-3-1.79-3.85,1.13a26.91,26.91,0,0,1-6,10.42c-6.28,7-10.7,14.7-8.18,24.74.89,3.53,5.6,8.05,9.11,7.19a46.55,46.55,0,0,0,13.13-5c5.33-3.28,10-7.66,15-11.41,1-.74,2.54-.74,3.83-1.09a20.07,20.07,0,0,1-.17,4c-.18.76-1,1.41-1.71,2-1.92,1.7-4,3.26-5.83,5a50.82,50.82,0,0,1-19.72,11.66,15.88,15.88,0,0,1-10.05-.69c-6.24-2.55-8.88-8.19-9.45-14.64-.67-7.51,2.43-14,6.38-20.11,2.62-4,5.85-7.69,8.65-11.63C223.3,103,224.29,95.44,221.67,92Zm11.79-215.42c-1.55,2.93-1.32,7.59.88,9.09,3.14,2.13,3.08,5.87,4.77,8.62,2,3.27,5.31,5.75,8.12,8.51.21.2,1,0,1.39-.22,5.16-3.2,9.78-1.37,14.42,1.34a4.34,4.34,0,0,0,3.34.19,46.36,46.36,0,0,0,7.43-3.7c1-.62,1.56-2,2.2-3.11,1-1.64,1.49-3.73,2.83-4.93,1.55-1.39,3.88-1.88,5.68-3.06a7.2,7.2,0,0,0,2.11-2.85c.42-.85.29-2,.72-2.82.93-1.84.29-3.06-1.31-4-2.4-1.35-4.85-2.63-7.27-4-3.38-1.85-7.49-2.74-8.35-7.53-.79-4.45-2-8.83-2.89-13.26-.72-3.6-1.89-4.57-5.65-4.6a10.75,10.75,0,0,1-4-.73c-2.73-1.21-3.56-5.79-1.48-7.91.56-.56,1.92-1.19,2.29-.92a16.25,16.25,0,0,1,2.62,3c.38-.93.85-2.07,1.42-3.43-2.07-.06-3.58-.92-3.13-3.18a39.09,39.09,0,0,1,1.67-5c-2.83-1.65-3.52-4.14-3.78-7.25a18.48,18.48,0,0,0-2.63-8c-2.74-4.34-15.21-7.63-20.21-5.81,3.27,1.9,6.63,3.71,9.81,5.8.81.54,1,2,1.52,3a20.72,20.72,0,0,0-2.83,1c-.79.41-2,1-2.09,1.63-.33,3-1.79,2.34-3.73,1.61a19,19,0,0,0-5-.94c-2.46-.21-5,0-7.39-.38a4,4,0,0,1-2.65-2.24c-.27-.74.63-2,1.22-2.91.48-.73,1.44-1.16,1.85-1.9a3.91,3.91,0,0,0,.35-2.41c-.27-1.52-.8-3-1.21-4.45-2,.93-3,2.65-3.34,5.78-.3,2.52-.51,5.29-1.7,7.42-2.1,3.77-5,7.1-7.4,10.71a13.41,13.41,0,0,0-1.11,3.38,28,28,0,0,0,3.9.7c2.79.11,5.57,0,8.5,0l3-1.76a18,18,0,0,1,.25,4.36c-.09.51-1.59.94-2.49,1.1-1.26.23-2.7-.13-3.81.34a4.29,4.29,0,0,0-1.94,2.53,2.33,2.33,0,0,0,1,2.09c2.2.56,4.5.74,6.75,1.15a21.35,21.35,0,0,1,4.59,1.1c2,.85,2.43,2.86.68,4.25a11.68,11.68,0,0,1-5,2.1c-2,.39-4.32-.27-6.17.41-1.39.51-2.31,2.39-3.32,3.75-.09.13.62,1.2,1.11,1.35a49.79,49.79,0,0,0,8.55,2.22c4.62.53,9.35.19,13.94.86,7.12,1,8.9,2.28,7.28,8.33a10.09,10.09,0,0,0-.24,2.06c-.14,2.92-1.8,4.43-4.59,4.34C239.79-122.66,236.7-123.13,233.46-123.45ZM222.44,227c0,5.45,0,10.33,0,15.21,0,1.84.84,2.45,2.51,2.5,2,.05,4,.11,5.92.34,5.85.7,11.68,1.5,17.54,2.18a4.18,4.18,0,0,0,2.85-.43c3.68-3.2,6.76-6.9,8.1-11.71a17.57,17.57,0,0,0,.21-3.64c-2.21,1.52-3.92,2.82-5.76,3.92-.63.38-2.1.58-2.25.32-.43-.75-.81-2-.45-2.64,1.95-3.25,4.15-6.31,8.3-7,6.28-1.12,10-5.6,13.21-10.52.47-.71-.24-2.19-.41-3.31a17.53,17.53,0,0,0-3.42,1c-.63.32-.81,1.5-1.44,1.81a13.44,13.44,0,0,1-3.15.77c.07-1.16-.31-2.7.3-3.41a17.63,17.63,0,0,1,4.26-3.11c2.41-1.48,5.32-2.41,6.33-5.43.84-2.49,1.55-5,2.16-7.57,1-4.23.42-4.91-3.87-5-10-.22-20-.48-30-.7-2.67-.06-5.33-.06-8-.08-5.63-.05-11.27-.07-16.91-.13-3.83-.05-7.67-.11-11.5-.24-3-.1-3.92,1.49-3.54,4.12.48,3.32.91,6.67,1.67,9.93,1.82,7.79,6.95,11,14.76,9.23a7.91,7.91,0,0,0,4-2.66c1.53-1.88,2.54-4.18,3.9-6.21a7.94,7.94,0,0,1,1.92-1.53,6.86,6.86,0,0,1,1.05,2,8.84,8.84,0,0,1-1.69,6.93c-2.91,4-7.37,4.47-11.42,6a3.86,3.86,0,0,0-1.49,1.08,1.8,1.8,0,0,0,.73,1.1c4.08,1.66,7.58,4.91,12.43,4.46a6.29,6.29,0,0,1,3.22.22c.85.43,1.35,1.58,2,2.42a9.57,9.57,0,0,1-2.4,1.06c-.94.13-2.29-.59-2.85-.16C226.73,230,224.67,229.24,222.44,227Zm61.78-40.1c-.27,2-.43,3.34-.64,4.65-.5,3.3-.82,6.64-1.59,9.87-.68,2.86-2.54,5.55-2.7,8.39-.45,8.42-3.71,15-10.85,19.63a7,7,0,0,0-3.57,6.1,15.7,15.7,0,0,1-1.91,6.75,107.17,107.17,0,0,1-6,9.85c-1.65,2.5-2.74,4.91-1.43,8s3.24,6.35,2.42,10.16c-.09.44.89,1.57,1.33,1.55a2.49,2.49,0,0,0,1.9-1.26c.61-2.05,2.08-2.46,3.88-2.54,2.76-.12,5.53-.15,8.28-.43,2.43-.24,4.83-.75,7.24-1.15a56.64,56.64,0,0,0,6.64-1.21c3.24-.95,6.39-2.19,9.57-3.36a17.92,17.92,0,0,0,2.59-1.21c3.23-1.8,6.31-4,9.7-5.39,7-2.94,8.27-4.35,6.76-11.51a102.59,102.59,0,0,0-4.48-14.34c-1.08-2.93-2.3-6.07-4.33-8.32a99.07,99.07,0,0,0-11.78-10.73c-4.49-3.58-6.05-8.28-6.73-13.66a45.5,45.5,0,0,0-2.11-7.95C286.21,188.26,285.35,187.9,284.22,186.94Zm30.3,37.93-.95,1.11q1.88,4.46,3.73,8.9a18.12,18.12,0,0,1,1.64,4.05,2.45,2.45,0,0,0,2.69,2.46c3.26.15,6.52.3,9.77.54,5.11.37,10.21,1.06,15.33,1.16,4.68.08,7-2.5,7.27-7.21a11.53,11.53,0,0,1,.28-2c.23-.92.55-1.81.82-2.71-1.11.07-2.24.07-3.34.23-3.42.5-6.82,1.29-10.25,1.47-1.07.06-2.22-1.48-3.34-2.28a14.36,14.36,0,0,1,3.06-1.68c1.69-.46,3.56-.34,5.21-.9a87.62,87.62,0,0,0,8.16-3.38,21,21,0,0,0,11.5-12c.79-2.17,2.58-5.21-.94-7.3-.54-.32-.44-1.83-.49-2.8-.08-1.28.4-2.76-.09-3.81-.8-1.75-1.9-3.72-3.44-4.64a5.89,5.89,0,0,0-5,0c-1.12.61-1.44,2.68-2.15,4.09-.05.11-.35.11-.68.2-.27-.31-.78-.63-.86-1-.7-3.65-3.25-4.26-6.44-4.23-9,.07-18,.1-27,0-8.38-.11-16.75-.4-25.12-.66-2.23-.07-2.77,1-2.3,3a27.36,27.36,0,0,0,10.38,15.8,176.7,176.7,0,0,0,23.61,15.57c3.11,1.66,5.41,4.85,8.08,7.34l-.78,1ZM317.38,43c-2.26-1.69-3.87-3.22-5.77-4.18a4.22,4.22,0,0,0-3.74.12c-3.57,2.94-7,6.1-10.26,9.36-4.69,4.65-8.93,9.76-13.87,14.11-7.91,7-16.1,13.62-24.46,20a27.67,27.67,0,0,1-9.8,4.48c-6.29,1.59-12.77,2.43-19.13,3.75-1.25.26-3.63.53-2.62,2.62.86,1.79,1.15,4.69,4.45,4.3,5.44-.64,10.91-1.06,16.33-1.79,2.6-.36,5.57-.59,7.61-2,6.34-4.34,12.4-9.1,18.42-13.89,7.85-6.25,15.67-12.53,23.26-19.07,5.25-4.51,10.08-9.49,15.14-14.22C314.2,45.46,315.61,44.44,317.38,43ZM295.93,268.06a7.36,7.36,0,0,0,2.7-.05c2.06-.9,3.95-2.16,6-3.08s3.81-2.95,6.64-1.65c-.23.59-.28,1.19-.6,1.43A46.3,46.3,0,0,0,306,268c-4.28,4-9.13,3.85-14.44,2.74-2.27-.47-4.81.35-7.22.59.36,1,.59,1.23.86,1.29a2.58,2.58,0,0,0,1.17,0c3.77-1.26,7.17-.14,10.55,1.46a4.15,4.15,0,0,0,2.25.09c3.77-.56,7.53-1.66,11.3-1.7,10.58-.1,21.15.24,31.73.39,2.6,0,5.2,0,7.15,0-.84-4.25-1.57-7.76-2.19-11.3-.18-1,0-2.15-.08-3.21-.05-.62-.26-1.64-.6-1.73a44.34,44.34,0,0,0-8-1.7c-4-.29-8.12.05-12.17-.16s-7.74-.2-10.68,3a1.77,1.77,0,0,1-1.07.46C307.11,259,302.16,264.6,295.93,268.06Zm-62.79-326-.64,1c2,1.39,4.32,2.53,6.08,4.21,4.07,3.87,7.9,8,11.78,12.06a5.54,5.54,0,0,1,.7,1.76c-.71.15-1.57.63-2.08.38a27.45,27.45,0,0,1-5.06-3c-6.1-5-12.16-10-19.39-13.25-.75-.34-1.71-.2-3.23-.34,3.8,2.81,7.17,4.87,10,7.51,4.43,4.13,8.51,8.63,12.67,13,.35.37.21,1.22.31,1.85-.73.1-1.63.51-2.13.23a10.34,10.34,0,0,1-2.54-2.32c-.89-1-1.46-2.41-2.47-3.29-3.12-2.72-6.33-5.36-9.63-7.87a58.13,58.13,0,0,0-5.36-3.28l-.54.84c7.49,6.6,14.93,13.25,20.42,21.83-3-1.65-6.1-3.32-8.36-5.77-3.21-3.48-6.34-6.74-11.45-7.41a123,123,0,0,0,11.88,12.47,44,44,0,0,0,19.13,9.67c1.92.47,3.05.06,3.9-2a74.86,74.86,0,0,1,4.78-9.19c1-1.62.75-2.63-.5-3.87-2.39-2.37-5-4.63-6.9-7.35-3.09-4.36-6.33-8.45-10.74-11.59C240.37-53.93,237.25-56.79,233.14-57.9Zm-45,325.78c-3.94,1-7.9,1.87-11.78,3.05-.93.29-1.56,1.57-2.33,2.4.92.36,1.93,1.17,2.75,1,2.88-.56,6.25.64,8.56-2.27.3-.38,1.31-.29,2-.28,4.26,0,8.53.37,12.77.13,4.09-.23,8.14-1.45,12.22-1.53,10-.19,20,0,30,.07a56.43,56.43,0,0,0,6.76-.07,2.73,2.73,0,0,0,1.63-2.16,53.73,53.73,0,0,0-2.23-7,1.65,1.65,0,0,0-1.17-.79c-3.85-.7-7.72-1.3-11.57-2-4.71-.86-9.73-1.08-14-3-3.5-1.54-4.48-.23-6.39,1.94a38.66,38.66,0,0,1-7.9,7A25.51,25.51,0,0,1,188.1,267.88ZM156.71,111.17c.33-1.67.58-2.85.8-4,.29-1.54.5-3.1.84-4.63,1.84-8.26,4.7-16.38,3.68-25A3.79,3.79,0,0,0,160.21,75c-1.54-.77-3.35-1-5-1.6-2.44-1-4.55-1-6.4,1.26-1.63,2-3.55,3.72-5.18,5.7-3.33,4.06-3.59,9.14-4.38,14,0,.1.26.24.76.65,1.8-3.66,3.46-7.26,5.37-10.74.52-1,1.77-1.51,2.68-2.25.34,1.14,1.16,2.41.91,3.41a19.49,19.49,0,0,1-2.44,5.62c-2.2,3.47-4,6.92-3.41,11.26.32,2.44.1,5,.18,7.42a16.34,16.34,0,0,0,.33,2.06l.75,0c-.17-5.44-.46-10.91,3.2-14.92l5.6,1.31C154.23,102,155.39,106.29,156.71,111.17ZM225.4-196.76l2.25,1.73a35.68,35.68,0,0,0,2.16-3.9,3.32,3.32,0,0,1,3.71-2.24c6.78.3,13.57.51,20.36.78.79,0,1.56.25,2.35.34,3.79.43,7.58.87,11.38,1.24,1.47.15,3,.13,4.44.18,6.43.19,12.85.41,19.28.55,1.93,0,3.14-.87,3.2-3.28-4.89-.31-9.68-.37-14.39-1-5.53-.72-11.43,1.66-16.61-2-.13-.09-.38,0-.58,0-4,.06-8,.22-12.08.15-6.11-.1-12.23-.37-18.34-.55-2.73-.08-5.32.2-6.77,3C228.43-199.43,228.43-199.43,225.4-196.76Zm38,111.16c.43-6.4-5-9.14-10-9.27-3.23-.08-8.32,5.08-8.32,8.35,0,5,4.94,9.57,10.52,9.62C259.23-76.88,263.4-81.54,263.42-85.6Zm81.33-15.6c-2.31,4.74-1.89,4.47.63,8.31,2.84,4.33,4.8,9.22,7.2,13.84.53,1,1.33,2.72,2,2.7a16.5,16.5,0,0,0,6.32-1.42c.55-.26.55-2.73.1-3.92-2.93-7.69-9.17-12.9-14.47-18.81C346.15-100.88,345.44-100.93,344.75-101.2Zm-45.89-97.28c0,1.3-.26,2.26,0,3,1.87,4.63,3.83,9.21,5.83,13.79.67,1.53,1.55,3,2.28,4.46,3.17,6.46,6.28,13,9.56,19.35.36.7,1.68.91,3.2,1.66-1.1-3.5-1.69-6-2.65-8.3-1.36-3.27-2.93-6.45-4.5-9.63-1.82-3.68-3.87-7.25-5.55-11-1.27-2.82-2.66-5.78-3-8.77-.16-1.56,1.88-3.38,3-5,1.59-2.22,1.22-4.37.36-6.56-.78,2.08-.83,4.38-1.79,6.2C304.29-196.6,301.67-197.54,298.86-198.48Zm-12,90.95c-4.61-.1-5.95,1.45-6.07,7-.09,4.21,2.37,7,6.27,7,4.15.07,6-1.85,6.09-6.19C293.18-104.31,290.67-107.45,286.82-107.53ZM296.17-159c0,.79,0,1.92,0,3.05-.05,2.82-1,3.67-3.11,2-2.3-1.82-4.84-2.13-7.4-2.76a8,8,0,0,0-2.07,0c.16.89.06,2.32.54,2.55a37.78,37.78,0,0,0,5.41,1.82c1.53.48,3.1.87,4.59,1.46s2.92,1.36,4.38,2.06c.61-1.49,1.23-3,1.82-4.46.1-.26-.05-.62,0-.89.75-2.17,1.6-4.3,2.28-6.49.49-1.6.77-3.25,1.14-4.88L300-166c0,2.78,0,4.94-.14,7.08C299.85-158.88,297.76-159,296.17-159Zm-71.75,53.79c-.06,2.38,2.42,4.79,5,4.82,2.69,0,4.82-2.82,4.94-6.62.08-2.37-2.41-4.56-5.22-4.59S224.53-109.15,224.42-105.17Zm78.77-31c-2.71-1.4-5.33-2.53-7.72-4s-5.87-.67-6.58,2.24c-.16.65.47,1.5,1,2.88,1-2.1,1.49-3.22,2-4.35,1.06.49,2.11,1,3.18,1.46.26.11.65,0,.86.11,1.12.76,3.09,1.51,3.15,2.37.23,3.68,3.34,5.12,5.27,7.38.84,1,2.82,1.23,4.3,1.28.44,0,1-1.76,1.42-2.73a19.2,19.2,0,0,1,1.21-2.64c1.54-2.33,1-4-2-5-1.62,2.53.81,6.27-2.78,9.1,0-3.57-1.68-5.08-4.95-5ZM288.6-184.71l-1.19.09c0,2.07-.12,4.14,0,6.2.13,1.87,3.24,4.5,5.1,4.78s3.43.76,5.4,1.22c.73-1.22-3.24-9.19-5.64-9.05C289.56-181.3,289.34-183,288.6-184.71ZM353.12,184.2l2.93-4.35c-.81-2.22-1.9-3.89-1.94-5.58-.11-4.62.29-9.25.31-13.88a3,3,0,0,0-1.34-2.43c-1.08-.35-2.41,0-3.64.1a22.45,22.45,0,0,0,.45,3.29,5.32,5.32,0,0,0,1.28,2.31c1.9,1.86,2.05,4.12,2,6.58C353,174.72,353.12,179.21,353.12,184.2ZM275.18-140.3a26.82,26.82,0,0,0,2.68-1.86c1.42-1.3,2.74-2.7,4.12-4,1.6-1.52,1.2-3.06.21-4.87-1.7,3.58-4.49,4.05-9.18,1.65C270.08-145.54,274.87-143.78,275.18-140.3Zm37.75,12.49c3.29,1.69,6.08.88,6.76-1.91.92-3.79.94-7.53-2.41-10.35a7.08,7.08,0,0,0-2.25-.82,6.59,6.59,0,0,0,.55,2.2c2.38,3.48,2,6.36-1.23,9.12A12.78,12.78,0,0,0,312.93-127.81Zm-60.28-87.77c4.8.33,7.33,2.83,8.27,7.24.12.59,1.78.85,2.72,1.27a8.38,8.38,0,0,0,.58-2.65C263.59-215.43,258.72-218.17,252.65-215.58ZM360.51,161.83l.73-.3c-.4-.56-.88-1.63-1.19-1.58-.94.15-2.26.48-2.64,1.18-1.73,3.1.81,5.93.85,9,.74,0,2,.18,2.12-.08a9.93,9.93,0,0,0,.73-3.64A35.21,35.21,0,0,0,360.51,161.83Zm-14.16,85.66-.05-1.23H321.44v1.23ZM164.67,72.09l.09-.85a18.29,18.29,0,0,0-10.86-3.76c-.65,0-1.34.8-2,1.23a7.14,7.14,0,0,0,1.75,1.17c2.17.65,4.37,1.22,6.59,1.69C161.69,71.87,163.19,71.92,164.67,72.09Zm200,117.71c1.24,4.32,2.3,8,3.56,12.35C370.64,196.94,369.32,192.49,364.63,189.8ZM260.05-14.31c2.17-4.84,7.29-8.44,6.39-14.49C264.76-23.75,260.59-19.78,260.05-14.31Zm10.43-11.08c-1.83,4.45-6.27,7.67-6.43,13.34C266.79-13.46,271.38-23,270.48-25.39Zm6.85-146.72c-.24,3-.46,5.82-.7,8.77h5.1c-.72-.67-1.74-.6-2.16-1.07a2.42,2.42,0,0,1-.39-2.23C281.37-169.31,280.72-171.15,277.33-172.11Zm15.74,45.6a50.17,50.17,0,0,0,2.73-4.6c.09-.21-1.07-1.39-1.78-1.54a4.52,4.52,0,0,0-5,2.41Zm23.31-21.18c-1.75-1.24-3.48-2.52-5.27-3.71-1.1-.74-2.28-1.37-3.85-2.29C308.2-148,311.53-146.77,316.38-147.69Zm74.88,351.74c-1.43-.79-2.1-1.42-2.84-1.51-1.06-.12-4,3.48-3.65,4.66a3,3,0,0,0,1.76,1.37C388,207.35,389.34,206,391.26,204.05ZM164.73,65.34c-3.67-1.45-7-4.3-11.43-2.67C157.06,63.76,160.4,66.61,164.73,65.34ZM259-191.18c2.11,1.82,5.53,1.91,7,.28.4-.45.86-1.45.66-1.73-.38-.53-1.37-1.14-1.87-1C262.84-193,261-192,259-191.18ZM335.84,38c.29,4.89,3.09,6.49,7.12,4.77ZM265.48-179.11l-.08.79,6.58,5.38c1.22-2.37-.76-4-2.17-5.3C268.89-179.09,267-178.85,265.48-179.11Zm34.22-3.81c-.55-.65-1.16-2-2.12-2.34a12.48,12.48,0,0,0-4.77-.16c-.23,0-.36,1.3-.4,1.46Zm-12.21,45.75-1.11-.3a14.1,14.1,0,0,0-2.53,3.05c-.36.79.15,2,.28,3,.7-.14,1.89-.11,2-.46A48.84,48.84,0,0,0,287.49-137.17Zm84.06,320.46,1.14,0c2.52-4.72,2.52-4.8-.59-6.79C371.9,178.94,371.73,181.12,371.55,183.29Zm-23.93-80.9c-.18-2.24-.33-4.44-.57-6.63-.05-.39-.56-1.09-.7-1.06a2.15,2.15,0,0,0-1.33.84C344.14,97.46,345.63,101.07,347.62,102.39Zm30.09,92.69-.16-.63c-1.4-.18-2.8-.42-4.22-.51a3.11,3.11,0,0,0-1.86.43c-.21.15-.09,1.22.21,1.54.49.5,1.39,1.12,1.9,1A29.56,29.56,0,0,0,377.71,195.08ZM290.65-186c1.79-3.53.78-5.18-3.51-5.47Zm79.78,372.66.51-1.34c-4,1.07-4.13-1.51-4.82-3.83-.43,1.64-.85,3.28-1.42,5.46ZM239.8-194c4,1.91,5.51,1.5,7.32-2ZM235-192.62l.65-.86-1.26-4.07-3.9,2.6Zm99.71,84.69-.46-.85c-.78.3-2.09.44-2.24.94a20.5,20.5,0,0,0-.48,4.32l1,.22Zm-77.08-85.61c-2.24-.39-3.37,1-3.9,2.8-.17.6.77,1.53,1.37,2.63ZM263.16-174c-.4,3.15,1.81,4.89,5.64,3.8Zm6.62-37.9-.27-.87c-.8.33-2.19.52-2.31,1a19.55,19.55,0,0,0-.11,4.27l.9,0C268.59-208.94,269.18-210.43,269.78-211.91Zm56.78,462.57v.54h12.16v-.54ZM247-213.3l-.93-.18a24.62,24.62,0,0,0-.69,4.12c0,.47,1,1,1.54,1.42.27-.55.79-1.12.76-1.65A30.16,30.16,0,0,0,247-213.3ZM361.38,175.15l.94.36,2.91-6.49-1.31-.54Q362.65,171.81,361.38,175.15Zm-73.64-344c.81-.92,1.62-1.43,1.63-2s-.9-1.51-1.23-1.45a2.9,2.9,0,0,0-1.78,1.38C286.22-170.64,287.06-169.85,287.74-168.88Zm5.67-.84-1.46-.73c-.58,1-1.16,2.08-1.75,3.11.61.17,1.62.64,1.75.46A17.68,17.68,0,0,0,293.41-169.72Zm19.12,58.2c.07.36.14.72.22,1.08l4.39.47c-1.14-1.42-1.6-2.55-2.26-2.68S313.32-111.94,312.53-111.52ZM267.28-188c1.26,3.26,2.22,3.41,4.44,1Zm61.37,81.5-.52-.9-4,.75,1.63,2.54Zm-55-73.93,3.09-2-3.56-2.32Z"/></g></g></svg>