<svg id="Layer_1" data-name="Layer 1" xmlns="http://www.w3.org/2000/svg" viewBox="0 0 200 200"><g id="KCIDl4.tif"><path d="M123,13.1l2.19,4c.44-.9.8-1.73,1.23-2.51.6-1.1,1.39-1.22,2.13-.18s1.19,2,1.84,3l2.73-4.07,2.16,4,3-2.43.54.21c0,1,.07,2,0,3a121.42,121.42,0,0,0,0,23.58c0,.24,0,.55.07.73,1.31,2,2.18,4,.42,6.21-.1.12.26.63.44,1a9.92,9.92,0,0,1,0,10.37,2.93,2.93,0,0,0-.48,1.53c.29,4.35.51,8.71,1,13,.33,2.65.18,4.13-2.35,5.08a76.24,76.24,0,0,1-10.78,2.93c-1.9.41-3.92.22-5.87.45a3.28,3.28,0,0,0-1.61,1c-.71.66-1.24,1.52-2,2.12-1.27,1-1.38,2-.15,3,.24.19.57.37.66.62.81,2.26,2.66,2,4.49,2a11.25,11.25,0,0,1,4,.45,11.36,11.36,0,0,1,2.82,2.33,9.63,9.63,0,0,0,1.92,1.67c2.23,1,4.61,1.74,6.79,2.86,5.11,2.64,6.65,6.18,5.34,11.77A17.11,17.11,0,0,1,138,120c-1,.85-1.67,1.6-1.07,2.95a1.26,1.26,0,0,1,.06.72c-.38,1.92.35,3,2.06,4.06,1.9,1.14,1.54,3-.52,3.94a7.74,7.74,0,0,1-1.28.4c-.63,1.28-.85,2.7-1.62,3.14-1.91,1.07-3.45-.35-4.85-1.47-2.79,2.69-2.33,6.2-2.64,9.5,0,.37,0,.74,0,1.11,0,3,0,3.11-3,3.7-1.65.34-2.83,2.58-2,4a1.71,1.71,0,0,0,1.64.44c2.44-1.34,5-1.12,7.55-.69a3.34,3.34,0,0,1,2.17,1.44c4.09,7.54,4.31,15.18,0,22.7-.84,1.48-2.43,2.54-3.67,3.78-.38.38-.77.73-1.15,1.1-.54.51-1,1.28-1.64,1.5-7.74,2.75-15.24,1.94-22.52-1.7a3.88,3.88,0,0,1-2.35-4,17.93,17.93,0,0,1,2.13-7.55,24.6,24.6,0,0,0,1.28-4.22c-1.93-1.4-3.72-2.49-5.27-3.86a13.82,13.82,0,0,1-4.69-9.34,2,2,0,0,0-1.8-2.11c-1.61-.35-3.16-1-4.76-1.43a2,2,0,0,1-1.58-2.61c.36-1.88.86-3.74,1-5.63a6.07,6.07,0,0,0-.67-2.84c-.56-1.28-1.32-2.48-2-3.73-.11-.21-.09-.53-.25-.69-3.56-3.53-2.29-7.78-1.46-11.76a22.66,22.66,0,0,1,3.26-8c1.83-2.68,1-5.35,1.38-8l-.64-.18c-.15.58-.34,1.15-.46,1.74-.43,2.09-.69,4.23-1.31,6.26a2.37,2.37,0,0,1-3.06,1.7,1.33,1.33,0,0,0-1,.31c-2.31,2-2.8,2-5.4-.29a20.92,20.92,0,0,0-.81,4.42c.36,7.74.68,15.49,1.35,23.2.9,10.3,2.13,20.56,3.14,30.85a11.58,11.58,0,0,1-.39,4.18c-1.4,4.92-6.8,6.31-10.49,2.77-2.64-2.54-3.89-5.79-4.7-9.25-.19-.83-.36-1.66-.56-2.59-4.3,2.16-8.58,3.25-12.49-.22a7,7,0,0,1-1.79-8.31c2.36-5.7,7.37-5.22,12.37-4.79l-.79-24.09c-2.73.17-5.3.67-7.79.42-4-.41-6.63-4-6.43-8.14a7.62,7.62,0,0,1,7.21-7.09c1.84-.09,3.69.11,5.53,0a1.66,1.66,0,0,0,1.31-.79c1.12-3.57,2.13-7.18,3.17-10.73-1.55-1-3.29-2-4.8-3.22-4.79-3.9-4.35-10.2.93-13.43,4.87-3,10.15-3.45,15.67-2.45a2.44,2.44,0,0,0,1.93-.37,3.69,3.69,0,0,1,3.72-1.06,36,36,0,0,1,5.3,1.5c1.88.72,3.62,2,6.09-.08.06-3.39.14-7.42.15-11.46,0-.35-.46-.8-.81-1-3.09-2.26-3.21-5.67-.33-8.29a2.28,2.28,0,0,0,.7-1.66C93.56,54.85,92.87,46.88,91.8,39,91,33.3,89.72,27.72,88.69,22.1a14.17,14.17,0,0,1,0-2.26,10,10,0,0,1,2.64.21,13.41,13.41,0,0,1,2.5,1.54c.38-1.61.66-3.1,1.08-4.56s1.2-1.5,2.13-.48,1.58,1.87,2.56,3c.31-.83.56-1.53.82-2.23,1.06-2.86,2-3.09,4.11-1,.64.65,1.22,1.37,2,2.19.75-1.26,1.38-2.5,2.17-3.62,1-1.45,1.63-1.43,2.6,0,.61.9,1.08,1.89,1.67,3l3.07-4.86h.74l2.72,4.1,2.82-4.1ZM137.28,17l-2.75,2.89-1.61-5c-.7,1.51-1.11,2.53-1.63,3.48-.68,1.22-1.29,1.2-1.93,0s-1.12-2.24-1.86-3.73l-2.2,5-.57-.17-2.28-5.17-3.26,5.85-2.28-4.89c-.55,2-1,3.62-2.88,4.16-2.52.72-2.42-1.85-3.56-3a29.6,29.6,0,0,1-2,2.7c-1.42,1.53-2.31,1.43-3.57-.22-.46-.6-.94-1.19-1.35-1.72a16.79,16.79,0,0,0-2.71,11.92c.23,1.95.62,3.9.68,5.86Q102,49,102.25,63c.08,3.55,0,7.1,0,10.66L105,74c-2,2.08-3.1,4.36-2.93,6.73a16.82,16.82,0,0,1-1,6.08c-.27.94-.57,1.87-.92,3a25.76,25.76,0,0,0,12.42,1c2-.27,2.82-1.22,2.88-3.1a3,3,0,0,1,1.88-2.9c.54-.24.89-.93,1.31-1.4l-12.76-3.35-.94,1.42c-.9-1.85-.44-3.47,1-4.35a4.14,4.14,0,0,1,1.36-.2l-.79,1.69c.94.37,1.72.74,2.53,1a43,43,0,0,0,22.55,1.09A35.13,35.13,0,0,0,138,78.49c1.3-.57,1.74-1.64,1.26-3.21a25.21,25.21,0,0,1-.86-5.27c-.22-2.53-.28-5.08-.44-8.1-1,1-1.95,1.63-2.37,2.5a7.59,7.59,0,0,1-9.67,3.77,1.87,1.87,0,0,1-1-1.33,1.75,1.75,0,0,1,1-1.33,8.85,8.85,0,0,1,2.53-.16,34.62,34.62,0,0,0,3.67,0c.66-.07,1.81-.58,1.82-.91a4.68,4.68,0,0,0-.75-2.78c-1-1.26-7.16-1.73-8.47-.84a2.56,2.56,0,0,0-.48.55,9.71,9.71,0,0,1-6.94,3.78c-4.65.5-8.51-1.06-11.13-5a9.21,9.21,0,0,1-.25-10.45c2.48-4,6.36-5.65,11-5.41a11.24,11.24,0,0,1,7.8,3.75c4.51-3.83,9.06-3.88,13.62-.34,1-1.26,1.24-2.31.24-3.61a4.78,4.78,0,0,1-.86-2.55c-.21-4.49-.34-9-.42-13.47C137.23,24.42,137.28,20.76,137.28,17ZM70.45,112,70,112a49.4,49.4,0,0,0-.57,5.92c.22,10.77.39,21.55.89,32.31.29,6.31,1,12.62,1.84,18.89.51,3.9,1.33,7.85,5.21,10.12.2.11.25.49.48,1,2.49-2.11,3-4.82,2.69-7.7-1.13-12.08-2.38-24.14-3.46-36.21-.54-6-.8-12-1.2-18.16l-3.09-.43Zm60,19.5-.45-.36a44.59,44.59,0,0,1-20.36,5.67,53.77,53.77,0,0,1-21.47-3.52A19.64,19.64,0,0,0,90,136.51a3.61,3.61,0,0,1,.76,3.73c-.43,1.6-.61,3.26-.88,4.9a1.66,1.66,0,0,0,1.31,2.06,36.68,36.68,0,0,0,17.26,1.65c3.28-.49,3.34-.57,3.51-3.83.09-1.52.53-2.12,2.16-2.13,5.67,0,10.13-2.73,13.71-6.91A28.32,28.32,0,0,0,130.41,131.54ZM115.85,64.13a9.42,9.42,0,0,0,9.67-9.49,8.86,8.86,0,0,0-9.2-9.19c-6.07,0-10.64,4-10.66,9.39C105.64,59.91,110.24,64.09,115.85,64.13Zm-31,49.11.57.33a8.45,8.45,0,0,0,1.56-2.2,16,16,0,0,0-.57-11.53,7.06,7.06,0,0,0-5.06-4.18A21.36,21.36,0,0,1,72,91.1a2.1,2.1,0,0,0-3,0,3.4,3.4,0,0,0,.16,5.61c2.87,1.79,5.83,3.43,8.8,5.06,4,2.17,4.87,4.08,3.9,8.4-.35,1.57-.59,3.17-.92,5,3-1.5,2.48-4.41,3.31-6.85C85.92,109.92,84.45,111.7,84.82,113.24Zm47.32-15.52c.16,2.85.23,5.42.5,8a2.66,2.66,0,0,0,1.23,1.63c2,1.25,2.65,2.67,1.78,5-.68,1.78-1.63,3.46-2.27,5.25a6.14,6.14,0,0,0-.24,2.89c.31,2.06,1.19,4.09,1.13,6.12s1,2.44,2.35,2.89a14.52,14.52,0,0,0,2.65.38c-.2-.41-.25-.74-.4-.8-3.09-1.14-3.24-3.69-3.1-6.38a.53.53,0,0,0,0-.18c-.64-1.2,0-1.84.9-2.61a17.54,17.54,0,0,0,6-10.1c.46-2.42.51-4.93-1.23-6.85A18.08,18.08,0,0,0,132.14,97.72Zm3.12-35.19c3.27-1.61,4.9-4.06,4.92-7.42,0-3.52-1.35-6.41-4.71-7.92a8.7,8.7,0,0,0-9.23.93,1.57,1.57,0,0,0-.53,2.22,10,10,0,0,1,.4,7.71,12.83,12.83,0,0,0-.31,1.49C129.29,59.68,133.05,58.48,135.26,62.53ZM123.93,169.46c-5,2.74-9.82,2.33-14.79.9,0,2.49.14,4.82-3,5.86,1.92.67,3.44,1.33,5,1.74a28.53,28.53,0,0,0,15.31.07c1.57-.44,1.89-1.21,1.14-2.5C126.47,173.53,125.22,171.57,123.93,169.46Zm6,6.32c4.39-5,5.09-14,1.47-20.77-1.45-2.73-3.41-3.18-6.06-1.35l.52.72a10,10,0,0,1-1.08,12.91,1.71,1.71,0,0,0,0,1.63C126.39,171.24,128.15,173.47,129.91,175.78Zm-19.28-23.52c-.9.24-1.71.5-2.54.68-3.11.66-3.55,1.49-2.08,4.35a8.44,8.44,0,0,0,1.8,2.29c3.11,2.92,7,3.31,11,3.14,2.15-.09,3.07-1.51,3.1-4.16,0-1.45-1.18-2.4-3.16-2.65C115.66,155.53,112.66,154.91,110.63,152.26ZM117,90l-.5.26c0,.17-.09.37,0,.5,2,3.82,2.37,8,2.68,12.17a10.84,10.84,0,0,0,3.5,7.61A25.84,25.84,0,0,1,131,125.81c.12.76.23,1.53.36,2.34,1.71-.89,1.83-1.24,1.35-3.66a27.73,27.73,0,0,0-9.72-16.3,6.94,6.94,0,0,1-2-3.48c-.94-3.88-1.55-7.84-2.43-11.73A14.26,14.26,0,0,0,117,90Zm11.3,88.8c-10.26,1.93-10.92,1.87-24-2.15-.5,1.37.15,2.15,1.31,2.78a28.17,28.17,0,0,0,21,2.35C128.4,181.35,128.92,180.52,128.32,178.8ZM127.06,139a22.51,22.51,0,0,1-12.3,5.34,1.36,1.36,0,0,0,.08,2.71c3.68,0,7.36-.14,11-.34a1.63,1.63,0,0,0,1.13-1.12C127.12,143.49,127.06,141.4,127.06,139Zm-3.9,29.38c-1.63-.64-2.56-1.05-3.52-1.37a14.19,14.19,0,0,0-2.81-.79c-2.49-.3-5-.5-7.5-.7a16.33,16.33,0,0,0-2,.09,11,11,0,0,0,.8,2.41,2.93,2.93,0,0,0,1.5,1,17.25,17.25,0,0,0,10.64.77A17.14,17.14,0,0,0,123.16,168.36Zm8.66-16-.38.48a1.28,1.28,0,0,0,.08.35c4.64,8.35,4.42,16.42-1.36,24.19a4.72,4.72,0,0,0-.47,1.34l.39.26a16.07,16.07,0,0,0,1.8-1.45c5.32-5.64,6.32-17,2-23.48A9.14,9.14,0,0,0,131.82,152.38ZM120,166c2.58,1.39,5,.55,5.94-2.14a9.87,9.87,0,0,0-.73-8.38c-1.47-2.56-4.35-2.83-6.1-.59,2.75.1,4,1.76,4.27,4.2C123.69,161.93,123.12,164.48,120,166Zm-3.68-11.33c1.87-1,3.56-1.78,5.19-2.72.23-.13.16-.8.25-1.39a15.82,15.82,0,0,1-2.8.47C116.87,151,116,151.89,116.3,154.64Zm-60-33.57c-.87,1-1.87,1.7-1.79,2.22s1.14,1.66,1.69,1.6c.74-.08,1.4-1,2.09-1.57Zm2.22,43.28,1.83-2.29c-.65-.49-1.3-1.37-1.94-1.36s-1.26.92-1.88,1.44Zm69.84-69.5c-.55-1.71-4.7-2.77-8-1.8ZM68,134.42l.1.18V117.84H68Zm8-22,.82.41,2.26-4.51-.88-.43ZM96.93,67.1l1.35-1.16a5.14,5.14,0,0,0-1.66-1c-.47-.06-1,.44-1.53.69ZM107.81,171c-1.8.86-2.15,2-1.22,3.85C108.13,174,108.33,172.71,107.81,171Zm22.5-60.64-.33-.73c-.63.2-1.72.27-1.82.62a5.94,5.94,0,0,0,.3,2.3l.63-.05Zm-34.1-29h.07V74h-.07Z"/><path d="M75.33,154.46c-1.69-2.06-3.38-33.73-2-36.06C74,130.75,74.68,142.6,75.33,154.46Z"/><path d="M75.51,155.08l1,10.42c-1.31-.92-2.3-8.86-1.54-10.36Z"/><path d="M112.35,51.27c.76,1.09,1.65,1.83,1.53,2.33-.15.66-1.09,1.13-1.7,1.69-.5-.58-1.36-1.15-1.39-1.75S111.58,52.32,112.35,51.27Z"/><path d="M134.55,55.8c-.73-1-1.51-1.6-1.48-2.15a2,2,0,0,1,1.43-1.42c.47,0,1.34.85,1.4,1.39S135.22,54.79,134.55,55.8Z"/><path d="M127.64,158.34c.78-1,1.24-2.07,2-2.29.52-.16,1.6.69,2.06,1.34a2.78,2.78,0,0,1,0,3.6c-.32.36-1.37.66-1.57.46A29.43,29.43,0,0,1,127.64,158.34Zm3,2.21a2.52,2.52,0,0,0-.37-3.36,1,1,0,0,0-.89.1c-.65.7-.07,2.54,1,3.25C130.44,160.57,130.51,160.55,130.69,160.55Z"/></g></svg>