<svg id="Layer_1" data-name="Layer 1" xmlns="http://www.w3.org/2000/svg" viewBox="0 0 200 200"><g id="TaC4kN"><path d="M32.25,69.93c-5.46.53-10.93,1-16.38,1.64a14.54,14.54,0,0,0-7.26,3.1c-3.84,3-4.12,6.56-2,10.27A36.39,36.39,0,0,0,13.63,94a132.88,132.88,0,0,0,13.7,10.58A119.64,119.64,0,0,0,49,116.51c9,3.77,18,7.26,27.15,10.6,4.38,1.6,9,2.61,13.49,3.84,2.38.65,4.79,1.26,7.21,1.73,9.27,1.83,18.5,3.85,27.82,5.29a171.11,171.11,0,0,0,24,2.48c4.68.06,9.36.59,14,.38,6.57-.29,13.21-.57,19.43-3.21,2.47-1.05,4.8-2.24,6.42-4.53a5.74,5.74,0,0,0,.61-6.19,28.8,28.8,0,0,0-7.36-9.84c-1.67-1.44-3.42-2.78-5.13-4.15-.91-.73-1.79-1-2.56.2-.64,1-1.34.8-2,0-1.75-2-3.48-4-5.18-6.06a3.82,3.82,0,0,1-.44-1.2,3.78,3.78,0,0,1,1.3-.22c2.61.51,5.2,1.1,7.81,1.65,1.06.22,1.48.82.81,1.75-1.07,1.49,0,2.08,1,2.83,4.16,3.18,8.29,6.43,11,11.06a25.33,25.33,0,0,1,2.39,5.53c.72,2.43-.47,4.6-2.05,6.24a15.67,15.67,0,0,1-5.12,3.57,38.75,38.75,0,0,1-13.85,3.2c-5.13.14-10.27.64-15.39.45-7-.27-14.08-.85-21.08-1.66-7.19-.84-14.36-2-21.48-3.26-7.3-1.35-14.57-2.89-21.78-4.67a229.72,229.72,0,0,1-33.65-11.2c-12.89-5.4-25.31-11.71-36.48-20.23C14.56,96.86,9.46,92.52,6.13,86.52c-2-3.59-2.9-7.3-.21-10.85a13.58,13.58,0,0,1,4.26-3.27c3.59-2,7.64-2.55,11.65-3A75.48,75.48,0,0,1,41,69.75a5.41,5.41,0,0,1,.82.1,2.71,2.71,0,0,1,.61.43c-.26.15-.53.44-.79.43-3.11-.13-6.22-.3-9.34-.47Z"/><path d="M64.9,90.8c3.84,0,7.68,0,11.52,0a4,4,0,0,1,2.74.83c.94,1.15,1.38,2.66,2.32,0,.11-.34,1.13-.48,1.73-.49,2.93,0,5.87,0,8.8,0,.87,0,2.11-.19,2,1.22-.13,1.19,0,2.73-1.66,3.11a8.78,8.78,0,0,1-1.92.11q-19.9.07-39.83.12c-3.49,0-3.89-.63-2.64-3.84a16.17,16.17,0,0,0,.78-3.08c.41-2.54,1-3.1,3.56-3.1l25,0c.65,0,1.29,0,1.93,0,1.41.12,1.69.65.84,1.69-1.32,1.61-2.83,2.8-5.12,2.74-3.38-.1-6.76,0-10.13,0Z"/><path d="M58.81,106.79c-4,0-8.07,0-12.11,0-.92,0-2.17.41-2.45-1.06s.89-3.52,2.1-3.78a10,10,0,0,1,2.19-.12c6.6.12,13.2.29,19.8.38,2.83,0,5.67-.15,8.5-.06,1.74.05,2,.73,1.1,2.21a4,4,0,0,1-4,2.19c-5-.26-10.08-.09-15.12-.09Z"/><path d="M69.41,79.11l-14.27.6c-.37,0-.74,0-1.1,0-1.14,0-2.29,0-2.28-1.64s.81-2.9,2.1-3a30.76,30.76,0,0,1,3.84-.18q11.14.08,22.27.21a2.48,2.48,0,0,1,2.53,2.85c-.16,1.27-1.16,1.27-2.08,1.27-3.67,0-7.34,0-11,0Z"/><path d="M59.17,107.27H71.28a8.25,8.25,0,0,1,1.65,0,3.86,3.86,0,0,1,1.09.62,4,4,0,0,1-.74,1,16,16,0,0,1-9,2.84c-3.2.09-6.4.05-9.61.11s-6.21.22-9.32.27c-1,0-2.39.32-2.53-1.35-.12-1.48,1.18-3.4,2.37-3.57a16.13,16.13,0,0,1,2.2,0c3.95,0,7.89,0,11.83,0Z"/><path d="M104,79.19c-4.58,0-9.16,0-13.73,0a6.61,6.61,0,0,1-1.71-.53,8.64,8.64,0,0,1,.83-1.6A5.23,5.23,0,0,1,93.84,75c7.59.2,15.18.23,22.76.34,1.31,0,2.58.12,3.19,1.61S120,79,118.5,79.13c-1.73.11-3.48,0-5.22,0H104Z"/><path d="M97.54,102.39c4.57,0,9.15,0,13.72,0a8.37,8.37,0,0,1,2,.55c-.34.7-.5,1.63-1,2a5.51,5.51,0,0,1-2.89,1.18c-8.32.12-16.65.13-25,.16a2.75,2.75,0,0,1-2.75-2.74,1.61,1.61,0,0,1,.86-1.15,5.39,5.39,0,0,1,1.89-.16H97.54Z"/><path d="M87.54,101.24c-1.56,0-3.13-.1-4.68,0-1.34.1-1.93-.8-2.68-1.57a2.71,2.71,0,0,1-2.65,1.56c-2.75,0-5.5,0-8.25,0-1.84,0-1.87-.13-1.29-1.83,1.1-3.26,1.23-3.21,4.75-3.09,4.39.15,8.78,0,13.17,0,1.64,0,3.29.09,4.93.21A3.09,3.09,0,0,1,94,100.08c0,.44-.9,1-1.47,1.11a11.26,11.26,0,0,1-2.47.06H87.54Z"/><path d="M152.37,84.33c-4.86,0-9.72,0-14.59,0-.74,0-1.76.46-2-.77a2.53,2.53,0,0,1,1.84-2.68,8.93,8.93,0,0,1,1.64-.07q13.48.06,27,.13a10.32,10.32,0,0,1,2.72.3c.5.14,1.27.77,1.23,1.1a2.35,2.35,0,0,1-1,1.67,6.08,6.08,0,0,1-2.43.23c-4.77,0-9.54,0-14.31,0Z"/><path d="M156.76,69.74h13.5c.64,0,1.28,0,1.92,0,.82,0,2,0,1.73,1.14a2.66,2.66,0,0,1-1.72,1.72,48,48,0,0,1-6.57.44c-8.26.12-16.52.17-24.78.28-.8,0-1.71,0-1.57-.93a4.49,4.49,0,0,1,1.31-2.47c.43-.38,1.41-.19,2.14-.19C147.4,69.73,152.08,69.74,156.76,69.74Z"/><path d="M66.49,74.26c-3.66,0-7.33,0-11,0-1,0-2.15.33-2.25-1.25a2.89,2.89,0,0,1,2-3.15,7.78,7.78,0,0,1,1.37,0c5.22,0,10.44,0,15.66,0a10.83,10.83,0,0,1,6.91,2.24,6,6,0,0,1,.91,1.27c-.52.27-1,.78-1.55.79-4,.07-8.06,0-12.09,0Z"/><path d="M154.26,78.71c-4.86,0-9.72,0-14.58,0-.84,0-2,.36-2.22-1a2.18,2.18,0,0,1,2.17-2.32c1.18-.1,2.38-.06,3.57,0l25.56.4a8.66,8.66,0,0,1,1.91,0,6.09,6.09,0,0,1,1.48.88c-.38.58-.64,1.36-1.17,1.67a4.69,4.69,0,0,1-2.14.26c-4.86,0-9.72,0-14.58,0Z"/><path d="M91.64,107.58c5.1,0,10.21,0,15.31,0a3.42,3.42,0,0,1,1.14.46,3,3,0,0,1-.53.87c-4.86,4.22-16.73,4.51-21.81.55-.15-.11-.34-.19-.42-.34-.22-.37-.62-.84-.52-1.13a1.36,1.36,0,0,1,1.07-.61c1.92-.06,3.84,0,5.76,0Z"/><path d="M105.24,73.75c-3.12,0-6.24,0-9.36,0a4.13,4.13,0,0,1-1.2-.43c.23-.35.38-.83.7-1,5.94-3.23,12.07-4.18,18.49-1.49a2.11,2.11,0,0,1,.73.38c.59.6,1.14,1.25,1.7,1.88a10.29,10.29,0,0,1-2.26.58c-2.93.07-5.87,0-8.8,0Z"/><path d="M180.78,79.24a5.27,5.27,0,0,1-5.29-4.87,5.34,5.34,0,0,1,5.18-5.31,5.27,5.27,0,0,1,5.07,5.07A5.11,5.11,0,0,1,180.78,79.24Zm2.7-6.63-.08-.14.11.11c0,.17-.08.35-.13.52-.24.88-1.31,1.68-.27,2.67.09.09.46,0,.47,0,.1-.93.19-1.86.23-2.8C183.82,72.88,183.6,72.74,183.48,72.61Zm-5,2.18c0-.77,0-1,0-1.13-.1-.49-.21-1-.32-1.48-.25.53-.5,1.06-.73,1.59a.36.36,0,0,0,0,.27c.25.73.5,1.45.76,2.18Zm2.28.85a5.65,5.65,0,0,0-.91,1.41c0,.19.45.75.7.75s.94-.43.92-.61A5.54,5.54,0,0,0,180.73,75.64Zm.36-4.89c0-.06-.05-.18-.08-.18h-.54c0,.1.08.27.12.27A3.1,3.1,0,0,0,181.09,70.75Zm-.3,2.09-.24,0,.12.36c.07,0,.17-.09.19-.15S180.82,72.92,180.79,72.84Z"/><path d="M93.5,80.33c1.74,0,3.48-.08,5.22,0,1.53.09,1.81.74.89,1.88C98.3,83.85,96.87,85,94.5,84.8c-2.73-.24-5.5,0-8.24-.07-2,0-2.19-.55-1.21-2.33a3.63,3.63,0,0,1,3.78-2.14c1.54.12,3.11,0,4.67,0Z"/><path d="M57.27,80.23c1.47,0,2.95-.08,4.41,0a1.89,1.89,0,0,1,1.43.9C63.56,82.6,62,85,60.49,85.08c-3,.16-6.06.1-9.08.07a1.54,1.54,0,0,1-1.09-.67c-.76-1.4.91-4.17,2.55-4.24C54.33,80.18,55.81,80.23,57.27,80.23Z"/><path d="M108.32,101.17c-1.75,0-3.49,0-5.23,0a3.63,3.63,0,0,1-1.19-.52,7.17,7.17,0,0,1,.55-1.11,6.44,6.44,0,0,1,6.37-2.82c2.09.24,4.22,0,6.33.09,1.64.07,1.85.57,1.22,2.13a3.23,3.23,0,0,1-3.37,2.28c-1.56,0-3.12,0-4.68,0Z"/><path d="M52.65,96.6c1.64,0,3.28,0,4.92,0,1,0,1.38.58,1.18,1.65-.44,2.37-1,3-3.38,3-2.56,0-5.11,0-7.67.06-1.08,0-2-.1-2-1.59.08-1.68.86-3.06,2-3.11,1.64-.06,3.28,0,4.93,0Z"/><path d="M89.78,85.8c1.56,0,3.11-.07,4.66,0s2,.62,1.15,2.06c-.44.77-1.31,1.72-2.07,1.8-3,.33-6,.39-9,.47-1,0-2.16.17-2.37-1.24a2.91,2.91,0,0,1,2.43-3.08c1.73-.09,3.47,0,5.2,0Z"/><path d="M114.21,80.41c1.46,0,2.93,0,4.39,0s2.11.85,2.06,2.32-.88,1.89-2.15,1.89c-2.65,0-5.31.06-8,0a2.44,2.44,0,0,1-2.19-3.28,2,2,0,0,1,1.46-.9c1.45-.12,2.92,0,4.39,0Z"/><path d="M76,84.81c-1.46,0-2.91,0-4.37,0-1.27,0-1.5-.47-1-1.72,1.19-2.83,1.11-2.87,4.29-2.87,1.91,0,3.83,0,5.74.08,1,0,2.14-.15,2.26,1.32s-1.08,3.2-2.29,3.27c-1.55.09-3.1,0-4.65,0Z"/><path d="M145.25,111.69c-1.28,0-2.56,0-3.84,0-.85,0-2,.24-2.14-1.09a2.49,2.49,0,0,1,2.1-2.71c.82-.08,1.65,0,2.47,0,2.1,0,4.21,0,6.31.1.93,0,2.26-.23,2.17,1.34-.07,1.26-.59,2.36-2.13,2.38s-3.29,0-4.94,0Z"/><path d="M150.68,91.38a33.27,33.27,0,0,1,4.12.05c.68.08,1.78.59,1.85,1,.18,1.06-.17,2.45-1.5,2.52-3.37.19-6.76.18-10.14.09-.41,0-1.12-1-1.13-1.46,0-1.14.47-2.22,1.86-2.28,1.65-.07,3.3,0,4.94,0Z"/><path d="M125,95.26c-1.28,0-2.56,0-3.84,0-.88,0-1.94.17-2.08-1.18s.82-2.75,2-2.77c2.93-.07,5.85,0,8.78,0,1,0,1.92.17,1.85,1.45s-.43,2.28-1.79,2.38c-1.64.12-3.29,0-4.94,0Z"/><path d="M123.52,100.79c-1.28,0-2.57,0-3.84,0-.94,0-2.18.28-2.26-1.28a2.6,2.6,0,0,1,2.21-2.69,12.13,12.13,0,0,1,1.91,0q3.3,0,6.58.09c1,0,1.87.12,2,1.39a2.11,2.11,0,0,1-1.91,2.5c-1.55.12-3.11,0-4.66,0Z"/><path d="M121.83,106.24c-1.38,0-2.75,0-4.13,0-.82,0-1.94,0-1.81-1.12a5.16,5.16,0,0,1,1.36-2.46c.26-.31,1-.24,1.58-.24,2.57,0,5.14,0,7.7,0,.87,0,2.07-.21,2,1.21-.06,1.22-.46,2.43-2,2.49s-3.12,0-4.68,0Z"/><path d="M120.16,111.69c-1.19,0-2.39,0-3.58,0-.86,0-2,.26-2.15-1.09a2.6,2.6,0,0,1,2-2.8,4.58,4.58,0,0,1,.83,0c2.57,0,5.14,0,7.7.08.85,0,2.09-.26,2,1.16,0,1.19-.38,2.5-1.92,2.61s-3.3,0-5,0Z"/><path d="M126,84.66a13,13,0,0,1-1.65,0c-.92-.1-2.19.31-2.3-1.25a2.71,2.71,0,0,1,2.29-3,4.59,4.59,0,0,1,.83,0c2.56.11,5.12.22,7.68.36.88,0,2-.12,2,1.27-.07,1.14-.5,2.16-1.94,2.23-2.29.12-4.58.27-6.86.41Z"/><path d="M130.44,75.35c1.37,0,2.74,0,4.11,0,.82,0,1.89.06,1.77,1.17a3.78,3.78,0,0,1-1.23,2.22,3.57,3.57,0,0,1-2.11.35c-2.46,0-4.93-.18-7.39-.27-.87,0-2,.34-2-1.12.05-1.15.53-2.22,1.9-2.29,1.64-.08,3.29,0,4.94,0Z"/><path d="M148.33,100.7c-1.37,0-2.74,0-4.11,0-.92,0-1.95,0-2-1.29A2.22,2.22,0,0,1,144,97a4.78,4.78,0,0,1,1.36-.1q4.09.18,8.19.39c.82,0,1.8,0,1.67,1.24-.1,1-.31,2.11-1.64,2.16-1.73.07-3.46,0-5.2,0Z"/><path d="M132,69.74c1.38,0,2.75,0,4.13,0,.88,0,2.08-.16,2,1.23-.09,1.09-.51,2.22-1.91,2.33-.63,0-1.28-.08-1.92,0-2.29.11-4.57.29-6.85.38-1,0-2.15.2-2.3-1.28a2.29,2.29,0,0,1,2.2-2.59c1.56-.09,3.12,0,4.68,0Z"/><path d="M126.59,89.75c-1.38,0-2.75,0-4.13,0-1,0-1.9-.14-1.83-1.45a1.86,1.86,0,0,1,1.83-2c.73,0,1.46,0,2.19,0l6.59-.12c.91,0,2-.2,2,1.18,0,1.15-.34,2.29-1.73,2.39-1.64.11-3.3,0-4.94,0Z"/><path d="M147.41,102.77c1.56,0,3.12-.07,4.66,0,.53,0,1.48.6,1.45.83a3.71,3.71,0,0,1-.9,2.08,2.89,2.89,0,0,1-1.81.39c-2.56,0-5.12.08-7.68,0-.95,0-2.18.24-2.35-1.23-.15-1.31.8-2.1,2.52-2.15,1.37,0,2.74,0,4.11,0Z"/><path d="M152,86.35a42.64,42.64,0,0,1,4.38.05c.57.06,1.49.63,1.54,1a2.44,2.44,0,0,1-.92,1.77,3.07,3.07,0,0,1-1.81.44c-2.64,0-5.29,0-7.93,0-.89,0-2,.11-2-1.26a1.89,1.89,0,0,1,2.06-2.06H152Z"/></g></svg>