<svg id="Layer_1" data-name="Layer 1" xmlns="http://www.w3.org/2000/svg" viewBox="0 0 200 200"><g id="hXVioI.tif"><path d="M29.71,70.09c1,.21,2,.36,2.92.63a12.14,12.14,0,0,1,6.23,3.94,8.38,8.38,0,0,1-1.38,12.41,14.09,14.09,0,0,1-4.93,2.49l-1,.31c.88.19,1.55.31,2.21.47a12.56,12.56,0,0,1,5.29,2.75c4.73,4.17,4.67,10.86-.13,15.09a13.65,13.65,0,0,1-9.39,3.3H9.93l-.93,0V110c.69,0,1.39,0,2.08,0,2.39,0,2.85-.5,2.85-2.87q0-16.3,0-32.61a12.81,12.81,0,0,0-.1-1.38,1.37,1.37,0,0,0-1.28-1.33c-1.18-.1-2.36-.1-3.54-.14V70.09ZM17.91,90.47a3,3,0,0,0-.06.37c0,5.8,0,11.59,0,17.38,0,1.44.33,1.76,1.81,1.78,3,0,6,.1,9,0a9.49,9.49,0,0,0,9.35-11.12c-.56-4.06-3.58-8.57-9.49-8.42-3.27.09-6.54,0-9.81,0Zm-.08-.9c3.78-.11,7.47,0,11.11-.39a8.52,8.52,0,0,0,6.56-4.55c3.17-5.51-.41-13.15-7.43-13-2.81,0-5.62,0-8.42,0-1.43,0-1.76.37-1.81,1.8,0,.31,0,.62,0,.93V89.57Z"/><path d="M124.61,129.91v-1.57c.89,0,1.73,0,2.57,0,1.89-.09,2.38-.6,2.38-2.46q0-16.58,0-33.14c0-1.87-.41-2.32-2.27-2.47-.87-.07-1.74,0-2.65,0V88.57h30.67c.49,4.43,1,8.84,1.45,13.31h-1c-.28-1.66-.51-3.33-.86-5-.53-2.53-1.68-4.65-4.21-5.72a13.53,13.53,0,0,0-5.06-1c-3.37,0-6.74,0-10.12,0-1.64,0-2,.32-2,1.94,0,4.94,0,9.89,0,14.83a6.06,6.06,0,0,0,.08.72c2.86-.13,5.72-.13,8.55-.43,1.89-.2,2.89-1.5,3.15-3.49.13-1,.16-2.1.25-3.21h.89v15.65h-.89c-.08-1.06-.12-2.13-.24-3.2-.27-2.26-1.35-3.53-3.62-3.75-2.67-.25-5.38-.22-8.12-.31,0,.38-.05.6-.05.83v16.53c0,1.78.27,2,2.08,2.05,3.4,0,6.8,0,10.2,0a19.69,19.69,0,0,0,4.11-.59,7.28,7.28,0,0,0,5.55-5.08c.7-2.22,1.07-4.54,1.58-6.82.09-.4.14-.81.21-1.28h1.09c-.74,5.14-1.48,10.24-2.22,15.35Z"/><path d="M191.53,70.09l.14,1.45c-.86.11-1.63.17-2.38.32A8.29,8.29,0,0,0,184,75.5c-2.78,4.06-5.59,8.09-8.39,12.13l-.62.91L180.06,96c2.62,3.82,5.29,7.61,7.82,11.49a4.87,4.87,0,0,0,4.59,2.52,11.23,11.23,0,0,1,1.53.1v1.39H181.06v-1.35a13.78,13.78,0,0,0,1.81-.65,1.17,1.17,0,0,0,.46-1.93L172.82,92.14c0-.06-.11-.1-.2-.2l-.41.54-9.16,13.37c-1.33,2-.86,3.36,1.36,4.15a.71.71,0,0,1,.34.47,6.19,6.19,0,0,1,0,1H153.67V110.1c.82-.11,1.62-.16,2.39-.34a8.35,8.35,0,0,0,5.19-3.49c3.45-5,6.87-10,10.31-15a.71.71,0,0,0,0-1q-5.66-8.28-11.3-16.58a4.4,4.4,0,0,0-3.83-2.06c-.63,0-1.27,0-2,0V70.09h.62a3.9,3.9,0,0,0,.75.12q5,0,10,0a5.72,5.72,0,0,0,.83-.12h.62l.15,1.49-.67.08c-2,.31-2.42,1.34-1.32,3l8.31,12.17.44.58.52-.72q3.44-5,6.88-10c.33-.49.69-1,1-1.48a2.28,2.28,0,0,0-1.43-3.47c-.19-.06-.39-.1-.66-.17l.09-1.46h.62a3.19,3.19,0,0,0,.6.12c2.87,0,5.75,0,8.62,0a3,3,0,0,0,.67-.12Z"/><path d="M62.33,81.81V80.42h.81c5.33,0,10.66,0,16,0A12.63,12.63,0,0,1,87,82.68a9.47,9.47,0,0,1,2.13,2.2,5.44,5.44,0,0,1-.49,7A10.89,10.89,0,0,1,83.46,95l-.88.26a13.1,13.1,0,0,1,5.89,2.33c4.39,3.31,4.07,8.86-.69,12a12.14,12.14,0,0,1-6.65,2c-6.13,0-12.26,0-18.38,0a3.5,3.5,0,0,1-.41,0V110c.54,0,1.07,0,1.59,0,2.21-.08,2.66-.52,2.67-2.74,0-5.92,0-11.84,0-17.77,0-1.75,0-3.5,0-5.25s-.46-2.09-2.16-2.25C63.75,81.9,63.09,81.87,62.33,81.81Zm8.22,14.07v12.45s0,.1,0,.15c.15,1.18.44,1.49,1.62,1.51,2.5,0,5,.07,7.5,0a6.9,6.9,0,0,0,6.75-7.1,6.83,6.83,0,0,0-7-7c-2.71,0-5.41,0-8.11,0C71.06,95.84,70.83,95.86,70.55,95.88Zm0-1.32c.18,0,.31,0,.43,0,2.21,0,4.43.11,6.64,0a12.48,12.48,0,0,0,4-.88,6.22,6.22,0,0,0,3.67-6.38c-.5-3.12-2.44-5.11-5.57-5.34-2.54-.18-5.1-.09-7.64,0-1.18,0-1.53.41-1.54,1.66C70.51,87.22,70.54,90.85,70.54,94.56Z"/><path d="M119.51,110v1.48H101.77V110c1.06,0,2.09,0,3.11,0a14.15,14.15,0,0,0,2.44-.3,1.56,1.56,0,0,0,1.38-1.7c0-.48,0-1,0-1.46V74.82c0-3,0-3-3-3-2,0-3.92,0-5.86.26-3.78.41-5.38,2-6,5.68-.3,1.67-.45,3.37-.64,5.06-.09.89-.06.89-1.15.71q.51-6.58,1-13.25h35c.33,4.4.66,8.82,1,13.3h-1c-.25-1.89-.49-3.72-.73-5.55a2.32,2.32,0,0,0-.06-.38c-.83-3.92-2.53-5.4-6.74-5.68-2.15-.14-4.32-.13-6.48-.15-1,0-1.36.41-1.42,1.36,0,.48,0,1,0,1.46v32.23c0,2.42.45,2.92,2.9,3.06C116.84,110,118.12,110,119.51,110Z"/><path d="M45.23,81.83V80.52H58.75v1.31c-.9.06-1.77.09-2.64.17-1.45.11-2,.65-2,2.11q0,11.85,0,23.71c0,1.4.43,1.87,1.84,2.08a10.7,10.7,0,0,0,1.39.09c.45,0,.91,0,1.4,0v1.42H45.27V110c.72,0,1.43,0,2.14,0,1.75-.09,2.26-.58,2.26-2.32q0-11.7,0-23.4c0-1.7-.48-2.15-2.21-2.27Z"/></g></svg>