<svg id="Layer_1" data-name="Layer 1" xmlns="http://www.w3.org/2000/svg" viewBox="0 0 200 200"><g id="xJKDiP"><path d="M62.32.37l.29.43.23-.2c.33.06.66.12,1,.2a13.56,13.56,0,0,1,2,.38,1.33,1.33,0,0,0,.4,0,9.4,9.4,0,0,1,2.93.42,2.61,2.61,0,0,0,.74,0c4.06,0,8.12,0,12.18,0a7.79,7.79,0,0,1,2.46.54c.44.14.84.38,1.27.54s.88.29,1.32.44c.09,0,.17.1.26.14,1.36.6,2.72,1.17,4.07,1.79.66.3,1.25.75,1.9,1.08,1,.47,2,.74,2.9,1.25.36.2.69.46,1,.61s.67.28,1,.4a3.88,3.88,0,0,1,2.09,2.1c.32.62.75,1.18,1,1.81.22.48.8.66.93,1.22.05.16.37.27.57.38a4.34,4.34,0,0,1,1.82,2c.3.6.83,1.07,1.18,1.65s.94.75.86,1.44a7.09,7.09,0,0,1,1.34,2.22c.35.89.8,1.74,1.22,2.6.3.59.3,1.27.62,1.88a6.26,6.26,0,0,1,.44,1.74c.06.36.52.44.46.89a1.26,1.26,0,0,0,.22,1c.44.46.37,1.06.58,1.58a12.39,12.39,0,0,1,.6,1.57,6.28,6.28,0,0,1,.09.75,6,6,0,0,1,.4,1.08,9,9,0,0,1-.17,3.11c.31.62.65,1.22.91,1.85a14.84,14.84,0,0,1,.81,1.81c.16.63.38,1.27.56,1.9a6.32,6.32,0,0,1,0,1.75,4.89,4.89,0,0,1,1.29,2.51,6.68,6.68,0,0,1,.22,1.41c0,.83.14,1.65.19,2.48a3.9,3.9,0,0,1-.21.91l.41.2v1.11l-.68.4a3.63,3.63,0,0,0,.43.94,3.45,3.45,0,0,1,.68,2.07c.07,1.14,0,2.28,0,3.42,0,.62,0,.72-.61,1.41v.75c-.38.82-1.13,1.27-1.17,2.12a5.06,5.06,0,0,0-1,2.06l-1,1-.42,2.34.16.18a3.4,3.4,0,0,1-.36.68,10.84,10.84,0,0,1-.82.84c-.53.58-1.24,1-1.44,1.87-.45.35-.7,1-1.41,1-.08,0-.16.1-.24.16a12,12,0,0,1-2.46,1.3h-1.4v.9l.5,1a7.56,7.56,0,0,1,1.74.3,2.38,2.38,0,0,0,.9.14,15.61,15.61,0,0,0,1.81,0,30.92,30.92,0,0,1,4.08.24c.34,0,.65.31,1,.4.82.2,1.65.35,2.59.54,1,.71,2.23,1.21,3.31,2a4,4,0,0,1,1.19,1.22c.37.67.84,1.29,1.27,1.93a4.91,4.91,0,0,1,.83,2.9l.27.55.46.16-.75.29a7.78,7.78,0,0,1,1.14.9c.31.28.41.78.89.85a6.29,6.29,0,0,0,.57.95c.6.72,1.25,1.41,1.87,2.12a9.53,9.53,0,0,1,.61.81c.21.26.43.51.64.76l.27-.27-.2-.22c.07-.08.21-.2.19-.23-.21-.34,0-.67,0-1s0-.71,0-1.06.13-.88-.17-1.33.18-.91-.25-1.28c.13-.67-.26-1.28-.23-1.9-1.06-.76-1.41-2-2.12-3a16,16,0,0,1,0-2.19c.13-.94.16-1.87.23-2.8a1.71,1.71,0,0,1,.46-1.09A6,6,0,0,0,129,77.2l-1-2.7V73.27h1.38a3.22,3.22,0,0,0-1-2.88A4.4,4.4,0,0,1,128,70a2.18,2.18,0,0,0-2.43-.78,17,17,0,0,1-1.84.2l-.34-.61-.14.1V68a1.46,1.46,0,0,1,1.06-.5c.82,0,1.65,0,2.46,0a3,3,0,0,1,1.61.5,7.87,7.87,0,0,0,1.66.65,3.86,3.86,0,0,1,1.49,3.82c1-.48,1.87-.19,2.78-.32v-.68L133.09,70v-.87l.36-.39a8.14,8.14,0,0,1,1.38-.56c.44-.09.91,0,1.37-.07a1.89,1.89,0,0,0,.71-.33c-.74.17-1.24-.43-1.93-.52s-1.3-.15-2.06-.17l-1.82-1.63.19-.33c0-.09.06-.19.12-.35.5-.09,1-.35,1.54-.5a8.7,8.7,0,0,1,1.76-.19l1.36-.89-.28-1H137l.77,1a2.75,2.75,0,0,1-.28,1.68,12,12,0,0,1-3.31.76l0,.32c1.69.1,3.33.63,5,.46l.78.46v1c-.13.06-.37.1-.47.25-.26.41-.72.07-1.05.33a1.94,1.94,0,0,1-1,.33,14.69,14.69,0,0,0-2.18.41c-.14,0-.25.21-.33.28l.7,2.71a1.93,1.93,0,0,1,1.94.85h2.36l.5.5v1.33l-.47.54a1.9,1.9,0,0,1,.93,2l.64.64a10.07,10.07,0,0,1,0,1.55,11.92,11.92,0,0,1-.41,1.64,1.86,1.86,0,0,1-.3.72,7.35,7.35,0,0,0-.78,1.39,10,10,0,0,1-1.7,2.62c0,.53,0,1.07,0,1.6s.18.92.29,1.46a1.39,1.39,0,0,1,.34,1.16,2.44,2.44,0,0,0,.37,1.45,1.93,1.93,0,0,1,.27,1.27,4,4,0,0,0,.26,1.72,5,5,0,0,1,.17,1.21c0,1.06,0,2.13,0,3.2a11.06,11.06,0,0,0,.42,3.67,1.62,1.62,0,0,1,0,.54c0,1.81,0,3.63,0,5.45a9.44,9.44,0,0,1-.2,1.4c-.08.44.2.93-.22,1.3.22,1-.43,1.77-.46,2.71a16.78,16.78,0,0,0-.39,2.39,3,3,0,0,0-.51,1.18c-.07.25-.12.52-.19.87h9.88a2.53,2.53,0,0,1,1.1.19,2.93,2.93,0,0,0,1.39.26,2.86,2.86,0,0,1,1,.2,6.91,6.91,0,0,1,2.27.71c.39.29.82,0,1.19.23.71.25,1.42.52,2.14.76a17.44,17.44,0,0,1,3.21,1.27c.12.06.27.07.36.16,1.27,1.17,2.57,2.31,3.76,3.56a37.84,37.84,0,0,1,2.35,3,4.1,4.1,0,0,1,.49.76,5.47,5.47,0,0,0,.65,1.33c.3.36.18.79.31,1.16s.22.76.37,1.12a21.78,21.78,0,0,0,2.31,4.6,14.52,14.52,0,0,0,1.1,1.36,3.69,3.69,0,0,1,.83,1.59c.1.41.35.77.48,1.19.23.75.71,1.41,1,2.15.47,1.19.85,2.42,1.29,3.63a11,11,0,0,1,.65,3.9c0,.44-.15.92.12,1.33s-.14.87.3,1.16a4.74,4.74,0,0,0,.2,1.63,10.23,10.23,0,0,0,.29,1.38,1.9,1.9,0,0,1,.15.68c.07,3.78.15,7.57.21,11.35q0,1.71,0,3.42c0,.58-.09,1.15-.15,1.86.4.88,1.37,1.3,2.23,1.86a9.47,9.47,0,0,0,2.36,1,11,11,0,0,1,1.32.62c.82-.09,1.68.32,2.61.24s1.77,0,2.64,0l.4.4a3.29,3.29,0,0,1,2.32,1l-.29,1.67,1,.43.2,1.63-.92.82c-.56,0-1.27,0-2,0-.3,0-.6.1-.9-.17-.13-.13-.47,0-.72,0s-.37.37-.57,0a6.84,6.84,0,0,1-3.35.42c-1.17,0-2.35,0-3.53,0-.82,0-1.65-.15-2.47-.2a2.85,2.85,0,0,0-1.31.19c-.39.18-.84,0-1.31.19a5.13,5.13,0,0,1-1.8,0,5,5,0,0,1-1.68-1.34,22.64,22.64,0,0,1-3.85,3l-.81.4a5.68,5.68,0,0,0,.67.31c.74.19,1.49.36,2.24.53s1.7.38,2.55.54a1.91,1.91,0,0,1,.57.19c.34.18.77.19,1.14.34s.63.38,1,.51.84.11,1.14.33.72,0,1.07.31.89-.14,1.27.25c.5-.13.64.33.92.51v1.95l-.31.32h-1.57l-.82.43c-.1.05-.24.11-.28.2-.14.34-.46.38-.72.42-.86.13-1.72.19-2.66.29a1.45,1.45,0,0,1-1.61.22,1.88,1.88,0,0,0-.83-.07c-2.88,0-5.77,0-8.65,0a4.67,4.67,0,0,1-1.91-.28c-.7-.33-1.26.07-1.89.08a4.56,4.56,0,0,1-3.21.62l-1.27-.74c-.59.34-1.19.7-1.8,1a29.2,29.2,0,0,1-4.77,2.16,14.12,14.12,0,0,1-2.78.79,17.29,17.29,0,0,1-3.14.4,3.75,3.75,0,0,1-2,.21c-2.89,0-5.78,0-8.66,0-.68,0-1.35,0-2,0a12.73,12.73,0,0,1-1.94-.26,19.31,19.31,0,0,0-3-.38c-.58-.47-1.38,0-2-.43a6.19,6.19,0,0,0-2.82.42c-.51.22-1.07.36-1.68.56l0,.25c-.71.22-1.47.44-2.22.7a7.33,7.33,0,0,1-2.71.43,8.38,8.38,0,0,0-2.24,0,20.08,20.08,0,0,1-3.87.18c-1.32,0-2.64,0-4,0a6.1,6.1,0,0,1-2.61-.42,1.17,1.17,0,0,0-.42,0H87.44c-2.31.44-4.64.11-7,.21a12.48,12.48,0,0,1-3.78-.68c-.34-.1-.58-.42-1-.22-.23.09-.65-.24-1-.39a1.81,1.81,0,0,1-.27-.18,6.75,6.75,0,0,1-1.94-.42,3.17,3.17,0,0,0-1.39-.27,5.31,5.31,0,0,1-1.3-.19c-.37-.07-.72-.16-1.09-.21s-.7.07-1-.21c0,0-.14,0-.21,0a16,16,0,0,1-2.69-.25,13.21,13.21,0,0,0-2.16-.18c-.4,0-.79-.16-1.19-.2s-.87.12-1.15-.05-.87,0-1.21-.19a2.81,2.81,0,0,0-1.53-.19c-2,0-4,0-6,0a10.62,10.62,0,0,0-1.19.15c-.46-.21-1.14-.48-1.78-.81-.45-.22-.85-.54-1.29-.76a1.77,1.77,0,0,0-1-.32,1.12,1.12,0,0,1-.71-.3c-.8-.69-1.57-1.39-2.33-2.12a3.65,3.65,0,0,1-.67-.89,14.24,14.24,0,0,0-1.91-2.53,5,5,0,0,1-.88-1.13,4.18,4.18,0,0,0-1.1-1.22,20.88,20.88,0,0,1-2.28-3c-.32-.42-.63-.9-1-1.29a12.82,12.82,0,0,1-1.81-3,11.17,11.17,0,0,1-.69-1.75,2.36,2.36,0,0,0-.21-.44c0-1.54,0-3.18,0-4.81a10.59,10.59,0,0,1,.25-1.2,6.64,6.64,0,0,0-.47-2.38,2.66,2.66,0,0,1-.18-.88A5.09,5.09,0,0,0,32,165a3.37,3.37,0,0,1-.22-.87c0-.32,0-.64,0-.93l-.86-1.34a4.66,4.66,0,0,0-.51-2.4.84.84,0,0,1-.13-.27c-.08-.86-.18-1.72-.21-2.58,0-1.43,0-2.85,0-4.28s-.17-2.72-.2-4.08,0-2.78,0-4.16c0-.95.29-1.85.25-2.8a5.2,5.2,0,0,1,.47-1.5c.07-.22.21-.53.12-.68a2.51,2.51,0,0,1-.19-1.42c0-1,0-2,0-3a4.93,4.93,0,0,0-.08-1.89c-.26-.6.16-1.28-.34-1.78a21.8,21.8,0,0,1-.22-2.91,38.77,38.77,0,0,1-.2-6.64c-.05-2.21,0-4.42,0-6.62,0-1,.15-1.94.25-3l.38-.23c0-.81,0-1.52,0-2.23s.65-1.09.66-1.71c.44-.53.84-1.06,1.28-1.54a12.61,12.61,0,0,0,1.07-1.48,7,7,0,0,1,.89-.92A4.25,4.25,0,0,0,35.25,102a4.61,4.61,0,0,1,.76-1.29,16.46,16.46,0,0,0,1.08-1.8c-.09-.93.32-1.94.24-3a17,17,0,0,0-.22-1.73,13.53,13.53,0,0,0-.18-1.63c-.18-.59,0-1.29-.47-1.84a6.44,6.44,0,0,1-.43-.83v-4a5.23,5.23,0,0,0-.7-2.27,3.71,3.71,0,0,1-.16-.47c-.32-.76-.65-1.51-1-2.38-.07-.36-.19-.86-.24-1.36s0-1,0-1.44a4.82,4.82,0,0,1-.83-2.8,4.65,4.65,0,0,0-.25-1.2,17,17,0,0,0-.8-3.29,8.18,8.18,0,0,1-.17-1,4.1,4.1,0,0,1-.27-1c0-.32-.24-.58-.1-.93a.72.72,0,0,0-.15-.61c-.46-.44-.45-1-.62-1.57a8,8,0,0,1-.46-1.53c0-.3-.3-.58-.46-.87A4.61,4.61,0,0,1,29,60.81a27.68,27.68,0,0,1-1.92-2.72,1.52,1.52,0,0,0-.22-.34,7.53,7.53,0,0,1-1.7-3c-.14-.37-.44-.76-.39-1.1.06-.52-.65-.62-.47-1.11-.63-.57-.7-1.42-1.08-2.12a17.46,17.46,0,0,1-.91-2.08c-.27-.71-.55-1.41-.83-2.11s-.1-1.36-.58-1.9c.13-.71-.58-1.23-.46-1.95-.34-.27-.19-.65-.19-1,0-2.82,0-5.63,0-8.44,0-.18.15-.46-.21-.5V32c.06,0,.17-.05.17-.08a5.52,5.52,0,0,1,.94-2.49A11.79,11.79,0,0,1,23.51,26a7.82,7.82,0,0,1,.38-1.2c.14-.26.41-.41.41-.8s.26-.6.4-.89a6.13,6.13,0,0,0,.42-.9,5.55,5.55,0,0,1,.73-1.51,8.23,8.23,0,0,0,.39-.79,5,5,0,0,1,1.33-2,1.63,1.63,0,0,0,.14-.18v-.6l.75-.75A10.47,10.47,0,0,1,29,14.57a14,14,0,0,0,.6-1.46c.08-.22.09-.59.22-.64.65-.22.49-1.2,1.25-1.28.25-.39.41-1,.77-1.14.52-.25.56-.7.81-1.07a2.58,2.58,0,0,1,.59-.6c1.14-.87,2.27-1.72,3.42-2.57a4.45,4.45,0,0,1,1.19-.72,20.73,20.73,0,0,0,2-.78,4,4,0,0,1,1.49-.49,11.44,11.44,0,0,0,2.26-.53c1.27-.25,2.47-.89,3.82-.78a6.13,6.13,0,0,1,2.71-.43c1-.59,2.22-.17,3.17-.86A19.86,19.86,0,0,1,56.8.78c1.66.07,3.33,0,5,0l.29-.43Zm69.74,78.22a4.43,4.43,0,0,1-.69-1,10.62,10.62,0,0,1-.33-1.77c0-.16.11-.34.09-.51a6.48,6.48,0,0,0-.17-1.84,11.49,11.49,0,0,1-.32-2.35l-.64,0a5.84,5.84,0,0,1,.28,2.53c0,1.06,0,2.12,0,3.18a4,4,0,0,0,.44,1.2,1.49,1.49,0,0,0,1.27.52,5.76,5.76,0,0,0,2.14.24V78c1.27-.86,2.24-1.39,2.31-2.44h-.91a.77.77,0,0,1-.27-1c0-.14.11-.27.19-.47-.68,0-1.25,0-1.81,0a13.53,13.53,0,0,0-1.68,0c.13,1.25-.3,2.53.67,3.54v.43c0,.16,0,.33,0,.48Zm7.63,2.78c-.47.15-1,.11-1.32.61l.32.59-.86.42-.58-.73a10.3,10.3,0,0,1-1.36-.09l-.13-.4h-1.41v-1l-.52-1h-1.4v.5c.34.58.57,1,.85,1.44a13.68,13.68,0,0,0,1,1.73,3.37,3.37,0,0,1,.48,1.07c0,.09,0,.2,0,.32H134a11.6,11.6,0,0,0-1.38-2.16l-.87,1.93h-.88l.51-1.46c.15-.44.31-.88.43-1.32s-.19-.93-.26-1.39c-.05-.29-.17-.57-.21-.74l-1.51-1.38-.81.81c-.6.9-.26,1.74-.44,2.5a10,10,0,0,0-.18,2.13,11.12,11.12,0,0,0,2.13,3.57c0,.38-.13.83,0,1,.39.41-.09,1,.4,1.34v5.51a2.48,2.48,0,0,1,.36.64,13.93,13.93,0,0,1,.17,1.43.33.33,0,0,0,.06.12l-.38.71a14.92,14.92,0,0,1-.17,1.65,13.11,13.11,0,0,0,0,2.66c0,.91-.29,1.77-.24,2.69a4.77,4.77,0,0,1-.19,2.48,4.63,4.63,0,0,1,0,2c0,.09.12.19.17.27l-.17.19.17.19-.29.55H130l-.35-.61-.82-.07c.09-.71.09-.71.83-.87a6.46,6.46,0,0,1,.24-2.23c-.12-1.91.21-3.79.19-5.69,0-1.09.25-2.14.24-3.22,0-.08.13-.16.2-.24s-.2-.15-.19-.23a3.19,3.19,0,0,0-.74-1.72,24,24,0,0,0-2.08-2.56,9.24,9.24,0,0,1-.82-.84,14.1,14.1,0,0,0-1.38-1.78,12.94,12.94,0,0,0-1-1,2.07,2.07,0,0,1-.66-1.55,6.55,6.55,0,0,0-.93-3c-.34-.61-.79-1.17-1.11-1.79a2.42,2.42,0,0,0-1-1c-.35-.2-.66-.47-1-.69s-.74-.26-1-.57-.82-.21-1-.46c-.22-.43-.63-.47-.94-.59-.65-.25-1.38-.25-2-.48a6.82,6.82,0,0,0-2.28-.42c-1.32,0-2.64,0-4,0a2.15,2.15,0,0,1-.72-.06,4.67,4.67,0,0,0-2.08-.36c-.22-.3-.68-.24-.8-.74s-.38-.68-.4-1.11a5.69,5.69,0,0,0-.19-.93c-.88,0-1.7,0-2.51,0a2.82,2.82,0,0,1-1.65-.41,1.36,1.36,0,0,0-.54-.23,5.16,5.16,0,0,1-1.8-.82A7,7,0,0,1,96,73.07a16.9,16.9,0,0,0-3.44-3,14.36,14.36,0,0,1-2.49-2.25,18.58,18.58,0,0,1-3.19-4.09,2.62,2.62,0,0,0-.63-2.35s0-.14,0-.21a7.52,7.52,0,0,1,0-3.77c0-.15.27-.27.46-.45l.37.71a6.66,6.66,0,0,0-.3.89,3.24,3.24,0,0,0,.38,2.74,1.62,1.62,0,0,1,.36,1.13c0,.32,0,.64,0,.92.35.5.71,1,1,1.45a6.28,6.28,0,0,0,1.07,1.48A38.72,38.72,0,0,0,93.79,70c1,.74,1.86,1.7,2.8,2.54a6.71,6.71,0,0,0,3.57,2c.09,0,.16.11.26.15a5.49,5.49,0,0,0,2.15.49,21.86,21.86,0,0,1,2.56,0,6.52,6.52,0,0,0,2.92-1c.38-.19.74-.42,1.11-.63a3,3,0,0,0,1.06-1.19,7.87,7.87,0,0,1,1.08-1.08c.36-.39.69-.82,1-1.25a11.14,11.14,0,0,1,.44-2.94c.25-.25.54-.52.81-.8a.79.79,0,0,0,.23-.33,3.15,3.15,0,0,1,1.07-1.82,2.26,2.26,0,0,1,.86-1.76,3.49,3.49,0,0,1,.87-2.16c-.12-1.63.29-3.36-.54-5l-.27,1a14.65,14.65,0,0,1-4.49.29,10.41,10.41,0,0,1-4.32-.4,3.64,3.64,0,0,0,1,2.72c.27.31.57.62.87.91l.92.91c.13.72-.32,1.15-.53,1.67s-.64,1-.53,1.47l-.82.89-.72-.25-.8-.35,0-.58,1.42.27c-.11-.81.53-1.32.87-1.95a1.32,1.32,0,0,0,.2-.94c-.52-.6-1-1.21-1.53-1.74a3.15,3.15,0,0,1-1-2.47c0-.32.25-.75.12-.94-.32-.45,0-.94-.23-1.41a4.19,4.19,0,0,1-.14-1.57c-.82-.49-1.33-1-4.88.26,0,.54,0,1.07,0,1.6a2,2,0,0,1-.8,1.72,22.58,22.58,0,0,1-8.16-.33l-.68-.42v-2.4a4.94,4.94,0,0,0-2-1.15,6.26,6.26,0,0,1-1.71-.73c-.32-.26-.7-.25-1-.48,0,0-.22.13-.28.1s-.2-.22-.32-.28a4.49,4.49,0,0,0-1.06-.51c-.23,0-.51.14-.76.19a2.14,2.14,0,0,1-.44,0,4.86,4.86,0,0,0-2.46-1.47l-1,1.21c0,.28,0,.57,0,.85a2.81,2.81,0,0,0,.14,1.16c.28.95.78,1.82,1.11,2.74a5.37,5.37,0,0,0,2.18,2.71l1-.22,0-.52h.79V58a3,3,0,0,0-.88.26,1.16,1.16,0,0,1-1.17.13,2.09,2.09,0,0,1-1-.59c-.3-.39-.71-.7-1-1.07a1.63,1.63,0,0,1-.5-.75,3.87,3.87,0,0,0-.57-1.37,6.86,6.86,0,0,1-1-3.88c0-.39,0-.78,0-1.15.63-.46.77-1.38,1.63-1.56a3.2,3.2,0,0,1,1.49.17,9,9,0,0,0,1.44.4c.88.2,1.63.73,2.48,1A7.2,7.2,0,0,1,88,50.3c.35.18.67.44,1,.59.82.35,1.66.65,2.56,1V50.45l.83-.5h7.38a1.75,1.75,0,0,1,1.47.59v1.53a14,14,0,0,1,2.44-.48,4.61,4.61,0,0,1,2.51.12l-.28-.72c.16-.74,1.07-.07,1.28-.79V48.93l.66-.34c-.09.67.11,1.22-.23,1.79h7.27a4.51,4.51,0,0,1,.64,0,2,2,0,0,1,.47.22,4,4,0,0,1-.46-1.22,17.71,17.71,0,0,0-.28-2.8,5.57,5.57,0,0,1-.51-.73A3.71,3.71,0,0,1,114,44a5.74,5.74,0,0,0-.19-1.74,9.15,9.15,0,0,0-2.16-4.23V34.42a2.19,2.19,0,0,0,0-.63c-.3-.8-.47-1.65-.76-2.46s-.48-1.67-.8-2.45-.64-1.66-.92-2.5a8.14,8.14,0,0,0-1.07-2.77s0-.05,0-.08a2.73,2.73,0,0,0-.56-1.37c-.26-.46-.42-1-.69-1.43a22.31,22.31,0,0,0-2.61-3.83,4.76,4.76,0,0,1-.55-1,5.64,5.64,0,0,0-1.19-1.09c-.19-.14-.42-.24-.59-.39s-.28-.38-.44-.56-.32-.2-.42-.35-.12-.48-.28-.62a1.14,1.14,0,0,1-.4-.46,20,20,0,0,0-1.24-2.27,1.21,1.21,0,0,0-.53-.52c-1.14-.43-2.14-1.16-3.31-1.54a12.34,12.34,0,0,1-2.16-1A4.45,4.45,0,0,0,92,6.54a6.71,6.71,0,0,1-1-.61c-1.37-.65-2.82-1.11-4.15-1.86-.08-.05-.2,0-.29-.07-.92-.45-1.93-.68-2.82-1.17a2.72,2.72,0,0,0-1.37-.33H69.44a2.93,2.93,0,0,1-.84,0,6.84,6.84,0,0,0-2.19-.4c-.21,0-.56,0-.59-.06-.17-.38-.38.28-.58-.07s-.56,0-.87-.21-.73,0-1-.11a.68.68,0,0,0-.78,0c-.29-.32-.67-.16-1-.14a15.39,15.39,0,0,0-3.45.17,10.07,10.07,0,0,1-1.91,0c-.65.05-1.29.17-1.78.24-.63.23-1.11.43-1.62.58a2.61,2.61,0,0,1-.63,0,3.55,3.55,0,0,0-.93.06A24,24,0,0,1,47,3.36a5.28,5.28,0,0,0-.88.18,19.79,19.79,0,0,1-3.38.89c-.4.41-1,.2-1.45.36-.82.27-1.56.71-2.38,1a3.51,3.51,0,0,0-1,.46,13.88,13.88,0,0,0-1.77,1.39c-.11.11-.3.14-.43.23A8,8,0,0,0,34,9.13a1.35,1.35,0,0,1-.36.23,6.38,6.38,0,0,1-.93,1.45,14.53,14.53,0,0,0-1,1.08,9.91,9.91,0,0,0-1.06,1.27,3.52,3.52,0,0,0-.37.81c-.09.25-.12.52-.22.76a7.38,7.38,0,0,0-.61,1.35,4.12,4.12,0,0,1-.76,1.61,5.64,5.64,0,0,0-.47,1.09,3.77,3.77,0,0,0-1.12,1.57,4,4,0,0,1-.83,1.48c-.17.14-.18.48-.27.73s-.1.65-.29.83c-.64.65-.61,1.62-1.17,2.31-.23.28-.21.76-.3,1.14a.77.77,0,0,0-.73.54c-.06.61-.55.85-.87,1.25a3.06,3.06,0,0,0-.37.59A21.41,21.41,0,0,1,20.85,32c0,2.35,0,4.7,0,7a10.82,10.82,0,0,0,.63,4c.32.83.46,1.73.73,2.58A17.67,17.67,0,0,0,24.06,50a2.23,2.23,0,0,1,.21.44,4,4,0,0,0,.45,1.09A10.81,10.81,0,0,1,26,54.41a5.64,5.64,0,0,0,.83,1.79,8.21,8.21,0,0,1,1.34,1.91c.29.51.71,1,1,1.51.06.12.28.16.42.23L30.15,62l.75.64a29.32,29.32,0,0,0,1,3.61l.24.15c.11.65.18,1.15.29,1.65.18.78.37,1.56.54,2.35a7.24,7.24,0,0,1,.32,1.68,3.23,3.23,0,0,0,.17.56,8,8,0,0,1,.46,2.7,1.94,1.94,0,0,0,.3,1.05c.14.34.42.62.35,1a7.86,7.86,0,0,0,.23,2.37,3.34,3.34,0,0,0,.49,1.28,3.36,3.36,0,0,1,.39.81,13,13,0,0,0,.73,1.62,2.41,2.41,0,0,1,.3,1.16c0,1,0,2,0,3a4.08,4.08,0,0,0,.85,2.77c0,.56-.09,1.16.36,1.65.09.11.07.33.07.5,0,2.07,0,4.13,0,6.2a2.44,2.44,0,0,1-.16.57,5.49,5.49,0,0,1-1.06,1.92,5.42,5.42,0,0,0-1,2c-.25.29-.47.74-.82.92s-.58.75-.92,1.08-.29.46-.46.66a18.19,18.19,0,0,0-1.64,1.89,4.86,4.86,0,0,0-1,2.78c0,.56,0,1.12,0,1.64l-.43.42v5.24c0,1.74,0,3.49,0,5.24a27.78,27.78,0,0,0,.19,5.15c.17.8,0,1.67.27,2.46a10,10,0,0,1,.18,1.42c.05.47.19.93.2,1.4,0,2.18,0,4.35,0,6.52a1.79,1.79,0,0,1-.06.62,3.23,3.23,0,0,0-.37,1.56c0,.58-.27,1.11-.23,1.73.14,2.24,0,4.49.18,6.75s0,4.56,0,6.84a4.44,4.44,0,0,0,.18.88c.12.59.54,1.1.46,1.73a2.43,2.43,0,0,0,.61,1.78,2.24,2.24,0,0,1,.44,1.31,2.84,2.84,0,0,0,.26,1.18c.13.37.07.78.22,1.09a2.81,2.81,0,0,1,.18,1.2c0,.36,0,.71,0,1.05a2.11,2.11,0,0,1,.64,1.57,9.26,9.26,0,0,1,0,1.29c0,.43-.18.86-.19,1.3,0,1.14,0,2.28,0,3.42a2.44,2.44,0,0,0,.12.69,4,4,0,0,0,.73,1.84,10.67,10.67,0,0,0,2.14,3.61,10,10,0,0,1,.88,1.22,17.66,17.66,0,0,0,1.72,2.39c.74.89,1.56,1.71,2.34,2.56a1.5,1.5,0,0,1,.19.25c.49.84,1.22,1.51,1.64,2.42.14.3.48.51.71.77s.34.64.55.68c.4,0,.3.56.72.58.25,0,.48.34.72.52s.37.39.57.41a5.41,5.41,0,0,1,2.17,1,4.61,4.61,0,0,0,2.47.76c2.27,0,4.56,0,6.83,0a8,8,0,0,1,2.25.24,7.53,7.53,0,0,0,1.21.18c.44.06.87.15,1.3.21a7.31,7.31,0,0,1,2,.13c.6.25,1.27,0,1.92.25a7.12,7.12,0,0,0,1.5.25c.54.07,1.09.11,1.63.18a7.78,7.78,0,0,0,2.26.27c.13,0,.29.14.44.19a4.15,4.15,0,0,0,2.07.44l1.23.64c.39.12.85-.21,1.19.2a13.64,13.64,0,0,0,4.15.66,38.94,38.94,0,0,0,6.11-.22H99.18c.21,0,.51-.09.62,0,.42.38,1,0,1.3.23.49.32,1,.15,1.43.16,1.24,0,2.49,0,3.74,0A27.91,27.91,0,0,0,110,199c1.44-.21,2.94.13,4.39-.31l.3-.29,1.73-.33.47-.57a3.13,3.13,0,0,0,.69-.09,19.75,19.75,0,0,1,2-.68,13.06,13.06,0,0,1,2.72-.09c.32.36.77,0,1.09.21a3.15,3.15,0,0,0,1.2.2,7.52,7.52,0,0,1,2.14.25c.47.18,1,0,1.3.2.49.33,1,.14,1.43.17.82.05,1.64,0,2.46,0a2.66,2.66,0,0,1,.6.14,11.18,11.18,0,0,1,1.14-.14c2,0,4,0,6,0,.47,0,1-.27,1.42,0,.31-.37.73-.15,1.09-.21a4.64,4.64,0,0,1,1.09-.2,4.3,4.3,0,0,0,1.58-.33,16.72,16.72,0,0,0,1.69-.56c.35-.16.8-.06,1-.29.55-.5,1.36-.42,1.86-1a14.65,14.65,0,0,0,3.88-1.89c-1.21-1.09-1.1-2.55-1.41-3.87,0-.1,0-.27,0-.31.37-.32.15-.73.2-1.1s0-.48.09-.71a2.26,2.26,0,0,1,.11-.37c-.41-.1.07-.33-.08-.54a6.92,6.92,0,0,1-.57-1.79c-.17-.44-.08-.93-.39-1.34a1.49,1.49,0,0,1-.23-1.08.43.43,0,0,0,0-.19l-.11.11-.39-.66-1.16.28-1.22.85c-.55.38-1.22.51-1.78.86a1.53,1.53,0,0,1-.88.21h-2.77l-.79.4v-.6a11.47,11.47,0,0,0,2.42-.2,5.37,5.37,0,0,1,1.65,0,3.1,3.1,0,0,1,.39-.21,4.75,4.75,0,0,0,1.25-.56,6.43,6.43,0,0,1,2.59-1.42c.07-.34.31-.79.17-1a17,17,0,0,0-1-2.25,23.76,23.76,0,0,1-1.69-2.83c-.39-.77-.85-1.5-1.31-2.22a21.77,21.77,0,0,0-1.85-3c0-.59-.59-.91-.68-1.43a5.27,5.27,0,0,0-2.25-3,1.66,1.66,0,0,0-.75-.24,5.27,5.27,0,0,1-1.53-.55l.09-.28a13.1,13.1,0,0,1,1.61.41,17.08,17.08,0,0,1,1.66.9,5.6,5.6,0,0,1-.34-.93,29,29,0,0,0-1.18-4.22,22.69,22.69,0,0,1-.8-3.85l-.44-.35-.36.53h-2A3.09,3.09,0,0,1,135,156a1.42,1.42,0,0,0-.08-.63c-.32-.5-.5-1.08-.88-1.57a6.2,6.2,0,0,1-.95-1.73,3.93,3.93,0,0,0-1-1.69c-.12-.31-.19-.49-.27-.68a5.4,5.4,0,0,1-.65-1.64c0-.64-.61-1.09-.47-1.74a8.17,8.17,0,0,1-.86-3.49c0-.05-.12-.1-.13-.16-.11-.69-.48-1.3-.53-2a6.46,6.46,0,0,0-.55-2,2.81,2.81,0,0,1-.27-1.39c-.67-.42-.55-1.26-1-1.83l-2.59-.26c-.51-.4-.09-1-.28-1.61-.18-.11-.41-.26-.64-.39a15,15,0,0,0-2.72-1.43,4.38,4.38,0,0,0-1.25-.35,34,34,0,0,1-4.62-.17,8.89,8.89,0,0,1-2.59-.73,10.57,10.57,0,0,1-2.33-1.18,16.79,16.79,0,0,1-1.9.36c-.82.06-1.64,0-2.46,0a2.17,2.17,0,0,0-.62,0,7,7,0,0,1-2.09.37H101c-.23,0-.5.1-.69.1a14.65,14.65,0,0,0-1.63.31c-.89.11-1.79.15-2.69.22-.07,0-.17,0-.21,0-.46.4-1,.13-1.52.21s-1.07.16-1.62.21a18.43,18.43,0,0,0-3.55.19c-.61.16-1.28,0-1.94.21s-1.29.08-1.94.21a18.14,18.14,0,0,1-2.45,0c-.79,0-1.57.23-2.37.22-2.64,0-5.27,0-7.91,0s-5.29.22-7.79-.23a8.52,8.52,0,0,0-1.48-.6,15.44,15.44,0,0,0-1.84-.18,5.34,5.34,0,0,0-.3-.54,10.61,10.61,0,0,1-.9-1.13A3.43,3.43,0,0,0,58,127.72a16.85,16.85,0,0,1-2.43-1.08,2.31,2.31,0,0,1-.29-.2,1,1,0,0,1,.48-.84l1.53.89H58a3.38,3.38,0,0,0,1,.62,2.6,2.6,0,0,1,1.56,1.13,16.34,16.34,0,0,0,1.33,1.91l.17-.09-.16-.53c.24-.28.2-.58,0-1a3,3,0,0,1-.3-1.59,5.87,5.87,0,0,0,0-.84,14.56,14.56,0,0,1-1.06-2.56c-.31-1.09-.72-2.14-1-3.25a6.77,6.77,0,0,1-.35-1.46c0-.5-.21-1-.21-1.51q0-8.92,0-17.85a17.63,17.63,0,0,0,.23-2.9c.32-.47.17-1,.22-1.51a3.19,3.19,0,0,1,.19-.67l-1.05-3c0-.7,0-1.7,0-2.69s.28-1.92.25-2.91a4,4,0,0,1,.52-1.69A10.31,10.31,0,0,0,60.19,83c.59-.21.87-.8,1.35-1.12A11.56,11.56,0,0,1,63.2,81a5.08,5.08,0,0,1,1.85-.71c.11,0,.22-.13.32-.19.09.09.14.18.19.18h6c.94-1.06,2.45-1.28,4-1.87h.77a15,15,0,0,1,1.12-1,5.28,5.28,0,0,0,1.81-2,9.71,9.71,0,0,1,1.22-2.17,1.25,1.25,0,0,0,.24-1A3.53,3.53,0,0,1,81,70.45c.78-2.34.77-1.75.74-4a19.64,19.64,0,0,1,0-2,6.26,6.26,0,0,0-.46-2.81,8.5,8.5,0,0,0-1-2.12A12.84,12.84,0,0,1,78.9,57.2,5.49,5.49,0,0,0,78.24,56a3,3,0,0,1-.38-.87L77.53,55l-.09-.6h-.5l-.37-.82-1-.08c0-.21,0-.35,0-.49s0,0-.07-.08c-1,.57-1,.57-1.43-.13a5.14,5.14,0,0,1,.9-.65c.39-.18.5-.59.81-.84a3.05,3.05,0,0,0,1.09-1.66,12.15,12.15,0,0,1,.74-1.32c.15.26.3.4.31.55a3,3,0,0,1-.62,2c-.33.46-.7.89-1.05,1.33l.07.1.91-.5.11.69c.29-.12.39-.58.85-.33a1.71,1.71,0,0,1-1,1c-.07,0-.1.21-.16.34.77.31,1-.71,1.77-.5l-.2.54.55.08.25.59-.54,1,.53.36c.1.4-.13.79.2,1.07a4.74,4.74,0,0,0,1,2,10.57,10.57,0,0,1,1.61,3.41,4.37,4.37,0,0,1,.21,1c0,1.74,0,3.49,0,5.24A4.35,4.35,0,0,1,82,69.86a8.4,8.4,0,0,0-.71,2.92,1.38,1.38,0,0,1-.19.56c-.37.74-.78,1.45-1.12,2.2a8.32,8.32,0,0,1-2,2.39c-.07.07-.21.06-.39.11.33.19.73.18.7.61L78,79h-2.1c-1,.31-1.67.49-2.33.78s-1.34.73-2,1.11c-.7.12-1.49-.18-2.22.22a.56.56,0,0,1-.51,0c-.27-.3-.59-.17-.89-.18-.92,0-1.85,0-2.77,0-.62.19-1,.73-1.67.9a7,7,0,0,0-1.61,1,4.1,4.1,0,0,0-1.67,1.91,5.52,5.52,0,0,0-.45,1.84c0,.69-.18,1.36-.22,2-.07.88,0,1.77,0,2.65.77.87.61,2.11,1.27,3a1.57,1.57,0,0,0-.42,1.32c0,.25.1.57,0,.74-.37.53-.12,1.09-.2,1.63a12.8,12.8,0,0,0-.2,1.62c0,5.6,0,11.19,0,16.78,0,.88.3,1.71.24,2.58,0,.09.13.17.14.26a9,9,0,0,0,.5,1.83,20.06,20.06,0,0,0,1.07,3.29,3.92,3.92,0,0,1,.43,1.65,3.16,3.16,0,0,0,.24,1.59,3.84,3.84,0,0,1,.43,2c.09.65.62.75,1.09.92.24.1.55.14.71.32s.66,0,.87.22.41-.09.65.12.62,0,.94,0H73c2,0,3.92,0,5.88,0s3.78-.39,5.68-.23c.14,0,.33.06.42,0,.4-.33.87-.15,1.31-.21s.86-.18,1.3-.2a26.61,26.61,0,0,0,4.72-.21c.34-.08.83.13,1-.05s.49,0,.75-.14.73.07,1-.06c.55-.22,1.15,0,1.62-.23a6.5,6.5,0,0,1,1.42-.18,5.94,5.94,0,0,1,1.52-.22,6.72,6.72,0,0,0,2.33,0c.74-.25,1.53.1,2.19-.38,1.08,0,2.13-.28,3.23-.23a9.8,9.8,0,0,0,2.15-.21,3.24,3.24,0,0,0,.81-.33c.29.06.66,0,.71.15.3.62.93.69,1.43,1a5.88,5.88,0,0,0,3.56,1,.54.54,0,0,1,.31,0c1,.43,2,.1,2.91.21.61-.37,1.27-.16,1.9-.22.11.82.91.67,1.31,1.05a6.59,6.59,0,0,0,1.48.81l0,.12h1a7.16,7.16,0,0,1,.34.85,8.84,8.84,0,0,1,.11,1l.19.19.41-.2-.49-1.81a9.46,9.46,0,0,0-2.9-2.06,4.18,4.18,0,0,1-1.79-1.41l.29-.63c.43.29,1.12.12,1.1.82a19.59,19.59,0,0,1,2.8,1.38,3,3,0,0,0-1-1.33,13.62,13.62,0,0,0-1.17-1v-.42l.26-.26.83.26,2.95,3.07,1.13.43c-.07-.17-.08-.33-.16-.39-.34-.22-.45-.64-.79-.87a12.64,12.64,0,0,1-1-.94,12,12,0,0,0-1.51-1.26,2.51,2.51,0,0,1-.62-.69l.3-.3a1.66,1.66,0,0,1,1.39.51c.84.77,1.71,1.51,2.62,2.26.08.45.08.45.6,1v.79l1.79,1c-.48-1.24-1.55-1.91-2.44-2.84,0-.51-.38-.8-.63-1.12-.83-1-1.76-2-2.62-2.94a2.44,2.44,0,0,1-.82,0,8,8,0,0,0-1.86-.4,6.74,6.74,0,0,0-2-.24c-.12,0-.25-.08-.37-.11-.35-.11-.7-.22-1-.3a3,3,0,0,0-1.09-.2c-1.34.18-2.56-.58-3.88-.45a29.37,29.37,0,0,0-3.72-.82c-1.22-.32-2.45-.63-3.66-1a26.28,26.28,0,0,0-2.76-.52,7.11,7.11,0,0,1-1.3-.25,2.69,2.69,0,0,0-1.09-.22c-.15,0-.32-.11-.48-.11-.53,0-.92-.37-1.39-.51-.79-.25-1.6-.47-2.37-.74-1.05-.37-2.15-.46-3.21-.73-.51-.12-1-.19-1.57-.36a2.91,2.91,0,0,0-1.14-.29,4.59,4.59,0,0,1-2.17-.5,6.17,6.17,0,0,0-2.08-.38c-.28,0-.64.11-.84,0-.43-.3-.88-.13-1.31-.2a10,10,0,0,0-1.3-.2c-2.46,0-4.92,0-7.37,0a14.86,14.86,0,0,0-1.75.43,9.56,9.56,0,0,1-2.22.8,8.89,8.89,0,0,1-2.46.27l-.27-.11.21-.63a6.63,6.63,0,0,1,1.18-.32,4.14,4.14,0,0,0,2.4-.65c.7,0,1.21-.71,2-.37a5.39,5.39,0,0,0,.42-1.27,13.37,13.37,0,0,0,0-2.45c-.08-.85.25-1.64.24-2.48,0-2.74,0-5.48,0-8.22a9.52,9.52,0,0,1,.15-1.18s-.15-.14-.15-.25a20.32,20.32,0,0,0-.41-2.92,5.54,5.54,0,0,0-1.07-3c-.09-.09,0-.32,0-.51h.87a3.36,3.36,0,0,1,.59,1.12c.09.74.63,1.38.46,2.17.36.26.16.65.22,1a6.82,6.82,0,0,1,.2,1c.12,2.89-.23,5.79.22,8.67.08.49-.18.94-.19,1.41a43.62,43.62,0,0,0-.24,4.72,10.59,10.59,0,0,1,0,1.38,2.56,2.56,0,0,1-.17.57h7c.25,0,.56-.1.73,0,.53.36,1.1.13,1.64.2a10,10,0,0,0,1.62.2,8.13,8.13,0,0,1,2.67.53,4.87,4.87,0,0,0,1.14.32,4.66,4.66,0,0,1,1.19.24c.61.16,1.23.32,1.85.46a7.64,7.64,0,0,1,1.5.21c1,.48,2.26.32,3.21,1,1.24,0,2.22,1,3.47.92.31,0,.64.29.94.26s.64.13,1,.12a3.88,3.88,0,0,1,1,.2l2.33.57a37.1,37.1,0,0,0,3.88.93c.5.07,1,.24,1.46.34.27.06.56,0,.82.09s.52.38.86.1v-7.35c0-1.53,0-3.06,0-4.59a18.93,18.93,0,0,1,.2-4.51c-.17-.86.36-1.55.59-2.32a10.64,10.64,0,0,0,.71-2.81,9.85,9.85,0,0,0,.2-1.72c.41-.34,0-.85.23-1.19a2.39,2.39,0,0,0,.19-1.31c0-.85,0-1.71,0-2.56s-.13-1.72-.21-2.58a3.68,3.68,0,0,0-.19-.61l.55-.47.5.36a10.78,10.78,0,0,0,0,1.15,9.37,9.37,0,0,1,.19,1c-.09,1.9.26,3.81-.2,5.69a22.27,22.27,0,0,1-.42,2.28c0,.08,0,.19,0,.29h.51c.5,1.19,1.45,2.12,2,3.31a5.94,5.94,0,0,0,.61,1c.63.81,1.27,1.62,2,2.39,1.06,1.17,2.16,2.31,3.25,3.46a2.5,2.5,0,0,0,.54.49c1.42.89,2.68,2,4,3,.59.45,1.23.82,1.85,1.21a2.53,2.53,0,0,0,.6.14c.09.11.26.29.43.47a2.94,2.94,0,0,1,.52.54c.17.35.6.09.72.3s.44-.31.55.09a8.71,8.71,0,0,0,3,.2l.83-2.19a1.75,1.75,0,0,1,0-.81,7,7,0,0,0,.38-1.12,5.82,5.82,0,0,0,0-1.25c.08-.1.16-.18.21-.26.29-.44.09-1,.25-1.4a3.91,3.91,0,0,0,.19-1.1c0-.4.19-.79.2-1.19,0-1.53,0-3.06,0-4.59a3.72,3.72,0,0,0-.18-.81c.05-.18.23-.43.17-.61a11,11,0,0,1-.42-3.46c0-1,0-2.07,0-3.1a8.35,8.35,0,0,0-.24-2.25,11.39,11.39,0,0,0-.61-2.31c.06-1.21-.78-2.25-.64-3.48-.37-.38-.1-.87-.22-1.29a2.79,2.79,0,0,1-.17-1.41c.79-.37,1.13-1.26,1.59-2a5.9,5.9,0,0,0,.94-2.07c.58-.51.68-.92.58-2.35a1.07,1.07,0,0,0-.4,0A10,10,0,0,0,137,81c-.07.06,0,.23-.07.44.5-.19.9-.32,1.29-.5s.67-.64,1.21-.37l.28.26Zm-10.44,52.69c.2.41.54.32.85.32,1.25,0,2.49,0,3.74,0a25,25,0,0,1,3.76.17,13.17,13.17,0,0,0,3.2,0,31.47,31.47,0,0,1,3.23.23,5.05,5.05,0,0,1,1.92.25c.49.24,1,0,1.39.25s1,.09,1.44.13.84-.11,1.17,0a3.62,3.62,0,0,0,1.2.19,10.14,10.14,0,0,0,1.19.19,19.08,19.08,0,0,1,2.82.47,3.33,3.33,0,0,1,1.32.65,3.29,3.29,0,0,1,.57.7c.85,1.1,1.5,2.32,2.26,3.46,1.06,1.61,2.22,3.14,3.3,4.72.32.47.68.93,1,1.39.49.68.62,1.56,1.24,2.16.11,1.09.94,1.87,1.25,2.9s1.06,2.2,1.52,3.32a1.2,1.2,0,0,0,.63.63c0,.12-.09.25-.05.33.34.82.73,1.62,1.13,2.41a20.92,20.92,0,0,0,1.36,2.22c.46.65.6,1.49,1.19,2.07.08.08,0,.28.07.4.4.83.82,1.65,1.18,2.5.26.59.62,1.17.94,1.75.22.4.35.85.54,1.27s.47.87.69,1.31c.44.87,1,1.68,1.56,2.68V169c0-1.1-.06-2.21,0-3.31s-.28-2.07-.24-3.12,0-2.28,0-3.42a18.6,18.6,0,0,0-.46-3.24,7.61,7.61,0,0,1-.19-1.51c-.48-.33.06-1-.42-1.32,0-.54,0-1.07,0-1.6a8.84,8.84,0,0,0-.44-2.71,13.74,13.74,0,0,0-.64-1.87c-.27-.63-.24-1.4-.83-1.9-.25-1.17-.94-2.18-1.27-3.32a8.3,8.3,0,0,0-.39-.91,12.77,12.77,0,0,0-1.44-2.07,6.74,6.74,0,0,1-1.14-1.66c-.15-.55-.62-.86-.72-1.42a6.77,6.77,0,0,0-.61-1.45c-.08-.18-.15-.37-.22-.56-.11-.34-.21-.69-.32-1A2.55,2.55,0,0,0,167,131c0-.06-.12-.1-.13-.16a4.45,4.45,0,0,0-1.28-2.23c-.86-1-1.64-2-2.51-3a18.53,18.53,0,0,0-1.84-1.7c-.66-.56-1.43-.91-2.11-1.4a1.28,1.28,0,0,0-.63-.28,20.45,20.45,0,0,1-2.56-.78,5.2,5.2,0,0,0-2.2-.51l-1-.67c-.23-.08-.66.2-1-.19-.44.15-.78-.29-1.19-.21a3.84,3.84,0,0,1-1.72-.26,4.89,4.89,0,0,0-1.2-.17c-4,0-8,0-12.07,0a6.93,6.93,0,0,1-2.29-.43,4,4,0,0,0-1.51-.22c-.67,0-1.35,0-2,0l-.46-.44a2.1,2.1,0,0,1-.88-.18,14.27,14.27,0,0,1-3.43-2,4.05,4.05,0,0,1-1.76-2.57,6.19,6.19,0,0,1-.75-2c-.19-.52-.46-1-.67-1.54a4,4,0,0,0-.4-1c-.69-.9-1.45-1.76-2.17-2.64a2.36,2.36,0,0,1-.3-.51,26.86,26.86,0,0,0-1.82-2.88c-.13-.2-.25-.42-.45-.75l-.35,1.77c-.18.39-.36.82-.56,1.23a2.05,2.05,0,0,0-.18,1.4h1.31a1.4,1.4,0,0,1,1.1.42c.46.48.93.94,1.47,1.47h-.71L117.28,107l-.49,0v1.23h-.4v-1.23c-.43,0-.78-.12-1.08.34.15,2.5-.23,5.11.26,7.77l1,1,.72,2.79c1.73.37,2.13.37,5.81,0l.68-.44.11.36-.69.45c.52.24,1.14.18,1.64.8a8.35,8.35,0,0,1-1-.14,10.43,10.43,0,0,0-1.91-.52c-1.49-.08-3,0-4.53,0,0,.22,0,.49,0,.54.45.27.45.85.84,1.19s.6.77,1.08,1c.19.08.32.29,0,.51-.39-.1-.56-.49-.85-.73a5.3,5.3,0,0,1-1.61-2.65c-.22-.76-.38-1.55-.58-2.32a2.28,2.28,0,0,0-.25-.85,3.13,3.13,0,0,0-.79-.55V123c.33.1.61.2.9.27s.79.34,1,.22.47.07.7,0,.57,0,.85,0,.52.21.77.2c1,0,2,.34,3.11.25a3.74,3.74,0,0,1,2.06.19s.19-.12.2-.13l4.41,1.82v1.29l-1,.56c.35.57.69,1.15,1,1.71.07.12.19.29.29.29.59,0,.67.68,1.09.95s.62.85.93,1.3c0,.74,0,.74-.27,1.17h-1.43l-.94-.41Zm22.63,48.12a4.24,4.24,0,0,1,.4,1.09c0,.72.37,1.36.46,2.06a2.88,2.88,0,0,0,.35.81.58.58,0,0,1-.15.74c-.24.28.39.52,0,.8,0,.59-.29,1.17-.2,1.71a6.24,6.24,0,0,0,.39,1.86,5,5,0,0,0,1.1,1.7,3.14,3.14,0,0,0,2.6.82l1.62-.83h2c.32.49,1-.06,1.31.43h1.5c1.67,0,3.35,0,5,0a2.19,2.19,0,0,0,1.22-.17c.24-.15.69,0,1.14.07l.33-.56.64.18.33-.57H173l.15-.4.45-.08a4.71,4.71,0,0,0,.33-.73,4.82,4.82,0,0,0,0-.77,32.18,32.18,0,0,1,3.46.65c.59.15.56.5.64.87h.77v-1a8.88,8.88,0,0,0-1.24-.23,5.88,5.88,0,0,1-1.55-.39,5.94,5.94,0,0,1-1.49-.5,6.69,6.69,0,0,0-1.49-.54,11.73,11.73,0,0,1-1.71-.53c-.57-.33-1.2-.06-1.77-.37a5.12,5.12,0,0,0-1.39-.25,5.72,5.72,0,0,1-1.42-.44c-.5-.27-1-.07-1.5-.25a16.09,16.09,0,0,1-2.45-1,2.3,2.3,0,0,1-1.17-1,34.06,34.06,0,0,1-2.29-5.89c-.31-1.15-.71-2.27-1-3.43a2.65,2.65,0,0,1-.19-.76,2.3,2.3,0,0,0-.45-1.22,12.35,12.35,0,0,1,0-1.49c.05-.53-.29-.88-.44-1.32a.4.4,0,0,1,0-.11c-.11-.83-.62-1.6-.44-2.49,0,0-.07-.11-.09-.17a7.06,7.06,0,0,1-.32-1.26c-.06-.92-.59-1.75-.44-2.7-.41-.34-.13-.8-.21-1.2a7.17,7.17,0,0,1-.2-1.3,14.23,14.23,0,0,1-.23-2.69c-.35-.37-.08-.88-.27-1.27a10.15,10.15,0,0,1-.59-2.43c0-.22-.17-.44-.2-.66a4,4,0,0,0,0-.85,7.86,7.86,0,0,1-.42-2.93,2.25,2.25,0,0,0-.12-.48c-.24-.89-.51-1.79-.72-2.69a13.7,13.7,0,0,0-1-2.81c-.38-.77-.92-1.46-1.33-2.22a5.4,5.4,0,0,0-2.1-1.87,1.9,1.9,0,0,0-.78-.41,7.84,7.84,0,0,1-2-.67,4.43,4.43,0,0,0-.45-.2c-1-.2-2-.53-3-.83-.79-.24-1.59-.45-2.39-.66s-1.83-.17-2.7-.46a6.8,6.8,0,0,0-2-.2c-1.43,0-2.85,0-4.28,0-.56,0-1.13-.12-1.68-.18-.24.47.11.67.23.79.29,1.22.49,2.31.83,3.36a2.69,2.69,0,0,1,.15.78,5.7,5.7,0,0,0,.49,2,9.74,9.74,0,0,1,.37,1,17.47,17.47,0,0,0,1.16,3.47c.62,1.31,1.38,2.55,2,3.93a6.66,6.66,0,0,0,1.56-.15,11.9,11.9,0,0,1,1.55-.11c.48-.11.93-.29,1.36-.43.1.1.15.15.13.12l.52-.52-.12-.27c.26-.47.63-.43,1.08-.35,0,.63,0,1.27,0,1.9a7.59,7.59,0,0,0,.26,2,15.14,15.14,0,0,1,.56,2.64c.14.8.36,1.57.57,2.34.35,1.27.86,2.5,1.17,3.79a21.69,21.69,0,0,0,1.72,4.41c.41.83,1,1.58,1.46,2.39a10.61,10.61,0,0,0,.94,1.73c.47.56.6,1.28,1.09,1.81a5.55,5.55,0,0,1,.62,1,12.72,12.72,0,0,0,1.65,2.74c.24,1.1.81,2.09,1.09,3.18A4.85,4.85,0,0,1,151.88,182.18Zm20.93.77a1.86,1.86,0,0,0,2.18.76c.56-.16,1.12,0,1.62-.2a4.79,4.79,0,0,1,1.63-.19c1.33,0,2.63.33,4,.23,1-.07,1.93,0,2.89,0,.61,0,1.22-.13,1.83-.21.16,0,.29-.16.45-.21a1.58,1.58,0,0,1,1.42,0,2.93,2.93,0,0,0,1.09.21,2.79,2.79,0,0,1,.59.14l1-.49-.28-.74h-3.37v-.82a4.32,4.32,0,0,0,1.64-.23h-1.31l-.21-.83.86-.06v-.75c-.1-.11-.18-.25-.26-.25a12.1,12.1,0,0,0-1.82-.27c-.56.07-1.14,0-1.71,0s-1.05-.29-1.62-.24a1.8,1.8,0,0,1-1.14-.3A4,4,0,0,0,181,178a7.83,7.83,0,0,1-2.95-1.71h-.47c-.78-1.32-1.59-2.67-2.39-4l-.85-1.4c-.27-.66-.57-1.47-.94-2.24-.62-1.31-1.39-2.56-1.92-3.91-.42-1.06-1.11-2-1.58-3s-1.28-2-1.75-3.13c-.17-.41-.57-.74-.62-1.12a2.6,2.6,0,0,0-.91-1.44,1.49,1.49,0,0,0-.31-1.16c-.09-.15-.3-.27-.3-.41,0-.65-.56-1-.67-1.65a9.08,9.08,0,0,0-.8-1.7c-.4-.94-.92-1.83-1.35-2.75a8.25,8.25,0,0,0-1.28-1.92c-.63-.73-1.09-1.56-1.67-2.31s-.88-1.35-1.34-2a20.21,20.21,0,0,1-1.22-1.74,10.44,10.44,0,0,0-2.2-3c-1.13-.23-2.16-.72-3.14-.49-.4-.18-.67-.43-.93-.41-.92.06-1.8-.25-2.69-.21s-1.86-.27-2.8-.24c-.43-.33-1-.05-1.39-.26s-.81-.09-1.21-.17a11.72,11.72,0,0,0-1.3-.21c-1.93-.11-3.86,0-5.8-.17-2.29-.21-4.61-.05-6.93-.05l-.1.62-.58.05.3.62c2.26,0,4.5,0,6.75,0,.34,0,.7-.11,1,.21,1,.05,1.89.58,2.92.45a2.26,2.26,0,0,1,1.24.34,3,3,0,0,0,1.36.32c.33.16.68.26,1,.39a21,21,0,0,0,2.2.59c.78.21,1.47.62,2.24.8a3,3,0,0,1,.86.24c.65.41,1.3.8,2,1.16a1.28,1.28,0,0,1,.56.59c.35.78.95,1.38,1.36,2.11a8.37,8.37,0,0,1,1,2.26c.1.42.25.83.37,1.24a13.17,13.17,0,0,1,.69,2.8,14.7,14.7,0,0,0,.46,3,3.27,3.27,0,0,1,.2,1.19c-.06.48.24.86.23,1.3a3.67,3.67,0,0,0,.37,1.34c.14.38.18.79.28,1.17a3.33,3.33,0,0,0,.36,1.13c.38.52.52,1.21,1.11,1.57-.08.37.42.29.42.45,0,.56.49.89.64,1.34a9.24,9.24,0,0,0,1.3,2.24,34.16,34.16,0,0,0,2.86,3.73,16,16,0,0,0,3.5,3.12,2.55,2.55,0,0,1,.49.54,19.53,19.53,0,0,0,2,2.13c.68.52,1.32,1.09,2,1.63a6.87,6.87,0,0,1,1.69,1.83s.13,0,.28,0v-1.44h.61v1.37l1.28,1-.35.65-1.18-.74.25,1.14c-.34.45,0,1.07-.2,1.57A5.37,5.37,0,0,0,172.81,183Zm-12.6-11.28c.61.66,1.56.65,2.27,1.44a5.1,5.1,0,0,1-.75-.14c-.31-.13-.58-.32-.89-.44-.8-.33-1.61-.6-2.31.18a3.46,3.46,0,0,0,.37,1.87c.37,1.13.56,2.32.89,3.47a3,3,0,0,0,.71,1.61,5.72,5.72,0,0,1,3.29-.61,5.34,5.34,0,0,0,2.45-2.69.72.72,0,0,1,.84-.48l-.86,1.2c.68.19,1.21-.29,1.85-.38l.06.34a3.92,3.92,0,0,1-2,.5c-.28.27-.69.49-.74.77-.09.44-.64.26-.65.7h2.09l1.34.74-.3.31a3.89,3.89,0,0,0-1.06-.56c-.88-.17-1.8.19-2.67-.2-.51.35-1.09.14-1.64.16a3.49,3.49,0,0,0-2.05.72c.35.9.7,1.78,1.05,2.66.18.46.36.92.57,1.37a4.1,4.1,0,0,0,2.4,1.88,2,2,0,0,0,2.27-.24,4,4,0,0,1,.89-.46,5.38,5.38,0,0,0,.9-.65,10.75,10.75,0,0,0,1.17-.77c.71-.65,1.37-1.35,2.05-2a1.41,1.41,0,0,0,.44-1.1c0-.64,0-1.28,0-1.84a10.58,10.58,0,0,0-1.31-1.53c-.34-.28-.48-.75-.88-.91s-.69-.56-1-.84l-.4-.31a9.84,9.84,0,0,1-1.49-1.23,12.37,12.37,0,0,0-2.64-2.62c-.27-.17-.44-.55-.71-.6s-.29-.57-.72-.59c-.25,0-.19-.5-.58-.6-.22-.05-.34-.46-.53-.69-.51-.61-1-1.21-1.55-1.82l-3,.33a27.83,27.83,0,0,0,1.21,4.41c1,0,1.36-.81,1.95-1.26l.32.29Zm-45-116.35a6.16,6.16,0,0,1-.12-.77c0-1.1,0-2.19,0-3.28a40.2,40.2,0,0,0-7.2.12l-.24-.17-.69.33c.08,1.12-.19,2.28.31,3.52a1.91,1.91,0,0,0,.53.43,3.09,3.09,0,0,0,1.08.21c1.64,0,3.28,0,4.92,0A3.44,3.44,0,0,0,115.24,55.32ZM99.93,54c-1.85.49-3.67.19-5.5.29-.39-.77-1.45-1-1.58-1.87l.82-1.67L93.2,51l-.35-.22A1.4,1.4,0,0,0,92.24,52c0,.71,0,1.43,0,2.14a2,2,0,0,0,.54,1.37,11.82,11.82,0,0,1,2.38.17,34.23,34.23,0,0,0,3.51,0,2,2,0,0,0,1.67-.75V51.08c-1-.53-2.11-.16-3.38-.32,1.12.72,2.26.94,3,1.88Zm32.3,64.18a1.17,1.17,0,0,0-1-1,5,5,0,0,1-1.3-.74,3.59,3.59,0,0,1-.57-.4,12,12,0,0,1-2.12-1.63,1.34,1.34,0,0,0-.31-.27,13.27,13.27,0,0,1-2.74-2.15c-.2-.22-.42-.42-.76-.76a8.66,8.66,0,0,0,1,2.87c.44,1,1.44,1.53,2.27,2.18a12,12,0,0,0,2.22,1.07,4.18,4.18,0,0,0,2.51.64,1.18,1.18,0,0,1,.42,0A2.19,2.19,0,0,1,132.23,118.13Zm5.84,37.78c.67-.31,1.45-.36,1.86-1l-.53-2.08c-1.37.79-2.86.44-4.23.9a10.73,10.73,0,0,0,.5,1.08,9.4,9.4,0,0,0,.57.82C137,155.89,137.54,155.55,138.07,155.91Zm18.72,8.39a6.43,6.43,0,0,0,.64,2.78h1.36a3.73,3.73,0,0,0,1.3-.11c-.45-.64-.83-1.23-1.26-1.79s-.59-1.34-1.23-1.8Zm-17.3-86.72a5.62,5.62,0,0,1-1.3.77c-.5.13-.79.5-1.2.71s-.48.41-.75.51a2,2,0,0,0-1.1,1.34l.83,0a3.19,3.19,0,0,1,1.46-1.64,5,5,0,0,1,2.48-1.2Zm-3.22.77,2.79-1.69c.28.14.53.4.84.12-1-.65-2-.91-2.77.3-.06.08-.09.18-.16.23l-1.64,1ZM93.76,52.43c.33.34.65.67,1,1a1.37,1.37,0,0,0,.42.21c.18-.76-.12-1.48.24-2.15H94.24C94,51.75,93.64,51.92,93.76,52.43Zm43.15,22c.64.34,1.23-.41,2-.23l.38.56.2-.79-.64-.29a2.54,2.54,0,0,1-.61.18c-.39,0-.78,0-1.17,0-.06,0-.11.06-.17.1Zm19.52,86.86a5.43,5.43,0,0,0,.21,2.39l.76-.76C157.12,162.37,157.08,161.67,156.43,161.31Zm-29.38-28.77c-.24-.28-.29-.78-.88-.89l.51,1.07v1.4l.12-.09.14.38.11-.07Zm1.39-5.88c-.25-.7-.93-.48-1.27-.82-.07-.07-.32,0-.42,0l.72.77Z"/><path d="M96.17,167.7a11.6,11.6,0,0,0,.82-2.76h.28a4.22,4.22,0,0,1-.36,2.11,3.15,3.15,0,0,0,1.93-1.18,10,10,0,0,0,1.29-2,2.26,2.26,0,0,1-.68,1.8,7.4,7.4,0,0,1-2.23,1.8,15.18,15.18,0,0,0-3.64,2.59A10.48,10.48,0,0,0,92,172.57c-.07.12,0,.33,0,.56.54-.3,1-.57,1.47-.81a7.73,7.73,0,0,1,1.8-.58,12.78,12.78,0,0,0,1.93-.22c.67-.29,1.32,0,2-.17,2.13-.44,4.29-.1,6.43-.22a5.84,5.84,0,0,0,1.49-.27,13.51,13.51,0,0,1,1.55-.39,2.84,2.84,0,0,0,2-1.22h.58c-.82,1.41-2.4,1.36-3.71,2l1.81.88,0,.28c-.1,0-.18.07-.22,0-.62-.31-1.24-.64-1.86-.93-.21-.09-.53-.21-.68-.12a2.62,2.62,0,0,1-1.53.19c-1.57,0-3.13,0-4.7,0a10.71,10.71,0,0,0-3.56.43,1.24,1.24,0,0,1-.43,0,5.75,5.75,0,0,0-3,.94,9,9,0,0,1-1.18.73c-.41.15-.38.48-.47.69s-.07.71-.22,1.08a4,4,0,0,0,0,1.16c0,.37-.16.73-.2,1.09a16.55,16.55,0,0,1-.24,2.36c-.37,1.38-.65,2.78-1.14,4.13-.42,1.14-.79,2.3-1.19,3.45l-.38,1c.16,0,.39.07.49,0a7.65,7.65,0,0,1,2.68-1c.49-.16.91-.59,1.53-.48s1-.28,1.62-.22c.29,0,.62-.18,1-.2a13.31,13.31,0,0,1,3.26.67c.32.39.84.09,1.23.39s.84.13,1.17.27a25.7,25.7,0,0,0,2.85.58,3.15,3.15,0,0,0,1.46-.06,21.74,21.74,0,0,1,2.46-.75,4.69,4.69,0,0,0,1.88-.86c.71-.52,1.44-1,2.16-1.51a1.78,1.78,0,0,0,.34-.38,12.11,12.11,0,0,1,1.13-1.66c.23-.24-.11-.81.49-.75l.54-.89-.55-1.7a2,2,0,0,1,.82,1.32l.69-1.08.36.08c-.15.3-.26.57-.41.81s-.35.5-.53.75-.41.54-.6.82a2.13,2.13,0,0,0-.42.78c0,.29-.82.1-.31.66a11.05,11.05,0,0,1,1.09-.68,15.81,15.81,0,0,1,3.53-1.26c.47-.1.79-.55,1.32-.47.1,0,.23-.2.33-.19.84.08,1.56-.46,2.39-.43a1.84,1.84,0,0,0,.78-.2,6.69,6.69,0,0,1,1.29-.23,9,9,0,0,0,1.27-.29c.51-.21,1.07-.12,1.56-.35,0,0,.12.06.21.1a2.52,2.52,0,0,1-1.9.53c.1.45.1.45.56.77l2.6,1.25,0,.29c-2.81-1.08-3-1.19-3.92-2.09-.06.05-.11.14-.16.14-.93,0-1.73.63-2.68.5-1.06.49-2.29.35-3.33,1a10.56,10.56,0,0,1-1.31.45c-.41.18-.93.11-1.3.48-.07.07-.35-.05-.41,0-.46.53-1.18.63-1.71,1-.35.26-.76.43-1.1.69a11,11,0,0,1-.92.89,14.79,14.79,0,0,1-3.07,1.86c-.1,0-.17.12-.29.21-1-.16-1.72.55-2.63.7v.24l3.18,1.07c.06,0,.1.11.16.12.72.08,1.44.2,2.16.21,1.85,0,3.7,0,5.55,0a13.7,13.7,0,0,0,4.32-.35,7.51,7.51,0,0,0,3.72-4.4l.41.15-.66,1.32c1,.32,1.91-.2,2.89-.14l.11.37-3.23.36c-.21.21-.66.48-.83.87s-.67.43-.62.95a12.77,12.77,0,0,0,2.93-.16,5.39,5.39,0,0,1,2.12,0c.65.07,1.21-.28,1.84-.24a6.44,6.44,0,0,0,1.81,0,11.57,11.57,0,0,1,3-.4,1.41,1.41,0,0,1,.35-.21,1.73,1.73,0,0,0,1-.85,20.83,20.83,0,0,0,1.64-2.95c.17.5.17.5,0,.85a11.65,11.65,0,0,0-.68,1.43,6.44,6.44,0,0,1-1,1.41c.26.05.45.15.55.09.63-.35,1.27-.13,2.05-.23l-.44.46c-1.19-.12-2.37.33-3.61.24a4.82,4.82,0,0,0-1.45.33,1.07,1.07,0,0,1-.19.07c-.89.07-1.79.18-2.68.21A30.88,30.88,0,0,1,126,190a8.39,8.39,0,0,1-2.69.22,1.6,1.6,0,0,0-.48.11.77.77,0,0,1-1-.11,1.9,1.9,0,0,1-1.44.63c-1.51,0-3,.31-4.51.23s-3,0-4.48,0a3.91,3.91,0,0,1-1.09-.22c-.36-.09-.78.16-1.09-.21-1,.16-1.72-.52-2.6-.7-.71-.14-1.38-.46-2.1-.6a3.93,3.93,0,0,1-.66-.22,2,2,0,0,0-.45-.19,13.1,13.1,0,0,1-3.81-.86,8.37,8.37,0,0,1-2.6-.71,3.81,3.81,0,0,0-2.14,0c-.45.12-.93-.07-1.3.18s-.83.06-1.22.16a21.58,21.58,0,0,1-2.77,1c-.87.42-1.92.32-2.7,1-1,.11-1.8.82-3,1a11.08,11.08,0,0,0,1.74.92c1,.3,1.94.83,2.94,1.17a7.69,7.69,0,0,1,1.45.86c.73-.47,1.43-.93,2.14-1.36a2.85,2.85,0,0,1,.66-.2v.42l-.66.1,1.27.73c-.71.17-1.11-.2-1.58-.32l-1.13.73c.64.47,1.4.24,2.1.38a2.47,2.47,0,0,1-1.17.13,5.43,5.43,0,0,1-1.14-.1c-.38-.08-.75-.25-1.29-.43l-.49-.59a34.61,34.61,0,0,1-5-2.08c-.87-.16-1.55.41-2.26.83a5,5,0,0,1-1,.46c-.65.21-1.3.46-1.94.73a14,14,0,0,1-3,.78,12.28,12.28,0,0,1-2.5.18l-.11-.34a2.91,2.91,0,0,1,1.24-.07,7.51,7.51,0,0,0,2.82-.44,22,22,0,0,0,3.42-1.27c.09,0,.22,0,.41,0l.43-.52c1.15-.45,2.08-.86,3-1.18a14.76,14.76,0,0,1,2.7-1l1.14-1.25a.33.33,0,0,1,0-.1c.26-.78.47-1.58.78-2.35a26.3,26.3,0,0,0,.89-2.82,4.53,4.53,0,0,0,.47-2.17c.44-.3,0-.81.29-1.16s0-.83.14-1.22a22.57,22.57,0,0,0,.24-2.69,10.14,10.14,0,0,1,1.2-3.88,10.62,10.62,0,0,1,1.45-2.06,6.56,6.56,0,0,1,.73-.54c.5-.35,1-.71,1.49-1.05A1.42,1.42,0,0,1,96.17,167.7Z"/><path d="M118,148.48c.5,0,1,0,1.42,0a4.61,4.61,0,0,0,3.21-1,5.41,5.41,0,0,1,1.39-.78,1.5,1.5,0,0,1,.89,0l-1.32.59,0-.07-1,.79c.67.14,1.36,0,2.07.09l.06.28c-.07,0-.12.11-.18.11a15.37,15.37,0,0,1-1.92,0,6.7,6.7,0,0,0-2,.25,5.24,5.24,0,0,1-2.82,0c-.15.23.1.28.19.38a9.73,9.73,0,0,1,2.07,2.45,12.49,12.49,0,0,0,2.82,1.88,24.35,24.35,0,0,1,2.38,1.23c.31.16.27.56.65.72s.46.56.7.85a6.32,6.32,0,0,1,.7.77,4.81,4.81,0,0,0,2.73,2c.38.14.87.1,1.2.67l-1.25-.28c-.23.51,0,.95.08,1.4a4.38,4.38,0,0,0,.34,1.37,3.94,3.94,0,0,1,.34,1.79c0,.74,0,1.5,0,2.24a6.72,6.72,0,0,0-.18,1.86,6.21,6.21,0,0,0,2.07.81,14.83,14.83,0,0,1,2.62.92l-.05.3c-1.44-.31-2.75-1-4.26-1.3.16,1,1,1.38,1.35,2.07a15.06,15.06,0,0,0,1.59,2c-.26,0-.5,0-.51,0-.14-.42-.64-.45-.84-.81s-.44-.75-.68-1.11-.52-.63-.75-1-.46-.81-.77-1.35c0-1.25,0-2.68,0-4.1a5.24,5.24,0,0,0-.59-3,.45.45,0,0,1,0-.19c-.09-.68-.16-1.36-.24-2l-1.37-.71c-.6-.6-1.24-1.51-1.95-2.36a6.41,6.41,0,0,0-2.39-1.94,19.25,19.25,0,0,1-2-1,6.89,6.89,0,0,1-2.3-2,21,21,0,0,0-1.68-2,31.42,31.42,0,0,0-5.61-4.54,33.43,33.43,0,0,0-4.46-2.11,5.1,5.1,0,0,0-1.37-.3,6.29,6.29,0,0,1-1.88-.38c-.48-.16-1,.09-1.49-.28-1,.07-2-.33-3-.22-.6.06-1.21,0-1.82,0q-1.39.08-2.79.21a5.54,5.54,0,0,0-.87.29,10.6,10.6,0,0,1,1.2.83,5.11,5.11,0,0,0,1.12.67,18.51,18.51,0,0,1,1.69,1.07c.33.25.71.38,1,.61.75.54,1.68.87,2,1.89a3.78,3.78,0,0,0,.83,1.15,1.52,1.52,0,0,1,.43,1.11,2.27,2.27,0,0,0,.14.79,7.62,7.62,0,0,0,1.9,3.4c.27.25.49.68.78.91a22.58,22.58,0,0,0,2.74,1.89,5.82,5.82,0,0,1,1.35.93l4.16,2.25,2.76,2,3.08,1.21.05-.1.92,1-.49.17c0-.16-.1-.29-.14-.41l-2.34-1a11.54,11.54,0,0,1,1.15,3c.12.48.26,1,.39,1.44a3.48,3.48,0,0,0,.23.87c.54.91.88,1.91,1.36,2.85a1.49,1.49,0,0,1,0,1c-.62-.91-.69-2-1.46-2.78A9.28,9.28,0,0,0,118.2,171a12.82,12.82,0,0,0,0,2.56c0,.09-.4-.64-.4-.64a3.42,3.42,0,0,1,.16-2.58,8.28,8.28,0,0,0,.82-1.48,1.43,1.43,0,0,0,.15-1.48c-.23-.83-.41-1.67-.65-2.51a10,10,0,0,0-.52-1.38c-.21-.49-.47-.95-.74-1.46a1.7,1.7,0,0,1-1.27-.74,2.73,2.73,0,0,0-1-.62c-1-.48-1.75-1.37-2.81-1.75a7.36,7.36,0,0,1-1.48-.81,14.54,14.54,0,0,0-1.53-.76L107.28,156a1.71,1.71,0,0,0,.08,1.11,7.92,7.92,0,0,0,1.77,2.58,3.16,3.16,0,0,1,.6.7,1.17,1.17,0,0,1-.83-.36,3.18,3.18,0,0,0-.69-.68,1.11,1.11,0,0,1-.36-.46,9.38,9.38,0,0,1-1.09-2.54,4.24,4.24,0,0,0-.48-1,6.43,6.43,0,0,1-1.54-1.4c-.52-.52-1-1.1-1.45-1.64s-.24-1.33-.79-1.87a2.94,2.94,0,0,0-.78-2.3,7.79,7.79,0,0,1-.67-1.11,4,4,0,0,0-1.8-1.58c-.85-.49-1.6-1.11-2.45-1.57,0,0,0-.06-.08-.07a24.48,24.48,0,0,1-2.94-1.81,8,8,0,0,0-1.76,0,26.2,26.2,0,0,1-4.51.2,1.91,1.91,0,0,1-1.25-.33v-.31a1.65,1.65,0,0,0,.4.2,4.56,4.56,0,0,0,.64,0c1.25,0,2.49,0,3.74,0a8.19,8.19,0,0,0,1.3-.21c.43-.07.92.2,1.31-.2,0-.06.21,0,.31,0a18.43,18.43,0,0,0,2.79-.24,22.45,22.45,0,0,1,4.09-.18,1.84,1.84,0,0,1,1,.18,2.58,2.58,0,0,0,1.29.22,13.11,13.11,0,0,1,3,.53,6.11,6.11,0,0,0,.7.13c.78,0,1.57,0,2.49,0,1.35-.89,2.81-1.84,4.24-2.83.15-.11.19-.36.44-.45s0-.38.37-.38c.13,0,.24-.37.39-.55s.35-.28.43-.46a7.76,7.76,0,0,1,.91-1.13,9.86,9.86,0,0,1,1-1l.45-.45c.7-.2,1.4-.43,2.11-.6s1.19-.22,1.79-.31c.39-.06.7.15,1.11.47-.28.08-.49.21-.6.16a1.91,1.91,0,0,0-1.65,0,14.2,14.2,0,0,1-2,.41c-.46.09-.61.58-1.07.61a15,15,0,0,0,1.77.07c.82.48.82.48,1,1.09l-1-.61-2.12-.3c-.34.42-.65.82-1,1.22s-.62.74-.93,1.1a10.89,10.89,0,0,1-3.39,2.86c-.69.33-1.29.84-1.95,1.23a5.6,5.6,0,0,1-1,.35c.58.26,1.11.47,1.62.72a21.1,21.1,0,0,1,3,1.74c1.23.91,2.5,1.77,3.65,2.78A7,7,0,0,0,118,148.48Z"/><path d="M49.29,181.31l.6.3h2.92l.63.65c.4-.09.85.16,1.27-.18.16-.13.23-.06.63.25-.41.21-1,.15-1,.77H53.9c-.5-.36-.77-.95-1.38-1.13-.16-.05-.37-.19-.46-.13-.66.42-1.38.07-2.11.25a11.64,11.64,0,0,0,3,3c.49.35,1.06.57,1.53,1a2.41,2.41,0,0,0,1.18.48A15.78,15.78,0,0,0,59,187l2-1.43A3.17,3.17,0,0,1,59.68,187h1.25a2.4,2.4,0,0,1-1.22.44,18.55,18.55,0,0,1-3.33-.27,7.71,7.71,0,0,1-2.74-1.07,5.8,5.8,0,0,1-.83-.6,4.65,4.65,0,0,0-.57-.42,5.57,5.57,0,0,1-1.7-1.58c-.82-1-1.46-2.15-2.37-3.1a14.81,14.81,0,0,1-1.3-1.9,2.62,2.62,0,0,0-.29-.3,5.26,5.26,0,0,0,.45,3,14,14,0,0,0,.76,1.82,12.75,12.75,0,0,0,1.27,2.36,3.7,3.7,0,0,1,.25.43l.22.42c-.44.24-.53-.16-.81-.33L48.29,187c-.11-.11-.29-.23-.28-.3a11.46,11.46,0,0,1,.4-1.1v-.71c-.69-.45-.65-1.38-1.15-2a7.77,7.77,0,0,1-.87-2.2,2.52,2.52,0,0,1-.13-2.36c.06-.11,0-.28,0-.42a16.48,16.48,0,0,1,.86-4.23,6.23,6.23,0,0,1,1.61-2.75,15.4,15.4,0,0,0,2.41-3.28c.35-.53.64-1.09,1-1.62a5,5,0,0,0,.61-3.9,1.53,1.53,0,0,1-.07-.29,12.87,12.87,0,0,0,0-1.39,9.77,9.77,0,0,0-.28-1.24,8.81,8.81,0,0,0-1.66-1.47c-.11,0-.14-.26-.24-.45.7.15,1,.37,2.19,1.57a8.53,8.53,0,0,1,.2,1.3,8.13,8.13,0,0,0,.21,1.31,10.55,10.55,0,0,1,0,1.49c0,.46,0,.93,0,1.39s-.08.87-.13,1.43c.41.51,1.31.29,1.93.85a3.52,3.52,0,0,1,.56,2,8.12,8.12,0,0,0,.66,3.15,6.05,6.05,0,0,0,.83,1.36,12.94,12.94,0,0,0,1.81,2c.16.17.28.36.5.64l.91.44c.84,0,1.84.06,2.82,0a11.82,11.82,0,0,0,2.26-.48,8.55,8.55,0,0,1,3.55-.55l.35.3c-.08,0-.14.11-.19.1a11.81,11.81,0,0,0-3.08.31c.11.13.17.28.27.33.42.19.86.34,1.29.52l-.07.4c-.68-.36-1.46-.38-2-1.06-.61.48-1.45.32-2.22.46a25.75,25.75,0,0,1-2.69.18,16,16,0,0,0,2.59,1.43c.06,0,.16,0,.21,0a20.33,20.33,0,0,0,3.62,1.31,25.92,25.92,0,0,1,2.77.81c.13.07.33,0,.53,0l0,.32c-.51.37-.92-.11-1.38-.13a6.17,6.17,0,0,1-1.38-.43l.89,2c-.26-.15-.42-.19-.47-.29-.17-.32-.26-.68-.46-1a11.43,11.43,0,0,0-.91-1.15,8.93,8.93,0,0,1-2.72-.8A15,15,0,0,1,61,177.55a6.34,6.34,0,0,0-1.05-.78,4.32,4.32,0,0,1-1-.86c-.14-.11-.25-.25-.38-.37a9.18,9.18,0,0,1-2.38-3.18c-.15-.34-.58-.6-.6-.92a16.35,16.35,0,0,1-.48-2.71,7.25,7.25,0,0,0-.15-1.52,2.67,2.67,0,0,0-.65-.54c-.51-.22-1.06-.36-1.59-.53a13,13,0,0,0-1.56,2.44,6.53,6.53,0,0,1-.83,1.26,22.38,22.38,0,0,1-1.51,1.72,5,5,0,0,0-1,1.63,18.61,18.61,0,0,0-.76,2.25s-.07.05-.07.08a4,4,0,0,1-.29,2c.51.75,1,1.35,1.34,2S49.17,180.48,49.29,181.31Z"/><path d="M72.58,164.34a32.23,32.23,0,0,1-1.51-4.43,19.65,19.65,0,0,1-2.37-.73c-.24-.15-1.64-.85-1.65-1,0-.42-.42-.31-.6-.48a16.13,16.13,0,0,1-2.17-2.85c-.47-.65-.7-1.44-1.21-2.06a.84.84,0,0,1-.22-.44c0-.85-.64-1.39-1-2a8.53,8.53,0,0,0-.73-1.2c-.58-.63-1.21-1.21-1.81-1.82a1.53,1.53,0,0,0-1.18-.5,18.55,18.55,0,0,0-2.24,0,5.7,5.7,0,0,1-1.85.14l0-.27c.07,0,.14-.11.18-.1.78.15,1.5-.27,2.27-.23s1.56,0,2.36,0c.94,1,2.25,1.63,2.9,2.91A11.13,11.13,0,0,1,63,151.69c1.11,0,2.27,0,3.44,0a4,4,0,0,1,2.53.85,4.89,4.89,0,0,0,1.65.66c1.56.43,3.15.12,4.72.2a2.38,2.38,0,0,0,.66-.2,15,15,0,0,0,3.42-1.29c.32-.18.6-.44.92-.63.48-.29,1-.55,1.55-.87.68.08,1.5-.21,2.19.35l0,.22c-.06,0-.13.09-.17.07-.34-.12-.67-.26-1-.4-.29.38-.73.09-1.06.25l-1.69.88c1.71.94,3.45,1.53,5.12,2.31h1.59v.33a4.43,4.43,0,0,1-2.11-.25A14.25,14.25,0,0,1,81.93,153c-.52-.22-1-.42-1.74-.7a1.87,1.87,0,0,0-1.62.5c-.12.13-.38.1-.56.17a16.19,16.19,0,0,1-2.47.69c1.78.89,3.39,1.95,5.28,2.76-.34.17-.52.2-.75.07-1.23-.7-2.57-1.19-3.76-2a3.32,3.32,0,0,0-2.39-.7,5.71,5.71,0,0,1-1.49,0,10.91,10.91,0,0,1-4.55-1.38,1.7,1.7,0,0,1-.3-.3h-4.2c0,.2-.05.42,0,.53.72.89,1.14,2,1.94,2.83a2.63,2.63,0,0,1,.32.72c.23.51.74.75,1.1,1.13a6.12,6.12,0,0,0,2.16,1.51,5.15,5.15,0,0,0,2.14.52,4.56,4.56,0,0,1,1.51.21c.46.12.93,0,1.42.17a7.33,7.33,0,0,0,1.82.24,23.5,23.5,0,0,1,2.68.52c.39,0,.75.33,1.13.34a3.66,3.66,0,0,1,1.64.7A4.94,4.94,0,0,1,83,162.94c-.35.25-.65-.11-.79-.23a7.34,7.34,0,0,0-2.84-1.59c0,.2,0,.43.09.57a5.71,5.71,0,0,1,.56,1.8A12.45,12.45,0,0,0,81.89,168c.19.27.49.6.19,1.06a19.5,19.5,0,0,1-1.15-1.86,16.51,16.51,0,0,1-1.31-3.95,8.79,8.79,0,0,0-.88-2.24,13.83,13.83,0,0,0-3.59-.7c-1.21-.05-2.33-.59-3.64-.45a4.27,4.27,0,0,0,.23,1.15c.42.86.59,1.81,1,2.7a1.72,1.72,0,0,1,.1.6c0,.67,0,1.35,0,2a6.39,6.39,0,0,1-.45,2.91,2.31,2.31,0,0,0,0,2,8.28,8.28,0,0,0,3,1.54l0,.28c-.08,0-.16.08-.21.06l-1.21-.42a3.72,3.72,0,0,1-1.82-1.26,1.31,1.31,0,0,1-.37-1,6.26,6.26,0,0,0,0-.75.38.38,0,0,1,0-.1,4.33,4.33,0,0,0,.62-1.56A14.94,14.94,0,0,0,72.58,164.34Z"/><path d="M72.32,139.91c-1.1-.28-2.11-.86-3.29-.57a12.51,12.51,0,0,1-2.74,1,8.71,8.71,0,0,1-3.44.15A14.36,14.36,0,0,1,60,140a5.86,5.86,0,0,0-2.25-.23,16.14,16.14,0,0,1-3.11-.28,2.38,2.38,0,0,1-2-1.26,3.31,3.31,0,0,0-2.26-1.48L50,137.8l-.23,0c0-.07-.09-.13-.08-.18a7.29,7.29,0,0,1,1.75-2.9,3.84,3.84,0,0,0,.8-2.14,13.32,13.32,0,0,0,0-1.67,11.76,11.76,0,0,1-1.58-3.12c-.12-.45-.25-.9-.33-1.35-.11-.61-.16-1.22-.25-1.9a5,5,0,0,0-.75,1.16A6.58,6.58,0,0,0,49,127c0,.35-.43.66-.68,1-.12-.47-.12-.47.33-1.41-.21,0-.46-.13-.57-.05a3,3,0,0,1-1.94.4L45,128.8h-.16a2.63,2.63,0,0,1,1.55-2.34c.71.17,1.38-.23,2.27-.58l1.17-1.7a22.46,22.46,0,0,1,1.46-2.85c.38-1,.82-1.87,1.32-3,.71-.47.74-1.53,1.12-2.4.29-.67.44-1.39.76-2.2a2.21,2.21,0,0,1-.05,1.26,6.13,6.13,0,0,0-.52,2.26,2.92,2.92,0,0,0,.62,1.56c.55.72,1.18,1.38,1.79,2.07h1.55l.41.42H56.7l.3.81c-.55,0-.55,0-.65-.55-.74-.92-1.4-1.8-2.12-2.63a2.26,2.26,0,0,1-.49-1.54,6.43,6.43,0,0,0-1.22,2.32,1.9,1.9,0,0,0,.26,1.15,3.12,3.12,0,0,1,.14,2.66,3.51,3.51,0,0,0-.06.42l-.29-.28c0-.2.08-.41.13-.62s.1-.38.17-.62l-.25-1.3-.44-.66a26.19,26.19,0,0,1-1.3,2.4,2.89,2.89,0,0,0-.51,1.27,1.72,1.72,0,0,0,.22,1.07,1.67,1.67,0,0,1,.19.89,7,7,0,0,0,.94,2.92,6,6,0,0,1,1,4.08,4.56,4.56,0,0,1-.84,1.78c-.31.46-.69.86-1.09,1.35a4.79,4.79,0,0,1,1.09.63c.32.34.77.49,1,.94a5.29,5.29,0,0,0,1,1,32.16,32.16,0,0,0,3.6.51,13.77,13.77,0,0,1,3.92.57,13.76,13.76,0,0,0,4.17.22c.72-.27,1.5-.27,2.2-.61a15,15,0,0,0,1.94-1c.62-.41,1.37-.63,2-1s1.38-.45,2-.75a2.54,2.54,0,0,1,1,0,9.12,9.12,0,0,0,1.54-1.08c.38-.41.59-1,1-1.45l-.13.79,1.6-.24v.44H77.43c-.32.24-.61.43-.86.65s-.13.61-.55.66h.81v.43c-.33,0-.64,0-1,0a8.2,8.2,0,0,0-4,1l-2,.81A5.41,5.41,0,0,1,72.32,139.91Z"/><path d="M53.56,86.4c.3-.43.56-.83.85-1.19a27.91,27.91,0,0,0,1.93-3c.13-.22.29-.51.71-.23a7.17,7.17,0,0,0-.5.66c-.35.6-.6,1.25-1,1.82s-.84,1.07-1.2,1.64a3.13,3.13,0,0,0-.57,1.83,3.63,3.63,0,0,1,1.57,1.77,12.15,12.15,0,0,1,1.24.28.55.55,0,0,1,.33.83c-.43-.32-.81-.73-1.43-.59a17.41,17.41,0,0,1,.45,2,2.92,2.92,0,0,0,.36.9c-.35.16-.5-.1-.59-.36a8.05,8.05,0,0,1-.36-1.34,10.4,10.4,0,0,0-.58-2l-.94-.93c0,.17-.11.42,0,.6a15.68,15.68,0,0,1,.68,3.15,19,19,0,0,1,.15,2.81,4.18,4.18,0,0,1-.2,1.08,4,4,0,0,0,0,2.5,3.43,3.43,0,0,1,0,.79l1.37,1.67,1.95-.53L58,101a5.6,5.6,0,0,0-1.91.64l.75.56-.42.41-2.26-2.81v-.43l-.12.06v2.3l-.45.54V97.69a29.85,29.85,0,0,1-2.35,3.2c-.42.45-.38,1-.63,1.56a6.89,6.89,0,0,0-.3,1.92,10.58,10.58,0,0,1,2.93,1.83,5.16,5.16,0,0,1,1.39,2.08c.05.11,0,.27,0,.42l-.44,0a1.3,1.3,0,0,0-.4-1.22c-.26-.3-.44-.65-.75-1-.74-.73-1.72-1-2.47-1.72a1.24,1.24,0,0,0-.15,1.7l-.38.07c0-.07-.1-.12-.1-.18,0-.68,0-1.36,0-2a12.08,12.08,0,0,1,.64-3.15,2.57,2.57,0,0,1,.54-.84,26.34,26.34,0,0,0,2.25-3.13,4.12,4.12,0,0,0,.84-2.54,16.23,16.23,0,0,0,0-1.71,16.84,16.84,0,0,0-.58-3.38,1.88,1.88,0,0,1,0-.63C53.55,88.16,53.56,87.3,53.56,86.4Z"/><path d="M56.2,41.79A3.49,3.49,0,0,1,54.5,44c-.23.12-.32.49-.53.84a10.7,10.7,0,0,1,1.77-.65,12,12,0,0,1,2,0l.31.33a.66.66,0,0,1-.18.1h-.64a3.69,3.69,0,0,0-2.39.42,1.47,1.47,0,0,1-.66.21,5.91,5.91,0,0,1-.84,0l-1.95,1a5.42,5.42,0,0,0,.6.29,10,10,0,0,0,3.15.66,3.73,3.73,0,0,1,1,.27v.27c-.34.26-.58-.1-.86-.12a30.4,30.4,0,0,1-5.16-1.19,23.51,23.51,0,0,0-3-1c-.09,0-.17-.21-.23-.2-1,.16-1.74-.67-2.68-.78a2.45,2.45,0,0,1-1.65-.93,9.61,9.61,0,0,0,1.14,3,21.38,21.38,0,0,0,1.61,2.74,26.81,26.81,0,0,0,2.35,2.42l-.22.2a2.86,2.86,0,0,1-.3-.22c-.51-.5-1-1.05-1.52-1.5A6.9,6.9,0,0,1,44,48.07a15.55,15.55,0,0,1-1.19-2.38c-.29-.81-.61-1.6-.9-2.4a2.51,2.51,0,0,1-.07-.62c0-.81,0-1.63,0-2.45A5.45,5.45,0,0,1,42.21,38a10.88,10.88,0,0,0,.24-1.29,13.14,13.14,0,0,1,.49-1.5c.34-.86.76-1.68,1.08-2.55.13-.36.32-.72.42-1.1.17-.65.7-1.12.86-1.78l.37.13a5.22,5.22,0,0,1-.48,1.1,12.27,12.27,0,0,0-1,2.45c-.12.27-.19.57-.31.84-.29.66-.63,1.3-.89,2-.16.43-.1.92-.29,1.37a6.37,6.37,0,0,0-.44,2.7c0,.78,0,1.57,0,2.42a4.44,4.44,0,0,0,2.57,1.4,2.71,2.71,0,0,1,1,.48,9.24,9.24,0,0,1,2.27.59,5.4,5.4,0,0,0,3.15.6l1.44-.72.11-.34h.45a20.08,20.08,0,0,1,1.87-1.69c.36-.24.54-.75.81-1.13A.86.86,0,0,1,56.2,41.79Z"/><path d="M48.17,32.49a4.68,4.68,0,0,0-.49.59c-.15.25-.26.53-.42.85l-.46-.08a10.44,10.44,0,0,1,1.05-1.57,16.05,16.05,0,0,0,2.86-4.16,12.59,12.59,0,0,1,.93-1.64A27.54,27.54,0,0,0,53,24.05a17.24,17.24,0,0,0,1.16-2.72,12.69,12.69,0,0,1,.68-1.21c.1-.21.19-.42.29-.64.7-.52,1.44-1.05,2.16-1.6s1.42-1.19,2.2-1.68,1.25-1.21,2.18-1.41c-.3.31-.6.63-.92.91a11.82,11.82,0,0,1-1,.83c-.35.26-.74.47-1.09.73a11.91,11.91,0,0,0-1,.85,5.17,5.17,0,0,0-1,.81,3.87,3.87,0,0,1-1.11.77,12.77,12.77,0,0,0-1.48,3.06l.18.06a3.13,3.13,0,0,1,.6,2.4c0,.57,0,1.14,0,1.71a24.25,24.25,0,0,0,.45,4.41,3.87,3.87,0,0,0,.46,1l-.36.13a5.42,5.42,0,0,1-.56-1.69,10.48,10.48,0,0,0-.24-1.72,7.28,7.28,0,0,1-.16-1.85c0-.6,0-1.21,0-1.81V23.55L53.82,23c0,.89-.71,1.49-1,2.29a13.2,13.2,0,0,1-1.38,2.24c0,.38-.33.71-.6,1.11s-.25,1.05-.58,1.33-.57.72-.92,1a5.2,5.2,0,0,0-.73,1.24A4.91,4.91,0,0,1,49.91,35c.2.71.29,1.44.44,2.17s.34,1.65.45,2.49a3.83,3.83,0,0,0,.46,1l-.4.12a12.63,12.63,0,0,1-.74-2.69,13.6,13.6,0,0,0-1.25-4.71c-.07-.11-.08-.26-.16-.36S48.42,32.75,48.17,32.49Z"/><path d="M35.21,117.71c.47,1.37,1.53,2.23,2.31,3.29.07.09.23.11.39.18.07.54.74,1,.38,1.65H38a2.48,2.48,0,0,0-1.05-2,7.54,7.54,0,0,1-1.82-2.44,3.49,3.49,0,0,1-.38-1.56,23.27,23.27,0,0,0,0-2.77c-.06-.65.32-1.21.23-1.83a5.59,5.59,0,0,1,.22-1.73,2.42,2.42,0,0,1,.64-1.12,15.16,15.16,0,0,1,1.94-2.51c.05,0,.12,0,.24-.12l.27.33a1.4,1.4,0,0,0-.83.71,6.62,6.62,0,0,1-1.19,1.64,3.8,3.8,0,0,0-.86,2.32c-.07.46-.1.93-.17,1.58a5.16,5.16,0,0,0,2.44,2c.75.29,1.08,1,1.57,1.58.1.12.14.3.23.43a2,2,0,0,0,.29.29,8.4,8.4,0,0,0,4.33-.88,5.69,5.69,0,0,1,2.93-.34,1.69,1.69,0,0,1,1.2,1c.06.11.13.22.23.38h-.58l-.38-.83a4.29,4.29,0,0,0-3.57.33,5.09,5.09,0,0,1-1.52.4l.69,1.42v1l-.42.07a5.12,5.12,0,0,0,0-.89,3,3,0,0,0-.29-.71l-.69-.66c-.24,0-.56.08-.88.1s-.64,0-1,0l-.75-.56a3.77,3.77,0,0,0-1.49-1.66,26.52,26.52,0,0,1-2.37-1.77Z"/><path d="M72,37.31a6.26,6.26,0,0,1,2.09-2.73c0,.14,0,.31-.1.41a5.29,5.29,0,0,1-.52.54l.3.94.84.83.61.12-.38.37A2.55,2.55,0,0,1,73.11,36l-.71,1.25-.3,2.57c.31.18.4.58.79.56a4.46,4.46,0,0,1,1,1.62,3.85,3.85,0,0,0,.46,1.4c.34.44-.07,1,.38,1.36.07.06,0,.27,0,.41,0,.95,0,1.91,0,2.88h-.43V46.94c-1.56,1-3.25,1.61-4.27,3.21l.8,3.51-.53-.3-.48-2.51-.15-.08-.09.41-.2-.13v2.3h-.45a6.57,6.57,0,0,0,.24-2.55A5.72,5.72,0,0,1,70.38,49a9.9,9.9,0,0,1,2.08-1.44,4.38,4.38,0,0,0,1.5-1c0-.06.18,0,.3-.07a9.85,9.85,0,0,0-.49-3.62c-.14-.52-.42-1-.58-1.47a1.3,1.3,0,0,0-.93-.87c-.39.67.16,1.28.1,1.9l-.31,0a5.63,5.63,0,0,1-.31-.9,5.1,5.1,0,0,1,0-1c-.49-.08-.28.7-.76.59a1,1,0,0,1-.9.64c-.35,0-.67.33-1.18.09a4.06,4.06,0,0,1,.61-.32,3.7,3.7,0,0,0,1.91-1.3,1.82,1.82,0,0,0,.31-.82C71.82,38.75,71.89,38,72,37.31Z"/><path d="M32,40.85c-1.22-.49-1.36-1.57-1.86-2.39-.74.3-.29,1.26-.9,1.66a1.69,1.69,0,0,1,.18-1.45c.33-.73.82-1.36,1.09-2.12A1.77,1.77,0,0,0,30.47,35a9.24,9.24,0,0,0-1-1.88c-.59,1.64-1.84,2.85-2.73,4.24l-.53,0c0-.08,0-.14,0-.17a5.68,5.68,0,0,0,1.24-1.62c.2-.48.78-.77,1-1.29a5.73,5.73,0,0,0,.61-1.34,1.84,1.84,0,0,0-.32-1.13,5.35,5.35,0,0,1-.47-3.42,13,13,0,0,1,.8-2.43,6.12,6.12,0,0,1,.24-.76c.31-.61.51-1.26,1.25-1.62a2.78,2.78,0,0,0,1.53-2.32s.08-.07.17-.14v1.05c-.41,1.23-1.59,1.61-2.22,2.38l-.28.85.56,1.37c.25.33.88.65,1.19,1.37-1.19-.3-1.53-1.31-2.1-2.15a11,11,0,0,0-.72,4.83,18.77,18.77,0,0,0,1.06,2.05c.4.59.57,1.27.9,1.87a2.47,2.47,0,0,1,0,2.47,1.43,1.43,0,0,0,.07,1.68c.22.29.35.64.54,1S31.74,40.4,32,40.85Z"/><path d="M36,139.87a8.94,8.94,0,0,0,1,1.47A14.76,14.76,0,0,1,38.58,144a4.37,4.37,0,0,1,.44,1.09c.24.7.39,1.41,1.19,1.76.15.06.25.41.52.5,0,0,0,.18,0,.34-.64-.19-.88-.8-1.41-1.12v1.39l.23.46-.34.1a1.66,1.66,0,0,1-.36-1.14,4.73,4.73,0,0,0,0-.53,3.23,3.23,0,0,0-.64-2.51c-.37-1.45-1.46-2.46-2.17-3.71a2.57,2.57,0,0,0-.82,1.82c0,.78,0,1.56,0,2.34-.23.09-.27-.15-.43-.23v-1c-.2.13-.32.19-.42.27s-.19.18-.39.37v-.71l.78-.35a10.54,10.54,0,0,1,.55-2.3,24.27,24.27,0,0,1,1-2.28,4,4,0,0,1,.36-.71,4.85,4.85,0,0,0,.72-2,10.4,10.4,0,0,1,.34-1.36,8.14,8.14,0,0,0,.54-2.34.74.74,0,0,1,0-.21,9.13,9.13,0,0,0,.41-1.32,11.46,11.46,0,0,0,0-1.56l.44.4a4.93,4.93,0,0,1-.2,1.68,12.07,12.07,0,0,0-.42,2.17c-.12.56-.36,1.07-.48,1.63a10.15,10.15,0,0,0-.42,1.75,1.93,1.93,0,0,1-.26.74C36.84,138.14,36.41,139,36,139.87Z"/><path d="M109.78,44.24l0,.67-1-.51c-1.38,0-2.84-.06-4.29,0A5.43,5.43,0,0,1,102,43.9a11,11,0,0,0-1.59-.53,3.34,3.34,0,0,0-1.8,0,32.85,32.85,0,0,0-4.22,1.13A6.13,6.13,0,0,1,92,45H89.54l-.11-.32a3.41,3.41,0,0,1,1.68-.32c1.15.17,2.22-.32,3.34-.43,1.21-.71,2.63-.68,3.93-1.08a2.31,2.31,0,0,1,1.66,0c.51.21,1.09.1,1.66.36a4.44,4.44,0,0,0,2.45.56,4.72,4.72,0,0,1,1.59,0A16.6,16.6,0,0,0,109,44,3.08,3.08,0,0,1,109.78,44.24Z"/><path d="M69.88,57.45l.55-.37L70,59.75c.71,1.25,2,1.37,3.11,1.85a3.46,3.46,0,0,1-3-.92,6.34,6.34,0,0,0-.27,2.39l-1.72,2.44c0,.32,0,.75,0,1.17a2,2,0,0,1-.14.9.94.94,0,0,0,.12,1.07c.17.21.16.57.25.85a1.48,1.48,0,0,0,.23.65c.67.68.81,1.68,1.41,2.47a1.53,1.53,0,0,1-.46-.23,4.33,4.33,0,0,1-.41-.68,8.31,8.31,0,0,1-2.33,2.9l-.18-.28A7.28,7.28,0,0,1,67.9,72.8c.63-.42.5-1.09.79-1.57a7.68,7.68,0,0,0-.79-1.6,2.34,2.34,0,0,1-.23-1.17c0-.81,0-1.62,0-2.68a8.8,8.8,0,0,0-1.57,2.75h-.28c0-.08-.08-.16-.07-.2A9.41,9.41,0,0,1,67.92,65a9.38,9.38,0,0,0,1.35-1.78,4.25,4.25,0,0,0,.31-1.25.41.41,0,0,0,0-.11c0-.75,0-1.5,0-2.24S69.78,58.22,69.88,57.45Z"/><path d="M38.82,168a8,8,0,0,0-.66,4l-.36-.76-.37,1-.24,0c-.27-.42.07-.63.27-.9a6.43,6.43,0,0,0,.48-1,8.86,8.86,0,0,1,.78-3.27,46.37,46.37,0,0,0,1.74-4.73,10.14,10.14,0,0,0,.49-3c0-.88,0-1.76,0-2.65h.36c.45,3.83-.82,7.27-2.36,10.69.51.52,1,1,1.5,1.52a3.5,3.5,0,0,1,.68.9c.33.71.58,1.46.89,2.19a6.17,6.17,0,0,0,.48.87c.18.28.39.54.58.8l-.33.33-.57-.77-1,1.84c-.3.05-.33-.2-.25-.4a8.78,8.78,0,0,1,.57-1.15,6.88,6.88,0,0,1,.42-.63c-.34-.84-.67-1.65-1-2.46-.27-.64-.44-1.33-1.21-1.64C39.4,168.59,39.35,168,38.82,168Z"/><path d="M111,43.16a3.15,3.15,0,0,1-1.16-.71,7.3,7.3,0,0,0-1.08-.62,5.64,5.64,0,0,0-1.74,0,5.48,5.48,0,0,1-1.74.17,8.6,8.6,0,0,1-4.11-.66,2.48,2.48,0,0,0-.88-.19c-1.06,0-2.13,0-3.2,0-.43,0-.87-.14-1.32.17s-.86-.12-1.3.22c-.2.16-.62,0-.94,0a4.51,4.51,0,0,0-.66.18L92,41.52l.36-.33h1.44c.33-.48,1,.05,1.33-.42,0-.07.27,0,.42,0h1c.57,0,1.14,0,1.71,0s1-.14,1.51-.21a3.45,3.45,0,0,1,1.68.31,7.85,7.85,0,0,0,2.88.56c1.38-.05,2.77-.06,4.16,0a3,3,0,0,1,2.59,1.52S111,43,111,43.16Z"/><path d="M84.07,55.69H83.3l-.07-.84-.78-.28V53.29L82,52.86a6,6,0,0,1,.26-2.24l-.82.61H80.8c-.18-.18-.13-.48.19-1.26H82.7c.67.44,1.56.61,2,1.36l-.28.53c-.64.15-.92-.64-1.56-.61v1L84,52.06c.33.53-.1.74-.35,1.06A4.56,4.56,0,0,1,84.07,55.69Z"/><path d="M38.32,70.62a7.47,7.47,0,0,0-1,.5,6.19,6.19,0,0,0-.75.77c0-.27-.14-.46-.08-.57.15-.31.32-.6.74-.64a2.86,2.86,0,0,0,.76-.21,2.4,2.4,0,0,0,1-.69l.57-.82,1.94-.86.15.32a6.51,6.51,0,0,1-.71.34,4.47,4.47,0,0,0-2,1.75,1.81,1.81,0,0,0-.24.64,3.54,3.54,0,0,0,.25,3.19c.38.85.85,1.64,1.24,2.48a4.42,4.42,0,0,0,2,2,6,6,0,0,1,1.44.86c.4.4,1,.41,1.31,1,.08.17.46.21.75.33l-.08.46a32.62,32.62,0,0,0-4.23-2.58l.46,1c-.11,1.07.46,2.21.09,3.62-.07-.79-.32-1.31-.32-1.92a12.81,12.81,0,0,0-.28-1.88,24.11,24.11,0,0,0-1.83-3.11c.11-.71-.61-1.07-.71-1.74A7.6,7.6,0,0,0,38,73.22a1.27,1.27,0,0,1-.08-.61c0-.22.16-.43.2-.66s0-.43,0-.64A6.82,6.82,0,0,1,38.32,70.62Z"/><path d="M42.9,142.49,42,144.27v1.22c-.5-1.43.17-2.58.87-3.7a24,24,0,0,0,1.73-3.66c-.13-1.06.67-1.91.66-2.94,0-.13.2-.26.38-.49a2,2,0,0,1-.17,1.38,3.75,3.75,0,0,0-.41,1.53,3.11,3.11,0,0,1-.56,1.7c-.14.17-.13.45-.24.65a9.44,9.44,0,0,1-.7,1.43,1.18,1.18,0,0,0,.22,1.67c-.28,1.76.53,3.19,1.62,4.56.65.1,1.4-.18,2.15.28,0,.65.71.88,1.21,1.41l-.64,0-1-1.16-1.46-.2a10.5,10.5,0,0,0,1.06,2.07v1.39h-.36v-1.16a7.38,7.38,0,0,1-.7-1.44,7.61,7.61,0,0,0-1.23-1.95,8.8,8.8,0,0,1-.86-1.56,3.81,3.81,0,0,1-.25-1.51,7.09,7.09,0,0,0-.15-1.28Z"/><path d="M99.26,95.62l.4-.4a2.89,2.89,0,0,1,.45,1c0,1.13.71,2.1.71,3.25a7.31,7.31,0,0,0,.48,1.71,3.21,3.21,0,0,1,.12.91c0,1.81,0,3.62,0,5.54l-.73.32a1,1,0,0,1-.12-.28,11,11,0,0,1,0-2.44,7,7,0,0,0,.14-2.27,10.18,10.18,0,0,0-.38-2.17,5.37,5.37,0,0,1-.45-2.17.61.61,0,0,0-.05-.3,3.32,3.32,0,0,1-.36-.7C99.4,96.94,99.34,96.26,99.26,95.62Z"/><path d="M54.91,8.79a6.69,6.69,0,0,0-4.28-.32c0-.1-.08-.18-.06-.22a3.52,3.52,0,0,1,.27-.4c.78,0,1.59,0,2.39,0a1.63,1.63,0,0,1,.76.21,1.58,1.58,0,0,0,1,.2c1.52-.66,2.79-1.49,4.24-2a2.62,2.62,0,0,1,1.53-.09A7.24,7.24,0,0,1,63,6.94a8,8,0,0,0,2.17.95,4.89,4.89,0,0,1,1.34.89s0,.18,0,.29c-.69-.1-1.12-.66-1.77-.82A7.07,7.07,0,0,1,63,7.41a10.3,10.3,0,0,0-1.82-.76,9.53,9.53,0,0,0-1.12-.24c-.11,0-.41.09-.69.18-.56.2-1,.56-1.6.76s-1,.48-1.52.71-.45.65-.91.64c-.86,1-2.11,1.5-2.71,2.7-.46.13-.56.62-.87.91a6.67,6.67,0,0,0-.7,1.08c-.09.13-.26.19-.57.38a5.49,5.49,0,0,1,1.08-1.92,11.15,11.15,0,0,1,1.5-1.72A20.07,20.07,0,0,1,54.91,8.79Z"/><path d="M45,9.73a.85.85,0,0,1-.53.87,9,9,0,0,0-2.29,1.91,12.19,12.19,0,0,0-1.63,2.1,2.94,2.94,0,0,0-.42,2.11,4.94,4.94,0,0,0,1.62,1.7,25.66,25.66,0,0,0,3.21,2,3.89,3.89,0,0,1,1.5,1.28c-.33-.07-.51-.05-.6-.13A8.78,8.78,0,0,0,44,20.4a15.45,15.45,0,0,1-2.68-1.79c-.37-.32-.77-.62-1.23-1a5.78,5.78,0,0,0,.27,2.4c.25.68.48,1.36.74,2a2.76,2.76,0,0,0,.39.81c.1.12.05.36.09.74a7.24,7.24,0,0,1-1.29-2.53A11.37,11.37,0,0,1,39.68,16a3.73,3.73,0,0,1,.8-2,7.48,7.48,0,0,0,.9-1.34c.15-.32.64-.35.73-.75.51.08.3-.61.77-.69.32-.06.56-.5.87-.72S44.52,10,45,9.73Z"/><path d="M46.56,101l-1.34,1.77-.13,0a.26.26,0,0,1,0-.15,3.84,3.84,0,0,1,1.68-2.2,5.67,5.67,0,0,0,1-1.35v-1c0-1.12,0-1.1-.95-2.16a1.53,1.53,0,0,1-.29-1.46l.33,0v.88l1.28,1.41c.16,1.62.17,3-1.28,4a5.86,5.86,0,0,1,.48,3.11,5.88,5.88,0,0,1-.67,3.09,7.24,7.24,0,0,1,2,2.8c-.48-.19-.43-.22-.73-.67a3.38,3.38,0,0,0-1.39-1.56c-.42.43-.22,1.16-.56,1.62s-.16,1.16-.72,1.61a1.74,1.74,0,0,1-.05-.62,18,18,0,0,1,.71-2.15c.19-.43.11-.92.42-1.33a4.93,4.93,0,0,0,.54-1.16,1.76,1.76,0,0,0,0-.52v-1.49A4.73,4.73,0,0,0,46.56,101Z"/><path d="M50.24,56.1l.11.28-1.24,1.07a33.35,33.35,0,0,0-.88,9.36c.46,1.1,1.42,1.59,2.14,2.32a8.15,8.15,0,0,0,2.54,1.64l0,.33c-.91,0-1.47-.77-2.22-1.07L48.3,67.66c-.26.6.07,1.08.26,1.53a21,21,0,0,0,1,1.92,3.72,3.72,0,0,1,.17.45,4.65,4.65,0,0,1-1.57-2.23,6.76,6.76,0,0,1-.42-2.71c0-1,0-2.06,0-3.09A11.25,11.25,0,0,1,48,61.06c.21-.79.18-1.61.4-2.39q.14-.53.24-1.08c.12-.35.52-.48.66-.9C49.42,56.43,49.91,56.3,50.24,56.1Z"/><path d="M62.53,33.26h-.39a4.59,4.59,0,0,1,.21-2.45,2.92,2.92,0,0,1,1.09-1.6,8.63,8.63,0,0,1,1.25-.86,7.87,7.87,0,0,0,1.21-.74c-.1-.31-.45-.23-.69-.35a1.06,1.06,0,0,0-.82,0,9.94,9.94,0,0,0-2,.71,2.26,2.26,0,0,1-.6,0l-.77.79,0-.44a2.86,2.86,0,0,1,1.78-1c.1,0,.22,0,.3,0a4.2,4.2,0,0,1,3.17-.18A4.22,4.22,0,0,0,68.08,27a1.73,1.73,0,0,1,.49-.11,5.64,5.64,0,0,0,2.18-.42l.1,0c.91.16,1.6-.39,2.4-.75v-.51h.37l0,.4c0,.08,0,.15-.09.19A4,4,0,0,1,71,26.88c-.44,0-.87.14-1.3.2a4,4,0,0,0-1.39.25c-.4.25-.92,0-1.23.4a8.43,8.43,0,0,0-3.75,2.05,3,3,0,0,0-.82,2C62.51,32.27,62.53,32.76,62.53,33.26Z"/><path d="M62.82,56.18c-.12.4-.21.69-.29,1-.15.6-.15,1.23-.25,1.82a14.5,14.5,0,0,0-.18,1.84,5.26,5.26,0,0,0,.81,3.09,11.7,11.7,0,0,1,.5,1.08c-.25-.12-.43-.15-.51-.25A8.14,8.14,0,0,1,61.73,62a10.32,10.32,0,0,1,0-2.55c.51-.53-.06-1.31.43-1.85-.06-.67.46-1.19.44-1.66.74-.93,1.9-1.07,2.6-1.92a15.6,15.6,0,0,1-.67-2.11,11.55,11.55,0,0,1-.21-2.16l.32-.05a5.27,5.27,0,0,1,.27,1.38,6.92,6.92,0,0,0,.26,1.51c0,.45.3.87.39,1.32a8.11,8.11,0,0,1,.24,1.23,5.79,5.79,0,0,0,.22,1.5A3.61,3.61,0,0,1,66.38,58l-.37.1c-.11-1.19-.85-2.2-.68-3.46A8.7,8.7,0,0,0,62.82,56.18Z"/><path d="M108.19,68.76h-4.64c-.6,0-1.21,0-1.81,0s-1-.49-1.64-.42c-.48-.5-.95,0-1.51,0l-.45-.51,1.22-.62c.91.41,2,.38,2.84.88.11.06.28,0,.43,0,1.49,0,3,0,4.48,0a8,8,0,0,0,1.24-.23l.52.51v1C108.42,69.2,108.42,69.2,108.19,68.76Z"/><path d="M71.49,7H70.05l0-.3a.47.47,0,0,1,.75.1,2.6,2.6,0,0,0,.85-.22c1-.7,2-.41,3-.2.24.36.65.13,1,.26l.13.37a11.29,11.29,0,0,1,3-.2c.76.33,1.38.58,2,.86A3.88,3.88,0,0,1,82.33,9c.26.44.64.72,1,1.17l-.44,0c-.4-.43-.75-.85-1.14-1.23s-.84-.71-1.3-1.09h-.92c-.47.51-1.1.4-1.77.38a1.44,1.44,0,0,1,.82-.42,6.68,6.68,0,0,0,1-.27,5.92,5.92,0,0,0-1-.35c-.31,0-.65,0-1,0a13.21,13.21,0,0,0-3,.24,4.29,4.29,0,0,0-2,1c-.2.15-.37.31-.64.25-.07,0-.13-.12-.3-.28l.72-.2c.57-.86,1.69-.91,2.74-1.35a10.14,10.14,0,0,0-2-.48A4.66,4.66,0,0,0,71.49,7Z"/><path d="M55.41,62.33l-.22,0a1.58,1.58,0,0,1-.36-1.11,4.12,4.12,0,0,0,0-.86,4.62,4.62,0,0,1,.48-2.25,8.31,8.31,0,0,0,.58-1.79,15.5,15.5,0,0,1,.65-2.93,3,3,0,0,0,0-.85l.32,0s.08.06.09.09a1.08,1.08,0,0,1,0,.31A31.51,31.51,0,0,1,55.74,58c1.15.55,1.56,1.79,2.29,2.77a10.7,10.7,0,0,1,1.34,2.32,4.17,4.17,0,0,1,.39,1.55,7.59,7.59,0,0,0,.18,1l-.41.12c.16-1.12-.44-2-.68-3-.08-.3-.43-.53-.57-.83a27.19,27.19,0,0,0-1.76-2.79,5.77,5.77,0,0,0-.82-.82c-.61.63-.43,1.34-.42,2A4.73,4.73,0,0,0,55.41,62.33Z"/><path d="M42.57,96.13c-.3.87-.53,1.55-.77,2.23a4.24,4.24,0,0,1-1.13,1.76c-.06.06-.18,0-.38.08.36-.56.71-1,1-1.53a4.14,4.14,0,0,0,.51-1.48c.06-.59.43-1.08.45-1.64a34.53,34.53,0,0,0,0-3.94,6.86,6.86,0,0,0-.88-2.71,1,1,0,0,1-.11-.63l-.72-.61.13-.34c.76.21,1,.92,1.14,1.47a7.2,7.2,0,0,1,.73,2.36c.29.21.16.52.16.79q0,1.65,0,3.3a1.41,1.41,0,0,0,.21.87c.64.9,1.08,2,2.23,2.37a.58.58,0,0,1,.3.28c0,.09,0,.23,0,.49A6.56,6.56,0,0,1,42.57,96.13Z"/><path d="M81.58,32a16.93,16.93,0,0,0-2.26,0c-.61.09-1.27.25-1.48,1-.11.37-.31.72-.5,1.17-.1-.13-.27-.25-.26-.34a8.67,8.67,0,0,1,.3-1.08c.07-.13.55-.24.55-.69a4.11,4.11,0,0,1,2.35-.54,11.8,11.8,0,0,1,2.23.05,14.66,14.66,0,0,0,2.37.19l1.79,1.08v.57c-.08,0-.14,0-.17,0l-1.31-1a1.06,1.06,0,0,0-.44-.21L82.14,32l-1.57,1.57c-.54,1.62-1.24,3.21-.81,5.09l-.34.42a22.06,22.06,0,0,1,0-3.28,7,7,0,0,1,1.26-3A5.25,5.25,0,0,1,81.58,32Z"/><path d="M86.21,24.5c-.21-.11-.4-.22-.6-.31a6.62,6.62,0,0,1-2.86-2.38A5.87,5.87,0,0,0,80.82,20H79.29c-.31.5-.89.85-1,1.48-.55,0-.24-.35-.38-.49l.93-.93c-.59-.15-1.13,0-1.69-.1L77,19.71a.86.86,0,0,1,.28-.1h3.1c.52,0,.52,0,1.24.42l.3-.28V18.65l-.68-1.06c.48-.07.48-.07,1.11,1.05V20l-.45.34,1.85,2.07a5.17,5.17,0,0,0,2,1.51C86.11,24,86.34,24.11,86.21,24.5Z"/><path d="M37.15,54.72a13.55,13.55,0,0,0,.31,4c-.52.23-.31-.39-.56-.52-.09,0,0-.4,0-.62,0-1.24,0-2.49,0-3.73a5.61,5.61,0,0,1,1.06-3.52c.1-.71.77-1.05,1.14-1.84l.19.76c-1.51,1.14-1.65,2.93-2.18,4.51a4.59,4.59,0,0,0,1.47,2.09c.5.48,1,.8,1.71.36.1-.06.27,0,.42,0l.05.42h-.86c.06.12.07.2.1.22l1.84.73-.09.38C40,57.23,38.27,56.55,37.15,54.72Z"/><path d="M55.88,192.48l.32-1.2c.22-.18.4-.68.94-.42,0,.07.07.17,0,.19a2.53,2.53,0,0,0-.86,1.18c.64.27,1.1-.38,1.77-.32l-.28.6c-.88-.1-1.61.41-2.47.48a8.45,8.45,0,0,0-2.36.47c.41.49,1.17.21,1.64.65l0,.27c-.09,0-.16.07-.21.05-1.2-.47-2.4-.93-3.63-1.28a7.46,7.46,0,0,1-2.67-1.3,5.1,5.1,0,0,0-.52-.31l.08-.38a13.39,13.39,0,0,0,3.82,1.78,18.54,18.54,0,0,0,2.08,0C54.3,192.85,55.05,192.64,55.88,192.48Z"/><path d="M102.19,32.42c.61.06,1,.57,1.27.87l.58,2.16c.12-.11.23-.24.26-.22a15.18,15.18,0,0,1,3.33,2.21,2.73,2.73,0,0,0,.69,2l-.53.59a22.91,22.91,0,0,1-.66-2.66l-.53-.27-.06,1.11-.75,1.47-.38-.14a3.58,3.58,0,0,0,.68-2.85l-2-1.21L104,36.7l.43.82c-.66.16-.53-.54-.84-.73,0,0,0-.14,0-.21a7.4,7.4,0,0,0-.52-3.08l-1-.88c0,.06,0,0,0-.08S102.12,32.48,102.19,32.42Z"/><path d="M75.74,68.08a4,4,0,0,1-3.55,2l0-.28s.09-.15.13-.15a3.13,3.13,0,0,0,2.62-1.15c.16-.19.35-.35.53-.53A1.69,1.69,0,0,0,76,66.58c0-.71,0-1.43,0-2.14a10.72,10.72,0,0,0-.16-1.2l.28,0c0,.08.1.14.1.19v4.17A4,4,0,0,1,76,68.87,10,10,0,0,1,75,71.42c-.07.1-.07.27-.16.35A4.12,4.12,0,0,0,73.64,75a1.23,1.23,0,0,1,0,.32.57.57,0,0,1-.37-.82c.31-.54.12-1.09.21-1.63a15.31,15.31,0,0,0,1.91-3C75.17,69.23,76,68.79,75.74,68.08Z"/><path d="M32.87,46.1l.33,0v.76a11.49,11.49,0,0,0-1.66,2.33A24.89,24.89,0,0,1,29.2,53a2,2,0,0,0-.45,1.32c0,.43-.16.86-.19,1.29s0,.85,0,1.3l-.35.1a2.07,2.07,0,0,1,0-1.34,3.72,3.72,0,0,0,.17-1.31,4.5,4.5,0,0,1,1-2.35c.44-.66.91-1.31,1.39-2a8.59,8.59,0,0,1-2.93-1.28c.2,0,.32-.11.39-.08l2.4,1,.48-.26a8.46,8.46,0,0,1,1.36-2.35A1.71,1.71,0,0,0,32.87,46.1Z"/><path d="M82.51,78.42l.83,0a1.12,1.12,0,0,0,.15-.11c.33-.32.79-.6.94-1a5.23,5.23,0,0,1,.55-1,3.2,3.2,0,0,1,3.07-1.46,2.67,2.67,0,0,1-.34.55,1,1,0,0,1-.52.28,2.11,2.11,0,0,0-1.79,1.57A7,7,0,0,1,83.83,79h-.94Z"/><path d="M64.7,37.77l0-.61,1.84-2.61c.11-.81.18-1.53.32-2.23a2.05,2.05,0,0,1,.45-.88,6.65,6.65,0,0,1,1.2-1.1c-.37,1-1.38,1.71-1.44,3.12l.48-.78a2.6,2.6,0,0,1,1.87-1.31c.42,0,.8-.49,1.26-.12v.22a12.15,12.15,0,0,0-1.45.33,1.87,1.87,0,0,0-.85.5,10.32,10.32,0,0,0-1.11,1.57,15.11,15.11,0,0,1-1.77,2.79C65.23,36.93,65.05,37.27,64.7,37.77Z"/><path d="M70.45,77.74l1.43-.7.07.37-1.5.76c-1-.09-2.15.27-3.12-.63h-.94L62,79.45a.37.37,0,0,1,.24-.62c.72,0,1.18-.59,1.86-.7a8.06,8.06,0,0,0,1.71-.76,3,3,0,0,1,.65-.13l-1.38-.7.12-.33,3.3,1.53Z"/><path d="M92,48.1c-.13-.13-.18-.15-.18-.18s0-.28,0-.41a7.06,7.06,0,0,1,2.8-.95,13.29,13.29,0,0,1,1.84-.44c.74-.07,1.49,0,2.24,0a2,2,0,0,1,1.25.33v.42s-.11.07-.15.06a3.21,3.21,0,0,0-.57-.15c-1,0-2,0-3,0a2.91,2.91,0,0,0-1,.21,8.16,8.16,0,0,1-1.65.37A3.33,3.33,0,0,0,92,48.1Z"/><path d="M52.07,75.41h.44a9.8,9.8,0,0,1-.25,1.18,4,4,0,0,1-.47,1.08c-.21.32-.62.52-.78.85s-.7.4-.82.84a3.46,3.46,0,0,1,.35,2.21h-.37V80l-.34-.33a12,12,0,0,1-1.15,1.72c-.51.55-.34,1.34-.8,1.88L47.57,83A8.49,8.49,0,0,1,48,81.76a8.11,8.11,0,0,1,.75-1.18c.25-.37.58-.68.81-1s.43-.77.9-.89C51.13,77.65,52.16,76.81,52.07,75.41Z"/><path d="M88.53,32.69a4.85,4.85,0,0,1,.91,3.9l-.29.34c-.05-.08-.11-.13-.11-.19,0-.22,0-.43,0-.64A5.9,5.9,0,0,0,89,34.21a20.37,20.37,0,0,0-1.48-3,5.81,5.81,0,0,0-1-1c.56-.35.75.27,1.22.4l.6-2,.33.37c-.33.59-.12,1.46-.89,1.88l.7,1.36c.5-.11.88-.53,1.41-.33,0,0,0,.13.07.22Z"/><path d="M97.6,82l.73-.55h2l.06.1-.4.13.11.13H98.54l-1.05,1.28h-2.4c0-1.17-1.24-1.11-1.91-1.68-.33.07-.75-.17-1.05.21l-.31-.31.32-.33a9.06,9.06,0,0,1,1.58.17c.53.17.85.68,1.43.7l.37.82h1.77Z"/><path d="M40.71,177.48c.23.08.37.09.41.15.38.62.76,1.25,1.1,1.89.22.4.36.84.56,1.25a2.9,2.9,0,0,1,.5,2,2.47,2.47,0,0,1,.74,1.27l-.49-.34-.67.52v-2.59c-.45,0-.29.58-.74.65-.26.05-.41.57-.63.75-.38.3-.72.86-1.47.65a6.66,6.66,0,0,0,2.46-2.6C42,179.87,41.33,178.74,40.71,177.48Z"/><path d="M97.9,15.29c.65.1.67.61,1,.83a5.63,5.63,0,0,1,.84.91l.8.7,1.1.7c.1.52.61,1.07.41,1.78l-.31.05c-.16-.68-.13-1.48-.84-1.92l-.3.3a3.39,3.39,0,0,1-.19,1.2c-.18.38,0,.86-.15,1.32a3.39,3.39,0,0,0-.11,1.19l.5,1-.37.06-.33-.63c.06-1.45-.21-3,.49-4.48C99.67,17.29,98.46,16.69,97.9,15.29Z"/><path d="M85.92,15.32a10.72,10.72,0,0,0-3-2l-.73,1.44-1,.33-.17-.3c.7-.29,1.39-.61,1.34-1.48-.39-.48-1.12-.18-1.54-.72.92-.27,1.6.58,2.39.35l2.42,1.54c.35-.45,0-.83-.09-1.23.26-.1.29.14.39.18a27.76,27.76,0,0,1,.28,4.72,1,1,0,0,1-.13.54,1.84,1.84,0,0,1-.08-.38c0-.32,0-.65,0-1C86,16.66,86,15.94,85.92,15.32Z"/><path d="M75.9,12.53a4.7,4.7,0,0,1-2,1.51,5.09,5.09,0,0,1-3.18.3l1-.11a1.24,1.24,0,0,1-.12-.22c-.17-.4-.32-.81-.51-1.29.67.34.73.43.92,1.31a3.18,3.18,0,0,0,2.17-.61,1.72,1.72,0,0,1,.33-.22A2.64,2.64,0,0,0,76,11.34a2.26,2.26,0,0,1,.26-.64,1.85,1.85,0,0,0,.38-1.33l.42,0a2.84,2.84,0,0,1-.36,1.33c-.14.34-.25.68-.38,1a1.71,1.71,0,0,0,.09,1.48c.13.24.41.5.15.86h-.3Z"/><path d="M101,64.27a2.23,2.23,0,0,1-1.45-2.7l.45-.45,1.62-.19.39.4c-.66.29-1.14.72-1.88.57l.32,1.06a1.62,1.62,0,0,0,1.59.66c0,.64,0,.65-.38.65S101.15,64.27,101,64.27Z"/><path d="M93.71,17.25l-.35,0a10.71,10.71,0,0,0,.14-1.93,2.29,2.29,0,0,0-.56-1.65c-.53-.4-.46-1.23-1.22-1.43s-1.44.21-2.27.32l.74-.42-.19-.2h1.07l.33-.34L90,10.44c.62,0,1,0,1.21.49.1.21.54.28.6.48.14.52.72.65.88,1.13s.56.77.8,1.17A4.14,4.14,0,0,1,94,16.28C93.59,16.51,93.81,16.93,93.71,17.25Z"/><path d="M89,41.64l-1.35.27-.31.8-.19,0c0-.45,0-.9,0-1.35A1.61,1.61,0,0,0,86.69,40a1.67,1.67,0,0,1-.44-1.31,5.78,5.78,0,0,1,.38-2.29c.1-.24.08-.53.17-.79.27,1.25-.39,2.46,0,3.8a2.72,2.72,0,0,1,.75,2.18c.54-.33,1.14-.1,1.63-.43s.62-.84.94-1.48l.24.57Z"/><path d="M95.75,21.36l.6-.06.89.76.1-.09c.54,1.35,1.07,2.69,1.63,4a6.72,6.72,0,0,0,.52.85h-.57L98.15,25c-.56.15-.66.75-1.08,1s-.85.49-1.32.75l-.11-.4a3.65,3.65,0,0,0,2-1.79,1,1,0,0,0,.12-.58,5.46,5.46,0,0,0-.28-.73A2.46,2.46,0,0,0,96,21.73C95.94,21.71,95.9,21.58,95.75,21.36Z"/><path d="M62.73,70.16v.68a9.44,9.44,0,0,1-2.32,1.4v.44L59,75.38c-.3-.14-.44-.37-.26-.56A13.9,13.9,0,0,0,60,72.65h-.79a1.79,1.79,0,0,1-1.7.77c.82-.44,1.28-1,2.11-1.27A6.06,6.06,0,0,0,62.73,70.16Z"/><path d="M78.56,68.25a1.91,1.91,0,0,1,.63,1.41,10.25,10.25,0,0,0,0,1.37,2.49,2.49,0,0,1,0,1.22,8.85,8.85,0,0,1-1,3.4c-.25.43-.54.83-.83,1.25L77,76.78a7.12,7.12,0,0,1,.51-.87,5.21,5.21,0,0,0,1.09-2.75A24.66,24.66,0,0,0,78.77,70a1.75,1.75,0,0,0-.2-1.2C78.51,68.67,78.56,68.5,78.56,68.25Z"/><path d="M56.7,79a3.66,3.66,0,0,1,1.87-2.16,17.88,17.88,0,0,1,3-1.29,8.5,8.5,0,0,0,1.55-.87,4.41,4.41,0,0,1,1.31-.58,3.49,3.49,0,0,1-1.2,1.06c-1.25.66-2.63,1-3.87,1.69a9.59,9.59,0,0,0-1.28.76,2.64,2.64,0,0,0-.64.89A.68.68,0,0,1,56.7,79Z"/><path d="M108,46.32c.69,0,1.4,0,2.11,0a3,3,0,0,1,1.91.79c.37.35.8.65,1.27,1l-.47.23c-.2-.16-.54-.37-.82-.63a3.76,3.76,0,0,0-4.14-.66c-.31.15-.6.48-1,.2C106.86,46.61,107.61,46.73,108,46.32Z"/><path d="M62.89,40c-.91-.27-1.12-.9-1.54-1.42l-.6,1.53h-.3l.58-2a2.33,2.33,0,0,1-.44-1.37c0-.17-.12-.36-.19-.55l-.81-2.08c.15.07.36.09.46.21a9.09,9.09,0,0,1,1,2.56,2.53,2.53,0,0,0,.76,1.71c.26.29.55.55.82.84A4,4,0,0,1,62.89,40Z"/><path d="M83.86,39.87l-.53.05c0-.91-.64-1.68-.5-2.64a3.79,3.79,0,0,1,1.11-2.42.79.79,0,0,1,.27-.1l.16.25-.89,1-.27,1.49.15.09.64-.63,1.36-.27,0,.46a2.1,2.1,0,0,0-1.94,1C83.56,38.67,83.26,39.28,83.86,39.87Z"/><path d="M107,29.54a1.07,1.07,0,0,0-.15,1.54l-.37.08c0-.07-.12-.12-.12-.18a5.71,5.71,0,0,1,0-1.17,6.54,6.54,0,0,0-.23-4.11l.32-.17.46,1.15.25-.49.3-1.44c.4-.08.47.17.37.36a3.12,3.12,0,0,0-.21,1.48l-.63.52Z"/><path d="M90.78,28l.56.23c.33.91,1.14,1.74.89,2.93l1-.25,0,.42h-.45a6.4,6.4,0,0,0-2,2.82l-.31,0c0-.12,0-.28,0-.37.39-.7.8-1.38,1.24-2.13A4.73,4.73,0,0,0,90.78,28Z"/><path d="M95.83,29.4a4.32,4.32,0,0,1-1.55,4.3A2.88,2.88,0,0,1,95,32.39a1.55,1.55,0,0,0,.5-1.29,6.77,6.77,0,0,1,.18-1.84c.15-.55,0-1.16.22-1.74v1.32l.93-1.11V27.1l.32,0C97.39,28.18,96.46,28.64,95.83,29.4Z"/><path d="M68.91,23.55c-.42-.53.11-.89.06-1.32a4,4,0,0,1,.23-1.17c-.4-.5-1-.75-1.27-1.38V17H68l.22,2.57.9.83c.53.13,1.18.5,1.83-.05l.13.32c-.4.49-.93.37-1.41.39l-.29.29C69.25,22,69.62,22.86,68.91,23.55Z"/><path d="M70.2,34.72v.83c-.26.26-.57.59-.9.9s-.7.58-1,.9a7.38,7.38,0,0,0-.79,1,5.32,5.32,0,0,0-.66,3.22l-.36,0c0-.07-.1-.14-.1-.19a16.17,16.17,0,0,1,.23-1.72,7.29,7.29,0,0,1,.51-1.49,4.42,4.42,0,0,1,1.67-1.83A6.79,6.79,0,0,0,70.2,34.72Z"/><path d="M101.61,26.65h.89a13.77,13.77,0,0,0,.63-1.35,1,1,0,0,1,.82-.79,7.73,7.73,0,0,0,1-.38l.1.24c-.48.37-1.21.3-1.54,1,.08,1.11.72,2.19.66,3.41l-.34,0c-.28-.43.17-1-.3-1.38a2,2,0,0,0-.27-1.34l-.85,1h-.76Z"/><path d="M79,42.83c.8.23.7.88,1,1.29a2.54,2.54,0,0,1,.34,1.55,2.62,2.62,0,0,1,2.35.85s0,.12-.09.27c-.58-.38-1.24-.57-1.84-.91-.56.25-.68.81-1,1.32l-.43-.14.54-.68a10.54,10.54,0,0,0-.17-1.77A7.17,7.17,0,0,1,79,42.83Z"/><path d="M77.93,25c-.67-.31-1,.55-1.74.27.44-.5,1.09-.61,1.58-.93s1.11-.59,1.64-.93,1-.74,1.72-1.24c-.06.33,0,.54-.12.6-.48.37-1,.73-1.48,1.06s-.86.49-1.39.78a3,3,0,0,1-.35,1.79l-.33,0Z"/><path d="M87.59,65.94c.06.13.13.25.18.38.14.37.46.8.37,1.1s.22.78,0,1.11c-.34.59-.13,1.22-.21,1.82-.29.36-.38.91-1.06,1,0-.2,0-.38.13-.47a1.83,1.83,0,0,0,.52-1.49c0-.46,0-.93,0-1.39a2.57,2.57,0,0,0-.2-1.41c-.09-.14,0-.39,0-.59Z"/><path d="M84.62,30.13c-.34-.08-.58-.06-.71-.17a2.57,2.57,0,0,0-1.48-.53c-.37,0-.72-.14-1.09-.21s-.67.11-1-.19c-.12-.12-.46,0-.71,0l0-.45,1.28.23c.4.07.79.11,1.17.17-.3-.66-.3-.66-.79-1l.1-.26c.34,0,.83.49,1.22,1.18C83.25,29.3,84.09,29.27,84.62,30.13Z"/><path d="M79,61.5h.29s.07,0,.07.07A12.75,12.75,0,0,1,79.63,64c0,.19-.09.38-.15.63.41.69.41.69.26,1.83l-.42-1.41-.85,1.76-.3-.28c.28-.56.54-1.11.82-1.66a1.26,1.26,0,0,0,.22-.76A5.53,5.53,0,0,0,79,62.08C78.93,61.93,79,61.69,79,61.5Z"/><path d="M99.56,36.31c.91-.11,1.35.49,2,.65a2.32,2.32,0,0,0-.3-1.88l.77.35a3.19,3.19,0,0,1-.74,2.62,5.72,5.72,0,0,0-.64,1.44l-.36-.07.88-2.08Z"/><path d="M79.38,16l0,.28a5.72,5.72,0,0,1-2.69.32c-.12.61-.61.71-1.17.76l.73-.73h-2l-.07-.46c1.33,0,2.59,0,3.86,0C78.52,16.17,78.92,16.07,79.38,16Z"/><path d="M97.12,33l.68,1.58a5.35,5.35,0,0,1-.36,2.14A5.54,5.54,0,0,0,97.32,38L97,37.68c-.1-1,.45-1.78.6-2.76l-.28-.58H95.92L95.86,34c.36,0,.69-.15,1,.25L97,33.06Z"/><path d="M48.45,92.6a2,2,0,0,1-.65-1.46,9.5,9.5,0,0,1,0-1.6A1.91,1.91,0,0,0,47.3,88a3.77,3.77,0,0,1-.43-.8l.34-.1,1,1.48v1.31c0,.43,0,.86,0,1.28S48.36,92,48.45,92.6Z"/><path d="M90.34,15.25l-1.89.84A17,17,0,0,0,90,18.18a2.16,2.16,0,0,1-.53-.23c-.22-.18-.4-.4-.61-.59a1.75,1.75,0,0,1-.64-1.54c0-.35,0-.7,0-1.08l.38-.08.1,1,1.6-.77Z"/><path d="M98.55,29.44l.62-.63h.46l.09.09a2.71,2.71,0,0,1-1.41,1c-.55.76-.16,1.67-.34,2.52l-.3,0c0-.08-.08-.13-.08-.19a4,4,0,0,1,0-1.47c.17-.41.08-.86.36-1.25.14-.18,0-.6-.08-.91C98.37,28.81,98.37,28.81,98.55,29.44Z"/><path d="M94.2,37l.3-.34.18.52.3-.71.27.18v-.79l.34,0a1.43,1.43,0,0,1-.6,1.62V40.1h-.4c0-.57,0-1.13,0-1.69A2.08,2.08,0,0,0,94.2,37Z"/><path d="M103.53,30.68l.27.58c-.24.16-.24.16-.85-.35-1,.19-1.89.89-3,.61v-.29l1.79-.29c.11-.27.15-.61.34-.72s.1-.55.28-.76h.3c.18.49-.19.81-.35,1.22Z"/><path d="M90.75,23.31A12.92,12.92,0,0,1,92,22.22c0,.88-.87,1-1,1.63a6.34,6.34,0,0,0,.27.61c.08.16.32.22.35.53-.69-.2-.94-.73-1.23-1.22V22h.4Z"/><path d="M91,35.44c.1,0,.25,0,.28,0a4.89,4.89,0,0,1,.68,1.1,6,6,0,0,1,.41,3.33h-.31c-.2-.78.13-1.59-.25-2.36S91.29,36.15,91,35.44Z"/><path d="M106.79,34.25a2.21,2.21,0,0,1,.86,1.53l-1.84-2.1h-.51v-.33c.53,0,.53,0,1,.34l.39-1.91A16,16,0,0,1,106.79,34.25Z"/><path d="M92.37,21.08h-.31V17.91h.37V19.2l.9-.61c-.07.32-.06.54-.14.58a1.41,1.41,0,0,0-.74,1.61.74.74,0,0,1,0,.21S92.41,21,92.37,21.08Z"/><path d="M70.32,44.39l.32.31c-.56.64-1.11,1.3-1.68,1.92-.37.4-.33.93-.52,1.39h-.35a3.05,3.05,0,0,1,.76-1.89A22,22,0,0,1,70.32,44.39Z"/><path d="M45.07,72.32l.52.31a2.26,2.26,0,0,1-.17,1.63,5.82,5.82,0,0,0-.22,1.95l-.31,0c0-.07-.1-.13-.09-.19,0-.77-.22-1.61.42-2.27,0-.25,0-.5,0-.74S45.13,72.62,45.07,72.32Z"/><path d="M99,32.44l.56.5.5-.77c.06.13.13.21.11.28-.08.46-.17.91-.23,1.22l.71,1.39-.35.22C100,34.25,99.12,33.54,99,32.44Z"/><path d="M45.24,59.1c-.74.12-1.31.46-2,.15a1.76,1.76,0,0,1,.44-.21,4.82,4.82,0,0,0,2.5-1.43,7,7,0,0,1,.79-.46C46.66,58.21,45.54,58.29,45.24,59.1Z"/><path d="M59.31,51.8c0-.37,0-.59,0-.69a4.36,4.36,0,0,0,1-3.43l.3-.09A5,5,0,0,1,59.31,51.8Z"/><path d="M100.15,77.4l.75.77h.45l.13.35-.82.1-1.13-1.29v-1A1.51,1.51,0,0,1,100.15,77.4Z"/><path d="M102.38,38.26l-.54-.36,0-.12.8.1.07-.49.29-.06a.87.87,0,0,1-.19,1.11l.59,1.22-.78.05.22-.3Z"/><path d="M103.16,63.79V63.3l.59-.31h.79l.45.53C104.31,63.65,103.8,64,103.16,63.79Z"/><path d="M99.93,48.29l.43,0,1.07,1.07,0,.73c-.77-.37-.63-1.42-1.57-1.47Z"/><path d="M76.64,71.11v1.18l-.33.33c0-.1-.12-.2-.09-.25a4,4,0,0,0,.21-1.78c.22-.17.33-.56.88-.55Z"/><path d="M140.58,130.7l-.15.29-1.32-.77-.4-.66-.38,2-.34.08c.07-.68.13-1.3.21-1.93a3.93,3.93,0,0,0-.43-2,11.25,11.25,0,0,1-.59-1.78c-.15-.68-.78-1-1-1.64-.38,0-.77,0-1.16,0a5.88,5.88,0,0,1-2-.36,7.13,7.13,0,0,0-1.15-.1,2.82,2.82,0,0,0-2.35-.61l-.34-.53.12-.11a.92.92,0,0,0,.25.2,2.06,2.06,0,0,0,.43,0,4.48,4.48,0,0,1,1.84.44,9.71,9.71,0,0,0,1.64.44,13.49,13.49,0,0,0,2.67.19,24,24,0,0,1,2.4,1.28c.69,0,1.41-.06,2.11,0s1.07-.28,1.63-.23,1-.28,1.55-.35c.81-.11,1.51-.65,2.36-.5,2.08-.64,4.22-.36,6.34-.44a15.58,15.58,0,0,0,1.85-.27l1-.54.29.27-1.09.61,1.36.7-.16.37-1.33-.68h-4.16a4.27,4.27,0,0,0,1.48,1.1l.31.7c-.1,0-.17.06-.2,0-.7-.55-1.36-1.15-2.1-1.63a2.44,2.44,0,0,0-2.12-.16c-.56.2-1.19-.1-1.66.36-.79-.18-1.43.41-2.18.42-.22.34-.65.08-.85.25s-.6.13-.89.18-.72.17-1.09.21-.7,0-1.3,0a7.15,7.15,0,0,0,.79.43,2.07,2.07,0,0,1,1.08.75c.25.31.61.49.88.78a6.14,6.14,0,0,0,1,.73c0,.12,0,.43.2.54a3.49,3.49,0,0,0,1,.4,6.28,6.28,0,0,0,2.24.24,4.91,4.91,0,0,1-2.86,0c.39.44.74.71,1,1s.84.25.82.92c-.68-.4-1.48-.53-1.72-1.4-.83-.82-1.36-1.94-2.48-2.48-.44-.88-1.34-1.12-2.14-1.5s-1.54-.71-2.37-1a7.89,7.89,0,0,1,.75,2,13.36,13.36,0,0,1,.71,1.95,1.16,1.16,0,0,0,.44.66C139.54,130,140.05,130.31,140.58,130.7Z"/><path d="M164.76,137.67c-.8-.62-1.54-1.24-2.33-1.78a2.73,2.73,0,0,0-1.79-.21,11.32,11.32,0,0,1-.71,4.49l-.38-.07c.14-.61.38-1.16.47-1.75a6.47,6.47,0,0,0,0-3,2.36,2.36,0,0,1,0-.75,45.09,45.09,0,0,0-.25-4.93,3.13,3.13,0,0,0-.84-2c-.26-.29-.36-.74-.8-.85a1.94,1.94,0,0,1,0-.45,4.54,4.54,0,0,1,1.93,2.85,13.57,13.57,0,0,1,4.06.92l-.34.36a11,11,0,0,0-3.66-.86c-.06.12-.13.19-.12.23a2.16,2.16,0,0,0,.16.34c.09.83.21,1.66.25,2.48s0,1.64,0,2.5h1.65c.88.65,1.66,1.19,2.41,1.77a5.47,5.47,0,0,1,1,.91,11.94,11.94,0,0,1,2,3.25l-.31.14a8.09,8.09,0,0,1-.56-1,3.15,3.15,0,0,0-.71-1.1,4.84,4.84,0,0,1-.58-.82,1.47,1.47,0,0,0-.43-.49v3.71a4.69,4.69,0,0,0,0,1.06,5.5,5.5,0,0,0,.4.9,1.37,1.37,0,0,1,0,.46l3.61.56v.38l-3.36-.51a17.87,17.87,0,0,0,.56,1.74,2.91,2.91,0,0,0,.9,1.22,8.83,8.83,0,0,1,1.43,1.6c-.16-.07-.31-.16-.48-.22s-.18,0-.2,0c-.41-.64-1.13-1-1.58-1.57a1.58,1.58,0,0,1-.22-.23,5.86,5.86,0,0,1-.38-.8c-.21-.59-.4-1.19-.65-1.76a3.42,3.42,0,0,0-.27-1.28,2.31,2.31,0,0,1-.22-1.3c0-.75,0-1.5,0-2.24S164.67,138.3,164.76,137.67Z"/><path d="M173.23,164a1.3,1.3,0,0,1,.76-1.22,1.36,1.36,0,0,0,.75-.74v-.64a9.14,9.14,0,0,0-.86-4.77,1,1,0,0,0-.35-.49c-.72-.4-1.39-1-2.34-.82-.33.74.16,1.46.13,2.2s.46,1.3.67,2l-.38.1a7.53,7.53,0,0,1-.73-3,16.82,16.82,0,0,0,0-2.13,24,24,0,0,1,.46-2.92c0-.1.19-.2.38-.39a25.35,25.35,0,0,1-.67,3.91l.55,0a1.79,1.79,0,0,1,1.53.43c1.08.08,1.06,1.06,1.38,1.74a6.15,6.15,0,0,1,.22.87,4.73,4.73,0,0,1,.23,1.41c0,1,0,2,0,3a3.14,3.14,0,0,0,.41,2.07c.08.11,0,.33,0,.49s-.25.06-.26,0a2.45,2.45,0,0,1-.36-.77,13,13,0,0,1,0-1.54A5.46,5.46,0,0,0,173.23,164Z"/><path d="M171.11,144.92l.41.49V148l.8.65.32,1.27-.41.07v-.73l-.82-.72c-.13.37-.26.8-.41,1.22a9.4,9.4,0,0,1-1.44,2.29c-.17.24-.36.47-.56.72l-.33-.16c.4-.54.76-1.08,1.16-1.57a8.28,8.28,0,0,0,1.26-2.79,2.71,2.71,0,0,0,0-2.28C171,145.76,171.11,145.43,171.11,144.92Z"/><path d="M152.49,127.85c.07,1.18-.55,2.16-.38,3.26l1.26,2h1l.39.41h-1.13l.44,2.09-.14.07c-.1-.17-.28-.34-.3-.52a5.84,5.84,0,0,0-1-2.46c-.29-.46-.46-1-.75-1.39a.93.93,0,0,1-.18-.78A7.89,7.89,0,0,1,152.49,127.85Z"/><path d="M153.69,185.68l-.36.33.19-.67c-.49-1,.25-1.9.32-3l.87.39a5.49,5.49,0,0,0-.45,1.09,2.55,2.55,0,0,0,.23,1.79c.18.3.3.64.5,1.07l-.73.05Z"/><path d="M148,146.5l-.32.29a1.07,1.07,0,0,1-.23-.07.63.63,0,0,1-.25-.84,1.38,1.38,0,0,0,0-1.44c-.07-.13,0-.34,0-.52a.61.61,0,0,1,.82-.3Z"/><path d="M154,140.52l.41-.47c.19.18.47.32.46.44a2,2,0,0,0,.85,1.65v.55l-.43,0A3.22,3.22,0,0,1,154,140.52Z"/><path d="M107.88,54.16a1.75,1.75,0,0,1,1.48-2.25l2.9-.31.93.93c0,.52,0,.95,0,1.37a9.75,9.75,0,0,1-.3,1.18c-.68,0-1.48.21-2.18-.44a6.46,6.46,0,0,1-2.61-.28C108,54.33,107.94,54.22,107.88,54.16Zm2.32-1.43a4.61,4.61,0,0,0-.75,0,1.33,1.33,0,0,0-.64.23,2,2,0,0,0-.32.61,2.81,2.81,0,0,0,1.82.16C109.76,53.4,110,53.1,110.2,52.73Z"/></g></svg>