<svg id="Layer_1" data-name="Layer 1" xmlns="http://www.w3.org/2000/svg" viewBox="0 0 200 200"><g id="Y0lfT1"><path d="M76.34,192.5a4,4,0,0,1-1.23.5,12.65,12.65,0,0,1-5.27-.79,3.61,3.61,0,0,1-2.07-2.12,2,2,0,0,0-1.24-1.19,28.55,28.55,0,0,1-3.31-1.56,7.82,7.82,0,0,1-4.3-7.22c0-4.07-.14-8.13-.12-12.19,0-2.87.15-5.74.31-8.6.17-3.07.42-6.14.65-9.21.18-2.5.35-5,.58-7.5.3-3.3.66-6.6,1-9.89.26-2.5.56-5,.81-7.48a5.56,5.56,0,0,1,2.08-3.84,34.85,34.85,0,0,1,3.11-2.27A1.86,1.86,0,0,0,68.2,118c.34-1.49.78-2.95,1-4.46a3.06,3.06,0,0,1,2-2.53A20.52,20.52,0,0,1,75,109.9c1-.18,1.84-.34,2.2-1.46a4.41,4.41,0,0,1,.83-1.37,3.88,3.88,0,0,0,.87-2.56c0-4.69.16-9.39.09-14.08,0-2.86-.39-5.72-.61-8.57-.2-2.6-.41-5.18-.62-7.78-.22-2.76-.43-5.53-.65-8.3q-.3-3.89-.61-7.77c-.26-3.27-.54-6.55-.81-9.82-.16-2-.29-4-.44-6-.27-3.36-.55-6.73-.82-10.09-.15-1.9-.28-3.81-.43-5.72-.21-2.8-.45-5.59-.66-8.39-.12-1.61-.21-3.22-.29-4.83,0-.23,0-.6.15-.67.73-.36.43-.95.37-1.47-.11-1,.23-1.55,1.18-1.65,1.63-.17,3.27-.28,4.91-.33C81.73,9,83.83,9,85.92,9a1.23,1.23,0,0,0,1.38-.84A2.49,2.49,0,0,1,90,6.49c.71,0,1.43,0,2.15,0,.49,0,.71-.18.7-.68s0-1.2,0-1.79A1.29,1.29,0,0,1,93.9,2.57,3.72,3.72,0,0,1,95,2.39c2.81,0,5.62.09,8.42.17,1.16,0,1.42.3,1.68,1.45.14.64.17,1.45.58,1.84s1.19.28,1.82.38a5.45,5.45,0,0,0,.89.08,2.7,2.7,0,0,1,2.09.87,5.46,5.46,0,0,1,.76.76A2.57,2.57,0,0,0,113.69,9c2.87,0,5.74,0,8.61,0a11,11,0,0,1,2.21.28,1.56,1.56,0,0,1,1.4,2,2.31,2.31,0,0,0,.18,1.16,5.18,5.18,0,0,1,.13,1.93c-.13,2.15-.32,4.29-.46,6.44-.1,1.52-.16,3-.25,4.56,0,.63.13.91.85,1.05a11.59,11.59,0,0,1,4.6,1.65,11.27,11.27,0,0,1,4.42,5.92,30.34,30.34,0,0,1,1.11,5.52c.25,2,.28,4.1.4,6.16s.22,3.82.26,5.73c0,1.07-.09,2.14-.14,3.22-.1,2.21-.16,4.42-.31,6.62-.16,2.38-.38,4.76-.61,7.14-.18,1.81-.47,3.61-.62,5.42A16.89,16.89,0,0,1,133,80.45c-.17.32-.35.63-.52.94h0c-.9.92-1.72,1.92-2.7,2.74A14.11,14.11,0,0,1,122.69,87c-1.57.23-1.62.19-1.64,1.74q-.1,8.34-.15,16.68a3.31,3.31,0,0,0,.38,1.23,24.08,24.08,0,0,1,1.12,2.43,1.69,1.69,0,0,0,1.41,1.17c1.29.36,2.56.77,3.82,1.23a3.16,3.16,0,0,1,2.08,3.3,13.73,13.73,0,0,0,.61,3.14,1.37,1.37,0,0,0,.75.78,8.61,8.61,0,0,1,3.82,3.14,11.94,11.94,0,0,1,1.93,4.77c.73,3.2,1.37,6.43,1.82,9.67a101.08,101.08,0,0,1,1.14,14.55c0,2.93.12,5.85.16,8.78.06,5.86.13,11.72.13,17.57q0,3.68-.35,7.34a5.35,5.35,0,0,1-2.56,3.73,10.54,10.54,0,0,1-2.22,1.13,1.28,1.28,0,0,0-.9.89,3,3,0,0,1-2.76,2.34c-1.68.18-3.39.23-5.08.25a1.61,1.61,0,0,1-1.44-1.07.86.86,0,0,0-1-.54c-1.66.16-3.33.29-5,.43-1.25.1-2.5.22-3.75.29q-2.82.14-5.64.21c-4.78.13-9.56.34-14.34.32-4.12,0-8.24-.29-12.35-.49-1.58-.07-3.16-.2-4.73-.37a1.46,1.46,0,0,0-1.6.84ZM72,191.4h0l-.18-.18-.18-.18-.18-.18-.18-.18h0l.18.18.18.18.18.18Zm55.1-107.85-.18.18-.18.17-.35.18-.18.19-.54.35-.18.18-.36.18-.35.18-.36.18-.36.18-.08,0s0,0,0,0l.12-.08.36-.18.36-.18.35-.18.36-.17.18-.19.54-.35.18-.18.36-.18.18-.18.18-.18.18-.18a2.6,2.6,0,0,0,.45-.28,16.77,16.77,0,0,0,4.35-6.37c.42-1.08.81-2.18,1.23-3.26.05-.13.24-.2.36-.3a1.19,1.19,0,0,1,0,.42c-.46,1.42-.87,2.86-1.41,4.24a16.45,16.45,0,0,1-4.09,5.91l-.18.19-.54.35h0l.53-.35.19-.18a16.81,16.81,0,0,0,2.12-1.6,15.42,15.42,0,0,0,4.13-9c.26-2,.38-4,.57-6.06a128.43,128.43,0,0,0,.9-15.18c-.1-3.88-.2-7.76-.44-11.63a19.2,19.2,0,0,0-1.8-7.36,7.72,7.72,0,0,0-3-3.59l-.18-.18h0l.18.18c.73,1,1.53,1.9,2.2,2.91a12.19,12.19,0,0,1,1.58,5.46c.33,2.69.6,5.4.73,8.1.12,2.32,0,4.65,0,7a3.89,3.89,0,0,1-.29,1,4.14,4.14,0,0,1-.24-.95,93.2,93.2,0,0,0-.78-14.74,14,14,0,0,0-2.15-6.56,18.9,18.9,0,0,0-1.87-2c-.33-.34-.5-.57.12-.71v0l0,0c-.86-.34-1.7-.74-2.57-1-2.35-.72-4.81-.46-7.21-.72a.82.82,0,0,0-.29.07,1.82,1.82,0,0,0,.31.16,13.8,13.8,0,0,1,5.16,3.15,12.63,12.63,0,0,1,3.57,6.7,42.21,42.21,0,0,1,.84,8.54c.18,5.14.06,10.27-.26,15.41a71.93,71.93,0,0,1-1.69,12.58c-.9,3.71-2,7.34-5.21,9.86h0c.61-.52,1.25-1,1.81-1.56.77-.78,1.46-1.64,2.22-2.44a2.27,2.27,0,0,1,.66-.33,2.88,2.88,0,0,1-.27.59c-.68.9-1.39,1.78-2.09,2.67h0l-1.79,1.62-.54.36h0l.54-.35c.79-.43,1.56-.86,2.36-1.27a2.44,2.44,0,0,1,.62-.12,2.76,2.76,0,0,1-.37.46c-.28.22-.58.41-.87.62l-2.27,1.57-.12.08.11-.09c1.25-.63,2.49-1.27,3.75-1.89.29-.15.58-.52.93-.08ZM90.53,97.72l.18.18.18.18,1.62,1.61.18.18.18.18.18.18.18.18.53.36.18.18.37.18c.45.37.91.75,1.38,1.1a1,1,0,0,0,.49.18c.12,0,.26-.07.39-.11a1.37,1.37,0,0,0-.27-.22l-2-1-.36-.17-.19-.19-.53-.35-.18-.18-.18-.18-.18-.18-.18-.18-1.61-1.62-.18-.18Zm14.72,2.33Zm4.3-92.25-.18-.17-.08,0,.08,0,.18.19Zm-4.84,92.62-.18.18c-.79.47-1.58.94-2.36,1.42a1.94,1.94,0,0,0-.26.23c.1,0,.24,0,.31,0,.77-.54,1.54-1.1,2.3-1.65l.18-.18Zm5.92,3.77h0l.17.18.18.18h0l-.18-.17ZM89.45,8.88h0l-.36-.17-.54-.37h0l.53.36Zm39.13,181.8.18.18.72.54.3.26,0-.07-.35-.18-.72-.54-.18-.18a.12.12,0,0,0,0-.05h-.05Zm3.58-.17h0l.22.11ZM96.81,116.74l.06.06h.06l-.13-.06-.38-.12v.06Zm-8.43-9.87.18.36.4.75a3.48,3.48,0,0,0-.69-.17.63.63,0,0,0-.37.25c-.06.08,0,.24,0,.35a1.26,1.26,0,0,1-.23.3.91.91,0,0,1-.17-.28c-.08-.41-.11-.83-.2-1.24a.4.4,0,0,0-.32-.2c-.67.12-.9,0-.81-.66.14-1,.44-1.91.66-2.86a4.24,4.24,0,0,0,.23-1c0-.83-.08-1.67-.12-2.5q-.18-3.18-.33-6.36c0-.51-.15-.83-.77-.84-1.7,0-3.4-.1-5.1-.18-.5,0-.71.12-.71.64q0,5.7,0,11.4a1.18,1.18,0,0,0,.81,1.23c1.24.52,2.47,1.07,3.69,1.62a1.82,1.82,0,0,1,.45.38c-.2.06-.44.21-.62.16-1.39-.42-2.79-.84-4.16-1.32-.36-.13-.54-.14-.74.17-.4.63-.81,1.26-1.22,1.88s-.26.8.31,1a2.83,2.83,0,0,1,.66.6l-.91-.13-.47,0a2,2,0,0,0,.39.33c.51.25,1,.44,1.54.71a4.73,4.73,0,0,1,.76.66,3.9,3.9,0,0,1-1,0c-.5-.16-1-.43-1.48-.62a1.18,1.18,0,0,0-.46,0c.07.15.12.34.24.42a4.29,4.29,0,0,0,.89.43c1.38.47,2.78.91,4.15,1.4a3.37,3.37,0,0,1,.75.52l-.94,0a.35.35,0,0,1-.17,0l-4.5-1.5a1.64,1.64,0,0,0-.32,0c.07.08.12.22.21.25,1,.39,1.92.85,2.92,1.14a51.92,51.92,0,0,0,13.48,1.61q3.87.09,7.72,0a62.63,62.63,0,0,0,7.88-.28c3.71-.53,7.38-1.43,11.06-2.2,1-.22,1.13-.44,1-1.49,0-.52-.22-.67-.74-.49-.91.32-1.82.6-2.74.84a4,4,0,0,1-1,0c.27-.18.53-.38.81-.53A3.83,3.83,0,0,1,119,111c.74-.21,1.5-.4,2.24-.63.13,0,.23-.21.35-.32a1.53,1.53,0,0,0-.4-.09,2.53,2.53,0,0,0-.53.12c-.75.18-1.5.37-2.26.52a1.64,1.64,0,0,1-.57-.08,1.53,1.53,0,0,1,.45-.33c.91-.3,1.83-.57,2.74-.87.09,0,.15-.15.23-.23-.12,0-.25-.09-.36-.06-.63.19-1.25.41-1.87.6a1.09,1.09,0,0,1-.39-.06c.08-.12.14-.28.25-.33.53-.27,1.09-.5,1.62-.77.14-.07.23-.23.34-.35a2,2,0,0,0-.49,0l-3.84.9c-.13,0-.3-.07-.45-.11a1.56,1.56,0,0,1,.34-.25c1.14-.37,2.28-.73,3.41-1.11a2.55,2.55,0,0,0,.56-.36l-.71-.08a.7.7,0,0,0-.17.06c-1.75.39-3.49.78-5.25,1.15a1.51,1.51,0,0,1-.57-.11c.14-.12.27-.31.43-.37,1-.35,2-.67,3.06-1s1-.33,1-1.39c0-3.8,0-7.6,0-11.4,0-1.68,0-1.66-1.73-1.42-1.24.17-2.5.26-3.75.35-.13,0-.28-.13-.43-.2a1.29,1.29,0,0,1,.36-.23c.53-.11,1.06-.19,1.59-.28.9-.15.94-.19.92-1.08s0-1.85-.07-2.77c0-.29.16-.66-.3-.7s-.44.38-.44.69c0,.9,0,1.8,0,2.69a1.7,1.7,0,0,1-.16.53,1.31,1.31,0,0,1-.25-.5c-.08-.95-.11-1.9-.2-2.86,0-.18-.21-.35-.32-.53-.1.18-.29.36-.3.55,0,1,0,2,0,3a1.67,1.67,0,0,1-.19.54,1.58,1.58,0,0,1-.25-.48c-.07-1-.11-2-.18-3a2.78,2.78,0,0,0-.11-.5,2,2,0,0,0-.14.53c0,.86,0,1.73-.05,2.6,0,.15-.14.29-.21.44-.08-.14-.22-.28-.23-.43-.07-.92-.1-1.84-.16-2.77a1.24,1.24,0,0,0-.17-.42,1.46,1.46,0,0,0-.12.39c0,.63,0,1.26,0,1.89,0,.14-.14.28-.21.42-.09-.13-.23-.26-.25-.41-.08-.44-.09-.89-.16-1.33a3.7,3.7,0,0,0-.29-1.21c-.59-1.07-.54-1.55.57-2a14.48,14.48,0,0,1,2.85-.7,12.61,12.61,0,0,0,5.72-2.41,2.71,2.71,0,0,0,1.21-2.09c0-1.14.13-2.27.2-3.4.14-2.15.26-4.3.41-6.44.21-3,.44-6,.65-8.94.16-2.18.28-4.35.44-6.53.2-2.89.43-5.78.64-8.67.17-2.32.35-4.64.49-7q.18-2.91.26-5.82a1.88,1.88,0,0,0-.37-1.12,6.51,6.51,0,0,0-1.23-1,1.92,1.92,0,0,0-.55-.22,2.34,2.34,0,0,0-.14.58q-.12,2.6-.21,5.19h0c-.07.43-.14.87-.23,1.31,0,.09-.14.17-.21.25a.79.79,0,0,1-.13-.28,2.44,2.44,0,0,1,0-.54c0-2,.12-4.06.15-6.09a2.6,2.6,0,0,0-.2-1.12c-.11-.21-.49-.27-.74-.4a2.23,2.23,0,0,0-.19.64c0,1.62,0,3.23,0,4.85,0,1,0,1.91,0,2.87,0,.12-.12.24-.18.36-.09-.1-.22-.19-.24-.31a7.36,7.36,0,0,1-.14-1.24c0-2.18,0-4.37,0-6.55,0-.24.09-.57,0-.7a4.66,4.66,0,0,0-.9-.59,2.08,2.08,0,0,0-.25.65c0,1.85,0,3.71,0,5.56,0,.78.08,1.55.09,2.33,0,.14-.15.29-.22.43a1.4,1.4,0,0,1-.16-.38,6.4,6.4,0,0,1-.12-1c-.09-1.85-.16-3.7-.25-5.55a13.08,13.08,0,0,0-.14-1.78c0-.21-.24-.52-.41-.55-.46-.07-.4.32-.41.61s0,.48,0,.72q0,3.06,0,6.1a5.19,5.19,0,0,1-.14.85c-.1-.29-.2-.58-.31-.87v-.09c-.06-2.18-.11-4.36-.19-6.54a3,3,0,0,0-.27-.84,4.1,4.1,0,0,0-.21.89c0,1.59,0,3.17,0,4.75a2.4,2.4,0,0,1-.16.64,1.73,1.73,0,0,1-.25-.58c-.09-1.32-.16-2.63-.21-3.94,0-.48,0-1,0-1.43,0-.2-.22-.37-.35-.56-.08.19-.24.38-.24.56,0,1.11.13,2.21.17,3.31a3.21,3.21,0,0,1-.11.68c-.1-.22-.22-.43-.31-.66a2.1,2.1,0,0,1,0-.36c-.29-1.54-.13-3.17-.92-4.62a.78.78,0,0,1,.4-1.13,3,3,0,0,1,1.11-.29,45.24,45.24,0,0,1,9.38-.06c.23,0,.67-.1.7-.22a3.31,3.31,0,0,0,0-1.4c0-.15-.54-.26-.84-.27-2.92-.06-5.85-.11-8.78-.12-5.5,0-11,0-16.51,0-3.41,0-6.82,0-10.23-.05L75.86,24c-.9,0-.92,0-.89.9s.11,1.91.17,2.86l.42,5.72c.22,2.71.45,5.41.66,8.12s.38,5.25.58,7.87q.33,4.32.68,8.66c.14,1.75.26,3.51.39,5.27.23,2.83.46,5.65.68,8.48.14,1.88.26,3.76.4,5.63q.33,4.34.68,8.66c.13,1.55.25,3.1.38,4.65,0,.64.34,1,1,.92a8.81,8.81,0,0,1,1.25.12l3.57.27c.37,0,.64,0,.59-.53-.21-2.05-.38-4.11-.55-6.16-.05-.54-.08-1.07-.08-1.61,0-.14.14-.28.21-.43.11.13.28.24.3.38.12.65.22,1.3.29,2,.18,1.93.33,3.87.53,5.8,0,.34.39.76.28,1-.44.83-.11,1.65-.08,2.45.07,2.36.23,4.71.36,7.07,0,.35.07.65.55.62l5.18-.31a2,2,0,0,0,.41-.1,4.15,4.15,0,0,0-.27-.32c-.12-.1-.25-.17-.37-.26a14.35,14.35,0,0,1-3.81-3.88c-.25-.41-.44-.88,0-1.32a1,1,0,0,1,1.45.15c.51.47,1,1,1.44,1.48a12.76,12.76,0,0,0,4.85,3.29c.65.28.66.22.75-.47.17-1.39.34-2.78.59-4.16.15-.84.61-1.29,1-1.15.61.2.54.79.6,1.28a1.09,1.09,0,0,1,0,.18c.12,1.31.24,2.61.37,3.92,0,.5.24.7.76.43a21.24,21.24,0,0,0,5.62-4.11c.2-.21.42-.51.67-.56a1.4,1.4,0,0,1,1,.16,1,1,0,0,1,0,1,5.41,5.41,0,0,1-1,1.33c-1,.94-2,1.83-3.07,2.74a1.38,1.38,0,0,0-.22.35,2,2,0,0,0,.34.06c1.19,0,2.39,0,3.57,0a4.85,4.85,0,0,1,4.84,4.52,2.3,2.3,0,0,1-.08.57,2.43,2.43,0,0,1-.5-.29c-1.14-1.13-2.27-2.28-3.43-3.4a1.75,1.75,0,0,0-.69-.39c-.14,0-.32,0-.48.05a1.77,1.77,0,0,0,.26.35c1.08,1,2.18,2,3.25,3.07a3.57,3.57,0,0,1,.49.8c-.31-.09-.63-.17-.93-.29a1.69,1.69,0,0,1-.41-.35c-.78-.74-1.55-1.49-2.34-2.22q-.78-.74-1.62-1.41c-.14-.11-.38-.08-.57-.12a1.6,1.6,0,0,0,.27.5c1.26,1.14,2.55,2.25,3.8,3.4a3.21,3.21,0,0,1,.51.86,3.44,3.44,0,0,1-.9-.35c-1.5-1.29-3-2.62-4.44-3.91a4.29,4.29,0,0,0-.91-.52c-.06,0-.17,0-.25,0a.68.68,0,0,0,.11.29l2.16,1.88,0,0,2.91,2.52c.12.1.23.22.34.33a1.94,1.94,0,0,1-.47.21c-1.48.2-3,.47-4.44.54-2.78.13-5.55.21-8.33.16-1.9,0-3.8-.29-5.7-.51-.62-.07-1.33-.13-1.5-1,0-.18-.39-.3-.6-.45l-.18-.37-.3-.29,0,.08ZM104.18,4.75l.09.22-.1-.22c0-.09,0-.17,0-.26s-.05-.21-.07-.31a1.88,1.88,0,0,0,0,.33A.77.77,0,0,0,104.18,4.75Zm10,111.27.24,0-.25,0a.76.76,0,0,0-.22-.11,1.83,1.83,0,0,0-.33,0,1.63,1.63,0,0,0,.3.07A1.13,1.13,0,0,0,114.22,116Zm15.61,74.67h0l.92.78.08-.1ZM91.25,7.8l-.61-.26s0,.07,0,.07l.61.21a8.5,8.5,0,0,0,1,.83A4.08,4.08,0,0,0,93.1,9a7.22,7.22,0,0,0-.68-.56C92,8.18,91.64,8,91.25,7.8Zm12.38-.36,0,0,0,0c.56.44,1.11.89,1.67,1.32.06,0,.17,0,.25,0s-.06-.17-.12-.2Zm-7.4,98,.09.09,2.62,2.44a.81.81,0,0,0,.36.25,3.07,3.07,0,0,0,.68,0,2.8,2.8,0,0,0-.33-.49q-2.27-2-4.55-4a1.86,1.86,0,0,0-.53-.3.72.72,0,0,0-.35,0,2.68,2.68,0,0,0,.18.28Zm5.42,2.2h0c-1.51-1.34-3-2.69-4.55-4a1.88,1.88,0,0,0-.82-.25c-.09,0-.21.06-.31.09a1.05,1.05,0,0,0,.17.29c.55.5,1.1,1,1.67,1.48,1.1,1,2.19,1.92,3.33,2.83.23.18.65.12,1,.18Zm24.59-32.48c.53-2.35,1.2-4.68,1.55-7.06s.46-5,.62-7.58c.19-3.07.36-6.14.45-9.21,0-1.67,0-3.35-.13-5-.15-2.5-.29-5-.59-7.49a12.41,12.41,0,0,0-2.57-6.51c-2.91-3.55-6.85-4.8-11.29-4.81a1.11,1.11,0,0,0-.29.1,1.35,1.35,0,0,0,.3.14c.42.07.83.15,1.24.18a14,14,0,0,1,7.52,2.83c2.45,1.87,4.24,4.15,4.63,7.28a58.54,58.54,0,0,1,.55,6.6c.05,4-.06,7.95-.14,11.92A117.73,117.73,0,0,1,127,69.05a26.48,26.48,0,0,1-5,12,13.47,13.47,0,0,1-1.65,1.89,12.67,12.67,0,0,1-5.63,2.79l-.4.12a1.3,1.3,0,0,0,.44,0,39.51,39.51,0,0,0,3.91-1.24,11.31,11.31,0,0,0,6.61-6.67c.18-.51.35-1,.52-1.52l0,0,.35-1.25Zm-59,45.41c-.88.7-1.82,1.33-2.64,2.1-1.9,1.79-1.53,4.07-.26,5.74a9.75,9.75,0,0,0,4.49,3.31,40.45,40.45,0,0,0,6.43,1.89,81.6,81.6,0,0,0,9.59,1.21c4.92.32,9.85.43,14.78.57,1.7,0,3.4-.05,5.1-.1,3.89-.12,7.77-.19,11.65-.41a44.19,44.19,0,0,0,10.14-1.66,14.69,14.69,0,0,0,6.85-3.73c1.45-1.54,2.2-3.41,1.41-5.41a16,16,0,0,0-2.39-3.31.89.89,0,0,0-.37-.26,1.67,1.67,0,0,0-.4-.07,2,2,0,0,0,0,.34c.14.39.32.77.45,1.17a2,2,0,0,1,0,.49,3.39,3.39,0,0,1-.48-.17,1.57,1.57,0,0,1-.31-.32,11.88,11.88,0,0,1-2.73-6.51c0-.36.07-.71-.57-.5a43.45,43.45,0,0,1-9.1,1.9c-1.66.16-3.33.27-5,.39-3,.22-6,.57-9,.63-3.91.08-7.84,0-11.75-.15-2.94-.12-5.89-.48-8.82-.8-2.53-.28-5-.64-7.55-1a22.21,22.21,0,0,1-5.67-1.29c-.92-.38-.89-.36-1.14.61-.44,1.73-.86,3.47-1.43,5.17a8,8,0,0,1-1.25,1.93c-.08.12-.3.14-.45.21,0-.18-.13-.39-.08-.55.13-.49.31-1,.47-1.45ZM138.94,170h.12c-.14-6-.31-12-.41-18A128.22,128.22,0,0,0,137.13,134c-.31-2-.7-4-1.06-6a1.66,1.66,0,0,0-.12-.31c-.1.09-.27.17-.28.27a8.14,8.14,0,0,0,0,1.48c.4,2.78.87,5.54,1.22,8.32.29,2.19.47,4.4.65,6.6.12,1.34.17,2.68.24,4a2.3,2.3,0,0,1-.13.55,4.28,4.28,0,0,1-.23-.55c-.05-.2-.05-.42-.08-.62-.14-1.28-.28-2.56-.43-3.83-.32-2.88-.63-5.76-1-8.63-.22-1.75-.51-3.49-.79-5.23,0-.16-.21-.3-.32-.45-.06.18-.14.36-.19.55s.05.17.06.26q.72,5.55,1.45,11.09a2.27,2.27,0,0,1,0,.45c0,.09-.12.16-.19.24s-.15-.1-.17-.17,0-.3-.07-.44c-.53-3.31-1.05-6.61-1.6-9.91a4.5,4.5,0,0,0-.4-.94c-.52.29-.22.73-.21,1.12a1.13,1.13,0,0,0,0,.18c.21,1.48.42,2.95.61,4.43a2.24,2.24,0,0,1-.11.67,2.88,2.88,0,0,1-.32-.63c-.3-1.43-.58-2.87-.84-4.31-.08-.49-.25-.51-.65-.29a18.31,18.31,0,0,1-2,1.09,44.16,44.16,0,0,1-13.7,2.92c-2.5.22-5,.3-7.52.31-6.73,0-13.45,0-20.18-.12a73.51,73.51,0,0,1-14.84-1.73,28.29,28.29,0,0,1-6.59-2.23c-1.58-.79-1.56-.79-1.71,1-.08.89-.25,1.77-.4,2.65,0,.1-.12.18-.19.27-.07-.11-.2-.21-.2-.32,0-.54.05-1.08.09-1.61.08-1,.19-2,.26-2.94,0-.14-.14-.3-.22-.44a1.52,1.52,0,0,0-.24.4c-.07.41-.12.83-.15,1.24-.21,2.68-.41,5.36-.62,8,0,.51-.14,1-.23,1.51,0,.06-.11.12-.17.18a.62.62,0,0,1-.14-.19,1.43,1.43,0,0,1,0-.36q.22-4.52.48-9c0-.75.15-1.49.19-2.23,0-.17-.14-.35-.22-.53a2.16,2.16,0,0,0-.19.45c-.06.6-.11,1.19-.15,1.79q-.48,6.21-1,12.42a1.55,1.55,0,0,1-.07.43c0,.09-.16.14-.24.2s-.12-.14-.12-.22a4.78,4.78,0,0,1,0-.53c.12-2.51.22-5,.38-7.52s.36-4.83.54-7.24c0-.31,0-.62,0-.93a4.14,4.14,0,0,0-.31.94c-.38,3.51-.79,7-1.09,10.52q-.6,6.92-1,13.85-.36,5.67-.54,11.37c-.12,3.91-.18,7.83-.17,11.74,0,1.73.22,3.46.36,5.18,0,.13.13.24.2.36,0-.12,0-.24,0-.35-.05-1-.14-2-.16-3a105.15,105.15,0,0,1,.3-11.64c.26-2.59.38-5.19.59-7.78.09-1,.23-2,.38-2.93a3.75,3.75,0,0,1,.35-.77,2.54,2.54,0,0,1,.22.78c0,1.13-.12,2.27-.2,3.4-.28,3.75-.7,7.5-.81,11.25s.07,7.77.13,11.66a2.12,2.12,0,0,0,.08.41,3.32,3.32,0,0,0,.06-.44c0-2.63.08-5.26.14-7.88,0-1.11.1-2.21.19-3.31a2.38,2.38,0,0,1,.31-.67l.28.63s0,.05,0,.08c0,2.25-.07,4.49-.07,6.73,0,2.06.06,4.12.09,6.18a.71.71,0,0,0,.05.26,1.64,1.64,0,0,0,.28.31,1.31,1.31,0,0,0,.15-.37c.06-.92.07-1.85.17-2.77a4,4,0,0,1,.37-1,4.08,4.08,0,0,1,.33,1.1c0,1,0,2.09-.09,3.13a1.11,1.11,0,0,0,.79,1.17c.56.21,1.12.42,1.66.66a31.24,31.24,0,0,0,9.33,2.76c3.68.39,7.38.76,11.07.88,5.17.16,10.34.18,15.51.09,4.69-.08,9.37-.37,14.06-.59,1.7-.09,3.4-.23,5.09-.41,2.91-.31,5.81-.66,8.71-1a17.73,17.73,0,0,0,5.39-1.26,5.43,5.43,0,0,0,3.54-5c0-1.56.11-3.11.13-4.66C139,175.54,138.94,172.76,138.94,170ZM84.41,21.69v.07H92a2.3,2.3,0,0,1,.51.1A2.63,2.63,0,0,1,92,22c-2.24.11-4.48.24-6.72.32-3,.09-6,.13-9,.22a4,4,0,0,0-.87.23,4.28,4.28,0,0,0,.88.24q11.34.09,22.69.15c2.18,0,2,.42,1.93-2,0-.83-.11-.91-.95-.93l-9.6-.16a7.12,7.12,0,0,1-.8,0,1.48,1.48,0,0,1-.44-.21,1.07,1.07,0,0,1,.41-.21c.75-.06,1.49-.13,2.24-.12,2.93,0,5.85.08,8.78.1l10.41.07c1.14,0,2.27,0,3.41,0,.43,0,.57-.23.57-.62s-.12-.57-.51-.59c-.68-.05-1.37-.14-2.05-.16-5.08-.14-10.16-.26-15.24-.41-1,0-2-.2-3-.32-.1,0-.18-.1-.28-.16a1.17,1.17,0,0,1,.31-.12c.23,0,.47,0,.71,0l10.4.22c.66,0,1.31.08,2,.09,2.39.05,4.78.08,7.17.11.42,0,.69-.14.71-.62,0-.13.14-.27.21-.4a1.43,1.43,0,0,1,.2.46c0,.39.09.7.6.69,1.23,0,2.45,0,3.68,0,.42,0,.68-.15.7-.62a1.34,1.34,0,0,1,.2-.42,1.38,1.38,0,0,1,.18.46c0,.47.3.59.72.57s.53-.29.53-.66a6.54,6.54,0,0,1,.06-.89.23.23,0,0,1,.16-.17.24.24,0,0,1,.2.12,1.16,1.16,0,0,1,.12.43c0,.69,0,1.27.91,1.34.08,0,.15.14.22.22a1.51,1.51,0,0,1-.26.2,1.42,1.42,0,0,1-.36,0c-.46,0-.54.39-.47.71s.27.57.46.61c.64.11,1.26.13.38.88-.05.05,0,.17,0,.26,0,.63.07,1.25.13,1.88,0,.12.14.24.21.36a1.86,1.86,0,0,0,.33-.36.91.91,0,0,0,.06-.44q.06-3.9.11-7.8a7.34,7.34,0,0,0,0-.81,2.15,2.15,0,0,0-.13-.32c-.07.11-.21.21-.21.32-.07.84-.11,1.67-.18,2.5a2,2,0,0,1-.25.5,1.81,1.81,0,0,1-.16-.48c0-.74-.07-1.49-.11-2.23a1.42,1.42,0,0,0-.11-.33,2,2,0,0,0-.07.31,8.49,8.49,0,0,1-.14.88c0,.1-.19.16-.3.24-.06-.1-.18-.19-.18-.28,0-.33,0-.66,0-1a2.79,2.79,0,0,0-.1-.39l-.15.37-.33.95c-.08-.3-.16-.61-.27-.91a4.83,4.83,0,0,0-.23-.52c-.08.14-.17.28-.26.41s-.17.22-.25.33c-.07-.11-.18-.22-.19-.34,0-.46-.33-.52-.69-.52l-1,0c-5.62,0-11.25.13-16.87.14-4.54,0-9.08-.07-13.63-.1-2,0-4.06,0-6.1,0-.35,0-.74-.05-.78.49,0,.15-.16.29-.24.43L81,13.77l-.33-.45-.16.55c0,.16-.07.33-.1.49a3.51,3.51,0,0,1-.37-.41,3.52,3.52,0,0,1-.15-.42.46.46,0,0,0-.2-.13s-.08.07-.1.12a.94.94,0,0,0,.93,1.41q11.52.09,23,.2c1.28,0,2.56.1,3.85.17a4.07,4.07,0,0,1,.68.13,6.54,6.54,0,0,1-.75.13c-2.36,0-4.72.12-7.08.12-3.59,0-7.17-.08-10.76-.09-3.88,0-7.77,0-11.65,0-.14,0-.3.2-.41.33a2.77,2.77,0,0,0-.26.48A3.74,3.74,0,0,0,77,16a2.42,2.42,0,0,0-.25-.31,1.24,1.24,0,0,0-.16.38c0,.39,0,.78,0,1.17a2,2,0,0,1-.12.4c-.09-.13-.24-.25-.28-.4-.09-.34-.11-.7-.18-1.06a2,2,0,0,0-.12-.31,1.26,1.26,0,0,0,0,.33c0,.86,0,1.73,0,2.6a2.46,2.46,0,0,1-.17.63,1.89,1.89,0,0,1-.27-.58c-.13-1.58-.24-3.16-.36-4.74a2.25,2.25,0,0,0-.09-.35,1.41,1.41,0,0,0,0,.35c.07,1.64.18,3.28.23,4.92s-.25,1.55,1.56,1.54c.9,0,1.79,0,2.69,0,.14,0,.28.15.43.23a2,2,0,0,1-.38.15l-1.78.16c-.69.06-1.37.1-2.06.18-.14,0-.27.17-.4.26a2.3,2.3,0,0,0,.43.34.86.86,0,0,0,.36,0Zm43,28.22c-.25-3.79-.46-7.46-.74-11.12a9,9,0,0,0-1.28-4.16,2.12,2.12,0,0,0-.44-.4,3,3,0,0,0-.16.56c-.14,2.06-.25,4.12-.4,6.17-.21,3-.45,6.07-.66,9.11-.15,2.06-.27,4.11-.42,6.17-.21,3-.44,6-.66,9-.14,2-.27,4-.42,6-.2,2.62-.42,5.24-.63,7.86a1.13,1.13,0,0,0,.1.38,1.81,1.81,0,0,0,.24-.24,22.82,22.82,0,0,0,3.84-9.37c.32-2.28.59-4.56.77-6.85C126.92,58.62,127.17,54.2,127.45,49.91ZM99.75,10v0c-2.22,0-4.43,0-6.64,0q-8.16.09-16.32.22a13.17,13.17,0,0,0-1.87.19c-.15,0-.27.26-.4.4.12.11.22.31.36.33a18,18,0,0,0,2.62.4c1.79.06,3.58,0,5.38,0a3.57,3.57,0,0,1,.71.14,3.28,3.28,0,0,1-.73.24c-1.23.09-2.45.14-3.67.22l-.48.06.44,0,34.81,0a3.42,3.42,0,0,0,.44,0c-.14,0-.27,0-.41,0-4.9-.06-9.8-.14-14.7-.18-3.65,0-7.29,0-10.94,0a5.51,5.51,0,0,1-.81-.05c-.08,0-.16-.13-.24-.2.09-.07.17-.18.26-.19a9.68,9.68,0,0,1,1.51-.16c6.13,0,12.26.09,18.38.13l13.81.06h.27a2,2,0,0,0,.23-.07,1.19,1.19,0,0,0-.26-.05c-.51,0-1,0-1.52,0a4.57,4.57,0,0,1-.87-.26,3.4,3.4,0,0,1,.92-.33c1.2,0,2.4,0,3.59,0a1.83,1.83,0,0,0,.61-.25c-.19-.09-.37-.25-.55-.26-2.27-.12-4.54-.29-6.8-.31C111.17,10,105.46,10,99.75,10Zm10,13.18c1.1,0,2.21,0,3.31,0,2.08,0,1.82.36,1.84-1.86,0-.92,0-.93-1-.94-2.6,0-5.19,0-7.79,0-1,0-1.91-.09-2.86-.09-.23,0-.65.21-.67.36a18.44,18.44,0,0,0,0,2.23c0,.08.14.16.21.24.07-.08.18-.16.19-.26,0-.26,0-.54,0-.8a2,2,0,0,1,.3-.56,3.58,3.58,0,0,1,.29.59,3.29,3.29,0,0,1,0,.63,1.68,1.68,0,0,0,.09.32c.08-.09.17-.18.25-.28l.3-.39c.1.12.28.24.29.36,0,.54.42.5.78.5ZM98.08,3.36h-2.5a.9.9,0,0,0-.76.44,1.57,1.57,0,0,0-.39,1.5c0,.13-.13.31-.2.46-.1-.13-.21-.25-.3-.39a1,1,0,0,1-.09-.24,2.84,2.84,0,0,0-.06.31c0,.94.11,1.08,1.07,1.07l7.24-.11c1.69,0,1.69,0,1.34-1.65,0-.12,0-.24-.05-.35a1.94,1.94,0,0,1-.07.33,1.48,1.48,0,0,1-.16.27l-.25-.23c-.33-.33-.65-.66-1-1,0,0-.13.08-.2.08s-.37,0-.4-.05c-.2-.46-.59-.44-1-.44ZM75.5,110.85a8.28,8.28,0,0,0-1.41.22,24.59,24.59,0,0,0-3,1.2c-.74.37-.69.79.07,1.19a3.65,3.65,0,0,0,1,.39c2.55.47,5.1.92,7.65,1.37.07,0,.15,0,.23-.06s-.1-.15-.17-.19c-.78-.44-1.54-.91-2.35-1.29a1.83,1.83,0,0,1-1.25-2.1C76.39,111,76.08,110.75,75.5,110.85Zm44.37-11.77h0q0-3.09,0-6.17c0-.27.11-.69-.37-.66s-.8.08-.79.64c0,.27,0,.54,0,.81,0,3.49,0,7,0,10.47,0,.54-.08,1.07-.12,1.6,0,.31.06.56.46.43s.88-.33.85-1C119.83,103.14,119.87,101.11,119.87,99.08Zm-1.46-78.67c-2.06,0-1.78-.3-1.8,1.81a3.11,3.11,0,0,0,0,.53,1.43,1.43,0,0,0,.2.36c.07-.12.2-.23.21-.35,0-.41,0-.83,0-1.25a2.4,2.4,0,0,1,.23-.59,3.89,3.89,0,0,1,.21.53c.07.38.1.77.15,1.15a2.8,2.8,0,0,0,.09.31,1.82,1.82,0,0,0,.16-.31c.12-.33.22-.67.33-1l.27,1c0,.11.07.22.1.33.05-.13.08-.26.14-.38a3.39,3.39,0,0,1,.23-.34c.08.12.15.24.24.35l.49.63c.13-.27.26-.53.38-.8a.61.61,0,0,0,0-.27C120.12,20.14,120.35,20.44,118.41,20.41Zm0-.64v0h1.16c.48,0,.72-.19.72-.7s-.28-.65-.74-.64c-1.1,0-2.21,0-3.31,0-.15,0-.35,0-.44,0a.83.83,0,0,0-.25.5,1.16,1.16,0,0,0,.18.56s.29,0,.3,0c.29-.72.45-.5.67,0,0,.13.35.19.54.21C117.62,19.79,118,19.77,118.4,19.77Zm-.25,68.65c.08.26.11.71.25.74.45.12.33.44.35.71s0,.66,0,1,.19.59.29.59c.37,0,.83,0,.86-.55.06-1,.13-2,.15-3a.61.61,0,0,0-.28-.47A1.13,1.13,0,0,0,118.15,88.42ZM102.6,103.24l-.37.16a1.2,1.2,0,0,0,.2.37q2.25,2,4.51,4.07a.6.6,0,0,0,.31.17,4.87,4.87,0,0,0,.66,0,2.3,2.3,0,0,0-.32-.49q-2.11-1.91-4.26-3.8A4.16,4.16,0,0,0,102.6,103.24Zm-4.13,0-.36.21a1.39,1.39,0,0,0,.21.27q2.36,2.07,4.73,4.11a2.09,2.09,0,0,0,.61.36,1.38,1.38,0,0,0,.49,0,1.45,1.45,0,0,0-.24-.35c-.26-.24-.56-.45-.82-.68-1.23-1.1-2.44-2.21-3.67-3.29A6.32,6.32,0,0,0,98.47,103.24Zm-2.16,4.93c-.15-.17-.22-.27-.31-.35-1.38-1.31-2.76-2.64-4.16-3.94a3.35,3.35,0,0,0-.82-.52c-.11,0-.28,0-.43,0a1.42,1.42,0,0,0,.21.36c1.5,1.42,3,2.83,4.52,4.22a1.52,1.52,0,0,0,.64.26C96,108.27,96.15,108.2,96.31,108.17Zm4.27-4.93-.33.2a1.63,1.63,0,0,0,.23.35q2,1.75,3.93,3.5a11.55,11.55,0,0,0,1,.83c.11.06.32,0,.49-.06a1.68,1.68,0,0,0-.2-.35q-2.18-2-4.38-4.07A3.65,3.65,0,0,0,100.58,103.24Zm-7.91,0c0,.17-.13.31-.09.37a1.83,1.83,0,0,0,.39.49q2.1,2,4.21,3.89a1.2,1.2,0,0,0,.46.24c.12,0,.27,0,.4-.08a1.46,1.46,0,0,0-.17-.3l-4.58-4.28A3.42,3.42,0,0,0,92.67,103.24Zm-3.46.18-.41.17a1.77,1.77,0,0,0,.23.35c1.51,1.3,3,2.61,4.56,3.9.13.11.35.1.54.15a2,2,0,0,0-.3-.49c-1.25-1.2-2.5-2.38-3.78-3.55A5.1,5.1,0,0,0,89.21,103.42Zm27.57-13.79h0c0,.57,0,1.13,0,1.69,0,.15.22.29.34.43.15-.14.41-.27.43-.43a12,12,0,0,0,0-1.34c0-.62,0-1.25,0-1.87,0-.19-.29-.36-.45-.54a1.57,1.57,0,0,0-.3.55C116.75,88.62,116.78,89.13,116.78,89.63Zm-1.19.23h.07c0,.53,0,1.07,0,1.6,0,.16.21.3.32.45.11-.15.31-.3.31-.45,0-1.12-.1-2.25-.17-3.38,0-.09-.11-.18-.17-.27-.1.09-.26.17-.27.27C115.64,88.67,115.62,89.26,115.59,89.86ZM88.07,104l-.12.1a.65.65,0,0,0,.13.23c.42.41.85.82,1.29,1.22.81.74,1.63,1.48,2.46,2.2.1.09.31.06.47.09a1.68,1.68,0,0,0-.2-.35c-1.24-1.1-2.5-2.19-3.75-3.29Zm32.07,10.39v0H120l-.81.19a5.25,5.25,0,0,0,.74.23c.65.11,1.3.19,2,.26a6.33,6.33,0,0,0,.87,0,1,1,0,0,0,.24-.09c0-.06-.11-.15-.17-.16Zm3.46-2.27-.35.15a1.44,1.44,0,0,0,.37.19l4.13.67c.08,0,.17,0,.26-.07a.91.91,0,0,0-.21-.15ZM98.85,100.83a2.15,2.15,0,0,0,0,.68,1.72,1.72,0,0,0,.4.46c.08-.15.23-.32.22-.46-.08-.89-.21-1.78-.32-2.66a1.17,1.17,0,0,0-.09-.24,2.1,2.1,0,0,0-.06.24C99,99.53,98.9,100.21,98.85,100.83Zm21.89-81.55c.21.17.4.44.63.48.62.1.6-.43.66-.82s-.22-.48-.56-.49S120.87,18.73,120.74,19.28ZM126.87,114a1.58,1.58,0,0,0,.33,0l.36-.19-.33-.07-3.85-.63a1.1,1.1,0,0,0-.31,0c.07,0,.13.13.2.14Zm-5.26-92.18h0c0,.35,0,.71,0,1.06,0,.09.13.17.21.25.06-.09.18-.18.18-.27q0-1,0-2c0-.09-.14-.17-.21-.25-.06.09-.17.17-.18.26C121.6,21.15,121.61,21.48,121.61,21.81Zm-12.08-13c-.06-.13-.08-.21-.12-.23-.66-.44-1.33-.87-2-1.29-.07,0-.22,0-.33.06.06.09.1.22.18.27.6.38,1.21.76,1.83,1.11A1.28,1.28,0,0,0,109.53,8.84ZM92.89,7.44l-.3.11a1,1,0,0,0,.21.25c.4.26.79.52,1.21.75A10,10,0,0,0,95,9c-.22-.23-.43-.48-.67-.69a4.23,4.23,0,0,0-.72-.54A4.67,4.67,0,0,0,92.89,7.44Zm27.84,14.23c0,.5,0,.8,0,1.1,0,.09.09.18.15.27.06-.09.16-.18.17-.28,0-.65.09-1.3.11-2,0-.09-.12-.18-.18-.26-.07.08-.19.16-.2.26C120.74,21.16,120.74,21.52,120.73,21.67ZM88.05,105.3s-.11.08-.1.1a.49.49,0,0,0,.11.23c.47.45.94.9,1.42,1.34a8.9,8.9,0,0,0,.83.66c.08.05.21,0,.32,0a2.43,2.43,0,0,0-.14-.2l-2.3-2.08ZM116,21.87h0c0-.3,0-.6,0-.89a1.49,1.49,0,0,0-.13-.39c-.07.11-.18.21-.2.33a4.76,4.76,0,0,0-.1,1.06,6.79,6.79,0,0,0,.19,1.08c.08-.33.17-.67.25-1A1.08,1.08,0,0,0,116,21.87ZM107.56,8.78c-.06-.1-.07-.13-.09-.14-.67-.43-1.33-.87-2-1.29,0,0-.17,0-.24.07s0,.13,0,.15c.66.43,1.33.86,2,1.27C107.33,8.88,107.45,8.81,107.56,8.78Zm-5.62,14c0-.84-.07-1.49-.11-2.14,0-.09-.11-.17-.17-.26,0,.1-.14.19-.14.29,0,.65,0,1.3,0,1.95a1.35,1.35,0,0,0,.19.45ZM79,14.46A1.64,1.64,0,0,0,79,14c-.13-.25-.3-.73-.43-.72-.54,0-.26.47-.24.76a.45.45,0,0,0,0,.26c.13.2.28.38.43.57Zm16-7-.29.06c0,.07,0,.18,0,.21L96.72,9c.06,0,.16,0,.24,0s0-.13-.06-.15C96.26,8.31,95.61,7.86,95,7.47ZM101.92,9l.2-.27-1.9-1.19-.1.17Zm22.92,105.59.38-.06s-.09-.14-.15-.16l-3.07-.54s-.1,0-.15.07.09.13.15.14ZM104,8.8l-.11-.15c-.57-.38-1.13-.78-1.69-1.15-.06,0-.17,0-.25,0s.07.17.13.21c.53.34,1.06.68,1.59,1C103.7,8.8,103.8,8.78,104,8.8Zm18.73,12.94h0c0,.36,0,.72,0,1.07,0,.07.08.14.12.2s.14-.12.14-.18c0-.65,0-1.31.05-2,0-.1-.1-.19-.15-.28-.06.08-.16.17-.16.26C122.68,21.14,122.69,21.44,122.69,21.74ZM98.59,7.45l-.28.11a.75.75,0,0,0,.15.2,10.09,10.09,0,0,0,1,.66,6.6,6.6,0,0,0,.86.38c-.22-.21-.42-.44-.66-.63S98.89,7.66,98.59,7.45Zm0,1.32c0-.07,0-.1-.06-.11-.59-.39-1.18-.78-1.78-1.16,0,0-.1,0-.16,0a.52.52,0,0,0,.06.15c.57.37,1.14.74,1.72,1.1C98.37,8.82,98.46,8.78,98.54,8.77Zm-7.36.07a.15.15,0,0,0-.05-.06C90.56,8.41,90,8,89.42,7.69c-.06,0-.16,0-.24,0s.07.16.13.2c.54.35,1.09.69,1.64,1a.26.26,0,0,0,.17,0S91.16,8.89,91.18,8.84Zm26.61,106.3-.54,0c.17,0,.33.08.5.1l1.94.32a.68.68,0,0,0,.27,0l-.25-.07ZM76.89,14.32c-.09-.29-.2-.62-.31-.94,0,0,0,0-.08,0,0,.34,0,.68,0,1a1.13,1.13,0,0,0,.17.35Zm.88.09-.26-.9a3,3,0,0,0,0,.42c0,.27.11.53.17.8Zm-1.89-.11-.18-.75a5.45,5.45,0,0,0,0,.7,1.22,1.22,0,0,0,.14.36Zm55.91,176.78c-.24-.2-.47-.4-.7-.58,0,0-.09,0-.14.07l.66.59S131.7,191.12,131.79,191.08ZM99.57,116.59l-.43,0a1.59,1.59,0,0,0,.32.16,5.93,5.93,0,0,0,.59.07Zm24.55-5.09a2.38,2.38,0,0,0-.47-.18,1.45,1.45,0,0,0-.36,0,.68.68,0,0,0,.22.12A5.45,5.45,0,0,0,124.12,111.5ZM74,191.46l.35.23s.08-.09.11-.13l-.35-.23S74.09,191.4,74,191.46Zm34.56-75.05-.32,0c.1,0,.19.06.29.07a2.93,2.93,0,0,0,.29,0Zm-3.37.22c.23,0,.31.06.39.06a.64.64,0,0,0,.18-.06l-.17,0Zm21,74.91-.27-.19s0,.1,0,.12a.65.65,0,0,0,.18.15S126.19,191.58,126.25,191.54Zm-14.91-75.29-.07,0,.09,0a.11.11,0,0,0,.08,0ZM124.16,11.46l-.17,0,.08,0h.09ZM132.81,190l0-.09s-.06,0-.07,0,0,.05,0,.08ZM104.45,5.74l0,0v.06Zm-2.2,110.94h.08v-.05h-.07S102.25,116.66,102.25,116.68ZM124,12.22h.07l-.06,0Zm.75,99.43v-.05l-.07,0Z"/><path d="M132.52,81.39h0Z"/><polygon points="76.36 192.47 76.38 192.51 76.34 192.5 76.36 192.47"/><path d="M101.81,165.94c-6.75,0-11.58-3.9-12.67-9.51a11.2,11.2,0,0,1,5.73-12,12.17,12.17,0,0,1,13.76,1.65,11.33,11.33,0,0,1-1,17.69A11.14,11.14,0,0,1,101.81,165.94ZM93,161.43h0l.36.54,3.3,2.08a1.46,1.46,0,0,0,.41.11,1.84,1.84,0,0,0-.26-.29c-.93-.58-1.87-1.16-2.81-1.72a2.24,2.24,0,0,0-.64-.17Zm10.41-16.86h0l5.2,3.23h0A8.94,8.94,0,0,0,103.45,144.57Zm7,13.8.05-.19a2.52,2.52,0,0,0-.38-.47c-.47-.37-.94-.74-1.44-1.07-2.61-1.72-5.25-3.41-7.86-5.15-2.14-1.42-4.25-2.88-6.37-4.33-.15-.1-.31-.19-.45-.3-.3-.24-.62-.34-.8.07,0,.11.19.43.36.55l14.67,9.81c.55.36,1.1.71,1.67,1A1.42,1.42,0,0,0,110.49,158.37ZM96,145c-.1.08-.24.13-.28.22a.34.34,0,0,0,.1.29,5.09,5.09,0,0,0,.45.31c3.32,2.28,6.64,4.57,10,6.83,1.46,1,3,1.93,4.44,2.88a1.12,1.12,0,0,0,.46.05c0-.17.08-.41,0-.5a5.25,5.25,0,0,0-.89-.73l-4.72-3.1c-3-2-6-4-9-6A3.72,3.72,0,0,0,96,145Zm10.55,18.05c-.29-.21-.46-.36-.65-.48-3.69-2.43-7.39-4.84-11.07-7.27-1.37-.9-2.72-1.84-4.08-2.75a1.3,1.3,0,0,0-.46-.1,1.72,1.72,0,0,0,.14.47,2.35,2.35,0,0,0,.47.41c1.18.86,2.34,1.76,3.55,2.57,3.57,2.39,7.17,4.74,10.75,7.11a2,2,0,0,0,.73.32C106.07,163.37,106.25,163.2,106.54,163.06Zm-14.1-15.41a.79.79,0,0,0-.13.33.51.51,0,0,0,.1.37,7.78,7.78,0,0,0,.8.58q7.91,5.16,15.84,10.29c.25.17.58.69.87.23s-.34-.53-.59-.7c-3.36-2.22-6.75-4.41-10.11-6.62-2-1.35-4.07-2.73-6.1-4.09C93,147.92,92.76,147.83,92.44,147.65Zm14.81,14.84c.12-.06.25-.09.26-.13a.39.39,0,0,0-.09-.3,7.68,7.68,0,0,0-.65-.47l-12.88-8.47c-.93-.61-1.85-1.21-2.79-1.79a1.53,1.53,0,0,0-.54-.09c.09.19.16.38.26.56s.15.09.22.14c2.55,1.72,5.09,3.47,7.66,5.16s5.17,3.33,7.77,5A8.2,8.2,0,0,0,107.25,162.49Zm2.08-2.08a7.19,7.19,0,0,0-.6-.5l-9.21-6q-3.67-2.4-7.37-4.76a1.39,1.39,0,0,0-.55-.12c.09.18.12.44.26.55.73.52,1.49,1,2.23,1.49,2.69,1.79,5.35,3.61,8,5.36,2.13,1.38,4.32,2.68,6.48,4a1.2,1.2,0,0,0,.39.2C109.08,160.61,109.18,160.5,109.33,160.41Zm1.65-3.64a8.1,8.1,0,0,0-.76-.65q-6.54-4.45-13.1-8.89c-.67-.45-1.31-.94-2-1.35-.17-.1-.48,0-.72.05a1.37,1.37,0,0,0,.8.88l12.14,8.1,3.11,2.11a.87.87,0,0,0,.4.09A1.76,1.76,0,0,0,111,156.77Zm.23-2.88.09-.21a4.67,4.67,0,0,0-.64-.69c-1.34-1-2.67-1.9-4-2.79-2.83-1.83-5.69-3.63-8.54-5.41a2.64,2.64,0,0,0-.87-.15,4.1,4.1,0,0,0,.6.58q5.51,3.69,11,7.37c.64.43,1.3.85,2,1.25A1,1,0,0,0,111.21,153.89Zm-2.73,7.64.11-.26c-.16-.12-.31-.25-.48-.36-1-.65-2-1.32-3-1.95-2.26-1.41-4.54-2.77-6.77-4.21s-4.52-3-6.79-4.52c-.14-.1-.36-.07-.54-.1.1.16.16.37.3.46,1.09.75,2.19,1.47,3.29,2.19l10,6.6c1.07.71,2.15,1.4,3.24,2.08A1.71,1.71,0,0,0,108.48,161.53ZM99.18,144l-.35.15a1.25,1.25,0,0,0,.15.28,1.53,1.53,0,0,0,.3.19l8.74,5.62c.8.52,1.58,1.07,2.38,1.6a2.25,2.25,0,0,0,.46.15c0-.17,0-.38-.1-.5a3.86,3.86,0,0,0-.84-.87c-3.39-2.13-6.79-4.23-10.19-6.34C99.55,144.21,99.36,144.14,99.18,144Zm-8.9,9.66c-.08.05-.18.08-.2.14a.31.31,0,0,0,0,.25,6.24,6.24,0,0,0,.86.77q6.55,4.42,13.14,8.83a2.54,2.54,0,0,0,.85.23,4.47,4.47,0,0,0-.57-.58L90.66,154Zm13.45,10.57c-.35-.24-.58-.42-.83-.58-1.54-1-3.1-2-4.63-3.05-2.59-1.75-5.16-3.54-7.75-5.31a2.13,2.13,0,0,0-.38-.14c0,.13.06.3.15.38.41.34.82.69,1.26,1l11.19,7.56a2.85,2.85,0,0,0,.64.29C103.44,164.43,103.54,164.35,103.73,164.27Zm-1.54.35-.56-.38L91,157a2.81,2.81,0,0,0-.47-.21,1.39,1.39,0,0,0,.12.55,1.83,1.83,0,0,0,.51.49q1,.69,2,1.35l8,5.16a4.84,4.84,0,0,0,.73.34C101.88,164.72,102,164.67,102.19,164.62Zm-1.87.08-.54-.34-7.71-5a8.13,8.13,0,0,0-.83-.43,9.67,9.67,0,0,0,.5.89,1.23,1.23,0,0,0,.36.26c2.16,1.37,4.32,2.74,6.5,4.09a8.42,8.42,0,0,0,1.31.55A1.67,1.67,0,0,0,100.32,164.7Zm.8-20.65-.22,0a1,1,0,0,0,.26.28q2.73,1.71,5.48,3.4l3,1.83a1.5,1.5,0,0,0,.32.08,1.89,1.89,0,0,0-.2-.27,3.19,3.19,0,0,0-.44-.31l-7.75-4.85C101.41,144.17,101.24,144.11,101.12,144.05Z"/><path d="M92.16,190.58a110.65,110.65,0,0,1-18.44-1.7c-1.2-.21-2.36-.62-3.54-.95a2.23,2.23,0,0,1-.64-.31c-.08-.05-.11-.19-.16-.29.11,0,.23-.1.33-.08.4.09.8.22,1.21.32a69.62,69.62,0,0,0,10.14,1.67,118.66,118.66,0,0,0,14.23.48c3.49-.09,7-.3,10.47-.45,1.13-.05,2.27-.07,3.4-.1.12,0,.23.1.35.16a1.44,1.44,0,0,1-.37.15c-1.88.18-3.75.39-5.62.5C99.74,190.21,96,190.38,92.16,190.58Z"/><path d="M116,154.81c-.26,4.73-1.83,8.4-5.13,11.28a13.22,13.22,0,0,1-7.29,3.34l-.08,0-1.14-.28a4.25,4.25,0,0,1,1-.42c5.7-.92,9.3-4.34,11.26-9.59a11.8,11.8,0,0,0,.23-6.89,4.66,4.66,0,0,1,0-1.05c.6,0,.57.56.65.92C115.75,153.16,115.91,154.19,116,154.81Z"/><path d="M136.53,168.63v7.71a4.26,4.26,0,0,1,0,.62,2.28,2.28,0,0,1-.15.44,1.7,1.7,0,0,1-.22-.45,4.25,4.25,0,0,1-.06-.71c-.07-3.86-.09-7.71-.22-11.56-.17-5.19-.42-10.38-.63-15.57,0-.75,0-1.5,0-2.24,0-.11.13-.22.2-.33.07.09.18.17.2.27a11.67,11.67,0,0,1,.34,1.84c.15,3,.3,6,.39,9,.1,3.65.15,7.29.22,10.93Z"/><path d="M137.57,173c-.09-3.52-.16-7-.26-10.57-.07-2.3-.2-4.59-.27-6.89a12.29,12.29,0,0,1,.11-1.6c0-.07.1-.13.15-.19s.17.1.19.17a3.21,3.21,0,0,1,.1.62c.12,2.53.26,5.07.35,7.6.13,3.82.27,7.64.3,11.46,0,2.47-.17,4.95-.28,7.42a1.78,1.78,0,0,1-.13.49,2.18,2.18,0,0,1-.15-.54c0-2.66,0-5.31,0-8Z"/><path d="M126.26,171.8c0,2.3,0,4.61,0,6.91,0,1.94-.21,3.87-.33,5.81a.81.81,0,0,1,0,.35c0,.1-.15.16-.23.23,0-.1-.13-.2-.12-.3,0-.5.13-1,.13-1.51,0-5.29.07-10.59,0-15.88-.07-3.64-.34-7.28-.53-10.92,0-.71-.14-1.42-.2-2.14,0-.11.12-.23.19-.34.06.09.16.18.18.28a23.32,23.32,0,0,1,.44,2.74c.23,3.78.41,7.57.58,11.36,0,1.14,0,2.27,0,3.41Z"/><path d="M85.28,154A14.71,14.71,0,0,1,92,141.69a8.52,8.52,0,0,1,3.67-1.33c.21,0,.44.15.66.24-.18.15-.34.4-.55.45-6.09,1.6-8.81,6-9.81,11.82a15.89,15.89,0,0,0,.17,3.56c0,.11.1.24.08.34a4.36,4.36,0,0,1-.23.6c-.13-.13-.36-.25-.4-.4a8.64,8.64,0,0,1-.32-3Z"/><path d="M116.51,189.3c-.66,0-1.32,0-2,0-.12,0-.23-.12-.34-.18.11-.08.21-.21.33-.22.65-.08,1.31-.12,2-.19,3.3-.37,6.6-.66,9.88-1.12,2.71-.39,5.4-1,8.1-1.47a9.65,9.65,0,0,1,1.06-.15,1.65,1.65,0,0,1,.46.12c-.13.11-.25.28-.4.32-1.27.32-2.54.68-3.83.9q-5.59.93-11.23,1.75c-1.32.19-2.68.21-4,.3Z"/><path d="M102.24,188.37a87.86,87.86,0,0,0,11.69-.93.55.55,0,0,1,.18,0l.78.08a2.5,2.5,0,0,1-.71.36c-3,.37-6,.8-9,1-2.2.19-4.42.16-6.63.2a8.54,8.54,0,0,1-1.42-.14,2,2,0,0,1-.53-.22,1.87,1.87,0,0,1,.52-.24c.77-.07,1.55-.12,2.32-.14C100.39,188.35,101.32,188.37,102.24,188.37Z"/><path d="M134.73,172.55v3.77a4.42,4.42,0,0,1,0,.63c0,.1-.1.19-.15.28-.09-.1-.24-.2-.25-.3-.07-.8-.11-1.61-.15-2.41-.13-3.38-.27-6.75-.39-10.12a4,4,0,0,1,.23-1,4.41,4.41,0,0,1,.33,1c.19,2.71.34,5.43.5,8.14Z"/><path d="M78.4,181.49c-.07,1.9-.13,3.81-.2,5.72a2.16,2.16,0,0,1-.13.41c-.1-.14-.26-.27-.27-.41-.07-1.13-.16-2.26-.16-3.4,0-2.14.08-4.29.13-6.44a1.64,1.64,0,0,1,.09-.44,6.65,6.65,0,0,1,.27-.61,2.25,2.25,0,0,1,.22.68c0,1.5,0,3,0,4.48Z"/><path d="M124.49,179.54c0,1.22,0,2.45,0,3.68a2.07,2.07,0,0,1-.13.4c-.1-.12-.27-.25-.28-.38-.06-.86-.12-1.73-.12-2.59,0-1.85,0-3.7.08-5.55,0-.11.11-.23.17-.34a1.27,1.27,0,0,1,.15.31,6.39,6.39,0,0,1,.13,1.06c0,1.14,0,2.27,0,3.41Z"/><path d="M130.14,186.07a1.13,1.13,0,0,1-.26,0l-.33-.11c.09-.1.16-.27.27-.3.85-.23,1.72-.47,2.58-.66s1.87-.35,2.81-.51a1.13,1.13,0,0,1,.39.08c-.09.1-.16.25-.27.28-1.71.46-3.44.9-5.16,1.34Z"/><path d="M78.62,186.38c.07-.49.13-1.1.24-1.71,0-.13.22-.22.34-.33.07.12.21.24.21.36,0,.56,0,1.12-.08,1.68s0,1.06-.09,1.59c0,.12-.13.23-.2.34-.1-.1-.26-.18-.27-.29C78.7,187.52,78.68,187,78.62,186.38Z"/><path d="M106.14,113l6.48-.82,2.58-.33a2.47,2.47,0,0,1,.54.05,2.22,2.22,0,0,1-.52.29,26.61,26.61,0,0,1-3.48.82c-3.32.38-6.65.73-10,.92-2.44.14-4.9,0-7.34,0a4.65,4.65,0,0,1-1.35-.41,9.19,9.19,0,0,1,1.27-.16c2.81,0,5.62,0,8.44,0a4.36,4.36,0,0,0,.49-.06l-.44,0c-3.23-.06-6.46-.05-9.68-.21-2.17-.11-4.33-.46-6.5-.72a2.77,2.77,0,0,1-.69-.16c-.12,0-.2-.18-.3-.28a1.22,1.22,0,0,1,.39-.14c.36,0,.71,0,1.07.06,2,.17,4,.36,6.07.5,1.49.09,3,.12,4.48.17a2.6,2.6,0,0,0,.39-.05l-.35,0c-4.33-.42-8.68-.81-13-1.28a19.17,19.17,0,0,1-3.11-.79c-.2-.06-.34-.36-.5-.54.24-.07.5-.24.72-.2,1.41.24,2.8.6,4.22.79q3,.42,6,.65,5.08.41,10.19.69c2.36.13,4.72.16,7.08.26a10.36,10.36,0,0,1,1.46.25,15,15,0,0,1-1.49.27,19.33,19.33,0,0,1-2.15,0,.86.86,0,0,0-.93.53l-1.61.08,0,0Zm-3.8-.41h1.34a1.35,1.35,0,0,0,.29,0l-.26,0h-2.86a2.48,2.48,0,0,0-.27,0,1.88,1.88,0,0,0,.33,0Z"/><path d="M80.35,72c0,.45,0,.9,0,1.34a.69.69,0,0,1-.13.29c-.07-.08-.19-.16-.2-.25-.1-.89-.19-1.78-.27-2.68-.2-2.29-.38-4.58-.6-6.87-.26-2.79-.58-5.58-.85-8.37Q77.63,48.63,77,41.81c-.38-4.22-.72-8.44-1.08-12.67-.07-.8-.19-1.6-.27-2.4a10,10,0,0,1,0-1.34c0-.15.15-.29.23-.43.1.12.28.24.3.38.1.65.16,1.3.22,2,.29,3,.59,6,.85,9,.16,1.85.24,3.7.4,5.54.26,3,.55,5.95.84,8.92.25,2.61.52,5.23.79,7.84.2,2,.41,4,.61,6,.1,1,.2,2,.26,2.94.08,1.49.13,3,.19,4.48Z"/><path d="M121.22,36.89c0-.8.08-1.6.18-2.39a5.75,5.75,0,0,1,.36-1.11,4.53,4.53,0,0,1,.22,1.07q-.24,7.47-.52,14.95c-.1,2.63-.23,5.25-.38,7.88-.21,3.69-.45,7.39-.69,11.09-.12,1.78-.24,3.57-.38,5.36a1.62,1.62,0,0,1-.16.45c-.08-.14-.24-.28-.24-.43,0-.78,0-1.55,0-2.33.16-3.37.31-6.74.49-10.11.21-3.88.45-7.76.67-11.63.08-1.43.14-2.87.18-4.3q.14-4.26.25-8.51Z"/><path d="M106.7,57.21c-.13,5.68-.26,11.24-.4,16.79q-.15,6.45-.35,12.9c-.08,2.74-.19,5.49-.29,8.23a2.19,2.19,0,0,1,0,.36c0,.08-.08.14-.12.21s-.21-.15-.21-.23c0-.42,0-.84,0-1.26q.08-4.15.14-8.33c.08-4.6.13-9.2.22-13.8q.13-6.18.34-12.36c.06-1.79.21-3.58.32-5.36a1.36,1.36,0,0,1,.06-.45,1.14,1.14,0,0,1,.25-.3.92.92,0,0,1,.1.32C106.7,55.07,106.7,56.2,106.7,57.21Z"/><path d="M120.09,42.8l-.78,12.6c-.18,3-.35,5.9-.57,8.85-.13,1.72-.34,3.44-.51,5.16a1.42,1.42,0,0,1,0,.36,3.78,3.78,0,0,1-.26.43,1.56,1.56,0,0,1-.16-.44c0-1,0-1.91.1-2.87.13-2.29.29-4.58.44-6.88.23-3.69.45-7.38.7-11.08.16-2.5.36-5,.58-7.49a12.69,12.69,0,0,1,.33-1.58c0,.5.09,1,.1,1.5s0,1,0,1.44Z"/><path d="M108.16,71.38c-.07,2.77-.11,5.55-.21,8.32-.07,1.73-.22,3.46-.36,5.18a2.63,2.63,0,0,1-.32.76,4.17,4.17,0,0,1-.1-.78q.18-6.48.38-13c0-1.37.11-2.74.17-4.12a1,1,0,0,1,0-.35A2,2,0,0,1,108,67a1.59,1.59,0,0,1,.12.41c0,.92,0,1.85,0,2.77Z"/><path d="M105.3,115l-1.24-.35c.42-.1.83-.24,1.26-.31q6-.87,11.93-1.72c.49-.06,1,0,1.48,0a6.82,6.82,0,0,1-1.31.51c-3.79.62-7.58,1.2-11.38,1.79a4.19,4.19,0,0,1-.71,0Z"/><path d="M102.88,86.08V80.7a1.35,1.35,0,0,1,0-.45c.07-.26.19-.52.28-.78a4,4,0,0,1,.19.76,14.35,14.35,0,0,1,.1,1.61c0,3.67-.1,7.35-.15,11a1.11,1.11,0,0,1,0,.26,3.92,3.92,0,0,1-.16.36,1.42,1.42,0,0,1-.11-.33c0-.53-.11-1.07-.12-1.61,0-1.82,0-3.64,0-5.47Z"/><path d="M77.23,25.36a2.24,2.24,0,0,1,0-.45c0-.09.14-.16.21-.24s.2.14.21.23c.12.59.25,1.17.32,1.76.36,3.23.7,6.46,1,9.69a2.31,2.31,0,0,1-.11.62,3.1,3.1,0,0,1-.26-.63c-.11-.58-.2-1.17-.28-1.76l-1.2-9.21Z"/><path d="M85.89,104.7c0,.87,0,1.74,0,2.6,0,.1-.1.19-.15.28-.07-.08-.21-.15-.22-.24-.06-.56-.11-1.13-.14-1.7-.16-2.71-.33-5.42-.46-8.13a2.48,2.48,0,0,1,.29-.81,2.63,2.63,0,0,1,.32.76c.16,2.41.29,4.83.44,7.24Z"/><path d="M117.35,100.51c-.07,1.6-.13,3.21-.21,4.82a2.85,2.85,0,0,1-.13.48,1.76,1.76,0,0,1-.26-.51c0-.53,0-1.07,0-1.61l0-6.51a1.43,1.43,0,0,1,0-.36c.07-.24.18-.47.27-.7a2.28,2.28,0,0,1,.32.72c0,1.22,0,2.44,0,3.67Z"/><path d="M116.07,54.87c.1-1.7.18-3.4.32-5.09a2.88,2.88,0,0,1,.39-.89,3.73,3.73,0,0,1,.17.91c-.11,2.71-.25,5.42-.38,8.13a1,1,0,0,1,0,.35,1.53,1.53,0,0,1-.26.31.94.94,0,0,1-.11-.32c0-1.13,0-2.27,0-3.4Z"/><path d="M86.92,66.14a13.57,13.57,0,0,1-1.69,0c-.23,0-.43-.3-.65-.47.2-.18.39-.51.59-.51q1.78-.08,3.57,0c.19,0,.37.3.55.46-.19.19-.37.5-.59.53a13.17,13.17,0,0,1-1.78,0Z"/><path d="M86.88,37.23a11,11,0,0,1,1.52,0c.23,0,.43.33.65.5-.2.18-.39.52-.6.52-1.1,0-2.2,0-3.31,0-.16,0-.32-.28-.48-.43.17-.17.33-.46.52-.49a13.73,13.73,0,0,1,1.7-.1Z"/><path d="M86.71,52.33a15.85,15.85,0,0,1-1.69,0c-.21,0-.39-.26-.59-.4.18-.17.34-.47.53-.48,1.15-.08,2.31-.12,3.46-.11.21,0,.41.34.61.51-.21.17-.41.45-.63.48a13.62,13.62,0,0,1-1.69,0Z"/><path d="M86.57,80.28c-.4-.22-1.15-.45-1.14-.67,0-.76.74-.56,1.23-.59a16.6,16.6,0,0,1,2.23,0c.26,0,.49.31.73.47-.24.17-.47.46-.73.49-.74.1-1.49.09-2.23.12Z"/><path d="M83.91,104c0,.7,0,1.24,0,1.77,0,.1-.1.2-.15.29-.09-.09-.25-.17-.26-.27-.12-1.72-.23-3.44-.31-5.16,0-.14.16-.29.24-.44.1.17.28.33.29.5C83.8,101.84,83.85,103,83.91,104Z"/><path d="M115.77,103.18c-.09.77-.17,1.53-.26,2.3,0,.07-.09.13-.13.2s-.11-.14-.11-.22c0-1.36,0-2.72,0-4.08,0-.1.09-.2.14-.3.09.11.26.21.26.32,0,.59,0,1.18,0,1.78Z"/><polygon points="106.31 105.42 106.35 105.41 106.34 105.45 106.31 105.42"/><path d="M105.54,126.49c-.43,0-.71,0-1,0a4.09,4.09,0,0,1-.69-.17,2.83,2.83,0,0,1,.72-.26c3.53-.32,7.07-.62,10.6-.92a51.69,51.69,0,0,0,9.25-1.57,8.56,8.56,0,0,1,1.14-.25,2.22,2.22,0,0,1,.61.1c-.16.15-.3.37-.49.43a14.75,14.75,0,0,1-2.65.82c-3.12.48-6.24,1-9.38,1.28C110.92,126.23,108.14,126.32,105.54,126.49Z"/><path d="M109.81,134.56l-15-.36c-1.56,0-3.11,0-4.67,0a2.56,2.56,0,0,1-.62,0,1.48,1.48,0,0,1-.4-.27,1.63,1.63,0,0,1,.42-.11c3.94-.05,7.89-.15,11.83-.13s7.82.18,11.73.27c.3,0,.6-.07.89-.06a5.86,5.86,0,0,1,.73.13,2.76,2.76,0,0,1-.66.45,3.15,3.15,0,0,1-1,.11Z"/><path d="M83.27,126.71c-3.18-.32-6.37-.57-9.53-1a29.65,29.65,0,0,1-3.88-1,.74.74,0,0,1-.4-.21c-.12-.17-.28-.44-.22-.58a.68.68,0,0,1,.57-.3c.35,0,.68.21,1,.27,3.13.61,6.26,1.22,9.4,1.8,1.2.22,2.42.34,3.63.54a1.89,1.89,0,0,1,.58.3,5.84,5.84,0,0,1-.64.2,2.47,2.47,0,0,1-.54,0Z"/><path d="M117.26,127.09l-1.38-.19a6.29,6.29,0,0,1,1.34-.47,53.35,53.35,0,0,0,12.28-2.86,3.28,3.28,0,0,1,1,0c-.24.28-.42.71-.72.82a38.18,38.18,0,0,1-4.93,1.58c-2.51.52-5.07.81-7.6,1.2Z"/><path d="M118.42,134.17l-.23-.14c.07-.08.13-.21.23-.24.88-.26,1.76-.55,2.66-.76a34.28,34.28,0,0,0,8.18-2.57c1.11-.57,2.13-1.32,3.19-2,.17-.11.32-.27.5-.37s.22,0,.33,0,.05.32,0,.39a10.06,10.06,0,0,1-1.16,1.1,23.84,23.84,0,0,1-9.23,3.72C121.41,133.6,119.94,133.87,118.42,134.17Z"/><path d="M110.25,132.77h-3.32a1.31,1.31,0,0,1-.32-.1c.11-.07.21-.18.33-.19l4.19-.32c3.76-.25,7.51-.49,11.27-.72a4.65,4.65,0,0,1,.82.08,2.5,2.5,0,0,1-.73.43,22.73,22.73,0,0,1-2.83.42c-3.13.18-6.27.3-9.4.44Z"/><path d="M69.71,120.7c-.41.69-.81,1.38-1.23,2.06a1.14,1.14,0,0,1-.33.23c0-.14-.09-.29-.05-.41.19-.53.39-1.07.62-1.58a16.93,16.93,0,0,0,1.49-5.12.19.19,0,0,1,0-.08l.36-.64c.1.21.29.44.27.65-.11,1-.27,1.94-.42,2.91l-.05.24,0-.25c.41.05.64.3.5.67-.35.92-.75,1.81-1.15,2.7,0,.08-.18.1-.28.14a.76.76,0,0,1-.08-.32c.08-.4.2-.8.3-1.21l.36-.89.05-.06s0,0,0-.07l-.07.13Z"/><path d="M119.23,123.06l1,.22a3,3,0,0,1-.9.46c-2.33.34-4.67.64-7,.93-1,.13-2,.22-3,.32a5.34,5.34,0,0,1-.8,0c-.1,0-.2-.1-.3-.16.1-.07.2-.2.31-.22Z"/><path d="M128.57,119.43c.26.79.51,1.58.76,2.37a4.5,4.5,0,0,1,.17.6,1.28,1.28,0,0,1-.07.42,1.26,1.26,0,0,1-.31-.25c-.2-.29-.36-.61-.53-.91,0,.32.11.64.14,1a.36.36,0,0,1-.12.29.38.38,0,0,1-.3-.11,2.41,2.41,0,0,1-.44-2.26,1.28,1.28,0,0,0,0-.67c-.12-.55-.28-1.1-.39-1.65a1.66,1.66,0,0,1,.12-.56l.48.33h0l.37,1.1v0l.19.37Z"/><path d="M128.05,118c-.14-.64-.29-1.27-.39-1.92,0-.15.16-.33.24-.49.12.12.29.22.34.36.19.6.29,1.22.52,1.8.48,1.27,1,2.53,1.53,3.8a2.12,2.12,0,0,1,.07.57c-.17-.12-.4-.2-.49-.36-.46-.77-.87-1.55-1.3-2.33h0l-.19-.37v0L128,118Z"/><path d="M79.69,127.65l-6.21-1a2,2,0,0,1-.68-.23,2.66,2.66,0,0,1-.45-.44,2.86,2.86,0,0,1,.58,0c2.21.37,4.41.76,6.61,1.15a.55.55,0,0,1,.17,0l.42.25Z"/><path d="M127.08,130.66l-.35-.19c.07-.09.11-.23.2-.27.87-.39,1.74-.78,2.62-1.14.11-.05.29.06.44.1-.08.11-.12.29-.23.34C128.87,129.9,128,130.28,127.08,130.66Z"/><path d="M75.89,127.4c.64.17,1.21.3,1.78.47.1,0,.15.21.23.32-.12.05-.25.16-.36.15a13,13,0,0,1-1.66-.24c-.22,0-.4-.25-.6-.39Z"/><path d="M118.91,15.11c.86,0,1.73,0,2.6,0a2.38,2.38,0,0,1,.7.26c-.24.12-.48.34-.73.35-.78,0-1.56,0-2.33,0-1,0-2-.09-3-.17-.17,0-.32-.2-.48-.3a2.8,2.8,0,0,1,.5-.12h2.69Z"/><path d="M134.13,58c-.11,3.22-.07,6.45-.35,9.66-.37,4.21-1.18,8.34-3.53,12a5.21,5.21,0,0,1-.77.86c-.07.06-.27,0-.39,0s-.05-.23,0-.32a3.12,3.12,0,0,1,.29-.45,22.34,22.34,0,0,0,3.5-10.13A110,110,0,0,0,133.62,58v-.08c.1-.41.19-.81.29-1.21l.28,1.28Z"/><path d="M133.83,43.46c0,.72,0,1.43,0,2.15,0,.13-.13.27-.2.4-.07-.12-.19-.24-.2-.37q-.1-1.24-.18-2.49a38.45,38.45,0,0,0-1.14-7.77,1.82,1.82,0,0,1,.07-.64c.17.18.45.32.49.52.35,1.45.72,2.9.94,4.37.2,1.26.21,2.55.3,3.83Z"/><path d="M134,65.74c.19-1.72.37-3.43.57-5.14a2.24,2.24,0,0,1,.21-.54,2.27,2.27,0,0,1,.21.62c0,1-.07,2-.14,3s-.22,2.25-.35,3.37c0,.12-.14.23-.22.34-.06-.12-.18-.23-.19-.34,0-.42,0-.84,0-1.25Z"/><path d="M125,82.47h0Z"/><polygon points="125.87 76.38 125.85 76.33 125.9 76.35 125.87 76.38"/><path d="M126.25,75.1h0Z"/><path d="M101.65,107.59h0Z"/><path d="M96.23,105.39l.09.09Z"/></g></svg>