<svg id="Layer_1" data-name="Layer 1" xmlns="http://www.w3.org/2000/svg" viewBox="0 0 200 200"><g id="wmmttE"><path d="M74.93,26.76c.23-3.31.49-5.51.53-7.72C75.57,12.1,79.38,8.6,86,8.43c9.57-.26,19.16-.19,28.74,0,6.41.1,9.72,3.63,10,10.05.12,2.47.46,4.92.78,8.32,4.3,0,8.16,0,12,0,10.93.15,15.33,4.37,15.37,15.44.11,32.41,0,64.81,0,97.22,0,10.7.11,21.41,0,32.12-.14,10-4.47,14.66-14.32,14.73q-38.46.24-76.92,0c-9.81-.08-14-4.24-14-14.05q-.22-65.5,0-131C47.7,31,52.19,27,62.27,26.77,66.18,26.7,70.09,26.76,74.93,26.76Zm14,116.4,1.79.84,32.26-46.92H101.43l7.92-29.22-1.78-.64-31.1,44.45h20.6Z"/></g></svg>