<svg id="Layer_1" data-name="Layer 1" xmlns="http://www.w3.org/2000/svg" viewBox="0 0 200 200"><g id="kcO2iC.tif"><path d="M41.83,157.89,27.56,170.47c.07-.85.11-1.59.22-2.32,0-.19.26-.36.43-.52l11.81-11s.1-.12.18-.22A78,78,0,0,1,18.06,119c-.55.25-1.06.46-1.55.71-2.92,1.52-5.83,3-8.74,4.57a1.2,1.2,0,0,1-1.24.08c-.41-.2-.86-.34-1.37-.54a5,5,0,0,1,.46-.32c3.8-2.19,7.6-4.39,11.42-6.55a.62.62,0,0,0,.37-.81,77.65,77.65,0,0,1,79.89-94,76.53,76.53,0,0,1,30.8,8,78.36,78.36,0,0,1,31.13,28.24l.3.45c13.47-8,25.48-17.66,35.25-30l.14.1c-.66,1.6-1.28,3.22-2,4.8A85.54,85.54,0,0,1,179.5,54.41a138.85,138.85,0,0,1-14.17,14.22.76.76,0,0,0-.24,1.06A77.35,77.35,0,0,1,171,103.58a77.75,77.75,0,0,1-57.72,71.27,74.76,74.76,0,0,1-15.15,2.42,77.5,77.5,0,0,1-55.76-18.92C42.23,158.22,42.08,158.1,41.83,157.89Zm84.23-56.1-.4-.41c-.5-.56-1-1.11-1.5-1.69-.28-.33-.5-.27-.83,0-2.7,1.8-5.42,3.58-8.13,5.37-.14.09-.26.2-.45.34.26.15.47.25.65.38a10.81,10.81,0,0,1,1.52,1.24,1.57,1.57,0,0,1-.35,2.54,6.2,6.2,0,0,1-1.78.8,12.79,12.79,0,0,1-7.1-.1.71.71,0,0,0-.57.06q-2.4,1.52-4.78,3.08c-.13.08-.3.25-.3.38,0,.91,0,1.83,0,2.92l.42-.61a5.5,5.5,0,0,1,2.41-2,1.83,1.83,0,0,1,1.23-.11,21.37,21.37,0,0,0,8.08,1.25,14.88,14.88,0,0,0,11.06-4.67,5.88,5.88,0,0,0,1.92-5.67c-.16-.73-.4-1.45-.61-2.17q2.34,4.78,4.69,9.58c.15.3,0,.46-.19.63-.52.39-1,.79-1.53,1.18a1.38,1.38,0,0,0,.71.14c.58,0,1.31-.18,1.7.09s.52,1,.72,1.6c1.78,5,3.12,10.12,3,15.51a16.26,16.26,0,0,1-2.27,8.47,7.74,7.74,0,0,1-5.27,3.83,19.71,19.71,0,0,1-6.13.17A34.92,34.92,0,0,1,112,141c-.16-.07-.33-.11-.55-.18a.82.82,0,0,0,.62.94c1.18.43,2.35.89,3.55,1.28A32.17,32.17,0,0,0,126.72,145c3.07-.12,5.77-1.05,7.57-3.69A13.62,13.62,0,0,0,136,138a23.61,23.61,0,0,0,.68-10.73,58.3,58.3,0,0,0-3-12.08l-.36-1h5.47a7.54,7.54,0,0,1-.9-1.24,4.15,4.15,0,0,1-.55-1.84,31.55,31.55,0,0,1,.64-3.54,1.33,1.33,0,0,1,.19,0q4.53,0,9.06,0a.58.58,0,0,1,.45.3c.27.77.48,1.55.72,2.33a2.5,2.5,0,0,1-.51,2.39c-.34.44-.74.84-1.11,1.25l-.26.32h17.13a5.71,5.71,0,0,1-2.66-3.4q-4.64-12.52-9.29-25.06a.87.87,0,0,0-1-.7c-1.82,0-3.64,0-5.46,0a1.67,1.67,0,0,0-.84.27c-1.72,1.19-3.42,2.41-5.13,3.61a1.43,1.43,0,0,0-.62.91q-2.79,10.4-5.61,20.76a7.14,7.14,0,0,1-.66,1.28A116.9,116.9,0,0,0,120.7,90.21l.11-.13,3.25,1.9V84.55a6.28,6.28,0,0,1-1.09.89,3.29,3.29,0,0,1-1.59.54c-1.23-.09-2.44-.4-3.66-.58a1.18,1.18,0,0,1-.84-.52,139.72,139.72,0,0,0-16.55-18.42A91.19,91.19,0,0,0,83,53.51c-4.62-2.57-9.43-4.67-14.78-5.16a13.69,13.69,0,0,0-8,1.41,11.32,11.32,0,0,0-5.55,7.85,30.3,30.3,0,0,0,.06,12.22,71.43,71.43,0,0,0,4.46,14.79A107.75,107.75,0,0,0,65,96.55c.1.18.37.41.51.38a16,16,0,0,0,1.57-.52l-.26-.51c-1.24-2.32-2.55-4.6-3.71-7-3.32-6.8-6-13.83-7-21.41a25.38,25.38,0,0,1,.29-9.11c1.29-5.51,5-8.49,10.68-8.49A23,23,0,0,1,75,51.51,57.58,57.58,0,0,1,89.44,59.6a128.25,128.25,0,0,1,25.21,25.13,1,1,0,0,1,.13.24c-1.09,0-2.19,0-3.29,0a9.62,9.62,0,0,0-8,3.48A8.9,8.9,0,0,0,104.56,101a17.79,17.79,0,0,0,6.17,2.88.82.82,0,0,0,.56-.16q3.78-2.34,7.54-4.7l2.46-1.57c-1.48-.67-2.77-1.31-4.11-1.85s-3-1.06-4.45-1.67a5.21,5.21,0,0,1-1.66-1.13,1.87,1.87,0,0,1,.45-3.15,4.46,4.46,0,0,1,1.17-.49,10.7,10.7,0,0,1,5,0,.9.9,0,0,1,.49.35A126.74,126.74,0,0,1,126.06,101.79ZM96.4,113.57A23.35,23.35,0,0,1,95,110.9q-4.74-12.62-9.39-25.26a1,1,0,0,0-1.08-.74c-4.53,0-9.06,0-13.59,0h-.78c.56.62,1,1.1,1.47,1.61a3.78,3.78,0,0,1,.85,3.61c-1.66,6-3.24,12-4.88,18-.93,3.42-1,3.41-3.8,5.59-.13.11-.25.23-.43.4h9.33a5.6,5.6,0,0,1-.6-.75c-.32-.63-.86-1.28-.85-1.92a26.63,26.63,0,0,1,.55-3.76c3.88,4.93,7.71,9.78,11.59,14.69l1.84-1.24c-3.63-4.55-7.23-9-10.88-13.6a2.13,2.13,0,0,1,.33-.09c2.14,0,4.29,0,6.44,0a.68.68,0,0,1,.47.36c.26.74.47,1.51.7,2.26a2.54,2.54,0,0,1-.5,2.4c-.26.34-.55.65-.84,1l-.64.65h.86c4.61,0,9.21,0,13.82,0A2.06,2.06,0,0,0,96.4,113.57Zm-59.12.58c-.54-.5-1-.9-1.43-1.34a4.27,4.27,0,0,1-1.44-3c0-4.49,0-9,0-13.48,0-.13,0-.27.05-.52.17.26.27.42.37.59Q40,105,45.1,113.6a.94.94,0,0,0,.92.52c3.77,0,7.55,0,11.33,0,.18,0,.36,0,.65,0l-.92-.86A5.35,5.35,0,0,1,55.21,109c.09-6.43,0-12.86,0-19.29a6.06,6.06,0,0,1,1.94-4.43l.26-.3H48.59c.29.25.5.41.68.6a5.4,5.4,0,0,1,2,3.89c0,4.07,0,8.13,0,12.2v1.41a1.29,1.29,0,0,1-.42-.47q-5-8.55-10.08-17.1a1,1,0,0,0-1-.59c-3.89,0-7.79,0-11.68,0h-.78c.63.58,1.14,1,1.61,1.49a4.47,4.47,0,0,1,1.51,3.27q0,10,0,19.93a5.09,5.09,0,0,1-2.24,4.18l-.5.37ZM85.13,125a1,1,0,0,0,.08.21,43.76,43.76,0,0,0,5.36,6.47,7.53,7.53,0,0,0,3.68,2.21,2,2,0,0,0,2.26-.64,2.14,2.14,0,0,0-.15-2.45,4.67,4.67,0,0,0-.84-.88q-3.87-3.18-7.77-6.34a.45.45,0,0,0-.44-.07C86.57,124,85.85,124.5,85.13,125Zm24.06-86.07h.19c0-.44,0-.88,0-1.32,0-.14,0-.35.1-.41.57-.4,1-1.08,1.87-.9a2.31,2.31,0,0,0,.72-.1c-1.88.08-3-.66-3-2.8.17,2.17-.93,2.93-2.88,2.82.75.37,1.53-.05,2.25.59S109,38.23,109.19,38.93Zm44.48,82.27-.15,0c0,.35,0,.69-.06,1a1.7,1.7,0,0,1-1.79,1.74c-.26,0-.51.06-.77.1l0,.18c.42,0,.84,0,1.26,0,.17,0,.39,0,.48.13.43.48,1,.87.87,1.68a2.8,2.8,0,0,0,.12.89c-.16-2,.74-3,2.89-2.93C154.46,124.19,153.52,123.25,153.67,121.2Zm-81-63.84c-.5.73,0,1.53-.66,2.27s-1.46.42-2.11.82a11.13,11.13,0,0,0,1.28.08.75.75,0,0,1,.48.12c.48.51,1,1,.87,1.81a.92.92,0,0,0,0,.4,2.26,2.26,0,0,0,.1.31c.33-.68-.17-1.45.58-2.17s1.49-.4,2.27-.75C73.46,60.41,72.48,59.47,72.68,57.36ZM62.53,157.54c.75.28,1.51-.08,2.21.62s.17,1.55.64,2.14c.33-.67-.2-1.46.59-2.19s1.48-.37,2.23-.73c-2,.14-3-.77-2.85-2.87-.49.74,0,1.53-.67,2.27S63.24,157.18,62.53,157.54Zm87.06-16.35c-.64-.43-1.45.05-2.17-.67s-.4-1.51-.69-2.18c-.43.62,0,1.42-.58,2.15s-1.46.43-2.12.82a6,6,0,0,0,1.11.07,1.65,1.65,0,0,1,1.49,1.43c0,.21,0,.42,0,.63s.08.41.12.64c.36-.73-.14-1.49.61-2.22S148.89,141.47,149.59,141.19Zm-47.53-31.38,2.1-1.41-2.1-1.7Zm32.49,21a.91.91,0,1,0-.9.91A.86.86,0,0,0,134.55,130.83Zm-67.85.49a.88.88,0,0,0-.92-.9.89.89,0,1,0,.92.9Zm5.23,11a.91.91,0,1,0-.91.9A.88.88,0,0,0,71.93,142.34Zm-24.55-1.07a.91.91,0,0,0,0,1.81.91.91,0,1,0,0-1.81Zm-2.27-7a.91.91,0,1,0,.91.92A.9.9,0,0,0,45.11,134.3Zm44.6-97.41a.91.91,0,1,0-.91.93A.91.91,0,0,0,89.71,36.89Zm66.5,91.79a.87.87,0,0,0-.93.88.91.91,0,1,0,.93-.88Zm-22.52-4.3a.89.89,0,1,0,.86,1A.87.87,0,0,0,133.69,124.38Zm12.25.42a.91.91,0,1,0-.92.9A.88.88,0,0,0,145.94,124.8ZM109.5,53a.91.91,0,1,0,.89.94A.9.9,0,0,0,109.5,53ZM97.76,37.17A.91.91,0,0,0,97.7,39a.91.91,0,1,0,.06-1.81ZM136.29,85c.35.36.6.65.88.91.07.07.27.13.34.08.41-.28.81-.58,1.21-.88l-.07-.11ZM151,142a.64.64,0,0,0,.65-.72.68.68,0,0,0-1.35,0C150.34,141.76,150.6,142,151,142ZM83,45.92a.64.64,0,0,0-.69-.68.6.6,0,0,0-.67.63.61.61,0,0,0,.64.72C82.76,46.61,83,46.37,83,45.92Zm6.39,101.44a.63.63,0,0,0-.67.7.68.68,0,0,0,1.35,0C90.12,147.61,89.87,147.39,89.43,147.36Zm54.27-27.19a.64.64,0,0,0-.64.7.62.62,0,0,0,.71.66.61.61,0,0,0,.65-.66C144.43,120.44,144.18,120.2,143.7,120.17ZM66.24,116.3a.64.64,0,0,0-.7-.65.63.63,0,0,0-.68.7.62.62,0,0,0,.67.65C66,117,66.19,116.76,66.24,116.3ZM80.13,48.58c0-.43-.2-.72-.64-.74a.62.62,0,0,0-.72.65.62.62,0,0,0,.6.71A.65.65,0,0,0,80.13,48.58ZM94.24,28.35a.64.64,0,0,0-.7-.65.68.68,0,0,0,0,1.35C94,29.06,94.19,28.8,94.24,28.35Zm33.43,101.91c.44,0,.71-.24.72-.68a.62.62,0,0,0-.63-.68.63.63,0,0,0-.74.63A.66.66,0,0,0,127.67,130.26ZM98.54,47.16a.64.64,0,0,0-.73-.64.68.68,0,0,0,0,1.35C98.29,47.87,98.5,47.6,98.54,47.16ZM152,131.65a.65.65,0,0,0,.67-.71.61.61,0,0,0-.66-.65.62.62,0,0,0-.7.67C151.3,131.4,151.57,131.62,152,131.65ZM78.65,44.05a.66.66,0,0,0,.71-.68.61.61,0,0,0-.64-.68.63.63,0,0,0-.73.64C78,43.77,78.23,44,78.65,44.05Zm13.1-.53c0-.42-.25-.69-.7-.68a.68.68,0,0,0,0,1.36C91.48,44.21,91.71,44,91.75,43.52ZM37.26,136.29a.67.67,0,0,0-.68-.73.62.62,0,0,0-.68.64.63.63,0,0,0,.63.74A.66.66,0,0,0,37.26,136.29Zm107.85.53c-.44,0-.7.25-.7.69a.64.64,0,0,0,.7.69.63.63,0,0,0,.66-.66A.66.66,0,0,0,145.11,136.82Zm-16.83,1.58a.65.65,0,0,0-.7-.68.68.68,0,0,0,0,1.36C128,139.09,128.23,138.83,128.28,138.4Zm-60.23-76c0-.42-.23-.7-.67-.71a.62.62,0,0,0-.69.68.61.61,0,0,0,.63.68A.65.65,0,0,0,68.05,62.37Zm-10.52,76c-.42,0-.69.25-.68.7a.68.68,0,0,0,1.36,0A.64.64,0,0,0,57.53,138.41Zm-12.84,1.22a.65.65,0,0,0-.68-.7.69.69,0,0,0,0,1.38A.64.64,0,0,0,44.69,139.63ZM80.42,45.32a.65.65,0,0,0,.68-.71.62.62,0,0,0-.66-.65.62.62,0,0,0-.7.67C79.73,45.08,80,45.29,80.42,45.32Zm24.33,96.5a.64.64,0,0,0-.65.72.61.61,0,0,0,.66.65.63.63,0,0,0,.69-.69A.66.66,0,0,0,104.75,141.82Zm-41.59,5.8a.66.66,0,0,0-.66.7.68.68,0,0,0,1.36,0C63.87,147.91,63.62,147.68,63.16,147.62Zm9.54,2.31a.66.66,0,0,0-.71-.67.64.64,0,0,0-.66.72.62.62,0,0,0,.67.65A.66.66,0,0,0,72.7,149.93ZM64.55,58.28a.65.65,0,0,0-.65.73.6.6,0,0,0,.66.64.62.62,0,0,0,.69-.68A.65.65,0,0,0,64.55,58.28Zm66.82,97.38c0-.43-.24-.7-.68-.7a.62.62,0,0,0-.68.69.61.61,0,0,0,.64.67A.65.65,0,0,0,131.37,155.66Z"/><path d="M138.88,103.67c1.06-3.45,2.1-6.87,3.19-10.44l4.23,10.44Z"/><path d="M76,93.27l4.21,10.4h-7.4C73.83,100.23,74.88,96.81,76,93.27Z"/></g></svg>