<svg id="Layer_1" data-name="Layer 1" xmlns="http://www.w3.org/2000/svg" viewBox="0 0 200 200"><defs><style>.cls-1{fill:#5bcdf9;}.cls-2{fill:#fefefe;}.cls-3{fill:#f4a8b7;}</style></defs><g id="rZsWWC"><path class="cls-1" d="M11,70.83V49.2H189V70.83c-.93,0-1.85-.13-2.78-.13q-86.22,0-172.44,0C12.85,70.7,11.93,70.78,11,70.83Z"/><ellipse class="cls-2" cx="100" cy="102.6" rx="125.86" ry="15.31"/><path class="cls-1" d="M189,134.37V156H11V134.37c.93,0,1.85.13,2.78.13H186.22C187.15,134.5,188.07,134.42,189,134.37Z"/><path class="cls-3" d="M189,91.78H11v-21c.93,0,1.85-.13,2.78-.13q86.22,0,172.44,0c.93,0,1.85.08,2.78.13Z"/><path class="cls-3" d="M189,134.37c-.93,0-1.85.13-2.78.13H13.78c-.93,0-1.85-.08-2.78-.13v-21H189Z"/></g></svg>