<svg id="Layer_1" data-name="Layer 1" xmlns="http://www.w3.org/2000/svg" viewBox="0 0 200 200"><g id="PN4v8A.tif"><path d="M164.71,63.59c.81,2,.68,2.5-.86,3.69a11.46,11.46,0,0,1-6.31,2c-5.38.47-10.78.67-16.16,1.16-15,1.36-29.79,3.9-43.33,11.08a62.77,62.77,0,0,0-5.44,3.42A6.48,6.48,0,0,0,91,86.54c-1,1.37-.41,2.58,1.24,2.66a10.47,10.47,0,0,0,3.3-.37c3.71-1,7.37-2.29,11.09-3.34s7.35-1.89,11.15-.91a23.18,23.18,0,0,1,5.5,2,8.33,8.33,0,0,0,4.64,1.15c1.37-.06,2.75,0,4.12,0,.43,0,1,.18,1.26,0,2.29-2,4.54-1.45,6.94-.18a5.87,5.87,0,0,0,2.54.2q20.61,0,41.23,0c1.08,0,2.17.15,3.51.26,0,4,0,7.73,0,11.48,0,1.09-.61,1.52-1.61,1.54l-2.32,0H139.82v9c1,.06,2,.18,3,.18h34a8.06,8.06,0,0,1,2.31.09c.55.16,1.35.73,1.39,1.17.15,1.92.06,3.86.06,6H139.66c-.21,7.53,0,14.85-.14,22.39h-5.76c-.25-7.35,0-14.66-.16-22l-2.47-.5c-.78-1.94-.44-3.91-.33-5.83.09-1.58,1.75-1,2.71-1.79v-8.37c-1.15-.49-2-.59-2.26,1-.12.76-.3,1.51-.38,2.27-.65,6-3.94,10.18-9,13.24-5.89,3.54-12.31,5.63-18.89,7.34a191.66,191.66,0,0,1-27.87,4.78c-9.64,1-19.28,1.89-29,2-3.17,0-6.34.26-9.51.38a14.18,14.18,0,0,1-2.06-.06c-4.59-.44-5-.94-5-5.45V101.18l-8.62-.09c-2.74,0-5.49,0-8.24,0V87.73c2.74,0,5.49,0,8.23,0s5.58-.05,8.48-.09V78.86l-2.66-.66V71.5l2.57-.6.58-2.64c1.68,0,3.37,0,5.05-.08,1.21,0,2,.34,2,1.7A4.21,4.21,0,0,0,37.28,71a9.73,9.73,0,0,0,1.14.14c12.95,0,25.9,0,38.86,0a8.69,8.69,0,0,0,3.39-1,67.65,67.65,0,0,1,21.26-5.67c2.71-.27,5.42-.6,8.13-.9ZM37,128.67a28,28,0,0,0,4,.15c6.57-.64,13.15-1.25,19.7-2.08a188.71,188.71,0,0,0,42.82-10.85c4.81-1.81,9.56-3.85,13.51-7.33a12.14,12.14,0,0,0,4-6.43,8.64,8.64,0,0,0-2.42-8.71c-3.25-3.13-7.16-3.41-11.29-2.81-4.75.7-9.48,1.63-14.32,1.36a6.17,6.17,0,0,1-5.7-3.73c-1.09-2.4.22-4.25,1.86-5.66a42.3,42.3,0,0,1,6.66-4.77c5.89-3.3,12.39-5,18.89-6.66,10.38-2.64,21-3,31.65-3.57,3.42-.19,6.82-.64,10.23-1a7.89,7.89,0,0,0,1.72-.57,1.73,1.73,0,0,0-1.11-.32c-5.58.18-11.15.42-16.73.53-11.07.21-22.16,0-33.21.6-12,.65-22.68,5.19-32.45,11.95a18,18,0,0,0-7,8.42c-1.86,5,.14,8.07,4.35,9.18a22.13,22.13,0,0,0,3.54.57c2.31.22,4.63.32,6.93.54a8.8,8.8,0,0,1,2.49.6c1.74.7,2,1.65,1,3.19a5.72,5.72,0,0,1-6.56,2.38c-2.75-.65-5.41-1.63-8.14-2.38a18.64,18.64,0,0,0-4.72-1c-9-.1-18-.05-27.06,0-.84,0-1.67.09-2.66.15ZM66.6,78.75h-29a25.8,25.8,0,0,0-.49,9.35h4.62c6,0,12,0,18,0,1,0,2,.17,2.6-1.09C63.68,84.27,65.13,81.59,66.6,78.75Z"/></g></svg>