<svg id="Layer_1" data-name="Layer 1" xmlns="http://www.w3.org/2000/svg" viewBox="0 0 200 200"><g id="KLfcLo"><path d="M188.69,130a2.48,2.48,0,0,1,2.05,2.78c0,4,.22,8,.26,12a3.63,3.63,0,0,1-.61,2c-1.36,1.87-2.85,3.65-4.35,5.55-.76-.87-1.3-1.6-1.95-2.23-.87-.82-1.51-.66-1.77.51s-.29,2.68-.59,4a3.36,3.36,0,0,1-1.08,1.89c-1.44,1.08-3,2-4.58,3-.67-.83-1.23-1.62-1.9-2.32-.83-.86-1.43-.73-1.8.43a17.23,17.23,0,0,0-.62,2.85,1.72,1.72,0,0,1-1.25,1.61c-1.63.52-3.23,1.15-4.83,1.76a1.16,1.16,0,0,1-1.61-.48,16.39,16.39,0,0,0-2.28-2.2,12.82,12.82,0,0,0-1.29,2.8,1.9,1.9,0,0,1-1.87,1.8,15.26,15.26,0,0,0-2.59.53c-2,.62-3.73.74-4.84-1.7-.65-1.44-1.53-1.25-2.19.21a.29.29,0,0,0-.05.13c-.15,2.66-2,2.89-4.06,2.87a5.27,5.27,0,0,0-1,.06c-2.14.37-3.86.21-4.85-2.25-.62-1.52-1.51-1.34-2.24.24-.32.71-.57,1.45-.79,2-2.46,0-4.81,0-7.17,0-.3,0-.66-.42-.86-.73-.43-.66-.73-1.4-1.17-2.05-.79-1.15-1.36-1.13-2,.07-.39.73-.68,1.51-1,2.34-8.44-.87-16.76-2.09-24.47-5.93-4.4-2.19-8.8-4.38-13.31-6.31a22.17,22.17,0,0,0-6.58-1.6c-3.76-.36-6,1.36-7.13,5a19,19,0,0,0-.7,4A1.25,1.25,0,0,1,70.37,164l-5.94.89c-.47-1-.82-1.9-1.29-2.74-.69-1.22-1.22-1.23-2-.11a1.9,1.9,0,0,0-.37.58c-.53,2.07-1.94,2.54-3.86,2.21a6.52,6.52,0,0,0-1.53,0c-2.08.14-3.83-.13-4.22-2.71-.07-.5-.69-.92-1.05-1.38-.47.4-1.21.71-1.37,1.22-.77,2.32-2.39,2.41-4.34,1.9a3.78,3.78,0,0,0-.82-.12c-2.26-.07-4.19-.51-4.44-3.34,0-.52-.71-1-1.09-1.47a7.58,7.58,0,0,0-1.43,1.2c-1.49,2.05-1.47,2.07-4,1.38a5.29,5.29,0,0,0-.54-.13c-2.55-.39-4.43-1.43-4.46-4.39a2.83,2.83,0,0,0-.37-1c-.43-1-1.06-1-1.69-.24s-1.15,1.56-1.88,2.58c-1.39-.89-2.83-1.78-4.2-2.75a1.53,1.53,0,0,1-.41-1.09c-.19-6.41-.38-12.81-.52-19.22,0-2.08,1.42-2.92,3.41-2a58.31,58.31,0,0,0,19.45,5.52,149.72,149.72,0,0,0,16.68.27c7.75-.25,15.47-1.09,23.23-.44a71,71,0,0,1,20.62,4.95A92.72,92.72,0,0,0,143,150.28a71.93,71.93,0,0,0,27.16-7.05,1.77,1.77,0,0,0,.87-.77c-.37.15-.74.29-1.11.46-11.23,5.1-23.07,6.8-35.3,6.11a95.15,95.15,0,0,1-33.82-8.44c-10.49-4.7-21.58-6.24-33-6-7,.16-14,.3-21,0a60.58,60.58,0,0,1-25.51-7.19c-.42-.22-.66-1.13-.7-1.73a57.13,57.13,0,0,1,2.56-22.54C28.49,87.43,29.58,71.21,29,54.79c-.15-4-.41-8-.53-12a2.91,2.91,0,0,1,.73-1.69,33.49,33.49,0,0,1,16-10.38c8.48-2.75,17.2-3.22,26-2.46,9.25.79,18.28,2.64,26.71,6.68a39.74,39.74,0,0,1,6.58,4.33,4,4,0,0,1,1.36,3.87c-1.08,11.58-.47,23,3.39,34.1,7.2,20.62,21.67,32.54,43.33,35.38,5.73.75,11.59.45,17.36.89a41.41,41.41,0,0,1,9.14,1.62c6.57,2.06,9.64,6.61,9.6,13.5ZM99.6,80.48A3.5,3.5,0,0,0,103,83.94a3.59,3.59,0,0,0,3.5-3.44A3.51,3.51,0,0,0,103,77,3.44,3.44,0,0,0,99.6,80.48Zm21.25,27.22a3.47,3.47,0,0,0,3.48-3.41,3.56,3.56,0,0,0-3.41-3.51,3.46,3.46,0,0,0-3.51,3.51A3.4,3.4,0,0,0,120.85,107.7ZM102.13,50.81a3.47,3.47,0,1,0-3.44,3.43A3.44,3.44,0,0,0,102.13,50.81Zm11.49,42.91a3.45,3.45,0,0,0-3.38-3.5,3.5,3.5,0,0,0-3.53,3.37,3.46,3.46,0,0,0,3.46,3.55A3.42,3.42,0,0,0,113.62,93.72ZM99.39,69.29a3.46,3.46,0,0,0,3.45-3.42,3.5,3.5,0,0,0-3.41-3.48,3.43,3.43,0,0,0-3.5,3.51A3.39,3.39,0,0,0,99.39,69.29Z"/></g></svg>