<svg id="Layer_1" data-name="Layer 1" xmlns="http://www.w3.org/2000/svg" viewBox="0 0 200 200"><path d="M94.29,115.39v54.93c0,1,.31,1.2-1.22,1a69.38,69.38,0,0,1-9.36-1.93c-1.14-.29-2.3-.53-3.41-.91a13.78,13.78,0,0,1-2.81-1.3,5.13,5.13,0,0,1-2.36-3.86,19.8,19.8,0,0,1,.57-6.81,104.92,104.92,0,0,1,6.79-20.36c.89-2,.77-2.72-.89-4.19-1.31-1.17-2.72-2.25-4.14-3.3a1.56,1.56,0,0,0-2.48.19,22.31,22.31,0,0,0-2.51,2.9c-3.17,4.51-6.27,9.07-9.41,13.6-1.31,1.88-2.63,3.74-4,5.59a8.13,8.13,0,0,1-1.23,1.26,2.59,2.59,0,0,1-3.18.3,10.2,10.2,0,0,1-1.62-1.13,46.6,46.6,0,0,1-12.8-17.07c-1-2.31-.53-2.3,1-3.53q3.36-2.7,6.56-5.61c4.31-3.91,8.57-7.89,12.85-11.84.72-.66,1.46-1.28,2.17-1.94a3.67,3.67,0,0,1,2.4-1.11c.56,0,.82-.26.8-.83,0-.73,0-1.46,0-2.18s-.16-.71-.79-.46a9.78,9.78,0,0,0-3.41,2.33c-1.7,1.74-3.36,3.5-5,5.26-.15.15-.29.3-.43.46a.78.78,0,0,1-1.19.12,8.88,8.88,0,0,1-.86-.75,43.26,43.26,0,0,1-4.74-6,5.73,5.73,0,0,1-.38-.62c-.44-.83-.38-1.16.44-1.61,1.3-.73,2.62-1.4,3.93-2.11.35-.19.67-.44,1-.66-.37-.13-.73-.3-1.11-.4-2.08-.5-4.18-1-6.25-1.5a9.67,9.67,0,0,1-2.09-.91c-1-.55-1.06-.71-.44-1.68,1.4-2.19,2.82-4.36,4.24-6.54.57-.87,1.13-1.75,1.72-2.61s.74-.82,1.41-.11a65.75,65.75,0,0,0,9.59,8.11,9.42,9.42,0,0,0,1.26.66,12.71,12.71,0,0,0,0-1.38c-.11-1.73-.26-3.46-.36-5.18a6.36,6.36,0,0,1,.06-1.45,1.14,1.14,0,0,0-.75-1.4c-.65-.32-1.24-.77-1.89-1.1A7.15,7.15,0,0,1,56.42,83a27.26,27.26,0,0,1-1-5.93,2,2,0,0,0-.9-1.62,11.71,11.71,0,0,1-2.09-2c-1.43-1.83-2.8-3.7-4.16-5.59a5.24,5.24,0,0,1-.87-3.63,47.36,47.36,0,0,1,1.86-9.67c0-.1.06-.2.08-.3.24-1.08.24-1.1-.9-1.05-5.24.27-10.47.09-15.71-.07-3.6-.11-7.2-.31-10.79-.58a10.48,10.48,0,0,1-3.2-.82,5.1,5.1,0,0,1-3.35-5.33,15.71,15.71,0,0,1,2-6.51,46.75,46.75,0,0,1,5.7-8.43A54.36,54.36,0,0,1,37.24,18.93a46.76,46.76,0,0,1,17.57-6,56.86,56.86,0,0,1,9.12-.57,23.39,23.39,0,0,1,8.93,1.73,15.46,15.46,0,0,1,7.75,7.52,33,33,0,0,1,2.81,9c.59,3.17,1.08,6.35,1.69,9.52a26,26,0,0,0,2.11,6.4c1.39,2.86,3.37,5.08,6.55,6a.63.63,0,0,1,.53.75c0,.21,0,.42,0,.63V85.86c0,.1,0,.21,0,.31,0,1-.56,1.33-1.27.67-1.29-1.2-2.8-1.18-4.37-1.14-.87,0-1.73,0-2.6,0a.75.75,0,0,1-.93-.7,10.25,10.25,0,0,1,.57-6.11c.35-.9,1-1.05,1.92-1.06.38,0,.44.28.41.58s.2.56.56.58a.51.51,0,0,0,.55-.5c.13-.82.26-1.65.37-2.47a44.86,44.86,0,0,1,1.73-8,1.09,1.09,0,0,0,.08-.7,20.72,20.72,0,0,0-1.19-2.52c-.37-.64-.63-.65-1.3-.31s-1.2.71-1.83,1c-1.14.5-2.3.94-3.45,1.4a2.7,2.7,0,0,0-.67.28,3.84,3.84,0,0,1-3.57.49c-1.48-.36-2.93-.82-4.39-1.26a2.19,2.19,0,0,0-2.73.83c-.91,1.27-1.76,2.58-2.66,3.85a2,2,0,0,0-.18,2.25c.71,1.38,1.39,2.78,2.15,4.14s1.62,2.83,2.48,4.22a1.29,1.29,0,0,1-.07,1.61c-.73,1.05-1.38,2.16-2.11,3.22a2,2,0,0,0-.3,1.76,66.72,66.72,0,0,0,3.28,10A35.83,35.83,0,0,0,76.89,102c.36.59.35.57-.28.92a4.32,4.32,0,0,0-.91.68c-1.18,1.13-1.23,1.24-.22,2.55,2.15,2.8,4.36,5.56,6.55,8.34a6.06,6.06,0,0,0,4.14,2.33l4.43.58a2.71,2.71,0,0,0,2.19-.74C93.23,116.23,93.68,115.88,94.29,115.39Z"/><path d="M100.35,101.42v-76c0-1.74,0-1.77,1.78-1.7a89.58,89.58,0,0,1,11.79,1.11,82.88,82.88,0,0,1,9.73,2.18l.3.08c1.11.34,1.11.34,1.11,1.49l0,57c0,1.94-.22,1.72,1.72,1.72h49.63c1.34,0,1.34,0,1.56,1.3a75.78,75.78,0,0,1,.89,17.61,92.83,92.83,0,0,1-1.31,10.51c0,.1,0,.21-.05.31-.18.77-.18.77-.95.79-.34,0-.69,0-1,0h-49c-1.57,0-1.43-.12-1.43,1.48q0,27.48,0,54.94c0,1.35.29,1.21-1.27,1.65a85.36,85.36,0,0,1-14.77,2.9c-2.51.25-5,.32-7.57.42-1.25,0-1.07,0-1.07-1.06V101.42Z"/><path d="M131,69.41V31c0-1.49-.08-1.4,1.21-.82a78.44,78.44,0,0,1,23,15.32c.75.72.75.72,0,1.45L132,68.56Z"/><path d="M131,135.77c.63.57,1.09,1,1.53,1.39l21.46,20c.82.77.84.62,0,1.39a68.56,68.56,0,0,1-14.38,10.56c-2.42,1.34-5,2.47-7.45,3.68a5.66,5.66,0,0,1-.68.27c-.36.13-.51,0-.51-.39,0-.2,0-.41,0-.62V135.77Z"/><path d="M94.29,26.08V48.23c0,1.11-.13,1.2-1.18.8a4.14,4.14,0,0,1-2-1.77,12.41,12.41,0,0,1-1.77-4.52c-.43-2.38-.82-4.78-1.06-7.19a98.43,98.43,0,0,0-1.9-13.46,25.19,25.19,0,0,0-3.2-7.86A13.26,13.26,0,0,0,72.34,8.05c-.86-.05-1.73,0-2.6,0A2.88,2.88,0,0,1,69,8a3.36,3.36,0,0,1-.65-.28,2.38,2.38,0,0,1,.41-.56,18.11,18.11,0,0,1,4.68-2.43,31,31,0,0,1,7.44-1.4c4.14-.29,8.3-.41,12.45-.59.9,0,.94-.18.94,1Z"/><path d="M66.65,163.05c.2-2,.34-3.88.6-5.73.16-1.16.52-2.3.75-3.45a5.66,5.66,0,0,0,0-1.09,6.31,6.31,0,0,0-.78.77c-1.47,2.06-2.93,4.12-4.36,6.21a6.68,6.68,0,0,1-6.09,2.91,9.34,9.34,0,0,1-5.29-1.92,41.94,41.94,0,0,1-6.59-6.18,80.13,80.13,0,0,1-11.22-16.21c-.46-.89-.46-.89.36-1.45,1.19-.82,1.19-.81,1.84.43a71.73,71.73,0,0,0,8.82,13c1.92,2.27,4,4.42,6,6.59a9.71,9.71,0,0,0,5.34,2.8,4.63,4.63,0,0,0,4.31-1.25,13.64,13.64,0,0,0,1.83-2.25c3.24-5,6.44-10,9.66-15.05.58-.9,1.18-1.8,1.82-2.66a11.25,11.25,0,0,1,1.39-1.54c.52-.48.71-.48,1.26-.05,1,.79,1,.49.35,1.7A58.8,58.8,0,0,0,70,157.81,25.37,25.37,0,0,0,69.5,164a14.43,14.43,0,0,0,.34,2.36,7,7,0,0,0,3.57,4.76,27.47,27.47,0,0,0,3.91,1.66,73.58,73.58,0,0,0,14.58,3.27c.62.09,1.23.17,1.85.24.37.05.55.21.54.6-.06,2.52.38,2.22-1.82,1.94a79.34,79.34,0,0,1-16.87-3.91A28.79,28.79,0,0,1,71,172.8a8.13,8.13,0,0,1-4.2-6.89C66.72,164.91,66.69,163.91,66.65,163.05Z"/><path d="M146.74,81.24l2.55-2.4,18-16.86.22-.22c.3-.35.52-.34.75.1,1,1.83,2,3.63,2.94,5.49a72,72,0,0,1,4.87,12.7l.18.7c.12.42-.07.57-.47.55H147.25C147.15,81.3,147,81.27,146.74,81.24Z"/><path d="M147,123.87h27.68c1.23,0,1.24,0,.81,1.21a94.72,94.72,0,0,1-7.78,17c-.65,1.08-.47,1-1.41.16L164,140.1l-16.64-15.56a2.75,2.75,0,0,0-.63-.35Z"/><path d="M13.85,128.45l-6.49,2.26c-1.1.39-1.1.39-1.56-.71l-.13-.28c-.25-.65-.25-.65.4-.88l9.62-3.31c.88-.3.88-.3,1.34.55.07.12.12.25.2.36a1.38,1.38,0,0,1-.14,1.8c-1.76,2-3.49,4.13-5.23,6.19-.19.24-.4.46-.75.85a6.36,6.36,0,0,0,.83-.2l6.18-2.15c1.05-.37,1.12-.33,1.53.68a2.62,2.62,0,0,0,.15.39c.26.46.07.65-.39.8-1.84.6-3.68,1.24-5.51,1.87-1.38.47-2.75,1-4.12,1.44-.28.1-.71.45-.77.39a3,3,0,0,1-.56-.95c-.77-1.88-.78-1.56.41-3C10.47,132.53,12.11,130.56,13.85,128.45Z"/><path d="M120.68,197.72c-3.38.13-5.1-2.09-5.57-4.86a5.75,5.75,0,0,1,4.21-6.83,27.91,27.91,0,0,1,4.17-.8c.76-.12.79,0,1,.7.56,2.43,1.1,4.87,1.65,7.3.18.78.33,1.56.55,2.32.12.45.08.72-.4.89A16.06,16.06,0,0,1,120.68,197.72Zm-2.88-6.45a6,6,0,0,0,.09.81,8.25,8.25,0,0,0,.33,1.3c.94,2.57,3,2.86,5.15,2.25.34-.1.42-.29.34-.62-.55-2.42-1.1-4.85-1.63-7.28-.09-.42-.3-.54-.72-.52A3.76,3.76,0,0,0,117.8,191.27Z"/><path d="M186.47,60c3.49,0,5.79,3,5.94,6.38.15,3.23-3,6-6.6,6a6.26,6.26,0,0,1-5.95-6.5C179.87,62.66,182.86,60,186.47,60Zm-1.36,9.74a6.91,6.91,0,0,0,4.28-1.92,3.83,3.83,0,0,0,.69-.91,2.82,2.82,0,0,0-2.18-4.27,6.07,6.07,0,0,0-5.57,2.63,2.77,2.77,0,0,0-.12,3A2.87,2.87,0,0,0,185.11,69.78Z"/><path d="M186.52,142.38c-3.15,0-6.62-2.52-6.48-6.19a6.14,6.14,0,0,1,5.87-6.2c3,0,6.71,2.25,6.59,6.19A6.12,6.12,0,0,1,186.52,142.38Zm.72-2.73h.31a3,3,0,0,0,3-2.14,2.86,2.86,0,0,0-1.15-3.2,6.72,6.72,0,0,0-3.39-1.47,5,5,0,0,0-2,.12,2.82,2.82,0,0,0-1.14,4.87A6.81,6.81,0,0,0,187.24,139.65Z"/><path d="M14,94.38c-.06,3.73-2.44,6.12-6,6.08-3.77,0-6.33-2.54-6.27-6.15s2.48-6.14,6.05-6.09C11.51,88.27,14.05,90.77,14,94.38ZM7.7,91a7.24,7.24,0,0,0-2.91.85,2.88,2.88,0,0,0-.27,4.81,6.52,6.52,0,0,0,6.32.25,2.91,2.91,0,0,0,1.48-2.78,2.56,2.56,0,0,0-1.74-2.36A28.41,28.41,0,0,0,7.7,91Z"/><path d="M8.89,124.22a5.81,5.81,0,0,1-6-5.49c-.56-5.11,3.8-7.08,7.08-6.68a5.68,5.68,0,0,1,5.16,5.15C15.74,121.34,13.16,124.21,8.89,124.22Zm1-9.51v.07c-.21,0-.42,0-.62,0a5.87,5.87,0,0,0-3.8,1.67,2.81,2.81,0,0,0,1.08,4.66,6.13,6.13,0,0,0,6-1.27,2.85,2.85,0,0,0,.63-.82A2.76,2.76,0,0,0,11.5,115,12.48,12.48,0,0,0,9.88,114.71Z"/><path d="M117.7,4.13c3.71,0,6.31,2.48,6.28,5.91,0,3.74-2.65,6.58-6,6.45-3.91-.14-6.27-2.41-6.25-5.91C111.71,6.81,114.23,4.1,117.7,4.13Zm-3.09,6.17a5.3,5.3,0,0,0,.53,3,2.87,2.87,0,0,0,4.6.55,6.71,6.71,0,0,0,1-6.19,3,3,0,0,0-2.67-1.85,2.73,2.73,0,0,0-2.55,1.51A6.25,6.25,0,0,0,114.61,10.3Z"/><path d="M53.56,187.66a3.63,3.63,0,0,1-2.84-1.85,2.49,2.49,0,0,1,1.37-3.57,4.29,4.29,0,0,1,1-.19c1-.11,1-.1.7-1-.13-.39-.27-.79-.38-1.19s-.28-.57-.7-.26c-.62.45-1.26.87-1.9,1.28a1.48,1.48,0,0,1-2.32-.4c-.3-.38-.22-.56.2-.77,1.15-.56,2.28-1.17,3.41-1.78.66-.37.65-.4.42-1.15l-.78-2.59c-.11-.36.06-.47.37-.35a9.62,9.62,0,0,1,1.78.82,2.34,2.34,0,0,1,.75,1.06c.39,1,.36,1,1.34.95a4.81,4.81,0,0,1,3.81,1.61,3.08,3.08,0,0,1-.15,4.46,3.42,3.42,0,0,1-2.13.71c-.57,0-.65.21-.61.75A3.11,3.11,0,0,1,53.56,187.66ZM58,180.47a2.21,2.21,0,0,0-2-2.19c-.5,0-.6.08-.47.6.21.8.45,1.59.69,2.37a8.24,8.24,0,0,0,.35.81,3.47,3.47,0,0,0,.9-.61A4.53,4.53,0,0,0,58,180.47Zm-3.25,4c-.16-.45-.22-1.05-.41-1.09a1.46,1.46,0,0,0-1.12.32,3,3,0,0,0-.76,1.17.86.86,0,0,0,.44,1.06.8.8,0,0,0,1.12-.17A8.69,8.69,0,0,0,54.78,184.47Z"/><path d="M15.49,151.49a2.18,2.18,0,0,1-.27-.15A1.61,1.61,0,0,1,15,151c-1.27-2-1.13-1.74.65-2.7.7-.37,1.41-.75,2.12-1.11.35-.18.41-.37.21-.73-.54-1-1.05-2-1.54-3-.21-.42-.45-.42-.82-.22-.95.51-1.9,1-2.85,1.49-.75.38-.82.36-1.24-.34-.3-.5-.56-1-.83-1.55.49-.29,1-.6,1.49-.87l8.25-4.37c.63-.34.65-.36,1,.27,1.25,2.1,1.17,1.64-.69,2.66-.87.48-1.77.95-2.66,1.4-.32.17-.36.33-.18.65.56,1,1.1,2,1.62,3,.18.36.37.42.73.22,1.12-.61,2.26-1.2,3.39-1.79.69-.35.78-.34,1.18.3s.58,1.08.87,1.62c-.5.29-1,.6-1.5.87L16,151.24Z"/><path d="M91.6,199.74c-1.08-.19-2.19-.3-3.25-.58A2.85,2.85,0,0,1,86,196.58a3.08,3.08,0,0,1,1.8-3.32c.6-.31.58-.32.27-1-.77-1.59-1.52-3.18-2.29-4.77-.14-.28,0-.37.22-.42a2.87,2.87,0,0,1,3.45,1.79c.32.73.57,1.49.87,2.23a2.91,2.91,0,0,0,.47.91,2.8,2.8,0,0,0,.78.43,4.12,4.12,0,0,0,.27-.71c.14-1,.24-2.06.37-3.09.09-.76.12-.79.9-.78.41,0,.83.05,1.24.05s.59.21.54.66c-.18,1.44-.33,2.89-.49,4.34q-.29,2.73-.58,5.47c0,.24-.07.48-.09.72a.47.47,0,0,1-.55.48H91.62Zm-2.81-3.68a1.86,1.86,0,0,0,1.86,2c.33,0,.53-.05.57-.42q.16-1.54.36-3.09c0-.31-.12-.43-.39-.5A1.86,1.86,0,0,0,88.79,196.06Z"/><path d="M16.55,78.9a10.19,10.19,0,0,1-1.31,4.28,5,5,0,0,1-3.9,2.62c-2.59.27-6.06-.81-7-4.39A7.75,7.75,0,0,1,5.61,74.7c.46-.67.71-.72,1.17-.42a1.08,1.08,0,0,1,.42,1.44c-.09.19-.24.35-.32.54a12.56,12.56,0,0,0-.76,1.92,3.46,3.46,0,0,0,2,4.19,5.46,5.46,0,0,0,3.54.46,4,4,0,0,0,3.07-3.29c.07-.44,0-.72-.51-.82-.92-.18-1.82-.43-2.74-.61-.49-.09-.74-.26-.64-.81s.11-1,.17-1.44a.52.52,0,0,1,.71-.52c1.22.28,2.44.54,3.64.87a1,1,0,0,1,.61.61C16.24,77.49,16.38,78.2,16.55,78.9Z"/><path d="M190.7,113.18c-.83-.07-1.66-.16-2.49-.2a1,1,0,0,1-.84-.5,5.39,5.39,0,0,1-.81-2.86,8.21,8.21,0,0,1,.63-3.66c1.14-2.73,3.56-3.62,6.19-3.29,4.2.51,5.7,4,5.47,7.09A7.31,7.31,0,0,1,198,113c-.36.59-.61.7-1.08.49a1,1,0,0,1-.63-1.27c.06-.24.22-.45.26-.68a15,15,0,0,0,.42-2.54,3.12,3.12,0,0,0-2-3,5,5,0,0,0-5,.27,3.82,3.82,0,0,0-1.75,3.35c0,.45.17.69.67.7,1,0,1.94.12,2.91.17.32,0,.53.07.55.44s.12,1,.12,1.56-.11.73-.72.73c-.35,0-.7,0-1-.06Z"/><path d="M170.92,152.51c.08.06.19.09.24.17s.24.42.35.63c1.58,3,3.09,6,4.78,8.88a1.74,1.74,0,0,1-.17,2.32c-.61.73-.61.79-1.57.47l-9-3a15.11,15.11,0,0,0-1.49-.46c-.55-.12-.46-.37-.24-.73,1.16-1.92,1.16-1.93,3.24-1.16l.29.11c1.17.37.82.5,1.62-.43.52-.6,1-1.25,1.53-1.83a.69.69,0,0,0,.07-1c-.36-.55-.63-1.16-1-1.71a.91.91,0,0,1,.17-1.3l.84-.78A1.74,1.74,0,0,1,170.92,152.51Zm2.84,9.64.16-.17-.94-1.56c-1.21-2-1.21-2-2.56,0-.21.32-.19.49.15.62Z"/><path d="M144.6,14.25c-.23,2.49-.46,5.08-.69,7.66-.1,1.07-.16,2.14-.26,3.21-.06.62-.08.63-.7.42-.45-.16-.89-.37-1.35-.54a.92.92,0,0,1-.63-1.14c.1-.61.13-1.24.24-1.85a.72.72,0,0,0-.45-.91c-.88-.39-1.75-.82-2.61-1.27a.64.64,0,0,0-.83.13c-.53.5-1.08,1-1.59,1.5a.82.82,0,0,1-1.11.14c-1.59-.82-1.6-.87-.26-2.06,2.41-2.13,4.87-4.21,7.18-6.45a1.61,1.61,0,0,1,2.1-.35C144.62,13.16,144.64,13.15,144.6,14.25ZM142,15.57l-.18-.08L139.29,18c-.23.22-.07.37.12.47.59.29,1.18.57,1.76.87.34.17.45,0,.48-.3C141.79,17.88,141.91,16.72,142,15.57Z"/><path d="M102.37,200c-.83,0-.85,0-1.21-.81-1.19-2.84-2.35-5.69-3.53-8.53-.26-.6-.53-1.2-.79-1.81-.13-.29,0-.46.29-.5l1.75-.2a.82.82,0,0,1,.94.62c.25.65.5,1.29.73,2a.68.68,0,0,0,.76.53c1-.05,1.93-.07,2.9-.08a.7.7,0,0,0,.74-.57c.22-.69.5-1.36.73-2.05a.77.77,0,0,1,.86-.59h.1c1.67,0,1.73.08,1.14,1.63-1.24,3.26-2.47,6.52-3.73,9.78a.79.79,0,0,1-.45.43A8.5,8.5,0,0,1,102.37,200Zm.5-3c.44-1.32.8-2.39,1.15-3.46.09-.26.19-.6-.25-.6a20.15,20.15,0,0,0-2.06.11c-.09,0-.26.25-.23.32C101.9,194.51,102.35,195.64,102.87,197Z"/><path d="M163.81,168.32c-1-1.13-2-2.27-3-3.38-.61-.67-.62-.65,0-1.3.29-.3.59-.58.88-.88s.57-.3.86,0c.73.79,1.47,1.57,2.2,2.35,1.68,1.79,3.35,3.6,5,5.37.33.34.32.56,0,.85-.92.89-1.82,1.8-2.75,2.68a3.71,3.71,0,0,1-.87.56,3.39,3.39,0,0,1-4.5-.7,3.74,3.74,0,0,1-.54-4.59c.68-1.18,1.28-1.39,2.65-1,.14.43-.23.6-.42.87a1.65,1.65,0,0,0-.11,2.1,3.79,3.79,0,0,0,.81.93,1.88,1.88,0,0,0,2.76-.25c.1-.11.16-.43.08-.51C165.88,170.42,164.84,169.37,163.81,168.32Z"/><path d="M155.62,182.22a4,4,0,0,1-3.55-3,3.87,3.87,0,0,1,1.55-4.1,1.26,1.26,0,0,1,1.27-.11c.61.3.63.53.1,1.09a2.27,2.27,0,0,0,2.77,3.43c.64-.39.67-.48.22-1.09q-2.55-3.48-5.11-6.94c-.48-.64-.5-.65.07-1.11,1.92-1.59,1.47-1.37,2.72.29,1.85,2.46,3.66,5,5.5,7.42.2.26.42.45.07.77a14.45,14.45,0,0,1-3.75,2.75A14.85,14.85,0,0,1,155.62,182.22Z"/><path d="M130.5,194.22a1,1,0,0,1,.79-1.09c.71-.25,1.42-.54,2.14-.78.4-.13.47-.32.32-.69-.24-.61-.48-1.23-.68-1.85-.13-.43-.35-.42-.7-.29-.87.34-1.75.66-2.63,1-.53.18-.6.11-.67-.42-.1-.91.09-1.25,1-1.59.58-.23,1.16-.43,1.75-.64.36-.13.49-.32.34-.71-.28-.71-.54-1.42-.78-2.15a.54.54,0,0,0-.81-.36l-3.21,1.19c-.55.2-.71.1-.66-.45a1.62,1.62,0,0,1,1.15-1.66c1.44-.46,2.86-1,4.31-1.49.85-.27,1-.18,1.32.65,1.14,3.08,2.26,6.17,3.42,9.25.18.48,0,.71-.37.88l-3.36,1.37c-.55.22-1.12.38-1.66.62C130.68,195.32,130.52,195.24,130.5,194.22Z"/><path d="M197.4,118.62c-.35,1.8-.69,3.6-1,5.4-.07.35-.25.44-.6.31a1.25,1.25,0,0,1-.95-1.59c.09-.65.25-1.29.37-1.94s.13-.72-.61-.88c-.54-.13-1.09-.21-1.63-.32s-.62.06-.7.5c-.16.93-.39,1.83-.55,2.76-.08.46-.26.46-.63.3-.9-.4-1.11-.8-.91-1.8.11-.58.21-1.16.35-1.73.09-.4-.06-.57-.45-.64-.72-.12-1.43-.26-2.14-.43-.48-.12-.72,0-.82.51-.2,1-.4,2-.62,3.05a6.21,6.21,0,0,1-.3.82,6.1,6.1,0,0,1-.79-.47,1.35,1.35,0,0,1-.51-1.39c.33-1.56.64-3.12,1-4.67.21-.85.38-.92,1.27-.74,3.09.61,6.17,1.28,9.27,1.83C197.36,117.66,197.41,117.8,197.4,118.62Z"/><path d="M30.16,161.38a4.42,4.42,0,0,1,.82.53c.48.45.9,1,1.34,1.45.24.25.43.41.76.08.56-.57,1.16-1.1,1.77-1.62.33-.27.27-.5,0-.77l-2.4-2.61c-.45-.49-.44-.5.18-.74a1.56,1.56,0,0,1,2,.4c1,1.15,2,2.26,3,3.43.61.73.57.89-.15,1.55-2.4,2.2-4.81,4.39-7.2,6.61-.38.36-.63.31-.95,0-.8-.81-1.62-1.61-2.42-2.43-.55-.57-1.06-1.19-1.62-1.76-.29-.3-.18-.45.12-.63a1.29,1.29,0,0,1,1.92.21c.46.47.92,1,1.34,1.45s.56.45.93.07.85-.81,1.3-1.19.39-.51.06-.84c-.63-.65-1.22-1.33-1.83-2s-.45-.58.15-.87C29.55,161.58,29.82,161.5,30.16,161.38Z"/><path d="M186.93,96.49c0-.63,0-1.25,0-1.87,0-.77.18-.91.93-1l3.63-.2c2.08-.1,4.16-.17,6.23-.32.57,0,.77.14.81.64l.42,5.69c0,.44-.13.53-.55.46-1-.19-1.22-.44-1.28-1.43,0-.62-.07-1.25-.09-1.87s-.19-.77-.76-.69-1.18.09-1.77.11c-.41,0-.54.24-.52.6.06.87.13,1.73.16,2.6s0,.86-.79.66-1-.44-1-1.23-.1-1.31-.13-2c0-.38-.15-.56-.57-.53-.69.06-1.38.08-2.08.12s-.79,0-.78.87.12,1.94.16,2.91a6.73,6.73,0,0,1-.09.88,8.34,8.34,0,0,1-.89-.26,1.3,1.3,0,0,1-.83-1.21c-.05-1-.15-2-.22-3Z"/><path d="M174.66,55.34a5.41,5.41,0,0,1,.83-3c1.77-2.71,6.32-4.61,9.85-1a7.61,7.61,0,0,1,2.15,4.17c.12.81,0,1-.56,1.11a1,1,0,0,1-1.23-.78,11.43,11.43,0,0,0-.72-1.93,3.54,3.54,0,0,0-4.6-1.71,6.63,6.63,0,0,0-1.79,1,3.78,3.78,0,0,0-1.19,4.48,7.82,7.82,0,0,0,1.85,2.73c.36.37.34.46-.12.6a1.87,1.87,0,0,1-2-.4A8.12,8.12,0,0,1,174.66,55.34Z"/><path d="M30.53,154.44a6.17,6.17,0,0,1-4,5.67,5.83,5.83,0,0,1-6.13-1A7.46,7.46,0,0,1,17.7,155c-.19-.77-.08-1,.45-1.16s1,.05,1.29.71a11,11,0,0,0,.74,1.59,3.65,3.65,0,0,0,5.27,1.37,4.23,4.23,0,0,0,2.47-4.31,5.32,5.32,0,0,0-1.5-2.9c-.22-.22-.46-.43-.67-.65s-.36-.4-.54-.6a5.65,5.65,0,0,1,.89-.44,1.53,1.53,0,0,1,1.37.32A7.82,7.82,0,0,1,30.53,154.44Z"/><path d="M68.31,194.63A5.13,5.13,0,0,1,64.5,193c-.33-.33-.48-.66-.09-1.07s.81-.59,1.26-.3.66.51,1,.69a3.28,3.28,0,0,0,1.17.38A1,1,0,0,0,69,191.28a4.77,4.77,0,0,0-.68-1.15c-.51-.67-1.06-1.29-1.58-1.94a3.4,3.4,0,0,1,2-5.36,5.5,5.5,0,0,1,5,1.6c.61.59.62.94.21,1.54s-.62.73-1.23.14a4.89,4.89,0,0,0-2.09-1.31,1.35,1.35,0,0,0-1.59.42,1.29,1.29,0,0,0,.08,1.55c.36.51.77,1,1.15,1.48a14.28,14.28,0,0,1,1,1.43A3.32,3.32,0,0,1,68.31,194.63Z"/><path d="M161.88,38.82a5.51,5.51,0,0,1-4.74-3.65,1.21,1.21,0,0,1,1.08-1.63c.14,0,.34.17.43.31a10.55,10.55,0,0,0,.71,1.38,4.78,4.78,0,0,0,1.28,1.18,1.11,1.11,0,0,0,1.72-1,11.24,11.24,0,0,0-.41-2,13,13,0,0,1-.43-2,3.3,3.3,0,0,1,4.79-3.26A5.17,5.17,0,0,1,169,30.93c.27.66.2.87-.29,1.12a.91.91,0,0,1-1.34-.29c-.16-.23-.27-.5-.44-.71a4.68,4.68,0,0,0-.77-.83,1.14,1.14,0,0,0-1.44-.18,1.15,1.15,0,0,0-.47,1.28c.13.65.33,1.28.49,1.91s.34,1.2.45,1.82A3.38,3.38,0,0,1,161.88,38.82Z"/><path d="M187.3,147.4c-.1.24-.14.41-.22.56-1,1.81-1.93,3.6-2.88,5.41-.2.37-.38.28-.63,0a1.4,1.4,0,0,1-.32-2c.35-.64.7-1.28,1.09-1.9.24-.39.29-.64-.2-.88-.65-.32-1.27-.71-1.89-1.08-.36-.22-.59-.24-.82.19-.44.86-.94,1.7-1.43,2.53-.33.57-.42.57-.88.1a1.22,1.22,0,0,1-.23-1.77c.31-.58.62-1.16,1-1.71.25-.39.18-.6-.22-.81-1-.56-2-1.16-3.09-1.71-.42-.22-.57-.45-.31-.89s.39-.81.61-1.2c.39-.68.41-.69,1.12-.29l7.68,4.36c.42.24.85.46,1.27.71A2.18,2.18,0,0,1,187.3,147.4Z"/><path d="M131,12.59l2.45-2.14c.36-.32.71-.66,1.08-1s.43-.63.85-.43a12.53,12.53,0,0,1,1.44.79c.06,0,0,.34-.06.44a5.05,5.05,0,0,1-.76.7c-1.28,1-2.56,2-3.85,3a2.85,2.85,0,0,0-1,1.5c-.36,1.15-.8,2.29-1.13,3.45-.15.56-.42.62-.9.52-2-.42-2-.45-1.39-2.38a12.83,12.83,0,0,1,.52-1.47,5.41,5.41,0,0,0,.18-3.94c-.41-1.43-.74-2.88-1.09-4.33-.16-.65-.07-.77.58-.65,2.26.42,2,.2,2.43,2.26C130.5,10.11,130.71,11.26,131,12.59Z"/><path d="M12.68,67.31,10.4,64.5,10,64c-.79-.94-.79-1.36,0-2.33.29-.38.56-.37.84,0s.64.82.94,1.24c.8,1.09,1.61,2.17,2.38,3.28a3.12,3.12,0,0,0,1.61,1.25c1.08.37,2.14.8,3.21,1.2.78.3.79.3.54,1.11a9.18,9.18,0,0,1-.31.88c-.33.87-.33.88-1.18.57-1.1-.42-2.21-.83-3.3-1.27A2.89,2.89,0,0,0,13,69.75c-1.83.39-3.67.75-5.5,1.12-.76.15-.88,0-.71-.72.45-2.07.33-1.94,2.24-2.21,1-.14,2-.29,3-.45A5.59,5.59,0,0,0,12.68,67.31Z"/><path d="M33.27,171.65A4.34,4.34,0,0,1,34,172q.74.58,1.41,1.23c.33.3.55.28.84-.06,1-1.19,2-2.36,3.06-3.54.88-1,1.77-2,2.62-3.08.3-.37.53-.49.92-.15s.77.58,1.14.9.49.5,0,1c-1.28,1.5-2.58,3-3.87,4.48-.63.73-1.25,1.47-1.9,2.19-.27.31-.25.52.06.77.62.51,1.22,1,1.81,1.56s.52.69-.13,1.06-1,.41-1.63-.17c-2-1.74-4-3.46-5.94-5.19-.72-.63-.68-.85.23-1.21C32.84,171.77,33,171.73,33.27,171.65Z"/><path d="M177,41.61a6.71,6.71,0,0,1-.94-.67,16.38,16.38,0,0,1-1.16-1.34c-.24-.3-.44-.35-.76-.06-.63.58-1.3,1.13-2,1.7-1.57,1.36-3.14,2.72-4.7,4.1-.31.28-.49.34-.84,0-1.67-1.52-1.68-1.51,0-3,1.87-1.6,3.72-3.22,5.6-4.81.4-.33.49-.57.09-1a22.51,22.51,0,0,1-1.56-1.81c-.36-.43-.3-.62.19-.86a1.19,1.19,0,0,1,1.78.37l4.94,5.76.47.55c.22.23.23.43-.08.56S177.43,41.44,177,41.61Z"/><path d="M74.15,194.69l1.92.45c1,.24.9.05,1.05-.61q.9-4,1.83-8c0-.17.09-.33.12-.5s.2-.43.5-.37a.79.79,0,0,0,.2,0c2.12.28,2.12.28,1.64,2.36-.53,2.25-1,4.51-1.58,6.76,0,.14-.06.27-.1.4-.13.48-.06.78.53.88a21.63,21.63,0,0,1,2.22.52c.63.16.7.37.34,1-.49.79-.69.85-1.59.63-2.52-.62-5-1.2-7.56-1.82a5.21,5.21,0,0,1-.81-.35,3.61,3.61,0,0,1,.48-.89A3.34,3.34,0,0,1,74.15,194.69Z"/><path d="M185.84,86.27c0-.1,0-.21,0-.31,0-.93.06-1,1-1.21l2.78-.43,6.77-1.07c.85-.13.85-.13,1,.68a10.66,10.66,0,0,1,.25,1.12c.09.59,0,.74-.61.84-1.7.3-3.42.56-5.13.83-1.06.16-2.12.3-3.18.48-.9.15-.94.17-.84,1s.31,1.92.46,2.87c.09.54,0,.65-.49.53-.78-.19-1.4-.54-1.51-1.47-.16-1.3-.39-2.6-.59-3.9Z"/><path d="M140.76,179.17a1.4,1.4,0,0,1,.72-1.39c1.3-.72,2.59-1.47,3.91-2.16.79-.41,1-.32,1.41.46l5.07,8.72c.17.27.24.48-.08.68l-1.48,1a.45.45,0,0,1-.71-.14c-.19-.29-.37-.58-.55-.88-1.3-2.25-2.59-4.51-3.89-6.75-.38-.65-.41-.67-1-.34-.86.46-1.69,1-2.52,1.47-.65.39-.76.34-.84-.43A1.48,1.48,0,0,1,140.76,179.17Z"/><path d="M186.59,82.77a1.57,1.57,0,0,1-1.74-1.22c-.38-1.4-.74-2.81-1-4.23-.18-.9-.07-1,.79-1.25,3.21-.86,6.43-1.7,9.64-2.58.48-.13.71,0,.83.46a8.18,8.18,0,0,0,.36,1.09c.32.74.14.95-.65,1.16L188.05,78l-1.31.36c-.77.23-.82.28-.63,1.08s.45,1.67.68,2.5a2.58,2.58,0,0,0,.14.39C187.09,82.71,186.89,82.8,186.59,82.77Z"/><path d="M150.38,30.22a4.28,4.28,0,0,1-.8-.33c-1.27-.83-2.54-1.66-3.78-2.54-.64-.45-.67-.67-.27-1.3l5.56-8.63c.18-.29.35-.39.66-.2.47.28,1,.55,1.44.82a.51.51,0,0,1,.2.85c-.16.26-.31.54-.48.8-1.36,2.09-2.72,4.17-4.07,6.26-.6.92-.61.94.35,1.58.75.5,1.52.95,2.29,1.43.47.29.48.39,0,.7A10.28,10.28,0,0,1,150.38,30.22Z"/><path d="M13.68,106.46c0,.45,0,.91,0,1.36,0,.75-.19.9-.92,1L9.53,109c-2.32.12-4.64.23-7,.37-.39,0-.59-.07-.63-.46s-.08-.9-.12-1.35c-.07-.78,0-.9.83-1,1.18-.08,2.35-.13,3.53-.19,1.63-.08,3.26-.15,4.88-.24.73,0,.8-.07.79-.77,0-1-.13-2-.17-3,0-.62.06-.68.63-.48a1.56,1.56,0,0,1,1.23,1.58c0,1,.12,2,.18,3Z"/><path d="M107.42,15l-3.71-.4c-.57-.06-.77-.36-.74-.91.13-2.08.25-4.15.37-6.23.07-1.28.17-2.55.22-3.84,0-.52.19-.75.73-.74,2.25,0,2.09-.17,1.93,2-.18,2.41-.32,4.83-.46,7.25-.05.88,0,.93.89,1s1.94.13,2.91.16c.44,0,.54.16.36.58a1.61,1.61,0,0,1-1.77,1.13h-.72Z"/><path d="M90.89,94.21c-2.08-.07-4.15-.15-6.22-.2-.51,0-1,.13-1.55.14a2.09,2.09,0,0,1-.64-.21c.1-.17.16-.41.3-.51a17,17,0,0,1,2.44-1.55,25.7,25.7,0,0,1,7.24-1.68h.11c1.63,0,1.73.1,1.72,1.73v.83c0,1.2,0,1.22-1.23,1.45a3.29,3.29,0,0,1-.62.08H90.88Z"/><path d="M94.29,100.79c0,.35,0,.7,0,1,0,.55-.22.76-.73.73a11.52,11.52,0,0,0-3.6.4,6,6,0,0,0-2.36,1c-.2.16-.62.31-.72.22a1.07,1.07,0,0,1-.33-.79c.17-1.41.38-2.8.59-4.2a.87.87,0,0,1,.89-.73,5.07,5.07,0,0,1,1,0c1.45.11,2.9.22,4.35.37.87.09.87.13.87,1,0,.31,0,.62,0,.93Z"/><path d="M161.64,24.26c-.2.29-.36.56-.55.8-1.43,1.86-2.88,3.72-4.32,5.58-.61.8-1.22,1.59-1.81,2.41-.24.33-.41.45-.82.22-1.95-1.12-2-1.12-.6-2.88q2.82-3.66,5.63-7.33c.25-.34.45-.46.82-.18s.86.58,1.28.89A2.42,2.42,0,0,1,161.64,24.26Z"/><path d="M143.37,189.87c0,.06-.06.13-.1.18a.7.7,0,0,1-.16.13c-1.73,1.32-2.05,1.24-3-.69-1.32-2.78-2.63-5.57-4-8.34-.19-.39-.16-.58.21-.82,1.88-1.23,1.87-1.23,2.83.82,1.3,2.75,2.62,5.5,3.92,8.25Z"/></svg>