<svg id="Layer_1" data-name="Layer 1" xmlns="http://www.w3.org/2000/svg" viewBox="0 0 200 200"><g id="ewWs4R"><path d="M61.19,86.55C60.67,78.49,65.4,74,71.84,70.85c8.81-4.29,18.09-5,27.62-3.07,1.51.31,3.06.51,4.52,1a6.26,6.26,0,0,0,6-1.14Q136.07,48.3,162.27,29c4.39-3.23,8.86-6.34,14.42-7.21a12.6,12.6,0,0,1,9.52,1.86c3.79,2.65,3.72,6.78-.21,9.19a18.19,18.19,0,0,1-3.89,1.76c-17.16,5.57-32.89,14-47.69,24.18q-6.48,4.48-12.8,9.22a24.11,24.11,0,0,0-8.26,10.72c-1,2.63-2.72,5-4.18,7.59,3,.51,6.13,1,9.24,1.58,10.66,2,21.11,4.65,30.8,9.63a67.67,67.67,0,0,1,8.18,5.31c5.41,3.86,7.16,9.18,5.59,15.54a68.28,68.28,0,0,1-3.4,11.11c-2.5,5.68-5.4,11.21-8.36,16.69-4.18,7.74-10.7,12.93-18.58,16.64-15.19,7.13-31.21,9.72-47.87,9.2a100.45,100.45,0,0,1-37.89-8.5C38,159.61,30.9,153.76,26,145.2c-4.58-8-9-16.08-11.27-25.09-.41-1.6-.55-3.27-.83-4.9a11.52,11.52,0,0,1,2-8.61A30.55,30.55,0,0,1,28.4,96.12a102.39,102.39,0,0,1,30.73-9.23C59.8,86.79,60.47,86.67,61.19,86.55ZM137.35,141l.89-.39c3.64-1.61,7.43-3,10.88-4.93,2.32-1.31,4.82-3.11,6-5.35,2.33-4.21,3.75-8.93,5.67-13.38,1.66-3.87.31-6.89-2.5-9.49a19.4,19.4,0,0,0-3.83-2.88,131.7,131.7,0,0,0-11.92-6c-11.43-4.75-23.49-7.07-35.72-8.57-1.59-.19-2.05.92-2.86,2a145.29,145.29,0,0,1,30.89,6.24,72.1,72.1,0,0,1,18.25,8.56c.38.25.51.85.75,1.29a4.44,4.44,0,0,1-1.44-.23c-1.65-.9-3.22-2-4.89-2.84C133.81,98,119,94.9,103.75,93.42a4.09,4.09,0,0,0-2.59.81,32.57,32.57,0,0,1-19.4,6.83c-6.51.1-12.31-1.62-16.83-6.64A2.14,2.14,0,0,0,63.3,94a128.89,128.89,0,0,0-37.37,11.49c-.49.24-1,.46-1.48.68C36.3,98.45,49.54,94.65,63.39,92.53c-.91-2.08-.91-2.1-2.09-2a103.09,103.09,0,0,0-32.69,9.77,29.77,29.77,0,0,0-9.06,7,10.82,10.82,0,0,0-2,12.4c1.86,4.36,4,8.6,6,12.91s4.54,7.77,9.1,9.44a1.33,1.33,0,0,1,.37.31l-.12.25L28,140.14c1.57,2.92,1.55,3,4.15,4.17,2.82,1.32,5.68,2.57,8.52,3.85l-.1.26-9.44-3.85-.28.5c3.41,2.27,6.7,4.75,10.25,6.77a91.64,91.64,0,0,0,11.27,5.38c3.74,1.48,7.67,2.48,11.51,3.69A72.36,72.36,0,0,1,34,148.75a32.56,32.56,0,0,0,12.47,9.52c23.84,11.07,48.35,12.17,73.39,4.67,2.46-.74,4.85-1.72,7.27-2.58a62.24,62.24,0,0,0-6.86,1.42c-2.34.55-4.68,1.07-7,1.49s-4.48.64-6.72,1A129.7,129.7,0,0,0,134,156.74c2.22-.88,4.17-2.45,6.24-3.71l-.23-.42a111.59,111.59,0,0,1-30.51,8.33,131.71,131.71,0,0,0,31.36-9.54,21.28,21.28,0,0,0,3.83-2.89c-4.2,1.21-8.09,2.85-12.09,4.17s-8.15,2.33-12.23,3.48l-.15-.53a111.56,111.56,0,0,0,23.59-8.06c2-.89,2.92-2.36,4.15-4.4a104.94,104.94,0,0,1-27.59,9.47,2.52,2.52,0,0,1,.92-.44A135.32,135.32,0,0,0,147,143.14c2-.91,2.71-2.49,3.73-4.51a52.27,52.27,0,0,1-14.75,6.55,7.81,7.81,0,0,1,1.35-.69c4.39-2.17,8.77-4.37,13.16-6.55,1.79-.88,2.23-2.64,3.26-4.55C147.53,137.8,141.43,140.64,137.35,141Zm-2.79-86.31-.22-.38c1.23-.83,2.45-1.66,3.69-2.48,14-9.36,28.68-17.48,44.91-22.47a11.93,11.93,0,0,0,3-2c-1-.79-1.86-1.91-3-2.33a12.89,12.89,0,0,0-10.94,1,93.13,93.13,0,0,0-9.84,6.22Q136.82,50.52,111.61,69a9.68,9.68,0,0,1-8.68,1.7c-6.3-1.57-12.71-2.36-19.18-.92-5.16,1.15-10.25,2.46-14.53,5.78-6.83,5.29-6.95,13.46-.15,18.78C74.42,98.49,80.62,99,87,97.65c9.74-2.12,16.67-8.16,22-16.31a14.33,14.33,0,0,0,2.4-6.16,8,8,0,0,1,2.48-5.41l-.57,1.7c.92-1.1,1.49-1.87,2.15-2.56s1.44-1.32,2.17-2l.21.24-2,2.21c19.68-15.9,40.75-29.2,64.81-37.4l-1.92.29a8.28,8.28,0,0,1,2-1l2.12-.82C165.18,35.51,149.65,44.68,134.56,54.72Z"/><path d="M26.21,118.08l1.58,1c5.87-5,12.84-7.75,20.12-9.88-6.62,2.87-13.51,5.25-19.2,10.16.83.76,1.52,1.23,2.63.44,1.58-1.12,3.28-2.08,4.92-3.11,3-1.88,6.4-1.92,9.74-2.31a2,2,0,0,0,1.27-.46c4.19-5.55,10.07-7.64,16.66-7.74a91.6,91.6,0,0,1,13.31,1,26.68,26.68,0,0,0,10.53-.53,21.26,21.26,0,0,1,4.9-.66,6,6,0,0,1,5.48,3,3,3,0,0,0,3.27,1.57q4.81-.8,9.65-1.55c4.27-.67,8.32-.43,11.78,2.63a4.49,4.49,0,0,0,2.2.86,32.66,32.66,0,0,1,14.43,6,50.1,50.1,0,0,0,5.19,3.31,6.64,6.64,0,0,0,2.27.33l.15-.56-6.84-4.28c3.52.86,5.69,3.52,8.73,4.17l.37-.72L136,113.31c.77.25,1.19.38,1.61.54a10.36,10.36,0,0,1,1.42.59c3.29,1.83,6.62,3.6,9.84,5.55,1.11.67,2,1.05,3.12,0-7-5.49-15.16-8.91-23.43-12.07l.22-.51a57.82,57.82,0,0,1,7.16,2.67c5.36,2.79,10.58,5.85,15.87,8.79a3.18,3.18,0,0,0,1.88.43c-7.52-6.45-16.21-10.64-25.63-13.47l.16-.42c2.45.74,4.94,1.37,7.35,2.24a68.42,68.42,0,0,1,18,10.16,5.86,5.86,0,0,0,1.72.62l.34-.72c-2.79-2.06-5.47-4.3-8.41-6.14s-6.13-3.27-9.21-4.88c2.71.06,7.38,2.8,18.11,10.63,1.06-.83.43-1.48-.29-2-3.36-2.53-6.74-5-10.4-7.78,2.17,1.23,4.16,2.22,6,3.43s3.63,2.73,5.75,4a12.61,12.61,0,0,1-1-1.94,8.2,8.2,0,0,1-.18-1.8c.72,0,1.59-.36,2.12-.06a3.15,3.15,0,0,1,1.29,4.18,12.21,12.21,0,0,1-3.5,4.5,41.7,41.7,0,0,1-9,4.52c-12.33,4.33-25.16,6.24-38.14,7.18a257.16,257.16,0,0,1-35.33.35c-13.65-.9-27.29-2.06-40.35-6.52a51.72,51.72,0,0,1-9.35-4.54,10,10,0,0,1-4.6-6,5.93,5.93,0,0,1,1.65-6.28,1.8,1.8,0,0,1,2.74-.16c.89.81.69,1.65,0,2.56a6.26,6.26,0,0,0-1.09,2.61c5.56-4.19,11.41-7.58,18.2-9.15-.61.24-1.21.51-1.83.72a44.12,44.12,0,0,0-15.08,8.62c-.72.64-1.1,1.16,0,2a59.24,59.24,0,0,1,18.33-9.79c-3.06,1.51-6.2,2.89-9.17,4.56s-5.86,3.7-8.95,5.67l1.6,1.48c8-6.27,17.1-10,26.57-13C43.21,108.38,34.14,111.88,26.21,118.08Zm104.72-.57c-3.47-1.87-7.09-.55-10.71-.82l4.91-.77v-.24l-5.8-.53,0-.3,1.81-.22c-2.69-3.73-8.09-3.53-16-.71l6.44-.46.08.36-5,1.3c.4.21.79.3.92.53.32.58.85,1.35.68,1.83s-1,.86-1.66,1a2,2,0,0,1-1.46-.39A37.33,37.33,0,0,0,97,112.81a1.43,1.43,0,0,1-.58-.63c-1.75-3.16-4.43-3.33-7.54-2.48s-6.5,1.77-9.81,2.38a18,18,0,0,1-8.49-.53v-.49h7l0-.65c-4.18-.4-8.36-1.11-12.54-1.14-8.09,0-15,2.25-18.49,10.56-.12.29-.57.44-.86.66-.23-.34-.66-.69-.66-1a14,14,0,0,1,.35-2.21c-4.88-.66-8.61,1.84-12.41,4.15a2.14,2.14,0,0,0,2.88-.06,18.52,18.52,0,0,1,3-1.92,10.67,10.67,0,0,1,2.37-.58l0,.28-4.85,3.24c2,1.62,3.24.62,4.35-1l.33.43-.81,2.41,6.27-.8-2.16,1,.11.42,5.09-.81,0,.21-2.35.85c2.15,1,3.89.18,5.62-.58s3.62-1.73,5.49-2.4a4.92,4.92,0,0,1,5,.45c-3.93-.24-7.18,1.22-10.44,3.84,7,.29,13.65,3.41,20.29-.44l.06.47L69.78,128l.1.64h32.6l-8.19-1.21,0-.63a79.15,79.15,0,0,0,31.6-.33l-1.46-.59,0-.2,3.81.38,0-.13-2.95-1c5.49.84,8.12.76,11.37-.55l-3.55-1.6.2-.58,4.33,1.09c2.61.64,2.68.64,4.14-.27-4.45-2.1-8.45-5.24-13.8-5l.16-.51Z"/><path d="M152.88,126.9c-.67.39-1.33.8-2,1.15-8.3,4.22-17.23,6.32-26.32,7.91a199.4,199.4,0,0,1-43.23,2.72c-14.49-.66-28.83-2.51-42.78-6.55-3.95-1.14-7.6-3.34-11.38-5.08a10.86,10.86,0,0,1-1.44-1c.32-.07.44-.14.5-.1,8.15,4.85,17.31,6.35,26.44,7.91a213.19,213.19,0,0,0,46.64,3.08c14.47-.72,28.83-2.38,42.72-6.78,3.21-1,6.31-2.37,9.46-3.55a9.94,9.94,0,0,1,1.23-.26Z"/><path d="M105.83,76.57a12.11,12.11,0,0,1,1.51-2c.34-.3,1-.26,1.46-.37.07.45.35,1,.17,1.34-5.88,11.15-17,21-30.59,19.65a18.66,18.66,0,0,1-8.2-2.8,9.15,9.15,0,0,1-.7-15.23,39.9,39.9,0,0,1,6.45-4.21A10.29,10.29,0,0,1,80.87,72c3,.16,5.87.49,8.75-.82.87-.4,2.11-.11,3.16,0a8.26,8.26,0,0,1,3.31.68C99.13,73.77,103.5,72.72,105.83,76.57ZM90.07,75.26l-8.92-.89a5.8,5.8,0,0,0-5.82,2.38,44,44,0,0,1-4.54,4.63l-.33-.3,2.69-3.36A8.26,8.26,0,0,0,67.69,86c0,2,.5,2.69,2.4,3.55l-.3-2.17,2.27,3.78.4-.25-.85-1.29C76.21,93,80.85,94,85.89,90.84l-1.31,1.23a51.76,51.76,0,0,0,5.82-1.75c5.11-2.2,9-5.93,12.57-10.12,1.41-1.67,1.24-2.73-.68-3.87a7.79,7.79,0,0,0-1.9-.73c-2.64-.7-5.3-1.33-7.93-2.07a4,4,0,0,0-3.77.62Z"/><path d="M180.88,26l-7.42.78C176,25.21,178.38,24.81,180.88,26Z"/><path d="M89,118.41a10.27,10.27,0,0,1-1.86-1c-2.64-2.28-5.4-3-8.6-1.1a4.42,4.42,0,0,1-3,.21c1.88-.79,3.73-1.7,5.67-2.35C83.9,113.28,88.16,115.51,89,118.41Z"/><path d="M118.51,121c2.8-1.85,8.4-.84,10.18,2.13a36.76,36.76,0,0,0-4.79-1.67A40.57,40.57,0,0,0,118.51,121Z"/><path d="M72.17,123.21c2.22-2.33,8.8-.95,11,1.86A30.43,30.43,0,0,0,78,123.28,36.43,36.43,0,0,0,72.17,123.21Z"/><path d="M68.35,113.08c-2.54,1-5.64.08-6.6,3.47a2.19,2.19,0,0,1,.63-2.86A5.63,5.63,0,0,1,68.35,113.08Z"/><path d="M106.41,124.86l6.79-1.76.19.75-6.83,1.63Z"/><path d="M100.09,126.85,93,125.57l.1-.49,7.09,1.21Z"/><path d="M50.41,121.34c-.76-1.72-.1-3.46,1.78-4.67C51.56,118.31,51,119.74,50.41,121.34Z"/><path d="M85.45,125.82l4.52.64-.11.68-4.49-.84Z"/><path d="M99.47,79.5c-2,1.59-2.69,4.88-6,4.9C96.05,83.47,96.88,80.4,99.47,79.5Z"/><path d="M88.28,77.32H81.89C82.88,75.58,86.23,75.27,88.28,77.32Z"/><path d="M76.2,82.29a3.6,3.6,0,0,1,2-3.66l.43.3Z"/><path d="M82.05,89.53l-3.36-.21,0-.64H82Z"/></g></svg>