<svg id="Layer_1" data-name="Layer 1" xmlns="http://www.w3.org/2000/svg" viewBox="0 0 200 200"><g id="FQ4YQv"><path d="M130.63,179.75l-2.06.52c-4.24-5.08-8.33-10-12.67-15.18-2.2,3.63-4.24,7-6.27,10.31-1.46,2.42-2.95,4.81-4.36,7.26-.9,1.56-1.46,1.93-2.68.09-3.93-6-8.06-11.78-12.35-18-4.45,5.05-10.18,8.64-13.84,14.71l-2-.36a9.25,9.25,0,0,1,0-1.83q4.2-20.85,8.44-41.7,8.48-41.83,16.9-83.68A5,5,0,0,0,99,48.64c-1.5-2.39-1.34-5.18.68-6.94a5.06,5.06,0,0,1,6.54,0c2.06,1.81,2.19,4.52.65,6.94a5.32,5.32,0,0,0-.85,3.47q9.5,49.71,19.17,99.38C127,160.83,128.79,170.16,130.63,179.75ZM118.4,132.9c-3.28-4.66-6.46-9-9.4-13.47-1.25-1.91-2.54-2.5-4.67-1.43,0,3.53,0,7.13,0,10.72a1.87,1.87,0,0,0,.5,1.17c2.61,2.82,5.26,5.62,7.94,8.47Zm-16.05-15L87.14,128.32l7.6,8.93c2.46-2.35,4.81-4.58,7.12-6.85a1.88,1.88,0,0,0,.47-1.16C102.36,125.66,102.35,122.09,102.35,117.86ZM92.13,164.23l10.53,15.18V153.1C99,157,95.64,160.53,92.13,164.23Zm12.68,14.45.58.14c2.88-4.78,5.79-9.55,8.62-14.36a1.76,1.76,0,0,0-.13-1.59c-2.91-3.55-5.9-7-9.07-10.78ZM83.09,151.17l6.51,9.38,10.19-9.38ZM78.37,172.7l10.4-10.06-6.46-9.29C80.92,160.19,79.65,166.43,78.37,172.7Zm28.44-21.18,8.8,10.38,6.22-10.38Zm-4.57-2.44L94.59,140l-9.53,9.07Zm20.41,4.78c-2,3.36-3.71,6.1-5.3,8.89a1.49,1.49,0,0,0,.2,1.36c2.83,3.43,5.72,6.81,8.59,10.21l.42-.24C125.3,167.58,124.05,161.09,122.65,153.86ZM83.56,147.2l.45.29,9.36-8.93-6.53-7.66ZM113.68,142l-8.12,7.5h15.16ZM99.13,105.82l-7.8,10.64,10.73-.57C102.73,110.44,102.53,109.77,99.13,105.82Zm2.8-9.56V82.55l-.47-.1-7,13.81Zm10.42,12.47c-2.81-3.16-5.39-6.09-8-9,.47,4.42-2.15,9.27,2.39,12.85Zm-7.74,23.7v14c2.35-2.25,4.57-4.36,6.91-6.61ZM90.34,113.75l.46.18c2.22-3,4.47-6,6.66-9a1.63,1.63,0,0,0,.27-1.39c-1.2-1.84-2.51-3.59-4.17-5.91C92.37,103.56,91.35,108.65,90.34,113.75Zm14.08-30-.38.19V96h7.11C108.78,91.68,106.6,87.71,104.42,83.74Zm-8,55.55c1.7,2,3.7,4.35,5.94,7v-13.6ZM107,72.67l-.73-.19c-.75,2.16-2.59,4.65-2,6.39,1.21,3.76,3.63,7.12,5.56,10.65l.46-.19Q108.58,81,107,72.67Zm13.83,74.12.45-.23c-.72-3.71-1.44-7.42-2.11-10.92l-5.06,4.05ZM98.45,73.47c-1.14,5.7-2.2,11-3.26,16.25,1.74-2.4,2.76-5.13,4.36-7.46C101.74,79.08,101.12,76.47,98.45,73.47Zm18.68,54.34.41-.19c-.37-2-.73-4.06-1.12-6.09-.91-4.65-.91-4.66-5.56-4.23a3.62,3.62,0,0,0-.84.4Zm-29-2.47c2-1.31,3.61-2.41,5.25-3.55s3.25-2.29,5.51-3.88l-3.46.21C89.16,118.55,89.16,118.55,88.08,125.34Zm24.83-18.8.52-.12c-.41-2.32-.76-4.65-1.28-6.94a2,2,0,0,0-1.27-1.31c-1.58-.16-3.18-.06-5.38-.06ZM114,110l-6.67,4.49c2.82,2,5.25.37,7.9.86Zm-8.64-41.61.66-.54c-.65-3.33-1.29-6.65-1.94-10a55.68,55.68,0,0,0-.26,8.92C103.85,67.3,104.82,67.81,105.36,68.34Zm-9,30,3,4.12,3-4.12Zm3.26-30.54.64.56c.53-.54,1.46-1,1.5-1.63.17-2.41.07-4.85.07-7.28h-.53Z"/><path d="M56.61,31.05l-7.89,3.13L68,45.25l-8.72,2.26L82.48,61.88l-.22.48L39.79,48.1l4.41-1.63-24.32-14,5.06-1.53L8.81,18.73,9,18.32Z"/><path d="M156.42,45.13l4.1,3.18L122.73,62.42l-.29-.49,15-12.24-6.24-1,10.43-7.07,1.31-.89c4.17-2.79,4.17-2.79,2.81-7.84L192.66,13l.27.4L172.31,30.88l4.43,1.27Z"/><path d="M6.51,118,45,86.68v5.64L68.57,79.79c-1.75,4-3.25,7.45-5,11.55L83.3,81.28l.22.4L53.19,106.11l-.31-4.73L26,116l2-6.93L6.77,118.42Z"/><path d="M159.2,95.16c.56-1.62,1-3,1.68-4.86l32.75,30.36-.23.37-18.1-8.82c-.09,1.55-.16,2.68-.26,4.4l-22.93-14.27c-.21,2.08-.39,3.87-.63,6.2L124.47,86l.29-.64,14.49,4.81c-.17-1.47-.31-2.72-.49-4.38Z"/></g></svg>