<svg id="Layer_1" data-name="Layer 1" xmlns="http://www.w3.org/2000/svg" viewBox="0 0 200 200"><defs><style>.cls-1{fill:none;stroke:#000;stroke-width:3px;}</style></defs><path d="M99.32,8a91.08,91.08,0,0,0-38.87,9A93.33,93.33,0,0,0,29.17,41.14,90.56,90.56,0,0,0,10.76,77.73a91.8,91.8,0,0,0,24.9,88.13,92.46,92.46,0,0,0,90.07,22.51,92.77,92.77,0,0,0,40.06-24,90.62,90.62,0,0,0,23.38-42,91.4,91.4,0,0,0-.87-48.29,92.81,92.81,0,0,0-24-39.84,88.09,88.09,0,0,0-42-23.38A83.13,83.13,0,0,0,99.32,8Zm-3,32,10,2.6L102.13,58.9l8.23,1.73,3.9-16L124.43,47l-4.11,16.67q10.61,3.68,15.59,8.66a16.27,16.27,0,0,1,4.54,14.51q-1.72,12.35-12.77,14.94,7.14,3.67,9.53,9.31,2.81,6.27-.22,15.15-3.9,10.83-13.42,13.86-8,2.39-22.3-.22l-4.12,16.68L87,154l4.11-16.46-8-2L79,152l-10.17-2.38,4.33-16.89-20.35-5.2,5-11.47,3.68,1.08c2.45.58,3.68.79,3.68.65,2.16.58,3.68-.22,4.54-2.38L76.37,89l1.08.22L76.37,89l4.54-19q.44-4.55-4.54-5.85L69,62.36h0L71.6,51.54,85.68,55h-.22L92,56.73Zm3.24,30.75-5,20.13,1.52.43q8.88,2.38,13.86,2.17,8.86,0,10.61-6.93t-5.85-11q-4.11-2.38-13.21-4.33ZM92,101.12,86.33,123.2l1.94.65q10.83,2.82,16.68,2.82,10.6,0,12.55-7.58t-7.36-12.34q-5-2.61-15.8-5.2Z"/><circle class="cls-1" cx="100.25" cy="99.75" r="92.75"/></svg>