<svg id="Layer_1" data-name="Layer 1" xmlns="http://www.w3.org/2000/svg" viewBox="0 0 200 200"><g id="_0nPlA1.tif" data-name="0nPlA1.tif"><path d="M105.35,162.21H97a11.38,11.38,0,0,1-11.64-11.66A91.61,91.61,0,0,0,85,140.46a37.29,37.29,0,0,0-11.22-22.69A45.58,45.58,0,0,1,60.51,93.41a44.24,44.24,0,0,1,7-34.11A44,44,0,0,1,94.24,40.37c14.92-3.61,28.54-.52,40.42,9.25a43.44,43.44,0,0,1,16,28.53c2.05,15.22-2.39,28.42-13.33,39.26a37.93,37.93,0,0,0-11.08,20.15,68,68,0,0,0-.76,8.33c-.13,2.2.08,4.42-.18,6.59a11.18,11.18,0,0,1-11,9.72c-3,.05-6,0-9,0Zm0-8.32h8.4a3.07,3.07,0,0,0,3.4-3.37c0-2,0-4,0-6a46.28,46.28,0,0,1,3.35-16.91,49.63,49.63,0,0,1,11.62-16.82A37.19,37.19,0,0,0,139.79,70c-8.17-18.63-29-27.55-47.91-20.08C78.7,55.1,70.7,65.08,68.47,79.09c-2,12.44,1.88,23.26,10.69,32.3a60.41,60.41,0,0,1,4.76,5.35,45.45,45.45,0,0,1,9.57,24.77c.22,3,.13,6,.17,9A3.07,3.07,0,0,0,97,153.89Z"/><path d="M105.36,172.55c-4.43,0-8.86,0-13.28,0a3.12,3.12,0,1,1-.26-6.23h26.8a3.19,3.19,0,0,1,3.39,2.55,3.08,3.08,0,0,1-3,3.67c-1.27.05-2.55,0-3.83,0Z"/><path d="M105.47,176.19c4.48,0,9,0,13.44,0a3.1,3.1,0,0,1,1.19,6,4.76,4.76,0,0,1-1.59.24c-6.82,0-13.63,0-20.45,0-2.06,0-4.13,0-6.19,0A3,3,0,0,1,89,180.6a3,3,0,0,1,.37-3.22,3.15,3.15,0,0,1,2.72-1.19Z"/><path d="M156.89,26.46c1.68.07,2.66.63,3.21,1.79a3,3,0,0,1-.32,3.23,5.13,5.13,0,0,1-.54.6Q153.12,38.2,147,44.3a3.19,3.19,0,0,1-2.84,1.1,3,3,0,0,1-2.56-2.11,3,3,0,0,1,.85-3.28q5.64-5.65,11.3-11.29a11.41,11.41,0,0,1,1.46-1.41A10.5,10.5,0,0,1,156.89,26.46Z"/><path d="M50.38,29.61a3,3,0,0,1,1.68-2.77,3,3,0,0,1,3.3.27,4.19,4.19,0,0,1,.54.49L68.18,39.87a3.17,3.17,0,0,1,1,3.24,3.1,3.1,0,0,1-4.94,1.64,4,4,0,0,1-.48-.44L51.51,32A3.25,3.25,0,0,1,50.38,29.61Z"/><path d="M157.31,136.5a3.09,3.09,0,0,1-2.32-1q-6.28-6.28-12.56-12.57a3.12,3.12,0,1,1,4.4-4.41c3.42,3.38,6.81,6.79,10.21,10.19.84.85,1.71,1.67,2.52,2.55a3.11,3.11,0,0,1-2.25,5.24Z"/><path d="M53.48,136.5a3.1,3.1,0,0,1-2.42-5.05,3.79,3.79,0,0,1,.38-.42l12.39-12.39a3.12,3.12,0,0,1,4.85,3.92,5,5,0,0,1-.37.43L55.8,135.49A3.1,3.1,0,0,1,53.48,136.5Z"/><path d="M41,78.39h8.8a3.12,3.12,0,1,1,0,6.22q-8.8,0-17.6,0a3.12,3.12,0,1,1,0-6.22Z"/><path d="M108.5,17.19c0,3,0,6,0,9a3,3,0,0,1-2.66,3,3.1,3.1,0,0,1-3.46-2.32,3.15,3.15,0,0,1-.09-.81c0-6,0-11.95,0-17.92a3.11,3.11,0,0,1,6.13-.78,4.71,4.71,0,0,1,.09,1.13c0,2.9,0,5.81,0,8.72Z"/><path d="M169.81,78.39h8.72a3.12,3.12,0,1,1,0,6.22q-8.85,0-17.69,0a3.11,3.11,0,0,1-.86-6.1,4.22,4.22,0,0,1,1.12-.11Z"/><path d="M105.35,192.27c-2.2,0-4.4,0-6.6,0a3.11,3.11,0,1,1,0-6.22c4.46,0,8.91,0,13.37,0a3.1,3.1,0,0,1,3.18,2.69,3.06,3.06,0,0,1-2.1,3.37,4.2,4.2,0,0,1-1.28.16Z"/></g></svg>