<svg id="Layer_1" data-name="Layer 1" xmlns="http://www.w3.org/2000/svg" viewBox="0 0 200 200"><g id="D407Zd.tif"><path d="M126.75,189.76c-1.19,2-3.13,2-4.93,2.11a39.64,39.64,0,0,1-11-.6,14.42,14.42,0,0,1-2.68-.93c-.74-.32-.76-.76-.06-1.18s1.65-.79,2.43-1.27c3.34-2.07,6.67-4.18,10-6.26a1.08,1.08,0,0,0,.52-1.46,2.18,2.18,0,0,1-.13-.72,1.22,1.22,0,0,0-1.07-1.33,2.1,2.1,0,0,1-1.66-2,138,138,0,0,1-1.23-18.28c.08-7.52.24-15,.39-22.55,0-1.61.21-3.23.29-4.85,0-.66,0-1.33,0-2-1.56-.34-1.61-.33-1.78,1.2-1,8.29-2,16.57-2.81,24.87a129.2,129.2,0,0,0-.44,18.77c0,.62.07,1.17-.69,1.38a.51.51,0,0,0-.25.43,6.73,6.73,0,0,0,.48,2.83,10.08,10.08,0,0,1,.81,6.69,1.25,1.25,0,0,1-.7.83,25.92,25.92,0,0,1-3.4.69c-1,.13-.78-.78-1-1.42-.15.09-.31.12-.37.22a4.29,4.29,0,0,1-3.47,1.93,41.75,41.75,0,0,1-12.77-.16,5.35,5.35,0,0,1-1.58-.47c-.38-.2-.91-.61-.92-.94s.47-.82.84-1c.7-.43,1.51-.66,2.23-1.07q5.44-3.09,10.86-6.26c.76-.44.67-2.31-.14-2.6a2.31,2.31,0,0,1-1.53-2.44c-.15-3.21-.35-6.41-.41-9.62a242.87,242.87,0,0,1,2.47-35.64.88.88,0,0,0-.68-1.14c-1.41-.52-1.7-1.13-1.63-2.56.3-5.83.56-11.66.84-17.49,0-.36,0-.72,0-1.08-.62-.26-1.19-.54-1.79-.74a1.07,1.07,0,0,0-.74.08,13.29,13.29,0,0,1-10.8.75A11.5,11.5,0,0,1,82,100.14a9.26,9.26,0,0,1-.82-1.43,2.63,2.63,0,0,1,.71-3.6,1.78,1.78,0,0,1,.46-.23c-1-1.24-2-2.31-1.52-3.83a4.24,4.24,0,0,1,2.8-2.68c-.15-.74-.34-1.41-.41-2.1A2.08,2.08,0,0,1,84.51,84a10.42,10.42,0,0,1,6.09-.65,7,7,0,0,0,1.65,0,8.26,8.26,0,0,1,1.44-.19c.81.09,1.07-.21,1.25-1,.69-3,1.5-6,2.2-9a6.57,6.57,0,0,0,0-1.82,5.38,5.38,0,0,1,0-1.44c.46-1.58,1-3.15,1.54-4.69.24-.63.2-1-.33-1.4a4.53,4.53,0,0,1-.6-.56c-.75-.82-1.48-1.48-2.8-1.12a3.24,3.24,0,0,1-2-.59,2.54,2.54,0,0,0-2.67.27,2.52,2.52,0,0,1-2.43.71,1.73,1.73,0,0,0-1,.23,2.91,2.91,0,0,1-3.2-.06,2.37,2.37,0,0,0-1.77-.42,13.67,13.67,0,0,1-3.26-.14c-1.39-.24-1.71-.75-1.75-2.15,0-.45,0-.91,0-1.55a10.11,10.11,0,0,0-1,.7c-1.31,1.19-2.6,2.41-3.91,3.6-.57.52-1.2,1.14-2,.77s-.92-1.3-.93-2.14a11.46,11.46,0,0,1,2.16-6.79c1.12-1.63,2.35-3.19,3.59-4.84a2.55,2.55,0,0,1-1.47-2.94c0-.13-.2-.35-.35-.49a3.5,3.5,0,0,1-.72-4c.11-.25.18-.7,0-.87-2.18-2.62-2.52-5.74-2.57-9-.14-8.29,5.88-13.53,12.34-15.72a22,22,0,0,1,12.91-.18,2.66,2.66,0,0,0,1.48-.06c6.13-2.18,15.54-.57,18.93,7.47,2.14,5.06,1.16,9.68-2.29,13.86a4.64,4.64,0,0,0-.76,1.4,5.15,5.15,0,0,1-2.29,2.76,1.93,1.93,0,0,0-.67,1c-.45,1.29-.75,2.65-1.27,3.91-1.18,2.88-1.12,4.79.4,7a9.2,9.2,0,0,1,8.1,2.05,3.13,3.13,0,0,0,.8.44,16.64,16.64,0,0,1,8.61,8.51,62.47,62.47,0,0,1,6,21.61c.29,3,1,5.9,1.44,8.86a125.66,125.66,0,0,1,1.12,25.42c-.08,1.62-.22,3.24-.21,4.85A1.33,1.33,0,0,1,133.1,127c-1.75.53-1.75.55-1.88,2.41-.43,6.37-1,12.74-1.25,19.12-.38,9.5-.57,19,.71,28.47.09.63.18,1.25-.66,1.46-.1,0-.27.16-.26.22.14,1.09-.45,2.23.24,3.29a11.6,11.6,0,0,1,1.84,7.07c0,.74-.28,1.21-1.06,1.35s-1.67.36-2.51.51S126.82,190.9,126.75,189.76ZM94.8,39.58l.12.23c-.15.17-.27.4-.45.48-.67.31-.78.74-.65,1.46a4.31,4.31,0,0,1-.18,2,6.69,6.69,0,0,1-6,4.25,6,6,0,0,1-5.92-3.5c-.08-.2-.28-.47-.45-.5a6.07,6.07,0,0,0-2-.06c-.27.06-.39.75-.58,1.15a3.11,3.11,0,0,1-.2.41c-1.31,1.83-2.63,3.66-3.93,5.5s-2.49,3.4-3.62,5.17a8.39,8.39,0,0,0-1.29,5.25,7.59,7.59,0,0,0,.43,1.51,7.72,7.72,0,0,0,1.46-.75q3.49-3,6.91-6a4.14,4.14,0,0,0,1-1.21c.53-1.06,0-2-1.22-1.89a7.53,7.53,0,0,0-2,.72,8.51,8.51,0,0,0-.78.43L75.2,54c.17-.22.29-.53.51-.63a11.69,11.69,0,0,1,2.36-.9,1.82,1.82,0,0,1,2,.88A1.75,1.75,0,0,1,80,55.41a26.86,26.86,0,0,1-1.86,2c-.2.21-.51.42-.55.67-.43,2.78-.42,3.68,3,3.62l.28,0c2.55-.59,5.15-1,7.63-1.8A34.65,34.65,0,0,0,99.86,54c.21-.17.41-.36.64-.57a1.89,1.89,0,0,1-.32-.24,1.34,1.34,0,0,1-.12-.3,3.41,3.41,0,0,1,3.66.66,1.85,1.85,0,0,1,.19.56,5.23,5.23,0,0,1-.56,0A1.13,1.13,0,0,1,103,54a5.42,5.42,0,0,1-1,1.08c-1,.64-1.2,2.17-2.68,2.19-.07,0-.15.18-.2.29-.47.84-1.27,1-2.13,1.2A9.47,9.47,0,0,0,94.87,60a.31.31,0,0,1-.19,0c-.8-.17-1.16.26-1.33,1a1.8,1.8,0,0,0,2.23.37,1.06,1.06,0,0,1,1.41.34,23.91,23.91,0,0,0,9.18,6,4,4,0,0,0,4.71-1.24,7.14,7.14,0,0,0,1.66-6.15,2.48,2.48,0,0,0-.62-1.05,49.51,49.51,0,0,1-3.73-4.35c-1-1.49-2-3.13-1.7-5.1a23.66,23.66,0,0,1,.81-3.08c.43-1.38.94-2.74,1.39-4l-1-.69c.81-.29,1.45-.47,2-.75a3.5,3.5,0,0,0,1.82-3.77,3.7,3.7,0,0,0-3.15-3,3.43,3.43,0,0,0-3.29,2.17,1.82,1.82,0,0,0,.16,1.89c.61,1,1.1,2,1.62,3.07a1.33,1.33,0,0,1-.31,1.68A14.81,14.81,0,0,1,104,45c-.64.31-1.19-.05-1.47-.7-1-2.22-1.86-4.45-2.86-6.64a2.19,2.19,0,0,1,.59-2.85A15.2,15.2,0,0,0,104,29.05a5.69,5.69,0,0,0-.46-5.35A14.63,14.63,0,0,0,96,17.62a20.15,20.15,0,0,0-12.69-.69c-9.75,2.71-14.7,9.93-12.55,20.1.56,2.69,2,4.73,4.84,5.4a22,22,0,0,0,3.69.59A27.16,27.16,0,0,0,94,39.82,4,4,0,0,1,94.8,39.58Zm3.8,51.31c-.13,0-.21.08-.24.06a2,2,0,0,1-.45-.31,6.55,6.55,0,0,0-4.14-2,24.21,24.21,0,0,0-3.9.11,1.11,1.11,0,0,0-1,1.31c.08.72.66.75,1.24.8a36.23,36.23,0,0,1,3.91.42,4,4,0,0,1,2.26,1,16.29,16.29,0,0,1,1.56,3.4,4.89,4.89,0,0,1-.57-.19c-2.27-1.44-4.72-1.19-7.18-.68-.35.07-.93.61-.88.79A2.82,2.82,0,0,0,90.08,97c.25.2.76.08,1.15.1,1.13,0,2.26,0,3.38.14A4.4,4.4,0,0,1,98.37,100a12.32,12.32,0,0,0,1.43,2.55,2.31,2.31,0,0,0,3.64-.07,4.81,4.81,0,0,0,.48-4.79,26.49,26.49,0,0,1-1.65-4.25c-.58-2.3-.92-4.66-1.34-7a1.74,1.74,0,0,0-1.3-1.5c-1.26-.35-2.53-.68-3.82-.93a13.48,13.48,0,0,0-2.54-.23c-.33,0-.91.26-1,.47a1.55,1.55,0,0,0,.42,1.09,2.35,2.35,0,0,0,1,.56,15.28,15.28,0,0,0,1.78.4c2.11.41,2.91,1.37,2.94,3.52C98.49,90.17,98.56,90.5,98.6,90.89Zm16.52-58.56a11.77,11.77,0,0,0-3-11.82,1.1,1.1,0,0,0-.54-.29,8.12,8.12,0,0,0-7.11,2.56,1,1,0,0,0-.26.8c.3.92.68,1.82,1,2.78A8,8,0,0,1,111,27.73,12.64,12.64,0,0,1,115.12,32.33ZM84.57,98l-.11-.48c.47-.1.93-.21,1.4-.29a14.43,14.43,0,0,0,1.88-.28c.68-.19.63-.85.56-1.39a.84.84,0,0,0-.51-.59,7.57,7.57,0,0,0-4.68.2,2.18,2.18,0,0,0-1.37,3.29,9.5,9.5,0,0,0,4.88,4.75c3,1.39,4.63.18,4.34-3.1-.06-.63,0-1,.79-.7V98l-3.16-.71C87.49,98.12,86,97.74,84.57,98Zm19.67-67.41c1.06,1.07,2,2.06,3,3a1.25,1.25,0,0,0,.8.27,4.17,4.17,0,0,1,3.79,2.44c.2.36.37.72.7,1.37.74-1.27,1.41-2.28,1.92-3.36a2,2,0,0,0,0-1.53,10,10,0,0,0-5.69-5.39,10.74,10.74,0,0,0-3-.43.9.9,0,0,0-.72.5C104.77,28.51,104.49,29.63,104.24,30.54Zm4,44.75c-1.26-.39-1.34.49-1.52,1.16a43.91,43.91,0,0,0-1.27,12.08,13.61,13.61,0,0,0,1.66,5.65c.11-.09.17-.13.19-.18.82-2.3,1.65-4.59,2.45-6.9a2.1,2.1,0,0,0,0-.89c-.42-2.49-.89-5-1.26-7.47C108.27,77.6,108.29,76.43,108.23,75.29Zm-4.14-38.5,2.49-3a5.5,5.5,0,0,0-2.2-2.12c-.47-.26-.73-.12-1,.31A29,29,0,0,1,101,35c-1,1.11-1.14,1.29-.51,2.71.83,1.87,1.67,3.74,2.46,5.62.48,1.16.6,1.25,1.7.69a7.61,7.61,0,0,0,.85-.54,1.33,1.33,0,0,0,.56-1.88c-.79-1.37-1.62-2.71-2.41-4.09a3.48,3.48,0,0,1-.23-.87Zm7.22,36.58c.2,0,.39,0,.49-.06,1.44-1,3-2.09,3.22-4a41,41,0,0,0,.39-5.75,7.75,7.75,0,0,0-2.53-6A11.53,11.53,0,0,0,111,56.4c3.54,2.42,3.1,9.65-1.41,12Zm-1.09-1.23c-.34.87-.62,1.57-.89,2.27a3.56,3.56,0,0,0-.42,1.32c.14,2.22.32,4.44.57,6.66.13,1.11.44,2.21.67,3.31a55.5,55.5,0,0,0,4.44-13.89c-.76.67-1.31,1.25-2,1.71-1.18.85-1.67.68-2.13-.67C110.44,72.65,110.35,72.46,110.22,72.14ZM90.42,42.21l.23.21c-.28.45-.49,1.19-.86,1.28s-1-.41-1.43-.65l.11-.18-6.3,1a4.69,4.69,0,0,0,3.71,3.23,6.13,6.13,0,0,0,6.45-2.28,3.62,3.62,0,0,0,.71-3.7Zm12.36,61.85c.46.14.8.27,1.16.34a27,27,0,0,0,3,.48,2.09,2.09,0,0,0,1.36-.48c1.63-1.5,1.82-5.15.41-6.88a.9.9,0,0,0-.48-.37c-1.28-.22-2.56-.41-3.88-.61C105.56,100.17,105.19,102.06,102.78,104.06Zm-14-12.4a11,11,0,0,1-5,.38,1.1,1.1,0,0,1,.75-.41c1-.14,1.94-.21,2.89-.41.29-.06.77-.52.72-.67C88,90,88.49,89,87.42,89a21.28,21.28,0,0,0-4.07.31,3.11,3.11,0,0,0-1.54,1.22c-.72,1-.39,2,.15,2.91s1.23.8,2.11.75c1.42-.09,2.85.06,4.27.11a4.31,4.31,0,0,0,.88,0c.66-.1,1.31-.28,2-.36,1.33-.17,1.61-.54,1.41-2-1.37-.43-1.44-.4-2,1.09a3.25,3.25,0,0,1-.36.55,2.38,2.38,0,0,1-.55-.43C89.37,92.69,89.1,92.21,88.77,91.66ZM104,22.28c2.4-2.12,3-2.33,6.88-3-.1-.14-.28-.2-.42-.31a12.05,12.05,0,0,0-5.17-2.41,4.08,4.08,0,0,0-4.51,2.28.9.9,0,0,0,.1.79C101.93,20.57,103,21.41,104,22.28Zm1.09,50.35c-.27.3-.62,1-1,1s-1-.51-1.53-.86a75.62,75.62,0,0,0,2.12,13.66,42.18,42.18,0,0,1,1.64-11,.92.92,0,0,0,0-.61C106,74,105.49,73.25,105.13,72.63ZM102.55,53.7c-.75-.59-1.06-.36-1.47-.05A40.8,40.8,0,0,1,96.41,57a47.08,47.08,0,0,1-11.85,4.77c-.28.07-.56.17-1,.3,1.62.94,2.53.77,3.1-.44a15.76,15.76,0,0,0,1.77.34A1.27,1.27,0,0,0,90,61.09c.16-.65.5-.61,1-.5,1.63.34,1.92.15,2.28-1.46a3.87,3.87,0,0,0,1.15.15c.54-.08,1.45-.25,1.5-.51.18-.92.79-.75,1.35-.82,1.09-.11,1.38-.44,1.24-1.37,2.17-.53,2.17-.53,2-1.35ZM87.45,88.15c-.16-.89-.16-.88-.83-1.24-.11-.06-.27-.25-.25-.32s.2-.34.34-.36c.38-.06.78,0,1.18-.08,1.29-.11,2.58-.24,3.85-.36-.09-1.29-.73-1.94-1.86-1.91-1.42,0-2.84.19-4.26.36a2.88,2.88,0,0,0-1.13.57c-.71.5-.83,1.39-.47,2.49.26.82.78,1,1.53.86A17.08,17.08,0,0,1,87.45,88.15Zm18.69-19.61a5.2,5.2,0,0,0,.24,5.33,1.75,1.75,0,0,0,2.38.2c.94-1,1-4,.18-5.17a.53.53,0,0,0-.35-.23C107.78,68.61,107,68.58,106.14,68.54Zm15.21,110.38a10.8,10.8,0,0,0,.35,1.64,1.27,1.27,0,0,0,.7.72,11.38,11.38,0,0,0,6,.26,1,1,0,0,0,.66-.6,15.16,15.16,0,0,0,0-2ZM78.53,43.9l-.36-.44a14.3,14.3,0,0,1-1.76.55,2,2,0,0,1-1.08-.14c-.11-1-1-1-1.6-1.39-.85-.5-1.17-.35-1.34.61a3.54,3.54,0,0,0,4.08,3.83.88.88,0,0,0,.55-.28C77.55,45.74,78,44.82,78.53,43.9ZM90.2,104.3c1.92.69,2.81.47,3.67-1a6.35,6.35,0,0,0,.74-4.08c-.18-1.46-.48-1.66-2.07-1.35A8.51,8.51,0,0,1,90.2,104.3Zm13.74,70.61c-.31,1.73-.23,2,1.43,2.2a21.09,21.09,0,0,0,4.35.15c1.45-.1,1.74-.8,1.19-2.17-1.17.07-2.32.23-3.47.2S105.15,175.05,103.94,174.91ZM102.59,67c0,1.52,0,2.82,0,4.13A2.32,2.32,0,0,0,104.26,73l1.08-4.83ZM96.76,16.72v.35l3.12,1.77,2.44-2.56-.06-.26Zm-2.67,70c-2.11-.87-4.07.16-6.2.09l.52,1.46,5.49-.65ZM76.25,47.92l-.16-.26-2.22-.4c-.09.89.26,1.65.94,1.74C75.24,49.05,75.76,48.31,76.25,47.92Z"/><path d="M98,25.72a1.44,1.44,0,0,1-1.41,1.38,1.49,1.49,0,0,1-1.44-1.47,1.42,1.42,0,0,1,1.35-1.43A1.53,1.53,0,0,1,98,25.72Zm-2.5-.08c.49.36.78.73,1.06.73s.74-.51.69-.64a1.8,1.8,0,0,0-.78-.88C96.4,24.79,96,25.23,95.53,25.64Z"/><path d="M107.58,37.28l-1.15,1c-.16-.72.22-1.29,1.08-1.69a1.83,1.83,0,0,1,2.3.37c-.23,0-.42.07-.62.08s-.42,0-.67,0a6.74,6.74,0,0,1,.35,1.67,2.32,2.32,0,0,1-.75,1.33C108.1,39.1,108.49,38.16,107.58,37.28Z"/><path d="M101.41,28.61c0,.82-.38,1.21-1.06,1.22a.94.94,0,0,1-1.07-1.07c0-.63.15-1.2.93-1.16A1.15,1.15,0,0,1,101.41,28.61Z"/><path d="M95.93,32.15c-.05,1-.39,1.43-1.08,1.43s-.89-.46-.9-1,.6-1.34,1.12-1.17S95.74,32,95.93,32.15Z"/></g></svg>