<svg id="Layer_1" data-name="Layer 1" xmlns="http://www.w3.org/2000/svg" viewBox="0 0 200 200"><g id="qzN6JM"><path d="M167.19,117.4c-3.34-4.17-6.4-8-9.47-11.82q-13.8-17.16-27.67-34.28a4.62,4.62,0,0,0-2.79-1.52c-2.93-.37-5.9-.45-9.16-.66l1.79-7.05a13.24,13.24,0,0,1,1.59.09c4.17.72,7.67-.89,11-3.14.41-.28.57-.94.84-1.43-.59-.14-1.3-.56-1.76-.37-2.21.91-4.25,0-6.32-.43a1.6,1.6,0,0,1-.94-1.2,12.43,12.43,0,0,1,.29-2.48c3-.2,5.7-.37,8.42-.59a.89.89,0,0,0,.6-.48,5.37,5.37,0,0,0,.28-1.08c-2.22-1.4-6,.16-6.88-3.32,2.53-1,4.73-1.82,6.85-2.8.41-.2.5-1.09.86-2a18.27,18.27,0,0,1-3.36.25,6.77,6.77,0,0,1-2-1,10.15,10.15,0,0,1,1.3-1.32,27.92,27.92,0,0,0,2.89-2c-1.68-.56-2.66-1.27-1.79-3.16l2.14.6c2.07-3.2-1.47-3.28-2.56-4.54a2.3,2.3,0,0,1,.12-.37c3.73-.39,3.58-3.42,4.08-6,.14-.71.23-1.43.35-2.14l.51,0c.19,2.67.38,5.33.59,8.21l2.41-.67c1.22,1.66.44,2.5-1.93,3.07L142.82,37c-1.23,2.46-3.26.63-4.81,1.24-.36,1.72.8,2.5,2.06,2.94s2.53.36,3.75.7A6.72,6.72,0,0,1,145.54,43c-.46.55-.82,1.41-1.39,1.58-1.84.58-3.77.9-5.67,1.32.3,1.7,1.91,3,4.75,3.3a66.14,66.14,0,0,0,6.63,0c.12.62.3,1.51.52,2.63-2.6.41-4.82,1.75-7.55.81-.93-.32-2.29.6-3.64,1,1.24,2.8,3.4,3.53,5.61,4.07a8.87,8.87,0,0,0,3.21.09c1.51-.21,2.17.24,2,1.65l-3.38,2.13.14.92-3.54-1.37c-.91,1.2-.82,2.29.71,3.88a18.64,18.64,0,0,0,10,5.32c.91.19,1.83.33,2.84.51l.2,2c2.52.52,3.85-.14,4-1.91-2-1.19-5.51.24-6.32-3.54,2.85-.71,6.21.14,7.15-3.67-1.62-.8-3.75,1.18-5-1.22l4.5-2.94c-1.9-.51-2.92-1.16-2.07-2.9l2,.52c2-3-1.34-3-2.41-4.29.11-.2.17-.39.23-.4,3.09-.18,3.15-2.65,3.61-4.79.19-.89.28-1.8.42-2.7h.54c.16,2.51.33,5,.5,7.68L166.4,52c1,1.45.75,2.38-1.27,3.16,1,.61,2.07,1.17,3,1.86a7.22,7.22,0,0,1,1.15,1.4,8,8,0,0,1-1.75.64,15.11,15.11,0,0,1-2.47-.13c-.18,1.95,1,2.67,2.4,3.06,1.09.31,2.26.31,3.36.59.48.12,1.22.6,1.21.91a1.85,1.85,0,0,1-.84,1.46c-1.84.58-3.74,1-5.63,1.43.46,2.51,1.87,2.91,10.58,2.87.18.8.36,1.62.56,2.56-2.44.7-4.6,1.64-7.17.9-.91-.26-2.16.64-3.67,1.15,2.91,3.59,6.19,4.26,10.1,3.58l.55,1.82c-1.1.9-3.09.36-3.25,2.38a4.71,4.71,0,0,1-1.81-.06c-.52-.19-.9-.76-1.41-1.21-1.21,1.75-.38,3,.75,4.16a17.38,17.38,0,0,0,9.35,4.87l2.74.54c-.14.85,0,2.15-.5,2.44a3.75,3.75,0,0,1-2.84.16c-1.06-.37-1.84-.74-2.59.43a1.56,1.56,0,0,1-1,.53,33.3,33.3,0,0,0-4.8.88c5.32,5.13,11.18,8.87,18.86,8.75-.06,3.06-3.85,2-4.29,4.53l-2.66-1.61v.64c-1.16.16-2.38.65-3.46.43-2.68-.56-5.29-1.43-8.16-2.24a7.92,7.92,0,0,0,2.72,5c3.16,2.82,7.1,3.67,11.07,4.55a2.56,2.56,0,0,1,1.72,1.43,2.19,2.19,0,0,0,2.74,1.9c1.12-.11,2.26,0,3.38,0,.51,3,.46,3-6.72,2.59l-.84,2.41c-3.33-1.36-6.84,1.14-10.2-.66-.38-.2-1.08.2-1.93.39,5,6.21,11.57,8.55,19,9.31.07.79.14,1.48.22,2.29l-3.22.18v2.25c-1.74-1-3.56.31-5.37-.9-.85-.57-2.5.76-3.91-.3-1.07-.81-2.51-1.12-4.16-1.81l.28,3.86-7.09-.62c0,3.65-.05,6.94.06,10.23,0,.49.72,1,1.2,1.43,2.3,1.91,4.63,3.78,6.78,5.93a133.62,133.62,0,0,0-40-9.82,22.7,22.7,0,0,1,3.95,1.76c1,.71,2.43,1.93,2.37,2.84a4.55,4.55,0,0,1-2.39,3.07,75.4,75.4,0,0,1-7.72,2.95c-1.82.67-3.68,1.26-5.46,2.05-.59.26-1.35,1-1.33,1.52s.81,1.21,1.41,1.45a64.48,64.48,0,0,0,7.78,2.8c9.71,2.51,19.46,4.88,29.19,7.3a4,4,0,0,1,1.69.69H154.32c-10.72,0-21.43,0-32.15-.07a15.2,15.2,0,0,1-5.5-.9q-7.56-3.08-14.9-6.65c-1.68-.83-4-2.18-3.29-4.28.47-1.38,2.64-2.69,4.28-3.09,7.25-1.76,14.59-3.18,21.89-4.73,2.5-.53,5-1,7.48-1.7.84-.25,2-1.1,2.09-1.77s-.88-1.84-1.66-2.19c-2.59-1.17-5.3-2.07-8.32-3.21a2.47,2.47,0,0,1-.11-.78c-.07-6.4-.09-12.8-.22-19.21,0-1.54.34-2,2-2,3.73,0,7.54.88,11.2-.58a1.2,1.2,0,0,0,.78-.79l-17.14-.74v24.67c-16-.42-31.61-.59-47.18,1a234.48,234.48,0,0,0-45.87,9.37c1.44-1.06,2.91-2.1,4.31-3.22.48-.38,1.08-1,1.11-1.49.14-2,.07-4,.06-6.06,0-.52-.08-1-.16-1.91l-5.54.53v-2.94l-13.36,3.75-.48-2-2.53-.18-.35-4.82c3.46-.41,6.81-.63,10.09-1.23a12.39,12.39,0,0,0,8.29-5.43H20.46l.08-1.69a24.33,24.33,0,0,1-4.28-.08c-.59-.11-1.19-1-1.41-1.73-.08-.26.79-1,1.35-1.28,2.48-1.19,5.12-2.08,7.48-3.46a10.11,10.11,0,0,0,4.7-7.18c-2.8.17-5,3.78-8.17,1.29l-1.66,1.08v-.55l-4.3-.64v-1.86a88.41,88.41,0,0,0,9.83-3.4c2.11-1,3.83-2.87,5.72-4.34l-.13-.63c-1.17-.24-2.35-.46-3.52-.72-.49-.11-1-.38-1.46-.48a4.56,4.56,0,0,0-2-.21c-1.94.58-2.8,0-2.75-2.45,4.5-.19,8.27-1.89,10.53-6.16l-1.28-1.7c-.86.71-1.67,1.88-2.31-.17-.11-.34-1-.37-1.38-.69s-.77-.81-.71-1.15.65-.69,1.08-.81c1.45-.43,2.95-.71,4.41-1.14a6.75,6.75,0,0,0,1.95-1c-1.55-1.56-2.21-2.36-3.94-1.78a2.76,2.76,0,0,1-3.77-3.15c3.09.17,6.52,1.16,8.86-2.52a42.55,42.55,0,0,1-4.53-1c-.54-.18-.89-.94-1.33-1.43a5.34,5.34,0,0,1,1.5-.9c1.5-.32,3.16-.25,4-1.9a4.38,4.38,0,0,0,.16-1.21,17.87,17.87,0,0,1-2.46.12c-.39,0-.76-.4-1.14-.61.21-.37.34-.85.66-1.08.79-.56,1.67-1,2.42-1.45A7,7,0,0,1,31.42,68c0-.33.94-.78,1.76-1.4l.5-4.35a2.12,2.12,0,0,1,2.49,2.17c.14,2,.84,3.15,3.1,3.21-.78,1.47-3.7,1.72-1.81,4.13L39,71.25c.68,1.29.44,2.13-1.8,2.32,1.75,1.18,2.9,2,4.06,2.73l0,.66-4.57.48a13.31,13.31,0,0,0,2.61,2.32c.87.41,2,.26,3,.52a5.4,5.4,0,0,1,1.43,1c-.38.47-.67,1.12-1.17,1.36a19.56,19.56,0,0,1-3,1c-.19,1.66,1.07,1.83,2.15,1.78,1.54-.06,3.75,1,3.86-1.49l13.82-3.62a78.4,78.4,0,0,1-4.25,6.61c-1,1.28-2.48,1.1-3.58-.42L49.3,87.57l-3.09-1.63c-1.24,2-3,2.13-4.89,1.93a6.93,6.93,0,0,0-1.11,0c.07.42,0,.94.22,1.25.87,1.23,1.83,2.4,3.12,4L43.93,91l9.51-1.35c-2.06,3.28-4.07,6.49-6.09,9.69-2.84,4.5-5.71,9-8.49,13.51-.76,1.25-2.26,3-.59,4.07s2.73-.8,3.63-2Q55.18,97.17,68.38,79.41c.48-.64,1-1.26,1.63-2.1,1.23,1.56,2.41,3,3.54,4.46C81.4,92,89.28,102.14,97.06,112.38a4.06,4.06,0,0,0,3.45,1.59c10.23.53,20.46,1.1,30.68,1.65l33.92,1.78C165.63,117.43,166.16,117.4,167.19,117.4ZM40.46,138l-1.76-.12v8.55c2.33-.73,4.35-1.48,6.42-2,1.26-.31,1.55-.92,1.54-2.11,0-6.2,0-12.4,0-18.6v-3.08l-.6-.06q-1.87,7.36-3.74,14.74H40.46Zm119.72-7.44c-3.55.43-3.64.52-3.65,3.49,0,2.49,0,5,.05,7.47a2,2,0,0,0,.83,1.56c2.11.82,4.29,1.45,6.68,2.22V133.42l-3.91.8ZM144.36,75.43l-.06.73c1.93,1.44,3.94,2.79,5.78,4.34,2.19,1.85,4.3,1.51,6.46.1a12.88,12.88,0,0,0,2.52-2A14.3,14.3,0,0,0,160.57,76a16.67,16.67,0,0,0-2.83,0c-2.63.47-5.3-.77-5.78-2.84a9.45,9.45,0,0,1-2.45,1.46A49.11,49.11,0,0,1,144.36,75.43ZM72.86,122v8.44c1.85-.14,3.58-.21,5.29-.43.39,0,1-.61,1-.95.08-2.45,0-4.9,0-7.54Zm0-3c1.88-.15,3.61-.22,5.32-.44.37,0,1-.59,1-.91.08-2.45,0-4.91,0-7.54l-6.35.53Zm-3.13,3.28c-1.81.09-3.29.08-4.74.28-.52.07-1.37.62-1.39,1-.12,2.51-.07,5-.07,7.67,1.88-.13,3.43-.16,4.93-.4.47-.07,1.19-.71,1.21-1.12C69.78,127.33,69.72,124.93,69.72,122.31Zm-6.21-2.56c2-.16,3.62-.23,5.26-.46a1.4,1.4,0,0,0,.91-1c.08-2.38,0-4.76,0-7.31-1.87.12-3.47.15-5,.36-.43.06-1.11.66-1.12,1C63.46,114.76,63.51,117.15,63.51,119.75Z"/><path d="M14.56,65.86c4.45-5.46,8.83-11,13.38-16.36C35,41.23,42.06,33,50.5,26.14a46.74,46.74,0,0,1,9.32-5.87c4-1.9,7.8-.65,10.62,2.5,2.31,2.58,4.06,5.67,6,8.54,1.37,2,2.55,4.14,4.11,6,3.06,3.63,6.83,4.54,10.8,2a146.51,146.51,0,0,0,12.22-9.54c2-1.66,3.8-3.63,5.84-5.27s4-1.81,5.8.09c3.3,3.46,6.3,7.22,9.42,10.85l-.49.47c-2.23-1.68-4.42-3.41-6.7-5-4.2-2.95-6.35-2.87-10.28.49-2.75,2.37-5.16,5.18-8.08,7.31a51,51,0,0,1-9.56,5.5c-4.78,2.1-9.2.88-12.68-2.9-2.36-2.56-4.3-5.51-6.49-8.23a44.38,44.38,0,0,0-4.5-5.15c-3.32-3-6.89-3.26-10.45-.53a108,108,0,0,0-10,8.53c-10,9.75-19.8,19.64-29.68,29.47-.28.29-.58.56-.87.84Z"/><path d="M61.3,43.07c1.16-.73,3-.14,3.11-2.2a20.3,20.3,0,0,1,1-3.82c1.87,1.69,1.4,3.82,1.64,5.9l2-.38c.69,1.3.69,1.3-1.11,2.31L72,46.94l-.08.53-3.09.38c.37,1.89,1.92,2,3.29,2.42a8.09,8.09,0,0,1,1.71,1,6,6,0,0,1-1.67,1.12c-1.49.36-3,.51-4.53.74.84,2.09,2.22,2.48,8.49,2.35l.43,2.15c-1.88.07-3.57,0-5.24.22a19.49,19.49,0,0,0-3.25,1,8.7,8.7,0,0,0,6.76,2.91c3,.1,3.39.32,4.3,3.28.1.32.15.64.28,1.18-3.2,0-6.27.12-9.33,0a2.74,2.74,0,0,0-2.87,1.59c-1.82,3.06-3.81,6-5.68,9.07-.91,1.48-2.08,1.63-3.56,1a6.55,6.55,0,0,0-1.72-.33c-.26,0-.64.13-.79,0-2.19-2-4.88,0-7.29-1l-.47-2.21c4.8-.08,9-1.29,11.88-5.55-.1-.15-.24-.44-.43-.7s-.42-.51-.77-.91A8.92,8.92,0,0,1,57,68.23a2.51,2.51,0,0,1-1.23.18c-.54-2-2.56-1.3-3.78-2.1-.28-1.23.2-1.54,1.46-1.66a26.19,26.19,0,0,0,6.23-1.18c1-.36,1.74-1.62,2.6-2.48l-.31-.6A20.69,20.69,0,0,1,58,60.33c-1.08-.22-2.91.18-3-1.73,2.85-.33,5.42-.61,8-1,.18,0,.3-.51.45-.79-1.91-1.19-4.85,0-6.27-2.75,2.66-.62,5.52.27,6.95-2.81L59.52,51l-.06-.67L63,48.5l-1.84-2,.44-.5,1.88.4C64.1,44.89,64.1,44.89,61.3,43.07Z"/><path d="M86.58,56.67H98.41V81.15c-1.92,0-3.78,0-5.64,0a2.34,2.34,0,0,1-1.16-.65c-.25-.2-.36-.57-.58-.82A17.74,17.74,0,0,1,86.53,65,76.9,76.9,0,0,0,86.58,56.67Z"/></g></svg>