<svg id="Layer_1" data-name="Layer 1" xmlns="http://www.w3.org/2000/svg" viewBox="0 0 200 200"><g id="_8LevBD" data-name="8LevBD"><path d="M44.32,185.55c-4-1.41-5.35-4.3-5.34-8.38q.09-50.49,0-101c0-17.55.06-35.1-.05-52.65,0-4.18,1.22-7.24,5.35-8.71h83.36c1.95,2,4,4,5.84,6.08,9.32,10.6,18.58,21.25,27.9,31.84A6.5,6.5,0,0,1,163,57.33q0,32.92,0,65.84c0,17.89-.06,35.78,0,53.67,0,4.16-1.16,7.26-5.32,8.71Zm79-163.92H45.86v106.8H156.11V59.18h-1.8q-13.34,0-26.67,0c-3,0-4.27-1.18-4.3-4,0-3.44,0-6.89,0-10.33ZM121.42,137a5,5,0,0,0-.14.67q0,18.24-.08,36.48c0,1,.43,1.38,1.38,1.37,5,0,10,.36,15-.09,6.23-.55,11.73-2.95,15.21-8.6,2.65-4.29,3.2-9,2.93-13.94a16.7,16.7,0,0,0-12.82-15.58C135.78,135.67,128.65,136,121.42,137ZM80.3,175.56c2.92,0,5.58,0,8.24-.05a1.62,1.62,0,0,0,1.13-1c.77-2.49,1.49-5,2.11-7.53.27-1.09.68-1.54,1.89-1.49,2.83.11,5.66.09,8.49,0a1.46,1.46,0,0,1,1.72,1.29c.81,2.92,1.72,5.81,2.58,8.67h9.48l-12.1-39c-3.48,0-6.81.07-10.14,0a1.67,1.67,0,0,0-2,1.44c-2.23,7.49-4.52,14.95-6.8,22.43C83.44,165.33,81.91,170.31,80.3,175.56ZM75.41,144.4c.46-1.79.85-3.63,1.43-5.4.41-1.24,0-1.84-1.16-2a65.47,65.47,0,0,0-9.21-1.07c-10.78.08-18.57,6.95-20,17.59-.8,5.93.29,11.48,4.27,16.25,6.16,7.38,18.22,7.31,25.2,5a1.19,1.19,0,0,0,.66-.91c-.34-2.06-.78-4.1-1.19-6.16-6.77,1.72-13.2,2.38-17.85-3.95-2.93-4-2.76-11.92.26-15.79C62.55,141.88,68.83,142.67,75.41,144.4Z"/><path d="M97.15,71.21c-2.35,6-4.58,11.75-6.82,17.48q-2.13,5.43-4.28,10.83a3.6,3.6,0,0,1-.89,1.55c-3.61,2.69-5.48,6.63-7.6,10.39a8.32,8.32,0,0,1-1.51,2.06c.68-3.12,1.36-6.25,2-9.38a4.47,4.47,0,0,0,.17-1.8c-.67-3.07.06-5.87,1.23-8.72,1.69-4.16,3.13-8.42,4.68-12.63.17-.46.3-.92.49-1.5H80.89l-.26,2.86H79V74.6l1.65-.08.18,3c1.35,0,2.62.06,3.87,0a1.5,1.5,0,0,0,1-.84q1.76-4.59,3.38-9.21A1.71,1.71,0,0,0,89,66.19a8.68,8.68,0,0,1,5.85-12.63,2.5,2.5,0,0,0,.54-.26v-10h2.25v9.54c2,1.3,3.89,2.13,5.27,3.47,2.23,2.16,2.67,5,2,8a4.57,4.57,0,0,0,.1,2.38c1,3.1,2.27,6.14,3.27,9.25a1.93,1.93,0,0,0,2.4,1.6,21.81,21.81,0,0,1,2.57,0l.17-2.88,1.87-.15c0,2.48,0,4.84,0,7.2,0,.26-.64.65-1,.69a1.09,1.09,0,0,1-.83-.69,11.3,11.3,0,0,1,0-2.13H109.7c1.07,3,2.13,5.85,3.2,8.74.95,2.61,2,5.18,2.85,7.81a7.84,7.84,0,0,1,.54,3.54c-.61,3.54.52,6.81,1.2,10.16a21.53,21.53,0,0,1,.58,3.84c-1.27-2.21-2.46-4.48-3.85-6.62a24.66,24.66,0,0,0-3.47-4.39,12.05,12.05,0,0,1-3.1-4.61c-3.26-8.49-6.6-16.94-9.92-25.41C97.59,72.26,97.44,71.91,97.15,71.21Zm-.48-3.29a5.91,5.91,0,1,0,.11-11.81,5.91,5.91,0,1,0-.11,11.81Z"/><path d="M130.12,143.44c5.9-1.42,11.48.26,14.23,4.21s2.59,12.22-.27,16.51c-2.69,4-8.49,5.58-14,4.63Z"/><path d="M97.7,143.18c1.53,5.46,2.94,10.5,4.39,15.66H93.6Z"/><path d="M99.67,62.12a2.94,2.94,0,0,1-5.87,0,2.94,2.94,0,0,1,2.92-3A3,3,0,0,1,99.67,62.12Z"/></g></svg>