<svg id="Layer_1" data-name="Layer 1" xmlns="http://www.w3.org/2000/svg" viewBox="0 0 200 200"><path d="M194.56,165l-7.35-7.35a1.73,1.73,0,0,0-2.44,0l-6.13,6.12a3.46,3.46,0,0,1-4.89-4.89l6.12-6.12a1.74,1.74,0,0,0,0-2.45l-4.9-4.9a1.73,1.73,0,0,0-2.45,0l-3.67,3.67a3.46,3.46,0,1,1-4.9-4.89l3.68-3.68a1.74,1.74,0,0,0,0-2.45l-4.9-4.89a1.73,1.73,0,0,0-2.45,0l-6.12,6.12a3.46,3.46,0,0,1-4.9-4.9l6.12-6.12a1.73,1.73,0,0,0,0-2.45l-4.9-4.9a1.73,1.73,0,0,0-2.44,0l-3.68,3.68a3.46,3.46,0,0,1-4.89-4.9l3.67-3.67a1.74,1.74,0,0,0,0-2.45l-4.9-4.9a1.73,1.73,0,0,0-2.45,0l-6.12,6.12a3.46,3.46,0,0,1-4.9-4.9l6.12-6.12a1.73,1.73,0,0,0,0-2.45L126,96.43a1.73,1.73,0,0,0-2.45,0l-3.67,3.67a3.46,3.46,0,0,1-4.9-4.9l3.67-3.67a1.73,1.73,0,0,0,0-2.45l-4.9-4.9a1.73,1.73,0,0,0-2.44,0l-6.13,6.12a3.46,3.46,0,0,1-4.89-4.89l6.12-6.12a1.74,1.74,0,0,0,0-2.45l-4.9-4.9a1.73,1.73,0,0,0-2.45,0l-3.67,3.67a3.46,3.46,0,0,1-4.9-4.9L94.16,67a1.73,1.73,0,0,0,0-2.45L89.27,59.7a1.73,1.73,0,0,0-2.45,0L80.7,65.82a3.46,3.46,0,0,1-4.9-4.9l6.12-6.12a1.73,1.73,0,0,0,0-2.45L77,47.45a1.73,1.73,0,0,0-2.44,0L70.9,51.13a3.46,3.46,0,0,1-4.9-4.9l3.68-3.68a1.73,1.73,0,0,0,0-2.44l-4.9-4.9a1.73,1.73,0,0,0-2.45,0l-6.12,6.12a3.46,3.46,0,0,1-4.9-4.9l6.12-6.12a1.73,1.73,0,0,0,0-2.45l-7.34-7.34a1.73,1.73,0,0,0-2.45,0L19.19,49a1.81,1.81,0,0,0-.42.67L6.4,86.76a3.44,3.44,0,0,0,.84,3.54,2.83,2.83,0,0,0,.63.5,3.44,3.44,0,0,0,4.26-.5L42.74,59.7a1.73,1.73,0,0,1,2.45,0L55,69.49a1.74,1.74,0,0,1,0,2.45L24.38,102.55a3.46,3.46,0,0,0-.5,4.27,3.38,3.38,0,0,0,.5.63,3.46,3.46,0,0,0,3.54.83L61.61,97.05a1.75,1.75,0,0,1,1.77.42L81.92,116a1.74,1.74,0,0,0,2.45,0l7.35-7.35a1.73,1.73,0,0,1,2.45,0L172.52,187a1.74,1.74,0,0,0,2.45,0l19.59-19.59A1.73,1.73,0,0,0,194.56,165Z"/><path d="M110.77,32.51a3.48,3.48,0,0,0-3.45-2l-22.8,2.08,2.07-22.8A3.46,3.46,0,0,0,80.7,7.05L66,21.74a3.45,3.45,0,0,0,0,4.9L90.49,51.12a3.45,3.45,0,0,0,4.9,0l14.69-14.69A3.46,3.46,0,0,0,110.77,32.51Z"/></svg>