<svg id="Layer_1" data-name="Layer 1" xmlns="http://www.w3.org/2000/svg" viewBox="0 0 200 200"><g id="ZqjVH7"><path d="M39.83,114C16.22,106.6,5.22,85.8,7,67.15,8.47,51.63,15.93,39.85,29.33,32c4.72-2.77,9.19-5.76,12.7-10,1.4-1.68,2.41-1.63,3.81-.12A43.52,43.52,0,0,0,50,25.74a8,8,0,0,0,2.13.91,12.15,12.15,0,0,0-1.32-2.07c-1.54-1.55-3.2-3-4.75-4.53a4,4,0,0,1-.6-1.4c.52-.13,1.29-.54,1.53-.34,2.87,2.46,5.69,5,8.42,7.6.25.25-.08,1.36-.41,1.89a17.43,17.43,0,0,1-2,2.32c-4.84,5.27-9.6,10.62-14.55,15.78C24.77,60.19,31,82.8,50.3,89.32c9.43,3.18,18.29,1,25.49-6.16,4.46-4.42,8.63-9.12,12.9-13.73,3.61-3.9,3.59-3.91,7.43-.38q6.45,5.92,12.95,11.81c.36.32,1,.29,1.54.42a4.59,4.59,0,0,0-.66-1.41c-4.37-4.09-8.78-8.14-13.19-12.2C96,67,95.2,66.34,94.49,65.61c-.25-.27-.49-1-.35-1.12a1.4,1.4,0,0,1,1.18-.41,6.12,6.12,0,0,1,2.76.93c5.13,4.55,10.19,9.2,15.23,13.86a2.48,2.48,0,0,1,.2,3.86c-.38.44-.73.91-1.13,1.34-4.95,5.37-9.94,10.71-14.84,16.12-1.37,1.51-2.74,2.58-4.92,1.92-5.55-1.69-9.59.4-14,4-9.72,8-21.25,10.68-33.77,8.71C43,114.57,41.09,114.25,39.83,114ZM79.23,92.8c-.42.48-.83,1-1.25,1.43-1.25.61-2.56,1.13-3.76,1.83-11.7,6.81-23.73,7.15-35.52.8C19.76,86.67,17.34,64,24.18,51.51a18.2,18.2,0,0,0,1.11-3.74l.9-.36L26,46.93l-.58,1c-4.65,5-6.51,11.13-7.17,17.82C15.67,91.27,42,112.4,67.81,101.44c3.87-1.64,7.64-3.63,10.11-7.31l1.28-1.41.23-.11Z"/><path d="M186.42,147.2c-.9,1.15-1.38,1.88-2,2.51-5,5.51-10,11-15.08,16.48-2.44,2.62-3.57,2.7-6.25.26-11-10-22-20.14-33-30.14-1.48-1.35-1.21-2.19,0-3.44,4.79-5.12,9.48-10.32,14.26-15.45,1.9-2,2-2,4.09-.12q15.51,14.2,31,28.43a16.51,16.51,0,0,0,2.75,1.67,13.12,13.12,0,0,0-1.72-2.63q-15.11-14-30.29-27.86a12.53,12.53,0,0,1-2.18-2.12c-.24-.36.07-1.36.45-1.74a1.88,1.88,0,0,1,1.71-.27,6.56,6.56,0,0,1,1.63,1.42q15.8,14.54,31.57,29.09A29.19,29.19,0,0,1,186.42,147.2Z"/><path d="M121.56,120.42c-.67,2.71-.74,2.8-2.31,1.38-6.59-6-13.12-12-19.72-18-1.19-1.08-1.43-2-.25-3.21q6.89-7.35,13.68-14.78c1.14-1.26,1.94-1.3,3.21-.11,6.5,6.08,13.1,12.06,19.64,18.11,1.54,1.43,1.14,2.19-.93,2.14l.08.13-1.61-1.34-1.49-1.26-.29-.66.46.57-.21.87-1.08.65-1.89-.54L127.57,103l-.58-.88-.34.36,1.07.43,1.28,1.35,1.55,1.34-.32,1-3,.88c-.1.08-.27.16-.28.25a2.76,2.76,0,0,0,0,.64c-.08.28-.16.57-.25.85l-1.09.65-1.92-.5L122.43,108l-.47-.51.62.43,1.29,1.34,1.59,1.31-.32,1-2,.47.71.89-.4.9.15-.08-2,.44-1.1.66-1.69-.56-1.46-1.32a1.44,1.44,0,0,0-.1-.37c0-.06-.13-.07-.2-.11l.45.4,1.46,1.31,1.38,1.36-.32.93-1,.58c-.13.07-.36.13-.36.2a2.83,2.83,0,0,0,.13.63l1.46,1.29,1.38,1.43Z"/><path d="M140.43,107.24c1.48.66,3.23,1.4,4.95,2.2,1.56.73,2.31,1.42.68,3.14-6,6.36-11.88,12.86-17.77,19.35-1,1.09-1.58.93-2.23-.28-.9-1.67-1.81-3.35-2.84-5s-1.07-2.72.36-4.21c4.65-4.84,9.13-9.84,13.65-14.8C138.11,106.72,139,106.09,140.43,107.24Z"/><path d="M86.89,68.69c-2.31,2.49-4.36,4.76-6.5,6.94-.2.21-1.1.1-1.39-.17-4.86-4.4-9.66-8.88-14.5-13.29a1.6,1.6,0,0,1-.2-2.6c.29-.33.61-.62.9-1,2.87-3.32,2.86-3.31,6.22-.24q5.49,5,11,9.92c.29.26.89.17,1.34.24-.14-.39-.17-.9-.43-1.14-4.06-3.76-8.17-7.46-12.2-11.25a10.4,10.4,0,0,1-1.44-2.4,8.53,8.53,0,0,1,2.57,1c4.46,4,8.85,8,13.24,12.08A12.14,12.14,0,0,1,86.89,68.69Z"/><path d="M182,155.33a49.58,49.58,0,0,1,5.25,5.73c.87,1.27-5.7,8-7,7.21a41.88,41.88,0,0,1-5.52-4.83,1.2,1.2,0,0,1,0-1.16c1.93-2.17,3.9-4.29,5.9-6.39C180.94,155.62,181.41,155.57,182,155.33Z"/><path d="M48.4,47.49c-1.55-1.48-3-2.85-4.43-4.32-.2-.22,0-1.07.29-1.43a25.69,25.69,0,0,1,2.63-2.89c1.33-1.24,3-3.53,4.06-3.31,1.72.35,3.11,2.39,4.58,3.78a1.13,1.13,0,0,1,.09,1.12,1.26,1.26,0,0,1-1.16.15c-1.5-.62-2-2.85-4.16-2.48,1,1.2,2,2.35,2.92,3.63a1.67,1.67,0,0,1-.11,1.56c-1.11,1.33-2.34,2.57-3.57,3.79C49.29,47.33,48.83,47.35,48.4,47.49Z"/><path d="M124.4,116.76l.87.79-2.12.58,0,.09.3-.93-.16.08,1.24-.7Z"/><path d="M124.71,115.81c-.1.31-.2.63-.31,1l.18-.09-1.24.7.16-.08-1.87-.41c.1-.31.19-.63.29-.94l1.08-.66,1.78.65Z"/><path d="M134.88,105.92l-1.37,1.56.16-.07-1.88-.41.3-.93,1.07-.69,1.8.67Z"/><path d="M129.79,110.86l-.28.92.13,0-1.22.69.17-.08-1.89-.41c.1-.31.2-.62.31-.94l1.06-.68,1.79.67Z"/><path d="M133.31,108.25l-3,1,.06.11,1.26-1.6,1.77.65Z"/><path d="M123.15,118.13l-.3.9L123,119l-1.89-.39c.11-.33.22-.66.32-1l1.77.62Z"/><path d="M130.29,109.2l-.31.94.17-.09-1.89-.4.33-1,1.76.62Z"/><path d="M130,110.14l1.28.74-1.47,0,.07.13c.09-.31.19-.63.29-.94Z"/><path d="M126.7,115.58l-2,.23.07.12.28-.94-.14.09,1.87.63Z"/><path d="M128.23,113.19l-2,.31.08.14c.05-.33.1-.66.16-1l1.77.63Z"/><path d="M125.2,114.14c-.09.31-.19.62-.28.94l.14-.09-1.87-.4.43-.93-.15.08,1.8.51Z"/><path d="M126.27,113.5c-.35.22-.71.43-1.07.64l.07.11,1.08-.61Z"/><path d="M126.79,115.71l.17-.64.39.25-.65.26Z"/><path d="M129.28,112.6l-1.05.59.05.09c.1-.31.21-.62.31-.93l-.17.08,1,.27Z"/><path d="M133.51,107.48l.53.4-.73.37.07.11.29-1Z"/><path d="M122.85,119l.5.56-.71.19.08.14.28-1Z"/><path d="M122.64,119.78l-1.08.64.07.11,1.09-.61Z"/><path d="M129.51,111.78a2.36,2.36,0,0,1,.13.63c0,.07-.23.13-.36.19l.09.1.27-1Z"/><path d="M120.07,119.18l1.25-.71Z"/><path d="M121.81,116.79l-.29,1-1.83-.52.3-1Z"/><path d="M118.64,117.85c.09-.32.18-.65.28-1l1,.27Z"/><path d="M126.89,111.85l-.29,1-1.82-.52.29-1Z"/><path d="M123.7,112.91l1.26-.71Z"/><path d="M129,107.87l-.3,1-1.82-.5c.1-.33.2-.66.29-1Z"/><path d="M131.69,107.87l-1.83-.52.29-1,1.83.52C131.88,107.23,131.78,107.55,131.69,107.87Z"/><path d="M130.05,107.26l-1.27.71Z"/><path d="M133.26,105.58l-1.08.61-1.82-.51.3-1,1.07-.62,1.81.52C133.44,104.94,133.35,105.26,133.26,105.58Z"/><path d="M128.17,110.51l-1.08.62-1.81-.52c.09-.32.19-.64.29-1l1.08-.61,1.81.52Z"/><path d="M123.09,115.45l-1.08.62-1.81-.52c.09-.32.19-.64.28-1l1.09-.59,1.81.5C123.28,114.81,123.19,115.13,123.09,115.45Z"/></g></svg>