<svg id="Layer_1" data-name="Layer 1" xmlns="http://www.w3.org/2000/svg" viewBox="0 0 200 200"><g id="JxtZPb.tif"><path d="M76.53,89.16c-.86-6.57.7-12.24,5.47-17.14,3.35-3.43,3.49-7.77,1.53-12.07-.93-2-2.16-3.89-3.43-6.16,3.42-.06,5.51,2.31,8.06,3.59l.19.11-.27,0c.66-4.57,1-9.22,2-13.72C92.56,33,91.67,23.06,84.19,14.37A6.93,6.93,0,0,1,83.66,13a20.9,20.9,0,0,1,3.22,1A53.74,53.74,0,0,1,108,32.45a32.75,32.75,0,0,0,2.33,2.81c.6-1.36,1.23-2.7,1.75-4.09a3.85,3.85,0,0,0,0-1.43l.44-.44c8.5,10.23,12.86,21.92,12.43,35.28,0,1-.23,1.91-.24,2.87,0,.38.26,1,.51,1.09a1.7,1.7,0,0,0,1.26-.41c2.52-2.14,3-5.17,3.49-8.19.31-2,.46-4.09.78-7,5.69,6.8,8,14.09,8.59,22s-1.88,15-5.43,21.89l1,.74,4-4.33c2.77,13.11-12.12,29-28.88,30,1-1.15,1.76-2,2.53-3a14.71,14.71,0,0,0,1.75-17,33.16,33.16,0,0,1-2-3.81,38.11,38.11,0,0,1-1.13-4.74l-2.4,4.79a18.38,18.38,0,0,1,.49-10.9c1.83-5,.93-9.61-2.43-15.05.49,7.7-2.43,13.07-6.13,18.14-8.74,12-8.69,19.67.22,31.09l-.29.3c-8.87-.53-15.75-4.84-21.21-11.52-6.4-7.81-9.53-19.61-8.31-30.08l5.58,7.74.16.1Z"/><path d="M34.92,163.59c0-6.4,3.66-11.42,10.25-13.53,8.53-2.74,17.15-5.2,25.74-7.77l89.72-26.84c1.54-.45,3.05-1,4.62-1.33a8.41,8.41,0,0,1,9.63,5.34,8.11,8.11,0,0,1-4.49,10.4c-7.65,3.28-15.42,6.29-23.14,9.39L56.73,175.47c-3.9,1.56-7.74,3-12.09,1.49C38.64,174.9,34.88,169.92,34.92,163.59Z"/><path d="M113.72,159.78c1.93-1,3-1.61,4.1-2.06,9.2-3.68,18.43-7.27,27.59-11a10.29,10.29,0,0,1,7.86-.27c4.35,1.55,8.92,2.54,13.26,4.12,7.24,2.64,10.63,10.28,8.09,17.66-2.36,6.85-9.71,11.25-16.43,8.82C143.54,171.7,129.1,165.79,113.72,159.78Z"/><path d="M34.88,123.29c-.11-6.05,3.26-9.56,8.28-9.5a15.24,15.24,0,0,1,4.22.72Q68.29,120.69,89.16,127a16.36,16.36,0,0,1,2.72.9,1.57,1.57,0,0,1,0,1.43,5.21,5.21,0,0,1-1.8.57c-8.89,2.62-17.76,5.28-26.67,7.79a7,7,0,0,1-4.08-.1c-6.44-2.38-12.82-4.94-19.21-7.45C36.56,128.7,35,126,34.88,123.29Z"/><path d="M112,29.74l-.15-1,.59.57Z"/><path d="M100.83,122.69l.3.32-.59,0Z"/></g></svg>