<svg id="Layer_1" data-name="Layer 1" xmlns="http://www.w3.org/2000/svg" viewBox="0 0 200 200"><path d="M145.72,128.34,190,103,179.84,98a7.46,7.46,0,0,1-4.06-7.66l3.31-24.78L160.34,71A7.46,7.46,0,0,1,151,65.42l-1.79-8.12-17.6,20.6a3.69,3.69,0,0,1-6.45-3l7.51-43.71-11.5,3.15a7.44,7.44,0,0,1-8.55-3.69L100.47,7.92v0h0v0L88.33,30.63a7.46,7.46,0,0,1-8.55,3.69L68.27,31.17l7.52,43.71a3.69,3.69,0,0,1-6.45,3L51.74,57.31l-1.8,8.11A7.46,7.46,0,0,1,40.57,71L21.83,65.52l3.3,24.78A7.44,7.44,0,0,1,21.07,98L10.91,103l44.28,25.3a10.77,10.77,0,0,1,4.75,13.13l-3.79,10.12,37.94-3.24A3.52,3.52,0,0,1,97.91,152l-1.19,40.61h7.46L103,152a3.53,3.53,0,0,1,3.83-3.62l37.95,3.24L141,141.47A10.78,10.78,0,0,1,145.72,128.34Z"/></svg>