<svg id="Layer_1" data-name="Layer 1" xmlns="http://www.w3.org/2000/svg" viewBox="0 0 200 200"><g id="II8Ido.tif"><path d="M180.86,101v49.84c0,17.4-12.77,30.14-30.19,30.14H51c-17.3,0-30.12-12.71-30.13-30q0-50.18,0-100.35A29.19,29.19,0,0,1,50.54,21q50,0,100,0c17.77,0,30.34,12.72,30.32,30.52Q180.84,76.27,180.86,101Zm-124-29.83c-2.12,1.83-5.06,3.2-5.69,5.26-.7,2.31-.17,6,1.35,7.78,4.72,5.55,10.19,10.46,15.29,15.7a2.23,2.23,0,0,1,0,2.17c-5,5.16-10.15,10.2-15.21,15.32-3.08,3.12-3.14,7.42-.23,10.32s7.22,2.83,10.33-.26Q75.41,114.83,88,102.07a2.21,2.21,0,0,0,0-2.17C79.64,91.42,71.26,83,62.75,74.66,61.38,73.32,59.38,72.63,56.87,71.18Zm69.43,58.69c6.06,0,12.13.13,18.18,0,4.34-.13,6.8-2.63,7-7a6.84,6.84,0,0,0-7-7.18q-18.19,0-36.37,0a7.09,7.09,0,1,0,0,14.18C114.18,129.9,120.24,129.87,126.3,129.87Z"/></g></svg>