<svg id="Layer_1" data-name="Layer 1" xmlns="http://www.w3.org/2000/svg" viewBox="0 0 200 200"><g id="YS2iWG"><path d="M11.83,146.41c2.57-.51,5.16-.94,7.71-1.53,1.56-.37,3-1.1,4.59-1.47,1-.24,2.14,0,3.18-.19.69-.11,1.29-.7,2-.8,1.52-.21,3.07-.21,4.6-.39.84-.1,1.65-.48,2.49-.55,1.59-.12,3.19-.12,4.78-.12s2.85,1.24,4.55-.3c.66-.6,2.84.61,4.35.75s2.91,1.87,4.24-.35c.21-.35,1.71,0,2.59.15,5,.94,10,1.92,15.1,2.71l-17.64-6.65,1.3-1.55-11.47-6.3,2-1.47L35,120.63l2.66-1.88-11.59-9.31,2.2-1.67L18.8,96.62l2.29-1.12a42,42,0,0,1-3.92-5.1c-.85-1.52-3.12-3-1-5.26a19.57,19.57,0,0,1-2.36-2.87,10.28,10.28,0,0,1-.47-2.68,8.48,8.48,0,0,0-.6-1.91c-1.48-3.21-3-6.4-4.49-9.6l.71-.44c2.62,1.86,5.2,3.77,7.88,5.53.52.34,1.42.08,2.14.16a5.42,5.42,0,0,1,2.2.4c1.46.88,2.8,2,3.53,2.49,1.8.11,3.11-.2,3.93.3,2.38,1.43,4.56,3.19,7,4.94l1.28-1.9L47,88.3l1.28-2.24L58.36,97.69l1.74-2.43c2.77,3.85,5.35,7.42,7.92,11l1.24-2.14c2,4.56,3.91,8.73,5.84,13l1.57-1.2,9.7,15.18.26-.11c-2.22-6-4.44-12.06-6.73-18.26l2.1-.43-4.45-18,2.55-.17L77.8,77.07h2.76V60.63l2.82.45c.52-4.91,1-9.71,1.57-14.66l2.45.35c.63-3.27,1.12-6.47,1.9-9.6.23-.93,1.25-1.67,2.17-2.32,2.15-2.37.27-7.13,5.31-8.38l2.89-13.38.94-.08c1,4.64,2,9.27,3.08,14.05,1.93-1.15,2.6.07,3,1.75A18.93,18.93,0,0,0,109,34.65c.7.81,1.79,1.52,2,2.45.8,3.12,1.29,6.32,1.93,9.67l2.41-.42L117,61.06l2.74-.47V77h2.81c-.78,5.84-1.54,11.48-2.31,17.25h2.56l-4.39,18,2,.64q-3.15,8.65-6.31,17.29l.39.15c3.06-4.74,6.11-9.48,9.27-14.39l1.47,1.37,5.87-13.16,1.24,2.2c2.52-3.53,5.07-7.12,7.83-11l1.85,2.4,10-11.64,1.38,2.24,10.18-8.84,1.26,2.15a42.82,42.82,0,0,1,4.79-3.79c1.49-.88,2.92-3.12,5.31-1.09,2.38-.74,3.75-4.85,7.69-2.82l8.77-6.26.71.38c-1.33,2.94-2.69,5.87-4,8.83-.47,1.09-2,2-.55,3.54.2.21-.81,1.63-1.37,2.41s-1.28,1.5-1.92,2.24c1.55,2,1.38,2.34-5,10.46l2.33,1L172,107.78l2.24,1.61-11.58,9.34,2.56,1.9-11,7.76,2.11,1.27-11.53,6.47,1.18,1.53-17.65,6.68,0,.15c5-1,10-2,15-2.82,1.19-.2,2.84-1.36,3.57.88a4.34,4.34,0,0,0,1.42-.16c1.67-.38,3.47-1.41,5-1.06,3.36.77,6.76-1,9.73,0,2.07.74,3.83.37,5.72.58a8.75,8.75,0,0,1,2.44,1.12,3.56,3.56,0,0,0,.92.35c4.72.81,9.44,1.58,14.16,2.42a3.84,3.84,0,0,1,2.2,1.48c-2.53.69-5.09,1.28-7.56,2.12a14.71,14.71,0,0,0-3,2c-.07.05-.11.15-.18.19-3.2,1.47-6.71,2.51-9.52,4.52-3,2.17-6.71,1.92-9.47,3.43-2.05,1.13-3.94.87-5.78,1.58-1.24.47-3-.82-3.84,1.58-.21.59-3.36.19-5.15.2-1.3,0-2.7-1-3.79.66-.22.33-1.2.26-1.82.25-5.24-.12-10.51,0-15.59-1.68a1.8,1.8,0,0,0-1.41.13,37.63,37.63,0,0,1,4.58,2.29c1.18.79,3.78.37,3,3.1,0,.05.27.24.43.28,3,.59,4.6,3.14,6.27,5.22a98.38,98.38,0,0,1,6.25,9.66c.15.25,0,.66,0,1.14a41.38,41.38,0,0,0-4.54-2.05,29.36,29.36,0,0,0-3.68-.48c-2-.37-4.29-.34-5.9-1.36-3.36-2.12-7.87-1.5-10.7-4.73-.23-.26-1,0-1.51-.1a5.05,5.05,0,0,1-1.81-.78c-4.59-3.47-9.15-7-13.73-10.5-2.2,1.86-4.32,4.2-6.92,5.68s-4.45,3.9-6.87,4.79c-2.6,1-4.61,3.13-7.08,3.54-4,.68-7.63,3.15-11.49,3.14-3.53,0-6.13,1.7-9.64,2.92a16,16,0,0,1,1.35-3.26c2.15-2.94,4.78-5.59,6.54-8.74,1.22-2.18,4-2.6,4.71-4.13,1.74-3.9,5.87-3.5,8.64-6-1.71.34-3.08.75-4.48.88-4.4.41-8.93,1.48-13.18.82-3.2-.5-6.31-.35-9.45-.59-.36,0-1,0-1-.15-.67-2.71-2.94-1.33-4.46-1.74-3.88-1.07-8.18-1.31-11.55-3.22-2.21-1.26-5.49-1.19-6.49-2.91C27,152,23,153.4,21.76,150.11c-.27-.74-2.44-.81-3.74-1.16-2-.54-4.11-1-6.17-1.58Z"/></g></svg>