<svg id="Layer_1" data-name="Layer 1" xmlns="http://www.w3.org/2000/svg" viewBox="0 0 200 200"><g id="iTkPWO.tif"><path d="M194,90.7c-.28.35-.54.71-.84,1a4,4,0,0,1-2.57,1.53c-6.78,1-13.55,2-20.33,3l-20.73,3q-11.26,1.6-22.54,3.19c-7,1-14.09,1.93-21.13,2.93-.26,0-.61.51-.66.83-.13.72-.08,1.47-.15,2.21a10,10,0,0,1-3.26,6.29c-3.05,2.94-6.35,5.57-10.46,6.91a18.51,18.51,0,0,1-3.39.68c-1,.13-1.18-.12-.83-1.07,2-5.62,5.16-10.4,10.32-13.68q4.72-3,9.3-6.22a46,46,0,0,0,4.45-3.71,3.9,3.9,0,0,1,2.23-1q8.18-1.16,16.33-2.37a3.11,3.11,0,0,0,.53-.23c-1-.08-1.79-.08-2.54-.2a23.53,23.53,0,0,1-15.14-9.34,30.1,30.1,0,0,1-2-32.74,22.68,22.68,0,0,1,10.39-9.19l.78-.38s.06-.09.18-.3c-1.52.19-2.93.34-4.34.54l-28.86,4c-1.06.15-2.1.33-3.16.42-.82.07-1,.47-1.09,1.24a17.46,17.46,0,0,1-.67,4.16,11.09,11.09,0,0,1-7.41,7.29c-1.55.51-1.59.52-1.38,2.08q1.38,10.23,2.82,20.45c.34,2.45.68,4.9,1,7.35a1.82,1.82,0,0,1-.58,1.68c-5.41,5.8-12.33,8.93-19.69,11.32-1.31.42-2.58,1-3.88,1.44a1.24,1.24,0,0,0-.84,1.6c.14.82.73.94,1.38.84a15.45,15.45,0,0,0,2.53-.57c3.3-1.17,6.6-2.35,9.87-3.61,4.44-1.71,8-4.69,11.44-7.9s7.13-6.7,10.94-9.76a24.09,24.09,0,0,1,11.12-5.1,11.72,11.72,0,0,1,3.92,0,7.09,7.09,0,0,1,5.87,6.85c.3,5.55-2.09,9.88-6.4,13.12-2.8,2.1-5.9,3.8-8.76,5.82a51.22,51.22,0,0,0-4.9,4.06,17.76,17.76,0,0,0-4.1,5.67c-2.49,5.26-4.93,10.54-7.54,15.74A52.15,52.15,0,0,1,64.62,148.9C60,152.52,54.56,154.54,49,156.12a1.48,1.48,0,0,1-1.7-.56q-12.27-15-24.58-29.91a1.12,1.12,0,0,1-.11-1.4c1.69-3.36,3.31-6.75,5.07-10.07C32.74,104.58,38.09,95.12,44,86c.88-1.34,1.86-2.62,2.79-3.94a10.54,10.54,0,0,1,5.79-4.26c4.77-1.34,9.55-2.6,14.32-3.9l1.89-.45c-.23-1.76-.45-3.51-.68-5.25q-1.45-10.9-2.91-21.8a7.82,7.82,0,0,1,0-1.45,3.09,3.09,0,0,1,2.61-2.9q19.13-2.84,38.27-5.64,13.93-2,27.89-4,12.81-1.82,25.62-3.54c6.79-.93,13.58-1.83,20.37-2.74a1.47,1.47,0,0,0,.34-.15h2.51a4,4,0,0,1,2.43,3.33c.52,3.49,1.12,7,1.62,10.48,1.09,7.51,2.12,15,3.18,22.54q1.51,10.71,3,21.4c.29,2.06.63,4.12.95,6.18ZM137.48,93l0,.21.84-.07c6.47-.88,12.94-1.75,19.41-2.65,5.12-.71,10.24-1.48,15.37-2.2.92-.12,1.45-.42,1.2-1.47a3.53,3.53,0,0,1,.06-1.25c.78-5,3.49-8.39,8.38-9.94.7-.22,1.26-.38,1.12-1.4-1.22-8.76-2.38-17.52-3.56-26.28-.12-.83,0-1.94-.48-2.38s-1.63-.35-2.49-.42a11.62,11.62,0,0,1-10.1-8.75c-.12-.54-.36-.8-.9-.74-.93.09-1.86.16-2.78.29q-10.32,1.48-20.62,3c-4.26.63-8.51,1.3-12.76,2a3.84,3.84,0,0,0,1.34.44A24.12,24.12,0,0,1,146,50.42c6,7.51,7.25,16,5.35,25.14A23.24,23.24,0,0,1,138.7,92.25C138.27,92.47,137.88,92.74,137.48,93ZM136,58.69c.16-1.22.33-2.3.42-3.39.1-1.27,0-1.43-1.31-1.65-1-.17-2-.25-3.06-.39-1.49-.2-1.69-.42-1.82-1.95-.1-1.11-.45-1.5-1.56-1.56a11.67,11.67,0,0,0-2.21.06c-1.42.19-1.89.79-1.83,2.21a6.45,6.45,0,0,0,.14,1.15,1.53,1.53,0,0,1-.92,1.88A9,9,0,0,0,122,56.31c-4.69,4-3.6,10.8,1.83,12.86,1.08.41,2.2.71,3.3,1.07,1.61.52,3.27,1,4.82,1.62a3.3,3.3,0,0,1,1.5,1.64c.51,1.16-.08,2.28-1.36,2.92a10.52,10.52,0,0,1-5.75.85c-1.05-.1-2.09-.32-3.14-.5-.72-.13-1.18,0-1.26.87s-.3,1.84-.36,2.77c-.1,1.26.21,1.63,1.46,1.78,1.57.18,3.14.31,4.71.42.63,0,.94.19,1,.92.5,3.27,1.07,3.62,4.34,2.88.18,0,.36-.12.55-.16a1.18,1.18,0,0,0,1-1.46c-.11-.83-.12-1.68-.29-2.49a.94.94,0,0,1,.67-1.25,9.87,9.87,0,0,0,4.36-3.83,7.72,7.72,0,0,0-3-10.84A41.85,41.85,0,0,0,132,64.81c-1.58-.53-3.21-.94-4.74-1.58a1.93,1.93,0,0,1-.54-3.38,5.32,5.32,0,0,1,2-1,7.88,7.88,0,0,1,2-.16C132.45,58.67,134.18,58.69,136,58.69Z"/><path d="M4.39,134.89a8.25,8.25,0,0,1,1.28-2.34c2.88-2.52,5.84-4.94,8.81-7.35a3.07,3.07,0,0,1,4,.52c5.74,6.9,11.57,13.72,17.3,20.63,3.22,3.89,6.32,7.88,9.45,11.84a3.74,3.74,0,0,1,1,3.65,3.18,3.18,0,0,1-.77,1.38c-2.65,2.25-5.29,4.51-8.05,6.62-2.2,1.67-3.94,1.4-5.71-.74q-13-15.89-26-31.82A14.51,14.51,0,0,1,4.39,134.89Z"/><path d="M83.11,130c.69-1.51,1.36-3,2.1-4.52.11-.22.58-.35.88-.35,2.19-.06,4.44.12,6.48-.77s4-2.06,6-3.12a13.89,13.89,0,0,1,2-1c-.73,2.43-1.3,4.88-3.74,6.26-4,2.22-8.09,3.8-12.72,3.64l-.77,0C83.3,130.15,83.25,130.1,83.11,130Z"/><path d="M97.39,129.84c-.32.65-.5,1.15-.78,1.59-2.16,3.37-5.45,4.93-9.26,5.39a39.52,39.52,0,0,1-6.25,0c-1.42-.06-1.51-.32-.89-1.58,1.11-2.27,1.11-2.29,3.63-2.2a23.18,23.18,0,0,0,12.08-2.7c.28-.15.58-.27.87-.4A4.53,4.53,0,0,1,97.39,129.84Z"/><path d="M91.74,69.24a3.63,3.63,0,0,1,3.82,3.61,3.7,3.7,0,0,1-3.69,3.75,3.68,3.68,0,1,1-.13-7.36Z"/><path d="M166.82,58.62a3.89,3.89,0,0,1,4,3.54,3.75,3.75,0,1,1-7.5.17A3.64,3.64,0,0,1,166.82,58.62Z"/></g></svg>