<svg id="Layer_1" data-name="Layer 1" xmlns="http://www.w3.org/2000/svg" viewBox="0 0 200 200"><g id="cS41vh.tif"><path d="M195.82,122.34v32.27c-2.07.85-1,2.74-1.34,4.15-.74,3.33-2.4,5.24-5.7,5.31-7.11.17-14.22.06-21.59.06-2.15-10.48-4.23-20.61-6.28-30.62H40.36c-2.09,10.26-4.13,20.27-6.22,30.58-7.57,0-14.84.12-22.11-.06a4.94,4.94,0,0,1-4.87-4.44C6.55,154.2,4.8,149,5.23,143.39s.07-11.38.12-17.07a29.42,29.42,0,0,1,.49-4.18c.33-2.15,1-4.29,1-6.43.08-20.24,0-40.48,0-60.73,0-9.22.76-10,10-10H184c9.81,0,10.63.8,10.63,10.47q0,30.82,0,61.67C194.63,118.9,193.83,121,195.82,122.34ZM100,130.09h50.43c10.63,0,21.25,0,31.88,0,4.26,0,4.79-.52,4.8-4.55q.06-31.3,0-62.63a6.92,6.92,0,0,0-1-4c-3-3.74-6.1-6.68-11.75-6.65-49.33.21-98.66.12-148,.13-8,0-13,5-13,12.81q0,29.17,0,58.36c0,1-.06,1.9,0,2.84.26,2.9.87,3.49,3.82,3.69,1.26.08,2.53,0,3.8,0Zm92-79.45a3.78,3.78,0,0,0-3.86-3.81,3.82,3.82,0,0,0,0,7.63A3.73,3.73,0,0,0,192.05,50.64Zm-3.52,111.1a3.83,3.83,0,0,0-.19-7.65,3.83,3.83,0,1,0,.19,7.65Zm-175.62,0a4.07,4.07,0,0,0,3.65-4.11,4.12,4.12,0,0,0-4.25-3.49,3.82,3.82,0,0,0,.6,7.6Zm0-107.27a4.06,4.06,0,0,0,3.65-4.1,4.1,4.1,0,0,0-4.25-3.49A3.81,3.81,0,0,0,9,50.72,3.77,3.77,0,0,0,12.91,54.45Z"/><path d="M159.38,135.78c2,9.54,4.08,19.22,6.13,28.88-3.79,1-123.26,1.24-129.68.26,2.06-9.8,4.12-19.56,6.21-29.54H96c.07,1.83.11,3.51.22,5.18a17.86,17.86,0,0,0,.41,3.74,3.24,3.24,0,0,0,3.64,2.42,3.15,3.15,0,0,0,3.25-2.88c.24-2.66.27-5.33.39-7.92C107.74,134.87,154.49,134.74,159.38,135.78ZM55,152.09a4.66,4.66,0,0,0-4.56,4.52,4.75,4.75,0,0,0,4.29,4.33,4.73,4.73,0,0,0,4.55-4.06A4.67,4.67,0,0,0,55,152.09Zm94.76,4.36a4.73,4.73,0,0,0-4.24-4.36,4.43,4.43,0,1,0,.12,8.84A4.73,4.73,0,0,0,149.71,156.45Zm-23.37-6.24a3.37,3.37,0,0,0-3.65,3.46,3.33,3.33,0,0,0,3.43,3.65,3.38,3.38,0,0,0,3.68-3.43A3.46,3.46,0,0,0,126.34,150.21ZM77,153.93c.07-2.25-1.15-3.65-3.25-3.71a3.26,3.26,0,0,0-3.57,3.41c-.06,2.27,1.11,3.6,3.27,3.69S77,156.19,77,153.93Z"/><path d="M16.86,126.81c-.09-1.63-.23-3-.23-4.41q0-28.7,0-57.4c0-5.74,3.58-9.43,9.26-9.43q74.46,0,148.91,0c5.82,0,9.38,3.54,9.39,9.33q0,28.93,0,57.88c0,1.24-.16,2.48-.25,3.63C180.11,127.33,26.54,127.7,16.86,126.81Zm83.28-43.72c-12,0-24.1,0-36.14,0a48.76,48.76,0,0,0-6.17.32c-7.63,1-13.72,7.2-14.28,14.33A15.89,15.89,0,0,0,55.3,114.57a30,30,0,0,0,8,1q36.85.11,73.71,0a38,38,0,0,0,4.27-.12c8.23-1,14.75-7.06,15.46-14.38a16,16,0,0,0-12-17.15,31.43,31.43,0,0,0-8-.81C124.55,83,112.35,83.09,100.14,83.09ZM23.66,79v.28h153V79ZM176,67.88l.13-.17H24v.17Z"/><path d="M100.15,85.19c13,0,26,0,39,0,7.11,0,12.78,3.89,14.84,9.8,2.68,7.71-2.36,16.11-10.87,17.91a33.18,33.18,0,0,1-6.61.59q-36.4.06-72.81,0a34.72,34.72,0,0,1-5.68-.44c-7.54-1.26-13-7.52-12.57-14.39.4-7.07,6.61-13,14.23-13.43,2.69-.15,5.39-.06,8.09-.07h32.36Zm31.9,22,1,.94c5.38,4.08,11.78,3.45,15.8-1.55,3.8-4.72,3.18-11.26-1.47-15.52l.13.15c-4.44-4.09-9.22-4.43-13.73-1l.14-.16C127.19,93.76,126.33,101.78,132.05,107.14Zm-66.67,2c3.68-1.31,5.52-4,5.84-7.81l-.14.18c1.39-5-.15-8.62-4.85-11.56l.18.16c-3.28-2.8-6.8-3-10.53-1l.19-.15c-6.52,2.58-9.19,9.1-6.26,15.27A10.92,10.92,0,0,0,65.54,109Zm15.15-9.06H119.3V88.33c-5.73-.91-35-.69-38.77.32Zm38.5,4.56.59-.07-.29-1.94-.5.07Zm-18.66-2.17-.52,0,.11,2.08h.41Zm-19.53,2.15.57-.07-.24-1.89-.5.06Zm34.4-.8h.35v-1.5h-.35Zm-3.46-1.5h-.37v1.52h.37Zm-3.82,0h-.37v1.52H108Zm-4.18,1.52h.36v-1.52h-.36Zm-7.3-1.48h-.36L96,103.83l.45,0Zm-3.8,0h-.37v1.48h.37Zm-4.16,1.72c.26-.47.52-.73.5-.95s-.4-.33-.61-.49Zm-3.47-1.69h-.37v1.45h.37Z"/><path d="M71.22,101.32l-2.16,1.16c-.35-.63-.89-1.16-.83-1.6.11-.79.42-2,.93-2.18,1.43-.44,1.72.74,1.81,1.89,0,.31.07.61.11.91Z"/><path d="M66.23,89.94c.11.28.34.57.3.83-.09.74-.3,1.47-.46,2.2L64.22,92a20.12,20.12,0,0,1,1.3-1.87c.14-.15.59,0,.89-.06Z"/><path d="M55.88,89.12c1.14.25,2.29.65,1.73,2.09a2,2,0,0,1-1.85.73c-1.94-1.08,0-2,.31-3Z"/><path d="M65.54,109a3.9,3.9,0,0,1-1.38.12,10.16,10.16,0,0,1-1.82-.88c.28-.49.66-1.43.81-1.4a5.36,5.36,0,0,1,2.07,1c.25.21.12.88.16,1.34Z"/><path d="M54.24,104.9c.71.68,1.38,1.08,1.63,1.65.13.33-.43,1-.67,1.44l-2.11-1.37Z"/><path d="M52.66,98.22a7.23,7.23,0,0,1-1.83,1.32c-.22.07-1.07-.89-1-1.16a5.56,5.56,0,0,1,1.27-1.56Z"/><path d="M132.53,98c-.89.76-1.33,1.38-1.91,1.55-.3.09-1.23-.67-1.19-.93a2.44,2.44,0,0,1,1-1.69C130.79,96.77,131.54,97.46,132.53,98Z"/><path d="M150.17,98.29l-.21,4.23C147.1,100.48,147.12,100.2,150.17,98.29Z"/><path d="M145.22,108.12a6.69,6.69,0,0,1-2.18,1c-.4,0-.81-.73-1.21-1.13a12.4,12.4,0,0,1,2-1.38C144,106.51,144.57,107.37,145.22,108.12Z"/><path d="M132.94,108.15l-.94-1c.28-.37.49-.88.86-1.08a3.39,3.39,0,0,1,1.94-.49c.36.07.93,1.22.81,1.36a5.62,5.62,0,0,1-1.75,1.11A2.51,2.51,0,0,1,132.94,108.15Z"/><path d="M133.75,90.2a4.87,4.87,0,0,1,1.32-.28,20.42,20.42,0,0,1,2.3.38,6.69,6.69,0,0,1-.48,1.49,6.8,6.8,0,0,1-2.3-.6c-.34-.17-.47-.75-.7-1.15Z"/><path d="M147.35,91a6.37,6.37,0,0,0-.53.75c-.59,1.1-1.39,1.77-2.53.8A1.67,1.67,0,0,1,143.9,91c.81-1.5,1.77-.42,2.69,0a3.69,3.69,0,0,0,.89.17Z"/></g></svg>