<svg id="Layer_1" data-name="Layer 1" xmlns="http://www.w3.org/2000/svg" viewBox="0 0 200 200"><g id="Fh75JF.tif"><path d="M46.6,137c-6.19,1.57-11.71,2.81-17.13,4.41-3.75,1.11-7.09,3.14-8.75,6.95a101.84,101.84,0,0,0-3.6,9.56c-.37,1.17.06,2.58-.06,3.86a7.9,7.9,0,0,1-.78,3.47c-1.66,2.58-3.28,2.59-5.41.4a6.74,6.74,0,0,1-2-6.45c1.31-9.17,5.68-17.17,8.8-25.64a7.2,7.2,0,0,1,2.08-2.45c3.68-3.39,7.79-6.45,9.88-11.17a36.73,36.73,0,0,0,2.1-7.43c.78-3.76,1.4-7.56,2-11.35.51-3.29,1-6.6,1.25-9.92.07-1-.76-2.13-1.32-3.12C30.47,82.44,26.72,77,24.16,71a72.52,72.52,0,0,1-5.05-17.47c-1.39-9,1.57-17.38,7.07-24.45,4.78-6.16,12-7.46,19.33-6.6,3.85.45,6.9,3.38,8.64,7a6.55,6.55,0,0,1,.19,3.81C53.7,36.57,52,37.1,49.52,35c-5.77-5-13.4-3.13-16.63,3.8-3.32,7.12-2.63,14.26-.6,21.47.63,2.23,1.35,4.44,2.06,6.65,2,6.11,6.31,10.17,11.71,13.17a8.09,8.09,0,0,0,4.36.78c6.87-.52,13.72-1.49,20.61-1.8,10.43-.47,20.67,1.58,30.93,3.16s20.55,2.93,30.79,4.6c5.82,1,10.51-1.16,14.87-4.59,1-.77,1.8-1.71,2.81-2.42a68.88,68.88,0,0,1,8-5.39,21.15,21.15,0,0,0,7-5q2.81-3.34,5.6-6.68l.68.94,2.44,1c-.09,2.08-.13,4.4-.33,6.7a1.89,1.89,0,0,0,1.35,2.3,23.62,23.62,0,0,1,3.69,1.86,9.14,9.14,0,0,1,2.73,2.12c2.61,3.54,5.06,7.19,7.56,10.81a2.16,2.16,0,0,1,.24.61c.49,1.78-3.56,8.39-5.4,8.72a13.27,13.27,0,0,1-3.25.31c-8.52-.66-16.72,9.34-16.12,17.17.5,6.52.42,13.07.7,19.6a10.12,10.12,0,0,0,1,3.29c3.19,7.45,8,13.79,13.52,19.63,1.25,1.32,2.5,2.64,3.68,4,2.07,2.42,4.36,4.1,7.85,3.62,1.85-.26,4.24,1.87,4.29,3.31.06,1.78-1.93,3.49-4.24,3.56-2.1.06-4.21.07-6.32,0a3.51,3.51,0,0,1-1.79-.54C172,163.93,161.43,155,150.88,146.18c-1.28-1.08-2-2.83-3.23-4-2.42-2.25-5-4.32-7.59-6.41-.24-.19-.82,0-1.24.06-2.41.36-4.83,1.09-7.22,1a7.66,7.66,0,0,0-7.41,4.07c-3.68,6.58-7.12,13.3-10.54,20-.59,1.17-.56,2.66-.83,4.06,1.06.59,2,1.1,2.93,1.64,1.68,1,1.8,2.54,1.4,4.19s-1.73,1.48-3,1.47c-1.81,0-3.63,0-5.45,0a2.88,2.88,0,0,1-3.13-2.94c-.08-5.06,0-10,1.42-15.06,1.64-5.8,2-12,2.76-18,.06-.45-.73-1.29-1.29-1.49-1.83-.68-3.74-1.13-5.61-1.71-3.69-1.15-7.28-2.18-11.15-.3-1.47.72-3.41.56-5.14.64-4.06.19-8.13.34-12.2.38a2.79,2.79,0,0,0-3,2c-1.38,4.19-4.2,7.36-7.08,10.57A63.37,63.37,0,0,0,58.83,154a5.56,5.56,0,0,0,.73,7c1.13,1.23,2.32,2.41,3.39,3.69,1.61,1.89,3.13,3.53,6,3.56,1.31,0,2.88,1.3,3.85,2.43a2.63,2.63,0,0,1-2,4.28,80.25,80.25,0,0,1-8.06,0,3.16,3.16,0,0,1-2-1.09c-4.41-5.19-8.84-10.37-13.09-15.69-2.75-3.45-2.76-7.5-1.77-11.63a35.93,35.93,0,0,0,1-5.12A28.18,28.18,0,0,0,46.6,137Z"/></g></svg>