<svg id="Layer_1" data-name="Layer 1" xmlns="http://www.w3.org/2000/svg" viewBox="0 0 200 200"><g id="zA4R79.tif"><path d="M13,108.23V90.73a18.4,18.4,0,0,0,.77-2.46c6.21-37.62,27.71-61.9,64-73.22,4.54-1.42,9.32-2.05,14-3.05h17.5a15.78,15.78,0,0,0,2.45.77,87.58,87.58,0,0,1,75.26,100.3c-6.26,40.23-40.5,71.37-81.1,73.78a87.58,87.58,0,0,1-89.39-63.36C15,118.48,14.14,113.32,13,108.23ZM133.62,26.52C108.4,13.79,71.13,16.4,45.1,41.12s-30.63,62-19,88.12L72.7,110.55c-4-12.81-1.88-23.79,7.5-32.64s20.48-10.2,32.64-5.68ZM67.34,172.39c26,13.27,65.31,10,91.57-17.62,25-26.3,26.46-64,15.67-84.94l-23,9.23-23.31,9.35c4,12.76,1.9,23.75-7.46,32.61s-20.46,10.27-32.67,5.68C81.13,142.06,74.23,157.23,67.34,172.39Zm32.87-50.17A22.74,22.74,0,1,0,77.74,99.54,22.86,22.86,0,0,0,100.21,122.22Zm18.16-45.81,1.6-.19L152.21,37.7l-8.63-6.18c-8.86,14-17.45,27.42-25.86,41C117.19,73.35,118.12,75.09,118.37,76.41ZM84.15,125.23l-.14-1.6c-1.33.09-3.29-.36-3.9.34-10.48,12.25-20.8,24.64-31.35,37.25l8.58,6.24Z"/><path d="M118,99.29A17.49,17.49,0,1,1,100.29,82,17.59,17.59,0,0,1,118,99.29ZM100.27,89A10.48,10.48,0,1,0,111,99.38,10.56,10.56,0,0,0,100.27,89Z"/></g></svg>