<svg id="Layer_1" data-name="Layer 1" xmlns="http://www.w3.org/2000/svg" viewBox="0 0 200 200"><g id="bBv8KC"><path d="M1.22,100.73A97.89,97.89,0,1,1,98,198.7,97.89,97.89,0,0,1,1.22,100.73Zm97.91,78.11a78,78,0,1,0-78.06-78A78.15,78.15,0,0,0,99.13,178.84Z"/><path d="M102.42,69.26c0,6.23,0,12.47,0,18.7,0,.74.15,1.14.93,1.41a11.46,11.46,0,0,1,6.06,4.88,1.35,1.35,0,0,0,1.31.7c5.47,0,11,0,16.42,0,2.18,0,4,.73,4.92,2.73a6.23,6.23,0,0,1-.32,6.33,4.79,4.79,0,0,1-4.28,2.14c-5.4,0-10.8,0-16.2,0a1.62,1.62,0,0,0-1.63.91A12.21,12.21,0,1,1,94.92,89.35,1.15,1.15,0,0,0,95.81,88q0-18.43,0-36.86A6.85,6.85,0,0,1,96,49.23a3.23,3.23,0,0,1,3.8-2.15,3.2,3.2,0,0,1,2.63,3.26C102.42,56.64,102.41,63,102.42,69.26Z"/><path d="M68.73,52c-.58-.46-1.3-.78-1.63-1.33-2-3.32-3.92-6.67-5.83-10A2,2,0,0,1,62,37.86a10.59,10.59,0,0,1,1.12-.66,2,2,0,0,1,2.75.71q3,5,5.86,10.14A2,2,0,0,1,71,50.86C70.33,51.27,69.6,51.59,68.73,52Z"/><path d="M129.43,52.21a17.78,17.78,0,0,1-2.93-2.12c-.72-.78-.26-1.75.24-2.6,1.76-3,3.48-6,5.22-9,1-1.7,1.92-2,3.55-1,1.86,1.07,2.15,2,1.18,3.68-1.79,3.1-3.55,6.21-5.4,9.28A10.72,10.72,0,0,1,129.43,52.21Z"/><path d="M68.87,149.82a2.82,2.82,0,0,1,2.57,4.35q-2.59,4.52-5.21,9c-.94,1.62-1.92,1.9-3.48,1-1.92-1.1-2.21-2-1.21-3.75,1.79-3.1,3.59-6.19,5.37-9.3A2.27,2.27,0,0,1,68.87,149.82Z"/><path d="M129.46,149.62c.54.39,1.26.66,1.57,1.17,2,3.38,4,6.8,5.93,10.23a1.94,1.94,0,0,1-.75,2.72c-.33.22-.68.42-1,.61a2,2,0,0,1-3-.78q-2.88-4.92-5.69-9.86a2,2,0,0,1,.84-3.05C128,150.3,128.64,150,129.46,149.62Z"/><path d="M38.16,62.7a8,8,0,0,1,1.15.47c3.14,1.79,6.27,3.61,9.39,5.42,1.59.92,1.78,1.85.77,3.62s-1.94,2-3.48,1.08c-3.19-1.84-6.39-3.68-9.57-5.54a2,2,0,0,1-1.1-2.45A3.13,3.13,0,0,1,38.16,62.7Z"/><path d="M163.22,66c-.45.6-.77,1.37-1.34,1.72-3.28,2-6.61,3.87-9.95,5.76a2,2,0,0,1-2.9-.75,10.62,10.62,0,0,1-.6-1,2,2,0,0,1,.79-2.88q5-2.91,9.95-5.76a2,2,0,0,1,2.9.76C162.46,64.4,162.77,65.09,163.22,66Z"/><path d="M163,135.29c0,2.93-2.26,4.24-4.37,3L149.52,133c-1.61-.93-1.8-1.85-.79-3.61s1.94-2,3.47-1.1c3.16,1.82,6.34,3.62,9.46,5.51A6.14,6.14,0,0,1,163,135.29Z"/><path d="M38.15,138.93c-1.36,0-2.37-1-2.83-2.6a2,2,0,0,1,1.09-2.45q4.88-2.85,9.77-5.64c1.39-.79,2.4-.38,3.33,1.27s.76,2.61-.61,3.41c-3.25,1.9-6.51,3.77-9.77,5.64A5.59,5.59,0,0,1,38.15,138.93Z"/><path d="M101.8,35.63c0,1.84,0,3.69,0,5.54S101,43.54,99,43.53s-2.61-.69-2.62-2.4c0-3.66,0-7.32,0-11,0-1.8.76-2.41,2.82-2.4,1.83,0,2.55.68,2.57,2.44S101.8,33.82,101.8,35.63Z"/><path d="M33.84,103.51c-1.81,0-3.62,0-5.43,0S26,102.73,26,100.75s.66-2.62,2.37-2.63c3.7,0,7.39,0,11.09,0,1.67,0,2.32.8,2.32,2.69s-.65,2.67-2.33,2.69C37.61,103.53,35.73,103.51,33.84,103.51Z"/><path d="M164.29,103.51c-1.85,0-3.7,0-5.54,0s-2.37-.81-2.36-2.77.68-2.61,2.4-2.62c3.66,0,7.31,0,11,0,1.77,0,2.41.76,2.41,2.71s-.66,2.66-2.45,2.68Z"/><path d="M101.8,166c0,1.85,0,3.7,0,5.55s-.76,2.37-2.63,2.37-2.75-.62-2.76-2.35c0-3.7,0-7.39,0-11.09,0-1.68.8-2.33,2.68-2.33s2.68.64,2.71,2.31C101.82,162.26,101.8,164.11,101.8,166Z"/></g></svg>