<svg id="Layer_1" data-name="Layer 1" xmlns="http://www.w3.org/2000/svg" viewBox="0 0 200 200"><path d="M89.71,163.34l-15.25-4.42a3,3,0,0,1-2-3.73L106.54,37.63a3,3,0,0,1,3.72-2.05L125.51,40a3,3,0,0,1,2,3.72L93.44,161.29A3,3,0,0,1,89.71,163.34Zm-28.5-28.05,10.88-11.6a3,3,0,0,0-.2-4.3L49.23,99.46,71.89,79.54a3,3,0,0,0,.2-4.3L61.21,63.64A3,3,0,0,0,57,63.51l-36,33.75a3,3,0,0,0,0,4.38l36,33.78a3,3,0,0,0,4.25-.13Zm81.81.15,36-33.78a3,3,0,0,0,0-4.37l-36-33.8a3,3,0,0,0-4.25.12l-10.88,11.6a3,3,0,0,0,.2,4.3l22.65,19.95-22.65,19.93a3,3,0,0,0-.2,4.3l10.88,11.6a3,3,0,0,0,4.25.15Z"/></svg>