<svg id="Layer_1" data-name="Layer 1" xmlns="http://www.w3.org/2000/svg" viewBox="0 0 200 200"><g id="WPvQPz.tif"><path d="M71.92,198c-7-1.22-14.05-2.21-21-3.76A62.3,62.3,0,0,1,38.58,190c-6.66-3.08-9.89-8.53-9.81-16,.13-12.82.16-25.65.18-38.48,0-18.68.22-37.36-.08-56-.15-9.62,4-16.22,12.84-18.95a150.22,150.22,0,0,1,26.95-5.89,236.36,236.36,0,0,1,31-1.12,78.72,78.72,0,0,1,31.94,7.52c7.91,3.66,11.81,9.66,11.67,18.47-.12,7.91,0,7.51,7.8,7.31,11.45-.29,22.22,6.26,27.36,18.35.57,1.34,1,2.72,1.53,4.09v30.22c-.41,1.39-.85,2.77-1.21,4.16-2.5,9.65-8.68,15.87-18.14,18.39-4.12,1.09-8.61.93-13,1.1s-4.39,0-4.49,4.23c-.05,2.1-.07,4.21,0,6.31.27,7.64-3.13,13.31-9.85,16.44a76.29,76.29,0,0,1-15.57,5.1c-6.11,1.36-12.4,1.89-18.61,2.78Zm104-75.72h-.16c0-2.44.1-4.88,0-7.31-.48-10.51-7.43-20.11-17.19-22.31-4.59-1-9.63-.42-14.42,0s-5.4.09-5.41-4.76c0-1.79,0-3.58.09-5.36.54-10.27-2-15.8-14.33-19.28A157,157,0,0,0,70.59,58a84,84,0,0,0-26.35,6.3c-7.17,3-11,7.79-10.38,15.71.09,1.29,0,2.59,0,3.89q0,38.73,0,77.47c0,1.46-.24,2.92-.21,4.37.07,3.55.1,7.1.37,10.64.35,4.47,3,7.55,6.87,9.33a78.72,78.72,0,0,0,10.92,4.07c18.08,5.19,36.5,5.38,54.92,2.62a156.77,156.77,0,0,0,22.57-5.63c6.26-1.92,9.36-6.63,9.33-13.29,0-3.57,0-7.15,0-10.72.08-4.61.78-5.13,5.13-4.62a78.67,78.67,0,0,0,9.19.63,21.81,21.81,0,0,0,21.81-20C175.39,133.31,175.6,127.79,176,122.28Z"/><path d="M64.81,4.32c2.8,0,7,7.39,5.44,9.5-2.09,2.89-2.52,5.4-.09,8.28,1.48,1.74,1.11,3.72-.39,5.28-2,2.13-2,4.06-.35,6.47,2.21,3.24,0,9.26-3.77,10.6-.35.12-1.47-.71-1.48-1.11a3,3,0,0,1,.9-2.14c3.18-2.52,3.05-4.82,0-7.43-1.77-1.52-1.35-3.58-.14-5.29,2-2.81,2.67-5.31-.11-8.19a4.51,4.51,0,0,1-.23-4.36c2.24-3,3.06-5.61,0-8.5a2.51,2.51,0,0,1-.54-1.79C64.13,5.12,64.62,4.64,64.81,4.32Z"/><path d="M84,4a13.86,13.86,0,0,1,1.49.86c4.31,3.39,4.74,5.83,2.82,11a7.18,7.18,0,0,0,.58,5.34c1.51,2.68,1.58,4.86-.62,7-1.79,1.71-1.39,3.22-.13,5.1,2.65,4,1.18,8.94-3.14,11.18-.35.18-1.18.18-1.27,0-.28-.52-.59-1.53-.36-1.74,4.09-3.65,3.25-7.09.12-10.93-.55-.68.47-3.09,1.29-4.37,1.49-2.35,1.93-4.25-.38-6.4-1.92-1.79-2-4-.17-6,2.2-2.44,2.5-4.73-.14-7.1a3.54,3.54,0,0,1-.81-2.2C83.25,5.17,83.72,4.62,84,4Z"/><path d="M108.76,37.73c-2.08,2.36-4,4.61-6.08,6.8-.12.13-.94-.13-1.16-.42s-.38-1.14-.19-1.31c4.14-3.7,3.33-7.17,0-11-.51-.6.65-3,1.45-4.32,1.4-2.27,2.21-4.17-.24-6.37a4,4,0,0,1-.37-6.05c2.12-2.46,2.31-4.76,0-7.33-.6-.67-.24-2.21-.32-3.34a13.64,13.64,0,0,1,2.58,1.72c4.22,4.46,4.29,4.53,1.61,9.8-1.08,2.12-.51,3.73.75,5.35,1.76,2.27,1.8,4.46-.24,6.53-1.84,1.86-1.55,3.69-.2,5.67C107.17,34.64,107.77,36,108.76,37.73Z"/><path d="M86,89.48c-13.37-.24-26.63-.93-39.12-6.24A33.94,33.94,0,0,1,39,77.87c-.76-.63-1.31-2.84-.84-3.41,1.44-1.77,1.89.36,2.75,1.09a1.51,1.51,0,0,0,1.47-.08c5.77-6.27,13.77-7.07,21.35-8.09,16.43-2.22,32.95-2.37,49.34.68,6.33,1.17,12.85,2.16,17.55,7.4.18.2,1.28-.44,1.94-.69l2-.77c.12.73.52,1.57.31,2.19a10.5,10.5,0,0,1-7.33,6.6,182.86,182.86,0,0,1-21.17,5.15C99.63,89,92.78,89,86,89.48Z"/><path d="M138.7,125.37c0-7,0-14,0-21,0-5.46,0-5.74,5.58-6.43a46.67,46.67,0,0,1,11.57.06c7.74,1,11.95,5.91,13.44,13.37,1.83,9.22.7,18.49-.2,27.64-.7,7.1-5.45,11.91-12.49,13.24-4.5.85-9.28.38-13.93.34-3.07,0-4.06-1.9-4-4.85C138.78,140.31,138.71,132.84,138.7,125.37Zm4.51-.51c0,6.48,0,13,0,19.45,0,2.13.33,3.68,2.78,4.36,9.55,2.66,18.52-3.35,19.05-13.14.34-6.47.44-13,.22-19.44-.33-9.87-8.4-16-18.26-14.22-2.6.47-3.91,1.6-3.83,4.51C143.33,112.54,143.21,118.7,143.21,124.86Z"/></g></svg>