<svg id="Layer_1" data-name="Layer 1" xmlns="http://www.w3.org/2000/svg" viewBox="0 0 200 200"><path d="M192.46,165.31l-12-45.06V38.73A22.67,22.67,0,0,0,157.8,16.08H42.52A22.67,22.67,0,0,0,19.87,38.73v81.53l-12,45.06a19,19,0,0,0,2.91,16.59A18.94,18.94,0,0,0,26.05,189H174.26a18.21,18.21,0,0,0,18.2-23.69ZM42.52,28.43H157.8a10.3,10.3,0,0,1,10.29,10.29V118.2H32.22V38.73A10.3,10.3,0,0,1,42.52,28.43Zm137.23,146a6.72,6.72,0,0,1-5.49,2.26H26a6.71,6.71,0,0,1-5.49-2.26,6.74,6.74,0,0,1-.77-5.89L32,122.67l0-.35h136.2l.05.35,12.21,45.83A6.64,6.64,0,0,1,179.75,174.39Z"/><path d="M42.52,112.15H157.8a4.14,4.14,0,0,0,4.11-4.11v-69A4.13,4.13,0,0,0,157.8,35H42.52a4.13,4.13,0,0,0-4.12,4.12v69A4.12,4.12,0,0,0,42.52,112.15Z"/><polygon points="72.53 148.13 68.08 168.55 128.1 168.55 123.65 148.13 72.53 148.13"/></svg>