<svg id="Layer_1" data-name="Layer 1" xmlns="http://www.w3.org/2000/svg" viewBox="0 0 200 200"><defs><style>.cls-1{fill:#009245;}</style></defs><g id="H7viEP"><path class="cls-1" d="M172.64,106.41c-.38,1.24-1.41,1.65-2.8,1.56-.84-.06-1.69,0-2.87,0l.42,0-.34-1.74-.57.08A3,3,0,0,0,167,108a1.76,1.76,0,0,1,.34,1.26c-1.91,1.67-3.53-.56-5.33-.39v-2c.36.14.66.6,1.08.82a4.84,4.84,0,0,0,1.45.26c-.74-.83-1-2.61-2.53-1.08a29.56,29.56,0,0,1-4.44-.66c.37-.3.77-.88,1.11-.84a9,9,0,0,0,6.86-2l1.8,1.15v-2.78h1.6l.46,3a5.76,5.76,0,0,1,3.48-3c2.6-.87,5.3-1.28,7.81-2.58A6.21,6.21,0,0,0,184,95c.34-2.14.86-4.57-.4-6.82a17.49,17.49,0,0,1-1.19-3.94c-.9-3.32-1.67-6.68-2.7-10a6.48,6.48,0,0,0-6.12-4.57c-4.35-.32-8.37.91-12.61,2.23,2.14,8.35,5,16.54,6.49,25.11H158.4c.39-2.17-1.87-3.86-.71-5.6l4.39-1.66c-.55-1.55-1-2.82-1.5-4.27l-4.48,1c-.77-2.49-1.54-5-2.28-7.33,2-1.59,4.18-1.49,6.79-1.41-.58-2.13-1-3.8-1.46-5.36a5.59,5.59,0,0,0-1.29,0c-3.41,1.15-6.78,2.39-10.42,2.71-.56,0-1,.89-1.84,1.63,2.11,1.16,1.07,3.3,1.94,5,.73,1.42.86,3.59,1.36,5.21s.5,3.5,1.43,5.16c.8,1.42.67,3.36.93,5l-1.68.36c.21.33.29.63.48.73a5.27,5.27,0,0,1,3.11,5.32c0,1.16.68,2.34,1.17,3.84l3.2-1.22a2.13,2.13,0,0,0,1.82,2.62l-.13.12.61.73.28-.28a4.71,4.71,0,0,0-.76-.57c.18-1.17.83-1,1.63-.51.32.21.66.37,1,.55,0,.44.16,1,0,1.3a7.68,7.68,0,0,1-1.37,1.38,21.43,21.43,0,0,0-8.8,1.62c-2.66,1-5.62,1.31-8.49,2l.14-.13-.62-.73-.28.28a4.77,4.77,0,0,0,.76.58,5.94,5.94,0,0,1-4.77.93,2.17,2.17,0,0,0-1.18.15,13.27,13.27,0,0,1-6.39,1.58c-.59,0-1.22.55-1.86.89l.13-.13-.62-.72-.28.28a5,5,0,0,0,.77.57c-.2.25-.45.81-.66.8a15.3,15.3,0,0,0-6.52,1.43c-1.59.6-3.33,1-4.78-.49a3.35,3.35,0,0,1-3.26,2.54c-2.58.13-4.31,1.81-6.64,2.59-.26-.15-1-.75-1.14-.65-1.6,1.51-4.55-.1-5.6,2.53H94.4c-3.54,2.94-7.78,3.63-12.36,4.06l-1-1,2.62-.5v-2.38l-.39-.07-.51,1.57h-3l-1.26-1.6,1.75-1.38c-.29-1.81-.64-3.6-.85-5.41s0-3.81-.49-5.56-.37-3.6-.22-6.41c2.09,6.3,2.92,11.92,5.24,17.08a7.55,7.55,0,0,1,4.38-1l-.14.13.62.72.28-.28a5.38,5.38,0,0,0-.76-.57c.22-3-2.27-5.4-1.87-8.44-1.51-2.06-.76-4.93-2.47-6.91a36.2,36.2,0,0,0-2.74-11.2c-.24-.61.34-1.54.55-2.34l-2.51-2.17c-2.21-.18-4.6,1.13-7,2.25,0,.49-.1.83,0,1.07,1.43,2.85.81,5.86.7,8.83,0,.11-.47.21-.72.31L71,103.52l-1.16,1.15-3.52-7.45-4.52.5c-.24-.51-.1-2-2-.9l.74,1.86-2.32,1.46c.6,1.86,1,3.59,1.7,5.2a26,26,0,0,1,1.73,6.8c.13.85-.2,1.9.19,2.57a27.67,27.67,0,0,1,3.38,11.44c1.59.86.23,3.65,1.93,3.91,1.85-.34,3.07-.57,4.33-.84l-.14.13.62.72.28-.28a5.38,5.38,0,0,0-.76-.57c-.16-3.28-1.63-6.32-2.17-9.57-.41-2.42-1.62-4.7-1.43-7.25,1.71.54.57,2.43,1.7,3.48s1.35,2.61,2,3.91l-1.06,1.13c4,.47,2.23,5.18,5.18,6.57h2.88v2l-1.46-1.18-.48,1.77c2.57-.82,2.84,1.83,4.53,2.55-3.35-.26-6.34,1-9.32,2a16.59,16.59,0,0,1-4.94.81,6.59,6.59,0,0,0-2.84.59c-4.57,2.14-9.84,2.25-14.34,4.71-2.34-.58-4.38,1.13-6.71.95l.13-.13-.62-.73-.28.28a4.85,4.85,0,0,0,.77.58c0,1.08-.8,1-1.45.64A7,7,0,0,0,38.68,141l.66,1.46a17,17,0,0,1-3.75,1.68A14.82,14.82,0,0,1,31.4,144c-1.4-.14-2.78-.39-5.08-.71l1.57,2c-1,1.64-3.11,1.39-4.24,2.75-3.1-1.1-1.47-3.82-3-6.32l-2.05-2c1.2-1.83,2-3.47.39-5.1.72-.12,1.87.45,1.74-1a1.07,1.07,0,0,0-.73-.74c-1.46-.12-.89,1-1,1.75-.29-.38-.83-.76-.85-1.15-.09-1.89,0-3.79,0-5.76l-1.73-.35.43-3.37-2-1.81a5.42,5.42,0,0,1-.25-1c.25-3.63-1.3-6.76-2.56-10-.65-1.69-2.18-3.55-.18-5.44l-1.09-1.21H19l-.75-1.55c1.43-.69,1.91-.07,1.61,1.3h3.54l0-.41-2.61-.52c-.46-1.62.92-1.26,1.42-1.76,1-1.06,1.74-.72,2.49.21a2.1,2.1,0,0,1,2.28-.86c.78.15,1.55.39,2.32.58a3.48,3.48,0,0,1,3.23-2.3,27.59,27.59,0,0,0,8.8-2.34c1.21-.58,2.83-.29,4.29-.91-.08,1.7,0,2.77,1.69,2a8.49,8.49,0,0,0-1.69-2c0,.37,0,.1,0,.1,3.62-.4,6.74-2.36,10.2-3.28A8,8,0,0,1,58.63,92a10.09,10.09,0,0,0,5.69-1.28,10.72,10.72,0,0,1,4.73-1.32c3.07,0,5.76-1.26,8.39-2.33,2-.83,4.21.4,6.19-1.2,1.34-1.08,3.5-1.15,5.3-1.67.83,1.48,1.29-.58,3.09.3.47-.16.29-.5.17-.48a7.83,7.83,0,0,0-1.25.38c.54.16,1.07.31,1.08.1-1-.76-.89-1.22-.76-1.24,1.28-.15,2.94.23,3.78-.44,1.48-1.19,2.23,1.45,3.54.15l.94-2,3,2.5-1,1.1,1.25.39c1.55-1.91,0-2.86-1.46-4.35,1.65.31,2.62-.65,4.15-.47,1.14.13,2.46-1.29,3.68.33L111.44,78a6.89,6.89,0,0,1,1-.22c1.41-.06,2.79.19,4.11-.83a7.12,7.12,0,0,1,3.14-.93c1-.15,2.08.23,2.75-.87.95,1.55,1.84-.18,2.8-.12a5.3,5.3,0,0,0,2.72-.83c4-2.26,8.8-2.18,12.91-4.16,2,1.22,2.85-2,5-1.31,1,.3,2.53-.8,4-.79a18.84,18.84,0,0,0,4.07-.82c1.35-.31,3-.22,4-1,2.21-1.93,4.76-1.6,7.12-1.64l1.75-1.76c2.62-.2,5.44.58,7.78-1.48.44-.39,1.38-.18,2.07-.33,1.07-.22,2.13-.51,3.62-.88a9,9,0,0,1,1.17,2.25c.51,2.35,1.24,4.68,1,7.17-.06.57.62,1.2.82,1.84.46,1.45.83,2.92,1.33,4.71l1,1c.45,3,.86,5.62,1.28,8.38l1.72,1.71c-.87,3.66,1.18,7.12,1.85,10.81l-4.46-.8c1.5,2,1.5,2,5.14,2.2v3.12c-1.73.66-4-.51-5.54,1.63-.49.68-2.44.31-4.15.46l-1.17-2-.66.44.78,2c-2.4,1.21-5.07,1.36-7.8,1.43a5,5,0,0,1,0-1.53c.15-.38.56-.65.86-1l-.51-.55-2.21,1.42A14.1,14.1,0,0,0,172.64,106.41ZM36.85,122.07l-.17.17.62.73.28-.28a2.64,2.64,0,0,0-.81-.53l-.89-.88-.29-.74c-.2.25-.4.49-.64-.32l-1.67,2.58c1.72.72,1.77-.34,1.72-1.52h.88A4.6,4.6,0,0,0,36.85,122.07Zm52.4-.89-.18.18.62.72.28-.28a1.42,1.42,0,0,0-.89-.43l.18-.17-.62-.73-.28.28A1.37,1.37,0,0,0,89.25,121.18ZM21.76,107l-.18.18.62.72.28-.28a2.18,2.18,0,0,0-1.49-.5l.76,0-.34-1.73-.57.07A1.65,1.65,0,0,0,21.76,107Zm6.13,33.84-.29-.73a8.22,8.22,0,0,1-.56.64l-1.28.26.67,1.75.49-.34c0-.53.08-1,.08-1.58h.89c.08,1.33,1.11.76,4,1.93-.65-.7-.83-1-1-1a8,8,0,0,0-1.24.38c.53.16,1.07.31,0-.41C29.59,140.37,28.57,141,27.89,140.81Zm75.32-27.48,2.58,1.67c.72-1.72-.35-1.77-1.53-.9,0-1.52,0-2.22,0-2.92,0-.19-.36-.35-.63-.6l-1,.27A3.52,3.52,0,0,1,103.21,113.33Zm-3.39-24,.29.73c.2-.24.4-.49.71-3.11-.62,1.83,1,3.34,1.28,5.09.39,2,.77,4.1,1.3,6.11.48,1.85,1.67,3.67,1.61,5.47-.07,2,1.66,3.86.3,5.85,2.92,2.34,2.34,6.12,3.87,9.31l11.94-3.23c-.18-1.62.74-3.52-1-4.67l-5.73,1.54c-2.26-8.58-4.54-17.2-6.74-25.54-2.41-.8-4.49.44-6.91,2.45-.3,0-.59,0-.89.82,0-1.52,0-2.23,0-2.93,0-.19-.36-.35-.63-.6l-1,.27A8.23,8.23,0,0,0,99.82,89.31Zm-38.18,32c-.15,0-.42,0-.43,0-1.18-3.81-1.66-7.81-3.07-11.57-.12-.31.49-.9.75-1.34-.56-.33-1.49-.55-1.63-1a8,8,0,0,0-5.63-5.64c-.63-.2-1.08-.93-1.64-1.38a1.6,1.6,0,0,0-.6-.13L48.77,102l-1.64-.93a34.35,34.35,0,0,0-4.76,2.7,32.35,32.35,0,0,0-3.61,4c.71,1.63.71,1.63.39,5.46H37.54l-4.44-6.13c-6.92,0-7.42-1.38-12.88,4.54a20.48,20.48,0,0,1-1,3.6c-.43.88.42,1.46.34,1.82-.39,1.8.56,3.11,1,4.65s0,3.66,1,5.35c.17.27-.07.79-.12,1.16l-2.61.49.36,1.64,3.23-.84,1.29,4.84,2.33,2.94c-1.05,0-1.15.9-.77,1.37.6.72,1.42.77,1.65-.48a17,17,0,0,1,5.31,2.78l.12,1.47H35l-.13-1.47a17.45,17.45,0,0,1-2.54-.12V139h4L38,137.36l3,2.14.17-1.95L39,136.63l2.3-2.64c-.39-3.33.9-6.92-1.35-10-2-.14-4-.1-5.69,1.2-.1,1,.16,2.4-.39,2.89-1.24,1.1.66,1.38.38,2.18l-.17-.18-.73.62.28.28a2.6,2.6,0,0,0,.53-.8c.25.1.66.14.72.31a2.38,2.38,0,0,1-1.28,3.21c-1,.54-2.23-.19-3-1.7a14.08,14.08,0,0,1-1.79-8l1.25-1c-4.2-2.13-3.91-5.74-3.91-9.22,2.61-2,3.09-2,4.43.69a4.92,4.92,0,0,1,.83,2.28c-.15,1.62,1,2.33,1.85,3.25a2,2,0,0,0,.59.29l1.75-1.75h3.15l-1-3.89h2.59a13.07,13.07,0,0,0,1.72,7.35,14.31,14.31,0,0,1,.92,3.6,11.79,11.79,0,0,0,5.31,8.2,7.46,7.46,0,0,1,1.47,1.78l.59-1.68c2.32,2.21,4.33-1.14,6.37-.1.75-.75,1.23-1.32,1.8-1.79a8.07,8.07,0,0,0,3.13-7.57c-.11-1,0-2.07-.2-3.66l1.82,1.68C63.6,120.18,62.79,120.25,61.64,121.28ZM115.11,84c.54,1.66,1.15,3.23,1.57,4.85,1.23,4.82,2.37,9.67,3.58,14.5a24.12,24.12,0,0,0,1,2.52c-1.4-.63-2.5-1.45-2.82.82l3.14,1.42c1.48,2.25.55,5.15,2.35,6.66,2.4-.55,4.41-1,6.42-1.46,1.5-.32,3-.49,4.51-.93,1.12-.33,1.81-2.48,1.41-3.78-.36-1.15-2.1-2.14-3.15-1.32-1.56,1.22-3.06.29-4.43.75l-2.36-8.77c1.77-.45,4,.53,4.59-1.77l-1.24-3.79-4.73,1c-.48-2.76-.9-5.23-1.35-7.9,2-.53,3.75-1,5.49-1.42s3.43-.74,5.12-1.1c2.14.65,1.08,2.7,1.45,4.1.78,2.93,1.88,5.76,2.49,8.77.75,3.64,2.1,7.16,2.61,10.89a1.89,1.89,0,0,0,2.17,1.67c.83-.09,1.72.3,2.44-.6.42-.52,1.33,1.18,1.83-.14a11,11,0,0,0,.59-2.41,2.79,2.79,0,0,0-.32-1.18c-1.33-3.63-1.47-7.55-3.11-11.14-1.12-2.47-1-5.5-2-8a9.31,9.31,0,0,1-.7-3.25c0-.23.24-.48.18-.37L145,81.35v-4.3c-3.9-.93-7.4,2.06-11.24,1l-.51,1.46c-1.47.2-3.08-.4-4,1.23a1,1,0,0,1-.91.21,5.56,5.56,0,0,0-3.79.56c-1.42.58-2.77.46-4.12.78A25.74,25.74,0,0,0,116.68,84,4.86,4.86,0,0,1,115.11,84ZM94.64,109c2.59-1.74,5.94-2.45,6.86-6.55-.4-1.4.58-3.46-.66-5.68-1.55-2.77-2.21-5.13-3.33-5.64-1.82-.81-4-.92-5.24-2.6-.5.68-.86,1.2-1.26,1.68-1.31,1.6-3.69.12-5,1.73-1.7-1.84-1.93.13-2.1,1a20.92,20.92,0,0,0-.06,4,5.62,5.62,0,0,1,1.76,5c-.11,1.09,1.29,2,.25,3.16A6,6,0,0,1,87.54,108c.28,1.2.23,2.8.84,3.58,1.49,1.86-.1,4.27,1.57,5.89l-1.67.61,2.83,1.86v4c4.16-2.67,8.74-1.42,13.45-2-1.12-.64-2.4-1.56-2.54-1.41-1.29,1.35-2.28-.34-3.37-.37-1.69-.06-1.47-2.07-1.54-3.54a9.66,9.66,0,0,0-.83-2.3C95.74,112.66,95.24,111,94.64,109ZM56.24,97.26l-3.72.25,1.55,1.55.9-.86,1.27,1.18ZM28.11,118.83c-.09,1.68.67,2.4,2.26,2.46C31.06,118.68,28.54,119.93,28.11,118.83ZM184.93,104v-3.2l-2.06.36ZM42.57,100.66A5.17,5.17,0,0,0,41,100c-.23,0-.7.7-.64.79a2.47,2.47,0,0,0,1.07.88C41.59,101.75,42,101.24,42.57,100.66Zm-24.7,18.42c-.75-1.88-.75-1.88-2.69-2Zm94-29.91c-.7-.39-1.15-.8-1.31-.71a4.3,4.3,0,0,0-.93,1.05c.29.23.64.69.86.64C110.86,90.05,111.2,89.64,111.83,89.17ZM149.13,106c.33,1.16.78,2.68,2.38,1.37Zm-1.37-2.15c.79.64,1.09,2,2.69,1C149.67,104.27,149.36,102.94,147.76,103.89ZM50.23,96.83c-.47.63-.87,1-1,1.38,0,.22.41.57.64.87a4.51,4.51,0,0,0,1-.93C51,98,50.62,97.54,50.23,96.83Zm-14.35,6.91v.44h3.56v-.44ZM107.23,122c1.52.4,1.74-.24,1.33-1.28Zm16.33-45.13.59,1.84C124.69,77.43,124.8,76.52,123.56,76.91ZM86.25,130,85.15,128C84.49,129.76,84.65,130.43,86.25,130ZM58.86,96.77l-2.1,1C58.62,98.44,59.25,98.21,58.86,96.77ZM44.76,98v-.45H42.1V98ZM71,99l-1-2.11C69.37,98.73,69.61,99.35,71,99Zm-16,.89c-.5,1.6-.28,2.35.66,1.84ZM23,143.51c-.1.1-.28.2-.28.3,0,.39-.12.9.08,1.13s.74.22,1.13.31a8.22,8.22,0,0,0-.34-1.2C23.46,143.83,23.18,143.69,23,143.51Zm12-43.32v.44h1.77v-.44ZM98.05,118v.44h1.77V118Zm8.88-35.08v-.44h-1.78v.44ZM71.26,102.48l-.09-.77-1.45.34.07.43Zm90.56-19.54,0-.76-1.5.32.06.44Zm-132,20.73.05.76,1.48-.33-.05-.43ZM73,131.78l-.1-.77-1.44.35.07.42Zm-41.37-1.62h.44v-1.78h-.44Zm56.44-1.93,0-.76-1.49.32.06.44ZM113.89,122l-.1-.76-1.44.34.07.42Zm1.76-15.67-.76,0,.33,1.49.43-.06Zm48.11-13.7v-.45H162v.45Zm-63.27-1.56H100v1.78h.45Zm-4.06-7,0,.76L98,84.57l0-.44ZM119.52,77l0,.76,1.49-.33L121,77Zm-31.46,38h-.45v1.78h.45Zm14.3-5.9-.32-.32a3,3,0,0,0-.28.6c0,.07.18.19.28.29Zm13.32.26-.32-.58c-.1.1-.29.22-.28.3a3.15,3.15,0,0,0,.28.59Zm36.66-1.78.32.32a3,3,0,0,0,.28-.6c0-.07-.18-.19-.28-.29ZM17.11,110.3l-.32-.57c-.1.1-.29.22-.28.29a3,3,0,0,0,.28.6ZM113,79l-.31-.32a3,3,0,0,0-.28.6c0,.07.18.19.28.29Zm-12.17,28.67.31.32a3,3,0,0,0,.28-.6c0-.07-.18-.19-.28-.29ZM88.28,89.75c-.1-.1-.22-.29-.29-.28a3,3,0,0,0-.6.28c.1.1.22.3.29.28A3,3,0,0,0,88.28,89.75Zm61.4,21.44.31.32a2.5,2.5,0,0,0,.28-.6c0-.07-.18-.19-.28-.29Zm-135.42.45-.58.31c.1.1.22.3.3.28a3.15,3.15,0,0,0,.59-.28Zm122.54,1.52.32-.32a3,3,0,0,0-.6-.28c-.07,0-.19.18-.29.28Zm7.29-.19-.31-.57c-.1.09-.3.21-.28.29a2.66,2.66,0,0,0,.28.59ZM28.91,115.63l.31.32a2.5,2.5,0,0,0,.28-.6c0-.07-.18-.19-.28-.29Zm88.67-33.87c-.1-.1-.22-.29-.29-.28a3,3,0,0,0-.6.28c.1.1.22.29.3.28A3.15,3.15,0,0,0,117.58,81.76Zm15.1,34.63c-.1-.1-.22-.29-.29-.28a3,3,0,0,0-.6.28c.1.1.22.3.29.28A3,3,0,0,0,132.68,116.39ZM95.07,86.77l-.58.32c.1.1.22.29.3.28a3.15,3.15,0,0,0,.59-.28ZM29.54,117.15l-.32-.31a2.62,2.62,0,0,0-.27.59c0,.08.18.2.27.29Zm54.17-16.87-.32-.32a2.46,2.46,0,0,0-.27.6c0,.07.17.19.27.29ZM105.91,118l-.32-.32a2.46,2.46,0,0,0-.27.6c0,.07.17.19.27.29Zm13.32,0-.32-.32a2.91,2.91,0,0,0-.27.6c0,.07.18.19.27.29ZM85.3,87.4l.31-.31a2.66,2.66,0,0,0-.59-.28c-.08,0-.2.18-.29.28ZM38.23,121.15l.32-.32a3,3,0,0,0-.6-.28c-.07,0-.19.18-.29.28ZM106.8,84.3l-.32-.32a3,3,0,0,0-.28.6c0,.07.18.19.28.29ZM156.21,68c-.1.09-.29.21-.28.29a2.66,2.66,0,0,0,.28.59c.1-.1.29-.22.28-.29A2.66,2.66,0,0,0,156.21,68ZM100.27,84c-.1.1-.3.22-.28.29a2.5,2.5,0,0,0,.28.6c.09-.1.29-.22.27-.29A2.91,2.91,0,0,0,100.27,84Zm-68.38,37.3c-.1.09-.3.21-.28.29a2.66,2.66,0,0,0,.28.59c.1-.09.29-.21.28-.29A2.66,2.66,0,0,0,31.89,121.28Zm40.4-29.75c-.1-.1-.22-.3-.29-.28a3,3,0,0,0-.6.28c.1.1.22.29.3.28A2.66,2.66,0,0,0,72.29,91.53Zm30.32,15.22.32.32a3,3,0,0,0,.28-.6c0-.07-.18-.19-.28-.29ZM121,79l-.32-.32a3,3,0,0,0-.28.6c0,.07.18.19.28.29ZM62.84,123.18l-.32.32a2.91,2.91,0,0,0,.6.27c.07,0,.19-.18.29-.27ZM171.43,66.35l-.57.31c.1.1.22.3.29.28a3,3,0,0,0,.6-.28ZM99.69,125.4l-.31-.57c-.1.1-.3.22-.28.29a3,3,0,0,0,.28.6Zm76.63-20.68.31.57c.1-.1.3-.22.28-.29a2.5,2.5,0,0,0-.28-.6ZM161.67,93.88l-.58.31c.1.1.22.3.3.28a2.66,2.66,0,0,0,.59-.28ZM73.94,128.7l-.32-.32a2.91,2.91,0,0,0-.27.6c0,.07.18.19.27.29Zm73.71-31.08-.32-.32a3,3,0,0,0-.28.6c0,.07.18.19.28.29ZM122.59,78.78l-.57.32c.1.09.22.29.29.27a2.91,2.91,0,0,0,.6-.27ZM42,136.06l-.31-.58c-.1.1-.3.22-.28.3a2.66,2.66,0,0,0,.28.59ZM23.9,140.81c-.1.1-.3.22-.28.29a2.5,2.5,0,0,0,.28.6c.09-.1.29-.22.27-.29A2.91,2.91,0,0,0,23.9,140.81Zm1.77-37.29c-.1.09-.29.21-.28.29a2.66,2.66,0,0,0,.28.59c.1-.09.3-.22.28-.29A2.66,2.66,0,0,0,25.67,103.52Zm155.4-38.19c-.09.1-.29.22-.27.29a2.91,2.91,0,0,0,.27.6c.1-.1.3-.22.28-.29A2.5,2.5,0,0,0,181.07,65.33ZM33.35,102.94l.31.58c.1-.1.3-.22.28-.3a2.44,2.44,0,0,0-.28-.59Zm75-20.61-.58.32c.1.1.22.29.3.28a3.15,3.15,0,0,0,.59-.28Zm26.82,19.09-.31-.57c-.1.1-.3.22-.28.29a3,3,0,0,0,.28.6Zm-98.75,41,.31-.32a2.84,2.84,0,0,0-.59-.27c-.08,0-.2.18-.3.27Zm-3.37-42.18-.31-.32a3,3,0,0,0-.28.6c0,.07.18.19.28.29Z"/><path class="cls-1" d="M30.93,146.28l-2.15-.61a7.12,7.12,0,0,1,1.24-.39C30.15,145.26,30.33,145.6,30.93,146.28Z"/><path class="cls-1" d="M28.78,145.25h-.89l.6-.73Z"/><path class="cls-1" d="M53.25,117.71c.49,2,.7,4.14,1.58,6,.73,1.48,1,2.64,0,3.93s-2.33.7-3.48.69c-1.87-2.9-2.42-6.12-3.22-9.19L51,117.66l1.63,1.63.14-1.56Zm-2.94,6.23h.45v-1.78h-.45Z"/><path class="cls-1" d="M52.28,117.74l-1-2.07L48.2,117.9c-1.75-1.47-.2-2.59.2-4.07a6.51,6.51,0,0,1-2.57-2.58c-.95-1.59.82-2.55.82-4H50A19.32,19.32,0,0,1,52.28,117.74Zm-2.92-5.48.76-.1-.34-1.45-.42.07Z"/><path class="cls-1" d="M28.7,124l-.73-.62.28-.28.62.73Z"/><path class="cls-1" d="M27,138.15l-.88-.89Z"/><path class="cls-1" d="M176.21,87.79c.71,7,0,7.91-.51,8.74-.6-.21-1-.26-1.08-.39-1.34-6.34-4-12.35-4.72-18.85-.05-.45-.65-.84-1.16-1.47l1.45-1.76c3.8.88,2.62,4.27,4.22,5.93.65,4.72,2.67,9.09,1.8,7.8-1.76-5.56-1.82-5.62-1.88-5.68l-.72.62.28.28C174.1,82.77,174.3,82.53,176.21,87.79Zm-1.35-.26c-.1.1-.3.22-.28.29a3,3,0,0,0,.28.6c.1-.1.29-.22.28-.29A3,3,0,0,0,174.86,87.53Zm1,7,.32-.32a3,3,0,0,0-.6-.28c-.07,0-.19.18-.29.28Z"/><path class="cls-1" d="M162,98.36l2.59-.12.05.59-2.61.35Z"/><path class="cls-1" d="M166.75,101.92c-.47-1.34-.54-2.14,1.68-1.82Z"/><path class="cls-1" d="M162,99.77l-1.7.14-.08-.57L162,99Z"/><path class="cls-1" d="M72.28,106.14c.89,2.3,2.27,4.46,1.36,8.06L72,108.46l-2-2.11Z"/><path class="cls-1" d="M67.16,112.42l-.14-1.7.57-.08.34,1.74Z"/><path class="cls-1" d="M93.85,103.69c-1.35-2.63-2.44-5.13-.74-8.27.63,1.47,1,3,1.59,4C95.76,101.33,95.43,102.32,93.85,103.69Z"/></g></svg>