<svg id="Layer_1" data-name="Layer 1" xmlns="http://www.w3.org/2000/svg" viewBox="0 0 200 200"><g id="OBW51e"><path d="M137.27,207c.16-.87.28-1.74.47-2.6.32-1.44.74-2.85,1-4.3a40.35,40.35,0,0,0,.75-5.11c.24-4,.45-8.07.45-12.11,0-2.59-.38-5.19-.61-7.79-.17-1.88-.27-3.78-.56-5.64-.92-5.87-1.86-11.73-2.91-17.57-.64-3.56-1.42-7.1-2.28-10.61a29.52,29.52,0,0,0-1.67-4.35,83.25,83.25,0,0,1-3.52-8.22c-.82-2.72-.94-5.64-1.52-8.44a13.68,13.68,0,0,0-2.84-6c-1.21-1.44-2.66-2.68-4-4-1.09-1.06-2.26-2-3.26-3.17-1.75-2-3.38-4.1-5.12-6.1-.59-.69-1.42-1.18-2.06-1.84A12.66,12.66,0,0,1,107.75,97a13.52,13.52,0,0,0-4-4c-1.6-1.16-3.22-2.3-4.75-3.55-1.11-.9-2-2-3.12-3a30.41,30.41,0,0,0-8.74-5.22,2.66,2.66,0,0,0-1.23-.06c-1.67.16-3.33.45-5,.53s-2.25-.93-1.58-2.48c.43-1,.77-2,1.22-3a4.28,4.28,0,0,1,1-1.54,2.49,2.49,0,0,0,.89-2.23c0-.84-.09-1.69,0-2.52a1.54,1.54,0,0,0-.72-1.5,14.78,14.78,0,0,1-2.51-1.9,11.78,11.78,0,0,1-2-3c-.45-1,.1-1.58,1.19-1.67a4.79,4.79,0,0,1,3.91,1.4,2.56,2.56,0,0,0,1.15.73,34.59,34.59,0,0,0,4.84.6,5.63,5.63,0,0,1,3.93,1.47,6.41,6.41,0,0,0,4.1,2c2.53.18,4.77,1.32,7.16,2,2.54.71,5.17,1.14,7.76,1.68,1.07.22,2.15.4,3.23.56a13,13,0,0,0,1.76.17c1.25,0,1.56-.32,1.37-1.59-.11-.7-.37-1.38-.55-2.07-.55-2.08-1.12-4.14-1.63-6.22-.86-3.48-1.79-7-2.49-10.46-.85-4.25-1.47-8.55-2.23-12.82-.65-3.65.31-7.21.58-10.81a5.39,5.39,0,0,1,.92-2.46,43.36,43.36,0,0,0,3.2-6.3,16,16,0,0,1,7.34-7.6C126.94,10,131.35,8,135.51,5.64c4-2.29,8.27-2.82,12.67-2.79A31.22,31.22,0,0,1,157.7,4.7c1.6.53,3.28.82,4.86,1.38,1.3.46,2.5,1.19,3.77,1.76a29,29,0,0,0,3.61,1.5,11.65,11.65,0,0,1,6.16,4.6c.32.45.64.9,1,1.31a13.38,13.38,0,0,1,3,7.24c.59,4.76,1.36,9.5,1.92,14.27.39,3.38.56,6.79.82,10.19.19,2.44.32,4.88.56,7.31a33.59,33.59,0,0,1-.78,11,2.78,2.78,0,0,0,.14,1.92c.69,1.63,1.23,3.32,1.78,5A7.39,7.39,0,0,0,189.22,77c3.61,1.41,7.2,2.87,10.79,4.33.22.09.34.39.51.59-.26,0-.56.19-.78.11-1.27-.45-2.52-1-3.77-1.45l-7.52-3a7.85,7.85,0,0,1-4.74-5.25c-.29-1-.62-1.87-1-3.07a20,20,0,0,0-.94,2.15,1.89,1.89,0,0,0,0,1.2c.55,1.28,1.19,2.51,1.77,3.76a10.67,10.67,0,0,1,.58,1.51c0,.15-.15.51-.23.51a.89.89,0,0,1-.62-.25c-.22-.3-.32-.69-.53-1-.09-.15-.31-.23-.47-.34-.08.18-.25.36-.23.52.09.79.24,1.58.35,2.36.27,1.83.57,3.66.76,5.5a4.6,4.6,0,0,1-.32,1.85.93.93,0,0,1-.79.47c-.43-.13-.38-.49-.18-.92a3.78,3.78,0,0,0,.48-1.87,53.14,53.14,0,0,0-1-5.59c-.24-1-.82-2-.26-3.16a.36.36,0,0,0,0-.25c-.13-.39-.27-.78-.41-1.17a6.37,6.37,0,0,0-.77.89,2.33,2.33,0,0,0-.12,2.06c.41,1.15,1.27,2.19.85,3.56-.08.28.31.68.39,1.05a5.15,5.15,0,0,1,0,1.11c-.22-.26-.54-.48-.66-.78-.37-.85-.64-1.74-1-2.6a4.05,4.05,0,0,0-.45-.71,3,3,0,0,0-.55.74c-.92,2.42-.28,4.36,1.92,6,.14.11.31.44.27.48s-.45.4-.59.34a2.51,2.51,0,0,1-1-.68c-.45-.55-.78-1.2-1.2-1.78-.12-.17-.38-.24-.57-.36a1.79,1.79,0,0,0-.25.66,3.33,3.33,0,0,0,.28,1c.28.66.6,1.3.89,2,.16.36.5.83-.11,1-.14,0-.53-.5-.7-.82-.28-.55-.48-1.14-.76-1.79a2.81,2.81,0,0,0-.25,3.26c.71.95,0,1.58-.23,2.27-.16.42-.59.25-.68-.18-.16-.72-.25-1.45-.36-2.18h-.32a17.5,17.5,0,0,0-.24,1.77c0,1-.05,2.11,0,3.16a3.55,3.55,0,0,1-.88,2.56c-.53.64-1.23,1.17-1.28,2.12,0,.14-.36.27-.55.4-.09-.19-.26-.39-.25-.58.05-.91.17-1.83.22-2.74a5.29,5.29,0,0,0-.1-1.38,3,3,0,0,0-.48-.8c-.27.28-.72.53-.78.84-.15.87-.06,1.77-.22,2.64a8.06,8.06,0,0,1-.7,2,1.08,1.08,0,0,1-.74.57c-.9.08-.84.48-.48,1.09a21.46,21.46,0,0,1,1.14,2.11c.09.18-.09.49-.14.73-.2-.11-.39-.23-.58-.35,0,0,0-.08-.06-.11l-.74-.87c-.26.41-.52.81-.77,1.23,0,.06,0,.17,0,.24s-.22.41-.34.61a3.38,3.38,0,0,1-.39-.69c-.1-.36-.05-.76-.17-1.11-.18-.5-.58-.67-1-.24a20.69,20.69,0,0,0-1.68,2,.92.92,0,0,0,.12,1.36c.48.38.93.91,1.67.51a2.72,2.72,0,0,1,.76-.18c-.12.28-.17.64-.38.82a1.42,1.42,0,0,1-2,0c-1-.74-1-.7-1.7.35a3.37,3.37,0,0,1-.5.73,5.3,5.3,0,0,1-.8.48,3.35,3.35,0,0,0-.13-.78c-.08-.18-.33-.46-.46-.44-1.14.2-1.47,1-.72,1.91s1.27,1.63,2.51,1.36c.13,0,.36.13.46.27a.51.51,0,0,1-.19.4,2.28,2.28,0,0,1-1.17.1,11.11,11.11,0,0,1-1.5-.91,6.56,6.56,0,0,0-1.24-.56.61.61,0,0,0-.88.59,3.08,3.08,0,0,1-.19.85c-.05.13-.31.29-.37.26a.78.78,0,0,1-.34-.44,3.34,3.34,0,0,1,0-.62,1.29,1.29,0,0,0-2-1.11.7.7,0,0,0-.25.39c-.15.5-.27,1-.4,1.51s-.41.61-.74.16a4.51,4.51,0,0,1-.81-1.26c-.27-.83-.65-.78-1.16-.27s-.77.82-1-.13a.78.78,0,0,0-.58,0,1.13,1.13,0,0,0-.24,1.49,9.66,9.66,0,0,1,.56,1c.07.15,0,.37-.05.56-.18,0-.44,0-.54-.17-.46-.54-.84-1.25-1.65-.44-.12-.2-.39-.45-.34-.6a1.21,1.21,0,0,0-.55-1.48c-.42-.35-.55-1-.87-1.51a3.44,3.44,0,0,0-.74-.61c-.13.23-.26.47-.4.69s-.19.33-.29.33a.44.44,0,0,1-.35-.27c-.35-1.42-1.46-1.95-2.66-2.46a9.78,9.78,0,0,1-1.73-1.26,1.88,1.88,0,0,0-.55-.19c-.05.18-.2.4-.15.56.19.69.45,1.35.65,2a2.09,2.09,0,0,1,0,.7c-.22-.13-.59-.21-.65-.4a18.23,18.23,0,0,1-.77-2.9,1.92,1.92,0,0,0-1.43-1.81c.3.62.5,1,.67,1.42a1.21,1.21,0,0,1,0,.46c-.19,0-.44,0-.54-.11a3.11,3.11,0,0,1-.56-.83,32.77,32.77,0,0,0-1.6-3.51c-1-1.57-2.1-3-3.2-4.53-.45-.6-.77-.32-.94.27-.08.29-.08.65-.26.83a2.89,2.89,0,0,1-.88.43c-.1-.29-.34-.62-.27-.86a9.89,9.89,0,0,1,.69-1.48,1.49,1.49,0,0,0-.16-1.66c-.51-.72-1-1.49-1.44-2.22s-.77-.78-1.08.09c-.07.19-.34.3-.52.45-.05-.22-.12-.44-.16-.67a.44.44,0,0,1,.07-.24c1-1.83,0-3.25-1-4.61s-2-2.37-2.94-3.6c-.53-.7-.79-1.61-1.35-2.26a15.58,15.58,0,0,1-3.07-5.56,1.46,1.46,0,0,0-1.52-1.09c-3.74,0-7.3-1.19-11-1.78a42.39,42.39,0,0,1-5-1.47,29.61,29.61,0,0,0-3.78-1,9.21,9.21,0,0,1-5.36-2.22,4.2,4.2,0,0,0-4.29-1.24,1.3,1.3,0,0,1-.62,0c-.89-.16-1.79-.33-2.67-.54A6,6,0,0,1,81.37,64a5,5,0,0,0-2.24-1c-.9-.18-1.15.28-.72,1.09a7.79,7.79,0,0,0,3.19,3.17C83,68,83.71,69,83.3,70.6a3.34,3.34,0,0,0,0,1.26,3.67,3.67,0,0,1-1.19,3.76,3.43,3.43,0,0,0-.7,1.31c-.41.91-.75,1.85-1.19,2.75S80,81,80.91,80.91c1.55-.11,3.08-.42,4.63-.58a4.21,4.21,0,0,1,1.94,0c3.51,1.48,6.94,3.18,9.64,5.91s6,4.85,9,7.32a18.34,18.34,0,0,1,2.67,3.45c.25.34.38.82.7,1,2.24,1.46,3.77,3.6,5.43,5.6a47.33,47.33,0,0,0,7,7.06,17.61,17.61,0,0,1,4.65,6.22c1.1,2.2,1.14,4.53,1.59,6.82a51.22,51.22,0,0,0,1.17,5.69,47.43,47.43,0,0,0,2.32,5,34.11,34.11,0,0,1,3.06,8.27c.42,2.44,1.24,4.81,1.67,7.25.73,4.15,1.26,8.33,1.93,12.48.37,2.33,1,4.62,1.27,6.95.38,3,.57,6,.81,9.05a42.58,42.58,0,0,1,.29,4.78c-.16,4.71-.38,9.42-.71,14.12a36.6,36.6,0,0,1-1,4.67c-.25,1.24-.46,2.48-.7,3.72-.08.41-.18.81-.28,1.22ZM182.75,56c-.17-2.34-.44-6.2-.77-10.06-.36-4.19-.78-8.38-1.21-12.57-.28-2.81-.59-5.61-1-8.4-.49-3.68-1.46-7.16-4-10.08-1.43-1.68-2.76-3.41-4.85-4.32-2.39-1.05-4.75-2.18-7.18-3.12-2-.78-4.15-1.37-6.25-2-4.26-1.24-8.54-2.36-13-1.69-2.59.38-5.18.67-7.56,1.91-4.36,2.29-8.76,4.5-13.13,6.79a17.71,17.71,0,0,0-8.33,8.82c-.74,1.69-1.73,3.26-2.53,4.92a15.43,15.43,0,0,0-1,2.82c-.23.94-.21,1.93-.36,2.88a32.1,32.1,0,0,0,.34,11.44c.77,3.8,1.45,7.63,2.45,11.37,1.28,4.79,1.65,9.82,3.67,14.42a3.1,3.1,0,0,1,.13.62c.34,1.75.57,3.54,1.06,5.25.58,2.06.77,2,2.22.6a1.69,1.69,0,0,1,.4-.21c.06.15.18.31.16.45s-.22.55-.25.84a14.51,14.51,0,0,0-.1,2.46c0,.32.52.6.79.9,0-.38.09-.75.12-1.13,0-.12-.1-.26-.08-.37a2.54,2.54,0,0,1,.2-.52c.14.07.33.11.4.23.22.4.38.62.82.15s.68-.18.61.35A18.62,18.62,0,0,1,124.1,81a2.43,2.43,0,0,0,.41,2.26,11,11,0,0,1,2,2.65c.34.87,1.27.81,1.78,0,.06-.1,0-.27.08-.37s.22-.31.31-.3a.51.51,0,0,1,.34.3,4.15,4.15,0,0,1,.12,1c0,1.09,0,2.19,0,3.29a4.51,4.51,0,0,0,1.08,2.77c.35.48.72.58,1.09,0,1-1.52,1.93-3,2.92-4.55a3.67,3.67,0,0,1,.57-.54,2,2,0,0,1,.13.78c-.13.53-.32,1,.5,1.09.56.09.47.5.23.87s-.49.68-.72,1-.56.81-.13,1.36c.16.2,0,.64,0,1-.19,1-.5,1.88-.62,2.83a5.31,5.31,0,0,0,.26,1.8c.05.18.38.28.58.42a3.18,3.18,0,0,0,.26-.64c.18-1.67.35-3.34.53-5a1.1,1.1,0,0,1,.08-.49.57.57,0,0,1,.37-.24s.19.15.21.25a2.69,2.69,0,0,1,.06.75c-.12,1.34-.28,2.68-.37,4a6,6,0,0,0,1.2,4.39c.11.14.35.16.54.23a2,2,0,0,0,.13-.46c0-.47-.1-.93-.09-1.39,0-.16.19-.31.3-.46.11.11.3.2.33.33.11.62.13,1.25.27,1.87a3.59,3.59,0,0,0,.55,1.6,12.6,12.6,0,0,0,2.13,1.77,2.88,2.88,0,0,0,.91.31,9.28,9.28,0,0,0-.15-.92c-.08-.28-.28-.53-.33-.81a1.82,1.82,0,0,1,.16-.66c.18.13.44.23.54.41.36.67.6,1.41,1,2a4.78,4.78,0,0,0,1.24,1.17c.13.09.67-.07.7-.2.22-.84.64-.76,1.16-.32a5.63,5.63,0,0,1,1.09,1.09c.7,1,.92,1.13,1.92.36.33-.26.61-.38.68.17.09.76.48.65.79.25a3.83,3.83,0,0,0,.69-1.42c.13-.58-.13-1.45,1-.8.09.05.3-.12.45-.18l.74-.28c0,.27,0,.55-.09.82-.15.86.21,1.62.83,1.73,1,.19,1.52-.21,1.69-1.25a6.91,6.91,0,0,0,0-1.2c0-.22,0-.45,0-.67a2.39,2.39,0,0,1,.66.26,1.55,1.55,0,0,1,.46.59c.66,1.73,1.16,1.31,2.48.5a3.12,3.12,0,0,0,1.13-1c.73-1.21,1.43-2.46,2-3.74a2.49,2.49,0,0,1,2.05-1.57c.66,0,.78-.47.63-1s-.47-1-.65-1.5a6,6,0,0,1-.17-1.06c.25.22.53.42.77.65a3.52,3.52,0,0,1,.27.43c.28.43.55.48.84,0,.73-1.19,1.51-2.34,2.19-3.55.25-.45.37-.88,1-1s.75-.61.58-1.18a3.42,3.42,0,0,1-.25-.85c0-.55,0-1.1.07-1.64.21.41.42.83.65,1.24.12.2.3.56.42.55a1.05,1.05,0,0,0,.67-.42c.45-.66.82-1.37,1.26-2a1.75,1.75,0,0,0,.3-1.78c-.22-.52-.13-.88.53-.58.5.24.62-.05.68-.4a13.14,13.14,0,0,0,.19-2c0-.94,0-1,1-.93a.53.53,0,0,0,.4-.29,2.31,2.31,0,0,0-.07-1c-.18-.53-.78-1.15.48-1,.15,0,.42-.48.49-.77a23.81,23.81,0,0,1,.52-2.54,25.15,25.15,0,0,0,1.19-2.38,20.36,20.36,0,0,0,.28-3.51c0-.5,0-1,0-1.51s.19-.57.55-.24c.73.64.86,0,1-.49.15-.7.19-1.42.34-2.12A40.15,40.15,0,0,0,182.75,56Zm-9,36.48h0c0-.55,0-1.1,0-1.64,0-.08-.41-.25-.48-.19a3.16,3.16,0,0,0-.4,3.62.67.67,0,0,0,.5.27.62.62,0,0,0,.38-.42C173.74,93.58,173.71,93,173.71,92.48Zm-39.61,1-.18-.47-.44.38c-.34.27-.27,1.12-1,.78s-.61.16-.47.5a5,5,0,0,0,.68,1c.35.46.69.5.87-.12S133.91,94.26,134.1,93.51Z"/><path d="M142.71,79.75c.27-.54.5-1.11.81-1.63a3.3,3.3,0,0,1,.61-.63,2.35,2.35,0,0,1,.09.93,14.27,14.27,0,0,1-.94,2.2c-.35.64-.14.77.46.88,1.74.31,3.44.73,5.24.22a3.17,3.17,0,0,1,3.22,1c1.16,1.15,2.48,2.14,3.75,3.17A3.32,3.32,0,0,1,157.28,89c-.45,4.22-3,7-6.29,9.21a6,6,0,0,1-4.38.76c-.62-.1-1.24-.29-1.87-.33a3.9,3.9,0,0,1-3.58-3.1c-.55-2.06-1.56-3.9-2.21-5.89a6.48,6.48,0,0,1,1.45-7.11c.74-.73.73-1.66,1-2.5.26-.66.29-1.4.49-2.09.05-.18.33-.3.5-.45.14.19.39.4.38.58a11.81,11.81,0,0,1-.35,1.54Zm13.51,10.71-.28-.53a2.85,2.85,0,0,0-.49.34l-4.18,4.35a2.81,2.81,0,0,1-2.17.82,38.66,38.66,0,0,0-4,.1c-1,.09-1.92.19-2.61-.77-.1-.15-.42-.15-.63-.21a2,2,0,0,0,0,.6,4.27,4.27,0,0,0,2.92,2.68,14.29,14.29,0,0,1,1.48.26,5.81,5.81,0,0,0,4.48-.69c2.38-1.25,3.73-3.46,5.11-5.62A4.81,4.81,0,0,0,156.22,90.46Z"/><path d="M152.69,67.36a5,5,0,0,1-1.15,4,1.92,1.92,0,0,1-1.11.71,18.82,18.82,0,0,1-3.76-.23,3.78,3.78,0,0,0-3.08.63,5.26,5.26,0,0,1-1.82.82,2.53,2.53,0,0,1-2.8-1c-.95-1.27-2-2.52-1.6-4.22a9.19,9.19,0,0,1,1.11-2.76,8,8,0,0,0,1.13-5.92c-.27-1.49-.34-3-.53-4.5a31.34,31.34,0,0,0-.61-3.74,3.11,3.11,0,0,0-2.24-2.5c-.9-.22-1.81-.4-2.71-.61a5.24,5.24,0,0,1-1.33-.38c-.27-.15-.4-.53-.59-.81a4.3,4.3,0,0,1,.88,0c.57.11,1.14.25,1.7.41,1.08.33,2.17.67,3.24,1,.47.17.8.29.76-.45a4.84,4.84,0,0,1,.26-1.22,4.42,4.42,0,0,1,.53,1.18c.52,4.51,1.05,9,1.47,13.53A6.66,6.66,0,0,1,139.08,66c-2,2.68-.82,4.34,1.18,6.26.81.77,1.85.19,2.55-.34a5,5,0,0,1,4.54-.76,7.5,7.5,0,0,0,2.5.15,2.13,2.13,0,0,0,1.29-.84c1.18-1.66,1.44-5.39-1.18-7a4.56,4.56,0,0,1-1.82-2.5c-.72-1.93-1.44-3.87-2.12-5.81a6.27,6.27,0,0,1-.3-1.61c-.15-1.88-.27-3.77-.4-5.65a3.24,3.24,0,0,1,0-.76,5.89,5.89,0,0,1,.27-.77,3.57,3.57,0,0,1,.45.74,20.94,20.94,0,0,1,.54,6.26,4.51,4.51,0,0,0,.21,1.37c.49,1.48,1,2.94,1.55,4.41a8.23,8.23,0,0,0,2.84,4.21A4,4,0,0,1,152.69,67.36Z"/><path d="M129.56,56.22c-1.07-.22-2.57-.43-4-.83-1.6-.46-1.8-2-1.89-3.28s1-2,2-2.39a20.91,20.91,0,0,1,2.68-.61c2.55-.63,4.81.4,7.08,1.26a5.94,5.94,0,0,1,1.67,1.11c.64.56.39,1.7-.4,2.57A7,7,0,0,1,133,55.83,24.25,24.25,0,0,1,129.56,56.22Zm7.09-3.65c-.24-.28-.38-.56-.61-.68-.92-.48-1.85-.93-2.8-1.34-.48-.21-.64.12-.49.51a4.67,4.67,0,0,1-.07,3.43c-.14.39,0,.62.41.43,1-.47,2-1,3-1.53C136.31,53.25,136.43,52.89,136.65,52.57Zm-9.93-1.12.29-.06c-.14-.33-.2-.75-.45-.94s-.59.15-.87.28c-1.21.55-1,1.53-.8,2.55a1.9,1.9,0,0,0,1.58,1.56.73.73,0,0,0,.47-.48C126.9,53.39,126.8,52.42,126.72,51.45Z"/><path d="M152.85,50.94a3.82,3.82,0,0,1-2.51-2.18c0-.16,0-.4.06-.48,1.06-.94,1.62-2.42,3.35-2.65,2.66-.36,5.29-.93,7.93-1.42a1.5,1.5,0,0,1,1.91,1.7,4.28,4.28,0,0,1-3.08,3.63C158,50.08,155.41,50.48,152.85,50.94ZM155,47.35c0-1-.14-1.06-1.09-1s-1.38.86-1.94,1.47-.62,1.63.32,1.9a5.29,5.29,0,0,0,2.43-.11c.14,0,.11-.85.17-1.31S155,47.68,155,47.35Zm6.67-2.27c-1.59.07-1.85.52-1,2.16.09.19.13.45.27.55s.57.28.68.2a2.79,2.79,0,0,0,1.18-2.12C162.75,45.3,162.45,45,161.66,45.08Z"/><path d="M161.46,19c-1.17-.78-2.16,0-3.25.29-1.29.32-2.65.41-4,.67-1.07.21-2.11.55-3.18.79-1.93.43-3.86.83-5.79,1.24-3.5.74-7,1.35-10.48,2.26-2.27.61-4.4,1.68-6.61,2.5-2.8,1-5.63,2-8.43,3-.94.35-1.82.84-2.73,1.27-.19.09-.37.26-.56.28a7,7,0,0,1-1-.07c.21-.3.36-.77.64-.88,3-1.09,6-2.12,9-3.19.75-.27,1.47-.65,2.21-.92,2.6-1,5.19-1.94,7.81-2.85a26.24,26.24,0,0,1,3.06-.74c2.68-.57,5.35-1.13,8-1.68,3.34-.68,6.68-1.31,10-2,1-.21,1.91-.71,2.9-.88a10.13,10.13,0,0,1,2.58,0c.17,0,.31.41.47.62Z"/><path d="M158.91,22.91c-4.66-.2-9.11.93-13.53,2.19a5.55,5.55,0,0,0-1.6.74,9.91,9.91,0,0,1-7.46,1.57,2.75,2.75,0,0,0-1.37.05c-2.58.89-5.14,1.84-7.71,2.76-.87.31-1.76.57-2.64.85-1.64.5-3.27,1-4.92,1.5a3.26,3.26,0,0,1-.88,0c.17-.26.3-.66.53-.75a36.81,36.81,0,0,1,4.34-1.33,18.34,18.34,0,0,0,3.92-1.34,46.17,46.17,0,0,1,4.5-1.6,12.21,12.21,0,0,1,5.7-.66c1.84.24,3.53-.61,5.13-1.5a7.75,7.75,0,0,1,1.46-.75c3.15-.91,6.26-2,9.59-2.1,2.47-.09,4.95-.14,7.43-.3.86,0,1.7-.44,2.56-.57,1.16-.17,2.33-.27,3.49-.35.2,0,.4.22.6.34-.18.13-.38.37-.56.35-1.69-.15-3.21.55-4.81.87A19,19,0,0,1,158.91,22.91Z"/><path d="M167.3,26.83c-.21,0-.45.14-.63.08-.94-.33-1.85-.74-2.79-1.06a4.12,4.12,0,0,0-1.22-.14c-.42,0-.89.17-1.26,0-1.51-.51-2.77.22-4.13.62-2.75.8-5.56,1.39-8.31,2.19a39.83,39.83,0,0,1-8,1.71,8.42,8.42,0,0,0-1.59.4,38.45,38.45,0,0,1-10.54,1.81,14,14,0,0,0-3.19.7c-.6.15-1.19.35-1.78.53-.84.25-1.93,0-2.34,1.15,0,.09-.31.17-.43.12a.43.43,0,0,1-.2-.38c.19-.64.33-1.28,1.19-1.45,1.51-.3,3-.74,4.52-1.06a13.39,13.39,0,0,1,2.73-.38,38.15,38.15,0,0,0,8.09-1.24l5.91-1.3c1-.23,2.07-.4,3.07-.72,3.89-1.25,8.05-1.53,11.78-3.33a1.52,1.52,0,0,1,.6-.2c2,0,4.07-.45,6.06.33.54.22,1.14.31,1.67.54a6.79,6.79,0,0,1,1,.68Z"/><path d="M171.71,79.66l-1.83.12c0-.86.82-.68,1.21-1,1.16-1.09,2.85-1.71,3.14-3.58,0-.15.27-.27.41-.4.1.2.22.4.31.61a.38.38,0,0,1,0,.25c-.7,1.7-1.41,3.39-2.13,5.09a3.47,3.47,0,0,1-.37.51c-.43.64.22,1,.42,1.44.23-.25.56-.45.68-.74.29-.73.47-1.52.73-2.27a3.15,3.15,0,0,1,.41-.64c.12.24.35.51.32.73a5.82,5.82,0,0,1-.47,1.81c-.44.89-.39,2.06-1.61,2.57-.36.15-.37,1.07-.62,1.59-.12.25-.48.61-.64.56-.55-.15-.28-.54-.16-.9a10.89,10.89,0,0,0,.48-1.93,3.32,3.32,0,0,0-.21-1,4.13,4.13,0,0,0-1,.48c-.47.41-.83.94-1.31,1.35a2.88,2.88,0,0,1-.92.34,3.74,3.74,0,0,1,.33-.87c.78-1,1.6-2,2.37-3A5.7,5.7,0,0,0,171.71,79.66Z"/><path d="M130.49,41.68c1.38.18,2.77.28,4.12.58a4.22,4.22,0,0,1,1.54,1c.11.08,0,.35.07.54-.19,0-.44.1-.57,0-2.89-1.88-6-1.41-9.12-.88a8,8,0,0,0-4.31,1.6,2.41,2.41,0,0,1-.93.38,2.94,2.94,0,0,0-2.43,1.95c0,.17-.35.28-.53.41a1.89,1.89,0,0,1-.15-.75,2.65,2.65,0,0,1,1.51-1.9c1.18-.55,2.31-1.22,3.52-1.69a16.27,16.27,0,0,1,3.16-.8C127.74,41.94,129.12,41.84,130.49,41.68Z"/><path d="M170.64,35.13c-.11.2-.14.37-.22.39s-.39.06-.47,0C168.59,34,166.71,34.18,165,34a21.3,21.3,0,0,0-4.14.22c-2.39.23-4.78.48-7.15.81a8.37,8.37,0,0,0-1.82.76,3.72,3.72,0,0,1-.68.13c.07-.25,0-.62.21-.73a4.38,4.38,0,0,1,1.65-.84c3.59-.45,7.18-.94,10.78-1.16a9.88,9.88,0,0,1,5.87,1.08A6.51,6.51,0,0,1,170.64,35.13Z"/><path d="M131,89.46c.46-1.1.95-2.36,1.53-3.59s1.19-2.29,1.79-3.43a3,3,0,0,1,.35-.67,6.66,6.66,0,0,1,.87-.7,3.89,3.89,0,0,1-.17,1c-1,2.39-2,4.77-3.09,7.15a2.64,2.64,0,0,1-.34.67,4.07,4.07,0,0,1-.6.48Z"/><path d="M164.48,91.58c0-.34,0-.51.08-.67a4,4,0,0,0-.68-3.6.9.9,0,0,1,0-.67c.22-.7.49-1.39.75-2.08a4.08,4.08,0,0,1,.27-.5,1.71,1.71,0,0,1,.43.36,2.92,2.92,0,0,1,.36,2.48,19.21,19.21,0,0,0-.31,3.74,2.77,2.77,0,0,1-.12.87,2.19,2.19,0,0,1-.54.56Z"/><path d="M154.44,42a4.45,4.45,0,0,1-.44.77,4.1,4.1,0,0,1-.91.86,5.48,5.48,0,0,0-2.9,3.91c0,.21-.45.35-.68.53-.07-.29-.26-.61-.19-.85a6.78,6.78,0,0,1,2.81-4c.53-.34,1-.8,1.49-1.16C153.77,42,154,42,154.44,42Z"/><path d="M135.57,84.07c-.1-.43-.25-.68-.18-.82q1.31-2.7,2.7-5.36c.1-.2.42-.29.64-.44,0,.27.17.58.09.81a14.09,14.09,0,0,1-.7,1.47c-.48,1-.92,2-1.45,3A8.35,8.35,0,0,1,135.57,84.07Z"/><path d="M177.78,73.44c0,1.15.05,2.32,0,3.47a4.58,4.58,0,0,1-.5,1.53c-.05.12-.36.19-.54.17s-.28-.24-.27-.35q.28-2.27.6-4.5a1.8,1.8,0,0,1,.15-.48c.12-.21.27-.39.4-.59l.4.68Z"/><path d="M163.33,84.61a11.44,11.44,0,0,1,.06,1.61c0,.22-.32.41-.48.61-.16-.21-.48-.47-.44-.63a11.62,11.62,0,0,0-.28-5.08c0-.16.1-.35.15-.53.16.11.43.18.46.32.21.85.38,1.7.52,2.56A7.31,7.31,0,0,1,163.33,84.61Z"/><path d="M167.86,87.4l.44-1.15a7,7,0,0,1,.44,1.21,5.64,5.64,0,0,1-1,3.58c-.1.19-.45.25-.69.37a2.32,2.32,0,0,1-.09-.81c.09-.31.37-.56.49-.87.28-.73.51-1.47.76-2.21Z"/><path d="M152.07,78.55a9.41,9.41,0,0,1,.48,1.74c0,.33-.29.68-.45,1-.27-.19-.76-.39-.76-.57,0-1.2.16-2.4.28-3.6a.25.25,0,0,1,.5,0c.06.46.08.91.12,1.37Z"/><path d="M147.22,78.55c0,.08,0,.2-.05.23-.63.37-1.28.72-1.92,1.08-.08-.21-.29-.53-.23-.61a1.21,1.21,0,0,0,0-1.81s.17-.38.28-.39A2.72,2.72,0,0,1,147.22,78.55Z"/><path d="M157.07,81.87l-.43.53c-.14-.12-.39-.22-.43-.37-.29-1.09-.54-2.19-.78-3.29,0-.14.09-.3.14-.45.16.09.43.15.47.29C156.4,79.64,156.72,80.73,157.07,81.87Z"/><path d="M158.44,81a1.88,1.88,0,0,1,.34.51c.2.84.22,1.75,1,2.36.08.06-.06.66-.2.7s-.78,0-.81-.13c-.26-1-.43-2-.61-3.07C158.16,81.32,158.3,81.21,158.44,81Z"/></g><path d="M31.37,197.92a2,2,0,0,0,.51-2.21,23.73,23.73,0,0,1-.8-8,2.43,2.43,0,0,1,.31-.73c.12.24.34.47.35.72a13.15,13.15,0,0,1,0,2.43,6.38,6.38,0,0,0,.69,3c.2.59.61.35.79,0a12,12,0,0,0,.51-1.46,5.7,5.7,0,0,1,.25-.73.34.34,0,0,1,.26-.14c.11.06.26.2.25.29a6.83,6.83,0,0,1-.2,1.08c-.22,1-.48,1.93-.68,2.91a2.26,2.26,0,0,0,0,1c.11.42.42.56.71.16a10.43,10.43,0,0,0,1.07-1.66c.51-1.07.91-2.17,1.39-3.25.09-.2.32-.33.49-.5,0,.26.21.57.12.77-.76,1.63-1.57,3.24-2.36,4.85-.14.29-.27.58-.4.87.31,0,.63,0,.94,0a2.92,2.92,0,0,0,2.93-2.74A3.35,3.35,0,0,1,40,191.93l.42-.27c.08.16.24.33.23.47-.11.8-.25,1.6-.39,2.39,0,.22-.2.42-.21.63a3.22,3.22,0,0,0,.1.75,2.71,2.71,0,0,0,.81-.43c.15-.15.13-.49.14-.74l0-4.42a1.64,1.64,0,0,1,0-.44,5.25,5.25,0,0,1,.31-.63c.08.19.17.38.24.57s0,.54.17.62a2.44,2.44,0,0,1,1.08,2.46l.39-.09c-.08-1-.14-1.9-.23-2.85,0-.37-.16-.73-.17-1.09,0-.17.16-.35.25-.52a1.79,1.79,0,0,1,.36.37c.19.47,0,1.29,1,.94a1,1,0,0,1,.18.46c0,.62-.12,1.24-.21,1.86,0,.29-.18.56-.2.85a3.26,3.26,0,0,0,.12.74,3.92,3.92,0,0,0,.77-.28c2.07-1.27,2.46-3.15,2-5.38a5.51,5.51,0,0,1,0-1.34c.76.12.48.79.6,1.22s.13,1.09.24,1.63a3.05,3.05,0,0,0,.38.71c.22-.16.56-.28.65-.5a3.72,3.72,0,0,0,.18-1.17c0-.22-.08-.45-.05-.66a2.63,2.63,0,0,1,.27-.65c.13.16.27.31.39.47s.1.18.23.4a5,5,0,0,1,.1-.51c.09-.27.2-.53.29-.79l.6.54.17,0c-.18-.59-.36-1.18-.56-1.77-.08-.24-.24-.46-.3-.71a1.13,1.13,0,0,1,.12-.48c.14.08.36.12.42.24.24.46.41.95.65,1.41.07.13.26.2.39.3.09-.15.29-.33.25-.44a10,10,0,0,0-.54-1.54c-.18-.41-.46-.76-.64-1.16-.06-.14,0-.34.06-.51.14.08.33.13.42.25.34.48.64,1,1,1.48a2.88,2.88,0,0,0,.44.41,1.68,1.68,0,0,0,.31-.55c.15-1,.28-1.9.4-2.85.08-.62.13-1.25.23-1.86,0-.15.21-.26.32-.39.08.15.23.3.22.44,0,.78-.08,1.55-.12,2.32a6.14,6.14,0,0,0,.08.8,8,8,0,0,0,.8-2c.15-.67.93-1.23,1-2.09,1.25.05,1.13-1.26,1.79-1.82s.53-1.61.47-2.48a2.22,2.22,0,0,1,.13-.61c.16.15.39.28.47.47.25.6.55.53.87.1.16-.23.38-.56.33-.79-.23-1,.06-2.15-.87-3a1.22,1.22,0,0,1-.15-1c.25-1,.58-2,.92-3,.06-.2.27-.36.41-.53a1.65,1.65,0,0,1,.2.56,5.16,5.16,0,0,1-.22,1.64,5,5,0,0,0,.11,3.54c0,.15.19.26.29.4.1-.14.21-.27.3-.42.28-.49.59-1,.83-1.49a2,2,0,0,0,.22-.92c-.09-.94-.25-1.88-.36-2.83a1.86,1.86,0,0,1,.07-.52c.16.05.37.05.46.15.69.79.7.07.72-.34.05-1.11,0-2.22.08-3.32a12.25,12.25,0,0,1,.53-2.19c0-.08.19-.2.23-.18s.26.15.29.27c.18.67.3,1.36.47,2,.13.5.28,1,.45,1.48,0,.11.19.19.29.29.1-.11.27-.2.28-.31a10.69,10.69,0,0,0,.1-2.18c-.13-1-.47-1.94-.65-2.92-.05-.24.12-.72.27-.75.36-.09.77-.54,1.15.09a9.32,9.32,0,0,0,1.25,1.49.5.5,0,0,0,.49,0c.66-1,1.54-1.95.76-3.31-.19-.33-.54-1,.42-.92a.76.76,0,0,0,.21-.58c-.24-.67.1-.88.64-1.14a2.8,2.8,0,0,0,.65-3.81.55.55,0,0,0-.49.11c-.27.34-.47.74-.73,1.1a.41.41,0,0,1-.38.07c-.08-.06-.08-.25-.09-.39a.47.47,0,0,1,.1-.2,5.83,5.83,0,0,0,1.06-3.21c0-.16.16-.31.24-.47.12.12.3.22.35.37a16.27,16.27,0,0,0,1,2.4,4.25,4.25,0,0,0-.13-1.35,1.09,1.09,0,0,1,.44-1.52c.44-.24.4-.49.46-.85a21.94,21.94,0,0,1,.51-2.24c.06-.2.22-.48.38-.52,1.16-.24.93-1.13.91-1.9s-.14-1.61-.18-2.42a2.8,2.8,0,0,1,.15-.67c1.13.36.62-.55.64-.91,0-.73-.07-1.47-.08-2.21,0-.14.16-.29.25-.44.1.14.27.27.3.42a8,8,0,0,0,.49,1.82,7.35,7.35,0,0,0,.23-1c.23-2.64.46-5.29.65-7.93.21-3,.41-6,.58-8.93.06-1,0-2.07,0-3.11q0-.82.12-1.65c0-.43.23-.9-.31-1.16a2,2,0,0,0-1.67.57c-.65,1.73-1.34,3.44-1.9,5.19-.46,1.42-1,2-2.54,1.94-.91,0-1.84-.25-2.75-.18-2,.16-4.09.57-6.14.67-2.76.12-5.52.06-8.29,0a18.51,18.51,0,0,1-3-.25c-1.3-.22-2.59-.54-3.87-.86-.86-.21-1.09-.07-.8.76a17.86,17.86,0,0,1,.57,4.82,13.11,13.11,0,0,0,.67,2.64c.16.53.36,1,.57,1.56A2.23,2.23,0,0,1,48,132a8.33,8.33,0,0,1-3.53,2.92,20.69,20.69,0,0,0-3.11,1.67,4.32,4.32,0,0,1-3.72.31A20.1,20.1,0,0,1,35.4,136a2.3,2.3,0,0,0-2.11-.07c-.85.4-1.55-.23-2.15-.77a20.85,20.85,0,0,1-1.43-1.54,2.39,2.39,0,0,1-.4-2.31c.36-1.43.74-2.85,1.16-4.27a67.25,67.25,0,0,0,2.23-10.6,24.67,24.67,0,0,1,.66-2.63l-.2-.1a6.46,6.46,0,0,0-.61,1.2,5.39,5.39,0,0,1-3.71,3.8,49.32,49.32,0,0,1-6,1.8,38.74,38.74,0,0,1-5.61.51c-2.43.12-4.88,0-7.29.26-2.87.29-5.64-.26-8.45-.56a1,1,0,0,1-.53-.13A6,6,0,0,1,.29,120a3.26,3.26,0,0,1,.76-.07c1.75.2,3.5.43,5.26.64a13.56,13.56,0,0,0,1.43.12,4.46,4.46,0,0,0,.87-.17l-.71-.41H7.79a12.8,12.8,0,0,1-4.54-1.33,21.35,21.35,0,0,1-2.53-1.73,1.41,1.41,0,0,1-.43-.75,2,2,0,0,1,.11-.69,1.75,1.75,0,0,1,.51.34,7.8,7.8,0,0,0,3.43,2.32,20.59,20.59,0,0,0,8.43,1.49,37.4,37.4,0,0,0,9.43-.85c.93-.23,1.9-.3,2.84-.47a3.36,3.36,0,0,0,2.59-2,26.73,26.73,0,0,1,2.42-3.82,11.85,11.85,0,0,0,2.43-7.1,2.13,2.13,0,0,0-1.2-1.94,27.17,27.17,0,0,0-6.44-2.6,25.51,25.51,0,0,0-4.8-.72c-2.48-.27-5-.56-7.46-.65-1.8-.07-3.6.18-5.41.28C6.11,100,5,100,4,100.08a3.12,3.12,0,0,0-2.15,1,4.41,4.41,0,0,1-.86.69,2.27,2.27,0,0,1-.67.15,2.48,2.48,0,0,1,.2-.79c.13-.21.41-.31.59-.49a6.71,6.71,0,0,0,.55-.74,3.44,3.44,0,0,1-.7.17,4.64,4.64,0,0,1-.65,0c.11-.21.17-.53.34-.62A6.35,6.35,0,0,1,2,99a31.45,31.45,0,0,1,7.4-1.29,6.51,6.51,0,0,1,.77,0c3.75.58,7.5,1.19,11.25,1.76a82.26,82.26,0,0,0,14.2,1.13c3.09-.07,6.19.33,9.28.27a48,48,0,0,0,8.13-.78,23.88,23.88,0,0,1,5.43-.78,19.4,19.4,0,0,1,6.07,1c.78.29,1.65.37,2.46.6,1.2.35,2.38.81,3.6,1.09s2.4.34,3.59.56c.72.13,1.42.36,2.12.56.14,0,.25.16.39.2,1.68.45,2,.46,1.91-1.28a58.52,58.52,0,0,0-1.41-12.83c-1.08-4.13-2.52-8.18-5.43-11.52-1.26-1.44-2.15-3.19-3.35-4.67s-2.56-2.74-3.84-4.11c-1-1.11-2.06-2.22-3-3.38a22.72,22.72,0,0,0-5.68-4.7c-1.81-1.13-3.61-2.3-5.48-3.33-4.78-2.62-9.7-4.77-15.21-5.48a27,27,0,0,0-9.73.83c-3.47.81-6.31,2.79-9.26,4.58-.79.47-1.6.92-2.39,1.39a22.3,22.3,0,0,0-5.48,5.09c-2,2.29-4,4.52-6,6.78C1.65,71.4,1,72.14.36,72.94a2.2,2.2,0,0,1,.8-2c.93-1,1.93-2,2.86-3.07,1.79-2,3.62-4,5.29-6.09A17.68,17.68,0,0,1,13.89,58c1.89-1.21,3.94-2.18,5.8-3.43s4.23-1.84,6.45-2.53c4.36-1.36,8.63-.87,13,.12a36.87,36.87,0,0,1,10.11,4.11c2.63,1.49,5.28,3,7.82,4.57a27.17,27.17,0,0,1,4,3.29c1.17,1.12,2.17,2.41,3.25,3.62a2.33,2.33,0,0,0,.46.48,22.14,22.14,0,0,1,4.87,5.26c1.91,2.57,3.65,5.26,5.37,8a18.69,18.69,0,0,1,1.35,3.14A34.93,34.93,0,0,1,78.82,96c.09,2.24.3,4.48.43,6.72,0,.5.13.87.71.93s.76.44.84,1a9.68,9.68,0,0,1-.1,4.38,4.67,4.67,0,0,0,.06,1.74c.17,1.3,0,1.63-1.22,2.07a1.28,1.28,0,0,0-1,1.26c0,.29-.12.58-.14.87-.15,2.65-.29,5.3-.44,8-.2,3.57-.44,7.13-.58,10.7-.07,1.58.11,3.17.13,4.76a14,14,0,0,0,.31,4.61c.08.22-.09.52-.15.79l-.54-.5c-.08-.07-.13-.18-.22-.24-.64-.43-.69-.51-.75-1.13a2.69,2.69,0,0,0-.2.51c-.36,1.62-.72,3.24-1,4.87a2.92,2.92,0,0,0,.1,1.13c.15.8.38,1.58.51,2.37,0,.2-.18.43-.29.65a2.49,2.49,0,0,1-.35-.58c-.1-.35-.1-.73-.2-1.08a3.7,3.7,0,0,0-.41-.72c-.12.24-.35.48-.35.72,0,1.21,0,2.43.07,3.64,0,.41,0,.64-.39.88s-.35.66-.53,1a2.64,2.64,0,0,1-.36.39c-.09-.18-.28-.36-.26-.53.06-.61.19-1.22.3-1.83l-.22-.1-.33.78c-.22.5-.48,1-.65,1.49a2.31,2.31,0,0,0-.12,1.13c.13.76.4,1.49.53,2.25a1.59,1.59,0,0,1-.49,1.8c-.18.13-.21.62-.13.9a5.19,5.19,0,0,1-.53,3.33,1.49,1.49,0,0,1-.4.53,1.38,1.38,0,0,1-.47.17,3.91,3.91,0,0,1,0-.49c0-.06.08-.11.12-.18a4.59,4.59,0,0,0,.56-3.82,15.89,15.89,0,0,1-.34-1.85,1.25,1.25,0,0,0-.2-.35c-.12.08-.29.13-.35.24-.67,1.25-1.43,2.42-1.07,4a11.08,11.08,0,0,1-.77,7.25,4.82,4.82,0,0,1-.83,1.14c-.09.1-.32.08-.49.11,0-.16,0-.39,0-.47A5.62,5.62,0,0,0,68,168a12.88,12.88,0,0,0,.17-2.64c0-.19-.23-.39-.35-.59-.18.19-.45.35-.52.57s0,.67-.06,1-.24.74-.45.8c-.87.24-.73.89-.77,1.5-.26,3.56-.56,7.12-.77,10.68-.19,3.08-.73,6.16-.28,9.27a27.12,27.12,0,0,0,2.4,7.34c.32.7.71,1.37,1.06,2h-.88c-.25-.57-.45-1.18-.75-1.72a19.6,19.6,0,0,1-2.59-10.51c.1-2.76.35-5.51.61-8.26.21-2.19,0-4.41.53-6.59a9.79,9.79,0,0,0,0-2.65.74.74,0,0,0-.19-.36.43.43,0,0,0-.25.13c-.59,1-1.47,1.89-.81,3.24a7.38,7.38,0,0,1,.48,1.93,1,1,0,0,1-.83,1.22c-.69.05-.57-.49-.63-.92a4,4,0,0,0-.28-1c-.17-.45-.43-.6-.79-.14a2.88,2.88,0,0,0-.72,3.06c.38.91.72,1.85,1.12,2.76.22.51.6,1,0,1.47-.1.08,0,.47.06.69s.38.48.45.75a2.74,2.74,0,0,1-.09.84,2.62,2.62,0,0,1-.58-.51c-.69-1.22-1.34-2.46-2-3.67-.11-.2-.37-.31-.57-.47a4.66,4.66,0,0,0-.32.68c-.17.6-.27,1.22-.46,1.82-.34,1.11-1.09,2.07-.75,3.44a4.83,4.83,0,0,0,.55,1.8,1.34,1.34,0,0,1,.31.57c0,.17-.12.37-.2.55-.15-.07-.38-.09-.45-.21-.25-.41-.42-.86-.65-1.28-.38-.67-.54-.68-1-.08s-.74,1-1.14,1.49c-.09.1-.32.09-.48.13,0-.17-.06-.37,0-.49a11.77,11.77,0,0,1,.93-1.37,1.56,1.56,0,0,0,.06-1.86c-.2-.43-.48-.49-.71-.07-.46.84-.9,1.7-1.31,2.56a2.69,2.69,0,0,0,0,2.74,4.8,4.8,0,0,1,.54,1.2c0,.16-.1.37-.16.56-.13-.09-.33-.15-.4-.27-.21-.35-.35-.74-.55-1.09a1.47,1.47,0,0,0-.36-.34c-.09.11-.27.22-.27.32,0,.57.06,1.14.07,1.71a7,7,0,0,1-.08.91c-.24-.15-.46-.33-.71-.46s-.44-.24-.57-.17a1.93,1.93,0,0,0-1.18,2.34c.06.43.18.86.23,1.3a2.9,2.9,0,0,1-.07.71c-.24-.11-.58-.17-.68-.36-.35-.64-.57-.37-.81.06a1.38,1.38,0,0,1-.17.29c-.19.19-.39.37-.59.55a4.91,4.91,0,0,1,.06-.86c0-.21.22-.39.29-.6.26-.72.51-1.45.73-2.19,0-.14-.09-.32-.14-.49-.16.08-.4.11-.46.23-.4.77-.78,1.56-1.14,2.36s-.61,1.49-1,2.22c-.07.16-.33.22-.51.33,0-.2-.1-.42,0-.59.19-.48.47-.92.66-1.4s.05-.69-.46-.59a2.78,2.78,0,0,0-1.8,2.7c.08.62.12,1.24.17,1.86H44c-.07-.61-.12-1.23-.21-1.84,0-.15-.18-.28-.27-.43-.14.14-.39.27-.4.42,0,.62,0,1.24,0,1.85H40.24a1.43,1.43,0,0,0,.23-.37c.08-.23.11-.47.17-.7a3.17,3.17,0,0,0-.8-.07,1.68,1.68,0,0,0-1.37,1.14ZM57.52,120c2.56-.21,5-.22,7.4-.65s4.46-1.29,6.7-1.88a3,3,0,0,0,2.31-2,26.83,26.83,0,0,0,.89-3.64,12.33,12.33,0,0,0-.07-4.84,3.18,3.18,0,0,0-2.07-2.54c-2.21-.73-4.45-1.36-6.68-2a3.18,3.18,0,0,0-.76-.13l-7.73-.44a10.11,10.11,0,0,0-1.21.12c-1.65.11-3.3.21-4.94.33-1.46.1-2.93.13-4.38.34a4,4,0,0,0-3,3.61A10.2,10.2,0,0,0,46.39,113a64.48,64.48,0,0,0,4.92,5.54,3.55,3.55,0,0,0,1.83.92C54.62,119.75,56.13,119.87,57.52,120ZM39.11,136.58a9.09,9.09,0,0,0,1.46-.45,25.61,25.61,0,0,1,3.28-1.79A8.42,8.42,0,0,0,47,132a2.25,2.25,0,0,0,.39-2.91,7.31,7.31,0,0,1-1-3.69,14.37,14.37,0,0,0-1.08-6c-.29-.71-.46-1.47-.73-2.2-.57-1.51-1.13-3-1.78-4.51-.39-.91-1.08-1.71-1.38-2.64a2.73,2.73,0,0,0-2.76-1.95,2.3,2.3,0,0,0-2.57,1.9,13,13,0,0,1-.9,2.11c-.77,1.58-1.78,3.06-2,4.87a67.23,67.23,0,0,1-2.11,10.51c-.38,1.35-.77,2.69-1.17,4a1.63,1.63,0,0,0,.34,1.65,16.48,16.48,0,0,0,1.52,1.6c.3.26.88.55,1.15.43,1.12-.55,2.07-.05,3.07.31S38.12,136.24,39.11,136.58ZM51.38,120.3l.09-.31c0-.07,0-.15-.09-.19a38.63,38.63,0,0,1-7-8.48,10.91,10.91,0,0,1-1.29-4.39,4.56,4.56,0,0,1,1.86-4.25c.26-.21.55-.37.81-.57a3,3,0,0,0,.32-.39,1.65,1.65,0,0,0-.49-.19c-2.32-.12-4.63-.27-6.95-.33-1.55,0-3.1.12-4.64.09-1.73,0-3.45-.18-5.18-.27-.08,0-.17.09-.41.22a7.29,7.29,0,0,0,1.64.61,4,4,0,0,1,2.51,1.63,2.46,2.46,0,0,1,.64,1.35,11.49,11.49,0,0,1-2.71,8.62,18.4,18.4,0,0,0-2.7,4.83c2.07-.66,3.56-1.55,4-3.56a4.39,4.39,0,0,1,1.38-2.08,32.27,32.27,0,0,0,2.22-2.54c-.34-.07-.45-.08-.55-.11s-.44-.14-.66-.21a3.61,3.61,0,0,1,.46-.56,6.87,6.87,0,0,0,1.22-.93c1-1.33,3.42-1.62,5-.8a2.08,2.08,0,0,1,.89.79c1.2,2.48,2.62,4.89,3.17,7.64.39,2,1.28,3.41,3.45,3.75C49.41,119.83,50.39,120.09,51.38,120.3Zm20.71-17.38,0,.32a1.92,1.92,0,0,0,.17.13,4.59,4.59,0,0,0,.6.27A4,4,0,0,1,75.64,107a17.42,17.42,0,0,1,.17,3.61c-.08,1.49.08,1.69,1.54,1.48.54-.08.79-.31.8-.85s.08-1,.11-1.42c.11-1.47.2-2.94.31-4.4.06-.79-.16-1.25-1.07-1.28a9.28,9.28,0,0,1-1.58-.43C74.65,103.45,73.37,103.19,72.09,102.92Zm-22.27-1.55c1,0,2.64,0,4.33,0a34.43,34.43,0,0,1,5.38-.11,46.4,46.4,0,0,0,5.78,0c-1.32-.41-2.67-.74-4-1a17.88,17.88,0,0,0-6.36,0C53,100.6,51.06,101.1,49.82,101.37Zm30.55,5.3c-.07-.57-.12-1.16-.24-1.73,0-.21-.27-.38-.41-.57-.15.21-.42.41-.44.63-.12,1.21-.16,2.43-.25,3.64-.06.85-.18,1.69-.22,2.53,0,.37-.12.92.51.89s.8-.39.8-1c0-1.1.06-2.19.11-3.29C80.25,107.42,80.32,107.06,80.37,106.67Zm-13,12.91c.24.14.33.22.42.23,1.17.07,2.35.17,3.53.18a1.83,1.83,0,0,0,1.93-1.49c.07-.42,0-.65-.5-.47-1,.32-1.91.57-2.87.85Zm-3.48,43.63c-.12,1.5-.24,3-.37,4.61A3.16,3.16,0,0,0,63.91,163.21ZM6.53,98.81a7.15,7.15,0,0,0,4.14-.08A5,5,0,0,0,6.53,98.81Zm51,80.67c-.35.44-.73.69-.76,1a5.61,5.61,0,0,0,.19,1.45c.12,0,.3,0,.34-.13.23-.54.44-1.08.62-1.64C58,180,57.79,179.86,57.56,179.48ZM42.18,192.14l-.14,0c-.14.78-.29,1.56-.38,2.35,0,.21.14.44.22.66.15-.21.42-.43.43-.65C42.31,193.73,42.23,192.93,42.18,192.14ZM61,177.8l.29-.14c-.18-.62-.35-1.24-.57-1.85-.06-.16-.28-.27-.43-.41-.09.22-.33.5-.26.65C60.33,176.65,60.7,177.22,61,177.8Z"/><path d="M27.16,197.92c-.37-1.59-1.85-2-3-2.73-.33-.22-.44,0-.47.31,0,.13-.19.24-.29.36-.11-.1-.27-.17-.32-.29-.1-.28-.12-.58-.23-.85a3.31,3.31,0,0,0-.54-1.06,2.7,2.7,0,0,0-.94-.42c0,.31-.08.61-.1.92s.09.47,0,.65-.32.34-.49.51a2.27,2.27,0,0,1-.38-.59,1.84,1.84,0,0,1,0-.77,2,2,0,0,0-1.16-2.34c-.19-.1-.39-.16-.58-.24a3.11,3.11,0,0,0-.23.69c0,.33.07.67,0,1a4.65,4.65,0,0,1-.33.95,3,3,0,0,1-.37-.9c0-.7.06-1.41,0-2.1,0-.26-.31-.49-.48-.73a2.66,2.66,0,0,0-.28.77c-.07,1.4-.1,2.8-.15,4.2a2.8,2.8,0,0,1-.05.77,3.12,3.12,0,0,1-.44.85s-.35,0-.37-.07c-.09-.38-.3-.85-.16-1.14.91-1.78.54-3.68.52-5.53a1.62,1.62,0,0,0-.64-1.07c-1.5-1.18-3-2.33-4.61-3.42-.29-.2-.93.08-1.18-.13s.09-.9-.11-1.12a13.22,13.22,0,0,0-2-1.61c-.06,0-.46.22-.52.41-.2.55-.28,1.15-.49,1.69-.08.22-.39.35-.6.52a3.86,3.86,0,0,1,0-.76c.12-.75.32-1.49.41-2.25a1.39,1.39,0,0,0-.29-.81c-.1-.14-.34-.19-.53-.29a4.19,4.19,0,0,0-.2.49,9.45,9.45,0,0,1-.5,2,.76.76,0,0,1-1.4,0,1.17,1.17,0,0,1-.09-.42c.15,0,.34-.12.45-.07.53.26.66-.1.78-.47a2.59,2.59,0,0,0-1.11-3.23.75.75,0,0,0-1.07,0c-.17.14-.57,0-.87,0a2.05,2.05,0,0,0,.17-.62,1.73,1.73,0,0,0-.18-.86c-.33-.44-.79-.78-1.12-1.22a7.68,7.68,0,0,1-.6-1.18l.31-.2c.31.36.62.74,1,1.08a3.11,3.11,0,0,0,.51.36,1.67,1.67,0,0,0,.2-.58c-.06-1.58-.14-3.16-.23-4.75,0-.73-.18-1.46-.21-2.2a2.37,2.37,0,0,1,.26-.76,3.22,3.22,0,0,1,.34.76,11.28,11.28,0,0,1,.19,1.64c.11,2.21.89,4.33.75,6.56a1.16,1.16,0,0,0,.35.87,6.2,6.2,0,0,0,1.22.66c0-.41.05-.82.06-1.23,0-.93-.37-1.9.44-2.73.16-.15,0-.63,0-.95-.14-.72-.35-1.43-.48-2.16,0-.16.12-.36.19-.54.13.11.33.21.36.35q.62,2.58,1.16,5.18a.63.63,0,0,1-.26.54c-.26.16-.69.09-.6.6s.2,1.3.34,1.93c0,.11.32.23.46.2s.21-.26.28-.41c.12-.32.21-.65.32-1A3.94,3.94,0,0,1,7.34,180a2.13,2.13,0,0,0,.94,2c.57.41,1.05.92,1.62,1.34s.8.29.82-.39a10.06,10.06,0,0,0-.65-5,53.26,53.26,0,0,1-2.73-8.53,1.76,1.76,0,0,1-.09-.55c0-.11.12-.23.18-.34.12.07.29.12.34.23a5.65,5.65,0,0,1,.23.73c.69,2.26,1.36,4.53,2.08,6.78.23.72.37,1.52,1.22,1.88a.69.69,0,0,1,.23.56c-.11,1.33.68,2.3,1.3,3.34.07.14.37.29.48.24.35-.16.62-.14.65.26a4.8,4.8,0,0,1-.17,1c-.29-.08-.66-.09-.85-.27a9,9,0,0,1-.89-1.13,2.6,2.6,0,0,0-.4-.33,1.35,1.35,0,0,0-.25.45c-.08.62-.15,1.24-.17,1.87a1,1,0,0,0,.25.69,22.9,22.9,0,0,0,2.5,1.8c.19.11.82-.16,1-.42.75-1.35,1.53-2.69.83-4.37-.56-1.36-1-2.78-1.43-4.18a11.19,11.19,0,0,1-.37-1.16c0-.14.08-.31.13-.47.14.09.35.15.41.28.52,1.26,1,2.54,1.54,3.8.12.3.43.52.6.8a7.64,7.64,0,0,1,.35.83c.16.38.32.76.5,1.13a5.91,5.91,0,0,1,.56,1.05c.35,1.36.66,2.72.93,4.1a12.8,12.8,0,0,1,0,1.52,1.72,1.72,0,0,0,.26,1,6.55,6.55,0,0,0,1.25.77,5.41,5.41,0,0,0,.36-1.32c0-3,.1-6,0-9.06,0-1.43-.31-2.86-.45-4.29a2.3,2.3,0,0,1,.14-.66c.16.18.42.33.46.53a33.92,33.92,0,0,1,.76,4.45,51.43,51.43,0,0,1-.07,5.41c-.06,1.59-.21,3.17-.32,4.75,0,.25-.12.56,0,.76a2.93,2.93,0,0,0,.67.64c.15-.21.39-.41.44-.65.18-1.05.29-2.12.47-3.17a3.58,3.58,0,0,1,.43-.88,3.94,3.94,0,0,1,.16,1c-.1,1-.32,1.9-.38,2.85a4.39,4.39,0,0,0,.25,1.72,1.1,1.1,0,0,0,.82.6,1.05,1.05,0,0,0,.73-.68,15.66,15.66,0,0,0,.29-2.18c0-.22-.09-.5,0-.65a8.21,8.21,0,0,1,.83-.94c.19.28.5.55.54.85.2,1.43.38,2.86.47,4.29A2.21,2.21,0,0,0,28.8,197c.8.26,1.57.63,2.35.95Zm-.51-3.3-.12,0c0-.65-.07-1.31-.15-2,0-.17-.18-.33-.28-.49a2.17,2.17,0,0,0-.24.45,14.12,14.12,0,0,0-.43,1.67,1.49,1.49,0,0,0,.12.94c.12.21.48.26.74.38Zm-10.07-9.47c-.19.09-.28.1-.31.15a18.12,18.12,0,0,0-1.1,2c-.06.13.42.49.64.74.16-.15.38-.27.45-.44A11.94,11.94,0,0,0,16.7,186,2.54,2.54,0,0,0,16.58,185.15Z"/><path d="M.34,197.92c.06-1.46.13-2.93.19-4.4,0-.59.08-1.18.07-1.77,0-2.35-.1-4.71-.18-7.06,0-1.28-.12-2.56-.19-3.84l.33,0c.15,1.38.38,2.76.44,4.14.09,1.91.09,3.82.08,5.72,0,1.65-.09,3.3-.15,5,0,.77-.1,1.54-.15,2.3Z"/><path d="M61.08,197.92c.37-2.8.74-5.61,1.1-8.41.08-.66.11-1.32.19-2,0-.12.14-.23.21-.35.11.12.32.23.32.35a11,11,0,0,1,0,2c-.33,2.25-.73,4.5-1.08,6.75a15.08,15.08,0,0,0,0,1.65Z"/><path d="M50.88,197.92c-.08-.64-.2-1.29-.23-1.93,0-.23.21-.46.32-.69.12.19.32.37.35.58.11.67.16,1.36.23,2Z"/><path d="M19.43,111.79c-.57-.11-1-.21-1.43-.27A20.2,20.2,0,0,0,14,111a5.26,5.26,0,0,1-5.18-2.87c-1.27-2.1-1.09-1.7.65-2.66a6.11,6.11,0,0,1,2.08-.67c1.09-.14,2.21-.07,3.31-.14a8.5,8.5,0,0,1,4.79,1.44c.93.51,2,.77,2.95,1.23A21.08,21.08,0,0,1,25.41,109a1.69,1.69,0,0,1,.5,1.25c0,.19-.58.47-.94.54C23.09,111.14,21.21,111.47,19.43,111.79Zm1.12-.85c1.29-.23,2.59-.45,3.89-.71a2.17,2.17,0,0,0,.6-.4,2.2,2.2,0,0,0-.43-.48c-.85-.48-1.71-1-2.59-1.4a13.56,13.56,0,0,0-1.75-.64,4.18,4.18,0,0,0-.8-.13c0,.28,0,.57,0,.85a10.23,10.23,0,0,1,.24,2C19.67,111,19.58,111,20.55,110.94Zm-9.41-1,.31-.17a3.44,3.44,0,0,1,1-3.55c.12-.1.25-.4.2-.45a.85.85,0,0,0-.53-.27,4.22,4.22,0,0,0-2.82,1.08.71.71,0,0,0-.12.67C9.8,108.13,10.48,109,11.14,109.9Z"/><path d="M48,156.59a11.28,11.28,0,0,1-.71,4.56,7.51,7.51,0,0,0-.26,1.85c-.2,2.05-.41,4.1-.56,6.15-.06.79,0,1.6,0,2.4a7.36,7.36,0,0,1-1.92,4.37,3.15,3.15,0,0,1-1,.69c-1.75,1-3.75,1-5.65,1.33-1.19.22-2.44.18-3.6.48-1.75.46-2.89-.53-3.83-1.62a11.11,11.11,0,0,1-2-3.51c-.75-2.12-1.55-4.21-2.45-6.27a52.41,52.41,0,0,1-1.66-5.15,8,8,0,0,0-.34-.93,1.87,1.87,0,0,1,.35-2.39,47.69,47.69,0,0,0,5-6.34,6.9,6.9,0,0,1,5.37-3.44,18.84,18.84,0,0,1,7.52.61,10.85,10.85,0,0,1,5.28,3.87,3.92,3.92,0,0,1,.45,1.9A9.88,9.88,0,0,1,48,156.59Zm-.53.18c-.19-1.14-.1-2.25-.58-3a10.28,10.28,0,0,0-2.76-2.66c-2.56-1.75-5.52-1.91-8.5-1.79a7,7,0,0,0-5.71,3.25c-1.34,1.94-2.79,3.8-4.21,5.68-.54.71-1.14,1.16-.77,2.4.7,2.31.93,4.74,2.12,6.92a22.37,22.37,0,0,1,1.31,3.16,20.06,20.06,0,0,0,2.17,4.93,4.47,4.47,0,0,0,4.87,2c1.73-.32,3.51-.43,5.22-.82a7.19,7.19,0,0,0,3.21-1.35,6.51,6.51,0,0,0,2.07-5.07c0-1.38.15-2.78.23-4.17,0-.47,0-.95.07-1.43.14-1.38.25-2.77.46-4.14S47.24,158,47.49,156.77Z"/><path d="M16.26,79.89c4.91.22,8.74.4,12.45,1.48a12.44,12.44,0,0,1,2.83,1.21,8.63,8.63,0,0,0,4.6,1.35c1.8,0,3.61.13,5.4,0,2.3-.21,4.57-.67,6.86-1,3.09-.47,6.18-1,9.32-.34.76.15,1.54.16,2.3.3a10.16,10.16,0,0,1,5.08,2.53c.59.55,1.31,1,1.93,1.47a3.59,3.59,0,0,1,.51.7,2.37,2.37,0,0,1-.9-.11,9,9,0,0,1-1.9-1.33,10.3,10.3,0,0,0-6.44-2.82,24.59,24.59,0,0,0-3.18-.37,27.63,27.63,0,0,0-4,.26c-1.42.19-2.81.62-4.23.78-2.85.31-5.71.58-8.57.74a19.18,19.18,0,0,1-4.07-.27,6.67,6.67,0,0,1-2.56-1A13.94,13.94,0,0,0,26,81.39a49.28,49.28,0,0,0-10.57-.68,14.85,14.85,0,0,0-6.56,2.18c-1,.59-2.11,1-3.15,1.59-.54.28-1,.64-1.57,1-.11.06-.27.17-.35.13s-.24-.25-.21-.33c.11-.29.21-.7.44-.82,2.18-1.08,4.36-2.16,6.58-3.14A12.77,12.77,0,0,1,16.26,79.89Z"/><path d="M21.26,77.41c-3.42-.08-6.85-.24-10.28-.23-2.09,0-4.17.3-6.26.44a1.25,1.25,0,0,1-.47-.16c.07-.15.1-.4.21-.45a3,3,0,0,1,1-.28c3.28-.08,6.57-.19,9.85-.19s6.57,0,9.84.2c2,.12,4,.58,6,.85,1.24.17,2.48.34,3.73.4a32.79,32.79,0,0,1,8.29,1.23,8.4,8.4,0,0,0,3.16.09,52.61,52.61,0,0,1,11.36.19c2.07.32,4.16.53,6.2,1a5.24,5.24,0,0,1,2.21,1.36c.71.64,1.27,1.44,2.29,1.66.12,0,.2.25.3.39-.16.07-.35.25-.46.21a6.76,6.76,0,0,1-1.48-.64,6.65,6.65,0,0,1-1.12-1.07,3.8,3.8,0,0,0-2.8-1.31c-1.12,0-2.22-.51-3.35-.67a50,50,0,0,0-5.59-.58,48.63,48.63,0,0,0-8.94.32,4.84,4.84,0,0,1-2.27-.33,28.82,28.82,0,0,0-6.63-1.17c-2.63-.31-5.26-.61-7.89-.86-2.31-.22-4.62-.37-6.93-.56Z"/><path d="M48.38,148.5l.21-.91c.41.19,1,.28,1.21.61a7.9,7.9,0,0,1,.88,1.77c.73,1.66,1.44,3.32,2.15,5,.21.48.7,1.05-.36,1.18-.12,0-.22.42-.27.65-.18.79-.29,1.6-.5,2.38a1.49,1.49,0,0,1-1.46,1.29,2,2,0,0,1-1-.42c-.1-.06-.07-.32-.1-.5a1.64,1.64,0,0,1,.48,0c1,.29,1.29.18,1.48-.78.26-1.3.41-2.62.59-3.94a1.31,1.31,0,0,0-.07-.65q-.95-2.31-1.94-4.59c-.07-.17-.29-.27-.45-.41a1.54,1.54,0,0,0-.27.46c-.15.7-.29,1.46-1.16,1.55s-1.21-.58-1.61-1.16c-.7-1-1.38-2.07-2.08-3.1a2.71,2.71,0,0,0-.47-.42c-.1.15-.2.3-.31.44a7.25,7.25,0,0,1-1.14,1.26c-.23.17-.71,0-1.05-.06-.13,0-.2-.32-.31-.49.17,0,.36-.12.5-.08.71.24,1-.19,1.28-.73a3.86,3.86,0,0,0,.12-2.7c-.08-.34-.1-1,0-1,.55-.22.87.19,1.08.67.53,1.25,1,2.54,1.61,3.76a12.7,12.7,0,0,0,1.64,2.46c.56.68,1,.52,1.18-.33.08-.36.11-.73.16-1.09Z"/><path d="M66.39,90.57c-.2.08-.38.23-.53.2a.67.67,0,0,1-.38-.36c-.83-1.84-2.54-2.22-4.25-2.56C59,87.41,56.81,87,54.6,86.63a8.16,8.16,0,0,0-2.09-.09A38.83,38.83,0,0,0,44.59,88a12.62,12.62,0,0,1-2.61.35.38.38,0,0,1-.32-.22c0-.09.09-.28.19-.33a1.3,1.3,0,0,1,.62-.18c1.49.09,2.78-.66,4.18-.9,3.29-.57,6.58-1.31,10-.45,2.18.55,4.4.92,6.59,1.42a4.28,4.28,0,0,1,2.89,2.22C66.18,90.07,66.26,90.27,66.39,90.57Z"/><path d="M20.9,159.77c-.06-.44-.17-.69-.1-.87.29-.75.71-1.47.95-2.24.49-1.58.92-3.18,1.34-4.78,0-.15-.23-.38-.35-.58-.21.15-.54.25-.6.44-.19.6-.23,1.24-.43,1.83-.41,1.18-.86,2.35-1.34,3.51-.07.18-.37.26-.57.4,0-.24-.08-.52,0-.7a22.71,22.71,0,0,0,1.84-6.13c.17-.83.14-.82.85-.44.1.06.4-.08.48-.2.9-1.48,1.79-3,2.67-4.45A2.46,2.46,0,0,1,26,145a4.89,4.89,0,0,1,.76-.48,2.92,2.92,0,0,1-.2.76c-.61,1-1.23,2-1.9,3a4.38,4.38,0,0,0-.71,2.05,26.14,26.14,0,0,1-2.52,8.77A5.85,5.85,0,0,1,20.9,159.77Z"/><path d="M16.05,100.63A8.26,8.26,0,0,1,21.94,102c.68.4,1.16,1.13,1.83,1.56A8.6,8.6,0,0,1,26.54,107c.1.18,0,.45.06.68-.22-.1-.51-.14-.64-.31-.31-.4-.52-.89-.83-1.3a14.13,14.13,0,0,0-5.6-4.38,6.54,6.54,0,0,0-1.92-.43c-.66-.08-1.34,0-2,0-1.85-.21-3.48.54-5.12,1.15a22.56,22.56,0,0,0-2.8,1.55A3,3,0,0,1,7,104c.07-.25.06-.63.22-.73a28.75,28.75,0,0,1,3.6-1.9A9.29,9.29,0,0,1,16.05,100.63Z"/><path d="M13.54,82.1c1.08.2,2.16.42,3.24.6,2.47.42,4.93.92,7.41,1.19a17.74,17.74,0,0,1,5.1,1.37c.92.39,1.82.82,2.71,1.28.18.09.26.37.39.57-.23,0-.5.16-.69.09a11.86,11.86,0,0,1-1.93-.84,16.61,16.61,0,0,0-7.4-2,37.43,37.43,0,0,1-4.69-.72c-1.72-.35-3.4-1-5.22-.69-.15,0-.33-.17-.5-.27.15-.14.28-.36.45-.39a6.79,6.79,0,0,1,1.1-.08Z"/><path d="M13.68,89.12a11.33,11.33,0,0,1,6.6,1.66,8.7,8.7,0,0,1,1.59,1.51q1.21,1.18,2.4,2.4a2.89,2.89,0,0,1,.33.5c-.23,0-.55.16-.67.06A11.16,11.16,0,0,1,21.51,93a6.88,6.88,0,0,0-4.44-2.81,21.11,21.11,0,0,0-3.38-.43,4.44,4.44,0,0,0-3.13.74,10.38,10.38,0,0,1-2.67,1c-.1,0-.25-.07-.38-.11.08-.19.1-.48.23-.54a18.59,18.59,0,0,1,1.74-.7c.24-.09.55-.08.73-.24A4.31,4.31,0,0,1,13.68,89.12Z"/><path d="M19.37,166.08c-.41,1.36-.83,2.71-1.24,4.07-.19.63-.35,1.28-.55,1.91-.06.18-.25.32-.37.48-.08-.22-.26-.46-.21-.64a39,39,0,0,1,1.16-4.27c.77-2.11.71-4.33,1-6.5.09-.7.09-1.4.16-2.1,0-.15.18-.28.28-.42.1.17.28.34.28.51-.05,1.25-.13,2.5-.2,3.75,0,.29-.1.65,0,.86.81,1.29.61,2.71.59,4.09,0,.85-.1,1.69-.19,2.53a2.36,2.36,0,0,1-.29.65c-.09-.21-.26-.42-.25-.63,0-.88.1-1.76.14-2.64,0-.54,0-1.07,0-1.6Z"/><path d="M25.21,188.84c.06-2.72.16-5.44.14-8.17a15.31,15.31,0,0,0-.46-2.72c0-.17-.17-.44-.27-.45-1-.07-.59-.68-.47-1.18.25-1.07.47-2.15.73-3.22a3,3,0,0,1,.33-.81c.06-.09.24-.11.36-.17a1.5,1.5,0,0,1,.15.38,1.11,1.11,0,0,1-.09.43,8.43,8.43,0,0,0-.08,4.8c.23,1.38.55,2.76.66,4.15a20.93,20.93,0,0,1-.16,3.05c-.08,1.25-.15,2.5-.23,3.75,0,.07,0,.17,0,.21s-.31.33-.46.49l-.3-.5Z"/><path d="M61.38,92.09a4.18,4.18,0,0,1,3.44,1.71c.58.62,1.18,1.22,1.76,1.83a1.21,1.21,0,0,1,.32.44,2.66,2.66,0,0,1,0,.69c-.19-.07-.44-.09-.57-.22a17.65,17.65,0,0,1-1.5-1.62,4.63,4.63,0,0,0-4.77-2,14.71,14.71,0,0,0-6.65,2.73,1,1,0,0,1-.46.27,2.38,2.38,0,0,1-.68-.12c.08-.18.1-.45.24-.53,2.16-1.31,4.25-2.82,6.92-2.93A18.49,18.49,0,0,0,61.38,92.09Z"/><path d="M51.24,175.57a14.56,14.56,0,0,1-1.76,5.17c-.43.81-.91,1.6-1.4,2.38a1.74,1.74,0,0,1-.54.54.68.68,0,0,1-1-.3c-.27-.45,0-.69.4-.79s.74-.57.8-1.07c.2-1.61.39-3.22.54-4.84a7,7,0,0,0-.16-1,1.38,1.38,0,0,1,.15-.46c.14.1.37.18.39.3a5.58,5.58,0,0,1,.19,1.51c0,1-.22,1.9-.31,2.85a1.89,1.89,0,0,0,.09.52c.16-.12.41-.2.46-.36.53-1.6,1-3.21,1.53-4.82.09-.29.19-.57.29-.86l.36.93A2,2,0,0,1,51.24,175.57Z"/><path d="M24.07,112.57c-1.05,1-1.84,1.69-2.66,2.4a2.12,2.12,0,0,1-.92.56c-1.82.26-3.64.55-5.47.64a6.66,6.66,0,0,1-4.85-1.77c-.55-.48-1.21-.84-1.78-1.3a2.39,2.39,0,0,1-.38-.67c.28,0,.61-.05.82.09a15.52,15.52,0,0,1,1.66,1.27,8.85,8.85,0,0,0,4.43,1.82,1.75,1.75,0,0,0,.56,0c1.52-.23,3.05-.42,4.56-.73.42-.08.78-.5,1.14-.79a13.91,13.91,0,0,1,1.52-1.26A4.44,4.44,0,0,1,24.07,112.57Z"/><path d="M63.53,158.37a12.94,12.94,0,0,1-1.05,2.53c-1,1.52-2.21,2.94-3.35,4.38-.13.17-.41.21-.62.31a2.93,2.93,0,0,1,.11-.69,6.34,6.34,0,0,1,.57-.82,2.12,2.12,0,0,0,.15-2.36c-.39-.75-.73-1.53-1.06-2.3-.06-.14,0-.34,0-.51.16.07.37.1.46.21a4.08,4.08,0,0,1,.42.77c.11.23.13.53.29.71a15.07,15.07,0,0,0,1.16,1.1c.25-.39.52-.76.75-1.16.44-.8.85-1.61,1.29-2.4a2.74,2.74,0,0,1,.39-.45Z"/><path d="M5.25,155.62a27,27,0,0,1-1,3,1.82,1.82,0,0,0,.42,2.35,6,6,0,0,1,1.86,5,3.6,3.6,0,0,1-.61,1.36c-.06.11-.38.06-.58.09a1.57,1.57,0,0,1,.06-.49,5.34,5.34,0,0,0-1.32-5.72c-.55-.42-.65,0-.88.35-.4.62-1,.66-1.28.11-.07-.13.12-.55.15-.55.69.08.79-.48.94-.9.44-1.17.81-2.36,1.21-3.55.13-.38.25-.77.41-1.14a.41.41,0,0,1,.34-.19C5.08,155.33,5.15,155.5,5.25,155.62Z"/><path d="M28.21,183.82c.27.36.42.48.46.63s0,.52.1.77a5.27,5.27,0,0,0,.71,2.35c.47.62.32,1.7.51,2.56.27,1.3.59,2.58.9,3.87.05.25.15.5.19.75a.43.43,0,0,1-.15.36.38.38,0,0,1-.36-.13,10.53,10.53,0,0,1-1.37-2.72c-.51-2.41-.8-4.86-1.16-7.31A4.7,4.7,0,0,1,28.21,183.82Z"/><path d="M55.1,164.52c-.06.81-.21,1.47-1.15,1.69-.21,0-.45.47-.47.73-.13,1.65-.19,3.31-.31,5a4.84,4.84,0,0,1-.4,1.18.71.71,0,0,1-.29-.05c0-.38,0-.76,0-1.14.08-1.65.15-3.31.23-5,0-.37,0-.74,0-1.1s.29-.86.88-.69c.78.24.84-.3.75-.79-.17-1-.47-1.93-.66-2.9a5,5,0,0,1,.05-1.09,4,4,0,0,1,.56,1C54.63,162.36,54.85,163.44,55.1,164.52Z"/><path d="M3.18,90a3.42,3.42,0,0,1,1.33-2.76,15.39,15.39,0,0,1,5-2.67,14.61,14.61,0,0,1,2.82-.51c.16,0,.35.14.52.22-.14.14-.27.35-.44.39-1,.27-2.08.44-3.09.75A13.75,13.75,0,0,0,4.69,88.1c-.44.37-.54,1.15-.81,1.73-.11.23-.27.44-.4.66Z"/><path d="M.28,169.08c.12-.94.29-1.87.34-2.81a8.35,8.35,0,0,0-.23-1.46,2.36,2.36,0,0,1,.1-.57,2.74,2.74,0,0,1,.43.3c.22.25.42.52.64.79.06-.38.11-.77.18-1.14.1-.53-.42-1.16.25-1.6.13.52.3,1,.39,1.54a3.53,3.53,0,0,1-.9,3.26,6.91,6.91,0,0,0-.9,1.73Z"/><path d="M28,146.23c-.08,0-.23-.11-.23-.17a.85.85,0,0,1,.12-.5c.53-.71,1.14-1.36,1.62-2.1.59-.92,1.06-1.93,1.61-2.88a14.39,14.39,0,0,1,1-1.41.39.39,0,0,1,.39,0,.35.35,0,0,1,.05.37c-1.18,2-2.11,4.21-3.72,6a9.86,9.86,0,0,0-.62.92Z"/><path d="M23.86,171.94a21.41,21.41,0,0,1-.44,2.6,3.15,3.15,0,0,1-.85,1.11c-.05.06-.31,0-.38,0a.39.39,0,0,1,0-.39c1.59-2,.85-4.21.73-6.38,0-.22-.11-.43-.14-.65a.43.43,0,0,1,.11-.28c.13,0,.33,0,.37.12a2.33,2.33,0,0,1,.3.82C23.67,169.8,23.75,170.75,23.86,171.94Z"/><path d="M57.83,168a16.13,16.13,0,0,1-1.1,2.13,1.25,1.25,0,0,1-1.14.35c-.54-.19-.29-.72-.15-1.14a2.54,2.54,0,0,1,1.62-1.92,3.93,3.93,0,0,0,.62-.3Z"/><path d="M12.54,171c-.25,1.11-.44,2.08-.68,3a1.88,1.88,0,0,1-.43.75c-.09.1-.32.08-.48.12a1.35,1.35,0,0,1,0-.49c.18-.63.41-1.25.6-1.88a6.57,6.57,0,0,0-.41-4.3,2.17,2.17,0,0,1,0-.76c.2.18.53.32.6.54C12.06,169,12.29,170,12.54,171Z"/><path d="M43,182.28c-.36,1.72-.72,3.44-1.1,5.15a2.31,2.31,0,0,1-.38.79c-.11.14-.35.19-.53.28,0-.19-.13-.43-.05-.57a15.1,15.1,0,0,0,1.3-6.32,2.27,2.27,0,0,1,.26-.64,2.76,2.76,0,0,1,.31.62,2.34,2.34,0,0,1,0,.65Z"/><path d="M39.79,181.45a6.92,6.92,0,0,1-1.23,4.1c-.11.2-.43.29-.65.43,0-.27-.07-.6.06-.78a6.31,6.31,0,0,0,1.18-4.29,9.5,9.5,0,0,0-.36-1.34,5.62,5.62,0,0,1-.09-.57c.2.06.52.07.58.2a11,11,0,0,1,.5,1.5A3.43,3.43,0,0,1,39.79,181.45Z"/><path d="M2.05,152.74c-.14,1.61-.26,3.23-.42,4.84a2.37,2.37,0,0,1-.35.69,2.46,2.46,0,0,1-.24-.79c0-1.1.11-2.21.19-3.31.06-.73.12-1.47.21-2.2a1.56,1.56,0,0,1,.22-.45c.12.15.3.28.35.45a3.29,3.29,0,0,1,0,.77Z"/><path d="M54.15,174.69c-.08-.83-.16-1.6-.21-2.36,0-.13.16-.27.25-.41.09.1.23.19.26.31a7.42,7.42,0,0,1-.45,5.55.88.88,0,0,1-.36.4,1.54,1.54,0,0,1-.6,0c0-.16,0-.39.1-.48C54.07,176.85,54,175.71,54.15,174.69Z"/><path d="M30.93,184.7c0,.07-.11.25-.14.24s-.37-.08-.44-.19c-.38-.59-.73-1.19-1.06-1.8-.55-1-1.09-2-1.62-3-.06-.12,0-.32,0-.48l.48.11a.2.2,0,0,1,.08.08c.88,1.6,1.77,3.2,2.65,4.81A.75.75,0,0,1,30.93,184.7Z"/><path d="M17.48,177.31l-.33.49c-.11-.17-.29-.32-.34-.5-.31-1.37-.59-2.73-.88-4.1-.06-.29-.19-.56-.22-.85a4.35,4.35,0,0,1,.07-.88c.17.21.45.39.51.63C16.71,173.81,17.08,175.54,17.48,177.31Z"/><path d="M50,154.21a8.3,8.3,0,0,1-.25,1.2.68.68,0,0,1-1.27.17c-.21-.27-.31-.58.16-.63.67-.07.64-.53.58-1-.08-.66-.25-1.3-.34-2,0-.16.13-.35.2-.53.12.12.32.21.36.35C49.7,152.67,49.87,153.49,50,154.21Z"/><path d="M37.94,143.8a10.64,10.64,0,0,1-.57,1.76,1.38,1.38,0,0,1-1.66.76c-.22-.11-.36-.4-.54-.61a1.85,1.85,0,0,1,.64-.12.79.79,0,0,0,1-.6c.17-.55.18-1.15.31-1.71a4.13,4.13,0,0,1,.35-.81c.11.28.23.56.32.85a1.62,1.62,0,0,1,0,.44Z"/><path d="M33.35,185.06c-.23-1-.47-2.08-.67-3.13a1.93,1.93,0,0,1,.11-.65c.16.13.38.24.45.41a8.76,8.76,0,0,1,.59,4.44c0,.15-.27.27-.41.4a1.67,1.67,0,0,1-.21-.45c0-.33,0-.66,0-1Z"/><path d="M67.59,154.23a2.28,2.28,0,0,1-1,2.13c-.69.43-1.23.27-1.49-.47a2,2,0,0,1,0-.72,2,2,0,0,1,.57.27c.41.43.76.25,1-.11a4.56,4.56,0,0,0,.33-.92c.1-.24.24-.46.36-.69Z"/><path d="M37.3,188.53a6.15,6.15,0,0,1-.7,1.06,4,4,0,0,1-1.11.73,2.28,2.28,0,0,1-.66.11,4.32,4.32,0,0,1,.34-.64,1.44,1.44,0,0,1,.45-.31,1.48,1.48,0,0,0,.88-1.62,2.84,2.84,0,0,1,.22-.88c.16.29.33.56.47.86A3.52,3.52,0,0,1,37.3,188.53Z"/><path d="M33.78,143.74a1.67,1.67,0,0,1,0-.44A.56.56,0,0,1,34,143s.19.09.25.16A2.09,2.09,0,0,1,33.5,146c-.14,0-.33,0-.49-.05,0-.16,0-.38.14-.47A1.62,1.62,0,0,0,33.78,143.74Z"/><path d="M40.6,185c-.27.77-.53,1.53-.82,2.27-.05.11-.28.16-.42.23a1.24,1.24,0,0,1-.11-.48c.19-.74.38-1.47.62-2.2.07-.19.29-.34.44-.51Z"/><path d="M.56,171a8.66,8.66,0,0,1,0,3.21H.32V171Z"/><path d="M55.38,106.11c2.13.28,4,.44,5.91.8a2.79,2.79,0,0,1,2.21,2.48,1.29,1.29,0,0,1-.84,1.6c-2.55.94-5,2.13-7.77,2.44a6.2,6.2,0,0,1-2.19-.12c-1.31-.33-2.59-.8-3.88-1.24a1.05,1.05,0,0,1-.86-1,1.23,1.23,0,0,1,.8-1.21c.56-.26,1.16-.46,1.72-.74.76-.39,1.71-.6,1.64-1.8,0-.18.34-.5.58-.56C53.65,106.47,54.61,106.28,55.38,106.11Zm4.22,1.18c-.06,0-.21,0-.35,0-.83.15-.89.31-.48,1.06a12.11,12.11,0,0,1,.51,1.1c.7,1.77.22,1.88,2.47,1.12.14,0,.28-.12.41-.18a.89.89,0,0,0,.49-1.27A3,3,0,0,0,59.6,107.29Zm-7,5.27c0-.15.06-.3,0-.4-.21-.42-.49-.8-.66-1.23a13.62,13.62,0,0,1-.38-1.39l-1.45.49a2.5,2.5,0,0,0-.61.24,7.06,7.06,0,0,0-.72.63,4.07,4.07,0,0,0,.81.64c.84.33,1.71.6,2.57.89Z"/><path d="M56.05,116.87c-2.44.3-4.29-1.15-6.29-2.14-.18-.08-.24-.39-.36-.6.26,0,.55-.13.77,0a9.68,9.68,0,0,1,1.56.82,8.11,8.11,0,0,0,7.09.87,28.37,28.37,0,0,1,3.57-.64c1.16-.19,2.36-.26,3.08-1.42.25-.4.51-.17.64.12.25.53-.11.8-.51,1a11.3,11.3,0,0,1-4.45,1.16c-1,.15-1.94.41-2.91.57C57.52,116.74,56.78,116.79,56.05,116.87Z"/><path d="M44.9,160.5a48.59,48.59,0,0,1-.86,4.83,6.92,6.92,0,0,1-3.9,4.3,20,20,0,0,1-3.23,1.15A4.19,4.19,0,0,1,32,168.72c-.38-.71-.65-1.49-1-2.21a21.46,21.46,0,0,0-4.33-5.43c-.87-.89-1-1.21-.06-2.09a18.66,18.66,0,0,0,3.67-4.82A4.82,4.82,0,0,1,35,151.53a8.21,8.21,0,0,1,3.88.65,5.42,5.42,0,0,0,1.48.46c2.25.4,3.27,1.92,3.71,4C44.37,157.91,44.63,159.2,44.9,160.5Z"/></svg>