<svg id="Layer_1" data-name="Layer 1" xmlns="http://www.w3.org/2000/svg" viewBox="0 0 200 200"><path d="M171.3,42H29.7A17.76,17.76,0,0,0,12,59.7v85.55A17.75,17.75,0,0,0,29.7,163H171.3a17.75,17.75,0,0,0,17.7-17.7V59.7A17.75,17.75,0,0,0,171.3,42ZM96.37,142.3H45.63c-5.61,0-10-6.19-10-12.09.3-8.85,9.44-14.16,19.18-18.59,6.78-3,7.66-5.6,7.66-8.55s-1.77-5.61-4.13-7.67a20,20,0,0,1-6.19-14.75C52.12,69.44,58.9,60,70.7,60s18.59,9.44,18.59,20.65c0,5.9-2.07,11.21-6.2,14.75-2.36,2.06-4.13,4.72-4.13,7.67s.89,5.6,7.67,8.26c9.74,4.13,18.88,10,19.18,18.88C106.4,136.11,102,142.3,96.37,142.3Zm69-20.65a5.92,5.92,0,0,1-5.9,5.9H133a5.92,5.92,0,0,1-5.9-5.9V112.8a5.92,5.92,0,0,1,5.9-5.9H159.5a5.92,5.92,0,0,1,5.9,5.9Zm0-32.45a5.92,5.92,0,0,1-5.9,5.9H115.25a5.92,5.92,0,0,1-5.9-5.9V80.35a5.92,5.92,0,0,1,5.9-5.9H159.5a5.92,5.92,0,0,1,5.9,5.9Z"/></svg>