<svg id="Layer_1" data-name="Layer 1" xmlns="http://www.w3.org/2000/svg" viewBox="0 0 200 200"><g id="y5rwtK"><path d="M42.43,136.86a48,48,0,0,0,5.39-.57c3-.64,4-2.39,3.24-5.32-2.82-11.67-15.53-16.77-25-10C25,121.81,24,122.9,23,123.84a44.84,44.84,0,0,1-4,3.42c-4.09,2.84-8.41,2.33-11.45-1.22a9.42,9.42,0,0,1,.14-12.27c2.79-3,6.23-3.61,10.18-1.82a29.23,29.23,0,0,0,6.37,2.52c9.45,1.79,19-5.43,20.31-15.14q.38-2.83.64-5.7c.56-5.79-5.28-10.9-11-10.18-2,.26-4,.91-6,1.33a19.37,19.37,0,0,1-3.9.59C18.26,85.31,15,79.8,17.8,74.6a9.82,9.82,0,0,1,9.28-5.39,6,6,0,0,1,3.37,1.46,13.57,13.57,0,0,1,2.32,3,13.89,13.89,0,0,0,8,5.87,9.59,9.59,0,0,0,11.13-4.21c4.36-7,5.19-14.51,2-22.22a16.67,16.67,0,0,0-11-9.82,64.07,64.07,0,0,1-6.41-2.11c-4.53-1.91-5.75-5.59-3.46-9.95,1.88-3.59,5.16-5.53,8.81-5.2a9.27,9.27,0,0,1,8.39,6.74c.58,2,.87,4,1.35,6C53,44.66,55.68,49.68,60.94,53c5.54,3.5,11.94,3.3,16.58-.56a12.41,12.41,0,0,0,2.57-3,5.67,5.67,0,0,0-.74-7.3,33.67,33.67,0,0,0-3.65-2.93,46.11,46.11,0,0,1-4.39-3.43C69,33.49,69,30.49,71.2,28c3.22-3.64,9.86-3.7,13-.12a5,5,0,0,1,.84,6.34c-.42.83-.87,1.64-1.34,2.45-2.88,5,1.35,11.22,7,10.88,7-.42,14.58-6.14,15.61-13.89a13.67,13.67,0,0,0-2.62-9.84c-1.06-1.53-2.26-3-3.26-4.54-3-4.66-1.26-9.15,4.08-10.57A15.07,15.07,0,0,1,115.88,10c3.83,2.05,4.75,5.5,2.37,9.13a17.44,17.44,0,0,1-3.17,3.43,15.68,15.68,0,0,0,3.29,26.14A47.4,47.4,0,0,0,128,52.19c5.09,1.2,11.79-2.84,11.29-9.72a29,29,0,0,1,0-3.09c.09-3.54,1.93-5.77,5.41-6.23a10.33,10.33,0,0,1,9.44,3.38c2.72,3,2.07,6.37-1.52,8.24A31,31,0,0,1,149,46.22c-1.33.5-2.67,1-4,1.4-5.44,1.65-6.21,6-5.66,10.06a11.88,11.88,0,0,0,3,6.61c6,6.45,13.35,9.48,22.22,7.88a16.46,16.46,0,0,0,9.82-6c1.28-1.54,2.49-3.15,3.81-4.66A12.77,12.77,0,0,1,184,57.67c2.95-.94,5.75-.79,8.13,1.39a8.4,8.4,0,0,1,2.51,8.33,9.47,9.47,0,0,1-11.1,7.44,36.74,36.74,0,0,1-4.69-1.22,13.64,13.64,0,0,0-12.32,2,18.19,18.19,0,0,0-8.51,17,9.5,9.5,0,0,0,.54,2.57c1.23,3.49,4.22,4.25,7.21,2.1a21.25,21.25,0,0,1,5.73-3.1,6.35,6.35,0,0,1,6.9,2.17,6.19,6.19,0,0,1,.57,7.5,7.12,7.12,0,0,1-8.14,2.47A21.69,21.69,0,0,1,167,104c-1.77-1.18-3.52-2.17-5.72-1.06a6,6,0,0,0-3.48,5.69c0,5.24,1.63,9.87,5.86,13.23,5.09,4.05,10.79,6.26,17.45,5.51a48.15,48.15,0,0,1,7.78-.25c4.53.24,7.1,2.63,7.21,6.37S193.3,140.37,189,141a8.75,8.75,0,0,1-7.8-2.53c-1.17-1.18-2.28-2.44-3.44-3.63a23.34,23.34,0,0,0-11.1-6.87,13.28,13.28,0,0,0-12.2,2.49,32.27,32.27,0,0,0-5.22,5.72,5.85,5.85,0,0,0-.25,6.67,6,6,0,0,0,5.74,3.17c1.86,0,3.72-.23,5.58-.29,6.19-.2,7.76,5.72,5.33,9.48-2.2,3.4-5.17,5.65-9.35,5.8-3.81.13-6.4-2.29-6.73-6.1-.12-1.27-.14-2.54-.3-3.81-.62-4.94-4.8-6.92-9-4.31a17.59,17.59,0,0,0-6.15,22.51,27.7,27.7,0,0,0,6.52,7.89c.85.74,1.7,1.48,2.53,2.24,1.9,1.75,2.7,3.79,1.76,6.35-1,2.83-2.82,4.86-6,5.2a7.74,7.74,0,0,1-7.51-3.42,5.81,5.81,0,0,1-.66-6c3.85-9.33-2.66-20.39-12.71-21.42a22.27,22.27,0,0,0-16.54,5.2c-3.49,2.78-4.07,6.19-2.12,10.25.85,1.76,1.9,3.44,2.67,5.23,1.23,2.91.56,5.51-1.8,7.74a8.25,8.25,0,0,1-9.16,1.39,7,7,0,0,1-4.25-6.64,5.4,5.4,0,0,1,2.77-4.42,10.76,10.76,0,0,0-1.84-19.08,25.6,25.6,0,0,0-17.58-.38,17.91,17.91,0,0,0-11.88,16.35c0,1.13,0,2.26-.05,3.38a6.6,6.6,0,0,1-5.15,6.53,10.68,10.68,0,0,1-8.14-.82,6.62,6.62,0,0,1-3.88-6.69,6.05,6.05,0,0,1,4.82-5.8,21.06,21.06,0,0,0,12.54-9.13c4.17-6.39,5.2-13.06,1-19.9a12.88,12.88,0,0,0-2.57-3,4.68,4.68,0,0,0-7,.28,22.59,22.59,0,0,0-2.64,3.68,8.46,8.46,0,0,1-14.18,0,4.62,4.62,0,0,1,2.65-6.9,23.87,23.87,0,0,1,4.89-.77,13.06,13.06,0,0,1,1.77,0ZM78.15,93c-8.67-.06-14.24,5.65-13.62,14a18.75,18.75,0,0,0,4,10.28A14.38,14.38,0,0,0,87.2,121a14.8,14.8,0,0,0,6.55-18.15C91.36,96.69,85.57,93,78.15,93Zm23.7-29.46a10.13,10.13,0,0,0-8.71,5.62c-2.76,5.09-.61,12.56,4.42,15.66a7.74,7.74,0,0,0,6.9.74,13.2,13.2,0,0,0,7.24-6.34C115.65,72.05,110.61,63.51,101.85,63.49ZM139.94,96.8c0-5.47-3.63-8.81-9.51-8.81s-10,4.05-10,9.5a9.79,9.79,0,0,0,9.8,9.66C135.84,107.15,140,102.75,139.94,96.8Zm-19.38,34c0-4.57-2.77-8.25-6.36-8.33a7.57,7.57,0,0,0-.13,15.14C117.89,137.65,120.52,134.89,120.56,130.82Z"/></g></svg>