<svg id="Layer_1" data-name="Layer 1" xmlns="http://www.w3.org/2000/svg" viewBox="0 0 200 200"><path d="M167.31,54.25c-.4-12.14-.63-28.53-.51-40.67a5.17,5.17,0,0,0-.2-1.47c.24-2.65-1.32-5.44-4.71-5.35C119.12,7.88,76.36,6.2,33.58,6.14,30,6.13,28.47,9.26,28.9,12a5.19,5.19,0,0,0-.23,1.58c.65,51,2.4,124.37,2.45,175.42a4.74,4.74,0,0,0,.85,2.81,4.42,4.42,0,0,0,4.68,4c18.49-.46,37-.76,55.46-1.66,16.46-.81,37,.27,52.72-5.1a39.64,39.64,0,0,0,14.83-8.79c7.81-7.45,10.48-17.44,11.15-28,.65-10.12-.55-20.73-.78-30.05C169.42,98.17,168.1,78.32,167.31,54.25Zm-27.07,91c-3,0-5.91,2.36-4.57,6,2.71,7.27,3.94,16.28-.22,23.23-5,8.4-14,8.17-22.54,9.25-5.22.66-10.77.31-16,.46-4.1.11-55.95,1.38-55.95,1.58-.12-49.13-1.74-120.56-2.4-169.7,39.49.18,79,1.53,118.46.69-.15,40.34,3.43,98.65,3.64,130.53a51.26,51.26,0,0,0-19-2.31A5,5,0,0,0,140.24,145.29Zm3.86,33.58c4-6.76,5-15.05,2.89-24a39.57,39.57,0,0,1,13.95,3s0,.11.05.17C159.54,168.65,152.81,175.18,144.1,178.87Z"/><path d="M77.66,108.9c-15.14.87-20.61-28.21-5.15-30.21,6.26-.81,6.34-10.76,0-9.94-28.47,3.68-22.77,51.7,5.15,50.09C84,118.48,84.07,108.53,77.66,108.9Z"/><path d="M101.68,85.09c-2.75-4.82-2-6.48,3.46-8,6.14-1.78,3.53-11.37-2.65-9.59-11.74,3.4-15.08,12.09-9.4,22.66,2.32,4.31,5.42,8.15,7.77,12.44,2.79,5.13-1.36,5-6.62,5.61-6.31.68-6.37,10.63,0,9.94,11.79-1.27,21.53-6.91,15.63-19.73C107.7,93.66,104.25,89.58,101.68,85.09Z"/><path d="M128.2,85.09c-2.75-4.82-2-6.48,3.46-8,6.14-1.78,3.53-11.37-2.65-9.59-11.73,3.4-15.08,12.09-9.4,22.66,2.32,4.31,5.42,8.15,7.77,12.44,2.8,5.13-1.36,5-6.62,5.61-6.31.68-6.37,10.63,0,9.94,11.79-1.27,21.53-6.91,15.63-19.73C134.22,93.66,130.77,89.58,128.2,85.09Z"/></svg>