<svg id="Layer_1" data-name="Layer 1" xmlns="http://www.w3.org/2000/svg" viewBox="0 0 200 200"><g id="r3aDzJ.tif"><path d="M116.63,71.51h60.52c1.43,0,2.86,0,4.28,0,10.14.14,15.53,5.4,15.66,15.4.07,5.5,0,11,0,16.51q0,29,0,58.07c0,11-5.41,16.45-16.58,16.47q-63.89.08-127.77,0a26.6,26.6,0,0,1-6-.67c-6.61-1.58-10.56-6.11-11.27-12.79a46.66,46.66,0,0,1-.08-4.88V89.93c0-1.23,0-2.45,0-3.67.43-9.21,6-14.69,15.23-14.72C72.62,71.46,94.63,71.52,116.63,71.51ZM67.17,95v0H62.91c-1.42,0-2.85-.06-4.26,0-4.21.29-6,1.84-6.15,5.93-.2,4.86-.19,9.74,0,14.6.16,4,2,5.79,6.21,5.93,5.67.2,11.36.19,17,0,4.25-.14,6.52-2.18,6.79-6.29a105.19,105.19,0,0,0,0-14C82.2,97,80,95.2,75.69,95,72.85,94.88,70,95,67.17,95ZM80,157.24c-7.75,0-15.5,0-23.24,0a23.13,23.13,0,0,0-4.24.37,1.72,1.72,0,0,0-.91,1.36,1.83,1.83,0,0,0,.92,1.39,6,6,0,0,0,2.37.36c16.72,0,33.43.05,50.15,0,1.13,0,2.26-1.1,3.39-1.69a17.17,17.17,0,0,0-3.38-1.68,15.4,15.4,0,0,0-3.66-.07Zm72.83-63.59c7.52,0,15,.07,22.55-.08,1.16,0,2.3-1.08,3.44-1.66a37.94,37.94,0,0,0-3.45-1.69,5.18,5.18,0,0,0-1.81,0q-20.73,0-41.45,0a18.15,18.15,0,0,0-4.15.53c-.32.07-.56.94-.63,1.47a1.13,1.13,0,0,0,.62.91,24.4,24.4,0,0,0,4.15.52C139,93.68,145.93,93.65,152.84,93.65Zm-89.08,47c-3.23,0-6.46-.15-9.67.09-.87.07-1.66,1.3-2.49,2,.7.61,1.4,1.72,2.11,1.73q9.67.22,19.34,0c.75,0,1.47-1.1,2.2-1.68-.81-.72-1.57-2-2.43-2.06C69.81,140.46,66.78,140.61,63.76,140.61Zm32.61,3.85v.08c3.23,0,6.46.15,9.67-.1.84-.06,1.58-1.37,2.36-2.11-.75-.57-1.49-1.62-2.24-1.63q-9.68-.18-19.35,0c-.71,0-1.39,1.16-2.08,1.78.66.65,1.28,1.81,2,1.85C89.92,144.57,93.15,144.46,96.37,144.46Zm33.55.11v0c3.06,0,6.13.16,9.17-.1.87-.07,1.64-1.33,2.45-2.05-.74-.58-1.46-1.66-2.21-1.67-6.32-.15-12.64-.18-19,0-.84,0-1.65,1.34-2.47,2.06.94.61,1.86,1.66,2.85,1.73C123.8,144.72,126.87,144.57,129.92,144.57Zm32.7,0v-.13c3.45,0,6.91.07,10.35-.07.59,0,1.7-1.14,1.6-1.42-.28-.81-1-1.89-1.65-2.06a21.75,21.75,0,0,0-4.85-.29c-4.68,0-9.36,0-14,.16-.79,0-1.54,1-2.31,1.58.78.75,1.51,2.05,2.35,2.13C156.91,144.69,159.78,144.52,162.62,144.52Z"/><path d="M78.47,68.41c-6.91,0-13.83-.11-20.74,0a96.09,96.09,0,0,0-13.37,1c-7,1.14-11.1,6-11.42,13-.2,4.27-.18,8.56,0,12.83.1,2.77-.69,4.56-3.42,5.68-5.83,2.41-11.59,5-17.3,7.67-2.19,1-3.26.62-4.12-1.65C6.7,103.38,5,99.92,3.51,96.33c-3.36-8.38-.58-15.44,7.67-19,14.71-6.46,29.48-12.8,44.24-19.16q36.72-15.81,73.45-31.58c1.87-.8,3.76-1.57,5.63-2.37,8.38-3.59,15.91,1.7,18.33,7.41,1.11,2.62,2.3,5.21,3.37,7.85,1.49,3.7,1.5,3.82-2,5.41C147.1,48,140,51.07,132.91,54.14c-9.52,4.13-19.08,8.17-28.57,12.36a28.22,28.22,0,0,1-13,2.49c-4.27-.21-8.56,0-12.83,0Z"/><path d="M125.42,69c-4.08,0-8.15,0-12.23,0a9,9,0,0,1-2.15-.56c.52-.55.93-1.34,1.57-1.61,8.78-3.8,17.58-7.53,26.39-11.28,5.8-2.47,11.64-4.87,17.41-7.42,2.06-.9,3.18-.77,4.17,1.58,4.22,10.07,4.86,7.79-4.22,12.13-.74.35-1.54.56-2.24,1C145.21,67.85,135.76,70.44,125.42,69Z"/><path d="M32,161.4c-.83-1.56-1.78-3.06-2.49-4.68q-5.32-12.3-10.55-24.65c-1.63-3.83-1.6-3.88,2.31-5.72,2.76-1.29,5.55-2.54,8.37-3.68,2.63-1.06,3.18-.75,3.22,2.19.1,8.34,0,16.68.06,25v11.34Z"/><path d="M32.87,111.36c1.16,4.53-1.47,7.15-6.19,8.63-2.5.79-4.82,2.14-7.24,3.17-3.55,1.52-3.56,1.49-5.33-2.18-3.53-7.27-3.53-7.27,3.92-10.74,3.86-1.8,7.7-3.63,11.6-5.34,2.67-1.17,3.08-.86,3.23,2.08C32.93,108.19,32.87,109.41,32.87,111.36Z"/><path d="M152.29,67.74c3.76-1.72,7.49-3.5,11.3-5.09.71-.3,2.3-.12,2.53.33a31.51,31.51,0,0,1,1.7,5,19.79,19.79,0,0,1-2.82.48c-4.15,0-8.3,0-12.45,0Z"/><path d="M63,106c.12-2.21.18-3.42.25-4.63.15-2.59,1.26-4.09,4.11-4.11,3.23,0,4.58.7,4.72,4a39,39,0,0,1-1,10.1c-.23,1.09-2.22,2.47-3.42,2.48a4.76,4.76,0,0,1-3.55-2.41A21.31,21.31,0,0,1,63,106Z"/><path d="M67.27,116.6c3.24,0,6.49,0,9.73,0a5.31,5.31,0,0,1,1.64.64c-.56.51-1.11,1-1.68,1.52a1,1,0,0,1-.58.17c-6.27,0-12.54-.06-18.81-.21-.56,0-1.1-1-1.65-1.47a4.9,4.9,0,0,1,1.61-.66C60.77,116.57,64,116.6,67.27,116.6Z"/><path d="M59,114.16c-3,0-4.34-.57-4.16-2.76.16-2,1.63-2,3.06-2,1.77,0,3.55.41,3.22,2.48C60.92,113,59.32,113.81,59,114.16Z"/><path d="M78.17,109.78c.11.15,1.28,1,1.37,2,.23,2.34-1.73,2.34-3.37,2.33-1.17,0-2.69,0-2.39-1.81C74.05,110.68,74.69,109.11,78.17,109.78Z"/><path d="M57,108.29c-1-1.9-2-2.87-2.06-3.91-.18-1.85,1.28-2.14,2.8-2.1,1.75,0,2.72,1,2.27,2.61C59.68,105.9,58.48,106.65,57,108.29Z"/><path d="M81.32,104.78c-2.38,1.18-3.48,2.15-4.5,2.08a3,3,0,0,1-1.91-2.3A3,3,0,0,1,77,102.44C78,102.44,79,103.47,81.32,104.78Z"/><path d="M58,100.28,55.88,99a13.12,13.12,0,0,1,2.93-1.55c.5-.13,1.22.63,1.85,1Z"/><path d="M75.33,96.13,78.65,99c-.59.3-1.24.92-1.76.82a3.18,3.18,0,0,1-2.08-1.25C74.54,98,75.09,97.08,75.33,96.13Z"/></g></svg>