<svg id="Layer_1" data-name="Layer 1" xmlns="http://www.w3.org/2000/svg" viewBox="0 0 200 200"><g id="NNb07u.tif"><path d="M52,64H72V77.16L61.22,84,50.33,91l21,13.82-.18.47H52L41.23,97.47l-12,7.87H10.81l-.22-.46L31.85,91.37,9.36,77.25V66.81H28.69V78.43c7.82.36,15.3.16,23.26.24V64Z"/><path d="M76.05,105.45c-.94-3.49-.82-38.75,0-41.11.09,0,.19-.14.29-.14,6.12.07,12.29-.27,18.36.33,8.8.88,18.3,9.67,17,22.58-1,10-9.92,18.22-20.41,18.33C86.31,105.5,81.25,105.45,76.05,105.45Zm9-8.91c6,.58,11.45.39,15-5.16a12.89,12.89,0,0,0-.64-14.23c-3-3.93-8.57-5.39-14.41-3.74Z"/><path d="M151.06,84.76v16.9c-12.7,8.28-30.08,4.78-35.23-9.89a21.31,21.31,0,0,1,7.78-24.33,21.63,21.63,0,0,1,25.87.84,22.4,22.4,0,0,1,1.74,1.85l-6,6.26a12.52,12.52,0,0,0-11-3.19,10.9,10.9,0,0,0-6.29,3.71,11.79,11.79,0,0,0-.87,14.6c3.12,4.53,8.51,6.07,14.55,4a11.18,11.18,0,0,0,.3-1.39,10.44,10.44,0,0,0-.08-1.47l-4.69-.81V84.79C139.84,83.83,148.29,83.82,151.06,84.76Z"/><path d="M185.59,93.29l5.4,5.63c-1.56,4.64-11.24,8.25-18.12,6.94-9.89-1.89-17.18-9.4-17.94-18.57-.85-10.13,4.4-18.79,13.45-22.36,8.43-3.33,18.86-.65,22.56,4.91-1.13,2.41-3.39,3.93-5.37,6.09l-2.43-1.5c-5.11-3.17-11.25-2.44-15,1.78A12.47,12.47,0,0,0,167.41,92a11.83,11.83,0,0,0,14.83,3.19C183.28,94.65,184.27,94,185.59,93.29Z"/><path d="M23.54,150a14.55,14.55,0,1,1,14.73-14.47A14.58,14.58,0,0,1,23.54,150Zm.09-6.61a8.1,8.1,0,0,0,8.1-8,8.29,8.29,0,0,0-8.15-8,8.05,8.05,0,0,0-7.82,7.88A7.85,7.85,0,0,0,23.63,143.39Z"/><path d="M163.93,135.61A14.46,14.46,0,1,1,178.28,150,14.44,14.44,0,0,1,163.93,135.61Zm14.39,7.78a8,8,0,0,0,8.08-7.93,8.23,8.23,0,0,0-8.09-8,8.05,8.05,0,0,0-7.84,7.86A7.83,7.83,0,0,0,178.32,143.39Z"/><path d="M124,121.46c4.73,0,9.35-.2,13.94.06,3.44.2,6.39,3.16,7.23,6.53a8.31,8.31,0,0,1-3.37,8.79c-.68.5-1.4.94-2.22,1.48l5.77,10.91h-7.11l-5.4-10.55-2.69-.14V149.3H124Zm13.2,6h-6.87v5.9c1.79,0,3.37,0,4.95,0s2.8-.36,3.43-1.9S138.8,128.51,137.24,127.42Z"/><path d="M50.15,134.65v14.61H44.57c-.76-2.56-.8-25.48.07-28.6a22.52,22.52,0,0,1,2.83,2c3.84,3.62,7.61,7.31,11.43,11,.75.72,1.57,1.35,2.94,2.5V121.58h6.23v28c-1.66.9-2.33-.35-3.12-1.12-4.21-4.17-8.38-8.38-12.56-12.57-.52-.51-1-1-1.58-1.5Z"/><path d="M52,64a1.21,1.21,0,0,1-.31.09H10.25c-.1,0-.19-.08-.57-.26V55H52v9Z"/><path d="M106,121c1.64,1.51,12.3,23.7,13.44,28.14h-6l-2-3.6H100.65l-2.07,3.76H92.83C93,146.59,104.08,122.94,106,121Zm3,18.67-3-6.26-2.87,6.26Z"/><path d="M79.79,127.35h-6.3V121.4c6.2,0,12.47,0,19,0v5.9H86.19v21.93h-6.4Z"/><path d="M151.89,121.52h5.62c.85,2.32,1,24.23.19,27.74h-5.81Z"/></g></svg>