<svg id="Layer_1" data-name="Layer 1" xmlns="http://www.w3.org/2000/svg" viewBox="0 0 200 200"><g id="qpVFWO.tif"><path d="M34.85,8H165.34a9.33,9.33,0,0,0,1.52.58c11.48,2.4,17.45,9.66,17.45,21.29q0,78.55,0,157.11c0,1.43-.11,2.86-.21,5l-43.2-36.93-.72.54c1.5,4.9,3,9.8,4.62,15.17h-4.37q-51.69,0-103.38,0c-13.67,0-21.16-7.46-21.16-21q0-60.7,0-121.42c0-9.51,5.3-16.65,14.23-19.22C31.67,8.7,33.27,8.38,34.85,8ZM85,52.49c-10.1-.18-18.91,3.3-26.84,9.21A4.78,4.78,0,0,0,57,63.38c-7.78,15.46-12.53,31.74-12.92,49.1a10.13,10.13,0,0,0,2.73,6.37c6.4,6.84,14.81,9.47,23.86,10.39a3.9,3.9,0,0,0,2.89-.87c1.9-2,3.53-4.33,5-6.14l-14.27-8.76.63-1c39.82,11.85,39.82,11.85,70.71-.39l.57,1-15,8.75c2.72,2.53,3.55,7.54,9.19,6.82,9.2-1.16,17.55-4.23,24.11-11a9,9,0,0,0,2.26-6,113.54,113.54,0,0,0-12.55-47.12,10.47,10.47,0,0,0-3-3.75,46.55,46.55,0,0,0-21.91-8.49,33.78,33.78,0,0,0-3.63,0l-.15,1.22c2.22.81,4.48,1.55,6.66,2.46s4.5,2,6.69,3.1c2,1,4,2.21,6,3.33-23.71-8.93-47.11-8.88-70.57.75l-.37-1.44Z"/><path d="M92.26,96a9.85,9.85,0,0,1-10,10.13c-5.65-.06-9.77-4.5-9.68-10.42a9.85,9.85,0,1,1,19.7.29Z"/><path d="M127.62,96c0,5.85-4.28,10.2-10,10.13s-9.85-4.48-9.74-10.34a9.85,9.85,0,1,1,19.69.21Z"/></g></svg>