<svg id="Layer_1" data-name="Layer 1" xmlns="http://www.w3.org/2000/svg" viewBox="0 0 200 200"><g id="GB4j6C.tif"><path d="M17,156.64c.16-.87.29-1.74.49-2.59,2.47-10.64,15.09-14.4,23.11-8.82l1.62,1.14c0-3.47,0-6.69,0-9.91,0-2.23.78-3.18,2.55-3.18s2.48.86,2.5,2.72c0,3.77,0,7.54,0,11.31,0,3.51,0,7,0,10.53,0,7.81-4.82,13.48-12.56,14.91A4.3,4.3,0,0,0,34,173H30.22a4.16,4.16,0,0,0-.72-.26,14.77,14.77,0,0,1-12-11.47c-.18-.8-.3-1.62-.45-2.43Zm25.22,1a10,10,0,0,0-10.14-9.83,9.89,9.89,0,0,0-9.87,10.05,10,10,0,1,0,20-.22Z"/><path d="M146.65,173a44.09,44.09,0,0,1-5.81-2.22,14.33,14.33,0,0,1-7.65-13,14.1,14.1,0,0,1,7.6-13c7.15-4,15.79-2.07,20,4.35,1.49,2.26,1.31,3.53-.74,5.29L146.47,166c-.38.33-.73.69-1.27,1.2a10.41,10.41,0,0,0,6.35,0c.78-.28,1.56-.61,2.35-.86a2.36,2.36,0,0,1,3.12,1.28,2.29,2.29,0,0,1-1.11,3.2c-1.76.86-3.65,1.48-5.48,2.21Zm9.21-21.86a10,10,0,0,0-14.43-.71c-3.75,3.45-4.08,10.2-.59,13.65Z"/><path d="M63.26,173c-.6-.16-1.19-.32-1.79-.46a14.81,14.81,0,0,1-11.15-13.93c-.15-8.14,4.38-14.11,11.87-15.65a15.14,15.14,0,0,1,18,11.71c1.67,8.77-3.49,16.43-12.16,18.05a4.76,4.76,0,0,0-.71.28Zm-7.89-15.23a10,10,0,1,0,10-10A9.89,9.89,0,0,0,55.37,157.77Z"/><path d="M127.14,173c-1.48-1.39-3-2.73-4.43-4.17s-2.77-3-4.15-4.51l-.56.26c0,1.84,0,3.68,0,5.52,0,1.4-.57,2.45-2.1,2.67-1.88.28-3-.75-3-2.88,0-6.65,0-13.31,0-20,0-4.51,0-9,0-13.52,0-2.09.81-3.06,2.5-3.06s2.56,1,2.57,3c0,4.92,0,9.83,0,15.16l2.75-2.71c1.8-1.76,3.56-3.56,5.42-5.25a2.55,2.55,0,0,1,3.67.1,2.43,2.43,0,0,1-.11,3.41c-2.32,2.5-4.73,4.91-7.13,7.32-1.1,1.12-2.27,2.17-3.64,3.48,1.67,1.59,3.19,3,4.66,4.48,1.85,1.85,3.68,3.72,5.48,5.63s1.8,3.33-.39,5Z"/><path d="M96,173a4.15,4.15,0,0,0-.7-.29,14.77,14.77,0,0,1-11.85-13.84c-.38-7.56,3.71-13.77,10.51-15.64a14.63,14.63,0,0,1,11.72,1.17,2.68,2.68,0,0,1,1.43,3.4c-.5,1.24-1.84,1.68-3.47,1.25a26.26,26.26,0,0,0-5.44-1.25c-4.25-.19-7.63,2.46-9.16,6.78a9.59,9.59,0,0,0,3,10.65,10.09,10.09,0,0,0,10.75,1.66c.71-.28,1.57-.79,2.18-.61.84.25,2,1,2.14,1.66a3.28,3.28,0,0,1-.89,2.85,20.55,20.55,0,0,1-4.58,1.86,13.2,13.2,0,0,1-1.51.35Z"/><path d="M168.36,173a3.11,3.11,0,0,1-1.9-3.26c.06-4.08,0-8.17,0-12.26a14.94,14.94,0,0,1,14.35-14.61c2-.05,3.16.75,3.28,2.34s-.92,2.74-3.05,2.82a9.84,9.84,0,0,0-5.9,2.21,9.56,9.56,0,0,0-3.6,7.85c0,3.82-.06,7.65,0,11.47a3.55,3.55,0,0,1-1.64,3.44Z"/><path d="M37.88,78H50.65V62.73H65.53v-15H95.42V33h18V62.7h15V77.87c7.95.35,15.7.36,22.86-3.9-3.53-5.31-4.11-11.08-2.91-17.09A15.41,15.41,0,0,1,153,48.23c5.9,3.9,8.89,8.2,11.41,16.37,6.73-1.6,13.17-1.18,19.13,2.88a18.29,18.29,0,0,1-13.65,11.68,40.57,40.57,0,0,1-7.47.81,2,2,0,0,0-2.17,1.45A73.23,73.23,0,0,1,141.69,108c-10.29,9.24-22.4,14.77-35.86,17.48A89.53,89.53,0,0,1,78.61,127c-15.08-1.61-27.5-7.93-35.6-21.23-4.65-7.64-6.09-16.08-5.41-24.93C37.67,80,37.77,79.1,37.88,78Zm35.43,30.78c-7.92,2.06-15.84,2.09-24.14,1.79a45.93,45.93,0,0,0,18.46,11.78c6.76,2.27,18,3.2,21.42,2.25C82,121.08,76.54,116.13,73.31,108.75ZM66,65.26H53.25V78H66Zm59.8,0H113V78h12.84ZM83.1,78H95.89V65.28H83.1ZM110.78,48.2V35.42H98V48.2ZM68.12,78H80.88V65.3H68.12ZM110.8,65.33H98V78H110.8Zm-42.67-15V63.09H80.87V50.33Zm27.76,0H83.14V63.07H95.89ZM110.77,63.1V50.38H98.05V63.1Zm-27,39.64a3.54,3.54,0,1,0-3.61,3.53A3.53,3.53,0,0,0,83.74,102.74Z"/><path d="M80.67,100.31c-.1,1.78.13,2,1.93,1.8.23,1.78-.72,3.08-2.3,3.16a2.55,2.55,0,0,1-2.62-2.52C77.66,101.08,78.78,100.16,80.67,100.31Z"/></g></svg>