<svg id="Layer_1" data-name="Layer 1" xmlns="http://www.w3.org/2000/svg" viewBox="0 0 200 200"><g id="iU6yQ7"><path d="M132.37,131.67c-10.63.41-20.64-3.28-30.71-6.57C97.8,123.84,94,122.35,90.22,121c-2.55-.94-3.66-.41-3.9,2.28a29.2,29.2,0,0,1-5.68,14.51,33.61,33.61,0,0,0-6.19,20.06A84.26,84.26,0,0,0,75,168,10.33,10.33,0,0,0,80,175.7a7.39,7.39,0,0,1,3.65,4.57,1.89,1.89,0,0,1-1.3,2.49,3.78,3.78,0,0,1-1.31.3c-2.55,0-5.12.08-7.65-.14a7.68,7.68,0,0,1-7-5.39c-1.16-3.35-2.16-6.77-3-10.21-1.18-4.66-2.26-9.35-3.18-14.07a39.9,39.9,0,0,1-.66-7.16,43,43,0,0,0-3-15.7,55.12,55.12,0,0,1-3.75-28.58,7.71,7.71,0,0,0,0-1.17c-4-1-8.08-1.78-11.94-3.09C30.54,94,21.72,88.31,15.64,79c-3.9-6-6.13-12.48-5.58-19.74A14,14,0,0,1,10.64,57l.57,0A7.83,7.83,0,0,1,11.86,59c.09,6.2,2.75,11.29,7.06,15.46C28.76,84,40.49,89.38,54.32,89.84c1.72,0,2.68-1,3.65-2A24.29,24.29,0,0,1,73.73,80.2,96.24,96.24,0,0,1,87.53,80c11.89.37,23.76.7,35.47-2,11.47-2.61,20.48-8.62,26.31-19q.3-.52.57-1.05a.61.61,0,0,0,0-.26,19.73,19.73,0,0,1-2.79-1,3.17,3.17,0,0,1-1.65-4.41A13.25,13.25,0,0,1,147.32,49a23.74,23.74,0,0,1,7.84-6.44c2.36-1.23,2.89-1.18,5.23.25,2-2.44,4.69-2.74,7.6-2.46a19.91,19.91,0,0,1,10.68,4,9.59,9.59,0,0,1,3.53,5.28,2.13,2.13,0,0,0,.76,1.19,29.13,29.13,0,0,0,12,4.86c2.65.43,3.84,2.82,2.41,5.07a7.62,7.62,0,0,0-.95,2.12c-1.27,5-6.46,8.72-11.48,7.8-3.16-.58-6.21-1.25-9.38-.19a8.9,8.9,0,0,1-2.36.19c-.69,3.61-1,7.24-2.11,10.62a162.67,162.67,0,0,1-6.2,16.25A63.89,63.89,0,0,0,160.67,111c-.91,4.4-3,8.27-5.15,12.11-1.64,2.92-3.44,5.76-5.22,8.61-2.64,4.23-4,9-5.11,13.73a104.14,104.14,0,0,0-2.79,24.44,3.85,3.85,0,0,0,2.66,4.06,6.23,6.23,0,0,1,4.24,4.84,2.81,2.81,0,0,1-1.58,3.38c-4.43,2.42-12.33.85-15.47-3.08a7.57,7.57,0,0,1-1.75-6.32c1.77-9.08,1.68-18.23,1.48-27.42C131.88,140.81,132.22,136.26,132.37,131.67Z"/></g></svg>