<svg id="Layer_1" data-name="Layer 1" xmlns="http://www.w3.org/2000/svg" viewBox="0 0 200 200"><path d="M86.91,81.48c0,4.57,2.42,6.52,6.53,8.32V72.73Q86.9,74.8,86.91,81.48Z"/><path d="M107.94,111.9v17.58q8.53-1.53,8.53-8.46C116.47,116.07,113,114,107.94,111.9Z"/><path d="M100.53,10.68a90.16,90.16,0,1,0,90.16,90.16A90.16,90.16,0,0,0,100.53,10.68Zm7.41,134v10.7a3.17,3.17,0,0,1-3.17,3.18H96.62a3.18,3.18,0,0,1-3.18-3.18v-11a63.18,63.18,0,0,1-24.91-8.93,3.17,3.17,0,0,1-1.14-4.13l4.36-8.51a3.21,3.21,0,0,1,2-1.63,3.14,3.14,0,0,1,2.56.44,60.51,60.51,0,0,0,17.09,7.22V107.33c-13.83-3.88-23.81-8.93-23.81-23.18,0-13.32,8.21-23.61,23.81-26.37V47.22a3.17,3.17,0,0,1,3.18-3.17h8.15a3.17,3.17,0,0,1,3.17,3.17V57.49a54.87,54.87,0,0,1,19.35,6.62,4.83,4.83,0,0,1,1.86,6.51L125.66,77a3.19,3.19,0,0,1-4.46,1.19,49.81,49.81,0,0,0-13.26-5.49v21.4c15.29,4.27,26.42,9.1,26.42,25.19C134.36,135.05,123.86,143,107.94,144.63Z"/></svg>