<svg id="Layer_1" data-name="Layer 1" xmlns="http://www.w3.org/2000/svg" viewBox="0 0 200 200"><path d="M92.05,185.84a9,9,0,0,0,.79.72l.37.28c.16.12.31.24.48.35l.46.28.44.26.49.23.46.22c.16.07.33.12.49.18l.51.17.49.13a5.11,5.11,0,0,0,.53.13c.19,0,.38.06.57.09l.47.07c.36,0,.71.05,1.06.05s.71,0,1.07-.05l.48-.07.56-.09c.18,0,.36-.09.54-.13l.48-.12.52-.19.48-.17.47-.22.48-.23.44-.26.47-.28.46-.34.38-.29c.26-.22.52-.44.76-.68l0,0,50.26-50.26a10.77,10.77,0,1,0-15.23-15.23l-31.87,31.87v-132a10.78,10.78,0,0,0-21.55,0v132L57,120.36a10.77,10.77,0,1,0-15.23,15.23Z"/></svg>