<svg id="Layer_1" data-name="Layer 1" xmlns="http://www.w3.org/2000/svg" viewBox="0 0 200 200"><g id="UIP7bH.tif"><path d="M99.3,191c-1.58-.15-3.19-.18-4.74-.48A35.39,35.39,0,0,1,73.88,178.7,36.61,36.61,0,0,1,66,163a5.85,5.85,0,0,1-.2-1.3c0-4-.35-8,.06-12,.66-6.18,3.44-11.58,7.4-16.34a35.86,35.86,0,0,1,19.39-12.27c2-.51,2.16-.72,1.42-2.69-2.33-6.15-6.35-10.62-12.73-12.73-1.63-.54-1.94-.41-2.38,1.27-2,7.46-5.64,14-11.69,18.8-12,9.58-25.2,11.27-38.95,4.43-10.91-5.42-17.24-14.67-18.94-26.74a35.34,35.34,0,0,1,23.9-38.3A23.9,23.9,0,0,1,42,63.72c3.4.14,6.85,0,10.19.53,5.5.92,10.26,3.63,14.54,7.19A34.88,34.88,0,0,1,78.82,90.09c.18.69.43,1.37.65,2a2.94,2.94,0,0,0,.21.46,5.7,5.7,0,0,0,.74-.14c6.45-1.73,10.86-5.85,13.6-11.82,1.23-2.68,1-3-1.83-3.88C78.36,72.5,69.49,63.41,66.62,49.18,64.13,36.77,67.74,26,76.84,17c6.22-6.1,13.73-9.16,22.3-9.89A5.9,5.9,0,0,0,99.87,7h3c1.21.14,2.42.24,3.62.43a35.71,35.71,0,0,1,29.32,27.13c.76,3.32.49,6.9.52,10.36a23.94,23.94,0,0,1-.57,5.86A35.46,35.46,0,0,1,122,71.18a36.5,36.5,0,0,1-13.21,6c-1.34.34-1.47.51-1,1.83,2.24,6.67,6.51,11.38,13.33,13.54,1.17.37,1.48.11,1.9-1.09a76.25,76.25,0,0,1,2.64-7.2,35.28,35.28,0,0,1,37-20,35.64,35.64,0,0,1,29.17,26.22c.54,2.1.78,4.28,1.16,6.42V102c-.05.21-.12.41-.16.62-.57,2.68-.92,5.43-1.73,8-4.41,14.16-19.28,24.7-32.93,23.81-2.77-.19-5.63.06-8.3-.54-10.54-2.34-18.12-8.76-23.52-17.92a34.23,34.23,0,0,1-3.44-9.09c-.36-1.44-.55-1.63-1.94-1.1a35.88,35.88,0,0,0-4.9,2.31,18.62,18.62,0,0,0-8.48,10.7c-.51,1.49-.31,1.84,1.23,2.28l.91.25a35.51,35.51,0,0,1,16,9.23c8.47,8.66,11.77,19,9.87,31a35.6,35.6,0,0,1-28.71,28.9c-1.68.31-3.41.35-5.12.51Zm4.94-138L104,53q.93,8.86,1.85,17.71c.08.76.41,1.09,1.17.88,1.24-.33,2.49-.6,3.7-1a29.59,29.59,0,0,0,17.58-40.27c-4.73-10.39-13.14-16.2-24.6-17.28a25.84,25.84,0,0,0-10.93,1c-12.35,4.24-19.5,12.83-21,25.74-1,9,2.05,16.95,8.42,23.48a27.83,27.83,0,0,0,14.62,8.1c1.53.3,1.63.24,1.81-1.37.45-4.22.93-8.45,1.26-12.69.2-2.55.2-5.12.16-7.68a2.8,2.8,0,0,0-.73-2,6.43,6.43,0,0,1-2.29-4c-.57-3,.75-5.15,3.13-6.79,1.54-1.07,4.88-1,6.62.15a6.1,6.1,0,0,1,1.2,9.44,5.84,5.84,0,0,0-1.79,5.16A11.45,11.45,0,0,1,104.24,53Zm-6.42,90.94h-.13c-.15-2.4-.26-4.81-.48-7.2-.27-3-.6-6-.95-9-.15-1.27-.43-1.46-1.67-1.19a31.36,31.36,0,0,0-3.25.9c-10,3.39-20.56,13.31-20.15,28.62a28.44,28.44,0,0,0,3.39,13.59c6.86,12.08,19.62,18.13,33.7,14.58a29.4,29.4,0,0,0,21.38-34.88c-2.79-12-10.5-19.43-22.32-22.66-1.55-.43-1.78-.22-2,1.39-.32,2.45-.71,4.9-.85,7.36-.27,4.46-.37,8.93-.53,13.4a2.1,2.1,0,0,0,.9,1.84,6.42,6.42,0,0,1,2,6.88,6.22,6.22,0,0,1-5.55,4.36,6.3,6.3,0,0,1-6.83-7.59,6.87,6.87,0,0,1,2.49-3.76,2.32,2.32,0,0,0,.93-2.17C97.74,146.94,97.82,145.44,97.82,143.94ZM55.4,95.82v.06c3.83-.3,7.67-.56,11.5-.9,1.87-.16,3.72-.44,5.58-.7,1.07-.15,1.21-.39,1-1.44A18.64,18.64,0,0,0,73.1,91c-4.36-14.72-18-24.5-35.11-21.12C21.81,73.07,11.67,89.81,15.69,106,21,127.22,47,135.58,63.58,121.39A28.84,28.84,0,0,0,73.41,105c.24-1.18.16-1.31-1-1.46-2.94-.38-5.89-.83-8.84-1-4.06-.27-8.13-.34-12.19-.48a2.36,2.36,0,0,0-2,.94,6.57,6.57,0,0,1-2,1.54,6.36,6.36,0,0,1-8.21-2.12,6.55,6.55,0,0,1,1-8.32c2.46-2.22,6.08-2.45,8.31-.06a5.73,5.73,0,0,0,5.29,1.85C54.27,95.78,54.84,95.82,55.4,95.82ZM157.25,69.7a39.08,39.08,0,0,0-3.92.27c-10,1.74-17.49,7.1-22.18,16.13a40.47,40.47,0,0,0-2.53,7c-.36,1.2-.11,1.4,1.16,1.56,3,.38,5.95.82,8.94,1,4,.27,7.94.34,11.9.46a2,2,0,0,0,1.9-.79,5.19,5.19,0,0,1,3.22-2.1c3.37-.87,5.9.32,7.78,3.66,1.15,2,.06,5.81-1.94,7.38-2.91,2.28-6.13,2-8.7-.74a3.44,3.44,0,0,0-2.88-1.23c-3.5.16-7,.2-10.49.46-3.33.25-6.65.72-10,1.07-.87.1-1.23.51-1,1.38.14.61.21,1.23.38,1.83,6.53,22.86,33.56,28,48.43,14.39a29.88,29.88,0,0,0,8-32.47C180.83,77.17,170.38,70,157.25,69.7Z"/><path d="M125.31,39.61a9.57,9.57,0,0,1-.28,1.91c-.15.42-.59,1.07-.85,1a1.91,1.91,0,0,1-1.31-.82,6.21,6.21,0,0,1-.65-2.13,21,21,0,0,0-6.12-12.16c-.81-.78-1.71-1.47-2.54-2.22-1-.91-1.32-1.91-.8-2.61s1.55-.59,2.64.21A23.48,23.48,0,0,1,125.31,39.61Z"/><path d="M78.73,42.66c.65,0,1,.34,1.18,1,.33,1.4.63,2.81,1,4.19a21.06,21.06,0,0,0,7.3,11.29,15.59,15.59,0,0,1,1.56,1.48,1,1,0,0,1,.14,1.51c-.47.52-1,1-1.79.62a9.85,9.85,0,0,1-1.89-1.18c-5.06-4.5-8.44-9.92-9-16.83C77.09,43.27,77.5,42.66,78.73,42.66Z"/><path d="M117.83,40.5c0,.34,0,.43,0,.52-.08,1.19-.53,1.94-1.24,2-1,0-1.22-.87-1.46-1.58-.38-1.12-.6-2.29-1-3.42a14,14,0,0,0-3.62-5.5c-.64-.64-1.24-1.32-1.89-1.95a.84.84,0,0,1-.09-1.31c.46-.48.84-1.16,1.69-.84a2.88,2.88,0,0,1,.57.32,16.12,16.12,0,0,1,7,11.58C117.83,40.43,117.83,40.59,117.83,40.5Z"/><path d="M94.12,55.16a1.3,1.3,0,0,1-1.74,1.33,6,6,0,0,1-1.64-1,17.42,17.42,0,0,1-6.19-11.3,1.69,1.69,0,0,1,1.34-1.94c.92-.2,1.3.44,1.57,1.14a6.89,6.89,0,0,1,.36,1.35,13.81,13.81,0,0,0,3.94,7.49c.64.64,1.27,1.29,1.85,2A4.07,4.07,0,0,1,94.12,55.16Z"/><path d="M124.82,153.54c0,1.38-.31,1.84-1.19,2s-1.33-.26-1.61-1.31c-.5-1.9-.86-3.84-1.49-5.7a20.27,20.27,0,0,0-6.38-9.2c-.67-.56-1.29-1.18-1.93-1.77a1,1,0,0,1-.15-1.5,2.33,2.33,0,0,1,1.5-.65A2.63,2.63,0,0,1,115,136C120.76,140.56,124.25,146.39,124.82,153.54Z"/><path d="M77.67,155.52c1.06.07,1.5.47,1.66,1.14.28,1.16.51,2.32.79,3.48a21,21,0,0,0,8.38,12.79c.68.48,1.26,1.11.89,1.95a2.17,2.17,0,0,1-1.28,1,1.68,1.68,0,0,1-1.28-.4c-5.66-4.37-9.36-9.92-10.2-17.14a3.85,3.85,0,0,1,.12-1.76C76.93,156.11,77.45,155.77,77.67,155.52Z"/><path d="M84,157a5.07,5.07,0,0,1,.6-1.41,1.22,1.22,0,0,1,2.13.51A6,6,0,0,1,87,157.2a15.57,15.57,0,0,0,4.95,9c.34.32.69.64,1,1,.85.9.85,1.2,0,2.14a1,1,0,0,1-1.46.29C86.9,166.78,84.84,162.36,84,157Z"/><path d="M117.51,154.32A1.8,1.8,0,0,1,116.1,156c-.77.16-1.16-.33-1.42-.94a5.82,5.82,0,0,1-.37-1.25,15.17,15.17,0,0,0-4.55-8.32,15.36,15.36,0,0,1-1.4-1.51c-.5-.63-.75-1.33-.07-2a1.31,1.31,0,0,1,1.94,0,43.54,43.54,0,0,1,4,3.95A15.77,15.77,0,0,1,117.51,154.32Z"/><path d="M42,75.3a8.06,8.06,0,0,1,1.3.12c.59.14,1.17.37,1.19,1.12a1.31,1.31,0,0,1-1,1.41,24,24,0,0,1-2.37.56,20.63,20.63,0,0,0-11.51,6c-1.07,1.13-2.24,2.17-3.4,3.22-.41.38-.92.71-1.51.28a1.33,1.33,0,0,1-.44-1.75,8.21,8.21,0,0,1,1.13-1.83,24.21,24.21,0,0,1,15.21-9C41.06,75.38,41.53,75.35,42,75.3Z"/><path d="M46.14,123.55a3.85,3.85,0,0,1-1.23-.46,1.33,1.33,0,0,1,.43-2.27,16.91,16.91,0,0,1,2.56-.56,21,21,0,0,0,11.74-6.33c.86-.9,1.72-1.81,2.63-2.66.54-.51,1.33-1,1.89-.36a3.6,3.6,0,0,1,.31,2.07c0,.28-.32.59-.54.85-4.2,4.86-9.14,8.49-15.68,9.46l-1.11.16Z"/><path d="M42.85,82.52a5.24,5.24,0,0,1,1.28.45c1.15.77,1,1.9-.24,2.4a23.29,23.29,0,0,1-2.52.66,14.84,14.84,0,0,0-7.07,4.19,15.44,15.44,0,0,1-1.55,1.48c-.88.7-1.49.7-2.09.13s-.4-1.38,0-2a15.76,15.76,0,0,1,6.51-5.49c1.78-.78,3.67-1.31,5.52-1.94Z"/><path d="M46.46,116c-.55,0-.9,0-1.24-.09-.66-.11-1.16-.52-1.1-1.18a1.73,1.73,0,0,1,.77-1.2,8,8,0,0,1,2.21-.71,13.85,13.85,0,0,0,7-3.86l2.22-2.15c.38-.37.77-.67,1.31-.28a1.55,1.55,0,0,1,.85,1.63,2.17,2.17,0,0,1-.3.68A16.06,16.06,0,0,1,46.46,116Z"/><path d="M137,86.73a20.11,20.11,0,0,1,1.06-1.82,25.74,25.74,0,0,1,7.24-6.43,27.79,27.79,0,0,1,10.43-3.4,1.58,1.58,0,0,1,1.63,1.24,1.23,1.23,0,0,1-.76,1.61,14.5,14.5,0,0,1-2.36.57,21.74,21.74,0,0,0-13,7.4,15.75,15.75,0,0,1-1.89,1.94,1.4,1.4,0,0,1-1.25.21A5.28,5.28,0,0,1,137,86.73Z"/><path d="M159.86,123.49a5.53,5.53,0,0,1-1.51-.3,1.19,1.19,0,0,1-.17-2.18,10.57,10.57,0,0,1,2.59-.76,21.89,21.89,0,0,0,13.35-7.72,7.17,7.17,0,0,1,1.6-1.56,1.91,1.91,0,0,1,1.52-.11,1.17,1.17,0,0,1,.52,1.62,6.19,6.19,0,0,1-.91,1.52,24.63,24.63,0,0,1-15.26,9.3C161.06,123.38,160.53,123.42,159.86,123.49Z"/><path d="M155.76,82.64c1.25,0,2,.46,2.12,1.31s-.3,1.33-1.32,1.64c-.75.23-1.53.31-2.29.52a14.14,14.14,0,0,0-6.19,3.54c-.74.72-1.47,1.44-2.26,2.1a1.3,1.3,0,0,1-1.86.13,1.38,1.38,0,0,1-.17-1.95,14.85,14.85,0,0,1,6.07-5.42A17.3,17.3,0,0,1,155.76,82.64Z"/><path d="M159.61,115.7a3.3,3.3,0,0,1-1.3,0,2.18,2.18,0,0,1-1.12-1c-.1-.26.37-.91.73-1.09a10.32,10.32,0,0,1,2.39-.79,14,14,0,0,0,7-3.89c.69-.68,1.39-1.35,2.11-2,.38-.34.75-.83,1.35-.32s1.1,1,.82,1.82a2,2,0,0,1-.23.51A15.31,15.31,0,0,1,159.61,115.7Z"/></g></svg>