<svg id="Layer_1" data-name="Layer 1" xmlns="http://www.w3.org/2000/svg" viewBox="0 0 200 200"><defs><style>.cls-1{fill:#b3b3b3;}</style></defs><g id="MmE1M2.tif"><path class="cls-1" d="M82.32,54.39a64.77,64.77,0,0,1,100.9,6.52A63.52,63.52,0,0,1,194.5,90.15a64.87,64.87,0,0,1-45.83,70.14,63.24,63.24,0,0,1-24.35,2.42,64.21,64.21,0,0,1-42-20.75l0-.06c.31,0,.62,0,.93,0q14.73,0,29.46,0c.63,0,.84-.13.84-.8q0-8.28,0-16.55c0-.59-.15-.75-.73-.74-3.76,0-7.52,0-11.28,0h-31c-.16-.43-.32-.87-.49-1.3a63.31,63.31,0,0,1-4.27-16.74,1.88,1.88,0,0,1,.91-.08q21.47,0,42.93,0c.81,0,1-.22,1-1,0-5.37,0-10.74,0-16.1,0-1.14.13-1-1-1H67.18l-1,0a55.37,55.37,0,0,1,1.22-5.83,76.75,76.75,0,0,1,3.12-9.21l.94,0q20.6,0,41.2,0c.72,0,.9-.19.9-.9,0-5.44,0-10.88,0-16.32,0-.75-.24-.88-.92-.88q-14.65,0-29.31,0Zm43.3,69.42c0,5.78,0,11.56,0,17.33,0,.56.1.76.71.74,1.53,0,3.06,0,4.58,0,.62,0,.78-.16.77-.77,0-4.54,0-9.07,0-13.6,0-.57.12-.76.72-.74,1.55,0,3.11,0,4.66,0,.5,0,.67-.12.66-.64q-.06-2.37,0-4.74c0-.57-.2-.68-.72-.67-1.52,0-3.05,0-4.58,0-.56,0-.75-.11-.75-.71,0-2.54.05-5.08,0-7.62,0-.66.23-.75.8-.74,2.52,0,5,0,7.54,0,.56,0,.76-.1.74-.71,0-1.53-.05-3.06,0-4.59,0-.65-.22-.75-.8-.75q-6.77,0-13.52,0c-.66,0-.8.19-.8.82C125.63,112.26,125.62,118,125.62,123.81Zm0-48.38c0,5.81,0,11.61,0,17.42,0,.66.18.81.81.79,1.45,0,2.91,0,4.36,0,.68,0,.91-.13.9-.87,0-4.49,0-9,0-13.45,0-.67.19-.81.82-.79,1.53,0,3.06,0,4.59,0,.43,0,.65,0,.63-.57,0-1.63,0-3.27,0-4.9,0-.5-.17-.6-.63-.59-1.53,0-3.06,0-4.58,0-.62,0-.84-.11-.83-.79.05-2.48,0-5,0-7.46,0-.62.1-.83.78-.82,2.51.05,5,0,7.54,0,.64,0,.77-.2.75-.78,0-1.51,0-3,0-4.51,0-.58-.1-.8-.75-.79q-6.79,0-13.6,0c-.63,0-.76.18-.76.78C125.63,63.93,125.62,69.68,125.62,75.43Z"/><path d="M70.51,123.78h31c3.76,0,7.52,0,11.28,0,.58,0,.74.15.73.74q0,8.28,0,16.55c0,.67-.21.81-.84.8q-14.73,0-29.46,0c-.31,0-.62,0-.93,0s-.62,0-.93,0q-37.76,0-75.51,0c-.81,0-.94-.21-.94-1q0-42.76,0-85.54c0-.74.13-1,.94-1q37.76,0,75.51,0l.93,0,1,0q14.66,0,29.31,0c.68,0,.92.13.92.88,0,5.44,0,10.88,0,16.32,0,.71-.18.9-.9.9q-20.59,0-41.2,0l-.94,0c-7.56,0-15.12,0-22.68,0-.53,0-.64.16-.64.66q0,6.92,0,13.83c0,.53.17.62.65.62,4.09,0,8.18,0,12.27,0l6.06,0,1,0h42.38c1.11,0,1-.13,1,1,0,5.36,0,10.73,0,16.1,0,.77-.16,1-1,1q-21.47,0-42.93,0a1.88,1.88,0,0,0-.91.08,2.63,2.63,0,0,0-.39-.06c-5.85,0-11.7,0-17.56,0-.58,0-.61.25-.61.7,0,5.59,0,11.19,0,16.78,0,.49.1.66.63.66Q59.18,123.77,70.51,123.78Z"/></g></svg>