<svg id="Layer_1" data-name="Layer 1" xmlns="http://www.w3.org/2000/svg" viewBox="0 0 200 200"><g id="_6qPCo0" data-name="6qPCo0"><path d="M154.55,32.2c-1-.4-2.19,1-2.61-.6A1.79,1.79,0,0,1,153,29.5c.84-.5,1.71-.7,2.45.14,1,1.12-.64,1.4-.59,2.49l4.57-2.45c-1.12-.59-2.48,1-2.71-.75a2.86,2.86,0,0,1,1-2A1.66,1.66,0,0,1,160,26.8c1.47,1.17-.6,1.62-.55,2.86L164,27.28l-.15-.42A7.5,7.5,0,0,1,163,27c-.43,0-1,.15-1.25-.07a1.75,1.75,0,0,1-.29-1.31,2.47,2.47,0,0,1,2.64-1.68,2.26,2.26,0,0,1,1.12,1c.11.2-.29.7-.5,1a6.22,6.22,0,0,1-.57.68l.27.44,4.24-2.27-.12-.46a6.64,6.64,0,0,0-1,.1c-1.06.28-1.74-.36-1.49-1.42a2.61,2.61,0,0,1,2.68-1.68,2.23,2.23,0,0,1,1.15,1c.11.19-.29.69-.49,1a8.84,8.84,0,0,1-.6.77l.33.46,4.19-2.22-.08-.38h-.8c-.47,0-1.34,0-1.35-.11a3,3,0,0,1,.1-1.84,2.14,2.14,0,0,1,1.48-1,5.44,5.44,0,0,1,1.88.61c-.23.49-.45,1-.7,1.48a2.18,2.18,0,0,1-.36.42c1,.35,3.88-1.08,4.66-2.32a8,8,0,0,1-1,.15c-.43,0-1.09.08-1.23-.14a1.79,1.79,0,0,1-.17-1.46,2.24,2.24,0,0,1,2.52-1.43,1.89,1.89,0,0,1,1.14.91c.11.19-.26.71-.48,1a2.22,2.22,0,0,0-.53.92c.39,0,.78,0,1.16,0a21.75,21.75,0,0,1,3.1-.22,4.79,4.79,0,0,1,4.22,3.86A6.17,6.17,0,0,1,179.73,30c-2.56-.53-2.88-.34-4.34,1.84-2.54,3.79-5.16,7.53-7.74,11.3a1.73,1.73,0,0,1-2.28.71,8,8,0,0,0-8,1.92c-3.11,2.79-6,5.81-8.94,8.81q-30.18,31.11-60.34,62.23a2.88,2.88,0,0,0-.72,3.55c1.32,3.06,3.29,5.57,6.65,6.33a8.67,8.67,0,0,0,4.41-.42,32.27,32.27,0,0,0,4.93-2.52c1.43-.78,2.84-1.71,4.47-.51,1.28.94,1.69,3,1,5a17.47,17.47,0,0,1-8.43,9.33c-2.44,1.36-5,2.56-7.54,3.69a20.13,20.13,0,0,0-11.54,12.84c-1.78,5.57-3.54,11.17-6.51,16.26a49.92,49.92,0,0,1-4,6c-6.77,8.4-18.9,10.85-27.87,4.86-11.41-7.62-20.88-17.35-27.1-29.76C11.08,142,13,133.24,20.75,126c5.9-5.49,13-8.77,20.55-11.32,3.45-1.17,7-2.19,9.91-4.5a28.19,28.19,0,0,0,7.2-9.3c1.94-3.66,3.82-7.35,5.93-10.9a28.52,28.52,0,0,1,10.8-10.56c1.82-1,3.71-2,5.93-1.34,2.54.73,3.25,2.6,1.77,4.8-.63.94-1.44,1.76-2.14,2.67C78.34,88.64,76.76,92,77.8,96a11,11,0,0,0,2.45,4.4c2.17,2.37,4.65,2.3,7,.06q6.9-6.63,13.75-13.31,24-23.27,48-46.51a3.24,3.24,0,0,0,1-3.7,2,2,0,0,1,1.05-2.62C152.15,33.64,153.26,33,154.55,32.2ZM42.19,135.57a5.74,5.74,0,0,0,1.63,3.91c1,1,2,1.9,3,2.87,4.05,4,8.18,7.84,12.11,11.91a18.38,18.38,0,0,1,5.14,13.37,16.9,16.9,0,0,0,.43,4c.3,1.34.78,2.76,2.37,3.1s2.71-.66,3.6-1.84a17.43,17.43,0,0,0,1.68-2.65c.88-1.74,1.72-3.5,2.47-5.29,2.2-5.31,4.31-10.66,6.55-16A15.81,15.81,0,0,1,89,140.61c2.82-1.37,5.72-2.61,8.4-4.21a44.72,44.72,0,0,0,7-5.11c1.06-.94,1.56-2.54,2.18-3.9.17-.37-.16-1-.26-1.45a6,6,0,0,0-1.43.33c-1.6.84-3.11,1.84-4.74,2.6a10.32,10.32,0,0,1-6.11.86,9.74,9.74,0,0,1-7.64-6c-2.42-5.42-4.63-10.93-6.92-16.41-.28-.66-.42-1.37-.71-2-.93-2.13-2.57-2.38-4-.55-1,1.23-1.82,2.56-2.67,3.88A27.06,27.06,0,0,1,62.16,118c-2.74,1.51-5.58,2.85-8.42,4.16a23.68,23.68,0,0,0-8.93,6.45A10.59,10.59,0,0,0,42.19,135.57Z"/><path d="M69.49,116.65c.51-.61.87-1.43,1.45-1.64a2.64,2.64,0,0,1,2.18.26,31.6,31.6,0,0,1,3.18,3.06c1.58,1.58,3.17,3.15,4.73,4.75,1.07,1.08,1.14,2.25.25,3.14a2.12,2.12,0,0,1-3.15-.25c-2.54-2.51-5.07-5-7.56-7.58A10.05,10.05,0,0,1,69.49,116.65Z"/><path d="M54.62,132.4a4.52,4.52,0,0,1,1.37,1c2.15,3,4.24,6.1,6.3,9.18a2,2,0,1,1-3.41,2.25c-2.09-3-4.17-6-6.19-9.07C51.67,134.22,52.53,132.44,54.62,132.4Z"/><path d="M72.63,134.47c-.46.55-.83,1.34-1.41,1.56a2.39,2.39,0,0,1-2.07-.21c-2.86-2.7-5.64-5.49-8.37-8.33a2,2,0,0,1,2.91-2.77c2.75,2.68,5.46,5.41,8.15,8.15A6.57,6.57,0,0,1,72.63,134.47Z"/><path d="M68.13,171.28a2.84,2.84,0,0,1-2.9-2.72,2.83,2.83,0,1,1,5.66-.11A2.77,2.77,0,0,1,68.13,171.28Z"/><path d="M70,158.64a2.86,2.86,0,0,1-2.73,2.91,2.85,2.85,0,1,1-.12-5.7A2.86,2.86,0,0,1,70,158.64Z"/><path d="M61.68,149.18a2.69,2.69,0,0,1,2.74-2.8,2.75,2.75,0,0,1,2.88,2.82,2.81,2.81,0,0,1-5.62,0Z"/></g></svg>