<svg id="Layer_1" data-name="Layer 1" xmlns="http://www.w3.org/2000/svg" viewBox="0 0 200 200"><defs><style>.cls-1,.cls-2{fill-rule:evenodd;}.cls-2{fill:#fff;}</style></defs><path class="cls-1" d="M99.94,191.37A92,92,0,1,0,8,99.31,92,92,0,0,0,99.94,191.37Z"/><path class="cls-2" d="M83.19,50.25a6.73,6.73,0,0,1,6.74-6.73,45.62,45.62,0,0,1,45.66,45.57,6.74,6.74,0,0,1-13.47,0A32.16,32.16,0,0,0,89.93,57,6.73,6.73,0,0,1,83.19,50.25Z"/><path class="cls-2" d="M149.12,82.37a6.73,6.73,0,0,1,6.74,6.72,45.61,45.61,0,0,1-45.66,45.57,6.72,6.72,0,1,1,0-13.44,32.17,32.17,0,0,0,32.19-32.13A6.72,6.72,0,0,1,149.12,82.37Z"/><path class="cls-2" d="M116.93,148.5a6.73,6.73,0,0,1-6.73,6.73,45.62,45.62,0,0,1-45.67-45.57,6.74,6.74,0,0,1,13.48,0,32.15,32.15,0,0,0,32.19,32.12A6.72,6.72,0,0,1,116.93,148.5Z"/><path class="cls-2" d="M50.89,116.38a6.72,6.72,0,0,1-6.73-6.72A45.61,45.61,0,0,1,89.82,64.09a6.73,6.73,0,1,1,0,13.45,32.15,32.15,0,0,0-32.19,32.12A6.73,6.73,0,0,1,50.89,116.38Z"/></svg>