<svg id="Layer_1" data-name="Layer 1" xmlns="http://www.w3.org/2000/svg" viewBox="0 0 200 200"><g id="HZzrzN.tif"><path d="M99,8.8c50.18,0,90.87,41.14,90.83,91.81s-40.82,91.78-91,91.72S7.93,151.1,8,100.35,48.78,8.77,99,8.8ZM96.8,43.09v0c3.22,0,6.44-.17,9.65,0a70.17,70.17,0,0,1,9.89,1.34,3.81,3.81,0,0,1,2.46,2.54c.1.77-1.26,2-2.23,2.58a9,9,0,0,1-3.64,1.23c-10.86,1.25-21.74,2.33-32.59,3.66-6.14.75-12.41,1.24-18.28,3-6.36,1.9-7.55,7.55-3.4,12.72a45.74,45.74,0,0,0,5.9,6.37C74.62,85.2,86.44,90.48,98.87,94.54c.27.09.51.21.77.32a6.58,6.58,0,0,1-.86.12c-3.06,0-6.12-.12-9.17,0C74.43,95.86,60.25,99.76,48,109.2c-9.64,7.43-10,17.77,0,24.72,13.66,9.56,29.28,13.85,45.86,14.15,8.65.15,17.32-.58,26-.82a8.56,8.56,0,0,1,2.71.9,16.27,16.27,0,0,1-2.16,1.57,15.41,15.41,0,0,1-3.11,1.13q-22.84,5.86-45.71,11.69c-.59.16-1.18.35-1.77.52a18.59,18.59,0,0,0,2,.2,208.9,208.9,0,0,0,62.11-9.57A57.83,57.83,0,0,0,147.38,147c3.46-2.21,2.72-5.64-1.18-7.06a25.35,25.35,0,0,0-7.08-1.92c-12.81-.73-25.63-1.08-38.43-1.81-8.51-.49-17-1.37-24.79-5.32-5.46-2.77-6.64-6.77-2.37-11.14,3.64-3.73,8-7.6,12.75-9.24,13.32-4.58,27-8,40.59-11.93.31-.09.6-.25.9-.37a9.09,9.09,0,0,0-.78-.48c-13.42-6.51-26.91-12.88-40.2-19.65-2.2-1.12-3.53-4-5.26-6,2.28-1.77,4.36-4.73,6.86-5.13,11.92-1.89,23.94-3.11,35.94-4.5,5.43-.63,10.66-1.84,12.94-7.48,2.14-5.31.7-10.33-3.16-14.42-4.39-4.65-10.21-6.74-16.29-5.52-10.62,2.12-21.06,5.14-31.57,7.78a1.48,1.48,0,0,0-.33.17,2.17,2.17,0,0,0,.47.12Z"/></g></svg>