<svg id="Layer_1" data-name="Layer 1" xmlns="http://www.w3.org/2000/svg" viewBox="0 0 200 200"><path d="M59,62.27v2.45q0,13.48,0,27a11,11,0,0,1,0,2,1.15,1.15,0,0,1-.77.75c-3,0-6,.06-9,0-.33,0-.93-.56-.92-.86a126.57,126.57,0,0,1,.31-12.93c.52-4.57,0-9.15.5-13.65.57-4.74.24-9.45.41-14.16.08-2.15.19-2.32,2.25-2.33,4.25,0,8.49,0,12.74,0,1,0,1.32.28,1.61,1.32,2.19,8,4.51,16,6.78,23.95.54,1.9,1,3.8,1.59,5.7a3.8,3.8,0,0,0,.36.73c.07-.23.15-.46.22-.69.81-2.93,1.63-5.86,2.44-8.78q2-7,3.91-14c.64-2.29,1.33-4.58,1.92-6.88.24-.93.61-1.37,1.66-1.36,4.41,0,8.83,0,13.24,0,1,0,1.29.36,1.32,1.32.13,5.13.33,10.26.47,15.4.06,1.83-.15,3.68,0,5.49.62,5.37.4,10.76.5,16.15,0,1.39.38,2.77.43,4.16s0,1.46-1.34,1.48q-4.12,0-8.25,0C90,94.45,90,94.41,90,93c0-.83,0-1.66,0-2.49q0-13.12,0-26.23,0-.87,0-1.74a.49.49,0,0,0-.1-.22c-.1,0-.26.08-.29.17a13.59,13.59,0,0,0-.48,1.4L83.77,82.4c-.85,3-1.66,6-2.53,9C80.5,94,80.48,94,77.89,94s-5.16,0-7.74,0c-1.54,0-1.69-.07-2.14-1.52q-1.56-5.06-3-10.16c-.79-2.76-1.49-5.55-2.3-8.31-1.13-3.91-2.32-7.8-3.49-11.71Z"/><path d="M138.47,129.69V110.47a8.28,8.28,0,0,1,.06-1.73,1.22,1.22,0,0,1,.78-.74,8.41,8.41,0,0,1,1.74,0c5.33,0,10.66,0,16,0a21.6,21.6,0,0,1,10.47,2.53A11.72,11.72,0,0,1,174,120.89a13.39,13.39,0,0,1-1.41,7.44,11.8,11.8,0,0,1-5.18,5.16c-.37.19-.76.35-1.11.56-.65.39-.94.78-.4,1.58,2.21,3.29,4.35,6.63,6.49,10,1.12,1.74,2.22,3.48,3.28,5.25.44.75.25,1.09-.59,1.1-3.49,0-7,0-10.49,0A1.66,1.66,0,0,1,163,151c-2.13-3.63-4.32-7.23-6.44-10.87-1.58-2.7-2.81-3.27-5.85-2.65-.66.13-.71.58-.71,1.1v5.74c0,2.08,0,4.16,0,6.24,0,.87-.17,1.41-1.23,1.39-3.08,0-6.16,0-9.24,0-.72,0-1.07-.31-1.05-1s0-1.5,0-2.25ZM150,122.91c0,1.67,0,3.33,0,5,0,.73.32,1.05,1.05,1,1.66,0,3.34.11,5,0,3.63-.32,5.35-1.83,6.23-4.94s-1.55-5.82-3.72-6.42a25.49,25.49,0,0,0-7.65-.56.81.81,0,0,0-.9.93C150,119.58,150,121.25,150,122.91Z"/><path d="M96.45,130V110.48a7.74,7.74,0,0,1,.06-1.74,1.22,1.22,0,0,1,.78-.74A8.41,8.41,0,0,1,99,108c5,0,10,.07,15,0a24.83,24.83,0,0,1,8.28,1.24c5.08,1.64,8.26,4.93,9.3,10.46A13.35,13.35,0,0,1,124.34,134c-1.33.76-1.33.78-.58,1.93,2.52,3.87,5.06,7.73,7.58,11.6.72,1.11,1.44,2.22,2.12,3.35.48.81.37,1.05-.5,1.05-3.58,0-7.16,0-10.74,0a1.59,1.59,0,0,1-1.51-1c-2.4-4.05-4.88-8.05-7.25-12.12a2.27,2.27,0,0,0-2.28-1.42c-3.89.11-3.71-.24-3.68,3.66q0,4.62,0,9.23c0,1.59,0,1.62-1.71,1.63-2.5,0-5,0-7.5,0-1.78,0-1.81,0-1.82-1.76,0-4.83,0-9.66,0-14.48Zm11-7.13c0,.83,0,1.66,0,2.49.06,1.14.16,2.27.25,3.41,1.14.08,2.28.17,3.42.23A13.32,13.32,0,0,0,117,128c2.22-.9,3.3-3.28,3-6.44-.18-2-1.74-3.55-4.11-4.07a31.1,31.1,0,0,0-7.14-.54c-1,0-1.25.49-1.23,1.37C107.51,119.83,107.49,121.32,107.49,122.82Z"/><path d="M8.94,72.42V53.18c0-.58,0-1.16,0-1.74s.27-.94.89-.95H40.08c.63,0,.89.36.89.95,0,2.49,0,5,0,7.49,0,.72-.32,1.06-1,1h-4.5c-4.66,0-9.33,0-14,0C20,60,20,60,20,61.36q-.06,2.63,0,5.25C20,67.91,20,68,21.46,68c4,0,8,0,12,0H35.2C36.93,68,37,68,37,69.8s0,3.66,0,5.49c0,1.65,0,1.68-1.65,1.69-4.17,0-8.33,0-12.5,0C19.64,77,20,76.6,20,79.73c0,1.33,0,2.67,0,4,0,1,.44,1.28,1.36,1.27,2.91,0,5.83,0,8.74,0,3.17,0,6.33,0,9.5,0C40.91,85,41,85,41,86.41c0,2.33,0,4.66,0,7,0,.71-.29,1.09-1,1.07-.41,0-.83,0-1.25,0H11.21a5.19,5.19,0,0,1-1.48-.06A1.24,1.24,0,0,1,9,93.64a8.4,8.4,0,0,1-.05-1.74Z"/><path d="M86.56,152a36.06,36.06,0,0,0-3.75,0,2,2,0,0,1-2.38-1.61c-.63-1.88-1.3-3.74-2-5.6a7.53,7.53,0,0,1-.47-1.41c-.11-.77-.57-.9-1.23-.9-1.75,0-3.5,0-5.25,0H64c-2.17,0-2.17,0-2.9,2.17s-1.44,4-2,6.1c-.25.89-.59,1.24-1.5,1.22-3,0-6,0-9,0-1.07,0-1.16-.15-.82-1.15,1.76-5.06,3.55-10.11,5.31-15.16,1.5-4.28,2.94-8.58,4.46-12.85,1.6-4.5,3.29-9,4.86-13.49A1.63,1.63,0,0,1,64.19,108q5.75,0,11.5,0c1.1,0,1.53.48,1.87,1.53,1.65,5,3.43,10,5.16,15q3.89,11.2,7.8,22.41c.43,1.25,1,2.44,1.4,3.7.3,1-.06,1.37-1.11,1.4-1.42,0-2.83,0-4.25,0Zm-16.8-34.64c-1.72,5.22-3.29,10.08-5,14.91-.3.88-.25,1.23.73,1.23,2.75,0,5.5,0,8.24,0,1.14,0,1.34-.29,1-1.36-1.19-3.6-2.42-7.18-3.63-10.77C70.73,120.08,70.3,118.86,69.76,117.31Z"/><path d="M7,130.47a23,23,0,0,1,2.56-12.2,20.32,20.32,0,0,1,11.17-9.7A29.58,29.58,0,0,1,33.66,107a29.29,29.29,0,0,1,10.23,2.63c.85.41,1.29.8.84,1.9-.94,2.28-1.69,4.64-2.54,7-.3.84-.8,1.2-1.71.71a20.87,20.87,0,0,0-8.76-2.36,12.6,12.6,0,0,0-6.62,1,10.79,10.79,0,0,0-5.89,6.74c-1.44,4.75-1.24,9.49,1.56,13.82a10,10,0,0,0,8.12,4.49,20.62,20.62,0,0,0,12.2-2.53c1-.6,1.43-.4,1.73.78.58,2.3,1.15,4.61,1.6,6.95.24,1.26,0,1.83-1.41,2.41a35.26,35.26,0,0,1-15.78,2.35,23.93,23.93,0,0,1-11.57-4,18.39,18.39,0,0,1-7.53-10.16A29.48,29.48,0,0,1,7,134.21,25.9,25.9,0,0,1,7,130.47Z"/><path d="M172.24,67.44c1.47-2.94,2.85-5.76,4.28-8.55,1.25-2.41,2.61-4.77,3.83-7.19a1.9,1.9,0,0,1,1.93-1.23c3.25,0,6.49,0,9.74,0,.73,0,.86.28.51.89q-3.87,6.78-7.72,13.58c-.9,1.58-1.8,3.15-2.67,4.75-1.35,2.47-2.73,4.93-4,7.45a7.14,7.14,0,0,0-.64,2.85c-.06,4.16,0,8.32,0,12.49,0,2,0,2-1.86,2-2.58,0-5.16,0-7.74,0-1.36,0-1.41-.06-1.42-1.42,0-3.83,0-7.66,0-11.49,0-4.36,0-4.34-2.15-7.91-1.95-3.26-3.83-6.57-5.71-9.87-2.17-3.81-4.31-7.63-6.46-11.45-.16-.29-.3-.59-.44-.89-.33-.66,0-.9.62-.94.33,0,.67,0,1,0,2.75,0,5.5.1,8.24,0a2.52,2.52,0,0,1,2.84,1.82,21,21,0,0,0,1.09,2.24C167.71,58.77,169.94,63,172.24,67.44Z"/><path d="M129.46,72.39V53.18c0-.58,0-1.16,0-1.74s.26-.94.88-.95c3.08,0,6.16,0,9.24,0A1.29,1.29,0,0,1,141,51.92c0,.58,0,1.16,0,1.74V81.6c0,.42,0,.84,0,1.25,0,2.23-.1,2.11,2.23,2.11h13c.5,0,1,0,1.5,0,.95-.07,1.34.32,1.32,1.29,0,2.25,0,4.49,0,6.74,0,1.44,0,1.46-1.59,1.49s-2.83,0-4.24,0H131.43c-1.94,0-1.94,0-2-1.87,0-.41,0-.83,0-1.24Z"/><path d="M120.49,72.59V91.81c0,.59,0,1.17,0,1.75a.82.82,0,0,1-.93.91c-3.16,0-6.33,0-9.49,0-.71,0-1.1-.27-1.08-1,0-.5,0-1,0-1.49V52.77c0-2.42-.12-2.29,2.31-2.29s5,0,7.49,0c1.67,0,1.69,0,1.71,1.63,0,2.58,0,5.16,0,7.74Z"/></svg>