<svg id="Layer_1" data-name="Layer 1" xmlns="http://www.w3.org/2000/svg" viewBox="0 0 200 200"><g id="sGGsG2"><path d="M160,101.81a13.44,13.44,0,0,1-1.66,1.39q-11.12,6.64-22.28,13.23c-10.95,6.48-21.92,12.94-32.85,19.47a3.3,3.3,0,0,1-3.87,0Q72,119.6,44.58,103.38c-2.26-1.35-2.25-1.4-.89-3.67q28-46.45,55.9-92.92c.13-.22.25-.44.39-.66,1.07-1.69,1.66-1.72,2.7,0,2.95,4.86,5.87,9.75,8.81,14.63l45,74.82c.92,1.53,1.83,3.08,2.73,4.63C159.5,100.63,159.69,101.1,160,101.81ZM100.53,10.16,100,10C82.24,39.56,64.46,69.13,46.42,99.14c.95-.35,1.42-.48,1.86-.68q24.9-11.31,49.8-22.6a3.66,3.66,0,0,0,2.49-3.93c-.07-20,0-39.93,0-59.89Zm1.91-.54c-.1.88-.16,1.18-.16,1.47q0,31,0,62a2.52,2.52,0,0,0,1.81,2.56q25,11.33,50,22.69a15.08,15.08,0,0,0,1.48.49l.29-.37ZM45.89,101.81l54.45,32.27V77Zm110.86,0L102.46,77.07V134Z"/><path d="M160.73,111.79c-.61.94-1,1.6-1.44,2.22q-14.35,20.26-28.74,40.54l-27.18,38.37c-.22.31-.43.64-.66.94-1.16,1.5-1.63,1.54-2.73,0-2.69-3.74-5.33-7.51-8-11.27q-24.34-34.38-48.67-68.77a9.54,9.54,0,0,1-.84-2.32,9.5,9.5,0,0,1,2.42.67c17.4,10.29,34.76,20.64,52.18,30.9,5.2,3.06,3.28,3.08,8.42,0q26.12-15.42,52.18-30.91a7.35,7.35,0,0,1,1.7-.86C159.71,111.27,160.15,111.58,160.73,111.79Zm-112.5,4.75-.26.4,52.36,73.95a8,8,0,0,0,.18-1.07c0-13.62,0-27.25-.05-40.87A3.33,3.33,0,0,0,99,146.63q-22.47-13.44-45-26.74Zm106.57.27-.27-.31c-.33.18-.67.35-1,.54q-24.67,14.61-49.35,29.2a3.42,3.42,0,0,0-1.94,3.36c.06,13,0,26,0,38.93,0,.55.08,1.09.17,2.2Z"/></g></svg>