<svg id="Layer_1" data-name="Layer 1" xmlns="http://www.w3.org/2000/svg" viewBox="0 0 200 200"><g id="e3bBgk"><path d="M165.77,67.33c-4.58-3.79-8.91-7.23-13.06-10.87a24.84,24.84,0,0,1-4.52-5.58,11.67,11.67,0,0,1,7.23,4.89c1.62,2.44,4.08,4.33,6.24,6.4,1.61,1.55,3.33,3,5.57,5,.13-1.59.3-2.6.27-3.61-.06-1.41-.41-2.82-.39-4.23.07-4.81,4.38-7.19,8.58-4.83.71.4,1.53.63,2.22,1.06.42.25,1,.75,1,1.12-.09,1.92-.33,3.82-.52,5.73a31.17,31.17,0,0,1-.34,3.21c-.24,1.15-.67,2.25-1.07,3.53-1.59.56-4.19-.88-5,2.23,1.78,1.62,3.6,3.41,5.58,5,.93.76,2.66.85,3.16,1.73,2.51,4.39,6.37,7.43,10,10.74.28.26.24.88.34,1.33-.51-.09-1.19,0-1.52-.29-2.33-2.13-4.68-4.26-6.85-6.55a2.17,2.17,0,0,0-3.31-.32c-2.68,2.07-5.34,4.16-7.91,6.36-.44.38-.46,1.33-.52,2-.16,2.08-.29,4.17-.36,6.26a8.15,8.15,0,0,0,.3,2.19c1.58,6.11,3.22,12.21,4.74,18.34a12.57,12.57,0,0,1,.15,3.58c-.29,5.6-.7,11.2-.94,16.81-.16,3.85.37,4.43,4.14,5,1.67.25,3.37.34,5.06.5-.29,2.56-2.82,4.67-6,4.61a33.46,33.46,0,0,1-6.7-.83c-.75-.18-1.91-1.47-1.8-2,.94-4.64-1-8.92-1.39-13.37a29.77,29.77,0,0,1,.21-6.93c.55-3.7.34-5-2.4-8.28a27.28,27.28,0,0,1-1.23,4.11c-.88,1.84-2,3.56-3.07,5.33-.19.32-.52.55-.69.88-2,3.85-3.89,7.76-6,11.56-1.6,2.91-.88,4.3,2.76,5.53,1.51.51,3,.77,3.8,3.1-1.78-.1-3.28-.12-4.76-.29-2.31-.26-4.61-.62-6.92-.93s-2.94-1.49-2.12-3.78c1.48-4.15,2.63-8.42,4.16-12.55.76-2.07,1.63-4.37,3.17-5.79a7.05,7.05,0,0,0,2.51-6.16c-.41-5.09-.87-10.18-1.45-15.26-.26-2.29-.46-4.47.93-6.52a3.65,3.65,0,0,0,.3-1.92c0-5.76,0-11.52,0-17.29,0-4,2-6.65,5.43-8.43C163.55,68.43,164.35,68,165.77,67.33ZM171,85a57.65,57.65,0,0,0,5.18-3.31,2.7,2.7,0,0,0,.15-4,44.73,44.73,0,0,0-4.65-4.25C171.71,77.5,173.61,81.34,171,85Z"/><path d="M126.77,77.52c-1,1.6.17,2.46,1,3.38C129.89,83.29,131,86,130,89.19a44.19,44.19,0,0,1-2.17,5.36,2.43,2.43,0,0,0,.86,3.45c2.12,1.55,4.06,3.35,6.16,4.93s2.53,3.87,2.4,6.24c0,.6-1,1.45-1.67,1.66a3.72,3.72,0,0,1-2.82-.18,2.62,2.62,0,0,1-.53-2.52c1.11-1.89.35-2.85-1.19-3.82-1.83-1.16-3.57-2.46-5.33-3.68-2.11,2.51-2,2.92-.28,5.33,2,2.79,4,5.65,5.79,8.58,4.54,7.32,4.86,15.27,3.36,23.49-.27,1.48-.69,3.77.06,4.42,1.73,1.49,4.12,2.23,6.27,3.22a5.21,5.21,0,0,1,1.72.67c-.51.32-1,.89-1.54.92-3.3.15-6.6.2-9.9.24-1.4,0-2.5-.56-2.07-2.16,1.28-4.81-.22-9.39-.94-14.05A8,8,0,0,1,128,128a4.43,4.43,0,0,0-1.3-4.68c-1.84-2-3.61-4-5.65-6.27,0,2.62.13,4.9,0,7.15a8.71,8.71,0,0,1-1.12,3.74c-2.36,3.81-4.9,7.51-7.36,11.26a5.27,5.27,0,0,0,2.11,7.9,7.5,7.5,0,0,1,.87.67,3.74,3.74,0,0,1-5,.24c-1.47-1.5-2.89-3.06-4.28-4.63-1.11-1.26-1.38-2.4.33-3.54a4.63,4.63,0,0,0,1.64-2.28c.66-1.92.9-4,1.64-5.86.83-2.12,2.06-4.09,3-6.17a4.39,4.39,0,0,0,.53-2.5c-.74-3.45-1.65-6.86-2.53-10.28a48.38,48.38,0,0,1-1.38-5.22c-.2-1.37-.41-3.19.29-4.15,1.84-2.5,1.28-5,.61-7.48-1.39-5.27.79-9.94,2.53-14.6.5-1.36,2.26-2.33,3.58-3.27,3.23-2.28,3.52-2.83,2.17-6.53a7.21,7.21,0,0,1,1.53-7.53c1.72-2,6.22-2,8.24-.08.54.5,1.17.9,1.73,1.38s1.63,1,1.75,1.67a31.36,31.36,0,0,1,.88,7.85c-.2,2.57-1.74,3.32-4.35,3C127.91,77.7,127.34,77.6,126.77,77.52Z"/><path d="M81.31,105.77c2.46,1.22,5,2.29,7.27,3.65A32.75,32.75,0,0,1,93,112.84c1.57,1.34,1,3,.09,4.26-.43.6-2,.73-2.93.45a2.9,2.9,0,0,1-1.51-2.17c-.15-1.86-.83-2.91-2.76-3.17-2.7-.37-5.38-.88-8.06-1.33l-.31.69a18,18,0,0,0,1.93,1.48,37.61,37.61,0,0,1,12.63,11.7c2,2.93,1.67,6.17,1.9,9.3a37.87,37.87,0,0,1-.64,7.63c-.24,1.8.37,3,2.08,3.44,2,.48,4.07.68,6.1,1.06a11.11,11.11,0,0,1,1.71.65,6.73,6.73,0,0,1-1.45,1.24c-3.69,1.68-7.52-.34-11.28.29-.42.07-1.6-1.27-1.49-1.71.88-3.44-.76-6.52-1.1-9.77a10.31,10.31,0,0,1-.06-3.79c.63-2.16-.12-3.38-1.89-4.47-2.09-1.29-4.06-2.79-6.33-4.38,0,2.29-.09,4.28,0,6.25a4,4,0,0,1-2.83,4.37c-3.45,1.24-7,2.26-10.43,3.49-1.24.44-3.19,1-3.38,1.87-.51,2.22-1.34,4.73.53,6.88a13.62,13.62,0,0,1,.78,1.16c-1.31,1.06-2.28,1-3.3-.27a6.91,6.91,0,0,1-1.85-5.06c.1-1.64-.78-3.33-1.17-5-.57-2.48.17-3.23,2.67-3.32a9.26,9.26,0,0,0,3.55-1.12c1.34-.67,2.53-1.63,3.84-2.36s2.66-1.31,4.29-2.1c-1-1.45-2.09-3-3.14-4.57-1.62-2.44-3.33-4.84-4.81-7.36a8.11,8.11,0,0,1-.34-7.6,2.86,2.86,0,0,0-.33-2.3,3.83,3.83,0,0,1-.36-3.8c1.42-3.94,3.22-7.66,6.38-10.46a13.77,13.77,0,0,1,4.7-2.4c2.87-1,3.61-1.83,3.44-4.87-.25-4.42,1.72-6.89,5.76-7.23A6.18,6.18,0,0,1,90,83.38a3,3,0,0,0,.84,1.74c2.12,1.57,1.35,3.4.62,5.24s-2.35,1.58-3.84,1.57c-.68,0-1.47-.28-2,0s-1.43,1.37-1.31,1.57c2.84,4.52.22,7.85-2.32,11.21C81.75,105,81.58,105.32,81.31,105.77Z"/><path d="M22.76,129c-1.39-2.56-3.09-5.4-4.51-8.36-2.65-5.53-1.63-8.14,3.6-11.41a40.34,40.34,0,0,0,5.87-5.11,15.32,15.32,0,0,0,1.93-2.49,8.2,8.2,0,0,1,8.51-3.88c2.21.32,3.72-.17,4.91-2.43a5.75,5.75,0,0,1,9.12-1,10.42,10.42,0,0,1,2.64,4.86c.17.8-1.29,2.34-2.36,2.89s-2.49.29-3.77.31c-2.47,0-3.11.75-2.26,3a11.71,11.71,0,0,1,.25,8.8,4,4,0,0,0,.13,1.93c.06.37.41.73.36,1.06-.74,5.11,3.43,8.16,5.14,12.24.82,2,.67,5.57-.89,6.89a3.59,3.59,0,0,1-2.8.84c-.8-.22-1.89-1.41-1.85-2.12s1.29-1.39,2.13-2.18L39.59,118c-.68,1.28-1.65,2.87-2.36,4.58-.22.52.26,1.34.42,2,.37,1.63,1.1,3.28,1,4.9-.2,4.2-.69,8.39-1.2,12.57a2.16,2.16,0,0,0,1.43,2.67c2,.75,4,1.44,6.35,2.25-.3.3-.6.84-1,1a6,6,0,0,1-2.78.39c-2.84-.62-5.64-1.19-8.58-.58-.27.06-1.34-1.6-1.15-1.88,1.56-2.35.1-4.67.16-7a66.68,66.68,0,0,0,0-9.16c-.14-1.27-1.66-2.4-2.55-3.59l-.69.37c.05.78.08,1.56.17,2.34.4,3.78-1.44,6.31-4.51,8.16-.71.43-1.46.77-2.19,1.16-3.45,1.86-4.21,4.5-2.29,8,.17.32.39.62.58.92-1.35,1-2.9.41-3.7-1.33S15,142.15,14,140.4c-.71-1.29-.69-2.11.72-3a14.46,14.46,0,0,0,2.86-2.68C19.28,132.92,20.94,131,22.76,129Zm10.47-10.69,1.43-4.59-5.35,1.51Z"/></g></svg>