<svg id="Layer_1" data-name="Layer 1" xmlns="http://www.w3.org/2000/svg" viewBox="0 0 200 200"><path d="M185,13.61c-2-2-4.86-3-8.53-3-12.9,0-33.8,12.54-45.11,20l-.9.6-2.57,20.29-6.81-13.8-2.25,1.65A367.9,367.9,0,0,0,77.49,74.7c-2.23,2.23-4.41,4.49-6.51,6.72l-.43.47-9.09,40L56.68,98l-3.15,4.31c-1.85,2.54-3.6,5.08-5.19,7.55l-.29.45-3.88,30.54-6-12.25-1.66,5.87c-2.19,7.78-2.16,14.34,0,19.34L10.93,179.39a5.86,5.86,0,0,0,8.29,8.29l25.55-25.56a21.47,21.47,0,0,0,8.68,1.65h0a39.58,39.58,0,0,0,10.67-1.64L70,160.48l-12.25-6,30.54-3.87.45-.29c2.46-1.59,5-3.34,7.54-5.2l4.31-3.14-23.86-4.78,40-9.09.46-.44c2.25-2.09,4.51-4.28,6.73-6.5A357.82,357.82,0,0,0,170.11,64l6.79-11.29,0-.06C188.14,32.58,190.85,19.46,185,13.61Z"/></svg>