<svg id="Layer_1" data-name="Layer 1" xmlns="http://www.w3.org/2000/svg" viewBox="0 0 200 200"><g id="mJMT13.tif"><path d="M9,23.14V20.31c.2-.58.44-1.15.6-1.74A12.23,12.23,0,0,1,17,10.11c1.06-.44,2.19-.74,3.28-1.11H68.39a5.43,5.43,0,0,0,1,.53c10,2.71,13.08,13.76,5.73,21.16C62,43.94,48.7,57.1,35.56,70.37A6.21,6.21,0,0,0,34,74.21c-.19,5.1-.08,10.2-.07,15.31,0,.65.11,1.31.22,2.54,1.09-1,1.8-1.72,2.5-2.41Q73,53.28,109.34,16.88c3.33-3.33,6.48-6.84,11.37-7.88h58a13.75,13.75,0,0,0,1.51.57,12,12,0,0,1,8.84,7.9c.34.93.64,1.89,1,2.84v2.83c-1.16,4.93-4.75,8.12-8.14,11.48q-17,17-34,34-47,47-93.95,94c-.66.66-1.23,1.42-2.22,2.57,6.23,0,11.8-.07,17.36,0a5.75,5.75,0,0,0,4.54-1.87q22.92-23.06,46-46Q143.86,93,168.18,68.64c3.53-3.55,7.71-4.85,12.46-3.62s7.76,4.51,8.85,9.41a4.93,4.93,0,0,0,.51,1v58c-1,4.81-4.27,8-7.6,11.28-6.06,5.93-12,12-18,18-.61.62-1.14,1.32-2.1,2.44,4.41,0,8.18.21,11.91,0,8-.54,13.59,2.49,15.62,10.61,0,.06.11.11.17.16v2.83c-.2.58-.43,1.15-.6,1.74a12.15,12.15,0,0,1-7.87,8.61c-.94.34-1.89.64-2.84,1H130.61a5.43,5.43,0,0,0-1-.53c-10-2.71-13.08-13.76-5.72-21.16,13.17-13.24,26.42-26.4,39.56-39.68a6.21,6.21,0,0,0,1.61-3.84c.19-5.1.08-10.2.07-15.3,0-.66-.11-1.32-.22-2.55-1.09,1-1.8,1.72-2.5,2.42Q126,145.74,89.66,182.12c-3.33,3.34-6.48,6.85-11.37,7.88h-58c-.58-.2-1.15-.44-1.74-.6A12.23,12.23,0,0,1,10.11,182c-.44-1.07-.74-2.19-1.11-3.29v-2.83c1.17-5,4.88-8.22,8.31-11.64Q50.9,130.67,84.45,97.09q30.31-30.32,60.63-60.64c.67-.67,1.24-1.43,2.22-2.58-6.3,0-12,.06-17.59,0a5.2,5.2,0,0,0-4.13,1.7q-13,13.14-26.14,26.18Q65.13,96,30.8,130.34c-7.48,7.47-18.63,4.41-21.29-5.77a5.48,5.48,0,0,0-.51-1v-58c1-4.81,4.28-8,7.61-11.28,6.06-5.92,12-12,18-18,.62-.62,1.15-1.32,2.11-2.44H23.85c-8.52,0-11.77-2.32-14.54-10.38C9.26,23.35,9.11,23.25,9,23.14Z"/></g></svg>