<svg id="Layer_1" data-name="Layer 1" xmlns="http://www.w3.org/2000/svg" viewBox="0 0 200 200"><defs><style>.cls-1{fill:#fff;}</style></defs><path d="M29.63,72.82,175.87,31.47,169.24,8,11.89,52.49l5.74,20.33H17.5V192.59H181V72.82ZM170.56,28.5l-14.67,4.15,10.52-18.83Zm-32.63-7.17L127,40.81,107,46.48,117.84,27ZM89,35.16,78.11,54.64,55.78,61,66.67,41.47ZM37.82,49.63,26.93,69.11l-5.44,1.54L17.2,55.46ZM147.35,77.12,131.58,92.9H110.7l15.79-15.78Zm-50.84,0L80.72,92.9H57.53L73.31,77.12Zm-69,15.78H21.8V77.12H43.33Zm149.16,0H161.55l15.16-15.16Z"/><path class="cls-1" d="M118.43,156l16.92-9.67-3.88-1.94a2.85,2.85,0,0,1-1.55-2.93l1.26-9.47L124,134.11a2.85,2.85,0,0,1-3.58-2.13l-.69-3.1L113,136.76a1.41,1.41,0,0,1-2.46-1.16l2.87-16.7-4.4,1.2a2.84,2.84,0,0,1-3.26-1.41L101.14,110h0l-4.63,8.68a2.85,2.85,0,0,1-3.27,1.41l-4.4-1.2,2.88,16.7a1.42,1.42,0,0,1-2.47,1.16l-6.73-7.88L81.83,132a2.86,2.86,0,0,1-3.58,2.12L71.09,132l1.26,9.47a2.85,2.85,0,0,1-1.55,2.93l-3.89,1.94L83.83,156a4.12,4.12,0,0,1,1.82,5l-1.45,3.86,14.5-1.23a1.34,1.34,0,0,1,1.46,1.38l-.46,15.52h2.85l-.45-15.52a1.34,1.34,0,0,1,1.46-1.38l14.5,1.23-1.44-3.86A4.11,4.11,0,0,1,118.43,156Z"/></svg>