<svg id="Layer_1" data-name="Layer 1" xmlns="http://www.w3.org/2000/svg" viewBox="0 0 200 200"><g id="ZbogLv.tif"><path d="M92.49,156.85c-3.45-.17-7.43.44-11.27-.94-3.4-1.22-6.85-2.33-10.25-3.57-2.34-.84-4.63-1.82-6.94-2.72a19.58,19.58,0,0,1-6.7-4.46Q40.94,128.84,24.55,112.5A5.29,5.29,0,0,1,23,108.65c-.3-6.66,1.4-12.94,3.39-19.17a57,57,0,0,0,2.38-13.73c.41-6.41.45-12.86,1.64-19.21.56-2.95.88-5.94,1.42-8.89a31.12,31.12,0,0,1,3.9-9.45c2.18-3.91,4.53-7.73,8-10.64,1.75-1.46,3.59-2.83,5.47-4.12,3.1-2.1,6.25-4.11,9.4-6.12a3.09,3.09,0,0,1,1.7-.67c2.52.19,4.61-1.09,6.83-1.87a45.44,45.44,0,0,0,9.91-4.44,8,8,0,0,1,4.1-1.28,58,58,0,0,1,19.33,2.51,10.73,10.73,0,0,1,6.41,4.61q1.5,2.37,3,4.71c1.88,2.86,3.71,5.76,5.69,8.55,1.57,2.21,3.2,4.35,4,7,.24.83.68,1.54,1.73,1.48a.93.93,0,0,1,.6.14c4,3.36,8.92,2.95,13.59,3.63a27.29,27.29,0,0,1,13.59,5.64c9,7.29,15.45,16.47,20.47,26.79a37.45,37.45,0,0,1,4,15.21,33.67,33.67,0,0,1-2.77,13.91,104.55,104.55,0,0,1-10.66,19.33c-2.94,4.29-6,8.46-8.92,12.78a25.38,25.38,0,0,0-2.94,5.78,8.09,8.09,0,0,1-4,4.93c-1,.52-2.06,1-3,1.62a19.87,19.87,0,0,0-3.77,2.71c-2.63,2.76-6,3.66-9.54,3.93-1.66.12-3.34,0-5,.09-3.84.16-7.69.25-11.51.61a20.31,20.31,0,0,0-4.71,1.4,1.31,1.31,0,0,0-.6,1,9.73,9.73,0,0,0,0,1.87c.09,3,.09,2.94,3.18,3.18a5.88,5.88,0,0,1,2.3.75c3.16,1.8,6.28,3.67,9.4,5.52.77.46,1.72.73,1.79,1.91,0,.21.49.43.78.58a24.58,24.58,0,0,1,3.52,1.87c3.13,2.41,6.19,4.91,9.2,7.46,3.33,2.83,6.59,5.74,9.87,8.63a10.27,10.27,0,0,1,1,1.17,7,7,0,0,1-1.38.35c-5.36.23-5.4.26-9.13-3.68a125.71,125.71,0,0,0-17.52-15.48,31.45,31.45,0,0,0-4.61-2.58c-1.85-.92-3.76-1.75-5.68-2.54-.51-.21-1.17-.45-1.05.75.39,3.82.58,7.66.94,11.48.28,3,.72,6,1.07,8.94.08.72.08,1.46.09,2.18,0,.2-.08.55-.15.56a21.24,21.24,0,0,1-3.63.29c-.38,0-.89-.79-1-1.3a8.3,8.3,0,0,1-.1-2.18q-.09-6.72-.16-13.44a11.75,11.75,0,0,0,0-1.88c-.2-1-.51-2-.78-3a29.23,29.23,0,0,0-2.49,1.75,58,58,0,0,0-11,13.47A34.82,34.82,0,0,0,88,188c-1.09,2.39-2.91,3-5.3,2.7-1.45-.16-1.57-.18-.9-1.33,3.44-5.94,6.82-11.93,11.34-17.12a76.36,76.36,0,0,1,6.19-5.72c1-.92,1.93-1.9,3-2.8a2.21,2.21,0,0,0,.71-2.25c-.13-.71-.37-1.4-.48-2.12-.37-2.48-.35-2.49-3-2.49Zm2.29-3.17h4.68c3.43,0,6.88.17,10-1.62a2.67,2.67,0,0,1,1.21-.22c3.63-.21,7.26-.43,10.89-.58,2.08-.09,4.17,0,6.25-.11,2.29-.13,4.68-.36,6.36-2.08a27.06,27.06,0,0,1,8-5.33,5.6,5.6,0,0,0,3-3.37,32.7,32.7,0,0,1,3-6.12c1.66-2.64,3.59-5.09,5.4-7.63a135.7,135.7,0,0,0,13.8-23.27c3.42-7.71,4.25-15.66,1.16-23.55-4.1-10.47-9.93-19.91-18.42-27.46-2.94-2.62-5.91-5.18-9.88-6.32a53.34,53.34,0,0,0-10.38-1.73A15.74,15.74,0,0,1,122.23,42c-1.65-1.09-1.69-1-3.17.19a5.79,5.79,0,0,1-1.5,1.1,2.2,2.2,0,0,1-1.69,0,1.23,1.23,0,0,1-.35-1.88c.13-.16.23-.35.36-.51a3.61,3.61,0,0,0,.36-4.35,29.89,29.89,0,0,0-1.78-3.25,153.16,153.16,0,0,1-8.92-13.52c-.35-.63-.84-1.19-1.23-1.8a7.12,7.12,0,0,0-4.7-3.32c-3.54-.73-7-1.63-10.6-2.24A33.4,33.4,0,0,0,82.53,12c-2.22,0-4.09,1.24-6,2.24a102.2,102.2,0,0,1-15.88,6.23,11.68,11.68,0,0,0-2.56,1.05Q54,24.06,49.94,26.75a30,30,0,0,0-7.85,7.08c-4.37,6-7.51,12.68-8.33,20.18-.76,6.9-1.55,13.82-1.82,20.75a66,66,0,0,1-2.85,16.79c-1.52,5-2.92,9.91-2.92,15.18a6.7,6.7,0,0,0,2.18,5.19c9.94,9.81,19.79,19.71,29.68,29.57,1.09,1.09,2.08,2.72,4,1,.24-.21.81-.09,1.22-.09,2.08,0,4.17,0,6.25,0A11.68,11.68,0,0,1,76,145.09a2.89,2.89,0,0,1,.52.77,2.69,2.69,0,0,1-.83.08c-1.5-.41-3-.86-4.47-1.29-2.92-.84-5.85-1.43-8.86-.43-.29.1-.56.22-.85.33a3.28,3.28,0,0,0,.64.55c2.06,1,4.07,2.1,6.19,2.9q7,2.63,14,5a15.74,15.74,0,0,0,4.27.68C89.36,153.75,92.07,153.68,94.78,153.68Z"/><path d="M62.37,53.63c0-.58-.2-1.4.84-1.18.38.08.67.5,1,.66.18.08.65-.06.65-.13a1.27,1.27,0,0,0-.16-.85c-.17-.22-.57-.23-.81-.4-.93-.66-1.85-1.33-2.75-2A3.28,3.28,0,0,1,60,46.08c.11-.51.33-1,.44-1.49.89-4,4.54-5.86,8.25-4.11a1.83,1.83,0,0,0,.28.14l2.51.83c0-.19.15-.42.08-.57-.56-1.2-.89-2.76-2.54-2.83s-3.35-.52-4.8.72c-.08.07-.44,0-.46-.08a.63.63,0,0,1,.05-.56,3.2,3.2,0,0,1,1-.76,3.31,3.31,0,0,1,1.78-.46c1.31.34,2.33-1.6,3.74-.28C72,38.19,73.44,39.92,73,42.29c-.38,2,.16,3.84.37,5.75a26.37,26.37,0,0,1-.07,3.32,5.83,5.83,0,0,0,.08.82c.23-.21.54-.38.67-.63.63-1.2,1.19-2.42,1.83-3.61.09-.17.49-.21.75-.22.07,0,.24.37.2.53A5.22,5.22,0,0,1,76.27,50a44.2,44.2,0,0,1-3.64,5c-2.13,2.39-4.48,4.57-6.69,6.88-.25.25-.25.73-.37,1.11.35,0,.78.11,1-.05,3-1.93,5.89-3.89,8.82-5.86a16.81,16.81,0,0,0,2.49-1.86c.57-.55,1.32-1.34,1.29-2-.12-2.27,2.18-2.83,2.86-4.48,0-.08.36,0,.55,0a1.32,1.32,0,0,1,0,.52c-.69,1.62-1.42,3.22-2.1,4.85a5.35,5.35,0,0,0-.22,1.14c.5.07,1.07.34,1.47.17A3.44,3.44,0,0,0,83,54.21c.29-.4.31-1,.66-1.34a1.54,1.54,0,0,1,1.3-.13,1.12,1.12,0,0,1,.45,1,4.36,4.36,0,0,1-5,2.56,3.16,3.16,0,0,0-3.19.58c-3.08,2.31-6.1,4.69-9.13,7.07-.19.15-.26.46-.38.69a5.29,5.29,0,0,0,.89.12c.69,0,1.56-.37,2-.08a2.4,2.4,0,0,0,3.7-.68c.13-.17.54-.13.82-.19a2.32,2.32,0,0,1-.27.74c-.62.72-.28,1.13.43,1.34,1,.29,2.09.58,2.92-.35s1.22-.76,2.11-.2c1.27.81,1.34.69,2.29-.85a3,3,0,0,1,.68-.6,2.71,2.71,0,0,1,.41.71c.11.71,0,1.58,1.08,1.53.91,0,1.13-.75,1.28-1.51a3.26,3.26,0,0,1,.4-.79,3.93,3.93,0,0,1,.79.9A8,8,0,0,1,87.47,66c.16.62.61.57.8.12.42-1,.68-1.14,1.69-.41a4.29,4.29,0,0,0,3,.28c2.53-.48,5-1.17,7.53-1.78.69-.16.44-.48.14-.8a10.19,10.19,0,0,1-1-1.15.58.58,0,0,1,.81-.82c.6.42,1.11,1,1.69,1.39a2.72,2.72,0,0,0,1.06.56c.24,0,.58-.19.79-.38s-.08-.49-.24-.62a14.85,14.85,0,0,1-1.25-.91c-.22-.24-.21-.68-.31-1,.46-.11,1-.43,1.35-.3a14.28,14.28,0,0,1,1.87,1.1,2.81,2.81,0,0,0,1.15.27.56.56,0,0,0,.47-.34.73.73,0,0,0-.23-.58,13,13,0,0,0-1.12-.83c.43-.37.85-1,1.29-1.06a25.15,25.15,0,0,1,3.67.25,17.3,17.3,0,0,0,2.14.24,1.51,1.51,0,0,0,.91-.63c.07-.11-.16-.57-.37-.75-.55-.47-1.19-.83-1.73-1.31a.94.94,0,0,1,.48-1.65A3.85,3.85,0,0,1,115.66,56a.69.69,0,0,1,0,.67,4.11,4.11,0,0,1-.94.46,2.29,2.29,0,0,0,.9.16,11.53,11.53,0,0,0,2.31-.82c.81-.42.74-.83-.15-1.17-.31-.12-.5-.54-.74-.83a5.88,5.88,0,0,1,1.18-.1c.29,0,.55.36.84.38a15.5,15.5,0,0,0,1.8-.09c-.42-.34-.85-.67-1.25-1s-.52-.53-.77-.79a3.49,3.49,0,0,1,1-.23c.51.06,1,.29,1.5.4a3.32,3.32,0,0,0,3.11-1c.74-.73.6-1.57-.36-1.91a1.64,1.64,0,0,0-.9-.15c-3.47,1-7,.3-10.54.63-2.26.21-4.51.64-6.78.79-3.42.21-6.85.26-10.27.38a1.42,1.42,0,0,1-.62-.07c-.56-.26-1.1-.55-1.65-.84l-.24,1.83c0,.1,0,.21-.06.31-.24.71-2.7,1.08-4.28.64-.73-.2-1-1.16-.58-2.08.28-.57.74-1.07,1.44-.45.31.28.55.64.87.89.61.49,1,.1,1.12-.45.31-1.31-.16-2.07-1.57-2.89a3.48,3.48,0,0,1-.7-.77,3.75,3.75,0,0,1,1-.51,3.09,3.09,0,0,1,3,1.19,5.41,5.41,0,0,0,5,1.94c3.09-.33,6.17-.72,9.26-1s6-.42,9-.66c.29,0,.57-.31.85-.47-.21-.32-.37-.87-.62-.92-1.62-.31-3.25-.53-4.89-.74-.51-.07-1,0-1.56,0a3.15,3.15,0,0,1-.75-.25,4.23,4.23,0,0,1,.57-.19,51.31,51.31,0,0,1,13.24-1.28c2.49.17,5,.44,7.15,1.83a7.1,7.1,0,0,0,1.41.62A10.32,10.32,0,0,1,138.59,60a41.17,41.17,0,0,1-1.78,4.31.65.65,0,0,1-.43.25c-.22-.2-.57-.5-.53-.68a29.17,29.17,0,0,1,1.07-3.56c2-5-.34-7.9-2.9-10.57-.5-.52-.9-.34-1.26.11-1.37,1.7-2.75,3.39-4.07,5.13-1.63,2.15-3.12,4.41-4.84,6.48a2.37,2.37,0,0,0-.82,1.85c.13,1.08.33,2.16.5,3.24,1.36-.15,1.72-1.37,2.31-2.28C127,62.58,128,60.77,129.1,59a3.82,3.82,0,0,1,.7-.69,3.8,3.8,0,0,1,0,1.17,19.88,19.88,0,0,1-5.2,8.39,5.9,5.9,0,0,0-2.15,5.76l.06-.06c-.23-.41-.49-.81-.68-1.23-.35-.79-.71-1.25-1.58-.51-.7.61-1.52,1.08-2.25,1.66a21.89,21.89,0,0,1-7.37,3.87,34,34,0,0,0-5.1,2.27,16.24,16.24,0,0,1-12.4.83c-4.54-1.41-9.06-2.91-13.58-4.37a20.89,20.89,0,0,1-2.34-.82c-.28-.13-.43-.55-.65-.83a2.42,2.42,0,0,1,.89-.14c2.28.67,4.54,1.38,6.82,2.06L95,79.57c.8.24,1.15,0,1.17-.85a4.08,4.08,0,0,1,.33-1.1,2.63,2.63,0,0,0,.44.77c.6.51,1.21,1.26,1.9,1.36a9.49,9.49,0,0,0,5.78-.63c2.77-1.4,5.64-2.6,8.47-3.89a5,5,0,0,0,.83-.42c2.31-1.57,4.56-3.25,6.94-4.71a3.39,3.39,0,0,0,1.61-3.71c-.25-2.1-.84-2.41-2.39-1.1a8.74,8.74,0,0,1-5.37,2.15,9.48,9.48,0,0,0-1.82.37c-2.13.49-2.13.5-1.32,2.53a2.32,2.32,0,0,1,.28.88,5.24,5.24,0,0,1-.34,1.11c-.31-.21-.74-.34-.91-.63a15.46,15.46,0,0,1-.7-1.72c-.79-1.77-1.29-2-3.13-1.32-1,.35-1.06.71-.42,1.52s1.2,1.64,1.76,2.49c.07.1-.06.42-.19.55a.51.51,0,0,1-.49,0c-1-.87-2-1.79-3.07-2.63-.17-.14-.56,0-.85,0,.08.23.1.54.26.69.53.49,1.13.9,1.67,1.38.1.09.08.4,0,.56s-.36.11-.49,0a6,6,0,0,1-1.36-.76,6.07,6.07,0,0,0-6.13-1.09,7.4,7.4,0,0,1-4.56,0c-2.44-.78-2.86-.46-3.47,2a9.71,9.71,0,0,1-.26,1.19c0,.12-.33.23-.49.21a.68.68,0,0,1-.47-.29,4.16,4.16,0,0,1,.57-3.57,2.54,2.54,0,0,0,.19-.8c-.35.12-.82.13-1,.37-.63.68-1.13,1.48-1.74,2.18-.15.16-.55.09-.84.12,0-.27-.18-.62-.07-.81.27-.44.7-.77,1-1.21a11.13,11.13,0,0,0,.67-1.39c-.57.15-1.15.28-1.7.46s-1.14.63-1.69.6c-4.35-.24-8.69-.55-13-.9a6.25,6.25,0,0,1-3.68-1.48,6.27,6.27,0,0,0-1.91-1,6,6,0,0,0-1.48-.14A10.07,10.07,0,0,0,64.1,68c.46.57,1,1.08,1.46,1.62,2.24,2.5,4.61,4.8,8.16,5.31a2.36,2.36,0,0,1,1.11.54,2.85,2.85,0,0,1,.47.92c-.29.1-.61.33-.85.26-2.57-.78-5.21-1.41-7.4-3.1-.33-.25-.62-.57-1-.79a3.12,3.12,0,0,0-.82-.24,3,3,0,0,0,.1.79c.73,1.81,2.11,3.34,2.17,5.45,0,.4.67.76,1,1.18s.67,1.12,1,1.69c-.82-.27-2.2-.36-2.34-.83-.59-1.94-2.46-2.79-3.34-4.42-.07-.14,0-.38,0-.57.26.08.51.15.76.24l.76.31c0-.28,0-.64-.14-.81A3.38,3.38,0,0,1,64.34,73c0-.83.28-1.91-1.25-1.65-.13,0-.51-.46-.5-.7,0-2.38,0-4.77.26-7.12.11-.92.93-1.76,1.42-2.64.14-.26.26-.53.39-.79a5.57,5.57,0,0,0-.91-.15,12,12,0,0,1-2.48-.11,9.43,9.43,0,0,1-2.79-1.23c-.5-.34-1.44-.94-.71-1.7s1.29-.11,1.82.5S60.69,59,61.28,59a11.14,11.14,0,0,0,3.61-.68c.25-.07.42-.67.47-1,0-.12-.41-.44-.65-.46-2.66-.27-3.78-2.3-4.93-4.28-.11-.18,0-.69.1-.74a1.06,1.06,0,0,1,.86.05c.61.53,1.14,1.14,1.7,1.72l.62.65a7,7,0,0,0,.87,1.14c.11.1.51-.11.78-.17-.09-.18-.15-.45-.29-.51A13.92,13.92,0,0,0,63,54.24ZM66.2,59.9l-.32.37.25-.44.24-.38Zm3.74-3.77c-1,.3-2.12.55-3.14.94-.27.1-.36.66-.53,1,.43.05.91.26,1.27.13,1-.38,2.07-.87,2.35-2.13a1.07,1.07,0,0,0,.27-.09s0-.13.08-.2Zm-2.77-7.5c2.35,0,3.84-1.66,3.17-3.45-.76-2-4.75-3.24-6.54-2-.73.49-1,1.12-.2,1.74s1.71,1.26,1.78,2.37C65.48,48.64,66.33,48.67,67.17,48.63Zm55.9-2.16,0,.19c-1.35,0-2.71,0-4.05,0-.29,0-.65.4-.78.7s.19.57.39.77a1.46,1.46,0,0,0,.79.42c2.14.21,4.29.41,6.44.54a13.79,13.79,0,0,0,2.8-.08c.44-.07.83-.51,1.25-.77-.34-.33-.63-.86-1-.94C126.94,47,125,46.74,123.07,46.47Zm-4.55,13.66c.41.56.66,1.28,1.11,1.44a1.86,1.86,0,0,0,1.59-.47,2,2,0,0,0,.4-1.63c-.18-.86,0-.78.71-.64a1.46,1.46,0,0,0,1.2-.51,8.64,8.64,0,0,0,.89-2,3.76,3.76,0,0,0,.11-.77,3.15,3.15,0,0,0-.84.23c-1.44,1-2.87,2-4.26,3A5.21,5.21,0,0,0,118.52,60.13ZM117,64.29c.37-.39,1-.73,1-1.11a6.46,6.46,0,0,0-.34-2.3c-.25-.82-.79-1.07-1.65-.58-.69.39-1.25.76-.86,1.63a12.53,12.53,0,0,0,1,1.86C116.28,64,116.62,64.08,117,64.29ZM72.37,50.18l-.2-.7a1.78,1.78,0,0,0-.38.34c-1.08,1.75-2,3.64-4.11,4.46-.16.06-.27.75-.19.8.31.19.8.44,1.06.32C70.8,54.34,71.74,52.31,72.37,50.18Zm40.52,12.17c-.29.27-1.24.74-1.29,1.29-.1,1.06,1.25,2,2.43,1.74.46-.09,1.19-.65,1.19-1A2.31,2.31,0,0,0,112.89,62.35Zm-8.73,4.46c-.11-.13-.25-.38-.35-.36q-2.09.36-4.17.81c-.25,0-.45.31-.68.47.29.26.65.79.87.74,1.37-.31,2.72-.75,4.07-1.18C104,67.25,104.08,67,104.16,66.81Zm-9.08,3.26a4.63,4.63,0,0,0,.44-1.32c-.07-.85-.78-.78-1.35-.71a3,3,0,0,0-1,.5ZM66.9,51.22c-.1,0-.27-.07-.29,0-.35.66-.69,1.34-1,2,.26.1.58.36.78.29a1.41,1.41,0,0,0,1-1.89C67.27,51.44,67,51.34,66.9,51.22Zm41.77,14.67c-.19-.48-.31-.81-.32-.8-.75.27-1.51.54-2.24.87-.12.05-.15.31-.19.49,0,0,.18.16.25.14C107,66.37,107.82,66.13,108.67,65.89Zm1.3,0c.5-.57.9-.85,1-1.22,0-.18-.48-.76-.69-.73a1.29,1.29,0,0,0-.83.74C109.37,64.89,109.69,65.26,110,65.88ZM98.15,68c-.51-.21-.86-.49-1.11-.42s-.7.57-.64.73c.11.32.51.54.79.8ZM66,54.45c-.2.19-.45.33-.43.41a5.46,5.46,0,0,0,.36,1c.09-.17.26-.33.26-.5A3.84,3.84,0,0,0,66,54.45Zm-1.45,9.44.14.1,0-.16Z"/><path d="M97.41,34.23a34,34,0,0,1,4.56-.62c1.51,0,2.1.66,2.43,2.24q.59,2.86,1,5.76c0,.33-.28.73-.46,1.09s-.53.93-.8,1.39c.46-.18.93-.34,1.38-.54s.73-.39,1.12-.53a.63.63,0,0,1,.55.1.52.52,0,0,1,0,.5c-.33.4-.7.77-1.06,1.14s-.26.63.28.75a3.21,3.21,0,0,1,1.14.43c.62.41.54,1.08-.16,1.43a3.46,3.46,0,0,1-1.44.53c-2.69,0-5.4.4-8-.48a6.12,6.12,0,0,1-1.39-.59c-.19-.13-.2-.53-.3-.8a2.16,2.16,0,0,1,.75-.18c1.52.27,3,.58,4.55.85.18,0,.38-.11.58-.17a2.1,2.1,0,0,0-.32-.34c-.29-.18-.6-.34-.9-.5A5.28,5.28,0,0,0,102,45.3a2.34,2.34,0,0,0,.74-.79,9,9,0,0,0-1.41-1.42c-.06-.05-.47.25-.67.45a10.94,10.94,0,0,1-1,1.12c-1.1.82-1.83.67-2.49-.54A13,13,0,0,1,95.59,36l-.07.09,2-1.95Zm1.93,6.56,1.45-.49c-.14-.34-.32-.68-.43-1-.29-1,.2-1.39,1.09-1.26.46.07,1,.61,1-.32a2.85,2.85,0,0,0-.67-1.45,13.11,13.11,0,0,0-3.39,1.25c-.67.41,0,3.07.67,3.39C99.11,40.91,99.24,40.82,99.34,40.79Zm4.89,6a5.09,5.09,0,0,0,1-.09c.2-.06.36-.27.54-.42a2.1,2.1,0,0,0-.56-.2,2.63,2.63,0,0,0-.93,0,4.29,4.29,0,0,0-.85.44ZM102,40.17l.16.11,0-.16Z"/><path d="M132.32,108.9c.59-1.83,1.27-4.32,2.21-6.71,1.32-3.37,2.68-6.71,3.79-10.17a36,36,0,0,1,3.58-6.88c1.1-1.88,2.38-3.65,3.58-5.47,1.1-1.65,2.13-3.33,2-5.44a2.69,2.69,0,0,1,.33-1.18.77.77,0,0,1,1.44-.11,2.42,2.42,0,0,1,.3,2.62c-1.14,2.09-2.1,4.29-3.29,6.35-1.66,2.88-3.49,5.66-5.19,8.51A9.62,9.62,0,0,0,140,93,64.23,64.23,0,0,1,135,104.68a8.61,8.61,0,0,0-1.27,5,4.75,4.75,0,0,1-.18,1.53c0,.15-.33.36-.45.33s-.59-.24-.63-.43A16.53,16.53,0,0,1,132.32,108.9Z"/><path d="M70.85,30.47c.83,0,1.66-.06,2.49,0A10.64,10.64,0,0,0,79.88,29a7.84,7.84,0,0,1,1.64-.87c1-.29,1.75-1.58,3-.76a14.57,14.57,0,0,1-2.32,2.2c-1.4.86-2.95,1.47-4.43,2.2a3.28,3.28,0,0,0-.57.43c.3,0,.62.21.88.14a20.73,20.73,0,0,0,8-4.6c1.23-1.12,2.4-2.3,3.66-3.38.21-.18.74,0,1.12,0a2.44,2.44,0,0,1-.23.78,32.57,32.57,0,0,1-7.36,7.09,12,12,0,0,1-7.36,2,2.42,2.42,0,0,1-1.47-.33c-2.5-2.25-5.66-2.28-8.71-2.71a4.2,4.2,0,0,1-.62-.08,2.94,2.94,0,0,1-.53-.27c.22-.13.44-.37.67-.38,1.87,0,3.73,0,5.6,0Z"/><path d="M69.28,99.88c2.28,2.46,3.6,5.54,5.43,8.28,2.25,3.36,4.84,6.48,7.26,9.73.8,1.08,1.54,2.2,2.25,3.34.12.2,0,.58-.09.88-.25-.06-.64,0-.73-.21-1.27-2.22-3.5-3.54-5.08-5.41a46.58,46.58,0,0,1-5.27-8.06,35.48,35.48,0,0,0-6.75-9.26,4.6,4.6,0,0,1-1.2-1.42A5.37,5.37,0,0,1,65,96a4.65,4.65,0,0,1,1.43.7c1,1,1.92,2.15,2.87,3.23Z"/><path d="M96.46,151.49c-2.45-.29-4.92-.53-7.36-.89a6.55,6.55,0,0,1-4.38-3.21,1.06,1.06,0,0,1,.08-1c.37-.25,1-.5,1.35-.32a7.81,7.81,0,0,1,1.57,1.48,5.62,5.62,0,0,0,4.16,1.78c3.91,0,7.88.61,11.65-1,.3-.13.76.1,1.14.17a3.31,3.31,0,0,1-.32,1.09,4.18,4.18,0,0,1-3.5,1.69H96.49Z"/><path d="M122.48,78.65c-.18-1.78-.17-1.76-1.56-1.51-1.82.31-3.65.61-5.48.85-.32,0-.69-.26-1-.41.24-.27.43-.7.73-.79a20.31,20.31,0,0,1,2.69-.66,21.39,21.39,0,0,1,3.33-.61c1.41-.08,1.33-1,1.33-1.94l-.06.06c.62.39,1.11.61,1.8-.11a27,27,0,0,0,5.69-8.06,7.69,7.69,0,0,1,1.52-1.74c.82.85.32,1.66,0,2.5a21.66,21.66,0,0,1-4.47,7,34.28,34.28,0,0,0-4.51,5.34Z"/><path d="M48.58,117c0,1.94,0,3.7,0,5.46a3.39,3.39,0,0,0,1.17,2.75c1.69,1.52,3.36,3.07,5,4.61.61.56,1.25,1.08,1.81,1.68.13.13,0,.54,0,.79,0,.1-.39.18-.54.11a5.24,5.24,0,0,1-1.36-.73c-2-1.74-4.08-3.5-6.07-5.31a5.09,5.09,0,0,1-1.78-4.13c.11-2.78-.44-5.6.57-8.31a10.27,10.27,0,0,1,.76-1.69c.1-.16.51-.19.77-.18.08,0,.23.34.21.51C48.93,114.08,48.74,115.62,48.58,117Z"/><path d="M119.32,150.09a6.69,6.69,0,0,1-4.38-1.41,1.13,1.13,0,0,1-.28-1,.66.66,0,0,1,1.19-.26c1.81,1.7,3.89,1.33,5.8.44a9,9,0,0,1,4.78-1c2.82.29,4.73-1.08,6.31-3.22a10.93,10.93,0,0,1,1.67-1.73c.15-.13.64,0,.84.14a.85.85,0,0,1,.18.79c-1.76,2.55-3.35,5.19-7.06,5.39a40.4,40.4,0,0,0-6.33,1.36C121.14,149.77,120.23,149.92,119.32,150.09Z"/><path d="M114.89,131.56c.38,2.26-.35,4.33-1.33,6.45a43.44,43.44,0,0,0-2.21,6.73,3.66,3.66,0,0,1-1.62,2.5,1.12,1.12,0,0,1-.81-.09c-.1,0-.17-.41-.1-.55,1.77-3.38,2.48-7.18,4.25-10.56a3.58,3.58,0,0,0,.48-2.06c-.53-3-.21-6.23-1.78-9.06-.1-.18-.15-.39-.25-.56-.39-.63-.39-1.27.33-1.53.27-.1.93.31,1.12.65A12.42,12.42,0,0,1,114.89,131.56Z"/><path d="M58.89,66.37c-.66,1.7-1.32,3.44-2,5.16-.92,2.29-.75,3,1.14,4.53,1,.84,2.17,1.59,3.21,2.45.28.23.35.7.51,1.06-.37.1-.88.42-1.08.28a38.17,38.17,0,0,1-5.42-4A3.51,3.51,0,0,1,54.68,72c.82-2.12,1.25-4.38,2.7-6.21a3.71,3.71,0,0,1,1-.68Z"/><path d="M42.36,80.56a4.63,4.63,0,0,1-1.14.49A2.51,2.51,0,0,1,40,80.9q-3.11-1.38-6.17-2.85c-.3-.15-.47-.56-.7-.85.23-.18.44-.45.7-.5.56-.13,1-.22.54-.92a4.94,4.94,0,0,1-.67-4.17.57.57,0,0,1,.42-.33.59.59,0,0,1,.51.24c.28.66.53,1.34.76,2,.85,2.56,2.13,4.68,5,5.35C41,79,41.46,79.74,42.36,80.56Z"/><path d="M65.71,134.37c-.42.24-.68.51-.86.46a4.45,4.45,0,0,1-1.39-.62c-2.53-1.81-5.17-3.48-7.49-5.52a25.91,25.91,0,0,1-3.75-4.88,3.74,3.74,0,0,1-.4-1.76.88.88,0,0,1,.41-.71c.17-.07.59.15.71.35a5,5,0,0,1,.39,1.17,9.77,9.77,0,0,0,3.91,5.07c2.42,1.77,4.87,3.49,7.29,5.26A11.85,11.85,0,0,1,65.71,134.37Z"/><path d="M71.88,27.92c-.72,0-1.45,0-2.17,0-2.23-.19-4.33.06-6,1.72a2.07,2.07,0,0,1-.76.52c-.26.09-.75.12-.81,0-.17-.33-.36-.86-.21-1.1A4.81,4.81,0,0,1,66,26.63c2.27,0,4.55,0,6.82,0,1.74,0,3.52.29,5.1-.79a.74.74,0,0,1,.72.19,1,1,0,0,1,0,.87,2.05,2.05,0,0,1-2.09,1c-1.55,0-3.1,0-4.65,0Z"/><path d="M51.8,111.82c0,1.24,0,2.48,0,3.72a5.5,5.5,0,0,1-.37,1.79,1.2,1.2,0,0,1-.87.66c-.2,0-.64-.51-.64-.79,0-1.75.15-3.5.27-5.25.06-.82.23-1.63.3-2.45.12-1.37.07-2.7-1.26-3.59a1.15,1.15,0,0,1-.52-.73c0-.47.07-1.14.36-1.34a1.35,1.35,0,0,1,1.3.27,14.26,14.26,0,0,1,1.43,3.68,22.55,22.55,0,0,1,.05,4Z"/><path d="M97.58,30.53a6.56,6.56,0,0,0-2.1.86c-2.1,1.74-3.81,3.74-3.71,6.75,0,1,.35,2.22-.88,2.73-.62.25-1.15-1.44-.86-3,.75-4,2.6-7.13,6.78-8.35.39-.12.83-.41,1.17-.31.63.18,1.74.67,1.71.87C99.54,31,98.8,31.1,97.58,30.53Z"/><path d="M74.69,81.94a8.93,8.93,0,0,1,.84.37c1.81,1,3.6,2.06,5.41,3.06,1.29.72,2.62,1.25,4.11.46a1.88,1.88,0,0,1,1.19-.22,4.56,4.56,0,0,1,1.21.71c-.3.35-.53.87-.9,1a6,6,0,0,1-5-.13,24.51,24.51,0,0,1-6.79-4.28c-.18-.18-.18-.54-.24-.82C74.46,82.07,74.6,82,74.69,81.94Z"/><path d="M97.49,113c2.68,0,4.57.43,6,2,.29.3.58,1,.43,1.21s-1.08.68-1.27.53c-2-1.59-4.54-1.07-6.75-1.75-.32-.1-.79-.47-.77-.69a1.21,1.21,0,0,1,.62-.94A9.62,9.62,0,0,1,97.49,113Z"/><path d="M30.33,103c-.15-.33-.5-.74-.41-.93a7.19,7.19,0,0,1,1.55-2.57c1.71-1.32,3.71-2.26,4.88-4.23.18-.31.92-.4,1.39-.38s1,.49.56,1A22,22,0,0,1,35,99.22c-1.4,1-3,1.76-3.95,3.39C31,102.76,30.73,102.81,30.33,103Z"/><path d="M52.36,39.72a3.3,3.3,0,0,1-1.11,3.11,1.26,1.26,0,0,1-.89.07c-.14,0-.36-.35-.32-.44,1.12-2.39-.47-4.4-.9-6.56a4.13,4.13,0,0,1,0-1,3.48,3.48,0,0,1,1.15.3A4.75,4.75,0,0,1,52.36,39.72Z"/><path d="M95.59,36c-.21.32-.56.62-.61,1-.12.81,0,1.68-.18,2.48s-.72,2-1,2c-1.17-.13-.73-1.25-.75-2C93,36,94,34.23,96.68,33.37c.93-.3.63.45.73.86l.07-.06a2,2,0,0,0-2,1.95Z"/><path d="M40.73,102.39a2.79,2.79,0,0,1,.46.89,1.09,1.09,0,0,1-.37.8q-4,3.45-8,6.86c-.14.11-.38.1-.57.15,0-.24-.08-.58.05-.7q3.78-3.89,7.61-7.71C40.07,102.55,40.31,102.54,40.73,102.39Z"/><path d="M35.8,81A29.3,29.3,0,0,1,39,82c1.63.72,1.9,1.46,1.46,3.37-.09.36-.22.7-.33,1.05-.28-.28-.68-.5-.84-.84-.8-1.69-2.47-2.41-3.82-3.48-.3-.24-.57-.51-.86-.76Z"/><path d="M89.1,57.29l.64-.89c.24.2.57.35.69.6,1.08,2.35,2.12,4.72,3.15,7.1a.58.58,0,0,1-.15.54c-.11.11-.47.17-.53.1A18.46,18.46,0,0,1,89.1,57.29Z"/><path d="M88.26,20.56a2.25,2.25,0,0,1,.32.66.69.69,0,0,1-.26.52c-1.9,1.56-3.8,3.12-5.74,4.64-.26.2-.73.12-1.1.17,0-.37-.13-.92,0-1.07,2.07-1.68,4.19-3.29,6.3-4.91C87.89,20.52,88,20.56,88.26,20.56Z"/><path d="M48.75,89.27c-.1.48-.32,1.68-.61,2.86-.13.52-.47,1.06-1.07.7a1.62,1.62,0,0,1-.73-1.22,46,46,0,0,1,1.15-4.77c.12-.44.56-.79.86-1.18A9,9,0,0,1,48.73,87,21.48,21.48,0,0,1,48.75,89.27Z"/><path d="M67.43,84a10.23,10.23,0,0,1,0-1.24,2.51,2.51,0,0,1,.3-.7,2.51,2.51,0,0,1,.2.56c.24,2,.48,4.06.67,6.1.1,1-.08,2,.73,2.91A1.61,1.61,0,0,1,69.56,93c-.11.42-.56.75-.87,1.12a4.11,4.11,0,0,1-.55-1.22c-.22-3-.38-5.93-.55-8.89Z"/><path d="M39,60.74c0-1.14-.22-1.92,0-2.12,1.62-1.28,3.34-2.44,5-3.6.13-.09.63.11.74.3a1.1,1.1,0,0,1,0,.89,1.15,1.15,0,0,1-.7.52,5.06,5.06,0,0,0-3.58,2.72C40.3,59.82,39.83,60,39,60.74Z"/><path d="M86.11,44.36c-.16.06-.37.22-.47.17-1.76-.81-3.84-1.37-3.37-4a1.61,1.61,0,0,0,0-.31c-.13-.71-1.41-1-.74-2l2,2c-.89,1.58.58,1.89,1.38,2.57A11.32,11.32,0,0,1,86,43.78C86.1,43.91,86.07,44.16,86.11,44.36Z"/><path d="M112,119.28c.06-1.22,2.22-3.36,3.44-3.59a.89.89,0,0,1,.67.46,1.08,1.08,0,0,1,0,.88,1.3,1.3,0,0,1-.78.4c-1.11.24-1.35,1.14-1.69,2-.18.47.38,1.49-.57,1.31C112.63,120.67,112.32,119.69,112,119.28Z"/><path d="M45.29,88.12c-.29-.37-.76-.72-.72-1a13.41,13.41,0,0,1,.84-3.52c.19-.45,1.15-.56,1.76-.83-.1.48-.2,1-.31,1.44-.26,1.1-.49,2.21-.8,3.29C46,87.74,45.62,87.87,45.29,88.12Z"/><path d="M64.58,137.46c1,.5,1.81.89,2.6,1.33a14.19,14.19,0,0,0,1.76,1.09c.52.2,1.12.34.82.94a1.39,1.39,0,0,1-1.34.36c-1.37-.86-2.66-1.87-4-2.86C64.37,138.25,64.52,137.87,64.58,137.46Z"/><path d="M54.27,49.14c-.15-.07-.39-.1-.47-.23a.66.66,0,0,1,0-.58,3.92,3.92,0,0,1,3.49-2.16c.39,0,.79.52,1.18.8-.23.32-.4.79-.71.93C56.63,48.37,55.45,48.73,54.27,49.14Z"/><path d="M108.66,27.55c-.21.13-.43.4-.66.4a3.91,3.91,0,0,1-2.81-2.17,1.49,1.49,0,0,1,.43-1.12,1,1,0,0,1,1,.12,26.54,26.54,0,0,1,1.87,2.09C108.57,27,108.57,27.25,108.66,27.55Z"/><path d="M131.27,73.09a3.61,3.61,0,0,1-2.52,2.81.84.84,0,0,1-.63-.51c-.19-1,1.83-3,2.84-2.79C131.09,72.62,131.17,72.92,131.27,73.09Z"/><path d="M168.17,88.2a.74.74,0,0,1,0,.42c-.12.22-.36.54-.52.53a1,1,0,0,1-.67-.47,2.26,2.26,0,0,1-.25-.87c-.11-1.06-.19-2.13-.28-3.2,0,0,.18-.06.22,0a3.85,3.85,0,0,1,1.54,3.13C168.18,87.82,168.17,87.92,168.17,88.2Z"/><path d="M59.76,36c.18.09.45.13.52.27s-.06.39-.18.52a18.26,18.26,0,0,1-1.77,1.75,1,1,0,0,1-1,.12,1.24,1.24,0,0,1-.37-1A2.84,2.84,0,0,1,59.76,36Z"/><path d="M107.42,36.19a7.18,7.18,0,0,0-.34.66c-.07.19-.1.39-.15.58a3.17,3.17,0,0,0,.69-.07c.45-.13.88-.31,1.33-.47a10.89,10.89,0,0,1-.89,1.32c-.18.21-.63.42-.8.33a12.54,12.54,0,0,1-1.61-1.12c.43-.53.85-1.06,1.3-1.58C107,35.83,107.27,36.08,107.42,36.19Z"/><path d="M134.21,89.75c-.22-.17-.65-.34-.81-.65-.28-.57.59-2,1.33-2.09.27,0,.78.54.87.91C135.81,88.86,135.34,89.48,134.21,89.75Z"/><path d="M142.29,99.56l1.9,2.36c-.51.28-1.05.84-1.52.78-.88-.1-.94-1-.88-1.7A9.14,9.14,0,0,1,142.29,99.56Z"/><path d="M121.08,84.24l.52-2.75c.06.9.08,1.81.19,2.7s.36,2,.48,3c0,.2-.26.44-.4.66-.21-.16-.59-.32-.6-.5,0-1,0-2,0-3.06Z"/><path d="M91.87,54.13a2.31,2.31,0,0,1,.8.06,4.78,4.78,0,0,1,.89.57c-.28.23-.53.6-.84.67a3.13,3.13,0,0,1-1.52,0,8.34,8.34,0,0,1-1.55-.78c.5-.16,1-.34,1.49-.49A4.62,4.62,0,0,1,91.87,54.13Z"/><path d="M115.81,93.84a9.73,9.73,0,0,1-2,1c-.18,0-.83-.9-.76-1a4.76,4.76,0,0,1,1.5-1.26C114.7,92.51,115.21,93.22,115.81,93.84Z"/><path d="M90.69,100.23a7.53,7.53,0,0,1,1.6-1.44c.57-.25,1.59.73,1.31,1.22a3,3,0,0,1-1.53,1.09C91.82,101.19,91.37,100.67,90.69,100.23Z"/><path d="M87.29,56.23a1.19,1.19,0,0,1-.59.46c-.36,0-.74-.23-1.08-.17a5.2,5.2,0,0,0-1.18.54c.07-.37,0-.89.24-1.08a4.66,4.66,0,0,1,1.74-1C86.59,55,87,55.73,87.29,56.23Z"/><path d="M134.71,80.25l1.43,1.34c-.43.38-.8.91-1.3,1.07-.26.08-1.07-.53-1-.76A5.69,5.69,0,0,1,134.71,80.25Z"/><path d="M71.34,124.35a9.56,9.56,0,0,1-1.58,1.16c-.2.09-.78-.25-.91-.52-.25-.52.79-1.77,1.37-1.65C70.55,123.41,70.8,123.85,71.34,124.35Z"/><path d="M83,114a1.58,1.58,0,0,1-1.56-1.59.88.88,0,0,1,.56-.57,1.33,1.33,0,0,1,1.58,1.31C83.49,113.48,83.12,113.76,83,114Z"/><path d="M126.63,103.89,128,105c-.4.37-.8,1.05-1.21,1.05s-.86-.64-1.15-1.09C125.61,104.86,126.2,104.35,126.63,103.89Z"/><path d="M95.33,93.05l1.22,1.51c-.36.28-.83.87-1,.79a2.08,2.08,0,0,1-1.09-1.11C94.33,94,94.92,93.55,95.33,93.05Z"/><path d="M34.79,93.89c-.71.51-1.44,1.06-2.2,1.57-.11.07-.37-.06-.55-.13s-.1-.21-.07-.22c.88-.63,1.78-1.24,2.67-1.86Z"/><path d="M69.31,99.92c0-.3-.19-.66-.08-.88a5.6,5.6,0,0,1,.87-1c.28.25.83.56.79.74a2.11,2.11,0,0,1-.74,1.11c-.17.15-.57,0-.87,0Z"/><path d="M103.54,111.6c-.69.62-1,1.07-1.39,1.19-.21.06-.73-.41-.84-.74a1,1,0,0,1,.53-.85A5.22,5.22,0,0,1,103.54,111.6Z"/><path d="M122.42,78.59a5.57,5.57,0,0,1,0,.92,2.8,2.8,0,0,1-.32.65,2.24,2.24,0,0,1-.11-.87c.06-.24.35-.43.53-.64Z"/><path d="M95,60.14l-.32.69a2.07,2.07,0,0,1-.29-.74c0-.18.23-.37.36-.55Z"/><path d="M86.74,50.15l-.72.33c-.08-.2-.26-.53-.2-.58a2.64,2.64,0,0,1,.73-.37Z"/><path d="M69.36,46c0,1.09-.85,2.1-1.46,1.85a1.23,1.23,0,0,1-.56-.93c-.06-1.07.58-2,1.14-1.81C68.89,45.27,69.16,45.77,69.36,46Z"/></g></svg>