<svg id="Layer_1" data-name="Layer 1" xmlns="http://www.w3.org/2000/svg" viewBox="0 0 200 200"><g id="_1gnuKN" data-name="1gnuKN"><path d="M148.94,156.42c.87,2.29,1.73,4.53,2.58,6.76,3.32-.59,13.58-5.36,15.65-7.26l-3.47-6.33a61.6,61.6,0,0,0,10.09-8.2l5.56,4.76a65.49,65.49,0,0,0,10.31-13.85l-6.16-4a61.22,61.22,0,0,0,5.05-12.3l7.06,1.47c1.42-3.73,2.77-14.5,2.29-17.48H161.61c.11,15.95-13.23,29.67-29.88,29.6A29.71,29.71,0,0,1,102.32,103a28.55,28.55,0,0,1,5.54-20.48c5.92-8,14-12,23.89-12.28.18-1,.14-35.64,0-36.34a68.72,68.72,0,0,0-17.44,2.39c.51,2.44,1,4.76,1.5,7.16a61.74,61.74,0,0,0-10,3.84l-3.69-6.32a65.78,65.78,0,0,0-14.28,9.71l4.55,5.77A61.07,61.07,0,0,0,83.86,66L77.6,62.13a66.22,66.22,0,0,0-8,15.32l6.71,2.93a62.47,62.47,0,0,0-2.88,11.91l-7.28-.44a63.39,63.39,0,0,0,.1,17.24l7.29-.53a60.81,60.81,0,0,0,3.31,12.68l-6.61,3.1a65.69,65.69,0,0,0,8.37,15.1l6.07-3.94c1.47,1.69,2.83,3.35,4.3,4.91s3.08,3.05,4.66,4.59l-4.3,5.83A65.37,65.37,0,0,0,104,160.08l3.5-6.43a60.67,60.67,0,0,0,12.38,4.08l-1,7.22a65.2,65.2,0,0,0,17.24,1.16V158.8A60.63,60.63,0,0,0,148.94,156.42Zm-116-94.36h1.14q14.43,0,28.87,0a1.37,1.37,0,0,0,1.42-.81A77,77,0,0,1,88.93,34.35c.21-.14.41-.29.64-.47-.7-.2-84.17-.23-85-.05,0,.05-.08.1-.08.15l0,127.87c0,.29,0,.58,0,.87,0,0,0,.05,0,.07l.06.06c1.64.16,27.59.09,28.3-.1V114.13H56.38c-.31-2-.65-3.88-.89-5.77s-.41-3.81-.52-5.72-.15-3.9-.12-5.84.16-3.84.33-5.75.44-3.77.68-5.73h-23Z"/><path d="M148.94,156.42a60.63,60.63,0,0,1-12.85,2.38v7.31A65.2,65.2,0,0,1,118.85,165l1-7.22a60.67,60.67,0,0,1-12.38-4.08l-3.5,6.43a65.37,65.37,0,0,1-14.57-9.25l4.3-5.83c-1.58-1.54-3.18-3-4.66-4.59s-2.83-3.22-4.3-4.91l-6.07,3.94a65.69,65.69,0,0,1-8.37-15.1l6.61-3.1a60.81,60.81,0,0,1-3.31-12.68l-7.29.53a63.39,63.39,0,0,1-.1-17.24l7.28.44a62.47,62.47,0,0,1,2.88-11.91l-6.71-2.93a66.22,66.22,0,0,1,8-15.32L83.86,66a61.07,61.07,0,0,1,8.5-9.54l-4.55-5.77a65.78,65.78,0,0,1,14.28-9.71l3.69,6.32a61.74,61.74,0,0,1,10-3.84c-.5-2.4-1-4.72-1.5-7.16a68.72,68.72,0,0,1,17.44-2.39c.18.7.22,35.36,0,36.34-9.89.33-18,4.29-23.89,12.28A28.55,28.55,0,0,0,102.32,103a29.71,29.71,0,0,0,29.41,26.68c16.65.07,30-13.65,29.88-29.6H197.9c.48,3-.87,13.75-2.29,17.48l-7.06-1.47a61.22,61.22,0,0,1-5.05,12.3l6.16,4a65.49,65.49,0,0,1-10.31,13.85l-5.56-4.76a61.6,61.6,0,0,1-10.09,8.2l3.47,6.33c-2.07,1.9-12.33,6.67-15.65,7.26C150.67,161,149.81,158.71,148.94,156.42Z"/><path d="M32.91,62.06V85.31h23c-.24,2-.52,3.84-.68,5.73s-.29,3.83-.33,5.75,0,3.89.12,5.84.29,3.82.52,5.72.58,3.77.89,5.77H32.9v48.62c-.71.19-26.66.26-28.3.1l-.06-.06s0,0,0-.07c0-.29,0-.58,0-.87L4.47,34s0-.1.08-.15c.85-.18,84.32-.15,85,.05-.23.18-.43.33-.64.47A77,77,0,0,0,64.34,61.26a1.37,1.37,0,0,1-1.42.81q-14.45,0-28.87,0Z"/></g></svg>