<svg id="Layer_1" data-name="Layer 1" xmlns="http://www.w3.org/2000/svg" viewBox="0 0 200 200"><defs><style>.cls-1{fill:#fff;}</style></defs><g id="XqmXaI.tif"><path class="cls-1" d="M190.87,191H7V10H190.87ZM141.77,24.79C111.13,8.08,63.6,10.51,33.51,46.88A87.92,87.92,0,0,0,163.52,165c32.53-32.65,30.6-78.25,14.44-105.11-1.39,2.38-2.79,4.73-4.15,7.12a1.91,1.91,0,0,0,0,1,47.45,47.45,0,0,1,.55,5.41,6.17,6.17,0,0,1-5.21,6.28,12.32,12.32,0,0,1-3.21.17A28.52,28.52,0,0,1,154.65,76a72.7,72.7,0,0,1-14.78-11.15,58,58,0,0,1-14.36-20.34,19.7,19.7,0,0,1-1.75-8.89,6.3,6.3,0,0,1,5-6.12,6.57,6.57,0,0,1,2.83-.26c1.92.43,3.38-.32,4.88-1.31C138.17,26.82,140,25.85,141.77,24.79Zm48.64-4.52c0-.52,0-1.18-.1-1.83-.35-3.48-2.26-5.69-5.56-6.39a13.76,13.76,0,0,0-2.4-.25,33.12,33.12,0,0,0-11,2.06A125.49,125.49,0,0,0,149.36,24a147.71,147.71,0,0,0-16.69,10.64,7.13,7.13,0,0,0-2.95,6.29,19.07,19.07,0,0,0,2.07,7.83A48,48,0,0,0,149.9,68.47a25,25,0,0,0,9.76,3.86c3.34.49,6.24-.19,8.24-3.21,1.61-2.42,3.35-4.74,4.9-7.19A154.22,154.22,0,0,0,187.52,33.2,39.91,39.91,0,0,0,190.41,20.27ZM52.3,24.14a2,2,0,0,0-.21-.19c-.65-.37-1.3-.75-2-1.1-7.6-4.13-15.34-7.93-23.66-10.39A30.19,30.19,0,0,0,15,10.9c-3.64.34-6.11,2.19-6.91,5.5a19,19,0,0,0-.43,4.7,34.09,34.09,0,0,0,1.79,9.21c2.8,9,7,17.37,11.64,25.55,0,.06.12.1.21.18A91.27,91.27,0,0,1,52.3,24.14Z"/><path d="M141.77,24.79c-1.79,1.06-3.6,2-5.32,3.16-1.5,1-3,1.74-4.88,1.31a6.57,6.57,0,0,0-2.83.26,6.3,6.3,0,0,0-5,6.12,19.7,19.7,0,0,0,1.75,8.89,58,58,0,0,0,14.36,20.34A72.7,72.7,0,0,0,154.65,76a28.52,28.52,0,0,0,11.27,3.85,12.32,12.32,0,0,0,3.21-.17,6.17,6.17,0,0,0,5.21-6.28,47.45,47.45,0,0,0-.55-5.41,1.91,1.91,0,0,1,0-1c1.36-2.39,2.76-4.74,4.15-7.12,16.16,26.86,18.09,72.46-14.44,105.11a87.92,87.92,0,0,1-130-118.11C63.6,10.51,111.13,8.08,141.77,24.79Z"/><path d="M190.41,20.27a39.91,39.91,0,0,1-2.89,12.93A154.22,154.22,0,0,1,172.8,61.93c-1.55,2.45-3.29,4.77-4.9,7.19-2,3-4.9,3.7-8.24,3.21a25,25,0,0,1-9.76-3.86,48,48,0,0,1-18.11-19.76,19.07,19.07,0,0,1-2.07-7.83,7.13,7.13,0,0,1,2.95-6.29A147.71,147.71,0,0,1,149.36,24,125.49,125.49,0,0,1,171.3,13.86a33.12,33.12,0,0,1,11-2.06,13.76,13.76,0,0,1,2.4.25c3.3.7,5.21,2.91,5.56,6.39C190.37,19.09,190.38,19.75,190.41,20.27Z"/><path d="M52.3,24.14a91.27,91.27,0,0,0-31,31.9c-.09-.08-.18-.12-.21-.18-4.62-8.18-8.84-16.54-11.64-25.55A34.09,34.09,0,0,1,7.67,21.1a19,19,0,0,1,.43-4.7c.8-3.31,3.27-5.16,6.91-5.5a30.19,30.19,0,0,1,11.47,1.56c8.32,2.46,16.06,6.26,23.66,10.39.65.35,1.3.73,2,1.1A2,2,0,0,1,52.3,24.14Z"/></g></svg>