<svg id="Layer_1" data-name="Layer 1" xmlns="http://www.w3.org/2000/svg" viewBox="0 0 200 200"><g id="_1Aqqvc" data-name="1Aqqvc"><path d="M153.81,140.86c0,5.95,0,11,0,16,0,5.81-3.1,9.27-8.1,9.23-4.8,0-7.87-3.41-8-9-.11-7.52,0-15-.21-22.54,0-1.33-.46-3.29-1.38-3.84-9.08-5.47-18.3-10.71-28.19-16.43,0,9.16.5,17.6-.17,25.95-.5,6.37,1.58,10,7.3,12.62,4.94,2.25,9.47,5.4,14.17,8.17,5.57,3.28,7.24,7.71,4.6,12.1-2.52,4.2-7.19,4.86-12.54,1.77q-6.21-3.57-12.42-7.14c-.08-.05-.25,0-1,.18,0,5.52.09,11.18,0,16.83a8,8,0,0,1-6.34,8,7.82,7.82,0,0,1-8.79-4.44,15.14,15.14,0,0,1-.86-5.2c-.11-5,0-10.08,0-15.95l-10.56,6.11c-1.54.89-3,1.85-4.63,2.63-4.12,2-8.56.8-10.72-2.88a7.66,7.66,0,0,1,2.65-10.73,150.41,150.41,0,0,1,16.25-9.5c5.54-2.61,7.69-6.05,7.17-12.31-.67-8.14-.19-16.38-.23-24.57a6.32,6.32,0,0,0-.43-1.27c-4.41,2.51-8.75,5-13.07,7.46s-8.68,5.17-13.14,7.54a5,5,0,0,0-3,5.13c.14,7.24,0,14.48-.07,21.72-.06,6.17-3,9.63-8.17,9.57s-7.86-3.6-7.85-9.89c0-4.86,0-9.73,0-15.42-5.19,3-9.86,5.64-14.5,8.36-2.94,1.72-5.94,2.1-8.94.36-5.2-3-5.24-10.13,0-13.6,2.38-1.59,4.94-2.9,7.42-4.34l8.14-4.73-10.43-6c-1.42-.81-2.87-1.59-4.26-2.45-4.38-2.71-5.7-7.15-3.35-11.18,2.23-3.83,6.73-5,11.06-2.7q10.24,5.57,20.31,11.48a4.68,4.68,0,0,0,5.51,0c8.67-5.18,17.45-10.14,26.55-15.39a20.39,20.39,0,0,0-2.26-1.77c-8-4.66-16.12-9.2-24.08-14a5,5,0,0,0-5.92,0c-6.32,3.78-12.77,7.36-19.21,11-5,2.8-9.73,1.81-12.06-2.41S19.27,85,24.37,82c4.24-2.47,8.52-4.89,12.78-7.34a5.4,5.4,0,0,0,.62-.77l-10.7-6.26c-1.53-.89-3.12-1.7-4.58-2.71-3.78-2.6-4.81-7.06-2.57-10.77a7.85,7.85,0,0,1,10.72-2.85c5,2.71,9.92,5.64,15.52,8.85V48.31c0-1.92-.15-3.84,0-5.74.38-4.82,3.8-8,8.3-7.8a7.83,7.83,0,0,1,7.63,8c.18,7.65.29,15.31.11,23-.08,2.91,1,4.4,3.41,5.74C74,76.13,82.2,81,90.49,85.71a5.21,5.21,0,0,0,1.13.23c.1-1.18.28-2.31.28-3.45,0-8.74-.13-17.49.09-26.23.08-3-1-4.61-3.6-6C82.16,46.84,76.1,43.14,70,39.5c-5-3-6.48-7.43-4-11.65s7.08-5,12.15-2.09c4.15,2.37,8.27,4.79,12.41,7.17.2.11.51,0,1.36.08,0-5.28-.31-10.55.13-15.76A13.73,13.73,0,0,1,94.93,10c2.06-2.49,5.31-2.66,8.31-1.28A7.81,7.81,0,0,1,108,16.25c0,5.56,0,11.12,0,17.6,4.84-2.85,9-5.32,13.19-7.76,5.56-3.26,10.31-2.56,12.83,1.86s.75,8.69-4.9,12c-6.23,3.67-12.5,7.28-18.65,11.09-1.08.66-2.33,2.13-2.35,3.25C107.9,63.86,108,73.43,108,83c0,.94.09,1.88.18,3.48l14-8.06c4.14-2.38,8.22-4.89,12.44-7.11a4.93,4.93,0,0,0,3-5.09c-.13-7.38,0-14.76.08-22.14.06-5.79,3.18-9.33,8.08-9.3s7.94,3.59,8,9.4c0,4.78,0,9.56,0,14.34a7.36,7.36,0,0,0,.46,1.36l14.43-8.29c3.13-1.79,6.26-1.88,9.23.27A7.85,7.85,0,0,1,177.27,65c-4.83,3.07-9.88,5.8-15.26,8.93,1,.74,1.79,1.39,2.64,1.88,3.78,2.19,7.61,4.29,11.37,6.51,4.72,2.79,6.16,7.23,3.79,11.36s-7,5-11.77,2.41c-5.74-3.16-11.59-6.17-17-9.78-4-2.62-7-2.41-11,.12-7.45,4.8-15.29,9-23,13.46-.19.11-.26.45-.52.95,9.17,5.3,18.32,10.66,27.57,15.83a4.47,4.47,0,0,0,3.61-.36c6.72-3.66,13.32-7.51,20-11.22,5.07-2.83,9.72-1.89,12.1,2.32s.81,8.61-4.25,11.55c-4.45,2.59-8.94,5.11-13.89,7.93,5.09,2.95,9.67,5.57,14.22,8.26,5.06,3,6.59,7.33,4.13,11.58s-7.06,5.07-12.11,2.21C163.46,146.39,159,143.82,153.81,140.86Z"/></g></svg>