<svg id="Layer_1" data-name="Layer 1" xmlns="http://www.w3.org/2000/svg" viewBox="0 0 200 200"><g id="tT8KIB.tif"><path d="M9,93.08c5.55-13.22,16.57-20.31,29.28-24.81,34.37-12.16,68.94-12.36,103.11.58A65.34,65.34,0,0,1,161.86,81.7c11.49,10.53,10,24.72-2.75,34.5C147.53,98,129.19,92.27,109.28,89.89,91,87.7,72.66,87.84,54.74,93c-14,4-25.87,11-32.37,25.35-6.53-3.91-10.31-9.71-13.37-16.1Z"/><path d="M25.92,120.7C28.57,113.49,33.57,108.18,40,104c9.65-6.24,20.44-9.07,31.7-10.25,18-1.9,36.09-1.93,53.54,3.59a87.42,87.42,0,0,1,20.37,10.07c4.09,2.63,7,7.1,10.46,10.77C130.27,140.45,53,141.67,25.92,120.7Z"/><path d="M10.13,114.64c17.8,17.58,39.37,22.52,62.08,24.57A174.73,174.73,0,0,0,124,136.52c16.84-3.53,32.46-9.73,44.88-23.05-4.35,27.46-18.47,42-47.52,48.67a136.25,136.25,0,0,1-65.61-.83c-13-3.38-23.92-10.41-33.29-19.85C15.37,134.37,11.53,125.66,10.13,114.64Z"/><path d="M158.3,71.25,127.73,58.69c11.9-3,18.78-12,26.54-20,4.7-4.85,9.68-9.63,15.28-13.31A30,30,0,0,1,183.23,21c2.73-.21,7,2,8.19,4.36s.34,6.64-1.11,9.26c-1.63,2.95-4.72,5.27-7.55,7.33a110,110,0,0,1-11.67,7.22c-7.79,4.3-11.92,10.79-12.44,19.63C158.59,69.77,158.37,70.72,158.3,71.25ZM179.37,26l-6,5.93c1,.82,2.5,2.55,2.93,2.31a50,50,0,0,0,6.14-4.4Z"/></g></svg>