<svg id="Layer_1" data-name="Layer 1" xmlns="http://www.w3.org/2000/svg" viewBox="0 0 200 200"><g id="Wk6NoK.tif"><path d="M43.91,98.45q0-41.45,0-82.9c0-8.08,1.34-9.4,9.52-9.4q46.66,0,93.32,0c7.84,0,9.23,1.39,9.23,9.23q0,74.05,0,148.11c0,17.09-10.08,27.17-27.16,27.2q-37.83.09-75.67,0c-7.57,0-9.23-1.69-9.23-9.34Q43.9,139.9,43.91,98.45ZM93.67,94c11.45,0,22.89.11,34.33,0,10.38-.12,17.41-7.27,17.47-17.68.08-16-.06-32,.08-47.94,0-4-1.44-5.56-5.42-5.55q-40.36.12-80.72,0c-4,0-5.45,1.63-5.43,5.56q.17,30,0,60c0,4.25,1.68,5.74,5.83,5.67C71.1,93.89,82.39,94,93.67,94ZM73.43,137.24c2.93-2.78,7.89,1.85,8.83-4.53,1.16-7.92-4.82-5.83-7.78-6.36-2.84-3,1.64-8-4.69-8.89-8-1.13-5.68,5-6.23,7.81-3,2.9-8-1.75-8.87,4.69-1.09,7.94,4.82,5.81,8.58,6.39.92,8.58,1,8.24,4.71,8.73C75.56,146.07,72.41,140,73.43,137.24Zm72.47-11.7a6.41,6.41,0,0,0-6.4-6.47,6.65,6.65,0,0,0-6.8,6.61,6.81,6.81,0,0,0,6.47,6.56A6.64,6.64,0,0,0,145.9,125.54Zm-25,1.44a6.63,6.63,0,0,0-6.34,7.06,6.5,6.5,0,0,0,6.66,6.22,6.78,6.78,0,0,0,6.47-6.55A6.88,6.88,0,0,0,120.92,127ZM90.35,153.52c-3.55,1.75-7,3.39-10.34,5.16a1.66,1.66,0,0,0-.29,1.6c.41.48,1.37,1,1.82.83q4.83-2,9.5-4.44c.45-.22.67-1.28.62-1.93C91.64,154.35,90.91,154,90.35,153.52Zm8.48,8.12c3.54-1.62,7.11-3.19,10.56-5,.32-.17.17-2.44-.28-2.66C107.34,153.15,99,158.33,98.83,161.64Zm36.89-5.35-1.53.85,8.47,15.33,1.47-.82Zm-21,11.87-1.5.82,8.37,15.22,1.46-.8Q118.83,175.78,114.67,168.16Zm26.39-14.73-1.54.83q4.24,7.71,8.5,15.4l1.56-.85Zm-10.55,5.87-1.58.89q4.27,7.58,8.56,15.16l1.38-.79Zm1.55,18.94,1.53-.81-8.45-15.29-1.56.85Zm-5.28,3,1.52-.84-8.44-15.23-1.54.84Z"/><path d="M70.65,31.81H129V84H70.65Z"/></g></svg>