<svg id="Layer_1" data-name="Layer 1" xmlns="http://www.w3.org/2000/svg" viewBox="0 0 200 200"><defs><style>.cls-1{fill:#fe8b00;}.cls-2{fill:#feec00;}.cls-3{fill:#004dfe;}.cls-4{fill:#e30303;}.cls-5{fill:#008026;}.cls-6{fill:#750786;}</style></defs><g id="I80VTo"><path class="cls-1" d="M13,82V63.93c.36,0,.73.06,1.09.06H186.91c.36,0,.73,0,1.09-.06V82Z"/><path class="cls-2" d="M13,82H188V100.1c-.31,0-.62-.06-.94-.06q-86.57,0-173.12,0c-.32,0-.63,0-.94.06Z"/><path class="cls-3" d="M188,118v18.09c-.36,0-.72-.06-1.09-.06H14.09c-.37,0-.73,0-1.09.06V118Z"/><path class="cls-4" d="M188,63.93c-.36,0-.73.06-1.09.06H14.09c-.36,0-.73,0-1.09-.06q0-8.72,0-17.42a.69.69,0,0,1,.49-.49q87,0,174,0a.69.69,0,0,1,.49.49Q188,55.23,188,63.93Z"/><path class="cls-5" d="M188,118H13V100.1c.31,0,.62-.06.94-.06q86.57,0,173.12,0c.32,0,.63,0,.94.06Z"/><path class="cls-6" d="M13,136.13c.36,0,.72-.06,1.09-.06H186.91c.37,0,.73,0,1.09.06q0,8.72,0,17.43a.71.71,0,0,1-.49.49q-87,0-174,0a.71.71,0,0,1-.49-.49Q13,144.85,13,136.13Z"/></g></svg>