<svg id="Layer_1" data-name="Layer 1" xmlns="http://www.w3.org/2000/svg" viewBox="0 0 200 200"><g id="_0QD0Q1" data-name="0QD0Q1"><path d="M43.21,162.16c-1.83-8.24-3.89-16.09-5.21-24.06-.75-4.53-2.35-7.74-6.2-10.49-6.6-4.71-12.71-10.11-19.41-15.53,5.76-5.32,11-7.88,17.91-5,5.66,2.39,11.38,4.65,17.19,6.64a6.2,6.2,0,0,0,4.83-.68c12.1-8.38,24-17.08,36.1-25.43,9.16-6.32,9.77-8.91.5-15.09C70.18,60.07,51,48.23,31.88,36.32c-6.21-3.87-7.7-7.73-3-11.57,1.78-1.46,5.31-2,7.64-1.37,8.07,2.13,16.05,4.71,23.9,7.6,3.31,1.22,5.89,1.33,8.72-.88a43.88,43.88,0,0,1,6.69-4c3.11-1.64,6.11-1.89,8.23,1.62,2.25,3.72.24,5.88-2.88,7.64-1,.53-1.79,1.26-3.46,2.46,5.77,2.27,10.9,4.53,16.21,6.22,1.41.45,3.47-.63,5.06-1.37,3-1.4,5.8-3.66,9-4.4,2-.47,4.48,1.17,6.74,1.86a53.2,53.2,0,0,1-2.39,7.09c-.46,1-2,1.39-3.91,2.58,9.18,3,17.55,5.92,26,8.47,1.25.37,3.11-.69,4.49-1.43,11-5.89,21.86-12,33-17.72A30.19,30.19,0,0,1,182,36.31c5.72-.66,8.29,2.9,5.23,7.81a39.24,39.24,0,0,1-10.12,11c-8.61,6.2-17.73,11.71-26.73,17.34-3,1.88-4.83,3.81-5.15,7.78-.6,7.58-2.13,15.08-3.38,23.29,2.18-1.14,3.59-2.41,5.11-2.54,2-.18,5.07-.13,5.83,1,1,1.55,1.12,4.93,0,6.33a23.88,23.88,0,0,1-7.75,6.21c-3.63,1.93-5,4.65-5.07,8.52-.13,4.27-.56,8.53-.9,13.39,2-1,3.48-2.44,5.13-2.61,2.07-.2,5.37-.09,6.1,1.12,1,1.71,1.18,5.39,0,6.73-2.39,2.71-6.15,4.14-8.89,6.61a11.81,11.81,0,0,0-3.63,6c-1.48,8.06-2.23,16.25-3.76,24.3a12,12,0,0,1-4,7c-4.21,3.13-9.11.71-9.55-4.63-.86-10.22-.75-20.55-2-30.71-1.77-14.6-4.17-29.12-6.72-43.61-1.05-6-3.31-6.8-8.65-4C88.68,110.38,74.23,118.09,60,126.12c-1.6.9-2.52,3.88-2.84,6a93.9,93.9,0,0,0-1.18,14.5C56,154.84,51.57,159.22,43.21,162.16Z"/></g></svg>