<svg id="Layer_1" data-name="Layer 1" xmlns="http://www.w3.org/2000/svg" viewBox="0 0 200 200"><path d="M46.73,115.14a4.7,4.7,0,0,0-4,2.58,3.58,3.58,0,0,1-4,1.53,6,6,0,0,0-5.69.52c-2,1.43-4.17.35-3.78-2.27s1.32-4.92,3.81-6.34c5.46-3.13,1.66-5.3,4.65-8.47s2.34-4.1,2.24-8.39c-10.13-1.53-15.88-4.45-22.28-12.46S8.87,67.25,8.22,57.21s-.09-16.56,4.25-24.9S21.39,20,29.29,15.82a45.78,45.78,0,0,1,22.83-5.05c7.17.12,11.95.64,16,3S75.88,19,78.23,19a8,8,0,0,0,5.14-1.46c.31,7.79-6.71,8.46-13,8.63s-10.11-2.42-15.89-1.47S39.3,28.26,34.69,36.27s-4.76,10.85-4.38,17.58,6.16,11.71,9.43,11.77,4-.89,6.86-2.75S64.05,42.94,69,38.89a23,23,0,0,1,15.2-5.38c5.31-.07,6.65.11,11,1.87s6.9,5,10.35,7c1.76-1,2.87-2.59,4.46-3.79,5.81-4.21,8.8-5.36,15.69-4.69a24,24,0,0,1,11.91,5.24c5.29,4.61,9.67,11,13.2,15.88,2.75,3.79,6,8.33,10.63,9.75,5,1.54,8.84-5,9.4-8.62a36.2,36.2,0,0,0,.74-6.12,29.09,29.09,0,0,0-.88-7.37,26.66,26.66,0,0,0-3-6.64,23.57,23.57,0,0,0-8.53-8.19c-1.88-.95-6.31-2.69-9.1-2.75-3.42-.08-6,1.07-9.18,1.29-3.82.26-10.66,1.11-13.64-1.84-1.92-1.88-2.16-3.14-2.47-5.58a5.81,5.81,0,0,0,3.06,1.24c2.39.2,4.62-1.74,6.56-2.88a47.28,47.28,0,0,1,5.94-3.44c5.38-2.18,12-2.12,17.65-1.53a41,41,0,0,1,14.43,4.75,38.92,38.92,0,0,1,10.7,9.68,32.69,32.69,0,0,1,6.79,14.09C191.53,48,192,58.88,190,66c-1.56,5.61-6.77,14.22-11.2,18.44s-9.44,6.2-15.17,7.3c.23,1.14.25,2.22.54,3.17.43,1.36,1.24,2.87,2.9,2.4a1.52,1.52,0,0,1,1.88.4c.88.76.43,3.71-2,5a9.85,9.85,0,0,1-4.55.86,43,43,0,0,1-7.27-.35c-2.17-.36-3.45-2.09-5.85-2.36-3.7-.42-6.53-3.1-9.51-5a24.57,24.57,0,0,0-2.37-1.21,36.73,36.73,0,0,1,1.15,3.56,28.58,28.58,0,0,1,.28,3.08c.15.91.4,1.61.54,2.36.59.52.78,1.32,1.78,1.58a10.59,10.59,0,0,0,3.57-.28c1-.14,1.71-.69,2.51-.53a5.61,5.61,0,0,1,2.23,1.26c.67.54,1.25.61,1.79,1.94a23,23,0,0,1,1.11,5.94,12.87,12.87,0,0,1-.68,5,8.26,8.26,0,0,1-2.5,3.53,38.27,38.27,0,0,1-6.25,5,11,11,0,0,0,1.32,1.94c.69.71,2.11,1.5,2.74,2.25a3,3,0,0,1,1,2.11,4.47,4.47,0,0,1-.71,2.85c-1.71,2.29-3.69,2.69-6.14,3.76.42,2.55.75,4.37.16,6.92-.23,1.05-.78,3.4-2.07,4s-3.75.32-5.33.57-2.43.48-3.66.72a21.77,21.77,0,0,0-2.22,3.22,2.68,2.68,0,0,0,0,2.28c.32,1,1.41,2.42,1.72,3.58a7.31,7.31,0,0,1,.08,3.54,6.35,6.35,0,0,1-1.76,3c-1,1-2.91,1.83-3.88,2.64s-1.93.94-1.66,2.31c.36,1.9,3.12,4.94,5.12,5.69a6.06,6.06,0,0,0,4.25-.32c-.11,1.6-1.49,2.71-2.41,3.78a14.82,14.82,0,0,0,6.53-3.85,16.29,16.29,0,0,1-4.93,6.23,18.72,18.72,0,0,1-3.95,2.63,17.87,17.87,0,0,0,6.49,0,12.78,12.78,0,0,1-4.89,1.58,14.29,14.29,0,0,1-5.57-.42c-2-.48-3.81-2.3-6.22-3.55a5.12,5.12,0,0,0,1.42,2.91,18.31,18.31,0,0,0,4.19,2.16,57.57,57.57,0,0,1-6.3-.73,16,16,0,0,1-3.65-1.25,24.94,24.94,0,0,1-2.93-2c.47.89.6,2,1.41,2.69a11.89,11.89,0,0,0,3.14,1.52,13.4,13.4,0,0,1-3.28-.08,8.91,8.91,0,0,1-3.38-1.59,23.37,23.37,0,0,1-3.4-3,14.76,14.76,0,0,1-2.64-3.53c-.37-1,.23-1.72.34-2.59a8.65,8.65,0,0,0-2.08,1.38,2.59,2.59,0,0,0-.77,2.43c.23,1.14,1.31,2.58,2.07,3.86-2.26-1.85-3.52-2.56-4.06-4.77s.8-4,1.78-5.54c.49-.79,1.24-1.52,1.69-2.28a29.62,29.62,0,0,1-3.06-3c-.86-1.15-1.23-2.69-2.11-3.76a23.18,23.18,0,0,0-3.13-2.66c.91,1.95,2.42,4.37,2.74,5.89A3.89,3.89,0,0,1,94,174c-.53.82-1.41,1-2.23,1.51s-2.12.12-2.61.86A2.55,2.55,0,0,0,89,179L91,182a9,9,0,0,1-2.5-2.15c-.56-.73-1.42-1.43-1.52-2.41a3.5,3.5,0,0,1,.49-2.77c.64-.9,2.42-1.2,3.22-1.88s1.24-1.13,1.19-2-.91-1.52-1.66-2.08c-2.28-1.72-5.19-3.29-7.13-5.34a7.24,7.24,0,0,1-1.83-2.9,2.94,2.94,0,0,1,.55-2.4c.55-1,2.4-2.33,2.64-3.38s-.73-1.31-1.57-1.69-2.46.19-3.24-.47.23-2-.66-2.78-2.91-.35-4-1.15a5.51,5.51,0,0,1-1.84-3,6.38,6.38,0,0,1-.16-3.33c.25-.86,1-1,1.43-1.46s.83-.79.23-1.45-2.52,0-3.64-.81-.45-2.91-1.24-3.77-2.19-.5-3-.79-1,.68-1.48-.84-.48-6.08-1.09-7.79-1.82-.12-2.38-1.8,0-4.38-.28-6.94l-1.15-7a24.22,24.22,0,0,1-10.91,4.29c-.35,10.49-1.34,16.67,2.23,28.3s10.75,18.48,20.47,28.31c-12.83-9.59-18.94-17.4-22.77-27.4s-3.1-18.39-2.72-28Zm68.12-4.23a6.49,6.49,0,0,1,2.88.75,13.41,13.41,0,0,1,2.06,1.44,12.34,12.34,0,0,1,3.27,5.75,33,33,0,0,1,.49,4.88,31.47,31.47,0,0,0-1.47-4.49A10.88,10.88,0,0,0,117,114a2.71,2.71,0,0,0-1.64-.2,2.19,2.19,0,0,1,.5,1,1.81,1.81,0,0,1-.86,1.71,3.28,3.28,0,0,1-3.54-.66,3.17,3.17,0,0,1-.78-3.51C111.23,110.85,113.5,110.85,114.85,110.91Zm-12.38-2.08c.13-2.53,1-4.65,3.31-5.88a13.84,13.84,0,0,1,4.61-1.65,17.84,17.84,0,0,1,7.78,1c1.77.81,3,2.07,4.56,3s2.68,1.54,4.17,2.58c2.29,1.62,3.63,3.36,5.21,4.4.77.51,1.83.44,2.86.75a5,5,0,0,1-2.68.22,11.85,11.85,0,0,1-3.34-2,22.46,22.46,0,0,0-3.8-2.74c-1-.55-2.51-1.21-3.56-1.88s-2.83-2.16-3.83-2.67a12.32,12.32,0,0,0-5-.95c-2,.06-4.78.38-6.28,1.74s-2.07,2.56-1.73,4.32a22.26,22.26,0,0,1,1.49-1.94,4.64,4.64,0,0,1,4-.86,3.44,3.44,0,0,1,3,2.7,8.61,8.61,0,0,0-1.56-1,3.76,3.76,0,0,0-3.34.33c-1.37.75-1,1.83-1.18,3a10.43,10.43,0,0,1-.47,1.52,3,3,0,0,1-1.37-.74,8.16,8.16,0,0,0,0,1.7,15.35,15.35,0,0,0,.64,2.08,11.61,11.61,0,0,1-2.56-3.07A8.1,8.1,0,0,1,102.47,108.83Zm1.68-18.33a16.82,16.82,0,0,0,1.33-4c-.17,1.66.16,3.46-.64,4.66s-2.23,1-3.38,1.34C102.36,91.86,103.43,91.55,104.15,90.5ZM87.29,115c.91-.74,3.34-.16,5.16,0l-3.92,1a3.76,3.76,0,0,1-.37,1.33c-.31.39-.87.52-1.31.79C86.9,116.91,86.38,115.7,87.29,115Zm12.85-50.81a9.68,9.68,0,0,0,3.43,1.37c1,0,1.21-.61,1.78-1a42,42,0,0,0,3.42,8.73c.63,1.11,1,.6,1.52,1.71s.69,3.35,1.15,4.78A36.21,36.21,0,0,0,113,83.44a54.94,54.94,0,0,1-3.82-5.91c-.75-1.58-.26-1.72-.88-3.21s-1.81-3.85-2.72-5.78a5.4,5.4,0,0,1-1.95,0c-.5-.16-.41-.7-.86-1s-1.2-.2-1.83-.76A3.92,3.92,0,0,1,100.14,64.16ZM94.29,78.48c1-.09,2.28.18,3.24.13a16.09,16.09,0,0,0,2.48-.46c-.16-1.44,0-4.1-1.34-5.07-.88-.61-4.42-.15-5.35,0a49.83,49.83,0,0,0-6.67,2.52,20.56,20.56,0,0,1,6-3.36c1.43-.42,4.74-1,6.21-.58.68.18.8.47,1.21,1,1.4,2,1.4,3.63,1.75,5.91a14.54,14.54,0,0,1,1,1.48,6.79,6.79,0,0,1,.52,2.21c-.36-.53-.13-1.19-1.14-1.58s-2.57,0-3.94.11A3.33,3.33,0,0,1,96.82,87c-2.18.17-3.31-.31-4.19-2.18a6.2,6.2,0,0,1-.14-2.6c-2.64.18-2.6.1-4.52,1.69a8.55,8.55,0,0,0,3.44,3.33,11.29,11.29,0,0,0,3.25,1.23,16.42,16.42,0,0,0,4.44.2A4.78,4.78,0,0,0,102,87.23c.94-.85,1-2.09,1.39-3.07a9.09,9.09,0,0,1-.53,2.83c-1.07,2.06-2.9,2.69-5.1,2.69a18.83,18.83,0,0,1-6.67-1.29c-1.57-.65-4.17-2.49-4.78-4.08-.42-1.09-.09-2.43-.13-3.65,2.17-1.44,2.7-1.09,5.26-1.51C92.51,79,93.25,78.57,94.29,78.48ZM81.64,68.71a6.05,6.05,0,0,1,.23-1.28c-2-.52-2.75.76-3.92,3.14-.44.88,0,1.42-.48,2s-1.21.5-2,1.06S74,75.29,73.3,75.88a25.38,25.38,0,0,1-5.09,2.73c1.14-.85,3.38-2.13,4.11-3.35.38-.66.32-1.89.91-2.49s.81-1,1.57-1.13.47-1,.71-1.75A7.71,7.71,0,0,1,76.77,68,5.55,5.55,0,0,1,79,65.82c1-.38,2.65,0,3.44-.18s.33-.8.9-1.15,1.67-.17,2.45-.55a7.52,7.52,0,0,0,2.8-2.88,14.83,14.83,0,0,1-.82,6.64,9.65,9.65,0,0,1-4.89,5.83,16.65,16.65,0,0,1-2.79,1c.47-.66,1.16-.94,1.43-2A26.31,26.31,0,0,0,81.64,68.71Zm46.28,12.16c-1.35.11-1.67-.09-2.77.7l1.77,2.75a4.35,4.35,0,0,1,1-3.45Zm-3.55-1.31A16.29,16.29,0,0,1,130,78a22,22,0,0,1,2.92.12,11.2,11.2,0,0,0,2-3.06,16.39,16.39,0,0,0-.29-5.41c-1.12-2.76-2.22-2.88-3.78-4.47-1.12-1.14-1.16-2.9-1.51-4.87-.11-.72-.47-1.63-.64-2.37a29.82,29.82,0,0,0-6.54-.35c1.13-1.09,2.22-2.07,2.55-3.71a7.29,7.29,0,0,0-.87-5.09,19.77,19.77,0,0,0-3.77-4c-1.36-1.19-3.33-2.17-4.61-3.15a37.6,37.6,0,0,1,5-1.79c4.28-.83,8,.43,12.1,2.93a30.1,30.1,0,0,1,6.89,5.47c2.51,2.63,5.61,7.45,8,10.29A50.65,50.65,0,0,0,154,65.4c2.11,1.72,4,2.2,6,3.29L163.16,72l2.56-3.15,4.08.46.85-4.59,3.74-1-.6-6.2,2.71-1.92-2-3.85,2.06-4.23-2.69-4.81,1-4.63-3.11-2.66-.4-4.94L167,28.82l-1.73-4.29-4.89-.05L158,21.29l-3.29.23-3.66-.4L149,19.6l-3,2-3.64-1.89-7.23,2.74,4.72-4.1,4.89-.78,3.74-1,5.06,1.66,4.45-1.12,4.3,2.53,4.55-.24,2.24,4,4.51.51L176,28.38,178.81,30l.76,5.69,2.55,2.41L181,43l3,3.77-2.78,4,3,2.54-3.81,3.38,3.87,4-4.69,1.53,3,4.32-3.82.68,2.5,4.75L177,72l2.18,3.55L174.39,75l1.14,5.13L172,77l-1.21,6.22-2.46-4.47-1.34,5.58-3-4.1.08,5.84-3.35-5.26c.69,3,.56,6.25,2.51,9.06,6.07-.82,10-2.35,14.67-6.82,4.22-4.07,9.28-12.55,10.65-18,1.56-6.12,1.61-17.42.07-23.68-1.48-6-3.41-8.89-6.84-13.81-3.29-3.47-6.52-7.17-10.69-9.65-6.13-3.67-14-4.64-20.94-4.55a24.36,24.36,0,0,0-8.77,1.64c-4,1.46-7.26,4.67-11.36,6.25a4,4,0,0,1-3.47,0c1,2.06,2.15,3,4.73,3.73,1.86.54,6.3.2,9.37-.08,3.29-.3,5-1.28,9.47-1.22a20.2,20.2,0,0,1,9.71,2.81,23.85,23.85,0,0,1,9.14,8.62,26,26,0,0,1,2.92,7.07,33.45,33.45,0,0,1,1,7.68,23.84,23.84,0,0,1-.74,6.78c-1.39,5.11-4.46,10.31-10.75,9.51-3.85-.48-9.65-7.71-11.6-10.36-3.93-5.36-8-11.28-12.89-15.73a19.69,19.69,0,0,0-11.17-5c-7.58-.69-9.84.74-15.53,5.46a27.71,27.71,0,0,1,3.47,1.1,26.24,26.24,0,0,1,7.17,4.7c2.21,2.06,3.2,3.38,3.28,6.33,0,2-1.56,3.56-3,5-.9.87-2.1,1.67-2.84,2.35-1,.89-2.17,1.87-.94,3.3a12.8,12.8,0,0,0,1.92,1.44c1.08.79.57,3.73-.83,4.52a4.66,4.66,0,0,1-5.44-.46c1.88-.27,3.07-.52,3-2.07,0-.88-1.14-1.62-2.27-2.13-2.68-1.22-4.69-1-7.36-2.95s-2.74-3-3.47-6a16.73,16.73,0,0,0-4.24.74c-1.73.57-3.65,1.94-5.23,2.29-4,.84-4.76.59-6.93,0-3.82-1-8.79.69-13.74,2.29-.82.25-4.15,0-6.39.78a42,42,0,0,0-11.13,6.51c-4.25,3.58-9.82,14.28-13,26.56-.34,3.74.73,6.25-1.63,8.07s-2.29,6.5-3.09,7.82-1.72.71-3.44,2.56-2.57,1.54-2.53,5A12.49,12.49,0,0,1,37,116.12c1.68,0,1.69,2.16,6-2.08,2.3-2.29,6.73-2.36,9.8-3.36a31,31,0,0,0,14.14-9.25c5.53-6.19,8.18-12.71,9.26-22.13A26.76,26.76,0,0,1,76,87.44c-.73,4.61-2.27,9.78,1,16l2,3.85c-1.2-1.64-3.56-4.32-4.28-6.23l-1.61-4.41c-3.67,5.75-4.51,6.77-9.59,10.88a19.14,19.14,0,0,0,.58,7.65c.83,2.45-.49,5.26.15,6.88s2.09.69,2.57,2.31-.24,4.85.49,6.43,2.57.63,3.46,1.15a4.92,4.92,0,0,1,1.64,1.88c.48.67-.17,2.27.79,2.79s2.44.07,3.46.56a2.37,2.37,0,0,1,.91,2.76c-.25,1.08-1.32,1.57-1.78,2.66a2.78,2.78,0,0,0,.15,2.85A6,6,0,0,0,79,147.5c1.23.49,3,.21,4.26.91a9.62,9.62,0,0,1,3.12,3.1,4.14,4.14,0,0,1,.83,2.77,7.92,7.92,0,0,1-1,3.32c-.57,1-1.81,2.28.15,4.24s1.88,1.1,3,2.39c-.13-2.21-1-4-.37-5.64s2.66-2,3.69-2.69a15.93,15.93,0,0,0,2.49-2.66,26.16,26.16,0,0,1,0,3.21c-.25,1.73-.78,3.3,1.81,3.57,1.17.12,2.28-.63,3.51-1.08-.65,1.13-1.76,2.06-1.94,3.45a6.06,6.06,0,0,0,1,4.27,13.18,13.18,0,0,0,3.81,3.17,15.15,15.15,0,0,0,2.79,1.33c0,1.35-.23,2.77-.07,4.06a7.23,7.23,0,0,0,1.29,3.46,10.79,10.79,0,0,0,3,2.44c-.61-1.43-1.85-2.79-1.84-4.28a4.84,4.84,0,0,1,1.93-3.9c1.46-1.33,4.88-2.47,6.49-3.77a7.88,7.88,0,0,0,2.71-3.33c.58-1.25.42-3.29.53-4.4a13.72,13.72,0,0,1,.79,3.71c.16,1.66-1,4-1.45,5.19a7.79,7.79,0,0,0,3.9-4c.43.27.21,1,.37,2.3.72-.7,1.52-1.23,2.24-1.91a6.31,6.31,0,0,0,1.86-2.19,5.05,5.05,0,0,0-.06-3c-.26-1.09-1.47-2.34-2.13-3.54s.13-2.33.08-3.75c-1.3-.23-2.4-.9-3.91-.68s-3.21,1.9-4.74,1.93-2.4-1.44-3.66-1.82a23.39,23.39,0,0,0-3.78-.53c1.6-1.52,7.8-2.26,12-2.94a74.18,74.18,0,0,1,11.23-1c1.69-.05,3.86.52,5.05.19s.91-1.15,1.25-2c1-2.43.5-4.61,0-7a54.48,54.48,0,0,0-10.36-.63c-3.34.25-7.3,1.85-10.76,2-3,.1-7.45-.57-10-2.15-3.16-1.91-5.58-6-6.46-7.37-1.4-2.15-3.17-6.39-4.26-8.31s-1.33-2.48-2.22-3.29-2.12-.86-3.2-1.3c1.23.11,2.57-.26,3.68.36,1.69,1,3.55,5,4.6,6.7,1.11-3.71.85-5.16,4-7.26-2.57,2.89-2.64,5.09-3.27,8.48,2.15,3.51,5.12,9.12,9,10.67a26.16,26.16,0,0,0,5.36,1.1c4.74.59,9.32-.9,14-2.06,3.4-.85,6.85-.5,11-.26,1.4.09,4.71-.77,5.41-2.17a2.53,2.53,0,0,0-.19-2.52c-.53-.8-2-1.2-2.71-1.94a19.66,19.66,0,0,1-1.79-2.4,49.08,49.08,0,0,1-8.12.88c1.69-.68,3.31-1.07,5-1.75a31.21,31.21,0,0,0,5.17-2.75,17,17,0,0,0,3.34-2.55,20.38,20.38,0,0,0,3.09-3.53,9.26,9.26,0,0,0,.92-4.46,13.51,13.51,0,0,0-.68-5.28,4.09,4.09,0,0,0-2.84-2c-1-.31-1.65.48-2.66.58s-2,.73-3.46,0a12.86,12.86,0,0,1-4.71-4.2c-1.5-2.09-2.56-5.52-4.08-8.15a139.84,139.84,0,0,0-9-13,26.25,26.25,0,0,1-.78-3.88,18.54,18.54,0,0,1,.49-7.41c.58-1.83,1.44-3.77,3.35-4.52a3.66,3.66,0,0,1,2.42-.17,1.63,1.63,0,0,1,1.09,1.93c-.3,1-1,1-1.44,1.51a5.39,5.39,0,0,0-1.4,2.52,11.43,11.43,0,0,1,2.71.1,3.12,3.12,0,0,1,2.22,2.13c-1.09-1-1.63-1.41-3-1.43a12.07,12.07,0,0,0-2.07.31,15.8,15.8,0,0,1-.77,2.51c-.38.64-1.08.48-1.35,1.23a7.73,7.73,0,0,0-.15,3h0Zm9.49-1.14A3.2,3.2,0,0,1,135,79a4.25,4.25,0,0,1,1.68,1.75,6.6,6.6,0,0,1,.31,3c-.37-.11-.86,0-1.25-.35s-.6-1.07-1.09-1.38a2.76,2.76,0,0,0-1.43-.33,4.52,4.52,0,0,1,.27,2.3,2.8,2.8,0,0,1-2.69,2.52,8.53,8.53,0,0,1-2.23-.22c.26.57.7,1.09,1,1.67a12.13,12.13,0,0,0,2.86-.46,18.75,18.75,0,0,1,2.26-1.32,14.93,14.93,0,0,1,2.58-.46c-.75.65-1.24,1.28-2,1.94l1.64,4.76c1.16.73,2.24,1.11,3.7,2s3.21,2.5,5.12,3.37a18.76,18.76,0,0,0,5,1.71c2,.39,3.57,2,5.51,2.27a44.48,44.48,0,0,0,7.12.16c1.72-.16,3.94-1,4.14-2.92a4,4,0,0,1-4.73-2.67c-.48-1.2-.26-3.41-1-4.82s-1.81-1.88-3.06-3.63a52.74,52.74,0,0,1-4.43-6.83c-1.15-2.35-1.44-5-2.39-7.1a36.25,36.25,0,0,0-3.58-5.41c-2.48-3.53-4.47-5.93-8.56-7.72a43,43,0,0,0-6.29-1.63c-.86.39-2.05.8-2.25,1.82a4.11,4.11,0,0,0,.91,3.21c1.22,1.26,3,2.61,3.72,4.61a17.85,17.85,0,0,1,.19,6.74A7.41,7.41,0,0,1,133.86,78.42Zm.4,10.17a4.76,4.76,0,0,1-1.28.93,15.52,15.52,0,0,1-2.25.54c1.13,1.76,2.33,3.56,3.41,5.41s2,3.9,3.06,5.85a33.1,33.1,0,0,0-.14-3.35A31.34,31.34,0,0,0,136,94.45C135.49,92.88,134.92,90.75,134.26,88.59ZM103.71,49.73a25.59,25.59,0,0,0,.49,6.16c.44,2,.85,3.08,2.5,4.3,3,2.26,5,1.88,7.3,3.18a6.76,6.76,0,0,1,2.92,2.74,2.41,2.41,0,0,1-1.12,2.78,2.36,2.36,0,0,0,2.43-3.14c-.34-.83-2-1.22-2.44-2.07a3.12,3.12,0,0,1-.26-2.55c.41-1.55,3.47-3,4.56-4.17,1.67-1.9,2.3-3.46,1.36-5.89-1.32-3.4-6.43-6.14-9.49-7.47a21.81,21.81,0,0,0-3.28-1c2.23,1.33,4.59,2.37,5.73,5.28.94,2.45.12,3.38.16,5.51,0,1,1.32,1.49,1.9,2.1s.45,1,.06,1.7a2,2,0,0,0-.85-1.52c-.86-.61-1.79-.48-2.25-1.72-.68-1.89.7-3.7-.85-5.82-1.15-1.59-2.7-3.37-4.78-3.41a8,8,0,0,0-2.74.44l-1.4-1.68,0,0c-2.84-2.59-4.79-4.73-8.76-6.51s-6-2.06-10.54-2-9.08.48-14.38,5S51,62.1,47.68,64.31s-4,3-8.16,3-10.6-5.85-10.85-13.16-.34-9.91,4.73-18.7S47.68,23.91,54.51,23s10.94,1.49,16,1.49,10-.85,11.52-4.86c-.73.42-1.69.91-4.41.77S71.12,17.11,66.89,15s-8.93-2.36-15-2.47-13.57.34-21,4.38S18.3,25.21,14,33.12,9,47.44,9.68,57A39.75,39.75,0,0,0,19,80.66c5.68,7,11.35,10.42,21.57,11.68l2.16-9.48-3.85,5.5.1-6.13-3.47,4.32L34,80.69l-2.81,4.69-1.4-6.53-4.09,3.3L27,76.77l-5.4.59L24,73.61l-4.92,0,2.87-5L17.64,68l3.46-4.56-5.33-1.57,4.42-4.24-4.38-3.56,3.42-2.66L16,47.12l3.43-4-1.28-5.24,2.89-2.51.87-6,3.25-1.64L28,23.09l5.17-.54,2.55-4.23,5.19.27,4.91-2.66,5.08,1.18,5.78-1.74,4.29,1,5.59.82,5.38,4.31-8.26-2.88-4.15,2-3.45-2.09-2.36,1.6-4.21.43-3.75-.23L43,23.64l-5.59.06-2,4.5-5,1.74L30,35.12l-3.57,2.79,1.19,4.87-3.07,5.07,2.37,4.44-2.33,4,3.08,2L27,64.86l4.3,1.08,1,4.83,4.68-.48,2.91,3.32,3.59-3.52C50,66.82,52.68,65,57.8,59.46c5.79-6.29,9.13-12.1,16.86-16.4C80.23,40,84.75,38.85,91,39.94c5.85,1,7.82,4.53,12.15,8.23a4,4,0,0,1,1.29-1.66,30.81,30.81,0,0,0-.71,3.23Z"/></svg>