<svg id="Layer_1" data-name="Layer 1" xmlns="http://www.w3.org/2000/svg" viewBox="0 0 200 200"><g id="kO4D97.tif"><path d="M17.62,131.88V114.74c0-5.1-.44-10.24.09-15.29,1.18-11.39-.82-21.64-9.06-30.09-2.7-2.77-2.14-5.28.08-8q5.64-7.05,11-14.34c2.18-3,4.3-3.74,7.63-1.43,3.9,2.71,8.18,4.86,12.13,7.16,5.52-3.88,11-7.57,16.27-11.57a5.77,5.77,0,0,0,1.65-4.22c-.09-4.62-.43-9.25-1-13.85-.32-2.91.6-4.62,3.42-5.56,7-2.33,13.95-4.8,21.42-7.39C84.14,15.71,86.65,21,89.53,26a5.6,5.6,0,0,0,4,2.27c5.54.26,11.1.1,17,.1,3-5.71,6.08-11.67,9.53-18.3,7.51,2.65,14.79,5,21.89,7.9a5.66,5.66,0,0,1,2.74,4.33c0,4.93-.68,9.86-.77,14.79a5.76,5.76,0,0,0,1.79,4.13c5.14,3.92,10.51,7.54,16.1,11.49,4.16-2.42,8.73-4.93,13.13-7.7,2.46-1.55,4.14-1.2,5.83,1.07,4.24,5.69,8.71,11.21,12.78,17,.77,1.1.55,3.43-.06,4.82a22.07,22.07,0,0,1-4.08,6.14c-4.83,5.18-6.14,11.12-5.87,18.13.5,13.1.14,26.23.14,39.69-9.85,1-19.45,2.21-29.09,3-3.83.29-5.1,2-5.2,5.51s-.49,7.32-.78,11.19l-26.5,2c-.56-3.78-1.17-7.25-1.56-10.74-.36-3.14-1.89-4.71-5.12-4.7-9.74,0-19.48.06-29.21,0-3.42,0-5.11,1.47-5.45,4.87s-.94,6.68-1.51,10.54l-26.55-2c-.28-3.82-.7-7.34-.75-10.87-.05-3.7-1.29-5.55-5.37-5.85C37,134.1,27.56,132.92,17.62,131.88ZM144.22,121a18.8,18.8,0,0,0,18.5-18.69,18.62,18.62,0,0,0-37.23.13A19,19,0,0,0,144.22,121Zm-87,0c10.06-.1,18.65-8.81,18.51-18.77-.13-10.44-8.55-18.42-19.27-18.27a18.38,18.38,0,0,0-18,18.57A18.77,18.77,0,0,0,57.26,121Zm49.37-12.21c0-2.77.05-5.53,0-8.3-.07-3.78-2.43-5.69-5.84-5.78s-6,1.73-6.1,5.48c-.17,5.68-.18,11.37,0,17,.12,3.51,2.63,5.32,5.8,5.36,3.38,0,5.91-1.75,6.12-5.52C106.75,114.28,106.63,111.5,106.63,108.74Z"/><path d="M87.4,145.21h26.44c.59,3.72,1.21,7.33,1.72,10.95.45,3.13,1.92,4.52,5.3,4.22,9.85-.88,19.7-1.65,29.57-2.16,3.39-.18,4.72-1.66,4.91-4.76.24-3.83.51-7.66.8-11.93l27.22-2.72c1.7,14.8-3.51,26.17-15.61,34.41-11.5,7.83-24.57,11.44-38.05,13.43-24.83,3.67-49.57,3.17-73.94-3.47-9.28-2.53-18-6.32-25.59-12.48-10.11-8.23-13.71-18.94-12.28-31.89l27.17,2.67c.3,4.09.6,8,.86,12,.2,3.09,1.51,4.58,4.91,4.76,9.86.51,19.72,1.31,29.56,2.15,3,.26,4.75-.67,5.2-3.75C86.12,153,86.74,149.3,87.4,145.21Z"/><path d="M142.67,91.28a12.13,12.13,0,1,1-12.48,12.09A12.17,12.17,0,0,1,142.67,91.28Z"/><path d="M58.94,115.54a12.13,12.13,0,1,1,12.14-12A12.16,12.16,0,0,1,58.94,115.54Z"/></g></svg>