<svg id="Layer_1" data-name="Layer 1" xmlns="http://www.w3.org/2000/svg" viewBox="0 0 200 200"><g id="VflqNK.tif"><path d="M95.29,64.41h4.89c.61.08,1.23.16,1.83.26C112.85,66.34,120.74,72,125.48,82c.83,1.75.7,2-1.18,2.47-4.93,1.29-9.86,2.53-14.77,3.88a2.54,2.54,0,0,1-3-.9,14.32,14.32,0,0,0-15.85-4.5c-7.78,2.35-15.12,9.38-14.51,20.72a13.92,13.92,0,0,0,4,9.27c4.57,4.66,10.13,5.48,16.14,3.69,4.52-1.35,7.7-4.51,10.15-8.44,0,0,0-.13,0-.31H88.83c-1.62-.08-2.25-1-1.75-2.55a5.37,5.37,0,0,1,.21-.56c1.44-3.08,2.9-6.16,4.31-9.26a3.23,3.23,0,0,1,3.33-2c9.31,0,18.63,0,27.95,0a1.25,1.25,0,0,0,1.4-1,42.17,42.17,0,0,1,12.86-18.17,38.69,38.69,0,0,1,17.48-8A40,40,0,0,1,171,65.88,31,31,0,0,1,192.8,82a28.76,28.76,0,0,1,3.12,11.87,34.49,34.49,0,0,1-3.44,18.55,41.4,41.4,0,0,1-20.92,19.41,42.22,42.22,0,0,1-16.29,3.47,32.82,32.82,0,0,1-14.47-3.07c-8.18-3.79-14.05-9.75-16.91-18.43-.07-.2-.16-.39-.25-.59-.1,0-.16.05-.18.08a4,4,0,0,0-.27.44,40.22,40.22,0,0,1-7,9.53c-9.12,9.28-20.25,13.13-33.1,11.47a30,30,0,0,1-21.4-13.15c-4.68-6.7-5.84-14.3-4.91-22.27A36,36,0,0,1,63.43,82.7c6.51-9.25,15.19-15.25,26.37-17.48C91.61,64.86,93.46,64.67,95.29,64.41Zm65.26,17.92A19.7,19.7,0,0,0,143.76,94,17.88,17.88,0,0,0,142,104.89c1.54,8.71,9.38,13.7,17.72,12.56a20.38,20.38,0,0,0,17.47-17.63C178.47,90.34,171.39,82.16,160.55,82.33Z"/><path d="M6.15,93.88c.57-.7,1.18-1.39,1.72-2.12a1.94,1.94,0,0,1,1.71-.85c.14,0,.29,0,.44,0H50.34c1.62,0,1.69.1,1.18,1.64-.6,1.8-.6,1.79-2.48,1.8q-14.72,0-29.42,0c-4.05,0-8.1.06-12.15.08-.44,0-.88-.09-1.32-.13Z"/><path d="M37.22,85.92H21.14c-.2,0-.45,0-.58,0s-.34-.47-.28-.55a22.6,22.6,0,0,1,2-2.54,2,2,0,0,1,1.31-.33c4.27,0,8.55,0,12.82,0H55.05c.27,0,.55,0,.82,0,.63,0,.77.26.45.79-.43.7-.88,1.37-1.33,2a1.88,1.88,0,0,1-1.75.75h-16Z"/><path d="M39,102.94H29.8a6.19,6.19,0,0,1-.74,0c-.45,0-.62-.31-.4-.72A12.14,12.14,0,0,1,29.93,100a2.24,2.24,0,0,1,1.48-.62c2.27-.06,4.55,0,6.82,0H48.45c1.37,0,1.55.22,1.39,1.57,0,0,0,0,0,.08-.08,2-.16,2-2.33,2-2.83,0-5.67,0-8.51,0Z"/></g></svg>