<svg id="Layer_1" data-name="Layer 1" xmlns="http://www.w3.org/2000/svg" viewBox="0 0 200 200"><g id="_1djtdE.tif" data-name="1djtdE.tif"><path d="M90.84,15h23.35c.25.31.56.93.73.89,2.5-.53,4.78.51,7.08,1a51.75,51.75,0,0,1,10.77,3.24c7.21,3.45,14.47,6.79,20.73,12a98.64,98.64,0,0,1,16,16.22,60,60,0,0,1,7.23,11.47c2.69,6.07,5.5,12.05,6.69,18.73.57,3.16,1.31,6.31,1.91,9.48a45.56,45.56,0,0,1,.72,9.92c-.11,3.92.52,7.84-.79,11.78-.87,2.64-.39,5.72-1.18,8.4-.86,2.9-1.56,5.87-2.68,8.68s-2.4,5.86-3.73,8.73a75.76,75.76,0,0,1-16.6,23.45c-2.65,2.51-5.34,5-8.21,7.24a88.27,88.27,0,0,1-11.79,7.53,79.65,79.65,0,0,1-12.28,5.32c-5.52,1.92-11.23,3.71-17,3.8-8,.13-16,1.07-23.89-.77-2.84-.66-5.75-1-8.56-1.87-7.56-2.33-16.41-5.75-21.69-9.56-7.18-5.16-14.3-10.37-19.81-17.6a113,113,0,0,1-11.07-16.93c-1.23-2.43-2-5.07-3.15-7.56a46.6,46.6,0,0,1-3.74-12.92c-.18-1.29-.72-2.53-.89-3.82s-.1-2.76-.2-4.14c0-.13-.49-.22-.76-.33V89.71c.27-.11.75-.2.76-.33.1-1.38,0-2.77.2-4.13s.62-2.54.9-3.82c.34-1.57.55-3.18,1-4.74s1-3.31,1.6-4.93a98.81,98.81,0,0,1,6.66-14.51,78.86,78.86,0,0,1,20.61-24c6.4-4.9,13-9.26,20.6-12.21,6-2.34,13.81-4.58,19.81-5.11C90.37,15.87,90.6,15.31,90.84,15Zm83.63,59.82c.15-.18.43-.37.4-.51-.17-.84-.37-1.69-.62-2.51-.63-2.11-.07-4.5,1-4.24,1.38.35,1.76.56,1.5-.94s-2.68-3.66-4-3.79a.78.78,0,0,0-.63.28c-.35.77-1.11,1.78-.87,2.34,1.22,2.93,1,6.3,2.87,9,.08.13.21.23,9.19,22.22,0-2.48.09-4.19,0-5.89-.06-.94.67-2.09-.54-2.82-.22.84-.4,1.7-.68,2.52-.08.27-.42.45-.64.67s-.28.33-.31.31c-.22-.12-.57-.3-.57-.45.06-2.39-.69-5,1-7,2.06-2.54-.06-4.43-.72-6.46-.32-1-1.32-2.26-3-.94-.82.62-2.06,0-2-1.46l-.8.14c.26,1.44-.75,1.18-1.65,1.45-3.7,1.08-3.93,1.49-4,5.32a62.66,62.66,0,0,0,.06,7c.2,1.87-.84,2.62-2.15,3.25a10.18,10.18,0,0,0-6.29,9c-.19,2.61.53,5.53-.43,7.76s-3.55,3.82-5.42,5.69a11.43,11.43,0,0,1-1,1,6,6,0,0,0-2.55,6,7.48,7.48,0,0,1-2.71,6.8c-2.26,2.13-4.48,4.32-6.59,6.6s-4,3-7.13,1.49c-3.51-1.73-4.61-1.41-8-.1-2.94,1.13-5,3.47-6.85,5.83-.77,1-.22,2.95-.45,4.44s.94,2.43,1.4,3.64c.83,2.24.74,2.68-1.56,3.52a7.58,7.58,0,0,1-1.27.3,35.63,35.63,0,0,0-5.2,1c-2.44.85-5.22,1.49-5.92,4.61a16.93,16.93,0,0,0-.47,3.53,2.9,2.9,0,0,1-2,3.1,49,49,0,0,0-9.29,5.83c-2.7,2-5.46,4.68-9.35,4.33-1.31-.12-2,.61-2.7,1.4.84.17,1.7.27,2.51.51a33.31,33.31,0,0,0,9.5,1.83c3.34,0,6.48,1.43,9.88,1,2.52-.3,5.06-.52,7.56-.8a49.44,49.44,0,0,0,12.39-2.89c1.3-.49,2.41-.44,3.06-2.08.41-1,1.84-1.76,2.94-2.41a2.43,2.43,0,0,1,2.9.4c.49.37,1.72.09,2.45-.25a87.63,87.63,0,0,0,11.31-6.51c1.38-.91,3.38-1.51,3.52-3.13.26-2.79,2.75-3.54,4-5.37.07-.11.44-.08.64,0,1.67.47,1.67.48,2.31-.15,1.87-1.87,3.82-3.67,5.58-5.63a50.6,50.6,0,0,0,3.44-4.64c.11-.16-.07-.57-.2-.82a.79.79,0,0,0-.62.11c-1.34,1.3-2.64,2.63-4,3.93-.12.11-.58.08-.62,0-.13-.25-.26-.67-.14-.85a24.59,24.59,0,0,1,6.51-6.31,19.12,19.12,0,0,0,2.8-2.75c1-1,.63-3.48,3.15-2.86.11,0,.45-.65.58-1a20.53,20.53,0,0,1,1.12-3.26c3.76-6.57,4.39-14.07,6.37-21.17C181.76,107.1,184.13,101.58,174.47,74.82Zm-41.61,50.42a10.92,10.92,0,0,0,.79,4.41c.58,1.2,1.13,1.13,2,1.15,1.25,0,1-.92,1-1.62,0-4.63,1.63-8,6.22-9.9,1.57-.66,2.93-.38,4.38-.6.73-.11,1.6.15,1.56-1.06,0-.9-.15-1.29-1.23-1.88-3.9-2.13-7.38-.66-10.41,1.23A8.35,8.35,0,0,0,132.86,125.24ZM143.14,105c-.1,1.45-.27,3.51,1.83,4.74a3.15,3.15,0,0,0,1.58.34c.12,0,.26-.78.32-1.21.27-1.77-.23-3.52.59-5.36,1.6-3.59,4.49-4.87,8-5.37.67-.1,1.73.34,1.64-.94a3.19,3.19,0,0,0-.67-2c-1.48-1.31-3.42-2.42-5.3-1.64C146.16,95.61,143.21,98.5,143.14,105Zm-16.26,13c-1-.86-1.67-1.87-2.49-2a11.51,11.51,0,0,0-12.5,5.51c-1.31,2.12-1.49,6.17-.2,8.21.35.55,1.2.78,1.82,1.16.23-.48.48-1,.68-1.45,1-2.4,1.32-5,3.28-7,2.21-2.27,5-2.82,7.84-3.64C125.69,118.54,126,118.33,126.88,118Zm11.2-21.24a16.35,16.35,0,0,0-1.22-1.59,7.15,7.15,0,0,0-6.26-1.63c-2.76.44-7.9,5.05-8.75,7.74a5.5,5.5,0,0,0,1.6,5.68c.6.64.72.47,1.06-.33,1.3-3.08,2.54-6.31,6.13-7.52,2-.69,4.12-1.25,6.19-1.88C137.24,97.05,137.63,96.88,138.08,96.71Zm-37.64,52.84a3.44,3.44,0,0,0,.66-.88c2.26-6.67,2.86-7.35,8.62-9.16a25.43,25.43,0,0,1,2.66-.33c.25-.05.66-.54.61-.65-.78-1.7-4.93-3.79-6.57-3-3.18,1.53-6.35,3.19-8.11,6.56-1.5,2.86-1.2,5,1.14,7.1A3.36,3.36,0,0,0,100.44,149.55Zm41.07-77.86c-4.2-.14-6.37,2.89-8.5,5.48-1,1.18-1.17,3.4-1,5s1.38,3.11,2.21,4.6c.07.13,1.1,0,1.15-.19.2-.7.14-1.48.27-2.21.43-2.46.68-5.25,3.07-6.52,1.84-1,3.59-2.61,6-2.25.34,0,1.05-.55,1.1-.91.09-.63.48-1.54-.67-1.85S142.74,72.1,141.51,71.69ZM99.06,101.57a26.12,26.12,0,0,0,.51,4.71c.17.53,1.16.79,1.78,1.18A6.15,6.15,0,0,0,102,106c.62-3.6,1.86-6.55,5.74-8a15.79,15.79,0,0,1,4.78-.85,20.4,20.4,0,0,0,2.55-.47c-.66-.66-1.3-1.34-2-2-.2-.18-.56-.18-.78-.35-2.72-2.1-5.38-.3-8,.12C102.38,97.08,98.27,98.31,99.06,101.57ZM151.55,84a5.94,5.94,0,0,0,1.86,5.24,1.64,1.64,0,0,0,1.16.45c.29,0,.5-.58.7-.92a.72.72,0,0,0,0-.46,10.65,10.65,0,0,1,1.4-6.82c1.16-2.21,3.72-2.68,6.12-2.95.15,0,.4,0,.43,0,.18-.39.55-.91.42-1.18-1.08-2.3-5.52-3.56-7.42-2C153.48,77.48,151.46,80.18,151.55,84Zm-26.2-9.62c-.08-.11-.13-.28-.24-.32-1.69-.62-3.37-1.66-5.08-1.7a9.67,9.67,0,0,0-4.85,1.57,10.37,10.37,0,0,0-4,3.59c-1,2-2.89,4.32-.71,6.81.26.29.61.69.92.69a1.27,1.27,0,0,0,.92-.68c1.45-4,4.5-6.32,8.25-8.1,1.25-.6,2.4-.11,3.47-.58C124.55,75.39,124.91,74.79,125.35,74.35Zm-38.2,51.86a5.9,5.9,0,0,0,.06,2.27,2.45,2.45,0,0,0,1.69,1.29c.58,0,1.23-.7,1.77-1.17.17-.15.17-.56.17-.84-.07-3.42,1.71-5.19,4.83-6.42a13.93,13.93,0,0,1,4.28-.83,2.23,2.23,0,0,0,1.11-.47,3,3,0,0,0-.64-1.56c-1.93-1.7-3.44-1.83-6.76-.75A9.16,9.16,0,0,0,87.15,126.21Zm61.25-71c-3.63,0-4.45,1.22-6.43,5.16-1.41,2.83,0,4.43,1.12,6.41a1.37,1.37,0,0,0,1.13.51c.28,0,.63-.49.77-.83.37-.93.66-1.9.95-2.86,1.2-4,1.77-4.42,5.54-4.68a8.25,8.25,0,0,0,1.93-.64c-.37-.62-.77-1.23-1.12-1.86C151.44,54.8,150,55.18,148.4,55.16ZM75.9,145.83c.18.52.68,2,1.26,3.47.06.14.56.21.82.16s.64-.26.7-.47c.29-1.12,0-2.23.57-3.47,1.71-3.75,4.72-5,8.43-5.41a2,2,0,0,0,1.24-.83c.12-.17-.24-.83-.54-1.1-2-1.78-3.36-1.93-6.74-.84C77.9,138.55,75.92,141.09,75.9,145.83Zm58-89.66c-.2-.42-.27-.76-.47-.92-1.3-1-2.53-2-4.32-2-4.17,0-6.48,2.66-8.34,5.87-1.34,2.29-1,4.1.93,5.8a1,1,0,0,0,.94-.06,10.17,10.17,0,0,0,.9-1.95c1-2.54,1.87-5.11,5.29-5.11,1.22-1.46,2.89-.5,4.32-.83C133.45,56.92,133.67,56.42,133.88,56.17Zm13.93-9.4c-.34,1.68.5,3.25,1.52,4.72.3.42,1,.58,1.48.87a4.28,4.28,0,0,0,.7-1.4c.1-1.24-.46-3.06.16-3.58.85-.72,2.55-.38,3.84-.69.31-.07.7-1.28.65-1.31-2.33-1.42-2-3.72-1.76-5.8s-1.35-2.91-2.55-4c-.09-.08-1.21.62-1.17.79A11.5,11.5,0,0,0,151.92,40c.78,1.21,1.08,1.67-.68,2.1C148.51,42.8,147.84,43.87,147.81,46.77ZM96.13,154.12c-2.29-.78-4.48.92-6.62,2-3.15,1.59-3.23,5.62-.48,7.88.88.73,1.53.78,1.84-.63a7.26,7.26,0,0,1,5.54-5.88,37.49,37.49,0,0,1,4-.53c.68-.09,1.74.34,1.62-.92,0-.35-.8-.59-1.14-.95C99.65,153.75,98.06,154.24,96.13,154.12ZM85.62,166.29c-1.47,0-3.05-.44-3.53.1-.79.88-3.15.33-2.48,2.59a30.15,30.15,0,0,1,.66,3.68l-4.13.17a9.31,9.31,0,0,0-1.4,0c-.25,0-.45.31-.68.47.22.22.4.54.67.65,1.47.58,3,1.09,4.44,1.67s2.48-.83,3.76-1.12c.32-.07.31-1.63.44-2.51,0-.15,0-.31,0-.47a2.34,2.34,0,0,1,2.57-2.44,35.62,35.62,0,0,0,3.73-.06c.66-.1,1.68-.63,1.78-1.12.24-1.28-1-.39-1.46-.7A6.17,6.17,0,0,0,85.62,166.29ZM159,63.18c0,4.56.3,5.37,2.13,6.72a1,1,0,0,0,1.59-.7,14.05,14.05,0,0,1,0-1.84c.23-1.12.31-2.47,1-3.22.54-.59,1.91-.48,2.92-.56,1.77-.15,1.79-.15.72-1.94-1.9-3.19-5.62-3.82-7.59-1.12A6,6,0,0,0,159,63.18Zm-18.6-22c-.2-.27-.37-.74-.69-.9-.9-.43-2-.53-2.76-1.14-1.32-1.12-2.34-1.13-3.56.06a3.41,3.41,0,0,1-1.9,1c-2.39.15-2.67,2.28-3.2,3.74s.59,3.08,1.76,4.29c.81.83,1.64.65,1.83-.55a9.87,9.87,0,0,1,2-4.3c1.41-1.93,3.35-1,5.09-1.22.3,0,.66.06.89-.08S140.2,41.54,140.42,41.14ZM70.88,152.05a34,34,0,0,0-4,1.35c-1.07.5-2.49,3.42-2.06,4.11.76,1.26,1.72,2.39,2.6,3.58.62.85,1.06.14,1.28-.27a7,7,0,0,0,.63-2.06c.37-2.19.55-2.36,2.75-2.75,1.43-.26,2.85-.59,4.26-.95a.84.84,0,0,0,.44-.71c-.06-.39-.25-1-.52-1.09C74.59,152.8,72.86,152.47,70.88,152.05ZM108.59,43.58a13.65,13.65,0,0,0,0,2.18c.06.36.38.88.66.94a1.82,1.82,0,0,0,1.17-.44,2.69,2.69,0,0,0,.92-1,7.94,7.94,0,0,1,8.15-5.08c.39,0,.8-.57,1.21-.88a3.79,3.79,0,0,0-.74-.93c-3.48-2.27-6.49-.31-9.36,1.32C109.25,40.47,107.82,41.8,108.59,43.58ZM58.38,145.75c.23-.17.67-.32.68-.49.2-3.88,2.21-5.83,6.08-6.11.78-.05,1.5-.81,2.25-1.24-.69-.76-1.26-1.92-2.11-2.19a5.64,5.64,0,0,0-3.4.29,8.16,8.16,0,0,0-4.9,4.8,4.43,4.43,0,0,0,.56,4.75C57.7,145.73,58.09,145.69,58.38,145.75ZM107,54.22c-1.17.56-3.11,1.46-5,2.41-1.69.84-1.75,2.63-2.24,4.14a1.86,1.86,0,0,0,.36,1.29c.5.85.89.22,1.29-.18.76-.76,1.53-1.51,2.28-2.29,1.61-1.66,3.43-2.9,5.87-2.54,1.3.19,2-.54,2.69-1.35a18.67,18.67,0,0,0-2.47-1.44A10.53,10.53,0,0,0,107,54.22ZM58.42,151.89c-.34-.7-.43-1.25-.74-1.44a8.61,8.61,0,0,0-5.14-1c-2.1.1-3,1.05-2.76,3.12a8.45,8.45,0,0,0,.95,2.83c.3.56,1,.91,1.52,1.36a6.32,6.32,0,0,1,.33-1.72c.83-1.67,1.88-3.09,4.12-2.81A6.14,6.14,0,0,0,58.42,151.89Zm6.72,17.18c.16-.23.5-.49.46-.67-.42-2.11.81-2.26,2.38-2.12a4.88,4.88,0,0,0,1.83,0,1.34,1.34,0,0,0,.45-1.11,5.78,5.78,0,0,0-2-1.59c-.93-.36-2,.2-3-.72-.72-.67-1.89-.45-2.81.48a3,3,0,0,0-.44,3.41C62.59,167.75,64.06,168.31,65.14,169.07ZM144,32.15c-.14-.13-.24-.32-.36-.33-2.19-.2-3.68-2.38-6.2-1.94-2.34.42-3.65,2.58-2.31,4.56a7,7,0,0,0,2,1.93,1.51,1.51,0,0,0,1.35-.57c.32-1,0-2.49.6-2.92s2.07-.13,3.15-.14a8,8,0,0,0,1.39,0C143.71,32.69,143.82,32.34,144,32.15Zm-27.89-2.82a3.67,3.67,0,0,0,0,1.37,13.2,13.2,0,0,0,1.16,1.84c.54-.41,1.42-.74,1.55-1.25.79-3.06,3-3.44,5.61-3.24a7.45,7.45,0,0,0,1.73-.25c-.51-.33-1-.62-1.52-1-1.66-1.24-3.54-.51-5.31-.57C116.66,26.15,116.09,26.8,116.06,29.33ZM72.89,116.76a7.3,7.3,0,0,0-5.36,2.31c-1.43,1.32-1,3.3-1.84,4.84-.17.3.34,1.06.67,1.52s.7,1.16,1.15,0c1.22-3.15,2.51-6.27,6-7.68.18-.07.26-.42.39-.64ZM40,136.91c.5,1.07.94,2,1.34,2.88.17.39.27.81.41,1.22a3.46,3.46,0,0,0,.51-1,5.62,5.62,0,0,1,2.13-4.19c1.06-.73,2.64-.8,2.56-2.6-1.31-.17-2.62-.36-3.94-.5-1-.11-1.71,0-1.74,1.38C41.25,135,40.49,135.86,40,136.91ZM161.82,51.2a4.13,4.13,0,0,1,0,.93A3.08,3.08,0,0,0,164,55.72c1.34.38,0-1.66.91-2.27a5.06,5.06,0,0,0,1.3-1.31c.21-.33.37-1,.2-1.2a14.25,14.25,0,0,0-2.75-2.28,1.25,1.25,0,0,0-1.83,1.16C161.8,50.28,161.82,50.74,161.82,51.2Zm-58-25.93a4.46,4.46,0,0,0-1.37,0c-2,.74-4.29,1-5.68,2.95-.58.85-.12,1.29.37,1.93.75,1,1.25.43,1.64-.2,1.34-2.19,3.76-2.67,5.8-3.75a7.11,7.11,0,0,1,1.2-.42,6.35,6.35,0,0,0-1-.51A3.45,3.45,0,0,0,103.77,25.27ZM99.44,38.72c-.93-.56-1.67-1.37-2.15-1.23a52.25,52.25,0,0,0-6.42,2.31c-.38.16-.52,1-.64,1.54,0,.2.3.49.46.74,2.32-1.54,5.15-1.67,7.62-2.8Zm-18-8.78c2.41-.84,4.31-2.93,7.09-2.85,0-.32,0-.78-.17-.95-.42-.36-1.19-.95-1.43-.81-2.09,1.26-4.64,1.83-6.17,4-.07.1.11.44.24.62S81.33,30,81.47,29.94Zm30.38-11.2-.11-.34c-1.35.43-2.73.79-4,1.3-.41.16-.65.73-1,1.12.46.24,1,.77,1.37.67,1.9-.52,3.76-1.19,5.62-1.84.16-.06.24-.4.29-.63,0-.07-.21-.27-.32-.27C113.07,18.72,112.46,18.74,111.85,18.74ZM41.12,146.56s.87-.13,1.09-.6c.4-.85-.9-1.93-2.3-2.09-.9-.1-1.32.16-1.4,1.2C38.38,146.64,39.17,146.85,41.12,146.56ZM94.65,19.13c-.49-.13-1.08-.51-1.45-.35a28.79,28.79,0,0,0-3.41,1.84,1.74,1.74,0,0,0-.51.7c.4.35,1,1,1.26.9a31.26,31.26,0,0,0,3.84-1.92C94.55,20.2,94.52,19.75,94.65,19.13ZM30.14,129.84a18,18,0,0,0,0,1.86,5.25,5.25,0,0,0,.29.81,8,8,0,0,0,.63-.81,23.61,23.61,0,0,0,1.62-3.06c.1-.29-.51-.92-.91-1.26-.12-.1-.81.17-.92.42A18.56,18.56,0,0,0,30.14,129.84Zm97.21-108a12.89,12.89,0,0,0-2-.3c-.67,0-1.88-.39-1.75.65.09.77,1.14,1.42,1.77,2.13ZM50.22,157.37c-.16.43-.5.86-.43,1.21.23,1.23.85,2.22,2.31,2.08.48,0,1.23-.35,1.34-.69.46-1.5-1.15-.88-1.67-1.44A11.68,11.68,0,0,0,50.22,157.37Z"/><path d="M137.54,143.8c-.18,3.54-3.12,7.59-6.68,8.37-1.49.33-3.16,2.46-4.86.25-2.19,0-2.67-2-3.09-3.29a5.21,5.21,0,0,1,.91-4c2.54-3.49,6-5.44,10.49-5C136.65,140.39,137.65,141.52,137.54,143.8Z"/><path d="M155.28,126.89c-.13-3.81,2-6.4,4.68-8.68.88-.76,3.82-.68,4.68,0,1.12.89,1.44,2.9,1.14,4.48a9.27,9.27,0,0,1-5.11,7.2C157.71,131.35,155.36,130.09,155.28,126.89Z"/><path d="M120.41,157.89c.78,0,1.55,0,2.32,0,1.86.06,2.74,2.08,2,3.94-1.36,3.66-5.43,5.78-10.26,5.4a3.73,3.73,0,0,1-3-2.48,3.29,3.29,0,0,1,.88-3.74C114.46,159,116.24,157.44,120.41,157.89Z"/><path d="M155.28,140.12c0,4.13-3.69,8.23-7.57,8.43-2.25.11-3.25-.92-3.67-3.21-.6-3.3,5.83-9.66,9-9C154.75,136.74,155.29,137.45,155.28,140.12Z"/><path d="M173,102.6c.64,2.45-1.38,4.37-2.33,6.62-.21.52-1.18.92-1.85,1-3.39.42-5.54-1.57-5.09-5a14.48,14.48,0,0,1,1.93-5.67c.69-1.11,2.29-1.8,3.63-2.31s3.54,1.5,3.7,3.17C173.07,101,173,101.65,173,102.6Z"/><path d="M141.87,154.16c.75.27,1.66-.5,2.4,1.12a3.05,3.05,0,0,1-.29,3c-1,2-5,4.75-7,5.24-1.31.32-4.12-1.49-4.09-2.77,0-.49.64-.94.87-1.47C135.35,155.79,137.86,153.88,141.87,154.16Z"/><path d="M175.57,82.25a5.1,5.1,0,0,1,1.73,1.06c1.26,1.54,1.13,6.52,0,8.19-.85,1.29-2.12,1.09-3.3,1a2,2,0,0,1-1.93-2.1c0-1.86-.06-3.72,0-5.57S173,82.21,175.57,82.25Z"/><path d="M168.37,136.56a8.05,8.05,0,0,1-5,6.38c-.74.32-1.21,1.52-2.3.7a2.89,2.89,0,0,1-1.18-2.77c.22-2.58,4.1-7,6.44-7.27C167.32,133.51,168.31,134.78,168.37,136.56Z"/><path d="M105.82,175.63a7,7,0,0,1-1.38,0c-.81-.15-2.11.6-2.32-.66-.17-1.09-.47-2.34.68-3.4,1.88-1.73,4.12-1.34,6.32-1.58,1.68-.18,2.48.81,3.49,1.71.6.53.53.75,0,1.36-1.56,1.88-3.31,3.12-5.89,2.6A4.81,4.81,0,0,0,105.82,175.63Z"/><path d="M170.22,122.43a25.76,25.76,0,0,1,0-2.78c.18-1.53,2.52-3.67,4-3.79,1.68-.14,2.56,1.08,2,2.78-.17.55-.56,1.16-.45,1.64.59,2.63-1.29,3.91-2.84,5.31a3,3,0,0,1-2.07.5c-1.18-.1-.65-1.14-.72-1.81A16.29,16.29,0,0,1,170.22,122.43Z"/><path d="M124.12,173.78a6.05,6.05,0,0,1-1.61-.62c-.79-.53-1.27-1.21-.4-2.21,2-2.27,6.66-3.7,9.42-2.67a1.25,1.25,0,0,1,.37,1.15C130.85,171.46,127,173.68,124.12,173.78Z"/><path d="M157.2,152.38a5.89,5.89,0,0,1-4.69,5.41c-.61.16-1.22,1.92-2.06.37a4,4,0,0,1-.71-2.42c.85-3.15,3.41-4.55,6.3-5.27C157.55,150.08,157,151.55,157.2,152.38Z"/><path d="M181.43,103.16c0,.77.28,1.71-.06,2.27a18.84,18.84,0,0,1-2.46,2.77c-.69-1-2.61-1.42-1.29-3.4.49-.74,0-2.1.09-3.18.07-1.42,1-2.76,1.92-2.53a2.23,2.23,0,0,1,1.81,2.68A10.75,10.75,0,0,0,181.43,103.16Z"/><path d="M140.88,168.27a7.53,7.53,0,0,1-1.22-.36.89.89,0,0,1,.17-.62,15.67,15.67,0,0,1,3-2.8,13.55,13.55,0,0,1,3.67-.94c.15,1.59-1.31,2.1-2.16,2.86A15.32,15.32,0,0,1,140.88,168.27Z"/><path d="M172.88,132.93a6.14,6.14,0,0,1,.65-2.08c.41-.49,1.36-1.07,1.79-.89.8.31.64,1.1.07,1.8-.34.4-.36,1.07-.67,1.51a8.7,8.7,0,0,1-1.26,1.24Z"/><path d="M116,176.57c.46,0,.92,0,1.38,0,.12,0,.33.17.32.25s-.09.58-.22.62c-1.23.36-2.47.69-3.73.93a2.29,2.29,0,0,1-.46-1.09c0-.22.26-.67.43-.69A21.68,21.68,0,0,1,116,176.57Z"/></g></svg>