<svg id="Layer_1" data-name="Layer 1" xmlns="http://www.w3.org/2000/svg" viewBox="0 0 200 200"><path d="M101.08,114.6a2.88,2.88,0,0,0-2.89,2.88v10.84a2.89,2.89,0,0,0,5.77,0V117.48A2.88,2.88,0,0,0,101.08,114.6Z"/><path d="M101.08,71.26a2.88,2.88,0,0,0-2.89,2.88V85A2.89,2.89,0,0,0,104,85V74.14A2.88,2.88,0,0,0,101.08,71.26Z"/><path d="M101.08,136.27a2.88,2.88,0,0,0-2.89,2.88V150a2.89,2.89,0,0,0,5.77,0V139.15A2.88,2.88,0,0,0,101.08,136.27Z"/><path d="M101.08,49.59a2.88,2.88,0,0,0-2.89,2.88V63.31a2.89,2.89,0,0,0,5.77,0V52.47A2.88,2.88,0,0,0,101.08,49.59Z"/><path d="M63.16,98.35H52.32a2.88,2.88,0,0,0,0,5.76H63.16a2.88,2.88,0,0,0,0-5.76Z"/><path d="M84.82,98.35H74a2.88,2.88,0,1,0,0,5.76H84.82a2.88,2.88,0,1,0,0-5.76Z"/><path d="M106.49,98.35H104V95.81a2.89,2.89,0,0,0-5.77,0v2.54H95.66a2.88,2.88,0,0,0,0,5.76h2.53v2.54a2.89,2.89,0,0,0,5.77,0v-2.54h2.53a2.88,2.88,0,1,0,0-5.76Z"/><path d="M149.83,98.35H139a2.88,2.88,0,1,0,0,5.76h10.83a2.88,2.88,0,1,0,0-5.76Z"/><path d="M128.16,98.35H117.33a2.88,2.88,0,1,0,0,5.76h10.83a2.88,2.88,0,1,0,0-5.76Z"/><path d="M167.2,33H35a2.88,2.88,0,0,0-2.88,2.88V166.59A2.88,2.88,0,0,0,35,169.47H167.2a2.88,2.88,0,0,0,2.89-2.88V35.87A2.88,2.88,0,0,0,167.2,33Zm-2.88,65.36h-3.65a2.88,2.88,0,1,0,0,5.76h3.65V163.7H104v-2.88a2.89,2.89,0,0,0-5.77,0v2.88H37.83V104.11h3.66a2.88,2.88,0,0,0,0-5.76H37.83V38.76H98.19v2.88a2.89,2.89,0,0,0,5.77,0V38.76h60.36Z"/><path d="M167.2,11.46a2.88,2.88,0,0,0-2.88,2.88V26.65a2.89,2.89,0,0,0,5.77,0V14.34A2.88,2.88,0,0,0,167.2,11.46Z"/><path d="M190.27,33H178a2.89,2.89,0,1,0,0,5.77h12.3a2.89,2.89,0,0,0,0-5.77Z"/><path d="M35,11.46a2.88,2.88,0,0,0-2.88,2.88V26.65a2.88,2.88,0,1,0,5.76,0V14.34A2.88,2.88,0,0,0,35,11.46Z"/><path d="M24.19,33H11.88a2.89,2.89,0,0,0,0,5.77H24.19a2.89,2.89,0,0,0,0-5.77Z"/><path d="M167.2,172.93a2.88,2.88,0,0,0-2.88,2.88v12.31a2.89,2.89,0,0,0,5.77,0V175.81A2.88,2.88,0,0,0,167.2,172.93Z"/><path d="M190.27,163.7H178a2.89,2.89,0,1,0,0,5.77h12.3a2.89,2.89,0,0,0,0-5.77Z"/><path d="M35,172.93a2.88,2.88,0,0,0-2.88,2.88v12.31a2.88,2.88,0,1,0,5.76,0V175.81A2.88,2.88,0,0,0,35,172.93Z"/><path d="M24.19,163.7H11.88a2.89,2.89,0,0,0,0,5.77H24.19a2.89,2.89,0,0,0,0-5.77Z"/></svg>