<svg id="Layer_1" data-name="Layer 1" xmlns="http://www.w3.org/2000/svg" viewBox="0 0 200 200"><g id="_7Jeelx" data-name="7Jeelx"><path d="M147.56,82.84l-3.42.87a21.61,21.61,0,0,0,1.58,2.16c3.26,3.36,6.57,6.67,9.82,10A4,4,0,0,0,159,97.15a7.59,7.59,0,0,1,3.46.76,21.27,21.27,0,0,1,7.74,6.76,4.7,4.7,0,0,1-2.86,7.64,129.34,129.34,0,0,1-15.23,2.42,143.69,143.69,0,0,1-17.11.38c-9.52-.34-19-.93-28.54-1.68-6.4-.5-12.76-1.52-19.15-2.22-4.91-.53-9-3.09-13.25-5.23-7-3.53-14-7.29-21.06-10.67-7.59-3.63-15.34-6.91-23-10.39-1.67-.76-2.83-.56-3.79,1.1C24.49,89,22.71,91.85,21,94.75c-.35.57-.63,1.31-1.15,1.6a3.19,3.19,0,0,1-2.18.29c-.33-.09-.68-1.12-.57-1.63.36-1.65.92-3.25,1.42-4.87.62-2,1.3-4,1.86-6.06.62-2.26.29-3-1.89-4C14.72,78.31,10.94,76.68,7.19,75a8.91,8.91,0,0,1-2.06-1.12,2,2,0,0,1-.76-1.49c.09-.42.81-.89,1.32-1,1.66-.33,3.37-.41,5-.74,3-.58,4.07-2.25,3.58-5.23-.94-5.65-3.55-10.64-6.06-15.68A38.79,38.79,0,0,1,6.4,45.81a2,2,0,0,1,.3-1.74C9,41.74,11.49,42.14,13,45c2.68,5.16,5.33,10.34,8,15.48,1.56,3,3.21,5.84,4.8,8.77A7.06,7.06,0,0,0,32,73.09q15.27.78,30.54,1.46A5.4,5.4,0,0,0,67.65,72c2.44-3.92,6-6.06,10.36-7.4a95.56,95.56,0,0,1,24.48-4.11A14.08,14.08,0,0,1,113.75,65a12.41,12.41,0,0,0,5.52,3.27,6.76,6.76,0,0,1,3.48,2.94c1.65,2.88,4,4,7.17,4.09,6.08.27,11.22,3.24,16.39,6C146.8,81.61,147.1,82.27,147.56,82.84ZM136.07,103.9c4.54-.16,8.74-.89,12.19-4.11a12.4,12.4,0,0,1,3.8-2.08c1.84-.77,2.05-1,.76-2.47q-4.57-5.31-9.39-10.4a3.32,3.32,0,0,0-2.4-.73c-3.38.28-6.74.75-10.11,1.12-2.21.24-3.07,1.28-2.43,3.44,1.3,4.4,2.76,8.75,4.15,13.12C133.19,103.54,134.21,104.51,136.07,103.9Zm-5.16,7.28c2.77.07,3.33-.65,2.57-2.85-2.29-6.67-4.63-13.33-6.93-20a2.72,2.72,0,0,0-2.71-2c-1,0-1.94,0-2.91,0-2.25.07-2.75.53-2.42,2.76.79,5.31,1.64,10.63,2.6,15.92a6.08,6.08,0,0,0,1.52,2.8C125,110.4,128.24,110.64,130.91,111.18ZM105.78,87.06c-1.06.08-2.81.28-4.57.32-1.59.05-2.35.86-2,2.31q1.16,5.19,2.63,10.3a2.22,2.22,0,0,0,1.63,1.25c2.89.19,5.8.26,8.71.24,1.2,0,1.83-.52,1.41-2A59.34,59.34,0,0,1,112,92C111.18,86.73,111.79,87.34,105.78,87.06Z"/><path d="M101.12,52.77c-2.33-1.68-4.63-3.41-7-5-1.45-1-3-1.77-4.51-2.72a4.87,4.87,0,0,1-1-1.28,4.75,4.75,0,0,1,1.37-.93,8.85,8.85,0,0,1,7.76,1.41c2.75,2.1,5.63,4,8.32,6.2a15.77,15.77,0,0,0,10.34,3.37c6.79-.08,13.58-.63,20.37-.95,4.25-.2,8.5-.32,12.75-.51l38.39-1.73a4,4,0,0,1,1.8.07c.57.27,1.29.88,1.33,1.39s-.74,1.21-1.28,1.35a15.09,15.09,0,0,1-3.43.38c-10,.31-20,.57-30.06.91-9.59.32-19.18.71-28.77,1.08-2.61.11-5.22.24-7.83.37a2.65,2.65,0,0,0-1.07.12c-.55.3-1.45.76-1.43,1.1A2.21,2.21,0,0,0,118.24,59c2.43,1.06,5,1.93,7.42,2.92,2.15.87,4.28,1.81,6.42,2.72l0,.59a6,6,0,0,1-1.78.7,89.17,89.17,0,0,1-9.25-.08,8.07,8.07,0,0,1-3.71-1.72c-2.06-1.48-3.91-3.27-6-4.74a8.9,8.9,0,0,0-3.46-1.45A121.09,121.09,0,0,0,86,56.36c-18.84,0-37.67-.2-56.5-.36a16.56,16.56,0,0,1-3.76-.54c-.42-.1-1-.8-1-1.09a1.84,1.84,0,0,1,1.12-1.16A10.6,10.6,0,0,1,28.59,53q34.1.42,68.2.83a36.76,36.76,0,0,0,4.17-.4Z"/><path d="M70.85,124.15a23.53,23.53,0,0,1,4.2,0c3.29.61,3.32.66,4.4-2.5.72-2.11,1.47-4.21,2.23-6.31a3.05,3.05,0,0,1,.64-1.27,4.27,4.27,0,0,1,1.37-.54,3.84,3.84,0,0,1,0,1.31c-1,2.59-2.09,5.14-3,7.75-.7,2-.13,2.6,1.93,2.86,5.7.75,11.39,1.59,17.09,2.33,5.16.68,10.33,1.3,15.5,1.89,1.75.19,2.57-.85,3-2.47.73-2.53,1.58-5,2.53-7.51a7.92,7.92,0,0,1,1.76-2.48c.33-.33,1-.29,1.46-.4-1.44,3.12-2.86,6-4,8.88-.56,1.39-1.44,3.42,0,4.34,1,.64,2.94-.07,4.44-.31.75-.13,1.43-.66,2.19-.84.37-.09.83.22,1.25.35-.15.46-.16,1.11-.48,1.36a8.9,8.9,0,0,1-6.88,1.61c-7.86-1-15.71-2.11-23.56-3.18-8.14-1.12-16.28-2.23-24.42-3.39a7.63,7.63,0,0,1-1.81-.77Z"/><path d="M124.16,122l26.21,2.54c-.44-2.85-3.4-4-3.35-7.16a12.27,12.27,0,0,1,1.72,1.43,23.72,23.72,0,0,1,1.62,2.42c2.08,3.43,3.27,3.93,8.14,2.39.52-.16,1-.59,1.5-.61a10.84,10.84,0,0,1,2.16.32c-.31.71-.43,1.64-.95,2.07a7.51,7.51,0,0,1-5.62,1.5l-28-2.71a11.35,11.35,0,0,1-2.5-.4c-.49-.16-.85-.72-1.27-1.1Z"/><path d="M105.32,121.67c1.73-2,3.76.35,5.65-1-.51-.87-1.12-1.82-1.63-2.83a6.41,6.41,0,0,1-.36-1.54,4.82,4.82,0,0,1,1.56.68,23,23,0,0,1,2.06,2.53,4.2,4.2,0,0,0,3.4,2.08c.42,0,.84.67,1.25,1-.44.22-.9.65-1.33.62-3-.21-6-.5-9-.83A6.36,6.36,0,0,1,105.32,121.67Z"/></g></svg>