<svg id="Layer_1" data-name="Layer 1" xmlns="http://www.w3.org/2000/svg" viewBox="0 0 200 200"><g id="gUZrMV.tif"><path d="M109.77,10.73c.14,1,1.41,0,1.6.9.68-1.06,1.29.1,1.95.06,2.4-.16,3.76,1.45,4.88,3.2.57.89,1.31,1.88,1,2.93,1,1.25,2,2.32,2.78,3.52a6.57,6.57,0,0,1,1.38,2.93c.1,2.06,1.37,4.14.09,6.22-.11.17,0,.47,0,.7-.17.95.28,1.91-.38,2.92-.43.66,0,1.77-.53,2.6-.18.27,0,.77,0,1.16a1.83,1.83,0,0,1,1.37,1.74,33.82,33.82,0,0,1-.25,6.51l-.76-6.67c-.78,1.29-1.5,2.41-1.33,3.89a4.68,4.68,0,0,1-.48,1.59,3.44,3.44,0,0,1,2.33,4.26c-.34,1.57-.5,3.5-2.76,4,0,2-.08,4,0,5.9s.38,3.79.59,5.81h1.45l1.2,1.45c.14.88,0,2.18.58,3,.69,1,0,2.23.81,3.24.46.6,0,1.49-.76,1.9l2,3.7a8.86,8.86,0,0,1,5,1.24,10,10,0,0,1,3.38,3.08,27.1,27.1,0,0,1,3.38,5.65c.56,1.42,1,2.87,1.62,4.43l-1.3.86c.11,1-.06,2.12.4,2.86s.21,1.65.41,2.44a9.06,9.06,0,0,1,.49,2.4,22.27,22.27,0,0,0,.42,2.64c.1.89-.14,1.8.45,2.66.22.32,0,.92,0,1.39a60.18,60.18,0,0,0,.51,6.16,39.29,39.29,0,0,0,1.53,4.9l-2,1.44c.16.75-.45,1.68.45,2.44-.2,1.2.39,2.46-.31,3.65a2.32,2.32,0,0,0-.14,1.34c.16,1.78-.58,3.37-1,5a6.24,6.24,0,0,1-1.71,2.08,10.23,10.23,0,0,0-.88.87c-.92-.12-1.94.23-3-.41-.18,1,0,2.22-.09,3.36,0,.66.28,1.39-.39,2a.89.89,0,0,0,0,.88c.77.8.42,1.77.43,2.66,0,6,0,11.94,0,17.92,0,1.34-.39,2.84.09,4,.62,1.42.23,2.74.35,4.09a31.56,31.56,0,0,1,0,4c0,.81.29,1.66-.42,2.43a1.7,1.7,0,0,0,0,1.37c1,2.81.15,5.69.49,8.52-1.38.52-2.65,1-4,1.47a2,2,0,0,1-1.26-.14,2.14,2.14,0,0,0-2.28.35,17,17,0,0,1-5.38,2.33,17.83,17.83,0,0,1-4.29.41c-2.35,0-4.71.07-7,0a19.78,19.78,0,0,1-4-.63,5.8,5.8,0,0,1-3.85-2.56l.35-1.57-1.23.51-2.48-.9a15,15,0,0,1-6.59,2,17.46,17.46,0,0,1-3.8.35c-3-.44-6.14-.34-9.06-1.39-.69-.24-1.34-.56-2.15-.9a12.28,12.28,0,0,1,2.69-7.63,29.07,29.07,0,0,1,2.82-2.84,12.6,12.6,0,0,1,1.62-1.17c.62-.42,1.25-.82,1.83-1.2,0-7.21,0-14.28,0-21.35,0-4.11.36-8.21.44-12.31s0-8.17,0-12.26a14.87,14.87,0,0,1-3.3-6.11,6.66,6.66,0,0,0-2.12-1.16,8.55,8.55,0,0,1-2.05-.72,21.12,21.12,0,0,1,1-8.31c.66-2.5,1.21-5.13,2.73-7.35.35-2.83,2.73-4.61,3.87-7.16a14.92,14.92,0,0,1-6.19.15c-.52-.09-1-.22-1.54-.26A14.38,14.38,0,0,1,70,91.89,13.63,13.63,0,0,1,67,85.62c-.48-1.88-.63-3.85-1-5.72-.61-2.72-.07-5.4-.45-8.17a23.14,23.14,0,0,1-4.6-5.51c-1.23-2.28-.92-4.72-1-6.78l-2.36-3.61V54.39a4.42,4.42,0,0,1,3.85-4.51A14.38,14.38,0,0,0,63,49.35c.43-2.16,1.75-3.87,2.84-5.67.13-.21.51-.26.77-.4.77-.42,1.53-.85,2.29-1.28a7.45,7.45,0,0,1,4.5-1.1,8.26,8.26,0,0,0,2.89-.34c.85-.24,2,.33,2.93.7a11.74,11.74,0,0,1,4.25,2.81c.7.74,1.44,1.45,2.06,2.08,1.14,2.63-.2,4.17-2.27,5.41l1.08,2.15-.66,2.66a3.86,3.86,0,0,1-1.84,1.15c-1.78.48-2.28,2.1-2.22,3.91a7.5,7.5,0,0,0,4.18,2.31c-.93,1.48-2.45,2.06-4.1,2.83C80,67.29,79,68,79.61,69a12.26,12.26,0,0,1,.7,2.53C80.93,73.72,82,75.75,82.5,78c.06.26.43.44.78.77.72-.53,1.76-.53,2.2-1.78.28-.82,1.34-1.11,2.31-1.1,1.47,0,2.95,0,4.52,0l1.18-6.62c1.43-1.25,3.51-.94,5.39-1.54v-2.1l-3.25-3.82H92.4l.85,1.66-.65.51-1.24-.58.34-2-1.54-.69c-.82-1-.62-2.22-.62-3.43l1-1a9.24,9.24,0,0,1,0-2.82,43.52,43.52,0,0,1,2-4.63,13.76,13.76,0,0,1-.71-2.3,21.67,21.67,0,0,1,0-2.92c-.8-.88-1.84-1.66-1.9-3.13-.15-3.52-.22-3.54,1.24-6-.11-.77-.4-1.4-.2-1.73,1.32-2.19,1.64-4.68,2.38-7,1.11-3.54,2.86-6.88,6.42-8.73a3.17,3.17,0,0,0,1.5-1.56,7.24,7.24,0,0,1,5.45-4.2c.08,0,.11-.25.17-.38ZM71.19,50.36c1.18-.68,2.66-.94,3.3-2.32.05-1-1-1.83-.3-2.81h1.73l.62,3.14L80.28,50c-.22,1.13-.42,2.15-.57,3.21l-.1-.1-.38.33.15.15a1.39,1.39,0,0,0,.28-.43h.94c0-1.09.06-2,0-3-.06-.65-.48-1.3-.4-1.91s.84-1.17.83-1.74c0-1.42,1.08-1.34,1.78-1.52L81,43.21c.49,1.43-.51,1.86-1.24,2.48-1-.32-1.37-1-.87-1.78s.24-1.28.24-2.1a14.51,14.51,0,0,0-2.63-.38c-1.74.06-3.48.27-5.21.46-.26,0-.5.29-.76.42-.91.45-1.81.92-2.74,1.32a4,4,0,0,0-2.32,2.3,11.08,11.08,0,0,1-1.25,1.9v1.89l1.56,1.57.12-.2,2,1.15L66.48,53.4l-.62-.28-1.28,2c.53,0,1,.06,1.24-.11a8.34,8.34,0,0,0,1.8-1.32,1.29,1.29,0,0,1,1.7-.29v1.76l2,1.59L70.93,60c1.51.05,1.78,1.39,2.24,2.43a5.18,5.18,0,0,1,1.46.62c.51.46,1,.72,1.62.39l.32-.93,1.54.44,1-.54c-1-.59.27-2.53-1.61-2.62l-.94,1.88h-1l-.56-1.14c.48-1.1.94-2.06,2.22-2.29a1.89,1.89,0,0,1,.9-2,1.17,1.17,0,0,0,.37-1.61c-1,.72-2.2.33-3.3.38-2.11.09-3.82-.57-4.47-2.61Zm14.07,71.3.09-.09-.33-.39-.14.15c.12.11.25.22.1.07a23.06,23.06,0,0,0,3.49,6c1.17,1.26,2.39,2.49,3.66,3.66a27.54,27.54,0,0,0,3,2.36,24,24,0,0,0,2.68,1.48,17.34,17.34,0,0,0,2.75,1.32,39.19,39.19,0,0,0,5.52,1.41,6.33,6.33,0,0,1,2.82.84v30.64a29,29,0,0,0,8.42,1.52,45.26,45.26,0,0,0,9.22-.27,65.48,65.48,0,0,0,7-1.69c-.11-1.84-.28-3.51-.29-5.17,0-5.74,0-11.48,0-17.22,0-1.12.26-2.27-.42-3.36a1.89,1.89,0,0,1,0-1.61c.95-1.63.12-3.31.5-5-2.29.75-4.42.2-6.4.41l-1.58-1.58c-.24-1.37-.47-2.69-.71-4-3.35-.24-3.54-1.51-3.13-4,.11-.7.29-1.39.45-2.15-3.3-.28-6.39.53-9.55.52s-6.15-.45-9.21-.66a62.63,62.63,0,0,1-9.08-1.22C91.2,123,88.25,122.27,85.26,121.66Zm-4.61-3.34a29.08,29.08,0,0,0,7.18,2.83c1.59.34,3.1,1.07,4.78.95.9,1.12,2.47-.18,3.38.93,1.24-.25,2.37.35,3.57.45a19.26,19.26,0,0,1,3.82.42c1.16.33,2.49,0,3.74.09s2.54.37,3.81.43a30.18,30.18,0,0,0,4.46,0,23.64,23.64,0,0,1,4.52-.44,4.21,4.21,0,0,0,3-.66c.33-1.54.78-3,1-4.58.42-3.25-.49-6.46-.45-9.71,0-.08,0-.19,0-.23a2.8,2.8,0,0,1-.44-2.4c.13-1-.48-1.75-.48-2.64a33.45,33.45,0,0,0-1-6.58c-.92-.31-2,.34-2.63-.7-.19-1.34-.49-2.67-.55-4a19.82,19.82,0,0,1,.41-5.47c.82-3.35,1.89-6.42,5.41-7.85.58-.24,1.14-.53,1.84-.85l-2.06-3.4c-3.82,2.7-8.09,3.69-12.48,4.7-.17-.2-.67-.52-.63-.75.18-1.12-.38-2.08-.52-3.12-.17-1.23-.39-2.46-.59-3.65-.25,0-.36,0-.4,0-2.59,2.5-5.17,5-7.8,7.56L97.21,75c-6,10.15-5.79,13.86-6.82,19.11a40.17,40.17,0,0,0-7.76,13.05A24.57,24.57,0,0,0,80.65,118.32Zm27.24,49.44V155.35a53.48,53.48,0,0,0-.09-8c-.41-2.7-.26-5.37-.41-8.12-2.2-1-4.67-1-6.92-2A40.05,40.05,0,0,1,94,133.72a61.92,61.92,0,0,1-5.82-5.05c0,2.67-.13,5.25,0,7.81s-.53,5.21-.51,7.83,0,5.19,0,7.78v15.7a39.12,39.12,0,0,1,5.09.74c1.7.47,3.38,0,5.05.28s3.3-.46,5-.51S106.07,168,107.89,167.76ZM94,32.88a6.64,6.64,0,0,0-3.46,5.61c.22,0,.49.15.65.06,1.13-.64,2.37-.44,3.57-.45,1.54,0,3.08,0,4.63,0a4.73,4.73,0,0,1,1.9-3.85c.9-.82,2-2.28,3.82-1.62-1.66,1.54-3.18,3-3.4,5.37,2-.12,3.86-.21,5.72-.38s3.61.79,5.34,1c1.15-1.79-1.1-3.09-.52-4.83.31.12.57.14.71.28a5.87,5.87,0,0,1,2,4.37,2.78,2.78,0,0,0,.23,1.54,2.12,2.12,0,0,1-.29,2.52,13.42,13.42,0,0,1-2.59,2.68,4,4,0,0,1-2.17.93c-2.25.07-4.63.55-6.47-1.37-.71-.74-1.43-1.48-2.11-2.2a4.82,4.82,0,0,1-3.62,0A2.72,2.72,0,0,0,96,42.6c-1.14.37-1.29,1.33-1.79,2.06a4,4,0,0,0,4.55,2.89c1.9-.17,3.82.23,5.7-.47.93-.34,5,1.12,6,1.92a3.78,3.78,0,0,0,2.7.89A3.44,3.44,0,0,1,115.8,51a9.35,9.35,0,0,1,2.3,3.13,1.74,1.74,0,0,0,.13-1c-.07-.45-.21-.9-.3-1.3l.56-.51c.84.88,1.5.49,2-.17V48.52l-.29-.08-.82,1.92h-.45c-.3-2-.1-2.41,1.49-3.4.14-.09.14-.4.19-.58-.84-.85-1.52.43-2.38.12,0-1.14-.09-2.24,0-3.32s.86-2.06.16-3.31c-.57,2-1.09,3.77-1.67,5.58,0,.13-.48.14-1,.29a16.39,16.39,0,0,1,.37-2c.51-1.59,1.17-3.14,1.59-4.75.19-.76.36-1.25,1.18-1.4.26-.05.46-.41.68-.61,0-.7-.12-1.54.22-2,.49-.7.17-1.36.31-2a13.83,13.83,0,0,0,.45-2.16c.07-1.26,0-2.52,0-3.78a8.5,8.5,0,0,0-1-3.8,40.3,40.3,0,0,0-3.22-4.56l-1.11.81c-.4-1.72-1.77-2.12-3-2.8-.63-.35-1.24,0-1.76-.3-2-1-4.16-.59-6.14-.3a12,12,0,0,0-5.73,2.63,6.94,6.94,0,0,0-1.55,1.51c-1.63,2.48-3,5-3.28,8.07C93,29,93.46,30,93.21,30.9L92,32.1v1.23C92.67,33.25,92.87,31.86,94,32.88ZM81.38,80.34A23.33,23.33,0,0,1,79.73,78a47.4,47.4,0,0,1-2.4-6.54,3.75,3.75,0,0,0-3.25-2.69,13.79,13.79,0,0,1-5.54-1.86l-.42.94C66.59,67.46,67,66.44,67,65.73c1.13-1.52,3.88-.76,3.74-3.22L69,60.6l-2.78,1.16c-1.06.46-.9,2.16-2.45,2.34l-.07-1.25c1.39-1.29,2.41-2.79,4.22-3.21l.6-2.33-1.39-1.39a9.57,9.57,0,0,0-3.16.65,8,8,0,0,0-3.08,3.17c0,.88,0,1.82,0,2.77a3.42,3.42,0,0,0,.1,1.37c1.27,2.51,2.52,5.06,4.63,7a4.27,4.27,0,0,0,1,.5A44.92,44.92,0,0,0,67.45,84a17.92,17.92,0,0,0,1.6,5c2.19,4,6,5.65,10.28,6.16a76.69,76.69,0,0,0,8.87.07,20.85,20.85,0,0,1,.34-4.78A24.15,24.15,0,0,0,87,79.16h-3.1Zm41.09,17c0,.6-.25,1.43.06,1.81.53.66.31,1.31.42,2s.39,1.28.45,1.93a54,54,0,0,0,.92,6.92,22.2,22.2,0,0,1,.05,3.06c.08,1,.38,2.06.43,3.1a7.75,7.75,0,0,1-.39,3.36,24.68,24.68,0,0,0-.43,2.64,25.57,25.57,0,0,1-1,2.66,38.36,38.36,0,0,0-1.08,4l1.27,1.37c1,0,1.92.23,2.13-1,.19-1.09.42-2.16.68-3.53.33.65.79,1.15.68,1.41-.45,1.11-.08,2.4-.52,3.31a5,5,0,0,0-.33,2.68,3.56,3.56,0,0,0,1,2.72H129c1.33-2.18,1.09-4.78,2.07-6.92l.76.53-1.33,6.39c.25,0,.54.07.83.08s.59,0,.73,0a10.11,10.11,0,0,0,3.72-6.61,4.72,4.72,0,0,1,.56,0c.07,0,.11.1.18.17.37,1.95-.72,3.55-1.44,5.28l.83.29a17.46,17.46,0,0,0,1.61-6.39c0-1.65-.08-3.31,0-5,.13-2.29-.48-4.64.44-6.88a1,1,0,0,0,0-.7c-.89-1.85-.3-3.8-.45-5.7,0-.55.22-1.31,0-1.61-.79-.86-.26-1.8-.43-2.67s-.35-1.75-.46-2.64c-.19-1.5,0-3.15-.58-4.47s.15-2.75-1-3.58c-.82.29-1.55.6-2.32.8s-1.75.32-2.62.48a16.61,16.61,0,0,1-2.4.45,15.55,15.55,0,0,0-2.63.45A9.62,9.62,0,0,1,122.47,97.32ZM90,59.08a4.22,4.22,0,0,0,3.76,1.69,37,37,0,0,1,4.47,0,15.23,15.23,0,0,0,8.32-2.21l-.66-1.33.82-.61,1.16.59v1.35c.43.74,1.4,1,1.43,2-1.2.83-1.63-.52-2.45-.81a24.11,24.11,0,0,1-9.74,2.53c.5.5,1,.92,1.35,1.39a12,12,0,0,0,3.47,3.27,8,8,0,0,0,7.69,0,4.09,4.09,0,0,0,2.5-4l-1.28-1.4c-.31-1.14.15-1.71.78-1.69,1.79.07,2.74-1.1,3.77-2.18V53.41a22.15,22.15,0,0,0-1.69-1.67c-1-.82-2.12-1.4-3.43-.45a6.32,6.32,0,0,1-1.36.55c-.25-1.32.78-1.28,1.37-1.75a12.39,12.39,0,0,0-3.81-1.61c-.55-.18-1.36-.61-1.63-.4-.8.65-1.64.35-2.45.38-1.48.06-3,0-4.46,0a4.7,4.7,0,0,1-3.21-1.05c-.94,1.54-1.88,3-2.69,4.46a4.87,4.87,0,0,0-.59,2.1C91.41,55.76,90.48,57.22,90,59.08ZM139.1,92c-1-2-2-3.91-2.89-5.9a15.23,15.23,0,0,0-3.36-4.71,7.69,7.69,0,0,0-3-1.83,10.59,10.59,0,0,0-3.36-.34c-1.45-.07-4.09,1.61-5,2.86a12.07,12.07,0,0,0-2.35,7.74c.06,1.33,0,2.67,0,4a4.23,4.23,0,0,0,.77,2.92l8.6-.56c.8-1,2-.39,3-.71,1.59-.51,3.15-1.11,4.75-1.58A6.47,6.47,0,0,0,139.1,92Zm-5.41,77.84a7.47,7.47,0,0,1-3.88.89c-.83.91-2.08,0-2.81.54-1,.68-2,.31-2.9.39-1.17.09-2.35,0-3.52,0-1.33,0-2.66.06-4,0s-2.53-.28-3.79-.47c-.28,0-.54-.33-.79-.32-1.09.07-2-1-3.1-.51v6a5.55,5.55,0,0,1,1.64.17c2.23,1,4.64.93,7,1.27,1.53.22,3.14-.08,4.68.07s3-.62,4.51-.51a14.93,14.93,0,0,0,7-1.53ZM100,66.72c0,2.91-1.08,5.36-1.94,7.82l3.35,3.84,1-1c2.1-2.11,4.19-4.22,6.3-6.32a3.71,3.71,0,0,1,1.5-.91c2.81-1,5.72-1.58,8.6-2.53-.2-3-.4-6-.6-9,0-.06-.1-.11-.16-.17a10.29,10.29,0,0,1-1.18,2,12.51,12.51,0,0,0-1.45,2.23c-1.69,2.73-3.71,5.09-7,5.86-1.08.25-2.23.85-3.21.64C103.36,68.76,101.43,68.42,100,66.72Zm11.76,12.11c1.47-.41,2.74-.78,4-1.1a20,20,0,0,0,8.79-4.52c-.42-2.16-.83-4.26-1.25-6.38a21.08,21.08,0,0,0-2.17.74,53.77,53.77,0,0,1-9.74,3.08c-.87.2-1.52,1-1,1.61s.29,1.32.42,2C111,75.73,111.36,77.22,111.71,78.83Zm-3.82,90.06c-1.32.13-2.63.24-3.94.38s-2.68.38-4,.45a29.71,29.71,0,0,1-4.22,0c-1.35-.11-2.67.31-4.08-.35-1.12-.54-2.59-.34-3.82-.46l-.5,3.49A12,12,0,0,0,92.1,174c1.76-.06,3.42.75,5.21.5s3.6.08,5.46-.37a48.79,48.79,0,0,0,5.12-1.19ZM101.76,39c.14,3.39,2.26,5.75,5.89,6.56,1.08.24,2.13-.42,3.16-.78a5.74,5.74,0,0,0,3.7-4.17,5.75,5.75,0,0,0-1.8-1.1c-1.57-.27-3-1.17-4.69-1-.23.89-.58,1.4-1.56,1.42s-1.27-.82-1.78-1.58ZM89.19,94.16a4.18,4.18,0,0,0,.86-2.71,14.93,14.93,0,0,1,.62-3.74,42.88,42.88,0,0,1,4-9.35,3.26,3.26,0,0,1-2.49-1.53H86.26l-.6,1.49L87,77.54c.4.83.81,1.53,1.08,2.28a10.77,10.77,0,0,1,1,4.78c1,2.08.16,4.29.44,6.42C88.75,92,89.18,93.06,89.19,94.16Zm4.22-50.09,2.06-2.31h6l-.75-2.69H93.49c-.73,1.42-.73,1.42-2.91,1A8.84,8.84,0,0,0,93.41,44.07Zm-33,10.77a5.76,5.76,0,0,1,.87-.85c.3-.18.72-.17,1-.34.83-.44,1.6-1,1.39-2.11L62.5,50.38c-4,2-4,2-4,5.08a4.13,4.13,0,0,0,2,2.59l.61-1-.74-.78ZM94.46,70.75c-1.4.59-.06,2.24-1.16,3,0,1.09,0,2.18,0,3.27,0,0,.09.11.17.21h1.69l1.56-3.12Zm16.73-58.61c-2.94.73-3,.77-4,2.32,1.17.21,2.35-.09,3.57.44a13.16,13.16,0,0,0,3.76.49A8.2,8.2,0,0,0,111.19,12.14Zm-39,53.12c1,.78,2.26.41,3.36.75a5.17,5.17,0,0,0,3.63-.27l-.11-2.35c-.78,1-1.43.7-1.9.37l-1.46,1.16c-.55-.3-.94-.48-1.32-.71s-.69-.49-1-.71ZM94.78,69.4c.11-.11,0,0,0,0a14.06,14.06,0,0,0,.88,1.93c.48.76,1.08,1.44,1.78,2.37.59-1.86,1.69-3.39,1.48-5.19-.78.1-1.43.13-2.06.27S95.61,69.15,94.78,69.4Zm10.74-54.65,2.54-2.54,1.23-.18c-3.64-.63-6,.67-7.36,3.9ZM112.83,12c1.81,2.11,2.47,4.82,5.37,5.13-.19-1.69-.19-1.69-2.86-4.34ZM78.26,52.43l-2.38-.71L74,52.9c.35,1.73.61,1.93,1.86,1.53a9.44,9.44,0,0,1,1-.29C78,53.94,78,53.93,78.26,52.43Zm14.57-8.15c0,1.25,0,2,0,2.78,0,.25.3.5.49.73.06.07.2.08.28.1l.5-1.07ZM75.3,46.12h-.23v.94h.23Zm46.23,19.93v.24h.94v-.24Zm19.84,52.64.41,0-.17-.79-.24,0Zm-19.3-79.82.17.17a1.48,1.48,0,0,0,.14-.32s-.09-.1-.14-.15Z"/><path d="M87.61,62.05a4.91,4.91,0,0,1,2.28,3.29l-1.63,1.53H87.18l-1.41-1.56C86.73,64.59,86.27,62.9,87.61,62.05Zm.27,1-1.19,2.57C88.17,64.8,88.17,64.8,87.88,63.05Z"/><path d="M89.65,72.64c-1.57,1.3-1.67,1.26-2.88-.86C88.07,70.8,88.07,70.8,89.65,72.64Z"/><path d="M90.63,68.66l1.19-2.46c.37.43.83.74,1,1.16a2,2,0,0,1-.14,1.32C92.27,69.46,91.73,69.42,90.63,68.66Z"/><path d="M71.66,59.25a5,5,0,0,1,.45-2.79c.74-1.19,1.17-1.23,2.36-.07l-1.21,2.94Z"/><path d="M70.42,42.83H72l1.55,3.05-1.29,1.34c-.33-.27-.86-.51-.85-.72C71.42,45.19,69.63,44.47,70.42,42.83Zm.84.41c0,.78-.09,1.08,0,1.28a2.8,2.8,0,0,0,.63.66l.29-.25Zm1.34,2.64c0-.05-.12-.16-.16-.15a1.77,1.77,0,0,0-.31.15c.05,0,.11.16.15.15A2.3,2.3,0,0,0,72.6,45.88Z"/><path d="M71.2,50.26l-2.6,1.66L68,50.61A2.14,2.14,0,0,1,70.12,49,1.05,1.05,0,0,1,71.2,50.26Z"/><path d="M69.81,46.37l-1.56,1.11H66.07V46.27C67.28,45.79,68.51,44.94,69.81,46.37Z"/></g></svg>