<svg id="Layer_1" data-name="Layer 1" xmlns="http://www.w3.org/2000/svg" viewBox="0 0 200 200"><g id="Ecc20h.tif"><path d="M101.27,27c17.14,1.28,36,2.56,54.83,4.2,4.32.38,8.56,1.88,12.77,3.08,9.6,2.76,15.42,9.34,17.68,18.83a87.21,87.21,0,0,1,2.53,17.35c.71,22.68.19,45.32-4.75,67.62-.41,1.82-1,3.58-1.49,5.39-4.16,16.71-15.17,24.8-32,27.16C124.29,174.37,97.63,173,71,172.7c-10-.1-20.1-2.06-30-3.85C30.45,167,23.47,160.38,19.4,150.54c-4.37-10.57-6.5-21.66-7.55-33C10.13,99,9.35,80.3,11.4,61.68c1.45-13.11,6.53-24,20.6-27.94,5.24-1.45,10.6-2.94,16-3.36C65.11,29,82.28,28.16,101.27,27ZM105,33c-17.29.58-29.21.41-41,1.56A187.74,187.74,0,0,0,35.48,40c-7.39,1.91-11.7,7.61-13.59,15a38.31,38.31,0,0,0-1.65,8.6c-.31,15.84-.92,31.71-.39,47.54a108.36,108.36,0,0,0,7.31,35.45c3.86,10,10.69,16,21.37,17.41,7.91,1,15.83,2.52,23.78,2.74,24.77.68,49.54,1.49,74.27-1.79,15.36-2,24.35-9.8,28.28-24.87,6.33-24.24,6.35-48.78,4.89-73.45-.27-4.46-1.54-8.91-2.7-13.27A18.21,18.21,0,0,0,164.83,40.1c-5-1.68-10.19-3.5-15.4-4C132.86,34.65,116.23,33.78,105,33Z"/><path d="M141.9,40l11.73,1.59c-2.91,40.08-5.79,79.91-8.71,120.1-5.34.25-10.37.62-15.4.58-1,0-2.44-1.47-2.78-2.55-1.8-5.71-3.46-11.48-4.87-17.3-1.86-7.68-6.57-11.82-14.36-12.92-6.11-.86-12.14-1.64-18.22.13-4.93,1.43-8.53,4-9.93,9.32-1.63,6.18-4,12.18-5.31,18.42-.92,4.39-2.91,5.58-7.06,5-3.8-.5-7.68-.45-11.94-.67-.66-7.7-1.38-15.11-1.92-22.53-2.29-31.4-4.48-62.8-6.86-94.18-.23-3,.49-4.22,3.42-4.37,2.64-.14,5.28-.47,8.21-.75C60.05,49,62,58,64.29,66.87c3.14,12,6.76,23.83,9.89,35.81,2.79,10.65,10,15.2,20.42,15.68a79.43,79.43,0,0,0,12-.06c10.33-1,17.35-6.85,19.94-16.88,4.75-18.45,9.17-37,13.75-55.48C140.71,44,141.29,42.14,141.9,40Z"/></g></svg>