<svg id="Layer_1" data-name="Layer 1" xmlns="http://www.w3.org/2000/svg" viewBox="0 0 200 200"><g id="nC8PTW.tif"><path d="M113,162.06c-1.59-.05-3.18-.11-4.78-.15-.71,0-1.43,0-2.31,0a28.74,28.74,0,0,1,1.34-2.72c1.74-2.73,3.47-5.47,5.32-8.13,3.08-4.4,6.28-8.72,9.38-13.11,1.48-2.11,2.87-4.29,4.22-6.48a9.57,9.57,0,0,0,1.68-5.25,6.54,6.54,0,0,0-.37-2.1,126,126,0,0,1-5.89-20.59,5,5,0,0,0-.17-.58c-12.66,2.57-25.35,3.52-38.31,1.5.18,1,.32,1.87.51,2.76C84.8,113,86,118.86,87.26,124.67c.81,3.79,1.77,7.55,2.58,11.34a34,34,0,0,0,3.39,9.16c.61,1.14,1.06,2.37,1.56,3.57a3.44,3.44,0,0,1-.38,3.2,4.9,4.9,0,0,1-1,1.31c-2.14,1.76-2.67,4.19-2.93,6.75-.06.61-.07,1.22-.11,1.85H79.09a2.9,2.9,0,0,1,.12-.52A32.29,32.29,0,0,1,85,151.72c1.37-1.54,1.36-3.46.67-5.35A144.1,144.1,0,0,0,76,125.18c-2.72-4.87-5.57-9.67-8.38-14.49a15.43,15.43,0,0,0-5.09-5.53,1,1,0,0,0-1.14,0A33.93,33.93,0,0,1,47,109.47c-2.67.21-5.21,1-7.83,1.4l-2.84.43a2,2,0,0,0-1.87,2.6q1.22,7.18,2.36,14.4a2.88,2.88,0,0,0,2,2.53,6.68,6.68,0,0,1,3.83,3.53,1,1,0,0,0,1,.63c1.17,0,2.33,0,3.55,0V145.2c-.64-.14-1.26-.24-1.86-.39a22,22,0,0,1-10-5.05,15,15,0,0,1-3.39-4.69A120.59,120.59,0,0,1,23.34,109c-.5-2.45,0-4.58,2-6.06a38.5,38.5,0,0,1,5.69-3.48,66.88,66.88,0,0,1,18.12-5.94l.84-.18a4.77,4.77,0,0,0-.19-.5,27.5,27.5,0,0,1-3-12.53c0-4.66-.05-9.31-.2-14a29.62,29.62,0,0,0-4.45-14.64,4.61,4.61,0,0,0-.28-.38c-1.4.64-2.77,1.25-4.14,1.9a.7.7,0,0,0-.32.41q-1.34,4.26-2.63,8.53A18.53,18.53,0,0,0,34.07,68a6.67,6.67,0,0,1-.18,1.89,2.16,2.16,0,0,1-1.68,1.62,6.67,6.67,0,0,0-2.44,1.1c-2,1.61-7.44.8-9.08-1.82a4.67,4.67,0,0,1-.78-2.13c-.39-6.34-.79-12.69-1-19-.15-3.94.05-7.88,0-11.82,0-2-.25-3.93-.45-5.88a1.84,1.84,0,0,0-.61-1.11c-2.17-1.84-4.38-3.64-6.57-5.45-.14-.11-.27-.23-.6-.52,2,0,3.82-.21,5.6-.08,3,.23,5.91.67,8.87,1a3.07,3.07,0,0,0,1.09,0C37.8,22.62,48,25.2,56.61,33.48,60,36.7,63,40.22,66.22,43.61A53.29,53.29,0,0,0,76.69,52.8a29.07,29.07,0,0,0,13.76,4.35,103.5,103.5,0,0,0,20.06-.92Q119.93,55,129.36,54a50.32,50.32,0,0,1,21.7,2.58c1.86.62,3.73,1.24,5.61,1.81a3.87,3.87,0,0,0,1.48.11,31.68,31.68,0,0,1,12.48,1,21.8,21.8,0,0,1,12.93,10.84,44.6,44.6,0,0,1,4.6,13.61A125.84,125.84,0,0,1,190,104.24c0,.11,0,.21-.06.46H175.09v-.83c-.06-5,0-10-.18-15a50.92,50.92,0,0,0-2.69-16.14,16.8,16.8,0,0,0-6-8.37,13,13,0,0,0-6-2.23c.34.43.58.73.81,1,3,3.82,5.64,7.9,6.72,12.72a28.61,28.61,0,0,1,.55,5.7c.07,2.93-.07,5.86-.07,8.78a40.55,40.55,0,0,0,3.34,16.69c1.2,2.72,3.2,4.89,5,7.19a3.76,3.76,0,0,0,.25.31,7.43,7.43,0,0,1,2.29,6.71,16.44,16.44,0,0,0,.76,6.94c1.52,5.47,2.94,11,4.49,16.45.54,1.91,1.31,3.76,2,5.62a4.16,4.16,0,0,1-1.77,5.25,1.38,1.38,0,0,0-.77,1.35c0,1.62,0,3.24,0,4.89H172.55c.5-1.13.86-2.15,1.38-3.09.85-1.53,1.75-3,2.73-4.49a6.75,6.75,0,0,0,1.17-5.44,108.8,108.8,0,0,0-5.37-17.17,26.37,26.37,0,0,0-7.88-10.37c-2.88-2.44-5.85-4.77-8.81-7.12a42.48,42.48,0,0,1-8.36-8.63c-.2-.27-.4-.55-.62-.87a15.18,15.18,0,0,0-6.21,10.28c-.39,2.58.32,5,.73,7.5.19,1.18.51,2.35.65,3.53a4.09,4.09,0,0,1-1.69,4.12,58.21,58.21,0,0,0-12.76,12.65,46.87,46.87,0,0,0-5.42,9.74,6,6,0,0,1-3.17,3.69c-.32.13-.56.77-.61,1.2-.18,1.58-.27,3.18-.39,4.77Z"/></g></svg>