<svg id="Layer_1" data-name="Layer 1" xmlns="http://www.w3.org/2000/svg" viewBox="0 0 200 200"><g id="_6JAHjW" data-name="6JAHjW"><path d="M73.09,50.13c-6.42-17.9-3.82-30.43,7.62-39.4a30.12,30.12,0,0,1,34.83-1.39c12.53,8.3,15.51,20.22,9.93,40.63H139.7v144.7H113.07V169.15H85.26v25.63H58.63V50.13Zm26,8.78a24.68,24.68,0,1,0-24.69-24.6A24.75,24.75,0,0,0,99.13,58.91ZM83,147.73V130.84H70.84v16.89Zm22.25.1V131H93.15v16.87Zm9.67-17.06v16.91h12.29V130.77ZM83,89.85V73H70.89V89.85ZM93,72.8V89.61h12.15V72.8Zm34.22,17V73.12H115V89.78Zm-21.94,29V102.09H93v16.67ZM115,101.94v16.83h12.22V101.94ZM71,101.77v16.87h12V101.77Z"/><path d="M194,189.67H142.72V64.44H194Zm-40.51-90.4h10.43V84.92H153.49Zm29.66.16V84.94H173V99.43ZM164,124.49V109.86H153.58v14.63Zm8.93-14.72v14.52h10.2V109.77Zm-9,39.76V135.06H153.55v14.47Zm19.23,0V135.07H172.82v14.46Z"/><path d="M55.32,189.71H6.75V64.5H55.32Zm-37.68-105V99.26H27.85V84.74ZM47.27,99.42V84.93H36.91V99.42ZM17.5,109.81v14.63H28V109.81Zm29.71,14.61V109.84H36.76v14.58ZM27.88,149.48V135H17.49v14.45ZM47.27,135H36.8v14.47H47.27Z"/><path d="M93.8,49.85V39.78l-10.31-.45V29.12l10-.56c.17-3.38.34-6.53.52-10h10.22v10l10.44.47V39.29l-10.06.5V49.85Z"/></g></svg>