<svg id="Layer_1" data-name="Layer 1" xmlns="http://www.w3.org/2000/svg" viewBox="0 0 200 200"><path d="M167.63,54.65c-.4-12.14-.62-28.53-.51-40.67a5.17,5.17,0,0,0-.2-1.47c.24-2.65-1.32-5.44-4.71-5.35C119.44,8.28,76.68,6.61,33.9,6.54c-3.56,0-5.11,3.12-4.67,5.86A5.19,5.19,0,0,0,29,14c.65,51,2.4,124.37,2.46,175.42a4.73,4.73,0,0,0,.84,2.81,4.43,4.43,0,0,0,4.68,4c18.49-.46,37-.75,55.46-1.66,16.47-.81,37,.27,52.72-5.1A39.64,39.64,0,0,0,160,180.67c7.81-7.45,10.48-17.44,11.15-28,.65-10.12-.55-20.73-.78-30C169.74,98.57,168.42,78.72,167.63,54.65Zm-27.07,91c-3,0-5.91,2.36-4.57,6,2.71,7.26,3.94,16.27-.22,23.22-5,8.4-14,8.17-22.54,9.25-5.22.66-10.77.31-16,.46-4.09.11-55.94,1.38-55.94,1.58-.12-49.13-1.75-120.56-2.4-169.7,39.49.18,79,1.53,118.45.69-.14,40.34,3.43,98.65,3.64,130.53a51.23,51.23,0,0,0-19-2.31A5.12,5.12,0,0,0,140.56,145.69Zm3.86,33.58c4-6.76,5-15.05,2.9-24a39.56,39.56,0,0,1,13.94,3c0,.05,0,.11.05.17C159.87,169.05,153.13,175.58,144.42,179.27Z"/><path d="M64.79,77.38c-.15,5-.28,10-.33,15-2,0-4.07-.09-6.09-.25q-.52-7.32-1.54-14.62c-.83-6.09-10-3.49-9.21,2.54a174.74,174.74,0,0,1,1.6,28.46c-.17,6.17,9.38,6.15,9.55,0,.07-2.27.06-4.54,0-6.8,1.89.14,3.78.21,5.68.23,0,3.25.14,6.5.32,9.75.34,6.13,9.9,6.17,9.56,0-.64-11.44-.35-22.88,0-34.33C74.53,71.22,65,71.23,64.79,77.38Z"/><path d="M94.7,72.6a101.44,101.44,0,0,1-14.16-.35c-6.15-.44-6.11,9.12,0,9.56l1.16.08c.69,9.34.78,18.69.79,28.06,0,6.16,9.56,6.16,9.56,0,0-9.24-.1-18.46-.76-27.67,1.14,0,2.27,0,3.41-.12C100.82,81.76,100.86,72.2,94.7,72.6Z"/><path d="M126.48,72.11a4.63,4.63,0,0,0-4.4,2.15c-1.81,2.74-3.5,5.55-5.15,8.38-2.44-2.84-4.88-5.68-7.17-8.64-1.6-2.06-5.09-1.66-6.76,0a4.42,4.42,0,0,0-1.31,2.6,5.17,5.17,0,0,0-.09,1.14c.33,10.38.39,20.76.71,31.15.19,6.15,9.75,6.16,9.55,0-.18-6-.29-12-.4-18,.84,1,1.68,2,2.51,3A3.84,3.84,0,0,0,115.76,95a4.42,4.42,0,0,0,6.07-1.77c.52-.91,1-1.81,1.57-2.71q.6,9.17,1.21,18.35c.41,6.11,10,6.15,9.56,0Q133.09,92.78,132,76.68A4.91,4.91,0,0,0,126.48,72.11Z"/><path d="M156.47,106.76c0-2.38-2.19-5.07-4.78-4.78-1.59.19-3.19.3-4.79.4-.62-8.58-1.33-17.16-2.47-25.7-.8-6-10.36-6.1-9.56,0,1.36,10.23,2.12,20.5,2.84,30.79a4.72,4.72,0,0,0,3.33,4.31,3.57,3.57,0,0,0,2.16.47c2.82-.33,5.67-.38,8.49-.71C154.28,111.24,156.47,109.59,156.47,106.76Z"/></svg>