<svg id="Layer_1" data-name="Layer 1" xmlns="http://www.w3.org/2000/svg" viewBox="0 0 200 200"><g id="vpdRmH.tif"><path d="M109.76,131.14l-8.49,6.6c-2.45-1.85-4.94-3.74-7.47-5.64h-1c-.15.15-.41.27-.46.45-.88,3.21-1.75,6.41-2.59,9.63-1.06,4.08-2.07,8.18-3.13,12.26-.79,3-1.61,6-2.42,9-.62,2.24-1.34,4.46-1.83,6.73-.57,2.61-1.57,5.09-2.11,7.68a40,40,0,0,1-2.07,7.36,24.41,24.41,0,0,0-.93,4.42c-1.78-2.11-3.26-3.79-4.65-5.54s-3.41-3.07-4.66-5.18-3.31-3.38-4.93-5.12c-1.9-2-3.62-4.25-5.58-6.23A89.44,89.44,0,0,0,37.9,152.71c-2.79-1.59-5.51-3.38-8.22-5.14a97.78,97.78,0,0,0-11.77-6.92,7.59,7.59,0,0,1-1.22-.94c2.87-1.38,5.67-2.68,8.42-4.05,7.79-3.87,15.68-7.52,23.52-11.27,5.15-2.46,10.2-5.19,15.52-7.32,1.37-.55,2.69-1.22,4.45-2L57.84,109c1.07-2.11,2-4,3-5.87l-.9-.9a5,5,0,0,1-1.15.63,7.44,7.44,0,0,1-1.42,0c-5.25.23-10.56.1-15.74.84-3.26.47-6.54.06-9.69.68-3.49.68-7,.08-10.4.74-3,.6-6,.41-9,.6-1.66.1-3.21,1.3-5,.45,1.62-2.86,3.05-5.84,4.89-8.54s2.54-6.23,5-8.64C20.5,81.61,25,74.8,27.15,67c.87-3.1,1.6-6.24,2.35-9.37,1.22-5.09,2.18-10.24,3.43-15.32a47.9,47.9,0,0,0,1.68-9.65c5.75,5.75,11.59,11,16.68,16.83,6.06,7,13,13,19.22,19.89A15.22,15.22,0,0,0,71.67,63a27.32,27.32,0,0,1,.79-4.79c1.7-1.17,3.36.35,5.11.45s3.54.41,5.64.67c-1.1-2.69-2-5.13-3.08-7.5s-2.55-4.66-3.46-7.13-2.26-4.75-3.2-7.24C71.68,32.72,69.21,28.26,67,23.7c-1.57-3.28-3.15-6.55-4.67-9.84-.18-.38,0-.92,0-1.83.55.45.81.85,1.12.88,2.51.29,5,.47,7.55.76,1.22.14,2.41.52,3.63.68A13.4,13.4,0,0,1,78,15c1.53.58,3.31.17,5.06.69a28.23,28.23,0,0,0,7.87.8c2.32,0,4.47,1.05,6.84.81s4.52,0,6.77-.08c1.82-.1,3.62-.43,5.42-.69s3.33.16,5.11-.57,3.79-.3,5.74-.76c2.66-.61,5.49-.53,8.24-.83,1-.1,1.93-.51,2.92-.67s2,.24,3-.67c.36-.36,1.37-.06,2.08-.06a10.55,10.55,0,0,0,1.78,0,9,9,0,0,0,1.78-.84c-2.57,5.42-5,10.23-7.15,15.16-1.81,4.14-4,8.09-5.75,12.24-1.32,3.17-2.95,6.15-4.37,9.25-1.55,3.4-3,6.83-4.58,10.32,2,1,3.73-.65,5.67-.52,1.77.12,3.58-.5,5.33-.79,1.64,3.56.58,7.52,2.42,11.32,12.33-11.81,23.17-24.67,35.69-36.1a59.29,59.29,0,0,0,1.73,9.11c1.55,5.69,2.28,11.55,4,17.2,1.32,4.21,2.07,8.59,3.59,12.79A98,98,0,0,0,182,82.19c2.37,4.74,4.9,9.39,7.42,14,1.8,3.31,3.68,6.57,5.62,10-1.24.09-2.45.5-3.79-.41-.57-.39-1.59-.11-2.41-.15-5.14-.24-10.33-.08-15.38-.86a75.77,75.77,0,0,0-9.36-.54c-1.62,0-3-1.07-4.71-.8a11.68,11.68,0,0,1-5,0c-3.36-1-6.72-.45-10.08-.65a10.56,10.56,0,0,1-1.89-.49l-.75.74,2.85,5.64c-1.24,1.8-3.57,2-5.26,3.16s-3.32,2-5.18,3.08c5.23,2.51,10.14,4.89,15.06,7.24s10,4.69,14.91,7.07c5.56,2.66,11.08,5.39,16.65,8,1.67.8,3.43,1.44,5.46,2.29-2.11,1.19-4,2.18-5.78,3.28q-7.55,4.62-15,9.32c-2.94,1.84-5.88,3.66-8.74,5.6a37.44,37.44,0,0,0-5.11,4c-4.86,4.72-9.64,9.53-14.39,14.37-1.62,1.64-3,3.49-4.56,5.23s-3.25,3-4.34,5c-.59,1.1-1.76,1.9-2.89,3.06C120.11,170,115,150.71,109.76,131.14Zm-77.35,8.7c15.82,9.3,29.67,19.94,41,33.54,1.28-.63.73-1.89,1.09-2.78a83.24,83.24,0,0,0,2.63-8.87c.89-3.07,1.75-6.2,2.52-9.33a72.92,72.92,0,0,1,2.22-8c1-2.58,1-5.45,2.57-7.83.91-5.4,2.88-10.54,4.18-16.47a17.85,17.85,0,0,1-10.35-2.95ZM75.05,22.27c.25.85.39,1.57.66,2.24,1.1,2.76,2.67,5.38,3.58,8.12s2.56,5.1,3.32,7.93a40.9,40.9,0,0,0,3.68,8.07,103,103,0,0,1,4.36,9.6c1.75,4.38,4.11,8.51,5.45,13.06a7.74,7.74,0,0,0,.67,1.31l4.8-3c1.12,1.13,2.26,2.52,4.09,2.54,1.06-2.44,2.08-4.75,3.06-7.07,1.93-4.55,4.16-9,6-13.54s4-8.79,6-13.19c1.78-3.9,3.55-7.8,5.28-11.71.62-1.38,1.43-2.73,1.21-4.35a122.85,122.85,0,0,1-17.12,2q-8.91.29-17.82,0A119.88,119.88,0,0,1,75.05,22.27ZM181.37,97.9c-9.55-15.61-15-32.19-18.72-49.82-1.14,1.05-1.92,1.71-2.65,2.43q-11.59,11.6-23.21,23.16a17.37,17.37,0,0,1-2.62,2.17,12.42,12.42,0,0,0-4.6,5.13c-1.2,2.73-1.1,5.7-.76,8.54.22,1.89,1.35,3.68,2.07,5.49,1.91,0,3.57-.1,5.22,0s3.36.52,5.05.67c3.58.32,7.17-.36,10.78.63,2.11.57,4.5,0,6.75.13s4.55.54,6.83.66,4.52,0,6.77,0c.59,0,1.31-.2,1.75.06C176.25,98.51,178.52,97.56,181.37,97.9ZM71.54,95c1.33-3.1,2.39-6,2.27-9.28-.13-3.71-1.41-6.8-4.39-8.84A31.67,31.67,0,0,1,65,73C57.15,65.22,49.36,57.4,41.53,49.6a15.69,15.69,0,0,0-1.82-1.31c-.35,1.73-.24,3.44-1,4.49-1.1,1.48-.4,3.09-1,4.6A41.38,41.38,0,0,0,36,63.09a121.14,121.14,0,0,1-4.5,13.82c-.92,2.46-2.54,4.68-3.33,7.17a37.9,37.9,0,0,1-3.9,8,21.06,21.06,0,0,0-2.71,5.79c2.83-.16,5.3-.26,7.83-.62,4.23-.6,8.57,0,12.88-.76,3.52-.62,7.14,0,10.77-.67,4.08-.73,8.35.2,12.53-.77C67.35,94.64,69.33,95,71.54,95Zm42.32,25.89c.41,1.28.8,2.42,1.14,3.57.78,2.65,1.58,5.29,2.28,8,.86,3.32,1.73,6.63,2.73,9.91.77,2.53,1.54,5.09,2.17,7.64s1.65,5.28,2.26,8,1.36,5.61,2.15,8.38c.69,2.42,1.54,4.8,2.35,7.32,11.41-14,25.38-24.5,41.08-33.74l-45.66-22.83c-1.78.79-3.41,1.54-4.92,2.33C117.61,120.37,115.37,119,113.86,120.89Zm-12,.71c2-2.51,4.77-2.6,7.4-3,2-.32,4.07-.26,6.14-.6a20.37,20.37,0,0,0,7.68-3,13.79,13.79,0,0,0,5.59-6,17.09,17.09,0,0,0,.63-10,26.06,26.06,0,0,0-2.56-7.83,5.37,5.37,0,0,1-.75-3.54c.64-2.74,1.06-5.6,2.59-7.85l-4.61-5.48c-7.78,2.15-15.53,2.92-22.61-2-.7.36-1.33.62-1.88,1-2.29,1.51-4.67,2.67-7.54,2.48-1.18-.08-2.37,0-3.56,0a35.18,35.18,0,0,1-3.56,0,26.72,26.72,0,0,1-3.63-.7c-.94-.23-1.85-.57-2.29-.7L74.3,79.23a21.81,21.81,0,0,0,1.2,4.24c1.47,3,1.22,5.73,0,8.73-1.65,4.22-3,8.56-2.52,13.22a11.59,11.59,0,0,1,0,1.31A36.75,36.75,0,0,0,76.16,112c3.82,4.52,9.08,6.25,14.72,6.51A22,22,0,0,1,101.81,121.6Zm26.87-59.72-.93-1.82-10.32,1.6-1.08,2.85,9.51-1c-.33,2.32,1.16,4.13.71,6.27-.31,1.45.39,2.64,1.06,3.86l2-2C129.28,68.24,129,64.68,128.68,61.88Zm-44.25-.27L74.82,60l-.88.9-1,10.27,2.3,2c1.46-1.25.32-3.16.67-4.81s.7-3.24,1-4.71c3.07-.79,5.91,1.54,8.92.3l-.68-1.14Zm9.42,68.12c1.66.42,2.29,1.82,3.38,2.64s2.38,1.7,3.62,2.58h.76l7.69-6a5.93,5.93,0,0,1-.56-1,13.93,13.93,0,0,1-.25-1.84l-7.69,5.64a27.32,27.32,0,0,0-7-5.56ZM60.5,108.2c3.27,1.81,6.1,3.31,8.88,4.92,1.47.86,2.63.62,3.84-.87l-8.93-5.5,2.32-4.55H63.32Zm81.26.08c-1-2.32-1.76-4.23-2.53-6.06h-2.59c-.46,1.81,1,2.93,1.38,4.54-2.59,2.2-6.17,3.13-8.58,5.7a2.52,2.52,0,0,0,3.53.74C135.86,111.62,138.73,110,141.76,108.28Z"/><ellipse cx="100.52" cy="171.7" rx="0.17" ry="0.5"/><ellipse cx="100.52" cy="174.55" rx="0.17" ry="0.5"/><path d="M75.09,134.56c-2.57,2.85-5.17,5.68-7.71,8.56-2.4,2.73-4.74,5.51-7.15,8.33l-4.3-3.26L70.67,131.4H72Z"/><path d="M92.43,29.4H110v5.52c-1.88.41-4-.09-6.27.28V52.11h-5V35.45l-1.1-1.1H92.43Z"/><path d="M143.71,81.38c0-3.17,0-3.17,1.84-7.31.69.31,1.39.59,2,.94s1.12.7,1.52,1c-.19,1.92-.39,3.83-.52,5.14l3.25,3.21,1.06-1c.32-3.3-.52-6.72,1.18-10.54l3.54-2.93,5,.93c4.81,4.06,4.9,9.44,2.26,13.41l-3.47-1.69.74-4.74c-.38-1.34-1-2.87-3.24-3.14l-1.68,2.17c-.47,2.79.87,6.6-.76,10a15.2,15.2,0,0,1-3,1.57,11.59,11.59,0,0,1-2.85.24C147,87.54,144.69,85.71,143.71,81.38Z"/><path d="M62.51,75.1,60.9,79.28H56.21L53.8,85.14,57.25,88l-1.7,4.5a217.66,217.66,0,0,1-18.36-15L38.61,73a4.83,4.83,0,0,1,1.82-.08c2.34,1,4.79.54,7.19.7,1.69.12,3.35.55,5,.67s3.69-.38,5.3.14A24.85,24.85,0,0,0,62.51,75.1Zm-9.18,3.48c-1.51,0-2.66.08-3.8,0s-2.31-.39-3.43-.59c-.1.23-.2.36-.17.43a64.4,64.4,0,0,0,5.33,4.53Z"/><path d="M137.91,154.93h-1a9.44,9.44,0,0,1-1.28-1.31,25.6,25.6,0,0,1-1.42-2.5l8.49-6.71-2.42-2.53-5.68,4.43-3.23-4.26,5.4-4-1.28-2.83-9.12,6.47-2.89-4.06c4.25-3.75,8.79-7.11,13.39-10.53l13.8,18.1Z"/><path d="M121.94,76.31,125.63,81c-.73,2.65-2.38,5.24-1.88,8.22a34.41,34.41,0,0,0,1.74,6.4,14.26,14.26,0,0,1,1.1,6c-.1,1.66,0,3.32,0,4.87a22.19,22.19,0,0,1-2.19,3.82,15.62,15.62,0,0,1-5.76,4.09,28.19,28.19,0,0,1-10.21,2.1c-2.51.13-5.22.43-7.2,2.81-1.39-2.35-4-2.49-6.14-2.74-2.95-.34-5.95-.52-9.19-1.12-1.45-.84-3.15-1.89-4.89-2.86-3.78-2.1-5-5.45-5.15-9.58-.16-3.86,1.14-7.35,2.27-10.86a10.23,10.23,0,0,0-.06-7.27c-.49-1.23-.8-2.53-1.22-3.89l4.09-4.51c4.4,2.16,9.45,1.19,14.34,1.42l6-3,6.06,3C111.92,77.65,117.07,78.65,121.94,76.31Zm-20.5,40.58c2.36-2.22,5.8-2.16,8.92-2.51a20,20,0,0,0,9.14-3,10.68,10.68,0,0,0,4.93-8.84,19.76,19.76,0,0,0-2-9.17c-1.75-3.88-.63-7.42,1.13-11-1.37-.94-1.52-3.25-3.58-3.86-.36.25-.7.69-1.09.73a65.84,65.84,0,0,1-8.62.67,15.91,15.91,0,0,1-9.15-3.36,12.84,12.84,0,0,1-8.59,3.33c-3.07.17-6.19-.44-9.28-.75-.24,0-.45-.34-.66-.51l-3.28,3.28A20.53,20.53,0,0,0,80,84.41a12.58,12.58,0,0,1,.24,9,34.57,34.57,0,0,0-1.83,6,12.94,12.94,0,0,0,0,5.47,10.78,10.78,0,0,0,5.44,6.92c2.4,1.43,4.92,2.68,7.88,2.51,2-.11,3.74.89,5.77.83C98.71,115.06,100,116.21,101.44,116.89Z"/><path d="M102.72,103l-1.81,4.08H96.5c2.39-7.15,4.73-14.17,7.08-21.22H108L114.21,107H110.1c-.46-1.2-1-2.52-1.55-4Zm5.28-3.1c-.7-1.67-1.51-3.14-1.45-4.88,0-.28-.44-.58-1-1.29l-2.09,6.17Z"/><path d="M95.05,107.06H90.29V85.86c1.44-.34,3,0,4.76-.21Z"/></g></svg>