<svg id="Layer_1" data-name="Layer 1" xmlns="http://www.w3.org/2000/svg" viewBox="0 0 200 200"><g id="b2mcnE"><path d="M118.29,13.2c4.47,0,8.95.09,13.43,0,7.8-.19,14.66,2.76,21.34,6.28a10.48,10.48,0,0,1,3.37,3.23c11.32,15.89,22,32.18,30.16,50a60.37,60.37,0,0,1,4.85,33.53c-1.43,11.08-3.94,21.86-9.91,31.35a95.39,95.39,0,0,1-12.8,16c-7.37,7.46-14.8,15.09-23.29,21.13-5.34,3.8-12.71,4.67-19.07,7.13-2.72,1-5.72,2.29-7.65,4.33-6.34,6.75-13.43,8.72-22.5,6.35-20.63-5.4-41.42-10.21-62.13-15.32-6.28-1.55-7.81-4.16-6-10.22.64-2.16.11-3.19-2.08-3.65a56.84,56.84,0,0,1-5.7-1.62c-8-2.62-12.49-9.14-11.56-17.2,2.2-18.94,3.77-38,7.1-56.74,3.24-18.24,8.36-36.14,12.68-54.18,1.75-7.3,6.31-11.25,13.74-12.88A280,280,0,0,1,94.63,14c7.88-.21,15.76-.71,23.64-1.09Zm21.76,7.16c-2.33-.2-4.68-.61-7-.58-13.95.16-28-.28-41.84.83-15.31,1.23-30.48,4-45.74,5.91C38.94,27.32,35.8,30.75,34,37a480.87,480.87,0,0,0-17.38,91c-.55,5.77-.53,6,5.05,7.12,18.31,3.68,36.63,7.43,55,10.64,12,2.1,24.23,3.31,36.35,5,3.28.44,4.82-.86,5.19-4.21,1.53-13.59,2.72-27.25,5-40.74,4.35-26.21,9.27-52.33,14.08-78.46C137.64,25.06,138.94,23,140.05,20.36Zm44.73,88.58-.54-.41c-3.18,2.69-6.26,5.52-9.56,8-16.84,12.88-33.89,25.44-53.35,34.27-1.26.58-2.32,2.69-2.55,4.23-.7,4.8-.8,9.69-1.42,14.51-.6,4.59-1.79,5.33-6.28,4.71-3.2-.43-6.4-.83-9.6-1.24a6.43,6.43,0,0,0,2.67.93c5.71.84,11.51,2.66,17.11,2.19,6-.52,12-2.78,17.77-5,10.43-4.08,16.28-11.65,15.81-23.33-.09-2.1.14-4.22,0-6.31-.41-4.82,1.59-8,5.48-10.95,7.45-5.59,14.49-11.73,21.61-17.74C183.1,111.8,183.83,110.25,184.78,108.94ZM36.24,140.26c-6-1.43-12.14-2.95-18.29-4.24-.67-.14-1.61,1-2.43,1.54l.7.83c4.61-1.6,9.62-.39,11.23,2.71,2.19,4.26.74,10.35-3.31,13.38,1.87.55,3.61,1.18,5.39,1.58,17.72,4,35.4,8.11,53.17,11.85,9,1.9,18.15,3.16,27.25,4.55,2,.3,5.17,1.49,5.64-1.66.88-5.9,1-11.91,1.39-17.64-12.24-1.67-23.85-3.09-35.39-4.95-3.61-.58-5.25.09-5.34,3.84-.08,3.13-1.76,4-4.76,3.35-8.77-1.79-17.57-3.38-26.36-5.08C36.74,148.69,36.74,148.67,36.24,140.26Zm119.61,17.05c12.63-8,26.71-30,27.38-42.39-7.23,5.58-15,11.36-22.51,17.55a11.54,11.54,0,0,0-3.93,6.7C156,145.24,156.1,151.42,155.85,157.31Zm-81.12-6.94c.65-3.29-1.84-3.51-4-3.91-9.41-1.72-18.83-3.43-28.25-5.07-1.59-.27-3.81-1.83-4.31,1.33-.4,2.5-.23,4.65,3.06,5.24,9.93,1.8,19.83,3.76,29.75,5.66C73.49,154.11,75.13,153.46,74.73,150.37Z"/><path d="M102.66,135c-8.35-1.12-16.32-2.14-24.26-3.25-16-2.25-32-4.58-48.07-6.8-6.69-.93-6.87-1.1-6.22-7.87A523.31,523.31,0,0,1,36.79,44.4c1-4,2.68-6.24,7-6.46,9.33-.47,18.64-1.43,28-1.79,15.39-.59,30.8-.84,46.2-1.27,2.9-.08,3.92.81,3.37,4-5.22,30.33-10.27,60.7-15.4,91C105.57,132.19,105.72,134.93,102.66,135ZM119.8,36.52c-3.34.16-6.28.33-9.21.44-21.56.86-43.11,1.68-64.67,2.58-5.92.24-6.23.58-7.65,6.34a550.88,550.88,0,0,0-12.74,73c-.34,3.15,1.29,3.76,3.84,4.12Q65,127.92,100.49,133c2.29.32,3.31-.25,3.64-2.72q2.13-16.11,4.61-32.17c2-12.6,4-25.2,6.23-37.76C116.33,52.59,118.08,44.92,119.8,36.52Z"/><path d="M55.11,132.73l3.9,3.08-1.62,1.25c-1.22-1.85-4.7,1.92-4.92-1.94C52.43,134.49,53.91,133.77,55.11,132.73Z"/><path d="M110.79,161.41c0,6.36-3.29,9.21-9.52,8.23a81.1,81.1,0,0,1-8.54-1.51,9,9,0,0,1-6.41-10.74c1.08-4.91,4.59-7.1,10.07-6.26,2.34.36,4.7.61,7,1.11C108.5,153.34,110.79,156.24,110.79,161.41Z"/><path d="M80.83,152.52c1.44,2.25,2.81,3.43,2.78,4.58s-1.38,2.39-2.15,3.58c-1.06-1.07-2.71-2-3-3.25C78.24,156.36,79.58,155,80.83,152.52Z"/><path d="M58.1,149.09c-.48.13-1.05.49-1.44.36-1.59-.56-3.12-1.27-4.67-1.92.34-.48.77-1.42,1-1.38,1.88.35,3.72.88,5.57,1.35Z"/></g></svg>