<svg id="Layer_1" data-name="Layer 1" xmlns="http://www.w3.org/2000/svg" viewBox="0 0 200 200"><g id="MM6nTC.tif"><path d="M9,56.23c.62-.13,1.25-.23,1.86-.41a1,1,0,0,0,.48-.51c.27-.61.49-1.23.78-2,.39.62.74,1.13,1,1.68a1,1,0,0,0,1,.6c.58,0,1.16,0,1.93.08a10.31,10.31,0,0,1-1,1.19,1.51,1.51,0,0,0-.42,1.9,13.15,13.15,0,0,1,.38,1.43,8.35,8.35,0,0,1-1.3-.52,1.61,1.61,0,0,0-2.13.2,10.36,10.36,0,0,1-1.14.74,13.29,13.29,0,0,1,.1-1.78,1.12,1.12,0,0,0-.53-1.3C9.69,57.3,9.36,57,9,56.69Zm1.26.54c1.07.51,1.21,1.39,1.13,2.46A1.85,1.85,0,0,1,14,59a2,2,0,0,1,.58-2.58A2.07,2.07,0,0,1,12.27,55,2,2,0,0,1,10.26,56.77Z"/><path d="M81.41,87.76c-2.13.43-2.83-.25-2.41-2.31a10.21,10.21,0,0,1,.71-2.17,18,18,0,0,1,1.23-2,92.38,92.38,0,0,1-6.7-11.65,75.58,75.58,0,0,1-6.13-15.77,34.26,34.26,0,0,1-.55-3.94,1.13,1.13,0,0,1,.22-.79c.13.27.28.53.39.8,1.85,4.77,3.6,9.58,5.56,14.3A84.81,84.81,0,0,0,81.16,78.5c1,1.47,1.89,2,3.69,1.66a18.79,18.79,0,0,1,6.73,0,3.16,3.16,0,0,1,2.74,2.25c.39,1.24.69,2.51,1,3.76.07.25.12.5.2.85a6,6,0,0,1,.91-1.12,9.61,9.61,0,0,1,2.32-1.53,1.69,1.69,0,0,1,2.37,1.09c.49,1.18.87,2.4,1.27,3.61s.77,2.29,1,3.45A20.12,20.12,0,0,0,108,101a34.8,34.8,0,0,0,9.24,8.11l.81.44a1.51,1.51,0,0,0,.26.07c.12-1.48.24-3,.33-4.42,0-.14-.14-.31-.26-.43a4.9,4.9,0,0,1-.83-5.88,3.48,3.48,0,0,0,.27-1.44,8.32,8.32,0,0,1,.83-3.94,17.13,17.13,0,0,1,2-3.25,3.21,3.21,0,0,0,.63-3.16c-1.78.31-3.06-.58-4.18-1.83a2.75,2.75,0,0,1-.66-2.56,6.49,6.49,0,0,1,1.87-3.38,11.16,11.16,0,0,1,1.76-1.47,17.21,17.21,0,0,0,5.53-5.76C131.47,62.82,139.39,55.51,148,49A110.33,110.33,0,0,1,181.2,31.6a20.69,20.69,0,0,1,3.21-.72,3,3,0,0,1,1.17.32c-.19.39-.28.92-.58,1.15-.89.68-1.88,1.23-2.81,1.86a2.32,2.32,0,0,0-.75.71c-5.75,10.27-11.5,20.54-16.67,31.12-1.23,2.52-2.59,5-2.92,7.87-.24,2-.38,4-.54,6-.07.89-.09,1.79-.14,2.68a6.62,6.62,0,0,1-1.25,3.53c.66,1.56,1.36,3,1.89,4.58a9.88,9.88,0,0,1,.35,2.56,1.36,1.36,0,0,1-.27.94c-.72.71-.66,1.61-.85,2.49a13.84,13.84,0,0,1-3.9,7,10.69,10.69,0,0,1-1.46.93,2,2,0,0,0-.54.57c-1.65,2.75-1.58,5.72-1,8.72.44,2.28,1,4.55,1.51,6.81a3.46,3.46,0,0,0,.95,1.59A43.31,43.31,0,0,0,173,131.65c1.88.61,2.29,1.13,2.49,3.16a31,31,0,0,1-.54,8.32,44,44,0,0,1-2.46,9,2,2,0,0,0-.09.36,1.34,1.34,0,0,1,1.51,1.51l.63-.11a1.24,1.24,0,0,1,1.63.87,4.94,4.94,0,0,1-2.39,6.88c-.29.16-.58.3-1,.51,1.15,1.08,2.18,2.19,3.35,3.12,2.29,1.81,4.67,3.5,7,5.29a4,4,0,0,1,1.26,1.55,6.57,6.57,0,0,1,.05,5c-.22.59-.43,1.19-.67,1.84l1.12.25a8,8,0,0,1,5.79,6.41,5.12,5.12,0,0,1-2.64,5.14,9.91,9.91,0,0,1-5.15,1.33,53.81,53.81,0,0,1-6.72-.48,7.81,7.81,0,0,0-4,.27,22.87,22.87,0,0,1-10,1,151.84,151.84,0,0,1-16.87-2.39c-3.88-.73-7.71-1.69-11.57-2.47-1.5-.3-3.05-.34-4.57-.56a9,9,0,0,1-5.05-2.39,7.11,7.11,0,0,1-.53-.56c-1.88-2.23-1.24-4.17,1.63-4.68,1.29-.23,2.62-.24,3.93-.35a.5.5,0,0,0-.09-.13c-4.26-2.94-6.64-7.23-8.47-11.88a68.48,68.48,0,0,1-3.63-14.64c-.84-5.31-1.69-10.61-2.46-15.93a11.11,11.11,0,0,0-3.7-6.78,55.94,55.94,0,0,0-10-7c-.93-.53-1.87-1.06-2.83-1.55a1.13,1.13,0,0,0-.83,0,7.62,7.62,0,0,1-4.74.3,3.83,3.83,0,0,1-2.64-2,18.58,18.58,0,0,1-1.88-5.9,37.68,37.68,0,0,1,.37-15.54c.09-.32.19-.64.29-1l.26-.8c-.56-.7-1-1.32-1.54-1.92a.6.6,0,0,0-.44-.19c-1.64.06-1.69-.17-1.91-1.87a10,10,0,0,1,0-1.1c-.32.15-.56.28-.8.38a2.22,2.22,0,0,1-2.38-.32A1.79,1.79,0,0,1,81,89.61C81.12,89,81.27,88.42,81.41,87.76Zm38.28,17.77c0,2.38-.15,4.69,0,7A76.87,76.87,0,0,0,124,132.09c2.64,7.53,6.16,14.57,11.46,20.6,4,4.58,8.77,8.12,14.74,9.82a32.15,32.15,0,0,0,13.44.87,16.87,16.87,0,0,0,4-1.25,3.55,3.55,0,0,0,2-2,5.34,5.34,0,0,0-.32-4.46c-1.62-3.22-3.31-6.41-5.1-9.54a107.15,107.15,0,0,1-8.35-17.5,68.25,68.25,0,0,1-3.44-15.06c-.35-3.18-.51-6.35,1.58-9.14l-.93-1-.43,1.44c-.19-.12-.23-.19-.24-.26a18.39,18.39,0,0,1,1.91-9.28,8.55,8.55,0,0,1,1.05-1.44c1.15.41,1.89-.25,2.81-.29a30.75,30.75,0,0,0-11.28-7.78c.54.61,1.13,1.17,1.67,1.77a7.88,7.88,0,0,1,2.28,3.93,18.28,18.28,0,0,1-1.09,10.31,6.62,6.62,0,0,1-4.49,4,11.65,11.65,0,0,1-5.25.19,3.24,3.24,0,0,0-2,.25,8,8,0,0,1-6.12.49,15.13,15.13,0,0,1-4.13-2.27,2.73,2.73,0,0,0-3.63-.23A7.2,7.2,0,0,1,119.69,105.53Zm20.44-.53a9,9,0,0,0,3.44-1.6c1.82-1.29,2.8-3.18,1.27-5.48a.81.81,0,0,1,0-1.1,4.71,4.71,0,0,0,.93-1.39c.8-2.16,1.54-4.34,2.27-6.52a1,1,0,0,0-.13-.84c-1.58-1.57-3-3.38-5.44-3.74-1.05-.16-2.08-.53-3.13-.69-3.36-.48-6.72-1-10.1-1.35-1.46-.18-3-.16-4.44-.2a1,1,0,0,0-.69.2A8.46,8.46,0,0,0,122,87.14a3.75,3.75,0,0,0,.13.74,8,8,0,0,1,1.78-3.94,2.46,2.46,0,0,1,3.38-.45c1.61.93,1.95,2.44,1.83,4.09-.1,1.25-.39,2.49-.61,3.77,1.57.88,2.3,1.94,1.94,3.06-.45-.56-.84-1.08-1.28-1.57a1.08,1.08,0,0,0-1.9.16,9.16,9.16,0,0,0-.56,1.65c-.17.54-.12,1.12.43,1.32a2.19,2.19,0,0,0,1.43,0,5.85,5.85,0,0,0,1.18-1q.67-.58.81.3c0,.37,0,.75.06,1,2.14.26,4.2.47,6.24.78a10.57,10.57,0,0,1,4.39,1.49,2,2,0,0,1,.94,2.36A9,9,0,0,1,140.13,105ZM134,106.29c.94-.18,1.73-.28,2.49-.49a5.49,5.49,0,0,0,4.26-4c.61-2.37.45-2.52-1.71-3.2a2.5,2.5,0,0,0-.45-.12c-2.81-.39-5.62-.79-8.43-1.15a1.23,1.23,0,0,0-.74.29c-1.52,1.05-2.8.64-3.44-1.1a1.19,1.19,0,0,0-.66-.71,8.68,8.68,0,0,0-2.85-.27c-2.41.4-4.65,3.28-4.65,5.72s1.42,3.6,3.72,3a19.74,19.74,0,0,0,3.69-1.44,1.37,1.37,0,0,1,1.41,0c1.68.93,3.36,1.86,5.08,2.69A13.73,13.73,0,0,0,134,106.29ZM92.25,85.56a2.55,2.55,0,0,1-2.82,1.1A4.38,4.38,0,0,1,86.2,84a1.26,1.26,0,0,0-.49-.63c-.4-.2-1.37.32-1.67.86s-.62,1.3,0,1.76a23.1,23.1,0,0,0,3.78,2.42,2.68,2.68,0,0,1,1.47,1.27,6.91,6.91,0,0,0,3.52,3.6,6.21,6.21,0,0,1,2.66,2.22c.41.56.84,1.1,1.27,1.64l1.41,1.75a15.33,15.33,0,0,0,.43-1.94,3.33,3.33,0,0,0-.89-3C96,91.64,94.21,89.36,94,86.36c0-.59-.13-1.17-.22-1.75-.34-2.24-1.37-3.45-3.25-3.71a16.55,16.55,0,0,0-3-.16c-1.33.06-2.66.26-4.11.41.53.71.89,1.09,1.75.94a3,3,0,0,1,1.86.63A5.69,5.69,0,0,1,88.23,84a3.31,3.31,0,0,0,2.11,1.28C91,85.4,91.59,85.47,92.25,85.56ZM151.18,48.5a18.27,18.27,0,0,0,1.11,2.37,2.85,2.85,0,0,1,0,3.39,20.2,20.2,0,0,0-1.1,2.35c1.15-.22,2.09-.33,3-.58a1.4,1.4,0,0,1,1.7.58c.63.82,1.35,1.56,2.15,2.48.19-1.38.39-2.54.49-3.7a1.32,1.32,0,0,1,.78-1.19c1-.49,1.9-1.05,3-1.66-1.09-.61-2-1.15-3-1.64a1.28,1.28,0,0,1-.8-1.17c-.11-1.18-.31-2.36-.49-3.74-.82.95-1.54,1.7-2.17,2.52a1.35,1.35,0,0,1-1.63.58C153.3,48.84,152.33,48.71,151.18,48.5Zm-11.4,13.78a8.21,8.21,0,0,0-4,1.8,5.67,5.67,0,0,0-2.17,4.7,8.64,8.64,0,0,0,6.54,7.54s.06-.06.16-.16C137.21,71.71,137,67.07,139.78,62.28Zm-56,20.2c-.13-.17-.2-.3-.3-.41a36,36,0,0,1-4.87-6.88A140.93,140.93,0,0,1,70,56.06c-.63-1.64-1.23-3.29-1.84-4.93l-.21.06c.32,1.43.56,2.89,1,4.3A90.84,90.84,0,0,0,76,72.19,66.31,66.31,0,0,0,82,82c.3.4.68.74,1.06,1.15ZM145,76v.06c.91-.11,1.82-.24,2.74-.33.46,0,.59-.29.62-.7a5.16,5.16,0,0,0-2.18-4.27.48.48,0,0,0-.35-.1,21.75,21.75,0,0,0-2.92.52,1.76,1.76,0,0,0-.91,1A2.64,2.64,0,0,0,144.64,76Zm13.39,18.82c-.91.22-1.84.4-2.73.69a1.28,1.28,0,0,0-.73.73c-.51,1.55-1,3.12-1.42,4.68a2.21,2.21,0,0,0,1.49,2.39,1.19,1.19,0,0,0,.9-.24,14.9,14.9,0,0,0,3.94-6.47C160.22,95.34,159.8,94.9,158.41,94.86Zm-33.35-8.2a2.3,2.3,0,0,1,.39,3c-.64,1-1.46,1.24-2.88.78.11.61.19,1.19.35,1.75,0,.19.32.46.49.45a3.44,3.44,0,0,1,2.56.87l1-1.51c.3-.46.63-.9.88-1.38a2,2,0,0,0-.66-3A3.26,3.26,0,0,0,125.06,86.66Zm44.9-48a2.81,2.81,0,0,1,.89,3.86,6.36,6.36,0,0,1,2.1-.76,5.58,5.58,0,0,1,1.79.9,5.73,5.73,0,0,1,0-2c.26-.56.94-.93,1.65-1.57-1.93.14-2.74-.82-3.09-2.45A2.79,2.79,0,0,1,170,38.61ZM122.28,92.67l-.37-2.61-.21,0c-1.41,2.14-3.23,4.09-3.12,7,1.87-2.51,4.18-3.37,7.09-2,.11-.92.11-1-.58-1.08-1-.13-2.06-.14-3.1-.19-.37,0-.73,0-1.1,0l-.09-.24ZM81.36,82.15c-.52,1-1,1.86-1.45,2.78a1.57,1.57,0,0,0,.2,1.8c.51.56,1.18.37,1.81.28.46-.06.65-.3.66-.82A20.31,20.31,0,0,1,82.86,84a.75.75,0,0,0-.11-.52C82.37,83.08,82,82.71,81.36,82.15ZM175.2,155l-.29-.09a1.45,1.45,0,0,0-.39.21c-.88,1-1.74,2-2.61,3a.52.52,0,0,0-.09.28,11.18,11.18,0,0,0-.27,1.8,1.46,1.46,0,0,0,.44.87c0,.06.55-.11.66-.29.76-1.23,1.54-2.46,2.18-3.76A7.45,7.45,0,0,0,175.2,155ZM157.82,61.54c0-1.27-.69-1.69-1.62-1.15a6.77,6.77,0,0,0-3.28,4.5,1.34,1.34,0,0,0,.35,1.14,1.4,1.4,0,0,0,1.2,0,6.49,6.49,0,0,0,2.84-3.1A8.53,8.53,0,0,0,157.82,61.54Zm-15.65-.07c-.06,1.23.66,1.71,1.58,1.2a6.72,6.72,0,0,0,3.37-4.62,1,1,0,0,0-1.46-1.11A6.89,6.89,0,0,0,142.17,61.47Zm15.31,9c0,1,.54,1.44,1.31,1.08a6.49,6.49,0,0,0,1.7-1.25A6,6,0,0,0,162.3,67a1.47,1.47,0,0,0-.35-1.21,1.25,1.25,0,0,0-1.17.05,10.11,10.11,0,0,0-1.93,1.71A5.28,5.28,0,0,0,157.48,70.42Zm-8.67,1.06.08.24c3.61-.45,7.07.6,10.6,1.08a16.06,16.06,0,0,0-8.93-1.91A8,8,0,0,0,148.81,71.48Zm10.59,4.08a13.74,13.74,0,0,0-5.24-2.22,24.29,24.29,0,0,0-4-.34,3.54,3.54,0,0,0-1.14.4C152.67,73.45,156,74.74,159.4,75.56Zm-76.52,12a14.22,14.22,0,0,0-.93,2,1.5,1.5,0,0,0,.68,1.66,1.26,1.26,0,0,0,1.56-.2c.32-.23.62-.49.91-.72Zm66.33-13.23v.33a12.46,12.46,0,0,1,5,1.51c1.6.78,3.19,1.58,4.79,2.37l.09-.17a17.66,17.66,0,0,0-7.77-4A10.91,10.91,0,0,0,149.21,74.36Zm-23.77,5.81.2,0a5.09,5.09,0,0,0,2.91-3.52c0-.7-.47-1.05-1.18-.84a5.28,5.28,0,0,0-2.75,3.4A.81.81,0,0,0,125.44,80.17ZM131.52,76c-1.26,0-3.36,2.57-3.11,3.83a.71.71,0,0,0,.9.61c1.21-.17,3.05-2.44,3-3.67C132.25,76.33,132,76.05,131.52,76Zm3.92,4c0,1.12.56,1.54,1.32,1a4.79,4.79,0,0,0,2.23-3.5c.13-.87-.57-1.31-1.32-.84A5,5,0,0,0,135.44,80Zm7.64,2.25c1.37,0,3.41-2.52,3.19-3.78-.1-.56-.47-.68-1-.61-1.16.18-2.94,2.38-2.91,3.57C142.41,82,142.65,82.25,143.08,82.26Zm12.5-13.35c-2.75-1-7.27-.3-8.09,1.25ZM151,85.18c-.05.78.38,1.15,1.08.83a4.68,4.68,0,0,0,2.67-3.26c.17-.67-.34-1.1-1-.94A5,5,0,0,0,151,85.18Zm13-40.32c1.23,0,3.13-2.1,2.95-3.16a.7.7,0,0,0-.88-.64,4.17,4.17,0,0,0-2.65,3C163.44,44.57,163.66,44.85,164,44.86Zm5.6-1.83a.71.71,0,0,0-1-.75,4.42,4.42,0,0,0-2.57,2.93.74.74,0,0,0,.9.84A4.16,4.16,0,0,0,169.62,43ZM165.7,58a1.31,1.31,0,1,0-2.62,0,1.41,1.41,0,0,0,1.27,1.39A1.44,1.44,0,0,0,165.7,58ZM127.08,86.14a1.77,1.77,0,0,0-.39-1.9,1.88,1.88,0,0,0-1.49-.17,2.82,2.82,0,0,0-1.85,2.15A3.74,3.74,0,0,1,127.08,86.14Zm39.11-37.21a1.31,1.31,0,0,0-1.39-1.15,1.19,1.19,0,1,0,.07,2.35A1.27,1.27,0,0,0,166.19,48.93Zm5.38,107.92.3.09c.39-.84.8-1.67,1.15-2.52a1,1,0,0,0-.09-.73.91.91,0,0,0-.55-.43c-.15,0-.38.19-.5.35a4,4,0,0,0-.59,1,2.15,2.15,0,0,0-.13,1A7,7,0,0,0,171.57,156.85Zm-21.74-93a3.89,3.89,0,0,0,.41-.37c1.24-1.39,2.48-2.78,3.69-4.19.14-.17.13-.47.2-.71-.24.09-.54.11-.69.27-1,1.07-1.94,2.16-2.91,3.25-.32.36-.63.73-.92,1.12a.53.53,0,0,0-.08.41C149.54,63.69,149.71,63.74,149.83,63.82Zm.87-5.7c-.09-.11-.19-.29-.23-.28a1.21,1.21,0,0,0-.57.27q-1.82,2-3.58,4.09c-.15.17-.15.47-.23.71.25-.1.58-.13.74-.31,1.2-1.32,2.37-2.67,3.55-4C150.49,58.45,150.58,58.29,150.7,58.12Zm5.39,10.35.38.21a5.52,5.52,0,0,1,.26-.55c1.07-1.58,2.16-3.15,3.21-4.75.11-.15,0-.43.05-.65-.18.1-.43.16-.54.31-.54.74-1,1.5-1.56,2.26s-1.16,1.68-1.71,2.53A1.66,1.66,0,0,0,156.09,68.47ZM138.8,61.88a2.5,2.5,0,0,0,.34-.23c1.23-1.32,2.46-2.65,3.67-4,.12-.12.07-.39.1-.59-.2,0-.46,0-.59.16-.66.66-1.3,1.37-1.93,2.06s-1.14,1.24-1.7,1.88a.86.86,0,0,0-.16.47C138.53,61.71,138.7,61.79,138.8,61.88Zm39.81-26a1.13,1.13,0,0,0,1.09-1.22c0-.55-.19-1-.79-1.14a1.24,1.24,0,0,0-1.32,1.08A1.14,1.14,0,0,0,178.61,35.89ZM86.71,93.64a17.54,17.54,0,0,1,0-1.78c.06-.7-.19-1.06-.89-1.1C85,92.14,85.4,93.63,86.71,93.64ZM142.38,77.8c-.07-.1-.16-.29-.19-.28a1,1,0,0,0-.56.25c-.81,1-1.6,2.12-2.37,3.2a2.05,2.05,0,0,0-.15.67c.23-.09.54-.11.67-.28.82-1,1.6-2.13,2.39-3.2C142.24,78.06,142.3,77.94,142.38,77.8Zm-16.87-1.33c-.09-.12-.17-.29-.23-.29a1,1,0,0,0-.53.2c-1,.89-1.89,1.8-2.81,2.73-.15.15-.17.44-.25.67.24-.06.55,0,.71-.2,1-.89,1.88-1.81,2.81-2.73A3.37,3.37,0,0,0,125.51,76.47Zm23.79,2.82c-.09-.1-.21-.3-.27-.29a.88.88,0,0,0-.47.29c-.72,1.14-1.42,2.3-2.1,3.47-.1.15,0,.4,0,.6.19-.1.47-.15.57-.32.71-1.08,1.39-2.2,2.07-3.3C149.14,79.61,149.2,79.47,149.3,79.29Zm-.42,5.25.26.12a3,3,0,0,0,.37-.43c.69-1.17,1.37-2.34,2-3.52.09-.17,0-.44,0-.66-.19.13-.46.2-.56.38-.66,1.12-1.3,2.25-1.93,3.39A3.3,3.3,0,0,0,148.88,84.54Zm-16.56-4c.2-.12.29-.14.32-.2.83-1.2,1.65-2.4,2.45-3.62a.41.41,0,0,0-.08-.38c-.14,0-.39,0-.45.08-.81,1.15-1.61,2.3-2.38,3.48C132.11,80,132.26,80.28,132.32,80.53Zm28-36.49a1,1,0,0,0,.19-.08c1.15-.8,2.31-1.59,3.45-2.42.11-.08.11-.33.16-.5-.18,0-.41-.09-.54,0q-1,.6-1.92,1.26c-.5.35-1,.72-1.46,1.11a.65.65,0,0,0-.13.46C160.08,43.93,160.25,44,160.32,44Zm8.16,3.61a1.09,1.09,0,0,0,.26-.19c.91-1.1,1.82-2.2,2.71-3.31.07-.09,0-.31,0-.46-.16,0-.38,0-.47.11q-1.38,1.64-2.73,3.3a.57.57,0,0,0,0,.41C168.24,47.57,168.38,47.6,168.48,47.65Zm3-1.25c-.1.06-.18.08-.22.14-.89,1.15-1.78,2.31-2.65,3.48-.06.09,0,.28,0,.42.15,0,.36,0,.45-.1a9.28,9.28,0,0,0,.67-.85c.6-.79,1.21-1.58,1.8-2.39a1.1,1.1,0,0,0,.14-.55S171.55,46.45,171.48,46.4ZM154.53,88.17A51.94,51.94,0,0,0,157,83.56C156.18,83.71,154.19,87.32,154.53,88.17Zm-29.35-.25c-.39-.24-.61-.5-.8-.47s-.37.3-.56.47c.18.18.35.47.55.5S124.79,88.18,125.18,87.92Zm24.58,3.67.2-.09-.61-1.66-.17.07Z"/><path d="M63,33.23l-2.36.36c-.59-3.91-1.18-7.8-1.79-11.79,1.14-.16,2.21-.35,3.3-.46.15,0,.42.29.51.51,1,2.48,2,5,3,7.48a1.59,1.59,0,0,0,.45.67c.09-1.11.17-2.23.25-3.34.12-1.81.24-3.62.34-5.44,0-.4.12-.65.59-.7,1-.12,2-.29,3.09-.46.61,4,1.2,7.85,1.79,11.79l-2.37.35-1.33-8.66h-.15c-.09,1.18-.19,2.37-.28,3.55-.12,1.63-.24,3.27-.33,4.9,0,.41-.19.56-.58.65-1.84.39-1.84.4-2.52-1.31l-2.4-6.06a2.36,2.36,0,0,0-.47-.78Z"/><path d="M33.31,57,32.39,59l-4.88-2.18c-1.12-.5-1.66-.38-2.07.45a1.56,1.56,0,0,0,.88,2.26c1.58.74,3.17,1.43,4.84,2.18l-.89,2.06-8.1-3.61.91-2,1,.36A3.15,3.15,0,0,1,24,55.76a2.92,2.92,0,0,1,2.16-1.71,3.16,3.16,0,0,1,.06-3.19,2.32,2.32,0,0,1,3.05-1.2c2,.82,4,1.75,6.13,2.67l-.92,2.06-3.3-1.46-1.89-.85a1.17,1.17,0,0,0-1.63.34,1.45,1.45,0,0,0,.18,1.95,4.4,4.4,0,0,0,1.05.62Z"/><path d="M81.87,33.4c.69.1,1.28.16,1.85.28a.79.79,0,0,1,.52.36,1.76,1.76,0,0,0,2,1,1.7,1.7,0,0,0,1.51-1.51c.07-.32.1-.64.16-1a7.93,7.93,0,0,1-1.62.7,3.13,3.13,0,0,1-3.64-2.52A6.17,6.17,0,0,1,83.32,26c1.47-2.56,3.91-2.68,5.63-.21l.28-1.11,2,.29c-.12.83-.23,1.63-.36,2.42q-.51,3.18-1,6.35a3,3,0,0,1-3.24,2.82,6,6,0,0,1-3.52-.88A2.43,2.43,0,0,1,81.87,33.4Zm6.82-4.86-.15-.09a9.15,9.15,0,0,0-.15-1.05A1.7,1.7,0,0,0,86.94,26a1.64,1.64,0,0,0-1.66,1,3.64,3.64,0,0,0-.38,3.09A2.34,2.34,0,0,0,86,31.29a1.36,1.36,0,0,0,1.68-.58A16.88,16.88,0,0,0,88.69,28.54Z"/><path d="M45.12,40.49a12.79,12.79,0,0,1-.25,1.35,3.1,3.1,0,0,1-3.17,1.92c-2.46-.2-5.08-3.57-4.65-6,.32-1.87,1.47-2.62,3.77-2.38l-.66-.94,1.63-1.39a4.4,4.4,0,0,0,.34.53l5.16,6.19c1.39,1.68,1.39,3.11-.1,4.71-1,1.08-2.15,2-3.77,1.89a8.3,8.3,0,0,1-1.63-.52c.71-.6,1.21-1,1.72-1.44a.58.58,0,0,1,.41-.08,1.91,1.91,0,0,0,2.14-.91,1.79,1.79,0,0,0-.34-2.25Zm-1.35-.68a3.61,3.61,0,0,0-2.66-3.11,1.51,1.51,0,0,0-1.86,1.78,4.07,4.07,0,0,0,2.42,3A1.57,1.57,0,0,0,43.77,39.81Z"/><path d="M109,27.21l2,.95-2.79,6c1.23-.56,2.27-1,3.28-1.52a1.5,1.5,0,0,1,1.63,0c.41.25.87.42,1.48.72l-2.91,1.22c-1.22.51-1.2.51-1.06,1.81s.26,2.85.38,4.28c0,.19,0,.39,0,.68-.73-.33-1.38-.61-2-1a.89.89,0,0,1-.31-.62c-.1-1.26-.18-2.53-.26-3.83-1.86.17-1.7,2-2.59,3l-2-.91Z"/><path d="M41.12,45.06A17.67,17.67,0,0,1,39.6,47c-.19.18-.67.06-1.1.08a8.5,8.5,0,0,1,0,1.23,2.84,2.84,0,0,1-2,2.47,2.43,2.43,0,0,1-2.68-.88,2.3,2.3,0,0,1-.37-2.71c.33-.72.72-1.41,1.07-2.12.25-.5.46-1-.14-1.43s-1,0-1.31.42c-.78.85-.83,1.24-.29,2.2l-1.2,1.55a2.58,2.58,0,0,1-1.1-3.13,5.7,5.7,0,0,1,2.37-3,2.28,2.28,0,0,1,2.73.07c.81.57,1.57,1.23,2.39,1.8S39.59,45.21,41.12,45.06ZM36,44.93c-.32.66-.66,1.32-1,2a1,1,0,0,0,.4,1.39A1.06,1.06,0,0,0,36.82,48C37.73,46.91,37.38,45.66,36,44.93Z"/><path d="M75.65,26.19h-2a2.5,2.5,0,0,1,1.57-2.64,5.52,5.52,0,0,1,4.33.14,2.16,2.16,0,0,1,1.34,2.07c0,1.1,0,2.2-.06,3.3s-.31,2.15.5,3.18a18.53,18.53,0,0,1-2.39,0c-.23,0-.4-.49-.64-.8l-.5.39a3.11,3.11,0,0,1-2.53.62,2.33,2.33,0,0,1-2.06-2.07c-.15-1.47.36-2.47,1.61-2.87A14.08,14.08,0,0,1,77.17,27c1.14-.17,1.55-.45,1.49-1.07s-.6-.82-1.69-.8A1.25,1.25,0,0,0,75.65,26.19Zm2.9,1.86c-.83.17-1.61.3-2.37.49a.81.81,0,0,0-.68,1,1.53,1.53,0,0,0,.78.89C77.69,30.94,78.74,29.85,78.55,28.05Z"/><path d="M48.78,34.79c.46,1.13,1,1.56,1.95,1.48a2,2,0,0,0,1.78-1.65,1.11,1.11,0,0,1,.42-.54c.46-.27,1-.49,1.6-.82a9.4,9.4,0,0,1-.19,1.67A4.3,4.3,0,0,1,50.61,38a3.66,3.66,0,0,1-3.76-2,5.46,5.46,0,0,1-1-3.92,3.8,3.8,0,0,1,2.85-3,3.53,3.53,0,0,1,3.82.89,17.86,17.86,0,0,1,1.55,2.08Zm-.65-1.35,3.07-1.57c-.78-1.19-1.68-1.48-2.6-.95S47.57,32.35,48.13,33.44Z"/><path d="M104,34.68a3.48,3.48,0,0,1-2.59,2.17,4,4,0,0,1-4.77-4.71A8.64,8.64,0,0,1,98.09,29a3.39,3.39,0,0,1,4-1.16,3.51,3.51,0,0,1,2.87,3,8.74,8.74,0,0,1-.06,1.59,15.3,15.3,0,0,1-1.67-.59.89.89,0,0,1-.37-.63,1.55,1.55,0,0,0-1.28-1.52,1.58,1.58,0,0,0-1.8.69,4.6,4.6,0,0,0-1,2.78,1.68,1.68,0,0,0,1.11,1.68,1.5,1.5,0,0,0,1.84-.51.86.86,0,0,1,.7-.17A13.63,13.63,0,0,1,104,34.68Z"/><path d="M30.16,65.43l-.62,2.33L18,64.68l.61-2.33Z"/><path d="M94,25.7l2.18.56c-.72,2.81-1.44,5.59-2.18,8.49l-2.18-.56Z"/><path d="M48.14,18.37c-.3-1.91-1-3.24-3.17-3.23l.1-.22c.51-.34,1-.71,1.54-1a1,1,0,0,0,.56-1c0-.6,0-1.21.08-2,.58.46,1.07.81,1.5,1.22a1,1,0,0,0,1.18.22c.55-.2,1.12-.34,1.84-.56A7.94,7.94,0,0,1,51.33,13a1.77,1.77,0,0,0,.27,2.34,7.79,7.79,0,0,1,.7,1,8,8,0,0,1-1.56,0,1.38,1.38,0,0,0-1.63.76C48.86,17.51,48.53,17.86,48.14,18.37Zm2.4-5.43a2,2,0,0,1-2.6-.49,2,2,0,0,1-1.3,2.35,2,2,0,0,1,1.83,1.94,2.08,2.08,0,0,1,2.41-1.17A2,2,0,0,1,50.54,12.94Z"/><path d="M36.13,85.2c.74-1.88,0-3.14-1.85-4a14.73,14.73,0,0,1,1.82-.45,1.28,1.28,0,0,0,1.2-1.06,12.25,12.25,0,0,1,.59-1.53c.51.76.83,1.66,1.46,2a6.75,6.75,0,0,0,2.51.3,17.48,17.48,0,0,1-1.17,1.38,1.14,1.14,0,0,0-.29,1.37c.18.52.28,1.07.46,1.75-.67-.28-1.21-.48-1.73-.73a1.07,1.07,0,0,0-1.27.11,16.94,16.94,0,0,1-1.52,1Zm3.64-1.53c-.66-1.08-.1-1.84.55-2.63A2,2,0,0,1,38,79.69c0,1.3-1,1.57-2,1.85,1.1.46,1.22,1.31,1,2.51A2,2,0,0,1,39.77,83.67Z"/><path d="M70.85,45.61a2.8,2.8,0,0,0,.93-4.22l.18-.07A15.53,15.53,0,0,1,73.6,42a1.09,1.09,0,0,0,1.32-.14c.45-.35,1-.63,1.57-1-.06.75-.08,1.36-.17,1.95a1,1,0,0,0,.5,1.09,11.36,11.36,0,0,1,1.44,1.25A3,3,0,0,0,75,48.19c-.6-.86-.94-1.77-1.59-2.16A5.84,5.84,0,0,0,71,45.78Zm4.9-3.42a4.58,4.58,0,0,1-1.42.75A3.71,3.71,0,0,1,73,42.52,4.16,4.16,0,0,1,73.21,44c-.09.39-.5.72-.88,1.24a2,2,0,0,1,2.39,1.28,1.9,1.9,0,0,1,2-1.77A1.9,1.9,0,0,1,75.75,42.19Z"/><path d="M51.84,59.5a1.79,1.79,0,0,1,.19-.41,2.77,2.77,0,0,0,.15-3.83,2.19,2.19,0,0,1-.16-.39c.67.14,1.25.26,1.83.41A1.1,1.1,0,0,0,55.08,55c.38-.44.84-.81,1.38-1.32.07.67.17,1.21.18,1.75a1.21,1.21,0,0,0,.79,1.25,17.87,17.87,0,0,1,1.6.87c-.66.3-1.18.58-1.74.77a1.12,1.12,0,0,0-.81,1c-.07.56-.21,1.1-.34,1.8-.47-.51-.89-.93-1.26-1.39a1.05,1.05,0,0,0-1.18-.46A17.17,17.17,0,0,1,51.84,59.5Zm3.87,0a1.92,1.92,0,0,1,1.65-2.11,2,2,0,0,1-1.48-2.25,2.09,2.09,0,0,1-2.59.77c.79.93.48,1.77-.26,2.78A2,2,0,0,1,55.71,59.55Z"/><path d="M32.5,27.22c-.48.56-.85,1.05-1.27,1.47A1,1,0,0,0,31,29.85c.2.55.31,1.13.51,1.9-.63-.26-1.14-.43-1.61-.68a1.25,1.25,0,0,0-1.53.12,8,8,0,0,1-1.52.92c.63-1.91,0-3.27-1.95-4.18.9-.22,1.49-.38,2.08-.5a1,1,0,0,0,.85-.73c.17-.58.43-1.13.71-1.84a10.13,10.13,0,0,1,.85,1.37,1.4,1.4,0,0,0,1.5.9C31.35,27.12,31.85,27.18,32.5,27.22Zm-4.82,3.56a2,2,0,0,1,2.68-.33,2.07,2.07,0,0,1,.6-2.63c-1.25.35-1.8-.41-2.37-1.51a1.94,1.94,0,0,1-2,2A1.91,1.91,0,0,1,27.68,30.78Z"/><path d="M123.34,43c.41.67.76,1.18,1,1.72a.94.94,0,0,0,1,.56c.6,0,1.2,0,1.8,0l0,.24c-.39.46-.76,1-1.18,1.39a.94.94,0,0,0-.24,1.09c.19.58.31,1.18.5,1.89a6.67,6.67,0,0,1-1.24-.49,1.71,1.71,0,0,0-2.27.22,5,5,0,0,1-1.13.66c.58-1.88.08-3.26-1.8-4l.14-.18c.59-.15,1.18-.33,1.78-.44a1,1,0,0,0,.85-.74C122.8,44.31,123.05,43.76,123.34,43Zm0,1.64c-.07,1.23-.82,1.68-2.13,1.74,1.14.62,1.63,1.35,1.26,2.55a1.94,1.94,0,0,1,2.67-.29,2,2,0,0,1,.62-2.55A3.11,3.11,0,0,1,123.38,44.67Z"/><path d="M79.51,60.32c.06-.69.08-1.27.16-1.84a1.08,1.08,0,0,0-.49-1.17c-.48-.33-.91-.73-1.49-1.2a18.46,18.46,0,0,1,1.82-.45,1.1,1.1,0,0,0,1-.89c.16-.53.4-1,.68-1.73.37.6.71,1.08,1,1.61a1.1,1.1,0,0,0,1.15.67c.55,0,1.11,0,1.86.09-.49.58-.86,1-1.26,1.47a1,1,0,0,0-.28,1.17,18.34,18.34,0,0,1,.48,1.85,2.39,2.39,0,0,1-.56-.19,2.52,2.52,0,0,0-3.48.3A2.59,2.59,0,0,1,79.51,60.32Zm-.24-3.77c1.19.42,1.27,1.32,1.12,2.42.81-.95,1.69-.79,2.66-.31a1.91,1.91,0,0,1,.56-2.57,2,2,0,0,1-2.25-1.43C80.69,56,80.69,56,79.27,56.55Z"/><path d="M61.48,48.16c-.7-.28-1.28-.47-1.81-.74a1,1,0,0,0-1.12.1c-.49.36-1,.66-1.66,1.07a15.2,15.2,0,0,1,.13-1.9,1,1,0,0,0-.5-1.16c-.47-.34-.9-.73-1.46-1.19a7.31,7.31,0,0,1,1.11-.27,2,2,0,0,0,2-1.75,6.16,6.16,0,0,1,.41-1c.37.6.72,1.09,1,1.62a1.08,1.08,0,0,0,1.09.65c.58,0,1.16.07,1.89.12-.45.53-.8,1-1.22,1.44A1.09,1.09,0,0,0,61,46.34C61.18,46.88,61.3,47.45,61.48,48.16Zm-3.72-1a2.07,2.07,0,0,1,2.66-.25A2,2,0,0,1,61,44.27c-1.24.29-1.85-.35-2.36-1.56-.2,1.32-.82,1.91-2,2A2.08,2.08,0,0,1,57.76,47.14Z"/><path d="M95.05,16.87a16.91,16.91,0,0,0-1.83-.73,1.76,1.76,0,0,0-1.11.11,16.59,16.59,0,0,0-1.68,1c.06-.73.08-1.31.16-1.87a1.08,1.08,0,0,0-.49-1.18A18.14,18.14,0,0,1,88.62,13c.71-.17,1.29-.34,1.87-.45a1,1,0,0,0,.91-.79c.17-.58.43-1.14.7-1.83.38.62.72,1.12,1,1.65a1.08,1.08,0,0,0,1.1.65c.57,0,1.15,0,1.9.08-.51.59-.88,1.07-1.3,1.51a1,1,0,0,0-.26,1.1C94.74,15.52,94.86,16.12,95.05,16.87Zm-4.8-3.46a2,2,0,0,1,1,2.46A2.15,2.15,0,0,1,94,15.59c-.72-1.08-.17-1.84.49-2.64-1.22.28-1.81-.4-2.3-1.34A1.94,1.94,0,0,1,90.25,13.41Z"/><path d="M95.71,49.61a5.94,5.94,0,0,1,.13.8A2.31,2.31,0,0,0,97.68,53a5.54,5.54,0,0,1,.76.39c-.63.31-1.15.62-1.71.84a1.1,1.1,0,0,0-.74,1c0,.57-.16,1.14-.28,2-.56-.61-1-1-1.36-1.51a1,1,0,0,0-1.15-.35c-.57.13-1.15.2-1.89.33.35-.67.59-1.22.91-1.72a1,1,0,0,0,0-1.2c-.31-.51-.56-1.06-.9-1.71.75.12,1.36.17,1.94.32a1,1,0,0,0,1.07-.33C94.72,50.59,95.16,50.17,95.71,49.61ZM97,53.34a2,2,0,0,1-1.81-2.14,2,2,0,0,1-2.54.83,1.94,1.94,0,0,1,0,2.61,3.36,3.36,0,0,1,2.68.89C95.07,54.27,95.81,53.75,97,53.34Z"/><path d="M96.5,25.12l-2.18-.56.5-1.9,2.15.53Z"/><path d="M132.63,95.58l1.17-.68a9.83,9.83,0,0,1-.21-6.16,7.55,7.55,0,0,1,2.14-3.57A4.45,4.45,0,0,1,143,87c1,3,.17,5.57-1.78,7.9-.17.22-.36.42-.53.6l1.06,1.33-.1.12a39.11,39.11,0,0,0-4.46-1.08,36.49,36.49,0,0,0-4.56,0Zm5.15-8.26-.16.19a2.4,2.4,0,0,1,.94,2.31,3.09,3.09,0,0,1-2.28,2.69,2.09,2.09,0,0,1-2.19-1.05,13.77,13.77,0,0,0,.36,2.45c.15.6.52.81,1.21.68a6.2,6.2,0,0,1,3.91.35.76.76,0,0,0,.73-.16,17.08,17.08,0,0,0,1.41-2.45c.77-1.76.73-1.78-.73-3a7.88,7.88,0,0,0-.95-.78C139.3,88.11,138.54,87.73,137.78,87.32Zm2.46-.07c.42-1.49.19-2.12-.78-2.34a3.76,3.76,0,0,0-3.78,1.72A5.93,5.93,0,0,1,140.24,87.25Zm-2.75,1.83c-.42-.34-.71-.73-.9-.69a1.06,1.06,0,0,0-.66.71c0,.17.38.59.63.62S137.06,89.39,137.49,89.08Zm-1.4-1.78c-1.16,0-1.24,0-1.41,1Z"/><path d="M157.09,95.24l1.9.63c-.51.54-.9,1-1.33,1.4a.73.73,0,0,0-.24,1,1.35,1.35,0,0,1-.16,1.7,1.84,1.84,0,0,1-1.8.37l1.16-1.61-1.19-.77Z"/><path d="M157.1,60.91c.16,1.65-1.77,4.26-3.35,4.61C153.21,64.19,155.48,61,157.1,60.91Z"/><path d="M143,62.15c-.32-1.51,1.69-4.3,3.3-4.64C146.76,58.84,144.69,61.8,143,62.15Z"/><path d="M161.77,66.51a6.79,6.79,0,0,1-3.09,4.42c-.51.18-.72-.06-.6-.51a6.2,6.2,0,0,1,3.08-4.08C161.31,66.26,161.6,66.46,161.77,66.51Z"/><path d="M125.39,79.4a3.66,3.66,0,0,1,2.34-2.94A3.37,3.37,0,0,1,125.39,79.4Z"/><path d="M129.13,79.73a3.57,3.57,0,0,1,2.41-2.93A3.56,3.56,0,0,1,129.13,79.73Z"/><path d="M138.24,77.29a3.6,3.6,0,0,1-2,3.18A3.43,3.43,0,0,1,138.24,77.29Z"/><path d="M145.53,78.58a3.5,3.5,0,0,1-2.37,3A3.54,3.54,0,0,1,145.53,78.58Z"/><path d="M151.65,85.5a3.51,3.51,0,0,1,2.49-3.07A3.55,3.55,0,0,1,151.65,85.5Z"/><path d="M166.19,41.84a2.85,2.85,0,0,1-2,2.27A2.88,2.88,0,0,1,166.19,41.84Z"/><path d="M166.88,45.29a2.94,2.94,0,0,1,2-2.31A2.76,2.76,0,0,1,166.88,45.29Z"/></g></svg>