<svg id="Layer_1" data-name="Layer 1" xmlns="http://www.w3.org/2000/svg" viewBox="0 0 200 200"><g id="Db7Yp6"><path d="M22.25,186.14c-.36-8.4,2.05-16.24,5-24,.55-1.46,1-2.28-1.38-1.88-5.36.91-10.48-2.42-12.73-8-3.6-8.9-2.11-17.08,3-25.08s10.55-15.39,17.44-21.81a10.17,10.17,0,0,0,2.08-3.61c.1-.25-.76-1.18-1.31-1.38-3.52-1.19-6.68-2.78-7.77-6.71-1.28-4.65,1.31-9.23,6.28-10.89,1.53-.52,1.78-1.11,1.38-2.63-1.3-4.83-1.85-9.68.28-14.48,3.17-7.14,13.35-9.89,19.87-5.53,4.19,2.8,6.84,6.66,9,11.05a2.07,2.07,0,0,0,1.94.6c4-2.29,7.82-1.35,9.91,2.8,1.6,3.18,2.27,6.53.78,10a1.94,1.94,0,0,0,.74,1.75C82,89,86,93,89.46,97.59a5.81,5.81,0,0,0,2.86,2,13,13,0,0,1,9.35,12A94.74,94.74,0,0,1,101,122c0,.33,0,.66-.07,1a8,8,0,0,0,1-.16c4.27-1.18,8.61-2.13,12.77-3.63,2.71-1,5-3.2,7.74-4a26.16,26.16,0,0,1,10.13-1.4c8,.88,11.13,7.41,8,15.15A54.72,54.72,0,0,0,138,137.7a19.92,19.92,0,0,1-12.46,14.87c-7.6,3.22-15.66,4.06-23.79,4.25-2.65.06-3.46.64-3.68,3.57-.23,3.09-2,6.06-3,9.11-.3.91-.73,2.07-.42,2.85a51.7,51.7,0,0,1,4,21.85c0,.7-.8,1.37-1.23,2.06-.32-.7-1-1.42-.92-2.1a47.18,47.18,0,0,0-3.65-20,2.9,2.9,0,0,0-2.28-1.26c-2.1.05-4.19.47-6.3.67-.31,0-.66-.28-1-.44a3.61,3.61,0,0,1,.81-.57c2.19-.69,4.41-1.26,6.58-2,4.4-1.53,7.6-8.17,6.07-12.54-.1-.3-.52-.5-.79-.74-.23.35-.49.7-.7,1.07-1.51,2.63-2.48,5.91-4.65,7.76-3.66,3.11-8,2.05-12.09,0a31.54,31.54,0,0,1-12.47-11.39c-1-1.49-1.74-2.1-3.09-.47-.26.31-.88.32-1.34.46.12-.41.12-.95.39-1.23a29.32,29.32,0,0,1,13.39-8.71c.41-.12.93.15,1.4.23a4.47,4.47,0,0,1-1.08.75c-1.47.48-1.54,1-.23,1.84,6.34,3.78,13.15,6.7,20.48,7.06,9.7.49,19.39-.37,28.58-4.07a18,18,0,0,0,11.17-12.52,5.6,5.6,0,0,0,0-1.53,6.71,6.71,0,0,0-1.31.74c-4.42,3.88-9.33,6.33-15.42,6.32-10,0-12.06-8.66-9.81-15.31.67-2,2.17-3.72,3.28-5.58a5.84,5.84,0,0,0,.34-.76,2.55,2.55,0,0,0-.8-.12c-5.29,1-10.41,2.53-14.23,6.63s-8.49,4.67-13.44,3.47c-2.53-.61-4.8-2.31-7.24-3.4a1.65,1.65,0,0,0-1.52.41c-1.81,4-3.52,8.14-7.72,10.17-10.5,5.08-24.07.47-24.75-13.93a24,24,0,0,1,3.79-14.79c4.74-7.06,16.3-8.06,23-2.18a28.55,28.55,0,0,1,3.38,3.57c.84,1,1,.81,1.55-.27a60.63,60.63,0,0,1,3.85-7.26,10.84,10.84,0,0,1,7.64-4.92c.3,0,.8-1.2.64-1.41-3-4-6.57-7.54-11.37-9.45a2.14,2.14,0,0,0-1.82.1c-5.71,5.61-12.9,7.58-20.52,8.16-3.71.29-7.49-.36-11.24-.42-.66,0-1.35.73-2,1.17-.12.07-.1.33-.19.48-4.42,6.77-1.74,13.93-1.27,21,.51,7.65,1.26,15.35.87,23C39,148.51,36.7,154.76,31,159a2.06,2.06,0,0,0-.53.88c-4.44,10.9-7.59,22-5.69,34,.11.73-.47,1.57-.73,2.36a8.25,8.25,0,0,1-1.34-2,12.25,12.25,0,0,1-.42-3.14C22.21,189.44,22.25,187.79,22.25,186.14ZM49.73,95.25l.15-.72A35.53,35.53,0,0,0,69,89.37c4.82-2.84,6.6-8.18,4.46-13-1.73-3.91-4.87-4.63-8-1.73-2.24,2.08-4.42,4.23-6.49,6.48-4.62,5-10.17,6.39-16.65,4.56-1.41-.4-2.84-.75-4.28-1-3.83-.76-7.8,1.1-9,4.2-1.74,4.3.4,7.9,5.7,9.32a2.86,2.86,0,0,0,2.47-.61c1-1.22.82-2.43-1-3.07A8.86,8.86,0,0,1,33.88,93a4.83,4.83,0,0,1-.8-1.23,7.72,7.72,0,0,1,1.45.06C39.6,92.92,44.66,94.09,49.73,95.25ZM74.8,122.47c.23-5.43-2-9.56-6-13.11-5.87-5.23-19.58-5.07-22.76,6-1.2,4.2-1.88,8.32-1.06,12.67,1.05,5.6,4.4,9.13,9.7,10.78,5.06,1.57,10.09,1,14.11-2.44A17.92,17.92,0,0,0,74.8,122.47ZM46.57,59.73c-2.22,1-4.7,1.55-6.61,2.93-4.74,3.43-6.32,12.43-3.37,17.67a1.36,1.36,0,0,0,1.31.26c6.75-4.34,14.31-6.38,22.05-8,.38-.07,1-.8.93-1C58.8,66.3,53.3,60.14,46.57,59.73Zm35.69,58.4a37.61,37.61,0,0,1,.87-5.54c2.23-7.18,7.09-11,14.59-6.45a2.7,2.7,0,0,0,.59.17,3.32,3.32,0,0,0-.25-.79c-2.91-4.93-11.34-6.7-15.71-2.83-4.58,4.06-8,8.94-6.41,15.7a13.74,13.74,0,0,1,.33,4.38c-.3,3,1.47,4.57,3.66,5.85A18.8,18.8,0,0,0,84,130.28c6,1.84,11.6-.38,14.44-5.69a6.11,6.11,0,0,0,.38-1.3,5.66,5.66,0,0,1-1,.79c-2.47,1.32-4.86,3.41-7.46,3.74C85.31,128.46,82.43,124.56,82.26,118.13Zm-3,44.14c0-4.49-1.58-6.36-5-7.62-1.82-.66-3.24-2.34-4.93-3.42-.57-.37-1.71-.64-2.06-.34s-.79,1.76-.49,2.08c3.17,3.47,6.45,6.84,9.78,10.16a7.17,7.17,0,0,0,2.16,1Zm-3.67-7.74.45-.61a3,3,0,0,0,1-.1c.72-.32,1.39-.73,2.08-1.1a17.52,17.52,0,0,0-1.52-1.21c-1.62-1-3.21-2.14-4.91-3a2.28,2.28,0,0,0-2.07,0c-.41.39-.57,1.76-.25,2C72,152,73.84,153.22,75.59,154.53Zm9.91,3.26a2.58,2.58,0,0,0,1-.21,22.31,22.31,0,0,0,1.91-1.45A13.07,13.07,0,0,0,86.57,155a28.47,28.47,0,0,0-4-1.37,1.54,1.54,0,0,0-1.24.88C81.07,156.37,82.91,157.82,85.5,157.79Z"/><path d="M113.27,5.64c11.7,0,23.41-.41,35.08.12,9.5.44,18.92,2.08,27.66,6.31,6.63,3.21,10,8.91,11.8,15.64,2.9,10.92-.45,20.1-8.85,27.33-2.24,1.91-5.31,3-8.15,4-11.54,4.26-23.59,5-35.75,4.94-4.18,0-8.35-.1-12.53,0-.58,0-1.62.92-1.63,1.43-.34,11.47-4.83,21.33-11.8,30.16a38.15,38.15,0,0,1-5.5,4.93c-.28.23-.85.12-1.29.17,0-.48-.26-1-.07-1.41,5.48-11.18,5.43-23.3,5.9-35.31,0-.48-1.28-1.4-2-1.44-8.44-.5-16.94-.46-25.33-1.41-7.83-.88-15.49-3-21.92-8-10.6-8.21-14.63-21.41-6.35-33,3.66-5.13,9-8.63,14.86-10.94,9.22-3.63,19-4.26,28.76-4.16,5.71,0,11.41,0,17.11,0Zm19.31,56.45c13,.33,25.45-.29,37.37-4.64,2.74-1,5.69-2,7.85-3.85,7.76-6.58,10.92-15,8.37-25.06-1.83-7.21-5.65-12.81-13-15.78a75,75,0,0,0-26.29-5.32C127.62,6.92,108.33,6.92,89,7c-11.12,0-21.54,2.58-30.64,9.65-7.92,6.15-10.75,17-6.15,25.84,4.51,8.62,12.08,13,21.11,15.36,10.22,2.67,20.69,2.82,31.15,2.87,5.47,0,5.84,0,5.32,5.46-.92,9.56-2.34,19.08-3.55,28.61a5,5,0,0,0,0,.77,1.9,1.9,0,0,0,.61-.28,14.59,14.59,0,0,0,1.29-1.44c6.67-8.74,10.78-18.43,10.89-29.57,0-1.69.69-2.24,2.34-2.2C125.33,62.15,129.21,62.09,132.58,62.09Z"/><path d="M47.16,195.37c-.17.15-.63.76-.78.69-.5-.24-1.2-.66-1.27-1.1a128.1,128.1,0,0,1-1.76-12.88c-.22-4.26.2-8.55.38-12.82a4.49,4.49,0,0,1,.54-1.37,6.29,6.29,0,0,1,.44,1.42c.47,6.61.86,13.22,1.38,19.83C46.25,191.12,46.75,193.07,47.16,195.37Z"/><path d="M34.13,184.7c.61-5.83,1.1-10.62,1.63-15.4a4.75,4.75,0,0,1,.5-1.23,6.08,6.08,0,0,1,.33,1.37q.31,12.47.53,24.95c0,.56-.45,1.12-.69,1.69-.42-.46-1.14-.87-1.2-1.37C34.75,191.06,34.41,187.39,34.13,184.7Z"/><path d="M72.85,124.19c-.72,4.36-1.79,8-4.91,10.76-3.5,3.09-10.17,2.11-12.6-1.9a15.72,15.72,0,0,1-.77-15.83c2.73-5.58,11-6.31,14.56-1.15C70.78,118.49,71.63,121.47,72.85,124.19Z"/><path d="M157.21,33.46c0-3.24,2.17-6.46,4.57-6.67a2.92,2.92,0,0,1,3.46,2.9c.2,2-1.13,2.81-2.93,3-.4.05-.83-.07-1.23,0-.71.14-1.4.37-2.1.56A9.87,9.87,0,0,0,160.9,36c.53.38,1.66-.12,2.52-.1a5.07,5.07,0,0,1,1.35.44c-.25.41-.4,1-.76,1.19A4.46,4.46,0,0,1,157.21,33.46Z"/><path d="M80.18,30.82c-.12,1.9-.11,3.08-.3,4.24-.07.44-.58.82-.89,1.23-.26-.39-.68-.77-.73-1.18-.11-1.12.35-2.35-1.6-2.41s-1.78,1.21-1.92,2.4a5.24,5.24,0,0,1-.17,1.39,4.16,4.16,0,0,1-.91,1c-.24-.35-.7-.7-.69-1,.1-2.82.25-5.63.49-8.43,0-.36.63-.66,1-1,.25.47.52.92.74,1.4.39.84.57,2.21,1.17,2.43,1.63.6,2-.54,2-2,0-.6.61-1.19.94-1.79a7.65,7.65,0,0,1,.81,1.84A8.25,8.25,0,0,1,80.18,30.82Z"/><path d="M147.83,32.16l1-4.19L152,30.8c.42.38.86.74,1.29,1.11a16,16,0,0,1,.46-1.81c.27-.72.64-1.42,1-2.12a8.37,8.37,0,0,1,.7,2.1,18.23,18.23,0,0,1-.11,3.69,7.88,7.88,0,0,1-.79,2,11.94,11.94,0,0,1-1.66-1.1c-.59-.56-1-1.27-1.6-1.87a5.31,5.31,0,0,0-.95-.65c-.07.38-.13.77-.23,1.15-.32,1.17-.65,2.34-1,3.51-.3-1.22-.62-2.45-.89-3.67a3.7,3.7,0,0,1,0-.88Z"/><path d="M92.66,37c-1.46-.73-2.67-1.27-3.8-2-.27-.16-.24-.79-.35-1.2.42-.07.89-.29,1.26-.17.72.22,1.36.75,2.08.92a4,4,0,0,0,1.56-.3,5.11,5.11,0,0,0-.8-1.39c-.41-.38-1.13-.44-1.53-.83-.92-.88-1.72-1.89-2.57-2.84a16.82,16.82,0,0,1,3.3-2.66c.73-.35,1.92.11,2.84.41.33.11.49.78.72,1.19a4.76,4.76,0,0,1-1.32.4c-.45,0-1-.46-1.33-.35a14.25,14.25,0,0,0-2.22,1.09c.5.41,1,.85,1.5,1.21.87.59,2,.94,2.58,1.72A3.56,3.56,0,0,1,95,35.07C94.72,35.85,93.56,36.29,92.66,37Z"/><path d="M118.48,36.92a6,6,0,0,1-1.86-.46,9.26,9.26,0,0,1-1.59-1.6,17.35,17.35,0,0,0,2-.14c1-.19,2-.49,3.06-.73-.71-.65-1.38-1.35-2.14-1.93-.3-.23-.91-.09-1.16-.33a9.59,9.59,0,0,1-2.19-2.65c-.19-.41.68-1.81,1.23-1.92a16.66,16.66,0,0,1,4.23,0c.12,0,.38.68.27.87a1.38,1.38,0,0,1-.93.57c-.57,0-1.16-.2-1.73-.15a3.69,3.69,0,0,0-1.17.59c.3.31.55.75.92.91.75.32,1.78.27,2.3.77.93.9,2.35,2.29,2.15,3.14-.31,1.31-1.81,2.35-2.8,3.5Z"/><path d="M134.09,32.52c0-.23,0-.47,0-.7.23-5.34.88-5.87,6.29-4.87.45.08.81.63,1.21,1-.46.27-.89.71-1.37.77a22.31,22.31,0,0,0-2.45,0,6.16,6.16,0,0,0-1.77,1.2,21.11,21.11,0,0,0,1.51,1.86,8.31,8.31,0,0,0,1.43,1c-.46.27-.92.8-1.36.77-1.91-.13-1.79,1.13-1.91,2.4a5.33,5.33,0,0,1-.85,1.68,5.8,5.8,0,0,1-.8-1.67,31.18,31.18,0,0,1,0-3.35Z"/><path d="M67,32.16a13.63,13.63,0,0,1,.1-1.93c.37-1.89-.32-2.68-2.28-2.61-.58,0-1.19-.61-1.78-.94a5.74,5.74,0,0,1,2-.78,48.47,48.47,0,0,1,5.76.49c.49.06.9.65,1.35,1a8.12,8.12,0,0,0-1.41.72c-.62.49-1.55,1-1.66,1.66-.33,1.77-.24,3.62-.47,5.41-.07.58-.59,1.09-.91,1.64a5.75,5.75,0,0,1-.77-1.68,21.17,21.17,0,0,1,.14-3Z"/><path d="M112,32.14c0,1.46.06,2.93,0,4.39,0,.38-.55.73-.84,1.1-.28-.37-.79-.74-.79-1.12q-.06-4.48.07-8.95c0-.38.54-.75.82-1.12.27.38.76.74.78,1.14.09,1.51,0,3,0,4.56Z"/><path d="M82.91,32.76c0-1.12-.08-2.24,0-3.34A4.46,4.46,0,0,1,83.67,28c.34.45,1,.89,1,1.37.18,2.4.25,4.81.24,7.22,0,.42-.56.85-.86,1.27-.28-.4-.75-.79-.79-1.21-.1-1.28,0-2.58,0-3.87Z"/><path d="M143.59,33.51c0-1.23-.07-2.47,0-3.69,0-.41.56-.77.85-1.15.3.37.85.75.85,1.12,0,2.4-.11,4.81-.27,7.21,0,.33-.54.62-.83.93-.29-.36-.81-.71-.84-1.08-.06-1.11.07-2.23.12-3.34Z"/></g></svg>