<svg id="Layer_1" data-name="Layer 1" xmlns="http://www.w3.org/2000/svg" viewBox="0 0 200 200"><path d="M181.09,33H17.91A2.91,2.91,0,0,0,15,35.91V164.12A2.91,2.91,0,0,0,17.91,167H181.09a2.91,2.91,0,0,0,2.91-2.91V35.91A2.91,2.91,0,0,0,181.09,33ZM61.62,65.05A16.23,16.23,0,1,1,45.39,81.28,16.25,16.25,0,0,1,61.62,65.05Zm107,54.42a2.91,2.91,0,0,1-4.11.18L131.74,89.57,105,118.86l14,14a2.91,2.91,0,1,1-4.12,4.12l-30-30L37.32,148.83a2.92,2.92,0,0,1-3.85-4.38L83.05,100.8a2.92,2.92,0,0,1,4,.12l13.82,13.82L129.4,83.49a2.94,2.94,0,0,1,2-.95,3,3,0,0,1,2.1.76l35,32.06A2.9,2.9,0,0,1,168.66,119.47Z"/></svg>