<svg id="Layer_1" data-name="Layer 1" xmlns="http://www.w3.org/2000/svg" viewBox="0 0 200 200"><g id="isBd7q.tif"><path d="M166,140.34a47.54,47.54,0,0,0-4.63,3.83c-2.89,3.05-6.66,4.27-10.46,5.55-6.42,2.16-12.81,4.4-19.21,6.62-.58.2-1.13.48-1.69.72-1.38.6-1.31,1.68-.66,2.66a11.1,11.1,0,0,0,2,1.89c3.51,3,7,6.1,10.55,9.07a4.94,4.94,0,0,1,1.92,4.45c-.13,2.47,0,5,0,7.45,0,1.36-.26,2.27-1.86,2.68-4.16,1.08-8.27,2.38-12.41,3.56a4.34,4.34,0,0,1-4.58-1.44q-5.19-5.32-10.59-10.46c-2.14-2-1.79-4.8-2.32-7.3-.47-2.21-.55-2.52-2.42-1.34-2.31,1.46-3.74,0-5.4-.95-.87-.51-1.36-.5-1.35.67,0,1.71,0,3.42,0,5.13a8.08,8.08,0,0,1-.24,2.75c-.23.63-1.13,1.54-1.55,1.45-.76-.16-1.89-.91-2-1.53-.28-2.29-.19-4.63-.25-7s-.25-2.43-1.83-1.22c-1.84,1.39-3.43,1.64-5.38.33-1.42-1-2,0-1.92,1.31.17,4.19-1.56,7.34-4.73,10a115.81,115.81,0,0,0-8.3,8.14,4.3,4.3,0,0,1-4.6,1.36c-4.14-1.17-8.25-2.45-12.41-3.56A2,2,0,0,1,58,183c0-2.94.07-5.9,0-8.84,0-1.63.94-2.54,1.93-3.52L68.41,162a23,23,0,0,0,1.94-2c1.08-1.39.81-2.53-.94-3.22-3.72-1.46-7.49-2.81-11.26-4.16s-7.82-2.82-11.76-4.15c-4.33-1.46-7-5.05-10-8a4,4,0,0,1-.69-1.67,4.75,4.75,0,0,1,0-.93c-.49-7.84-.59-7.94,5.17-13.28,9.53-8.84,19.21-17.51,28.79-26.3,2.85-2.62,5.54-5.42,8.38-8.06,1.74-1.62,2-3.77,2.29-5.89.74-6,1.34-12,2.06-17.91a9.33,9.33,0,0,1,3.53-6.77c.24-.19.42-.47.66-.65,3.9-2.88,4.94-6.67,5.28-11.54.58-8.25.64-16.68,3.47-24.63,1.4-3.92,3-7.78,4.54-11.63.19-.47.8-.77,1.22-1.15a6,6,0,0,1,1.08,1.38c2.79,7.17,6,14.19,6.44,22.08.36,6.15,1.21,12.27,1.72,18.42a4.91,4.91,0,0,0,1.55,3.69c1.16,1,2.1,2.32,3.33,3.23,2.71,2,3.75,4.78,4.24,7.88.43,2.74.76,5.5,1.08,8.25.39,3.37.63,6.76,1.13,10.12a9.68,9.68,0,0,0,3.1,6c11.11,10.09,22.14,20.28,33.18,30.44,2.74,2.52,5.43,5.08,8.14,7.62ZM105.32,47.58c-.47-2.61-1.06-6.09-1.75-9.55a2.79,2.79,0,0,0-5.39,0c-.65,3.77-1.42,7.55-1.7,11.35-.17,2.26.68,4.56.74,6.85s1.68,3.18,3.07,4.34a1.24,1.24,0,0,0,1.21,0c1-1.09,2.53-2.15,2.82-3.45C105,54.31,105,51.35,105.32,47.58Z"/></g></svg>