<svg id="Layer_1" data-name="Layer 1" xmlns="http://www.w3.org/2000/svg" viewBox="0 0 200 200"><g id="dVLe3e.tif"><path d="M113.31,168.6c-2.6-.84-5.44-1.27-7.77-2.59q-36.93-20.94-73.71-42.14a10.24,10.24,0,0,1-3.74-3.34,4.77,4.77,0,0,1,1-6.32,29.53,29.53,0,0,1,3.72-2.75Q54,97.66,75.24,83.91c.78-.51,1.56-1,2.35-1.49,1.41-.84,2.18-.68,2.46,1.19.82,5.58.11,7.3-4.64,10.29L51.07,109.25c-.92.57-1.82,1.17-2.72,1.77-1.54,1-1.78,2.08,0,3.13.79.47,1.62.9,2.44,1.33C63.6,122.3,76.48,129,89.25,136c2.78,1.52,4.9,1.5,7.59-.24,12-7.72,24-15.24,36.07-22.83.53-.33,1.07-.63,1.57-1,2.63-1.93,2.6-2.34-.35-4.1-.8-.47-1.65-.86-2.47-1.3q-13.32-7-26.64-14.12c-3.87-2.06-5.34-5.53-4-9.49a1.87,1.87,0,0,1,1.6-.89,13.17,13.17,0,0,1,2.89,1.43c21.74,12.44,43.39,25.07,65.29,37.24,7.36,4.09,7.41,9,.54,13.27-16.13,10.09-32,20.63-47.92,31A19.25,19.25,0,0,1,113.31,168.6Zm33-50.61a72.81,72.81,0,0,0-8.41,2.38c-4.09,1.67-5.36,5.12-5.32,9.38a8.69,8.69,0,0,0,5.39,8.42,19,19,0,0,0,16.56.15c3.62-1.64,5.74-4.35,5.81-8.66.07-4.58-1.74-7.85-5.89-9.53A62,62,0,0,0,146.3,118ZM106,146.06a7.82,7.82,0,0,0,4.39,8.82,18.43,18.43,0,0,0,18.19.1c3.44-1.8,4.88-4.68,4.83-8.74s-1.57-6.88-5-8.64a18.64,18.64,0,0,0-16.55-.52C108,138.76,105.41,141.39,106,146.06Z"/><path d="M176.77,142.12c1,4.65-1.56,7.8-6,10.6q-23.48,14.91-46.6,30.39c-6.83,4.55-13.33,4.58-20.35.5-23.12-13.42-46.33-26.68-69.5-40-6.53-3.75-8.91-9.48-6.81-16.63a1.81,1.81,0,0,1,1.51-.91,21.24,21.24,0,0,1,3.26,1.73c23.2,13.28,46.47,26.45,69.57,39.89,8.42,4.89,16.16,4.74,24.26-.66,14.78-9.86,29.77-19.42,44.68-29.1.78-.5,1.55-1,2.34-1.5,3.33-2.05,3.46-2,3.6,1.71C176.8,139.22,176.77,140.3,176.77,142.12Z"/><path d="M79.12,98c2.43,2.72,2.15.27,2.27-.87a63.7,63.7,0,0,0,.43-6.47c.2-12.22.33-24.44.51-36.66.06-3.77.06-3.52,3.93-3a29.85,29.85,0,0,0,9.15-.11c2.77-.54,3.15.33,3.2,2.7.24,12.06.59,24.12.91,36.17q.09,3.25.24,6.49c.07,1.41.06,1.28,1.36.8a2.79,2.79,0,0,1,2.12.29c3,1.83,6,3.78,8.92,5.69-2.68,1.94-5.29,4-8,5.79s-5.84,3.5-8.72,5.31a4.92,4.92,0,0,1-5.22.29q-9-4.34-18.07-8.43c-2.26-1-2.64-1.92-.33-3.32C74.28,101.09,76.71,99.49,79.12,98Z"/><path d="M109,31.51c0,8.11-4.22,14.19-11.09,16.81a17.82,17.82,0,0,1-19.56-4.51,17.25,17.25,0,0,1-2.63-19.4,14.87,14.87,0,0,1,1.74-2.71c.31-.39,1-.51,1.46-.75.19.4.58.82.54,1.2-.56,5.05,2.14,7.92,6.57,9.27,5.4,1.63,10.7,1.43,15.41-2.17,2.37-1.82,2.57-4.41,2.38-7.13,0-.49.36-1,.56-1.5a7.93,7.93,0,0,1,1,.89A14.87,14.87,0,0,1,109,31.51Z"/><path d="M126.83,111.47a38.81,38.81,0,0,0-5,2.12c-8.61,5.13-17.21,10.31-25.72,15.61-2.15,1.34-4,1.87-6.38.58-9.68-5.13-19.46-10.06-29.15-15.16-1.06-.56-2.66-2.34-2.52-2.56,1.08-1.63,2.6-2.46,4.7-1.39,5.35,2.75,10.78,5.33,16.12,8.1,3.7,1.92,7.36,3.93,10.91,6.1a5.3,5.3,0,0,0,6.38-.18c7.33-4.87,14.78-9.54,22.07-14.48,2.29-1.55,4.5-2.6,7.27-2C126.35,109.13,128.29,109.59,126.83,111.47Z"/><path d="M126.83,111.47c1.46-1.88-.48-2.34-1.36-3.25a40.86,40.86,0,0,0-4.36-3.33C115.11,101.4,109,98,103,94.6a10.18,10.18,0,0,1-1.39-1.16,5.08,5.08,0,0,1,1.64.23c9.42,5,18.8,10,28.23,15,2,1.07,1.54,1.87,0,2.85-12.16,7.65-24.28,15.35-36.5,22.9a4.52,4.52,0,0,1-3.77.18c-13-6.76-26-13.68-38.93-20.53-2.09-1.1-1.89-2.06,0-3.21,8.52-5.32,17-10.69,25.52-16a6,6,0,0,1,1.63-.44,8.85,8.85,0,0,1-1.23,1.22C71.41,100,64.68,104.41,58,108.82c-1,.67-2.05,1.37-3,2.12-1.29,1-1.37,2,.12,2.88.53.32,1.09.59,1.63.88,10.86,5.89,21.77,11.7,32.54,17.74,2.63,1.47,4.62,1.61,7.17-.1,9.1-6.11,18.35-12,27.5-18.06A22.86,22.86,0,0,0,126.83,111.47Z"/><path d="M92.6,123.11c-1-.36-1.73-.56-2.42-.9-7.9-3.89-15.81-7.76-23.66-11.75-.85-.43-1.33-1.62-2-2.46,1.23-.45,2.46-1.28,3.67-1.26s2.24.94,3.35,1.5c5.8,2.9,11.65,5.71,17.38,8.76,2.77,1.47,5,1.49,7.7-.36,5.08-3.51,10.41-6.67,15.64-10,1-.65,2.17-1.77,3.2-1.71,1.36.08,2.66,1.11,4,1.74a13.59,13.59,0,0,1-2.2,2.1c-7.3,4.36-14.63,8.66-22,13C94.39,122.3,93.4,122.71,92.6,123.11Z"/><path d="M119.49,152.25l-1.89-.37c.73,0,1.47-.11,2.21-.1a17.07,17.07,0,0,1,1.73.15Z"/></g></svg>