<svg id="Layer_1" data-name="Layer 1" xmlns="http://www.w3.org/2000/svg" viewBox="0 0 200 200"><g id="mwy2oy"><path d="M136.94,30.27c1.56.14,3,.18,4.46.42,4.2.72,7,3.22,7.79,7.34a25.29,25.29,0,0,1,.31,7.91q-2.61,21.84-5.58,43.65a19,19,0,0,0,.92,8.7c4.85,15,9.38,30.1,12.42,45.59.9,4.6,1.34,9.29,1.91,14,.61,5-1.48,8.69-5.64,11.36-5.21,3.34-11.05,4.91-17,6.07-15.73,3.07-31.64,3.38-47.59,2.66-10-.46-19.89-1.5-29.55-4.23a36.38,36.38,0,0,1-11-4.86,11.07,11.07,0,0,1-5.17-10.38,109.22,109.22,0,0,1,4.38-24.3c3.76-13.09,7.91-26.06,11.86-39.1a7.21,7.21,0,0,0,.28-2.88C58,77.71,56.14,63.26,54.33,48.81a49.15,49.15,0,0,1-.6-6.38c.06-6.51,3.57-10.83,9.9-12.32,1.31-.31,2.31-.58,2.76-2.17A3.76,3.76,0,0,1,70,25.39c.89-.07,1.78,0,2.67,0h58.6C135,25.36,136.33,26.51,136.94,30.27Zm-71.1,3.28c-5.25.57-8.16,3.6-8.37,8.64a18.06,18.06,0,0,0,.12,3.12q1.95,15.31,3.93,30.61c.55,4.24,1.08,8.48,1.63,12.86h77.08c.1-.57.2-1,.26-1.48C142,75.12,143.61,63,145.1,50.77a61.78,61.78,0,0,0,.78-10c-.21-5-3.74-7.49-8.61-6.64a1.26,1.26,0,0,0-.82.55c-1.11,2.17-2.95,2.68-5.22,2.68q-29.77-.06-59.56,0C68.75,37.43,66.68,36.56,65.84,33.55Z"/><path d="M43.82,131.92a25.65,25.65,0,0,1-10.72-9.46c-3.83-5.79-5.64-12.29-6.67-19.06a29.66,29.66,0,0,0-3.91-11.49c-2.83-4.52-6.79-7.14-12.25-7.15-.19,0-.38-.07-.81-.15,1.73-2.11,3.3-4.11,5-6A2.59,2.59,0,0,1,16,78.08C26.35,77,34.77,82,39,91.74c1.58,3.63,3.24,7.23,5.12,10.72A15.76,15.76,0,0,0,50,108.63a1.39,1.39,0,0,1,.5,1.21C48.33,117.14,46.1,124.43,43.82,131.92Z"/><path d="M162,146.71c-.57-2.61-1.17-5-1.57-7.41a2.59,2.59,0,0,1,.76-1.94c6.15-5.68,12-11.61,16.74-18.58,1.89-2.79,3.55-5.67,3.75-9.16.39-6.65-4.56-14.22-10.8-16.56a9,9,0,0,0-6,0c-4.42,1.33-7.75,4.22-10.69,7.62-1.08,1.26-2.06,2.61-3.25,4.13-.77-2.43-1.51-4.69-2.18-7a1.29,1.29,0,0,1,.21-1c4.3-5.51,9.33-10,16.4-11.61a13.74,13.74,0,0,1,8.44.76c10.36,4.23,17.27,17.71,14.64,28.57-1.06,4.35-3.42,8.06-6.07,11.58a122.21,122.21,0,0,1-19.57,20A7,7,0,0,1,162,146.71Z"/><path d="M104.58,66c5,1,9.78,1.75,14.43,3.06,6.61,1.87,12.42,5.22,16.48,11,1,1.42,1.76,3,2.77,4.79H66c.25-.55.45-1.06.71-1.53C71.17,75.22,78.26,70.55,87,68.21a80.82,80.82,0,0,1,10.17-1.7c1-.14,1.3-.4,1.35-1.4a5.12,5.12,0,0,0-1.19-3.9,10.22,10.22,0,0,1-1.17-1.67c-1.05-1.79-.43-3.16,1.64-3.27a69.87,69.87,0,0,1,7.52,0c2,.11,2.58,1.44,1.61,3.19a6.7,6.7,0,0,1-1,1.41A5.53,5.53,0,0,0,104.58,66Z"/></g></svg>