<svg id="Layer_1" data-name="Layer 1" xmlns="http://www.w3.org/2000/svg" viewBox="0 0 200 200"><g id="CF9sVJ"><path d="M16.78,132a12.87,12.87,0,0,1-.13-1.38q0-30.21,0-60.43c0-1.63-.08-3.27-.1-4.9a3.81,3.81,0,0,1,.1-1,1.3,1.3,0,0,1,1.23-1.07,10.28,10.28,0,0,1,1.11,0H184.54c2.14,0,2.46.32,2.46,2.46q-.06,32.58-.13,65.15a11.69,11.69,0,0,1-.12,1.19l-.17.06h-.27a.49.49,0,0,0-.17-.06l-.35,0h0l-.19.37h0l.52-.4.2.06h.24l.19-.06a1.55,1.55,0,0,1-1.57.75c-2.31,0-4.63,0-6.94,0-.25,0-.49,0-.74,0s-.63.11-.62.52-.35.57-.75.56H27a4,4,0,0,1-.92,0c-.2-.05-.5-.25-.5-.39,0-.7-.52-.69-1-.69l-5,0H18.06a1.39,1.39,0,0,1-1.3-.73l.2.05h.23l.21,0,.46.43.06-.38h-.21l-.33,0-.18.05h-.26A.49.49,0,0,0,16.78,132ZM57.15,84.61l-.19.18h0l.18-.19.21-.21.72-.37-.08-.1-.62.48Zm77-.6h0l-.21.21-.71.54L133,85H133l.2-.19.71-.54ZM75.1,85.34l0,0Zm58.31-10.93h0v.23l-.38,0-.06,0,.08,0,.33.18.21.21h0l-.21-.2,0-.16Zm.74,1.12h0l.2.18.17.18.09,0h.08V75.7h-.19l-.18,0ZM57.15,90l-.19.19h0l.19-.19Zm-34.43,40.7h0ZM96.94,93.11h0ZM67.51,94.77h0ZM61,84.38l.21.21c.23.13.28.63.72.36.24-.26,0-.32-.18-.37h-.2l-.35,0L61,84.39Zm-3.5-4-.21-.2v0l.21.21ZM147.85,74l0,.06,0-.07Zm-13,10,0,0,0,.08Zm-7.57,1.29.07,0,0,0Zm-2.06-9.45.22-.17.16-.21s0,0,0-.07l-.14.29h-.23l-.15-.17,0,.15v.2Zm10.56,1.87-.07,0,.06,0ZM23.28,131l0,0,0,0Zm78.85-37.92,0,.06,0-.07Zm-40-4.42s0,0,0,.08a.19.19,0,0,0,0,.07v-.17l0-.06Zm5.35-10.24.21.21A7.36,7.36,0,0,0,68.8,79c.75.1,1.5.13,2.26.2l.14.62a1.5,1.5,0,0,0,.11.13l.33.24s.06-.14,0-.15a1.5,1.5,0,0,0-.33-.23s-.11,0-.17,0L71,79.19v-.34c.13-.44.75-.6.68-1.16,0-.11-.07-.21-.1-.32-.1.07-.26.12-.28.2-.11.43-.19.86-.29,1.29l-3.33-.18-.21-.21-.07-.17Zm67.38,4.66-.17.19s0,0,0,.07l.16-.27ZM61,77h0c0-.06,0-.13,0-.16a1.81,1.81,0,0,0-.21-.18l.15.21Zm63.87,6.67c.09.27.22.48.56.36h.17l.75.55h0l-.76-.54c-.16-.29-.16-.77-.71-.58ZM17.37,67.93l.29-.14,0-.05-.24.2L17,68.1a1.13,1.13,0,0,0-.08.24,2.11,2.11,0,0,0,0,.26.89.89,0,0,0,.09-.26.7.7,0,0,0,0-.25ZM71.59,88.64v0a1.16,1.16,0,0,0-.14-.34,1.2,1.2,0,0,0-.31-.21,1.3,1.3,0,0,0,.14.39C71.33,88.58,71.48,88.6,71.59,88.64Zm109,42.05-.39-.2h0l-.38.74c0-.33.06-.67.06-1q0-12.67,0-25.34a10.5,10.5,0,0,0-.11-1.1l.28,0c0,1.59,0,3.18,0,4.77a2.25,2.25,0,0,0,.06.36,1.39,1.39,0,0,0,.1-.33q.1-1,.18-2c.06-.92.11-1.85.17-2.77l0,0-.54,0-.24,0-2.31,0c-1.5,0-1.5-.21-1.5,1.52q0,12.21,0,24.43c0,.28,0,.56,0,.83,0,.53.23.8.77.8h2.87c.5.29.73-.26,1.1-.37v0l-.2-.39ZM66.8,85.31l-.86-.13v.06l.8.05h.09c0,.8,0,1.6,0,2.4a.82.82,0,0,0,.1.24c0-.06.12-.13.12-.19A4.13,4.13,0,0,0,66.8,85.31Zm9-6.13A11.82,11.82,0,0,1,77,79c.58,0,1.16,0,1.74,0,.09,0,.17-.1.26-.16a.75.75,0,0,0-.25-.09c-.79,0-1.58,0-2.37,0-.19,0-.36.28-.54.43l-.06.15s0,0,0,.06Zm-52,52.4a1.28,1.28,0,0,0,.06.35,2,2,0,0,0,.26.33s.12-.08.12-.11a1,1,0,0,0-.14-.39c-.07-.09-.21-.11-.32-.16a2.44,2.44,0,0,1,.44-.13q1.15,0,2.31-.06c.5,0,.83-.15.83-.74,0-2.4,0-4.81,0-7.22,0-.18-.13-.5-.24-.52-.76-.13-.66-.69-.66-1.21q0-8.1,0-16.19c0-.34,0-.68,0-1s-.2-.68-.67-.68-1.11,0-1.66,0c-.24,0-.46.23-.69.35h0l-.57,0h0a2,2,0,0,1,.65,1.72q0,12.18,0,24.37A6.59,6.59,0,0,0,23.84,131.58Zm78.78-45.81H116c1,0,1,0,1-1,0-2.8,0-5.61,0-8.41,0-1-.1-1.07-1.06-1.07q-13.32,0-26.63,0c-1.07,0-1.13.07-1.14,1.18q0,3.33,0,6.66c0,.62,0,1.24,0,1.85s.25.79.79.77h13.6Zm56,31.79h0v12.21c0,.31,0,.61,0,.92s.21.71.67.71h2.5a.59.59,0,0,0,.65-.62c0-.31,0-.62,0-.92-.05-2.93-.13-5.85-.15-8.78,0-5.27,0-10.54-.05-15.81,0-.28,0-.55,0-.83s-.17-.59-.56-.59h-2.5c-.39,0-.54.23-.55.59s0,.62,0,.93Zm-13,0v12.12c0,.34,0,.68,0,1a.6.6,0,0,0,.68.68c.74,0,1.48,0,2.22,0s.9-.12.9-.93q0-3.42,0-6.85c0-.21,0-.53-.11-.61-.58-.39-.45-1-.45-1.5l0-16.1v-.65c0-.84-.1-.9-.9-.93-.44,0-.87,0-1.3,0-1,0-1,0-1,1.06Zm-30.51,0v12.3c0,.22,0,.43,0,.65,0,.74.14.87.86.89s1.36,0,2,0,.9-.1.91-.92q0-3.42,0-6.84c0-.24,0-.59-.15-.68-.58-.37-.46-.91-.46-1.41,0-5.24,0-10.48,0-15.72,0-2.45.17-2-2-2-1.1,0-1.1,0-1.1,1.16C115.05,109.18,115.06,113.37,115.06,117.56Zm-30.49.06h0v12.13c0,.31,0,.61,0,.92a.66.66,0,0,0,.75.73c.74,0,1.48,0,2.22,0s.87-.14.87-.88q0-3.48,0-6.94c0-.23-.1-.61-.23-.64-.68-.2-.59-.72-.59-1.2q0-6.15,0-12.31c0-1.6,0-3.21,0-4.81,0-.54-.17-.81-.74-.79s-1,0-1.58,0-.69.19-.69.65c0,.28,0,.56,0,.84Zm-17.43-.09v12.22c0,.3,0,.61,0,.92a.65.65,0,0,0,.75.73h2.31c.55,0,.77-.27.77-.8,0-2.35,0-4.69,0-7,0-.23-.11-.62-.23-.65-.71-.17-.58-.7-.58-1.18,0-5.27,0-10.55,0-15.82,0-2.36.52-2.09-2.3-2.1-.52,0-.72.25-.7.74,0,.28,0,.56,0,.84Zm-30.49,0h0q0,5.73,0,11.47c0,.49,0,1,0,1.48,0,.78.11.87.85.89s1.42,0,2.12,0,.85-.24.85-.83c0-2.35,0-4.69,0-7,0-.22-.13-.6-.26-.62-.76-.17-.61-.75-.61-1.25,0-5.3,0-10.6,0-15.91,0-2.17.27-1.93-2-1.94-.87,0-.88,0-.91.87,0,.4,0,.8,0,1.2Zm91.5,0h0v3.15c0,3.23,0,6.47,0,9.71,0,.87.09,1,.94,1,.65,0,1.3,0,1.94,0,.79,0,.91-.13.92-.93q0-3.42,0-6.85c0-.23,0-.6-.18-.66-.62-.28-.5-.79-.5-1.27q0-6.48,0-13c0-1.3,0-2.59,0-3.89,0-1,0-1-1-1q-.56,0-1.11,0c-1,0-1,0-1,1Zm-30.5,0v5.65c0,2.4,0,4.81,0,7.21,0,.87.11,1,.95,1,.67,0,1.35,0,2,0s.81-.13.82-.83q0-3.51,0-7c0-.2-.06-.54-.17-.58-.74-.27-.56-.88-.56-1.4,0-5.24,0-10.49,0-15.73,0-2.22.39-2-2-2-1,0-1,0-1,1Zm-.52.07v-7c0-1.91,0-3.82,0-5.73,0-1,0-1-1.06-1H96c-1.7,0-1.63-.14-1.63,1.58q0,7.95,0,15.9a3.51,3.51,0,0,1,0,.92c-.06.22-.26.55-.44.58-.57.09-.58.47-.58.88v4.07c0,1,0,1.91,0,2.86a.69.69,0,0,0,.8.79h2.31a.65.65,0,0,0,.73-.75c0-.27,0-.55,0-.83Zm-43.6-.06h0V105c0-.21,0-.43,0-.65s-.16-.5-.5-.5H51.27a.53.53,0,0,0-.58.57c0,.28,0,.55,0,.83q0,4.17,0,8.32t0,8.14c0,.52.1,1.08-.66,1.22-.11,0-.24.35-.25.53,0,2.41,0,4.81,0,7.22a.65.65,0,0,0,.74.73h1.76c1.3,0,1.3,0,1.3-1.27Zm-17.41.16h0c0-4,0-8.08,0-12.12,0-1.93.3-1.76-1.78-1.77-1.1,0-1.12,0-1.12,1.16q0,8.22,0,16.46a2.6,2.6,0,0,1,0,.74c-.06.23-.21.56-.39.61-.43.13-.49.41-.49.77,0,2.34,0,4.68,0,7,0,.66.15.77.85.8s1.17,0,1.75,0c1.16,0,1.2,0,1.2-1.2Zm18-.18h0v1.21q0,5.77,0,11.56c0,1,.06,1.09,1.1,1.1h1.85c.56,0,.86-.22.85-.82,0-2.35,0-4.69,0-7,0-.22-.12-.6-.24-.63-.77-.16-.63-.73-.63-1.24,0-5.33,0-10.66,0-16,0-2,.31-1.86-1.88-1.86-1,0-1,0-1,1Zm12.52,0h0c0-3.91,0-7.83,0-11.74,0-2.15.47-2-2.06-2-.54,0-.8.21-.78.76,0,.25,0,.49,0,.74q0,7.31,0,14.61c0,.74,0,1.48,0,2.22,0,.33-.06.63-.46.68s-.47.32-.47.65v7.22a.6.6,0,0,0,.67.69h1.94c1.13,0,1.19-.07,1.19-1.21Zm17.41.1c0-4,0-8.08,0-12.12,0-1.78.3-1.68-1.69-1.68-1,0-1.09,0-1.12,1.09v14.71c0,.8,0,1.61,0,2.41,0,.34,0,.72-.46.79s-.5.37-.5.74c0,2.34,0,4.68,0,7,0,.67.13.77.84.8s1.17,0,1.76,0c1.15,0,1.2-.06,1.2-1.2C84.05,126,84,121.82,84,117.63Zm61,0h0c0-4,0-8,0-12,0-1.9.3-1.75-1.92-1.73H143c-.43,0-.61.23-.6.64,0,.25,0,.5,0,.74q0,8,0,15.91c0,.31,0,.62,0,.93s-.1.79-.65.79-.57.29-.57.67v7.12c0,.55.29.77.81.77h1.39c1.65,0,1.65,0,1.65-1.7Zm-30.49-.07V105.69c0-2-.11-2.08-2.08-1.86-.42,0-.62.21-.61.64,0,.27,0,.55,0,.83q0,8.08,0,16.19a3.27,3.27,0,0,1,0,.83c-.06.19-.28.48-.43.48-.64,0-.67.4-.67.87,0,1.63,0,3.27,0,4.9,0,.71,0,1.42,0,2.13a.61.61,0,0,0,.67.7h2.49a.58.58,0,0,0,.64-.63c0-.28,0-.55,0-.83Zm13,0h0V105.64c0-2,0-2-2-1.81-.45,0-.69.2-.69.66s0,.68,0,1q0,7.11,0,14.24c0,.74,0,1.48,0,2.22,0,.46-.06.84-.66.91a.79.79,0,0,0-.42.58c0,2.4,0,4.8,0,7.21a.65.65,0,0,0,.74.73h1.76c1.3,0,1.3,0,1.3-1.27C127.58,126,127.57,121.76,127.57,117.57Zm30.51,0h0q0-6.39,0-12.77c0-.91,0-1-.93-1-1.74,0-1.64-.32-1.66,1.62,0,4,0,8,0,11.93,0,1.57,0,3.14,0,4.72,0,.39,0,.76-.55.73s-.62.27-.62.71c0,2.37,0,4.75,0,7.12,0,.51.25.73.73.73h1.66c1.41,0,1.41,0,1.41-1.37ZM129.85,75a4.73,4.73,0,0,0-4.74,4.85,4.79,4.79,0,0,0,9.58-.11A4.69,4.69,0,0,0,129.85,75Zm-24.72,38.49h0v-8.22a3.51,3.51,0,0,0-.06-.92.72.72,0,0,0-.39-.43c-1.08-.34-1.57,0-1.59,1.12v.46q0,7.06,0,14.14c0,.83,0,1.67,0,2.5,0,.35,0,.71-.5.74s-.53.36-.53.71c0,2.34,0,4.69,0,7,0,.57.24.85.83.84s1.42,0,2.12,0,.88-.14.88-.87q0-3.47,0-6.94c0-.22-.07-.58-.21-.65-.57-.26-.49-.73-.49-1.18Zm-74.23-.08h0c0-2.9,0-5.8,0-8.7,0-.76-.13-.83-1-.83s-1,.06-1,.81,0,1.79,0,2.68q0,7.19,0,14.35c0,.5.12,1.07-.62,1.26-.13,0-.23.42-.23.64q0,3.48,0,6.94c0,.77.12.87.85.89s1.42,0,2.13,0,.85-.24.85-.83c0-2.34,0-4.69,0-7,0-.22-.12-.6-.25-.63-.77-.16-.63-.73-.63-1.23C30.89,118.91,30.9,116.13,30.9,113.36Zm140.13.25h0v-8.42a3.31,3.31,0,0,0,0-.83.74.74,0,0,0-.34-.48c-1-.4-1.62,0-1.64,1.05,0,.22,0,.43,0,.65v11.66c0,1.57,0,3.15,0,4.72,0,.76-.08.83-.85.87-.49,0-.76.16-.76.69,0,2.37,0,4.75,0,7.12,0,.55.29.77.81.77h1.76c1.2,0,1.28-.06,1.27-1.24,0-2.65-.11-5.3-.13-7.95C171,119.35,171,116.48,171,113.61Zm-109.58-.22h0v-8.23a3.2,3.2,0,0,0,0-.82.75.75,0,0,0-.37-.46c-1-.38-1.59,0-1.62,1.08v.37q0,5.73,0,11.46c0,1.69,0,3.39,0,5.08,0,.43,0,.86-.56,1a.82.82,0,0,0-.36.64c0,2.37,0,4.74,0,7.11,0,.49.22.76.72.76h2.4a.59.59,0,0,0,.68-.67c0-2.44,0-4.87,0-7.3,0-.19-.12-.51-.23-.53-.62-.13-.54-.58-.54-1C61.45,119.06,61.45,116.22,61.45,113.39Zm74.24,0h0c0-2.8,0-5.61,0-8.41,0-1.08-.07-1.14-1.16-1.12-.77,0-.8,0-.85.85,0,.31,0,.61,0,.92v14.15c0,.77,0,1.54,0,2.32,0,.39-.09.75-.59.77s-.52.35-.52.72q0,3.51,0,7c0,.52.21.82.76.81h2.32c.55,0,.74-.28.74-.81,0-2.38,0-4.75,0-7.12,0-.2-.06-.51-.19-.57-.49-.23-.39-.65-.39-1C135.68,119,135.69,116.2,135.69,113.36Zm-91.61,0h0V105a3,3,0,0,0,0-.74.61.61,0,0,0-.32-.38c-1.08-.44-1.75,0-1.76,1.2v.55q0,7.81,0,15.63a7,7,0,0,1,0,1c0,.18-.17.48-.3.5-.61.1-.58.54-.58,1v4.62c0,.71,0,1.42,0,2.13s.13.86.86.88,1.48,0,2.22,0c.49,0,.72-.24.72-.75,0-2.4,0-4.81,0-7.21,0-.18-.11-.48-.24-.53-.57-.2-.49-.64-.49-1.07C44.07,119,44.08,116.17,44.08,113.33Zm131.41,4.24h0V104.91c0-1,0-1.08-1.09-1.08s-1,0-1.05,1c0,.22,0,.43,0,.65q0,8.13,0,16.27c0,1,0,1-.94,1-.49,0-.72.2-.72.72,0,2.37,0,4.74,0,7.12a.64.64,0,0,0,.73.73c.65,0,1.3,0,1.94,0,1.08,0,1.13-.06,1.13-1.17ZM74.57,113.36h0v-8.14a4.69,4.69,0,0,0-.06-.92.75.75,0,0,0-.39-.43c-1.07-.34-1.57,0-1.59,1.13v14.89c0,.74,0,1.48,0,2.22,0,.36-.06.69-.52.74s-.43.29-.43.59c0,2.41,0,4.82,0,7.22,0,.51.23.74.72.74.74,0,1.48,0,2.22,0s.86-.14.86-.88q0-3.48,0-6.94c0-.23-.07-.59-.21-.65-.64-.25-.53-.76-.53-1.24C74.57,118.91,74.57,116.14,74.57,113.36Zm65.52,0H140v-8a7,7,0,0,0,0-1,.72.72,0,0,0-.25-.44,1.12,1.12,0,0,0-1.72,1c0,.19,0,.37,0,.56q0,7.26,0,14.51c0,.71,0,1.42,0,2.13,0,.38-.09.69-.54.7s-.58.32-.58.74c0,2.34,0,4.68,0,7,0,.55.22.8.76.8.71,0,1.42,0,2.13,0s.91-.14.92-.93q0-3.42,0-6.84c0-.23,0-.58-.16-.68-.49-.37-.41-.87-.41-1.35C140.08,118.87,140.09,116.13,140.09,113.39Zm13-.07h0V108.7c0-1.36,0-2.71,0-4.07a.93.93,0,0,0-.27-.71,1.07,1.07,0,0,0-1.68.94c0,3.14,0,6.28,0,9.43,0,2.52,0,5,0,7.58,0,.53,0,1-.74,1-.42,0-.49.32-.49.65q0,3.55,0,7.11a.69.69,0,0,0,.8.79h2c.9,0,1-.11,1-1q0-3.33,0-6.66c0-.26,0-.66-.19-.77-.49-.32-.43-.77-.43-1.23Zm-76.22.05h0v8.5c0,.48,0,.93-.63,1-.16,0-.38.4-.39.61,0,2.37,0,4.74,0,7.12a.7.7,0,0,0,.79.79c.74,0,1.48,0,2.22,0s.84-.26.84-.83c0-2.35,0-4.69,0-7,0-.22-.12-.6-.25-.63-.71-.18-.56-.73-.56-1.2q0-8.27,0-16.54a5.71,5.71,0,0,0,0-.83.67.67,0,0,0-.26-.44,1.07,1.07,0,0,0-1.68,1Zm13.12,0V116c0,2,0,3.95,0,5.92,0,.47-.06.87-.66.91-.44,0-.42.38-.42.69,0,2.35,0,4.69,0,7,0,.54.21.82.75.81H92c.56,0,.75-.28.75-.81,0-2.35,0-4.69,0-7,0-.21,0-.55-.16-.59-.74-.26-.57-.87-.57-1.39q0-8.14,0-16.29a5.62,5.62,0,0,0,0-.92c0-.16-.14-.43-.24-.44a4.39,4.39,0,0,0-1.45,0c-.15,0-.24.58-.24.89C90,107.68,90,110.52,90,113.36Zm19.41,0h0v-4.72c0-1.32,0-2.65,0-4,0-.26-.15-.66-.34-.74-1-.42-1.6,0-1.61,1v.46q0,8.1,0,16.19a1.69,1.69,0,0,1,0,.64c-.09.22-.27.54-.45.56-.55.07-.62.39-.62.84,0,2.28,0,4.56,0,6.85,0,.78.12.89.92.91s1.36,0,2,0,.83-.12.83-.8q0-3.52,0-7c0-.23-.08-.58-.22-.64-.58-.26-.49-.73-.49-1.18C109.43,118.94,109.43,116.14,109.43,113.33Zm13.13.13h0v-8.33c0-.25,0-.49,0-.74s-.16-.53-.5-.54h-.92a.47.47,0,0,0-.52.52c0,.27,0,.55,0,.83q0,8.05,0,16.1c0,.28,0,.55,0,.83s-.09.69-.54.71-.58.25-.58.65q0,3.62,0,7.22a.61.61,0,0,0,.68.69c.77,0,1.54,0,2.31,0s.81-.16.81-.84c0-2.35,0-4.69,0-7,0-.21-.11-.55-.26-.62-.5-.23-.42-.63-.42-1C122.55,119.07,122.56,116.27,122.56,113.46Zm44.06.09h0v-8.5a3,3,0,0,0,0-.74.79.79,0,0,0-.38-.44c-1.05-.34-1.55,0-1.55,1.13v.46q0,8.15,0,16.28c0,1,0,1-1,1.1-.45,0-.66.2-.66.67q0,3.57,0,7.12c0,.56.27.78.79.78h1.76c1.23,0,1.27,0,1.25-1.23,0-2.71-.13-5.41-.16-8.12S166.62,116.39,166.62,113.55Zm-118.29-.17h0v-8.33a2.5,2.5,0,0,0,0-.73.73.73,0,0,0-.37-.45c-1-.32-1.45,0-1.47,1,0,.31,0,.62,0,.93v14c0,.74,0,1.48,0,2.22,0,.39-.08.71-.56.84a.77.77,0,0,0-.41.57c0,2.41,0,4.82,0,7.22a.63.63,0,0,0,.73.73h2.31c.55,0,.77-.28.77-.81,0-2.35,0-4.69,0-7,0-.21-.11-.6-.24-.62-.75-.16-.63-.72-.63-1.23ZM168.31,74H152.57l-.92,0a.63.63,0,0,0-.66.63c-.11.78.13,1.07.94,1.07h32.66c.63-.06.83-.27.85-.86s-.18-.78-.85-.83c-.3,0-.61,0-.92,0ZM35.76,75.73H52c.91,0,1.06-.19,1-1,0-.44-.26-.68-.7-.69l-1,0H20.11c-.27,0-.55,0-.83,0-.66,0-.84.24-.83.84s.21.8.85.85c.31,0,.62,0,.92,0Zm23.4,8.91a2.56,2.56,0,0,0-2.49,2.59,2.53,2.53,0,0,0,2.51,2.46,2.58,2.58,0,0,0,2.54-2.54A2.55,2.55,0,0,0,59.16,84.64ZM61,78.46a1.77,1.77,0,0,0-3.54.07,1.82,1.82,0,0,0,1.81,1.74A1.79,1.79,0,0,0,61,78.46Zm11.23,8.72a3.21,3.21,0,0,0,0,.82c.06.2.25.51.4.52.63,0,1.27,0,1.91-.07L74.72,87a1.08,1.08,0,0,0,0-.18c0-1-.06-1.09-1.11-1.1C72.18,85.73,72.17,85.75,72.19,87.18Zm-1.65,0c-.07-1.49-.07-1.49-1.43-1.47-1.08,0-1.17.1-1.15,1.15,0,1.68.15,1.79,1.8,1.69.72,0,.83-.16.81-.91C70.57,87.52,70.55,87.37,70.54,87.22Zm-6.71,0v.46c0,.83.1.9.89.94,1.61.07,1.67,0,1.66-1.58v-.19c0-1-.07-1-1-1.07C63.83,85.72,63.83,85.73,63.83,87.19Zm15.11.07h0v-.55c0-.85-.12-.93-1-1h-.37c-1.14,0-1.19,0-1.21,1.19,0,1.68.09,1.77,1.77,1.65.53,0,.81-.23.79-.78C78.93,87.63,78.94,87.44,78.94,87.26Zm-9.17,7.88h.73c.47,0,.64-.29.64-.73a.6.6,0,0,0-.66-.69q-.69,0-1.38,0c-.42,0-.59.27-.6.67s.15.72.62.74C69.34,95.15,69.55,95.14,69.77,95.14Zm-8.72-1.41H60.5c-.47,0-.75.18-.75.7s.25.74.73.74a10.76,10.76,0,0,0,1.27,0c.48,0,.56-.39.56-.79a.57.57,0,0,0-.62-.63C61.48,93.72,61.26,93.73,61.05,93.73Zm17.59,0c-.27,0-.55,0-.82,0a.5.5,0,0,0-.46.66c.06.25.24.64.43.68a6.32,6.32,0,0,0,1.63,0c.43,0,.47-.39.47-.75s-.15-.59-.52-.64S78.88,93.72,78.64,93.7ZM126,95.2h.57c.47,0,.73-.23.73-.74s-.24-.73-.72-.73-.86,0-1.28,0-.56.3-.55.69.13.66.55.71Zm20.83-11.14h0c-.19,0-.37,0-.56,0-.45,0-.78.14-.78.68s.15.73.8.76a3.9,3.9,0,0,0,1.28-.07c.2,0,.39-.41.45-.66a.52.52,0,0,0-.45-.68C147.3,84.07,147.06,84.07,146.81,84.06Zm-4.48,0h-.55c-.49,0-.74.22-.73.73s.28.72.76.71.8,0,1.2,0,.59-.35.59-.76a.58.58,0,0,0-.62-.65C142.76,84.07,142.55,84.08,142.33,84.08ZM127.7,87.9v0h-.54c-.48,0-.74.2-.74.71a.64.64,0,0,0,.72.73c.43,0,.85,0,1.28,0s.55-.31.55-.69-.11-.67-.54-.71Zm4.39,0h-.56c-.51,0-.71.28-.69.77s.26.66.7.67h1.2c.47,0,.65-.27.65-.71s-.19-.7-.66-.71C132.52,87.92,132.3,87.93,132.09,87.93Zm-41.31,7h0c.19,0,.37,0,.56,0,.48,0,.74-.21.74-.72s-.25-.73-.74-.73-.86,0-1.29,0-.52.37-.51.74.12.61.51.65S90.54,94.92,90.78,94.93Zm51.51-18.48v0h.64c.46,0,.66-.26.67-.71A.6.6,0,0,0,143,75c-.46,0-.92,0-1.38,0s-.51.28-.52.63.06.7.5.76C141.79,76.44,142,76.44,142.29,76.45Zm4.43,0v0h.64c.44,0,.65-.24.66-.69s-.14-.71-.61-.72-.91,0-1.37,0-.57.28-.57.67.09.68.52.73C146.23,76.44,146.47,76.44,146.72,76.45Zm-34,18.46h.56a.61.61,0,0,0,.7-.66c0-.48-.18-.76-.69-.77s-.8,0-1.2,0-.65.26-.65.71.17.71.64.72C112.29,94.92,112.51,94.91,112.72,94.91ZM138,82.51h.55c.5,0,.73-.23.72-.74s-.27-.71-.75-.7-.8,0-1.2,0-.59.28-.59.67.15.72.62.74Zm4.28,0h.56c.48,0,.75-.2.75-.71s-.25-.73-.73-.73h-1.21c-.48,0-.62.32-.61.75s.16.65.59.67Zm4.38,0h.64c.5,0,.72-.24.72-.74s-.27-.71-.75-.7-.85,0-1.28,0-.53.34-.53.72.13.66.56.68C146.24,82.52,146.46,82.51,146.67,82.51ZM138,84.06h-.36c-.46,0-.88.05-.9.66s.19.75.88.78c.36,0,.73,0,1.1,0s.56-.3.56-.69-.11-.67-.54-.71C138.49,84.07,138.24,84.07,138,84.06Zm-7.55,11.11H131c.43,0,.7-.19.71-.66s-.19-.76-.69-.77-.86,0-1.29,0-.58.28-.57.68.14.66.56.71C130,95.16,130.2,95.16,130.44,95.17Zm-8.88,0v0c.22,0,.43,0,.64,0,.46,0,.65-.27.66-.71s-.21-.7-.66-.7-.92,0-1.38,0-.51.29-.51.64.09.68.52.74C121.07,95.16,121.32,95.16,121.56,95.17Zm-26.44-.26h.55c.5,0,.74-.23.73-.73s-.29-.71-.76-.71H94.53a.59.59,0,0,0-.67.68c0,.49.2.75.71.75ZM138,76.45v0h.55c.43,0,.7-.17.72-.64s-.17-.78-.68-.78-.86,0-1.28,0-.58.29-.58.68.11.67.54.72C137.52,76.44,137.77,76.44,138,76.45ZM99.6,94.9v0H100c.49,0,.85-.12.85-.71s-.31-.75-.82-.74H98.89a.57.57,0,0,0-.61.65c0,.41.1.74.59.77ZM104,93.48h-.56a.63.63,0,0,0-.73.73c0,.52.26.72.75.72s.8,0,1.2,0,.6-.35.59-.77a.57.57,0,0,0-.61-.65Zm4.37,1.45v0h.55a.64.64,0,0,0,.75-.71c0-.51-.23-.73-.72-.73s-.86,0-1.29,0-.53.36-.53.73.12.61.5.65S108.11,94.92,108.36,94.93Zm38.47-16.84h-.65c-.49,0-.71.26-.71.75a.6.6,0,0,0,.68.68c.4,0,.8,0,1.2,0a.61.61,0,0,0,.67-.69c0-.45-.18-.7-.64-.72Zm-4.49,0v0h-.56a.63.63,0,0,0-.73.73c0,.51.29.71.76.7s.8,0,1.19,0a.59.59,0,0,0,.6-.67c0-.43-.16-.71-.62-.74ZM138,79.51v0h.37c.71,0,.9-.21.89-.77s-.4-.69-.87-.68-.74,0-1.1,0-.57.31-.57.69.13.66.55.7A5.93,5.93,0,0,0,138,79.51ZM65.44,93.73v0h-.37c-.45,0-.87.05-.89.66s.18.75.87.79c.34,0,.67,0,1,0a.62.62,0,0,0,.67-.7c0-.45-.19-.7-.64-.72C65.87,93.72,65.66,93.73,65.44,93.73Zm-8.83,1.45a2.16,2.16,0,0,0,.82-.09,1.16,1.16,0,0,0,.43-.69.49.49,0,0,0-.47-.65,11.43,11.43,0,0,0-1.55,0c-.43,0-.51.37-.5.74a.55.55,0,0,0,.55.61Zm82.54-1.45v0h-.37c-.71,0-.9.21-.89.76s.4.69.87.69h1c.46,0,.66-.25.67-.7a.61.61,0,0,0-.64-.72C139.58,93.72,139.37,93.73,139.15,93.73Zm-4.41,0v0h-.55a.64.64,0,0,0-.72.73c0,.52.29.71.76.71s.79,0,1.18,0,.61-.34.6-.76a.59.59,0,0,0-.63-.63ZM74.27,95.18v0h.36c.43,0,.8-.08.83-.63s-.17-.75-.77-.8a11.81,11.81,0,0,0-1.19,0c-.42,0-.59.27-.58.67s.1.67.52.73S74,95.16,74.27,95.18Zm69.3,0h.55c.42,0,.71-.15.73-.63s-.17-.77-.66-.79-.86,0-1.29,0-.58.27-.58.67.15.71.61.74Zm3.23-21.83a1.94,1.94,0,0,0,.82-.11,1,1,0,0,0,.37-.72.71.71,0,0,0-.46-.53A8,8,0,0,0,146,72c-.37,0-.5.31-.5.65s.14.6.51.64S146.48,73.32,146.8,73.34Zm-8.9,0c.33,0,.6,0,.88,0,.44-.06.5-.39.49-.76s-.17-.59-.56-.58-1,0-1.47.06a.5.5,0,0,0-.47.66,1,1,0,0,0,.45.59A1.58,1.58,0,0,0,137.9,73.33Zm-64.46,5v0h.64a.55.55,0,0,0,.62-.63.54.54,0,0,0-.56-.59,8,8,0,0,0-1.47,0,.83.83,0,0,0-.46.55c-.09.34.11.59.49.63Zm-8.34,0c.24,0,.49,0,.73,0s.59-.27.51-.62-.27-.52-.46-.55a5,5,0,0,0-1.55,0c-.18,0-.41.33-.46.54a.49.49,0,0,0,.49.63ZM77.7,77v0h-.65c-.38,0-.64.17-.64.61a.57.57,0,0,0,.64.62c.42,0,.85,0,1.28,0a.52.52,0,0,0,.59-.55.57.57,0,0,0-.58-.67Zm-8.31,1.24v0h.46c.37,0,.68-.06.69-.54s-.16-.71-.63-.7-.87,0-1.3,0a.54.54,0,0,0-.54.62.55.55,0,0,0,.58.58C68.9,78.28,69.15,78.27,69.39,78.27Zm-.17,2.28a3.46,3.46,0,0,0,.89-.06c.18-.06.42-.32.4-.47s-.22-.56-.37-.58a7.24,7.24,0,0,0-1.74,0c-.15,0-.38.32-.38.5a.7.7,0,0,0,.37.52A3.07,3.07,0,0,0,69.22,80.55Zm-4.12,0a2.22,2.22,0,0,0,.75-.06c.2-.1.46-.35.46-.53a.73.73,0,0,0-.45-.53,6.7,6.7,0,0,0-1.55,0c-.16,0-.43.33-.41.47a.83.83,0,0,0,.42.57A2.52,2.52,0,0,0,65.1,80.55Zm8.31,0a2.34,2.34,0,0,0,.77-.06c.21-.1.47-.35.47-.53a.71.71,0,0,0-.47-.52,5.82,5.82,0,0,0-1.56,0,.65.65,0,0,0-.39.5.73.73,0,0,0,.4.51A2.59,2.59,0,0,0,73.41,80.55Zm4.31,0v0c.21,0,.42,0,.64,0s.61-.21.53-.57a.8.8,0,0,0-.49-.51,5.1,5.1,0,0,0-1.46,0,.72.72,0,0,0-.48.51c0,.18.25.45.45.54A2.63,2.63,0,0,0,77.72,80.55ZM64.88,79h0c.43,0,.86,0,1.29,0,.08,0,.16-.11.25-.17a.84.84,0,0,0-.25-.09c-.55,0-1.1,0-1.65,0a6,6,0,0,0-1,.26l1,0Zm8.84,0v0h1A2.21,2.21,0,0,0,75,79c-.06-.06-.13-.15-.2-.15-.76,0-1.52-.06-2.28-.08-.07,0-.13.09-.2.14.08,0,.15.1.23.11C72.93,79,73.32,79,73.72,79ZM65,81.06v0c.55,0,1.1-.08,1.64-.16.11,0,.19-.21.29-.32a1.19,1.19,0,0,1-.31.17,4.64,4.64,0,0,1-.82.12c-.65,0-1.29,0-1.94,0a1.34,1.34,0,0,0-.31.09,1.26,1.26,0,0,0,.34.12C64.23,81.12,64.59,81.08,65,81.06Zm73.32-4a1.74,1.74,0,0,0-.47.06c-.09,0-.15.16-.23.24a1.28,1.28,0,0,0,.32.09c.24,0,.48,0,.71-.05l.63-.07c-.21-.09-.41-.19-.62-.27A1.66,1.66,0,0,0,138.28,77ZM69.12,85.31v0c.22,0,.43,0,.64,0l.45,0a3.27,3.27,0,0,0-.47-.18A1.63,1.63,0,0,0,69.2,85c-.35.05-.7.14-1,.22Zm4.14,0v0a2.62,2.62,0,0,0,.28,0l.77-.11L73.45,85a.62.62,0,0,0-.19,0l-1,.23ZM146.69,77l-.62.28c.12.07.25.22.35.2a3.35,3.35,0,0,0,.66-.26Zm-68.54,8.3.44-.12c-.21-.06-.43-.13-.65-.18a.73.73,0,0,0-.36,0,.84.84,0,0,0-.24.19,1.17,1.17,0,0,0,.24.09C77.7,85.28,77.82,85.27,78.15,85.27Zm-5.08-4.34c-.27,0-.51,0-.75.06s-.18.1-.27.15c.11,0,.22.13.32.12.36,0,.71-.12,1.07-.19A2.44,2.44,0,0,0,73.7,81l-.29-.08C73.29,80.92,73.16,80.93,73.07,80.93Zm4.54,8.13v0l-.9.06c.3,0,.6.09.9.11a3.37,3.37,0,0,0,.55,0,.53.53,0,0,0,.17,0c-.06,0-.12-.09-.18-.09A4.87,4.87,0,0,0,77.61,89.06Zm-12.3,0a4.82,4.82,0,0,0-.56,0,.94.94,0,0,0-.28.1l.26,0,.36,0,.78,0Zm3.92-12.44v0l-.86.13.82.05h.37l.45-.05a3,3,0,0,0-.41-.08A2.17,2.17,0,0,0,69.23,76.62Zm8.54.16.76-.08a5.54,5.54,0,0,0-.81-.07,7.8,7.8,0,0,0-.83.09Zm-4.58,0v0l.86-.1-.9-.07a3.57,3.57,0,0,0-.46,0c-.08,0-.17,0-.26,0a1.71,1.71,0,0,0,.3.09Zm5.2,4.34L79,81a5.78,5.78,0,0,0-.7-.08,5.05,5.05,0,0,0-.68.07ZM143,77.18c-.15-.07-.23-.13-.28-.12a1.78,1.78,0,0,0-.36.19c.05,0,.12.14.17.13A3.57,3.57,0,0,0,143,77.18Zm4.49,3.33.47-.2a.76.76,0,0,0-.25-.06l-.65.17ZM64.57,76.77l.44-.09a2.2,2.2,0,0,0-.44-.05,3.85,3.85,0,0,0-.47.08Zm84.33-1-.18-.43c0,.07-.08.15-.08.22a2,2,0,0,0,.08.33ZM136.11,79.1l-.09-.31c-.05.1-.14.19-.14.28a1.3,1.3,0,0,0,.11.37ZM69.39,89.23l.42-.12a2.12,2.12,0,0,0-.44,0,2.63,2.63,0,0,0-.47.1Zm54.73,5.54-.09-.28c0,.12,0,.24,0,.35a.87.87,0,0,0,0,.28,2.5,2.5,0,0,0,.09.25,1,1,0,0,0,0-.23A2.54,2.54,0,0,0,124.12,94.77ZM73.75,89.24l.36-.1a3.1,3.1,0,0,0-.42-.08,2.25,2.25,0,0,0-.36.06ZM179.24,132.3c.08-.07.16-.1.16-.13a1.73,1.73,0,0,0-.07-.31s-.11.06-.11.09A2.3,2.3,0,0,0,179.24,132.3ZM68.84,81.1,69.3,81a2.2,2.2,0,0,0-.36,0,2.27,2.27,0,0,0-.35,0Zm67.31-.33c-.08,0-.15-.11-.16-.1a3.17,3.17,0,0,0-.23.36l.1.07Zm10,5.49.35-.06a1.34,1.34,0,0,0-.26-.09,1.8,1.8,0,0,0-.32.06Zm-3.87-.06a2.88,2.88,0,0,0-.43-.09,2.23,2.23,0,0,0-.36,0,1.13,1.13,0,0,0,.24.08ZM79.56,87.6l-.07-.34a1,1,0,0,0-.08.28,2,2,0,0,0,.07.31Zm59.34-4.31s-.07-.08-.11-.08-.08.05-.12.08.08.08.11.08S138.86,83.32,138.9,83.29ZM76.44,81.16l.2-.12c-.07,0-.14-.09-.21-.09a.44.44,0,0,0-.21.07Zm-10.1-4.55-.26.09a1.19,1.19,0,0,0,.26,0,.55.55,0,0,0,.18,0ZM64,85.22a.5.5,0,0,0,0-.13s-.06,0-.07,0a.94.94,0,0,0-.12.09ZM71.61,87c0,.2,0,.31,0,.42s.06,0,.09,0,0-.18,0-.26A1.11,1.11,0,0,0,71.61,87Zm66-.85h-.39s0,.06,0,.1a2.26,2.26,0,0,0,.26,0S137.57,86.18,137.65,86.12Zm-13.57-4.68s0-.07,0-.07l-.12-.1,0,.07ZM136,71.53l.09.11s.06,0,.07,0,0-.09,0-.14ZM63.38,80l0-.16s-.06.1-.06.14a.94.94,0,0,0,0,.16Zm74.07,3.34s0-.06,0-.07h-.08l0,.11Zm-3.29,5.8,0-.14h-.13s0,.07,0,.08A.41.41,0,0,0,134.16,89.11ZM59.34,81h-.08s0,.07,0,.08,0,0,.08,0Zm64.23,13.47-.08-.07s0,0,0,.07,0,.06,0,.08Zm-44-17-.08-.08s0,.05,0,.08a.19.19,0,0,0,0,.07Zm64.1,2.8,0-.07a.6.6,0,0,0-.13.09s0,0,0,.07Zm-.43,3.07-.05-.11,0,.06ZM71.34,76h-.11l0,0Zm58.82,12.8a.74.74,0,0,0,0-.14s0,0,0-.06,0,0,0,.06A.37.37,0,0,0,130.16,88.84Zm12.48-8.47-.11,0s0,.05,0,.05S142.6,80.39,142.64,80.37Zm-75.25-3,.06-.08h-.06Zm73.74,0h-.07s0,0,0,.07l.06,0S141.13,77.38,141.13,77.36Zm-3.86,18a.09.09,0,0,0,0,.07h.07s0,0,0-.06S137.29,95.37,137.27,95.37Zm-60.58-.21v-.08l-.05,0ZM140.39,85l0-.07s0,0-.05,0,0,0,0,.06ZM59.12,94.78l0-.06s0,0,0,0,0,0,0,0ZM72.4,89.21l.07,0s0,0,0-.06l-.06,0Zm56.09,5.22,0-.06h-.06ZM59.12,76.15l0-.09,0,0Zm17,18.19,0,.06.07,0Zm-20-8.74s0,0,0,0,0,0,0,0,0,0,0,0S56.15,85.59,56.17,85.6Z"/><path d="M179.88,131.22l-.2.2Z"/><path d="M23.45,104.2h0Z"/><path d="M17.71,132h0Z"/><path d="M124.89,83.67v-.21l.21.2Z"/><path d="M125.28,83.85l-.21-.2Z"/><path d="M125.46,84l-.2-.21Z"/><path d="M61.77,84.76l.2.2Z"/><path d="M61.58,84.58h.21v.21Z"/><path d="M125.07,75.89v-.2h.21v.2Z"/><path d="M134.51,75.69h.21v.2h-.21Z"/></g></svg>