<svg id="Layer_1" data-name="Layer 1" xmlns="http://www.w3.org/2000/svg" viewBox="0 0 200 200"><path d="M166,69.33c0-18-15.72-18-29.58-18-15.52,0-25-.64-25-13.46h-4.55c0,18,15.72,18,29.59,18,15.52,0,25,.64,25,13.47H8.89v91.05H191v-91Zm-72.08,9.1H106V90.56H93.87Zm0,18.2H106v12.13H93.87Zm0,18.21H106V127H93.87ZM75.67,78.43H87.8V90.56H75.67Zm0,18.2H87.8v12.13H75.67Zm0,18.21H87.8V127H75.67ZM57.46,78.43H69.59V90.56H57.46Zm0,18.2H69.59v12.13H57.46Zm0,18.21H69.59V127H57.46ZM39.24,78.43H51.37V90.56H39.24Zm0,18.2H51.37v12.13H39.24Zm0,18.21H51.37V127H39.24Zm-6.08,30.33H21V133.05H33.16Zm0-18.19H21V114.85H33.16Zm0-18.22H21V96.64H33.16Zm0-18.21H21V78.42H33.16Zm91.05,54.62h-85V133.05h85v12.12Zm0-18.19H112.08V114.85h12.13Zm0-18.22H112.08V96.64h12.13Zm0-18.21H112.08V78.42h12.13ZM142.42,127H130.29V114.85h12.13Zm0-18.22H130.29V96.64h12.13Zm0-18.21H130.29V78.42h12.13Zm18.21,18.21H148.49V96.64h12.14Zm0-18.21H148.49V78.42h12.14ZM178.85,127H166.71V114.85h12.14Zm0-18.22H166.71V96.64h12.14Zm0-18.21H166.71V78.42h12.14Z"/></svg>