<svg id="Layer_1" data-name="Layer 1" xmlns="http://www.w3.org/2000/svg" viewBox="0 0 200 200"><g id="ZtesjQ.tif"><path d="M23.86,184.69a58.07,58.07,0,0,1-.84-7.05q-.07-67,0-134v-.34c.14-6.13,1.24-7.23,7.49-7.23l90.56,0h4.35c.35-1,.58-1.64.78-2.26,3.4-10.94,10.58-17.66,22-19.48,15.58-2.49,30,10,30.18,26,.16,11.42,0,22.84,0,34.26,0,22.27.06,44.54,0,66.82-.05,13-.38,26-.58,39-.06,4.34-.77,5.08-5.21,5.11q-48.82.33-97.64.63-17.64.09-35.28-.05c-4.51,0-9-.41-13.52-.67A13.78,13.78,0,0,1,23.86,184.69ZM34.78,57.76c2.46,3.91,2.53,8.06,2.52,12.26q0,41,0,82.08c0,5.4.51,10.88-2.88,15.72,5,1,28.08.5,31.54-.55-.62-2.87-1.69-5.69-1.78-8.53-.33-10.73-.35-21.46-.45-32.19a11.44,11.44,0,0,1,.76-2.46c1.31,1.66,2.29,2.85,3.2,4.09,4.61,6.28,9.32,12.5,13.77,18.9s10.34,12.13,10.49,20.6c3.43.94,33,.86,35.05.09-7.19-9.57-14.57-19.13-21.65-28.9s-14.44-19.54-21-30c14.2-17.4,27.11-35.2,42.82-51.54-11.8-1.47-23.09-.5-34.28-.75-.77,5.53-1.78,8-5.84,13.35-6.85,9-13.82,17.86-20.77,26.77a17.24,17.24,0,0,1-2.39,1.93c-.11-2-.22-3.21-.22-4.42,0-4.87-.06-9.73,0-14.59.1-7.4-.7-14.91,2.86-21.86C61.29,56.11,38.67,56,34.78,57.76Zm131.85,110,.51-.6c-3.1-3.55-2.34-7.71-2.35-11.73q0-32.19,0-64.4c0-1.41-.2-2.83-.32-4.39H137.14c2.7,6.1,1.86,12.12,1.89,18.06.07,15.14.11,30.28,0,45.42,0,6,1.14,12.13-1.9,17.64ZM164.79,40.25c0-7.92-4.92-12.93-12.8-12.95s-13.6,5.46-13.58,12.88A13.09,13.09,0,0,0,151.5,53C158.67,53,165.18,47.74,164.79,40.25Z"/></g></svg>