<svg id="Layer_1" data-name="Layer 1" xmlns="http://www.w3.org/2000/svg" viewBox="0 0 200 200"><path d="M41.06,156.63l-9.71,9.73a11.73,11.73,0,0,0-2.47,13.16C31.15,185,36.8,189,42.31,189h0a11.43,11.43,0,0,0,8.21-3.46c5.19-5.2,4.47-9.9,4-13-.36-2.4-.48-3.21,1.43-5.12,2.16-2.17,4.2-3.08,7.29-4.47,5.22-2.34,12.38-5.54,23.62-16.8l12-12.23-14.3-14.29a13.62,13.62,0,0,1-2.69-3.87Z"/><path d="M178.28,19.31c-22.48,21.75-87.23,87.47-87.23,87.47a4.48,4.48,0,0,0,0,6.34l20.8,20.8a4.48,4.48,0,0,0,6.35,0s26.07-26.25,34.79-35C163.7,88.24,186.92,56,182.43,20,182.21,18.29,180.54,17.12,178.28,19.31Z"/></svg>