<svg id="Layer_1" data-name="Layer 1" xmlns="http://www.w3.org/2000/svg" viewBox="0 0 200 200"><defs><style>.cls-1{fill:#fff;fill-opacity:0;}.cls-1,.cls-2{fill-rule:evenodd;}</style></defs><path class="cls-1" d="M0,.39H198.63V199H0Z"/><path class="cls-2" d="M52.18,105.29l1.27.28L49,119.66H8.79v-1.41h2a5.22,5.22,0,0,0,4.7-2.14c.54-.83.8-2.72.8-5.68V76.91c0-3.24-.35-5.27-1.07-6.08a5.61,5.61,0,0,0-4.43-1.69h-2V67.72H32.31v1.42a14.62,14.62,0,0,0-5.81.76,4.64,4.64,0,0,0-2.27,2c-.41.81-.62,2.77-.62,5.86v32.63a10.61,10.61,0,0,0,.62,4.37A2.79,2.79,0,0,0,25.64,116q1,.38,6,.38H35.4q6,0,8.4-.88a11.07,11.07,0,0,0,4.4-3.12A25.6,25.6,0,0,0,52.18,105.29Z"/><path class="cls-2" d="M58.37,95.54H42.72L40,101.92a10,10,0,0,0-1,3.52,2,2,0,0,0,.87,1.62c.59.47,1.85.78,3.81.92v1.1H30.91V108a7,7,0,0,0,3.28-1.17q1.53-1.43,3.37-5.81L51.79,67.72h1L66.9,101.35q1.69,4.07,3.09,5.26A6.28,6.28,0,0,0,73.85,108v1.1H57.9V108a6,6,0,0,0,3.26-.82,2,2,0,0,0,.86-1.67,12.64,12.64,0,0,0-1.2-4.14l-2.45-5.81Zm-.83-2.21L50.68,77l-7,16.33Z"/><path class="cls-2" d="M107.68,67.37l.57,12.29h-1.47A14.45,14.45,0,0,0,105.62,75a7.75,7.75,0,0,0-3.18-3.3,11.09,11.09,0,0,0-5.23-1.07H89.83v40c0,3.21.36,5.21,1,6a5.81,5.81,0,0,0,4.52,1.62h1.82v1.42H75v-1.42h1.86q3.33,0,4.71-2c.56-.81.86-2.7.86-5.62v-40h-6.3a17.92,17.92,0,0,0-5.21.54A7.21,7.21,0,0,0,67.48,74a11.58,11.58,0,0,0-1.7,5.65H64.32l.62-12.29Z"/><path class="cls-2" d="M114,84.55v19.84h11q4.31,0,5.74-1.29c1.29-1.14,2-3.13,2.15-6h1.36v17.48H133a18.83,18.83,0,0,0-1-4.71,4.65,4.65,0,0,0-2.18-2,11.2,11.2,0,0,0-4.67-.75H114v16.56a15.91,15.91,0,0,0,.29,4.06,2.35,2.35,0,0,0,1,1.15,6.42,6.42,0,0,0,2.81.41h8.52a22.92,22.92,0,0,0,6.19-.59,9.1,9.1,0,0,0,3.7-2.33,28.53,28.53,0,0,0,4.7-6.92h1.48L138.44,132H99.74v-1.37h1.78a6.94,6.94,0,0,0,3.36-.86A3.09,3.09,0,0,0,106.5,128a17.8,17.8,0,0,0,.41-4.85V90.55c0-3.19-.31-5.14-1-5.89-.88-1-2.36-1.48-4.43-1.48H99.74V81.8h38.7l.55,11h-1.45a17.4,17.4,0,0,0-1.72-5.44A6,6,0,0,0,133,85.1a17.16,17.16,0,0,0-5.22-.55Z"/><path class="cls-2" d="M166.14,90.76l11.16,16.63c3.08,4.61,5.37,7.51,6.88,8.73a9.58,9.58,0,0,0,5.69,2v1.41H167.56v-1.41a10.24,10.24,0,0,0,3.3-.47,3.24,3.24,0,0,0,1.32-1,2.46,2.46,0,0,0,.51-1.44,4.88,4.88,0,0,0-.34-1.77,32.62,32.62,0,0,0-2.1-3.37L161.42,96.7l-10.88,14a21.1,21.1,0,0,0-2.07,3,3.7,3.7,0,0,0-.35,1.56,2.49,2.49,0,0,0,1,2,7.46,7.46,0,0,0,3.95.93v1.41H134.67v-1.41a11.57,11.57,0,0,0,3.37-.81,19.5,19.5,0,0,0,4.52-2.69,30.57,30.57,0,0,0,4.9-5.18L159.74,94,149.5,79c-2.78-4.06-5.15-6.73-7.09-8a12.77,12.77,0,0,0-6.71-2V67.57h24V69c-2.05.08-3.44.41-4.2,1a2.49,2.49,0,0,0-1.13,2c0,1,.62,2.32,1.83,4.14l8,11.92,9.24-11.69a21.49,21.49,0,0,0,2-2.83,3.91,3.91,0,0,0,.36-1.58,2.23,2.23,0,0,0-.47-1.42,2.93,2.93,0,0,0-1.45-1.12,13,13,0,0,0-3.64-.37V67.56h18.44V69a11.21,11.21,0,0,0-3.57.68,14.62,14.62,0,0,0-3.8,2.38,43.67,43.67,0,0,0-4.87,5.52l-10.3,13.19Z"/></svg>