<svg id="Layer_1" data-name="Layer 1" xmlns="http://www.w3.org/2000/svg" viewBox="0 0 200 200"><g id="CkerhK"><path d="M72.42,120.78c2.69-2.77,5-5.25,7.46-7.68,2.65-2.69,5.31-5.39,8.05-8,2.14-2,3.19-2.37,6.31-2.4.41.54.91,1.15,1.37,1.79,6.15,8.47,17.81,9.68,25.25,2.36q18.64-18.33,37-37A16.53,16.53,0,0,0,135,46c-4.76,4.3-9.16,9-13.72,13.51-1,1-2,1.89-3.19,3.06a56.86,56.86,0,0,0-34.45-4.77c1-1.26,1.48-2,2.08-2.6,9.64-9.65,19.13-19.46,29-28.89,12.85-12.3,28.17-16,45.08-10.68C176.41,21,186.65,32.8,190.05,49.92c3,14.92-1.08,28.32-11.61,39.28-12.47,13-25.24,25.67-38.16,38.19a44.76,44.76,0,0,1-63.88-1.77C75.09,124.21,73.94,122.64,72.42,120.78Z"/><path d="M130.57,84.76c-.83.94-1.46,1.73-2.16,2.44-4.29,4.31-8.57,8.61-12.89,12.88-2.5,2.47-3.47,2.8-6.85,2.53a17.26,17.26,0,0,0-10.15-8,16.21,16.21,0,0,0-15.18,3.09,32.05,32.05,0,0,0-2.78,2.56Q63.66,117.13,46.76,134a20.17,20.17,0,0,0-5.59,8.52,16.58,16.58,0,0,0,7.17,18.81,16.4,16.4,0,0,0,20-2c4.66-4.42,9.13-9,13.63-13.6a31,31,0,0,0,2.37-3.12c11.31,5.16,22.51,7.22,35,5a19.91,19.91,0,0,1-1.69,2.46c-9.87,9.9-19.48,20.08-29.72,29.58-13.09,12.14-28.58,15.71-45.55,9.82-16.69-5.79-26.65-18-29.55-35.28-2.41-14.4,1.63-27.36,11.87-37.91Q43.49,97,62.85,78.14c18.32-17.87,48.3-16.41,65,3C128.8,82.22,129.6,83.46,130.57,84.76Z"/></g></svg>