<svg id="Layer_1" data-name="Layer 1" xmlns="http://www.w3.org/2000/svg" viewBox="0 0 200 200"><path d="M172.3,155.16c-5.33-2.18-7.61-5.08-7.39-9.4a14.41,14.41,0,0,0-4-10.21c.82-3.14,3.22-14,0-23.43-3.46-10.09-14-25.5-24.92-40.66-4.46-6.22-4.68-13-4.92-20.82-.23-7.47-.5-15.94-4.66-25.35C121.88,15,112.79,9.16,101.47,9.16a34.13,34.13,0,0,0-19,5.77C71.61,22.45,73.05,38.84,74,49.69c.13,1.48.25,2.88.33,4.08.63,10.62,0,16.22-.7,17.92a72.11,72.11,0,0,1-5.44,7.63c-2.63,3.47-5.61,7.39-8.06,11.05-2.91,4.41-5.27,11.14-7.55,17.65-1.66,4.76-3.24,9.26-4.77,12a16.32,16.32,0,0,0-1.58,12.23,12.47,12.47,0,0,0-4,5.1c-1.62,3.46-4.9,5.31-11.74,6.63-3.14.64-5.31,2-6.44,3.93-1.65,2.85-.75,6.44.07,8.89,1.21,3.61.45,5.89-.92,10-.32,1-.67,2-1,3.23a5.85,5.85,0,0,0,.61,5.09c2.59,3.95,10.12,5.34,17.88,6.26,4.63.55,9.7,2.4,14.6,4.19s9.77,3.57,14.29,4.12a15.44,15.44,0,0,0,2,.13,11.89,11.89,0,0,0,10.87-6.38,120.55,120.55,0,0,1,19.6-2.31,85.22,85.22,0,0,1,19.48,2,15.63,15.63,0,0,0,5.87,6.39A14.19,14.19,0,0,0,134,191h0a15.94,15.94,0,0,0,11.61-4.79c3.95-4.19,13.83-9.54,21-13.45,1.61-.87,3.12-1.69,4.44-2.42,4.05-2.25,6.26-5.46,6.07-8.81A7.47,7.47,0,0,0,172.3,155.16Zm-89.71-.8c-.5-3.56-5.08-7.08-10.37-11.16-4.33-3.34-9.23-7.12-10.59-10.32-2.79-6.61-.59-18.23,3.25-24.21,1.9-3,3.45-7.54,5-11.93C71.45,92,73.12,87.09,75,84.94c3-3.35,5.7-9.87,6.19-15,2.77,2.65,7.08,6,11.06,6A6.52,6.52,0,0,0,94,75.7c2.72-.78,6.72-3.1,10.6-5.33,3.33-1.93,7.45-4.31,9-4.53,2.65,3.82,18.08,38,19.65,48.92a51.81,51.81,0,0,1-.73,18.65,14.2,14.2,0,0,0-1.84-.13c-4.29,0-5.43,2.35-5.73,3.75-.76,3.64-.84,15.27-.85,17.89-1.55,2-9.41,11.27-20.69,12.94a89.07,89.07,0,0,1-12.75,1,43.87,43.87,0,0,1-6.29-.38L78.71,162A6.88,6.88,0,0,0,82.59,154.36Zm7.19-107-.52.25c0-.38-.06-.77-.12-1.16-.62-3.57-3-6.15-5.61-6.15a3.27,3.27,0,0,0-.61,0,4.67,4.67,0,0,0-3.47,3.1c.59-3.66,2.67-6.37,5.13-6.37,2.89,0,5.33,3.89,5.33,8.51A12,12,0,0,1,89.78,47.4Zm22.47,2.75a8.82,8.82,0,0,0,.41-2.7c0-4.18-2.65-7.46-6-7.46s-6,3.35-6,7.46a7.87,7.87,0,0,0,0,.84l-.52-.2a11.37,11.37,0,0,1-.57-3.58c0-5,3.19-9.07,7.12-9.07s7.13,4.07,7.13,9.07A10.7,10.7,0,0,1,112.25,50.15Zm-2.9,9.73c0,.26-.17.37-1.5,1.06-.68.35-1.51.79-2.56,1.43l-.7.42c-2.81,1.7-9.4,5.7-11.19,5.93-1.21.17-2-.31-3.65-1.45-.38-.26-.79-.54-1.22-.81-3-2-5-4.2-5.23-5.06,1-.77,3.46-2.69,4.72-3.83,2.55-2.38,5.13-4,6.4-4h.19a64.25,64.25,0,0,1,7.89,2.82c1.24.49,2.32.92,3.07,1.19C108,58.44,109.2,59.49,109.35,59.88ZM130.79,171c1.34-6.07,2.89-14.33,2.64-19.2-.06-1.1-.15-2.31-.25-3.47-.18-2.18-.44-5.41-.17-6.37l.18-.07c0,2.79.62,8.34,5.06,10.27a11.1,11.1,0,0,0,4.49.87c4.45,0,9.38-2.18,11.4-4.2A21,21,0,0,0,157,145a4.67,4.67,0,0,1,.19,1.79c-.26,4.11,1.73,9.55,5.53,11.56l.55.29c1.36.71,4.95,2.6,5,3.49a.74.74,0,0,1-.23.29c-.9.83-4.06,2.44-7.12,4-5.44,2.77-11.59,5.91-14.36,8.82-3.89,4.1-8.3,6.85-10.95,6.85a3,3,0,0,1-.88-.12C131.89,181.11,129.51,176.94,130.79,171ZM32.35,155.51a8,8,0,0,1-.28-3.52c.18-.78,4-1.62,5.68-2a22.43,22.43,0,0,0,6.28-2c2.12-1.29,3.26-3.65,4.27-5.74.73-1.51,1.49-3.07,2.39-3.58a.52.52,0,0,1,.28-.06c1.68,0,5.22,3.54,7.26,6.71.51.8,1.47,2.4,2.58,4.26,3.31,5.54,7.85,13.13,10.22,15.68,2.13,2.28,5.59,6.68,4.74,10.45-.62,2.93-3.94,5.31-4.72,5.84a5,5,0,0,1-1,.1c-4.53,0-13.51-3.78-18.33-5.8l-.71-.3c-2.7-1.13-7.09-1.85-11.35-2.53-3.38-.55-8-1.3-8.78-2-.62-.7.1-3,.74-5a32.37,32.37,0,0,0,1.19-4.48A16.47,16.47,0,0,0,32.35,155.51Z"/></svg>