<svg id="Layer_1" data-name="Layer 1" xmlns="http://www.w3.org/2000/svg" viewBox="0 0 200 200"><g id="PHEyU5.tif"><path d="M69.75,183c.79-.65,1.49-1.68,2.37-1.88,2.4-.54,2.21-2.16,2.26-4,.1-3.49.42-7,.65-10.66l-2,.38.61-6.86a35.91,35.91,0,0,1-4.08,1.88,5.9,5.9,0,0,1-2.18-.17,6.84,6.84,0,0,1,.45-1.91c2.88-4.93,5.81-9.83,8.7-14.69-5.65-3.89-6.07-6.11-2.16-9.73-1-2.08-2-4.2-3-6.36-1.91-4.23-1.37-8.25,1.86-11.5a64.28,64.28,0,0,1,8-6.32c1.8-1.31,3.81-2.34,5.68-3.55s3.46-2.27,3-5.18c-.39-2.75,2.24-3.23,4.58-3.54.19-2.22,1-4.47-1.92-5.66a2,2,0,0,1-1.07-1.5c0-2.51-1.77-2.37-3.54-2.78a54.05,54.05,0,0,1-10.43-3.2c-3.69-1.7-3.82-4-1.07-6.92,1.37-1.45,2.67-2.95,4-4.47.29-.34.42-.82.35-.67l-4.74-8.85-2.85-.77.08-.29,4.26.26C75.05,61.54,73,59.68,71.2,57.6s-3-4.08-4.52-6.16c-1-1.35-.8-2.56.74-3.38,2.46-1.32,4.87-2.75,7.42-3.85a4.45,4.45,0,0,0,3-5.06c-.25-2.94-.32-5.89-.52-8.83-.13-2,.58-3,2.71-2.92,3.73.21,7.47.47,11.2.48a5.07,5.07,0,0,0,3.3-1.22c2.46-2.38,4.7-5,7-7.53,1.26-1.41,2.58-1.54,3.87-.18,2.19,2.31,4.4,4.62,6.4,7.09,1.34,1.67,2.74,2.19,4.77,1.5,3.31-1.13,6.63-2.26,10-3.13,2.5-.63,3.64.19,4,2.73.47,3.14.73,6.33,1,9.5a3.33,3.33,0,0,0,2.9,3.42c3,.73,5.91,1.87,8.84,2.89,1.63.57,2.27,1.73,1.54,3.37-1.33,3-2.61,6-4.09,8.88-.82,1.58-.83,2.66.59,3.94,2.12,1.92,4,4.11,6,6.15,1.17,1.19,1.24,2.38.06,3.54-1.75,1.74-3.48,3.51-5.35,5.11-3,2.58-3.09,2.53-1.83,6.4.37,1.13.8,2.26,1.1,3.41.79,3,.27,3.77-2.78,4a34.33,34.33,0,0,1-5.26.2c-2-.15-2.92.65-3.09,2.62-.39,4.29-.07,5.13-5.78,3.72a48.4,48.4,0,0,1-5-1.83c-.16,1.52-.3,2.91-.43,4.3,0,.24,0,.66.06.69,3.51,1.18,2.72,5.67,6.22,7.37A29.81,29.81,0,0,1,138.55,118c2.84,5.31,2.17,10.38-1.37,15a43,43,0,0,1-5.82,5.61c-1.24,1.1-2.39,1.84-1.09,3.86,1.13,1.74.1,4.21-1.74,5.42-.73.47-1.52.84-2.59,1.43l5.78,9.45-.41.86c-1.88-.25-3.75-.54-5.63-.73a24.52,24.52,0,0,0-2.71,0,8.5,8.5,0,0,0,.37,2.67q5,10.08,10.1,20.07c1,1.91,2.12,3.73,3.18,5.59a3.23,3.23,0,0,1-.58,4.32,16.22,16.22,0,0,1-12.13,4.81,37.55,37.55,0,0,1-8.17-1.33,2.86,2.86,0,0,1-2.13-3.73,24.76,24.76,0,0,1,1.76-5.14,5.09,5.09,0,0,0-.25-5.67c-2.78-4.42-5.15-9.09-7.63-13.55-2.09,2.13-2.22,2.12-4.56-.65-.72-.86-1.41-1.73-2.11-2.6s-1.38-1.74-2.35-3a55.67,55.67,0,0,1-2.39,5,21.78,21.78,0,0,1-2.54,2.92l-2.31-2.51-1.31-1.46c-.51,5-1.22,9.31-1.31,13.64-.07,3.25.73,6.52,1,9.79a3.69,3.69,0,0,1-2.62,4.1A44.14,44.14,0,0,1,65.51,194c-1.88-.31-2.56-1.53-2-3.33a13.06,13.06,0,0,1,6.3-7.76l-2.09,2.66c.8,1.17,1.32,2.47,2.29,3.19s2.17.59,3.28.84a6.73,6.73,0,0,0,.3-2.43,7.26,7.26,0,0,0-1.48-3A7.32,7.32,0,0,0,69.75,183ZM122.2,64.64v.76a6.39,6.39,0,0,0-2,.27c-.74.38-1.71.93-1.94,1.63-3.12,9.43-13.57,12-20.58,5-.49-.49-1.1-1.22-1.64-1.21a60.56,60.56,0,0,0-7.85.56A3.22,3.22,0,0,0,85.41,75a2.92,2.92,0,0,0,2.65,3.17,17.87,17.87,0,0,0,4.25.35,28.27,28.27,0,0,0,4.11-.76c-2.14,2.43-8,2.79-10.46.75a13.12,13.12,0,0,1-1.63-2.27c-.72-1-1.49-1.87-2.09-2.62-2.21,2.44-4,4.43-5.81,6.44-1.56,1.76-1.51,3.06.42,4.38a18.26,18.26,0,0,0,4.44,2.27c7.19,2.39,14.63,2.27,22,1.59,3.73-.35,7.4-1.4,11.21-2.15l-1-2.73c2.25,1.48,3.14,4.16,1.79,5-.21-.5-.41-1-.33-.79L91.93,90.4c.54.8.91,2,1.68,2.38,1.88.79,2.13,2.16,2.06,3.85,0,.94,0,1.87,0,2.27l6.24,2.76c2-1.81,4.37-1.69,6.68.58,1.7-2.14,3.77-2.7,5.66-2,4-1.92,3.88-5.37,4.31-8.65.3-2.28.87-4.53,1.31-6.76,3.5,1.36,4.94,1.25,6.5-.58,1.35-1.59,1.8-4.51.82-6.05-1.73-2.7-4.13-1.35-6.52-.73a4.38,4.38,0,0,1,6.87-.54,5.49,5.49,0,0,1,1,6.42c-1.11,2.47-3.34,4.09-5.8,3.81-1.48-.17-1.9.28-2.28,1.6-.54,1.85-.3,3.08,1.71,3.66.92.26,1.78.7,2.7,1,3.46,1,3.77.87,4.25-2.63.35-2.52,1.39-3.92,4.15-3.81,1.74.07,3.5-.25,5.25-.28s2.42-.94,1.95-2.61-1-3.37-1.58-5a3.86,3.86,0,0,1,1.37-4.85c1.68-1.35,3.31-2.76,4.86-4.25,2.68-2.59,2.67-2.93.17-5.59a56.31,56.31,0,0,0-4.55-4.59c-1.93-1.61-1.85-3.19-.72-5.22,1.31-2.36,2.42-4.84,3.52-7.31.83-1.84.37-3.24-1.7-3.9-2.35-.74-4.67-1.58-7-2.26-3.68-1.06-4.08-1.58-4.32-5.47-.16-2.63-.52-5.24-.76-7.85-.2-2.24-1.23-3.17-3.5-2.43-3,.95-5.91,1.89-8.88,2.78-3.61,1.08-4.21.84-6.59-2C109,24,107.08,22,105.26,19.85c-1.26-1.48-2.38-1.18-3.55.13-2.18,2.43-4.42,4.82-6.6,7.25a4.74,4.74,0,0,1-4.7,1.52c-3.22-.45-6.5-.52-9.76-.73-2.05-.13-2.88.88-2.72,2.89.24,2.87.3,5.74.62,8.59.28,2.48-.46,4.09-2.87,5.09S70.84,47,68.4,48.19c-1.49.72-1.85,1.82-.84,3,2.93,3.54,6,7,9,10.46.06.06.29,0,.13,0,3.17-2.45.13-4.23-.23-6.42L79,57.59l4.67-2.73-.23-4,.86-.06a10.64,10.64,0,0,0,.4,2.43A2.26,2.26,0,0,0,86,54.53c2,.32,4.06.43,6,.6l1.76-3.37,1.16-.09c-2.68,3.45-1.22,5.41,1.57,6.89l3.79-3.6-.92-3.79.72-.2a7.5,7.5,0,0,0,.85,2.05,2.58,2.58,0,0,0,1.75,1c1.89-.09,3.76-.43,5.69-.68l1.76-3.54.62.3-1,3.43,6.13,3.89,3.19-2.69.92,1a15.78,15.78,0,0,0-2.48,1.75,2.25,2.25,0,0,0-.57,1.84c.49,1.74,1.21,3.41,1.85,5.1Zm-31.77,48.5c7.43-1,14.23,0,21.11,1a13,13,0,0,1,7,3.46c1.63,1.41,3,3,4.58,4.55.7.69,1.48,1.3,2.48,2.16a13.7,13.7,0,0,1-1.25,2.8c-2.08,2.82-4.41,5.46-6.41,8.33a8.22,8.22,0,0,0-.13,9.27c1.75,3,4.89,3.4,8,3.15,2.82-.22,4-2.14,3.18-5.8l-1.43,3.81-2.36-1.2c1-1.14,1.94-2.24,2.87-3.36,1.06-1.27,2-2.62,3.14-3.8,1.64-1.73,3.64-3.16,5.06-5,3.66-4.82,3.88-10,.76-15.18a35.88,35.88,0,0,0-12.42-12c-1.43-.89-2.65-1.57-4.29-.26-.62.5-1.8.31-2.73.45a4,4,0,0,0-1.45.31c-1.25.72-2.4,2-3.69,2.18s-2.66-.91-4.08-1.47c-2.85,2.78-4.35,2.77-7.61-.25-1.84,1.63-3.75,2.11-6,.5a2.67,2.67,0,0,0-2.42.84A40.3,40.3,0,0,0,90.43,113.14Zm27.13-48c0-5.88-5-10.61-11.29-10.64-5.66,0-10.61,4.7-10.61,10.14a11,11,0,0,0,11,10.67C112.53,75.33,117.56,70.63,117.56,65.1Zm17,120.91-12.12-23.39c-1.59,4.68-2.59,5-6.43,1.91-.5-.39-1-.81-1.48-1.22l-3.9-3.35c-1.9,3.2-2.25,4.56-1.58,6.86a48.12,48.12,0,0,0,7.91,15.09C124.74,179.17,129.29,180.3,134.54,186ZM76.41,120.63c2.72-1.61,5-.64,7.13.91,1.35-2.36,2.64-4.55,3.88-6.77,1.34-2.39,2.67-4.78,3.93-7.21a3.94,3.94,0,0,0,.08-1.51,4.74,4.74,0,0,0-1.64.33c-2.77,1.73-5.56,3.45-8.22,5.34a82.92,82.92,0,0,0-7.72,6c-2.83,2.54-3.38,6-2.29,9.46a37.24,37.24,0,0,0,3,6.49c1,1.93.6,3.66-.39,5.44l-.21-2-.65-.1c-.21,1.05-.87,2.3-.52,3.09.57,1.26,1.81,2.21,2.77,3.29a12,12,0,0,0,1.81-2.67c1.74-5.13,3.3-10.32,5-15.46.87-2.63.28-3.84-2.48-4.32C78.74,120.71,77.57,120.72,76.41,120.63Zm3.53,42.25-1-.45a28,28,0,0,0-2.84,4.85,26.63,26.63,0,0,0-.93,5.88c-.45,4.22-.75,8.43,2.82,11.72a3.7,3.7,0,0,1,.93,1.65c.73,2.45,2.49,2.57,4.53,2.06.84-.21,1.66-.56,2.51-.75a2,2,0,0,0,1.75-2.58,62,62,0,0,1,1.36-19.67,10.18,10.18,0,0,0-.35-3.19l-.72,0c-1.18,2-2.3,4-3.58,5.86-.44.64-1.39,1.46-1.95,1.35s-1.34-1.1-1.57-1.84A48.65,48.65,0,0,1,79.94,162.88ZM95.17,70.25a67.36,67.36,0,0,1,.06-7.86c.38-3.11.34-4.19-2.6-5.33a17.15,17.15,0,0,0-7.57-1.23c-4.38.4-7.23,4.09-7.4,8.62a9.11,9.11,0,0,0,6.92,9.22C86.92,68.5,92.11,71.5,95.17,70.25Zm-4.26,43.42c-1.23,1-2.44,1.42-2.89,2.3a109.21,109.21,0,0,0-4.87,10.61c-3.17,8.25-5.94,16.65-9.26,24.84-1.35,3.32-3.72,6.24-5.78,9.6,2.49-.5,4.62-1.26,5.76-3.33,2.6-4.74,5.53-9.39,7.39-14.42C84.75,133.79,87.56,124.07,90.91,113.67Zm40.15,75.53c-.56-3.3-3.94-5.51-7.93-5.65-3.82-.14-6.17.92-6.87,3.21C121.69,184.55,126.53,185.74,131.06,189.2Zm-18.63-82a3.1,3.1,0,1,0,.06-6.2,3,3,0,0,0-3.25,3A3.18,3.18,0,0,0,112.43,107.2Zm7.87,23,.68.24c1-1.43,2-2.83,2.84-4.31a1.6,1.6,0,0,0,.06-1.47c-1.59-1.75-3.28-3.41-4.94-5.09l-.47.38Zm-15.19-22.56a3,3,0,0,0,2.85-3,3.18,3.18,0,0,0-3.08-3.27,3.15,3.15,0,1,0,.23,6.28ZM100.68,104a3.3,3.3,0,0,0-3.33-3.5,3,3,0,0,0-2.9,3.13,3,3,0,0,0,3.17,3.12A3,3,0,0,0,100.68,104Zm17.43,83.34c-2.71.57-4,2.25-3.71,4.82.18,1.65,2.53,2.84,5.34,2.7a29.34,29.34,0,0,1-1.22-3.56A37.14,37.14,0,0,1,118.11,187.36Zm3.39-85.77a2.92,2.92,0,0,0-3.15-2.84c-1.61.18-2.8,1.09-2.64,2.76s.73,3.16,2.84,3.16A3,3,0,0,0,121.5,101.59ZM94.9,99.75c-1.28.27-2.69.22-3.55.88a3.18,3.18,0,0,0-.82,2.9c.4,1,1.66,1.64,2.66,2.54Zm-28,86.61c-3.09,3.47-3.5,5.62-1,6.8C65.55,190.74,70.15,189.54,66.91,186.36Zm8.49-3.1c-1.5-2.38-1.62-2.41-3.19-.82l1.4,2Z"/><path d="M125.59,79.49l-.78,4.57-1.26-2.88-1.71,2.16C121.43,80.74,123.45,78.93,125.59,79.49Z"/><path d="M110.35,66.25c-1.16.83-1.85,1.69-2.43,1.63s-1.14-1-1.7-1.59c.56-.55,1.08-1.46,1.7-1.53S109.2,65.49,110.35,66.25Z"/><path d="M86,66c-.63.32-1.35,1-1.87.87A2,2,0,0,1,83,65.29a2.16,2.16,0,0,1,1.62-1.22,5.66,5.66,0,0,1,2.16.78Z"/></g></svg>