<svg id="Layer_1" data-name="Layer 1" xmlns="http://www.w3.org/2000/svg" viewBox="0 0 200 200"><g id="W2d6S0.tif"><path d="M4.42,103q0-17.3,0-34.58c0-4.38,1.54-7.92,5.65-10,3.57-1.79,7.43-1.64,9.92,1.15a15,15,0,0,1,3.75,8.87c.47,21.91.52,43.83.66,65.74.06,9.86,4.74,14.59,14.61,14.59,18.5,0,37,0,55.52,0,5.68,0,10-3.6,10.84-8.61A10.27,10.27,0,0,0,98.66,129a13.1,13.1,0,0,0-3.8-.64c-17.75-1-29.52-13.38-29.31-31,.21-16.69,12.57-28.86,30-29.29,9.58-.23,19.16-.18,28.74-.16,6.67,0,10.37,3.67,10.44,10.11.07,6.66-3.64,10.28-10.69,10.32-8.77,0-17.54,0-26.3,0-7.61,0-12,3.84-12,10.31,0,6.27,4.33,10,11.64,10.17,16.52.33,28.37,12.7,28.31,29.53-.07,16.41-12.08,28.65-28.48,28.85q-30.43.38-60.88.55c-18.72.09-31.94-13-32.05-31.7-.07-11,0-22.08,0-33.12Z"/><path d="M118,37.21c15.9,0,31.81,0,47.72,0,17.25,0,29.4,10.9,30.27,27,1,17.67-10.09,31.19-27.13,33.21-8.67,1-11.71,4.13-12,12.81-.32,9.08-.39,18.17-.56,27.26-.11,6.5-3.68,10.66-9.3,10.83-5.81.16-9.9-4.09-9.88-10.81,0-11.69.15-23.38.54-35.05.35-10.7,10.31-21,22.61-23.64a58.2,58.2,0,0,1,7.69-1C173,77.39,177,74,177.58,69.2A10,10,0,0,0,170,57.8a23.21,23.21,0,0,0-5.78-.49q-47.48,0-94.95,0c-9.44,0-14.37,4.88-14.38,14.37,0,18.67,0,37.34,0,56,0,6.81-3.65,11.16-9.36,11.27s-9.87-4.38-9.91-11.34q-.18-28.48-.22-57c0-19.31,13.6-33.18,32.94-33.36C84.83,37.09,101.39,37.22,118,37.21Z"/></g></svg>