<svg id="Layer_1" data-name="Layer 1" xmlns="http://www.w3.org/2000/svg" viewBox="0 0 197.28 197.27"><path d="M92.61,112.66v1.24q0,26.85,0,53.69c0,1,.31,1.2-1.22,1A69,69,0,0,1,82,166.68c-1.15-.29-2.31-.53-3.42-.91a13.78,13.78,0,0,1-2.81-1.3,5.13,5.13,0,0,1-2.36-3.86A20,20,0,0,1,74,153.8a104.92,104.92,0,0,1,6.79-20.36c.89-2,.77-2.72-.88-4.19-1.32-1.17-2.73-2.25-4.15-3.3a1.56,1.56,0,0,0-2.48.19,22.31,22.31,0,0,0-2.51,2.9c-3.17,4.51-6.27,9.07-9.41,13.6-1.31,1.88-2.63,3.74-4,5.59a8.13,8.13,0,0,1-1.23,1.26,2.59,2.59,0,0,1-3.18.3,10.68,10.68,0,0,1-1.62-1.13,46.6,46.6,0,0,1-12.8-17.07c-1-2.31-.53-2.3,1-3.53,2.23-1.8,4.43-3.67,6.55-5.6,4.32-3.92,8.57-7.9,12.85-11.85.72-.66,1.46-1.28,2.17-1.94a3.67,3.67,0,0,1,2.4-1.11c.56,0,.82-.26.8-.83,0-.73,0-1.46,0-2.18s-.16-.71-.79-.46a9.78,9.78,0,0,0-3.41,2.33c-1.7,1.74-3.36,3.51-5,5.26-.15.15-.29.3-.43.46a.78.78,0,0,1-1.19.12,8.88,8.88,0,0,1-.86-.75,44,44,0,0,1-4.74-6.05,5.73,5.73,0,0,1-.38-.62c-.44-.83-.37-1.16.44-1.61,1.3-.73,2.63-1.4,3.93-2.11.35-.19.67-.44,1-.66-.37-.13-.74-.3-1.12-.4-2.08-.5-4.18-1-6.25-1.5a9.67,9.67,0,0,1-2.09-.91c-1-.55-1-.71-.44-1.68,1.4-2.18,2.83-4.36,4.24-6.54.57-.87,1.13-1.75,1.72-2.6s.74-.83,1.41-.12a66.28,66.28,0,0,0,9.59,8.11,9.54,9.54,0,0,0,1.27.66c0-.46,0-.92,0-1.38-.11-1.73-.25-3.45-.36-5.18a5.86,5.86,0,0,1,.07-1.45,1.16,1.16,0,0,0-.76-1.4c-.65-.32-1.24-.77-1.89-1.1a7.18,7.18,0,0,1-3.52-4.68,27.88,27.88,0,0,1-1-5.93,2,2,0,0,0-.9-1.62,11.71,11.71,0,0,1-2.09-2c-1.43-1.83-2.8-3.7-4.16-5.58a5.28,5.28,0,0,1-.87-3.64,46.71,46.71,0,0,1,1.87-9.67c0-.1.05-.2.07-.3.24-1.08.24-1.1-.9-1-5.24.27-10.47.09-15.7-.07-3.61-.11-7.21-.31-10.8-.58a10.76,10.76,0,0,1-3.2-.81,5.12,5.12,0,0,1-3.35-5.34,15.71,15.71,0,0,1,2-6.51,46.75,46.75,0,0,1,5.7-8.43A54.36,54.36,0,0,1,35.56,16.2a46.76,46.76,0,0,1,17.57-6,56.91,56.91,0,0,1,9.13-.57,23.38,23.38,0,0,1,8.92,1.73,15.42,15.42,0,0,1,7.75,7.52,33,33,0,0,1,2.81,9c.59,3.17,1.08,6.36,1.69,9.52a26,26,0,0,0,2.11,6.4c1.39,2.86,3.37,5.08,6.56,6a.64.64,0,0,1,.52.76c0,.2,0,.41,0,.62V83.13c0,.1,0,.21,0,.31,0,1-.57,1.33-1.27.68C90.05,82.91,88.54,82.93,87,83c-.86,0-1.73,0-2.6,0a.75.75,0,0,1-.93-.7A10.25,10.25,0,0,1,84,76.2c.35-.9,1-1,1.93-1.06.37,0,.43.28.41.58s.19.56.55.58a.52.52,0,0,0,.56-.5c.12-.82.25-1.65.36-2.47a44,44,0,0,1,1.74-8,1.15,1.15,0,0,0,.07-.7,20.72,20.72,0,0,0-1.19-2.52c-.37-.64-.63-.65-1.3-.31s-1.2.71-1.83,1c-1.14.5-2.3.94-3.45,1.4a2.7,2.7,0,0,0-.67.28,3.84,3.84,0,0,1-3.57.49c-1.48-.36-2.93-.82-4.39-1.26a2.19,2.19,0,0,0-2.73.83c-.91,1.27-1.76,2.58-2.66,3.85a2,2,0,0,0-.18,2.25c.71,1.38,1.4,2.78,2.15,4.14s1.62,2.83,2.48,4.22a1.29,1.29,0,0,1-.07,1.61c-.73,1-1.38,2.16-2.1,3.22a2,2,0,0,0-.31,1.76,65.63,65.63,0,0,0,3.29,10,34.08,34.08,0,0,0,2.12,3.69c.35.6.35.57-.29.92a4.32,4.32,0,0,0-.91.68c-1.18,1.13-1.23,1.24-.22,2.55,2.15,2.8,4.36,5.56,6.55,8.34A6.06,6.06,0,0,0,84.49,114l4.43.58a2.71,2.71,0,0,0,2.19-.74C91.55,113.5,92,113.15,92.61,112.66Z"/><path d="M98.67,98.69v-76c0-1.74,0-1.77,1.78-1.7a87.92,87.92,0,0,1,11.79,1.12A80.88,80.88,0,0,1,122,24.32l.3.08c1.11.34,1.11.34,1.11,1.49q0,28.52,0,57c0,1.94-.22,1.72,1.71,1.72H174.7c1.34,0,1.34,0,1.56,1.3a75.78,75.78,0,0,1,.89,17.61,92.83,92.83,0,0,1-1.31,10.51,2.87,2.87,0,0,1-.05.31c-.18.77-.18.77-.95.79h-50c-1.58,0-1.44-.12-1.44,1.49q0,27.46,0,54.93c0,1.36.29,1.21-1.27,1.66a86.29,86.29,0,0,1-14.77,2.89c-2.51.25-5,.32-7.57.42-1.25.06-1.07,0-1.07-1.06V98.69Z"/><path d="M129.32,66.68V28.24c0-1.49-.08-1.4,1.21-.82a78.3,78.3,0,0,1,23,15.32c.75.72.75.72,0,1.45l-23.2,21.64Z"/><path d="M129.32,133c.63.57,1.09,1,1.53,1.39l21.46,20c.82.77.84.62,0,1.39A68.56,68.56,0,0,1,138,166.38c-2.42,1.34-5,2.47-7.45,3.68a5.52,5.52,0,0,1-.67.27c-.37.14-.52,0-.52-.39,0-.2,0-.41,0-.62V133Z"/><path d="M92.61,23.35V45.51c0,1.1-.13,1.19-1.18.79a4.26,4.26,0,0,1-2-1.76A12.53,12.53,0,0,1,87.67,40c-.43-2.38-.82-4.78-1.06-7.18a98.36,98.36,0,0,0-1.9-13.47,25,25,0,0,0-3.2-7.86A13.26,13.26,0,0,0,70.66,5.32c-.86-.05-1.73,0-2.6,0a2.88,2.88,0,0,1-.72,0A3.36,3.36,0,0,1,66.69,5c.14-.19.23-.43.41-.55A17.84,17.84,0,0,1,71.78,2,31,31,0,0,1,79.22.62C83.36.33,87.52.21,91.67,0c.9,0,.94-.18.94,1Z"/><path d="M65,160.32c.2-2,.34-3.88.6-5.73.16-1.16.52-2.29.75-3.45a5.66,5.66,0,0,0,0-1.09,7.1,7.1,0,0,0-.78.77c-1.46,2.06-2.93,4.12-4.36,6.21a6.65,6.65,0,0,1-6.09,2.91A9.34,9.34,0,0,1,49.81,158a41.94,41.94,0,0,1-6.59-6.18A80.13,80.13,0,0,1,32,135.63c-.46-.89-.46-.89.36-1.45,1.19-.81,1.19-.81,1.84.43a71.38,71.38,0,0,0,8.82,13c1.92,2.28,4,4.42,6,6.59A9.71,9.71,0,0,0,54.4,157a4.63,4.63,0,0,0,4.31-1.25,13.24,13.24,0,0,0,1.83-2.25c3.24-5,6.44-10,9.66-15.05.58-.9,1.18-1.8,1.82-2.66a11.25,11.25,0,0,1,1.39-1.54c.52-.48.72-.48,1.27-.05,1,.79,1,.5.35,1.7a58.57,58.57,0,0,0-6.74,19.23,25.25,25.25,0,0,0-.47,6.2,14.28,14.28,0,0,0,.34,2.36,7,7,0,0,0,3.57,4.76,27.47,27.47,0,0,0,3.91,1.66,74.31,74.31,0,0,0,14.58,3.28l1.85.23c.38,0,.55.21.54.61-.06,2.51.38,2.21-1.82,1.93a79.48,79.48,0,0,1-16.87-3.91,28,28,0,0,1-4.61-2.14,8.15,8.15,0,0,1-4.2-6.89C65,162.18,65,161.18,65,160.32Z"/><path d="M145.07,78.51c.93-.88,1.73-1.64,2.54-2.39l18-16.87a2.28,2.28,0,0,0,.22-.22c.3-.35.52-.34.75.1,1,1.83,2,3.63,2.94,5.49a70.51,70.51,0,0,1,4.87,12.7l.18.7c.12.42-.07.57-.47.55H145.57A4.54,4.54,0,0,1,145.07,78.51Z"/><path d="M145.28,121.15H173c1.23,0,1.24,0,.81,1.21a94.72,94.72,0,0,1-7.78,17c-.65,1.08-.47,1-1.4.16-.77-.7-1.53-1.42-2.29-2.13q-8.31-7.78-16.64-15.56a2.75,2.75,0,0,0-.63-.35Z"/><path d="M12.17,125.72,5.69,128c-1.11.39-1.11.39-1.57-.71L4,127c-.25-.65-.25-.65.4-.87L14,122.8c.88-.3.88-.3,1.34.55.07.12.12.25.2.36a1.36,1.36,0,0,1-.14,1.8c-1.76,2-3.48,4.13-5.22,6.2l-.76.84c.41-.09.62-.12.83-.19l6.18-2.16c1.06-.37,1.12-.33,1.53.68.06.13.08.27.15.39.26.46.07.65-.39.8-1.84.61-3.68,1.24-5.51,1.87-1.37.47-2.75.95-4.12,1.44-.28.1-.7.45-.77.39a2.91,2.91,0,0,1-.56-1c-.77-1.88-.78-1.56.41-3C8.79,129.8,10.43,127.83,12.17,125.72Z"/><path d="M119,195c-3.38.13-5.1-2.09-5.57-4.86a5.76,5.76,0,0,1,4.21-6.83,29.23,29.23,0,0,1,4.17-.8c.76-.12.79-.05,1,.7.56,2.43,1.1,4.87,1.65,7.3.18.78.34,1.56.55,2.33.12.44.08.71-.4.88A16.06,16.06,0,0,1,119,195Zm-2.88-6.45a6,6,0,0,0,.09.81,9.52,9.52,0,0,0,.33,1.3c.94,2.57,3,2.86,5.15,2.25.34-.1.42-.28.34-.62-.55-2.42-1.1-4.85-1.63-7.28-.09-.42-.3-.54-.72-.52A3.76,3.76,0,0,0,116.12,188.54Z"/><path d="M184.79,57.31c3.49,0,5.79,2.95,5.94,6.38.15,3.23-3,6-6.6,6a6.26,6.26,0,0,1-5.95-6.5C178.19,59.93,181.18,57.29,184.79,57.31Zm-1.36,9.74a6.86,6.86,0,0,0,4.28-1.92,3.59,3.59,0,0,0,.69-.91A2.81,2.81,0,0,0,186.22,60a6,6,0,0,0-5.57,2.62,2.77,2.77,0,0,0-.11,3.06A2.85,2.85,0,0,0,183.43,67.05Z"/><path d="M184.84,139.65c-3.15,0-6.62-2.52-6.48-6.19a6.14,6.14,0,0,1,5.87-6.2c3,0,6.71,2.25,6.59,6.19A6.12,6.12,0,0,1,184.84,139.65Zm.72-2.73c.11,0,.21,0,.31,0a3,3,0,0,0,3-2.14,2.84,2.84,0,0,0-1.15-3.2,6.72,6.72,0,0,0-3.39-1.47,5.23,5.23,0,0,0-2.05.12,2.82,2.82,0,0,0-1.14,4.87A6.83,6.83,0,0,0,185.56,136.92Z"/><path d="M12.31,91.65c-.06,3.73-2.44,6.12-6,6.08C2.5,97.69,0,95.19,0,91.59s2.48-6.15,6.06-6.1C9.83,85.54,12.37,88,12.31,91.65ZM6,88.22a7.24,7.24,0,0,0-2.91.85,2.88,2.88,0,0,0-.27,4.81,6.52,6.52,0,0,0,6.32.25,2.89,2.89,0,0,0,1.48-2.78A2.56,2.56,0,0,0,8.9,89,27.07,27.07,0,0,0,6,88.22Z"/><path d="M7.21,121.49A5.82,5.82,0,0,1,1.26,116c-.56-5.11,3.8-7.08,7.08-6.68a5.68,5.68,0,0,1,5.16,5.15C14.07,118.61,11.49,121.48,7.21,121.49Zm1-9.5v.06c-.21,0-.42,0-.62,0a5.92,5.92,0,0,0-3.8,1.67,2.81,2.81,0,0,0,1.08,4.66,6.15,6.15,0,0,0,6-1.27,2.65,2.65,0,0,0,.62-.82,2.76,2.76,0,0,0-1.66-4.06A12.46,12.46,0,0,0,8.2,112Z"/><path d="M116,1.4c3.71,0,6.31,2.48,6.28,5.91,0,3.74-2.65,6.58-6,6.45-3.9-.14-6.26-2.41-6.25-5.91C110,4.08,112.55,1.37,116,1.4Zm-3.09,6.18a5.28,5.28,0,0,0,.53,3,2.87,2.87,0,0,0,4.6.55,6.68,6.68,0,0,0,1-6.19A3,3,0,0,0,116.4,3.1a2.74,2.74,0,0,0-2.55,1.51A6.25,6.25,0,0,0,112.93,7.58Z"/><path d="M51.88,184.93A3.63,3.63,0,0,1,49,183.08a2.49,2.49,0,0,1,1.37-3.57,4.29,4.29,0,0,1,1-.19c1-.1,1-.1.7-1-.13-.39-.27-.78-.38-1.19s-.28-.57-.7-.26c-.62.45-1.25.87-1.9,1.28a1.48,1.48,0,0,1-2.32-.4c-.3-.38-.22-.56.2-.77,1.15-.56,2.29-1.17,3.41-1.78.67-.37.65-.39.42-1.15s-.51-1.73-.78-2.59c-.11-.36.06-.47.37-.35a10,10,0,0,1,1.79.82A2.45,2.45,0,0,1,53,173c.39,1,.36,1,1.35,1a4.81,4.81,0,0,1,3.8,1.61A3.08,3.08,0,0,1,58,180a3.42,3.42,0,0,1-2.13.71c-.57,0-.65.21-.61.75A3.11,3.11,0,0,1,51.88,184.93Zm4.47-7.19a2.21,2.21,0,0,0-2-2.19c-.5,0-.6.08-.47.6.21.8.45,1.59.69,2.37a8.24,8.24,0,0,0,.35.81,3.47,3.47,0,0,0,.9-.61A4.53,4.53,0,0,0,56.35,177.74Zm-3.25,4c-.15-.45-.22-1.05-.41-1.09a1.42,1.42,0,0,0-1.11.32,2.92,2.92,0,0,0-.77,1.17.86.86,0,0,0,.44,1.06.8.8,0,0,0,1.12-.17A8.22,8.22,0,0,0,53.1,181.74Z"/><path d="M13.81,148.76a1.36,1.36,0,0,1-.27-.15,2.08,2.08,0,0,1-.24-.34c-1.27-2-1.13-1.74.65-2.7.71-.37,1.41-.75,2.12-1.11.35-.18.41-.37.21-.73-.53-1-1.05-1.95-1.54-2.95-.21-.42-.45-.42-.82-.22l-2.85,1.5c-.75.37-.82.35-1.24-.35-.3-.5-.56-1-.83-1.55.49-.29,1-.59,1.49-.86,2.75-1.47,5.51-2.92,8.26-4.38.63-.34.64-.36,1,.27,1.25,2.1,1.17,1.64-.68,2.66-.88.48-1.77,1-2.67,1.4-.32.17-.36.33-.18.65.56,1,1.1,2,1.62,3,.18.36.37.42.73.22,1.12-.61,2.26-1.2,3.4-1.79.68-.35.77-.34,1.17.3s.59,1.08.88,1.62c-.51.29-1,.6-1.51.87l-8.26,4.37Z"/><path d="M89.92,197c-1.08-.19-2.19-.3-3.25-.58a2.85,2.85,0,0,1-2.35-2.58,3.08,3.08,0,0,1,1.8-3.32c.6-.31.58-.32.27-1-.77-1.59-1.52-3.18-2.29-4.76-.14-.29,0-.38.22-.43a2.87,2.87,0,0,1,3.45,1.79c.33.73.57,1.49.87,2.23a2.94,2.94,0,0,0,.48.91,2.61,2.61,0,0,0,.77.43,3.44,3.44,0,0,0,.27-.71c.14-1,.25-2.06.37-3.09.09-.76.12-.79.9-.78.41,0,.83.05,1.24.05s.6.22.54.66c-.18,1.44-.33,2.89-.49,4.34q-.28,2.73-.58,5.47c0,.24-.07.48-.09.72a.47.47,0,0,1-.55.48H89.94Zm-2.81-3.68a1.86,1.86,0,0,0,1.86,2c.33,0,.53,0,.57-.42q.17-1.55.36-3.09c0-.31-.11-.42-.39-.5A1.86,1.86,0,0,0,87.11,193.33Z"/><path d="M14.87,76.17a10.19,10.19,0,0,1-1.31,4.28,5,5,0,0,1-3.9,2.62c-2.59.27-6.06-.81-7-4.39A7.78,7.78,0,0,1,3.93,72c.46-.67.71-.72,1.17-.42A1.07,1.07,0,0,1,5.52,73c-.09.19-.24.35-.32.54a12.56,12.56,0,0,0-.76,1.92,3.47,3.47,0,0,0,2,4.19A5.46,5.46,0,0,0,10,80.1a4,4,0,0,0,3.07-3.29c.07-.44,0-.72-.51-.82-.92-.18-1.82-.43-2.74-.61-.48-.09-.74-.26-.64-.81s.11-1,.17-1.44a.53.53,0,0,1,.72-.52c1.21.28,2.43.54,3.63.87a1,1,0,0,1,.61.61C14.56,74.76,14.7,75.47,14.87,76.17Z"/><path d="M189,110.45c-.83-.07-1.66-.15-2.49-.19a1,1,0,0,1-.84-.51,5.36,5.36,0,0,1-.81-2.86,8.21,8.21,0,0,1,.63-3.66c1.14-2.73,3.56-3.61,6.19-3.29,4.2.51,5.7,4,5.47,7.09a7.19,7.19,0,0,1-.9,3.27c-.35.59-.61.7-1.08.49a1,1,0,0,1-.63-1.27,7.23,7.23,0,0,0,.26-.68,13.08,13.08,0,0,0,.42-2.54,3.12,3.12,0,0,0-2-3,5,5,0,0,0-5,.27,3.82,3.82,0,0,0-1.75,3.35c0,.45.17.69.67.71,1,0,1.94.11,2.91.16.32,0,.53.07.55.44s.12,1,.12,1.56-.11.73-.72.73a8.94,8.94,0,0,1-1-.06Z"/><path d="M169.24,149.78c.08.06.19.09.24.17s.24.42.35.63c1.58,3,3.09,6,4.78,8.88a1.74,1.74,0,0,1-.17,2.32c-.61.73-.61.79-1.57.47l-9-3a15.11,15.11,0,0,0-1.49-.46c-.55-.12-.46-.37-.24-.72,1.16-1.93,1.16-1.93,3.24-1.17l.3.12c1.16.36.82.49,1.61-.44.52-.6,1-1.25,1.54-1.83a.7.7,0,0,0,.06-1c-.36-.55-.63-1.16-1-1.71a.91.91,0,0,1,.17-1.3l.84-.78A1.74,1.74,0,0,1,169.24,149.78Zm2.84,9.64.17-.17c-.32-.52-.64-1-.95-1.56-1.21-2.05-1.21-2.05-2.56,0-.21.32-.19.49.15.62Z"/><path d="M142.92,11.52c-.22,2.49-.46,5.08-.69,7.66-.09,1.07-.16,2.14-.26,3.21-.06.62-.08.63-.7.42-.45-.16-.89-.37-1.34-.54a.92.92,0,0,1-.64-1.14c.11-.61.13-1.24.24-1.85a.71.71,0,0,0-.45-.91c-.88-.39-1.75-.82-2.61-1.27a.64.64,0,0,0-.83.13c-.53.5-1.08,1-1.59,1.5a.81.81,0,0,1-1.1.14c-1.6-.82-1.61-.86-.27-2.06,2.41-2.13,4.87-4.21,7.18-6.45A1.62,1.62,0,0,1,142,10C142.94,10.43,143,10.42,142.92,11.52Zm-2.57,1.32-.18-.08-2.56,2.5c-.23.22-.07.37.12.47.59.3,1.18.57,1.76.87.34.17.45,0,.48-.29C140.11,15.15,140.23,14,140.35,12.84Z"/><path d="M100.69,197.26c-.83,0-.85,0-1.21-.81q-1.77-4.26-3.53-8.53c-.25-.6-.52-1.2-.79-1.8-.13-.3,0-.47.29-.51l1.75-.2a.83.83,0,0,1,1,.62c.24.65.49,1.29.72,1.95a.68.68,0,0,0,.76.53c1,0,1.93-.07,2.9-.08a.69.69,0,0,0,.74-.57c.22-.69.5-1.36.73-2.05a.77.77,0,0,1,.86-.59h.1c1.67,0,1.73.08,1.14,1.63-1.24,3.26-2.47,6.53-3.73,9.78a.76.76,0,0,1-.45.43A7.16,7.16,0,0,1,100.69,197.26Zm.5-3c.44-1.32.8-2.39,1.15-3.46.09-.26.19-.6-.25-.6-.69,0-1.38.05-2.06.11a.44.44,0,0,0-.23.32C100.22,191.78,100.67,192.91,101.19,194.26Z"/><path d="M162.13,165.59c-1-1.13-2-2.27-3-3.38-.61-.66-.62-.65,0-1.3.29-.3.6-.58.88-.88s.57-.3.87,0c.72.79,1.46,1.57,2.19,2.35,1.68,1.79,3.35,3.6,5.05,5.37.33.34.32.56,0,.85-.91.89-1.82,1.8-2.74,2.68a4.17,4.17,0,0,1-.87.56,3.39,3.39,0,0,1-4.51-.7,3.74,3.74,0,0,1-.54-4.59c.69-1.18,1.28-1.39,2.65-.95.14.43-.23.61-.42.87a1.65,1.65,0,0,0-.11,2.1,4,4,0,0,0,.81.93,1.88,1.88,0,0,0,2.76-.25c.1-.11.16-.43.08-.51C164.2,167.69,163.16,166.64,162.13,165.59Z"/><path d="M153.94,179.49a4,4,0,0,1-3.55-3,3.87,3.87,0,0,1,1.55-4.1,1.26,1.26,0,0,1,1.27-.11c.61.3.63.53.1,1.09a2.27,2.27,0,0,0,2.77,3.43c.64-.39.67-.48.22-1.09q-2.55-3.48-5.11-6.94c-.48-.64-.5-.65.07-1.11,1.92-1.59,1.47-1.37,2.72.29,1.85,2.46,3.67,4.95,5.5,7.42.2.26.42.45.07.77a14.45,14.45,0,0,1-3.75,2.75A14.85,14.85,0,0,1,153.94,179.49Z"/><path d="M128.82,191.49a1,1,0,0,1,.79-1.08c.72-.26,1.42-.55,2.14-.79.4-.13.47-.32.32-.69-.24-.61-.48-1.23-.68-1.85-.13-.43-.35-.42-.7-.29-.87.34-1.74.66-2.63,1-.53.18-.6.11-.66-.42-.11-.91.08-1.25.94-1.59.58-.23,1.17-.43,1.75-.64.36-.13.49-.32.34-.71-.28-.71-.54-1.42-.78-2.14a.54.54,0,0,0-.81-.37l-3.21,1.19c-.55.2-.71.1-.66-.45a1.62,1.62,0,0,1,1.15-1.66c1.44-.46,2.86-1,4.31-1.49.85-.27,1-.18,1.32.65,1.14,3.08,2.26,6.17,3.42,9.25.18.48,0,.71-.37.88l-3.36,1.37c-.55.22-1.12.38-1.65.62C129,192.59,128.84,192.52,128.82,191.49Z"/><path d="M195.72,115.89c-.35,1.8-.69,3.61-1,5.41-.07.34-.25.43-.6.3a1.25,1.25,0,0,1-1-1.59c.09-.65.25-1.29.37-1.94s.13-.72-.61-.88c-.54-.12-1.09-.21-1.63-.32s-.62.06-.7.51c-.15.92-.39,1.82-.55,2.75-.08.46-.26.47-.63.3-.9-.4-1.11-.8-.91-1.8.11-.58.22-1.16.35-1.73.09-.4-.06-.57-.45-.64-.72-.12-1.43-.26-2.14-.43-.48-.12-.72,0-.82.51-.2,1-.39,2-.62,3a5.73,5.73,0,0,1-.3.82,6.1,6.1,0,0,1-.79-.47,1.35,1.35,0,0,1-.51-1.39c.33-1.56.64-3.12,1-4.67.2-.85.37-.92,1.26-.74,3.09.61,6.17,1.28,9.27,1.83C195.68,114.94,195.73,115.08,195.72,115.89Z"/><path d="M28.48,158.65a4.86,4.86,0,0,1,.83.53c.47.45.89,1,1.34,1.45.23.25.42.41.75.08.56-.57,1.16-1.1,1.77-1.61.33-.28.27-.51,0-.78l-2.39-2.61c-.46-.49-.45-.5.17-.74a1.56,1.56,0,0,1,2,.4c1,1.15,2,2.26,3,3.43.61.73.57.89-.15,1.55-2.4,2.2-4.81,4.39-7.2,6.61-.38.36-.63.31-.95,0-.8-.81-1.62-1.61-2.42-2.43-.55-.57-1.06-1.19-1.62-1.76-.28-.3-.18-.45.12-.63a1.3,1.3,0,0,1,1.92.21c.46.47.92.95,1.34,1.45s.56.45.93.07a16.52,16.52,0,0,1,1.31-1.19c.33-.28.38-.51,0-.84-.63-.65-1.22-1.33-1.82-2s-.46-.58.14-.87C27.87,158.85,28.14,158.77,28.48,158.65Z"/><path d="M185.25,93.76c0-.63,0-1.25,0-1.87s.17-.91.92-1l3.63-.19c2.08-.11,4.16-.18,6.23-.33.57,0,.77.14.81.64l.42,5.69c0,.44-.13.53-.55.46-1-.19-1.22-.44-1.28-1.43,0-.62-.07-1.25-.09-1.87s-.19-.77-.76-.69a17.52,17.52,0,0,1-1.77.11c-.41,0-.54.24-.51.6.05.87.12,1.73.15,2.6s-.05.86-.79.66-1-.44-1-1.22-.1-1.32-.13-2c0-.39-.15-.57-.57-.54-.69.06-1.38.08-2.07.12s-.8.05-.78.87c0,1,.11,1.94.15,2.91a6.73,6.73,0,0,1-.09.88,8.34,8.34,0,0,1-.89-.26,1.31,1.31,0,0,1-.83-1.2c-.05-1-.14-2-.22-3Z"/><path d="M173,52.61a5.49,5.49,0,0,1,.83-3c1.78-2.71,6.32-4.61,9.85-1a7.61,7.61,0,0,1,2.15,4.17c.12.81,0,1-.56,1.11a1,1,0,0,1-1.23-.78,10.63,10.63,0,0,0-.72-1.93,3.54,3.54,0,0,0-4.6-1.71,6.43,6.43,0,0,0-1.78,1,3.77,3.77,0,0,0-1.2,4.48,7.82,7.82,0,0,0,1.85,2.73c.36.37.34.46-.12.6a1.87,1.87,0,0,1-2-.4A8.12,8.12,0,0,1,173,52.61Z"/><path d="M28.85,151.71a6.19,6.19,0,0,1-4,5.68,5.85,5.85,0,0,1-6.13-1,7.47,7.47,0,0,1-2.67-4.1c-.18-.78-.08-1,.45-1.17s1,0,1.29.71a11,11,0,0,0,.74,1.59,3.66,3.66,0,0,0,5.28,1.37,4.24,4.24,0,0,0,2.46-4.31,5.26,5.26,0,0,0-1.5-2.9c-.21-.22-.45-.43-.67-.65s-.36-.4-.54-.6a5.65,5.65,0,0,1,.89-.44,1.52,1.52,0,0,1,1.37.32A7.82,7.82,0,0,1,28.85,151.71Z"/><path d="M66.63,191.9a5.13,5.13,0,0,1-3.81-1.63c-.33-.33-.47-.66-.09-1.07s.81-.59,1.27-.3.66.51,1,.7a3.33,3.33,0,0,0,1.17.37,1,1,0,0,0,1.09-1.42,4.47,4.47,0,0,0-.68-1.15c-.51-.66-1.06-1.29-1.57-1.94a3.39,3.39,0,0,1,2-5.36,5.5,5.5,0,0,1,5,1.6c.61.6.62.94.21,1.54s-.62.73-1.23.14A4.83,4.83,0,0,0,69,182.07a1.35,1.35,0,0,0-1.59.42,1.29,1.29,0,0,0,.08,1.55c.36.51.77,1,1.15,1.48a13.83,13.83,0,0,1,1,1.43A3.32,3.32,0,0,1,66.63,191.9Z"/><path d="M160.2,36.1a5.51,5.51,0,0,1-4.73-3.66,1.2,1.2,0,0,1,1.07-1.63c.14,0,.35.17.43.32a11.09,11.09,0,0,0,.71,1.37A4.78,4.78,0,0,0,159,33.68a1.11,1.11,0,0,0,1.72-1,11.24,11.24,0,0,0-.41-2,13,13,0,0,1-.43-2,3.3,3.3,0,0,1,4.79-3.26,5.26,5.26,0,0,1,2.74,2.86c.26.66.2.87-.3,1.12a.91.91,0,0,1-1.34-.29c-.16-.23-.27-.5-.44-.71a4.68,4.68,0,0,0-.77-.83,1.13,1.13,0,0,0-1.43-.18,1.14,1.14,0,0,0-.48,1.28c.13.65.33,1.28.49,1.91s.35,1.2.46,1.82A3.4,3.4,0,0,1,160.2,36.1Z"/><path d="M185.62,144.67c-.1.24-.14.41-.22.57-1,1.8-1.93,3.59-2.88,5.4-.2.37-.38.28-.63,0a1.4,1.4,0,0,1-.32-2c.35-.64.7-1.28,1.09-1.9.24-.39.29-.64-.2-.88-.65-.32-1.27-.71-1.89-1.08-.36-.22-.59-.24-.82.2-.44.85-.94,1.69-1.43,2.53-.32.56-.42.56-.88.09a1.22,1.22,0,0,1-.23-1.77c.31-.58.62-1.16,1-1.71.25-.39.18-.6-.21-.81-1-.56-2.05-1.16-3.1-1.71-.42-.22-.57-.45-.31-.89s.39-.81.61-1.2c.39-.68.41-.69,1.12-.28,2.57,1.44,5.12,2.9,7.68,4.35.42.24.86.46,1.27.71A2.18,2.18,0,0,1,185.62,144.67Z"/><path d="M129.29,9.86l2.44-2.14c.36-.32.71-.66,1.08-1s.43-.63.86-.43a13.29,13.29,0,0,1,1.43.79c.06,0,0,.34-.06.44a5.05,5.05,0,0,1-.76.7c-1.28,1-2.55,2-3.85,3a2.85,2.85,0,0,0-1,1.5c-.36,1.15-.8,2.29-1.13,3.45-.15.56-.42.62-.9.52-2-.42-2-.45-1.39-2.38a12,12,0,0,1,.52-1.46,5.44,5.44,0,0,0,.18-4c-.41-1.43-.74-2.88-1.09-4.33-.16-.65-.07-.77.58-.65,2.26.42,2,.2,2.43,2.26C128.82,7.38,129,8.53,129.29,9.86Z"/><path d="M11,64.59,8.73,61.77l-.41-.48c-.79-.94-.78-1.36,0-2.33.29-.38.56-.37.84,0s.64.82,1,1.24c.79,1.09,1.6,2.18,2.37,3.29a3.16,3.16,0,0,0,1.61,1.24c1.08.37,2.14.8,3.21,1.2.79.3.79.3.55,1.11-.09.3-.21.59-.32.88-.32.87-.33.88-1.18.57-1.1-.41-2.2-.83-3.3-1.27A2.89,2.89,0,0,0,11.29,67c-1.83.39-3.67.75-5.5,1.12-.76.15-.88,0-.71-.72.46-2.07.33-1.94,2.25-2.21l3-.45C10.5,64.73,10.69,64.67,11,64.59Z"/><path d="M31.59,168.92a4.34,4.34,0,0,1,.74.38q.73.58,1.41,1.23c.33.31.55.28.85-.06,1-1.19,2-2.35,3-3.53.88-1,1.77-2,2.62-3.09.3-.37.53-.49.92-.15s.77.58,1.14.9.49.5,0,1q-1.92,2.25-3.86,4.48c-.64.73-1.26,1.47-1.91,2.2-.27.3-.24.51.06.76.62.51,1.22,1,1.81,1.56s.52.69-.13,1.06-1,.41-1.63-.17c-2-1.74-4-3.46-5.94-5.19-.72-.63-.67-.85.23-1.21C31.16,169,31.33,169,31.59,168.92Z"/><path d="M175.31,38.88a7.36,7.36,0,0,1-.94-.67,16.38,16.38,0,0,1-1.16-1.34c-.24-.3-.44-.35-.75-.06-.64.58-1.31,1.13-2,1.7-1.57,1.36-3.14,2.72-4.7,4.1-.31.28-.49.34-.84,0-1.67-1.52-1.68-1.51,0-3,1.87-1.6,3.72-3.22,5.6-4.81.4-.33.49-.57.09-1a22.36,22.36,0,0,1-1.56-1.8c-.36-.44-.3-.63.2-.87a1.18,1.18,0,0,1,1.77.37L176,37.35c.16.18.31.37.48.55s.22.43-.09.56S175.75,38.71,175.31,38.88Z"/><path d="M72.47,192l1.92.45c1,.25.9.05,1-.61.6-2.66,1.22-5.32,1.83-8,0-.17.09-.33.12-.5s.2-.43.5-.36l.21,0c2.11.28,2.11.27,1.63,2.35-.53,2.25-1,4.51-1.57,6.76l-.11.41c-.13.47-.06.77.53.87a21.63,21.63,0,0,1,2.22.52c.64.16.7.37.34,1-.49.79-.69.85-1.59.63-2.52-.62-5-1.2-7.56-1.82a4.41,4.41,0,0,1-.81-.35,3.61,3.61,0,0,1,.48-.89A3.34,3.34,0,0,1,72.47,192Z"/><path d="M184.16,83.54c0-.1,0-.21,0-.31,0-.93.06-1,1-1.21l2.77-.43,6.77-1.07c.85-.13.85-.13,1.06.68.09.37.18.74.24,1.12.09.59,0,.74-.61.84-1.7.3-3.41.56-5.13.83-1.06.16-2.12.3-3.18.48-.9.15-.94.17-.84,1s.31,1.92.46,2.88c.09.53,0,.64-.49.53-.78-.2-1.39-.55-1.51-1.48-.16-1.3-.39-2.6-.59-3.9Z"/><path d="M139.08,176.44a1.4,1.4,0,0,1,.72-1.39c1.31-.72,2.59-1.47,3.91-2.16.79-.4.95-.32,1.41.46q2.53,4.36,5.08,8.72c.16.27.23.48-.09.68l-1.48,1a.44.44,0,0,1-.7-.14c-.2-.29-.38-.58-.55-.88-1.31-2.25-2.6-4.51-3.9-6.75-.38-.65-.41-.67-1-.34-.86.46-1.68,1-2.51,1.47-.66.39-.77.34-.85-.43A1.48,1.48,0,0,1,139.08,176.44Z"/><path d="M184.91,80.05a1.59,1.59,0,0,1-1.74-1.22c-.38-1.41-.74-2.82-1-4.24-.18-.9-.07-1,.79-1.25,3.21-.86,6.43-1.7,9.64-2.58.48-.13.71,0,.83.47a10.52,10.52,0,0,0,.36,1.08c.32.74.14,1-.65,1.16l-6.73,1.78c-.44.11-.87.22-1.3.35-.78.23-.83.28-.64,1.08s.45,1.67.69,2.5a1.79,1.79,0,0,0,.13.39C185.42,80,185.21,80.07,184.91,80.05Z"/><path d="M148.71,27.49a4.13,4.13,0,0,1-.81-.33c-1.27-.83-2.54-1.66-3.78-2.54-.64-.45-.67-.67-.27-1.3l5.56-8.63c.19-.29.35-.39.66-.2.47.28,1,.55,1.44.82a.52.52,0,0,1,.21.85c-.17.26-.32.54-.49.8l-4.07,6.26c-.6.93-.61.94.35,1.58.75.5,1.53.95,2.29,1.43.47.29.48.39,0,.7S149.08,27.3,148.71,27.49Z"/><path d="M12,103.74c0,.45,0,.9,0,1.35,0,.75-.19.9-.92,1-1.07.07-2.15.12-3.22.18-2.32.12-4.64.23-7,.37-.39,0-.59-.07-.62-.46s-.09-.9-.13-1.35c-.07-.77,0-.9.83-1,1.18-.08,2.35-.13,3.53-.19,1.63-.08,3.26-.15,4.88-.24.74,0,.8-.07.79-.77,0-1-.12-2-.17-3,0-.62.06-.68.63-.48a1.56,1.56,0,0,1,1.23,1.58c0,1,.12,2,.19,3Z"/><path d="M105.74,12.23l-3.71-.4c-.56-.06-.77-.36-.73-.91.13-2.08.24-4.15.36-6.23.08-1.28.17-2.55.22-3.83,0-.53.2-.75.73-.75,2.25,0,2.09-.16,1.93,2-.18,2.41-.32,4.84-.46,7.26,0,.87,0,.92.9,1s1.93.13,2.9.16c.44,0,.55.16.36.58a1.61,1.61,0,0,1-1.76,1.13h-.73Z"/><path d="M89.21,91.48c-2.07-.07-4.15-.15-6.22-.2-.51,0-1,.13-1.54.14a2.06,2.06,0,0,1-.65-.21c.1-.17.16-.41.31-.51a16.37,16.37,0,0,1,2.43-1.55,25.69,25.69,0,0,1,7.25-1.68h.1c1.63,0,1.73.1,1.72,1.73V90c0,1.2,0,1.22-1.23,1.45a3.19,3.19,0,0,1-.62.08H89.21Z"/><path d="M92.61,98.06c0,.35,0,.7,0,1,0,.55-.22.76-.73.73a11.52,11.52,0,0,0-3.6.4,6,6,0,0,0-2.36,1c-.19.16-.62.31-.72.22a1,1,0,0,1-.32-.79c.16-1.4.37-2.8.59-4.2a.85.85,0,0,1,.88-.73,5.16,5.16,0,0,1,1,0c1.44.11,2.89.22,4.34.37.87.09.87.13.88,1v.93Z"/><path d="M160,21.53c-.2.29-.36.56-.55.8-1.43,1.86-2.88,3.72-4.32,5.58-.61.8-1.22,1.59-1.81,2.41-.23.33-.4.45-.82.22-2-1.12-2-1.12-.6-2.88q2.82-3.66,5.63-7.33c.26-.34.45-.46.82-.18s.86.58,1.28.89A2.42,2.42,0,0,1,160,21.53Z"/><path d="M141.69,187.14a.64.64,0,0,1-.1.18.7.7,0,0,1-.16.13c-1.72,1.32-2.05,1.24-3-.69-1.32-2.78-2.63-5.57-4-8.34-.19-.39-.16-.58.22-.82,1.87-1.23,1.86-1.23,2.83.82,1.29,2.75,2.61,5.5,3.91,8.25Z"/></svg>