<svg id="Layer_1" data-name="Layer 1" xmlns="http://www.w3.org/2000/svg" viewBox="0 0 200 200"><g id="k9c2oM.tif"><path d="M102.64,156.58C100,167,97.38,176.9,95.09,186.89c-.63,2.77-1.77,3.51-4.43,3.46-7.76-.14-15.53,0-23.9,0C69.22,179.89,71.55,170,73.93,160c7.54-31.51,15.15-63,22.58-94.53.81-3.41,2.27-5.14,5.78-5.91,13.09-2.87,26.19-5.48,39.68-3.92,18.52,2.14,30,12.39,32.76,30.8,3,20-1.57,38.4-15.83,53.38s-32.38,19.24-52.39,17.25C105.36,157,104.22,156.8,102.64,156.58Zm5.1-22.78a31.26,31.26,0,0,0,25.61-4.05C144.76,121.91,151,103.8,147,90c-2.37-8.21-6.83-11.6-15.41-11.55-2.35,0-4.69.42-7,.44-2.78,0-4.08,1.21-4.7,4-2.1,9.59-4.47,19.13-6.77,28.68C111.35,119,109.53,126.43,107.74,133.8Z"/><path d="M90.7,10.73C88,21.91,85.52,32.41,83,42.9,76.91,68.25,70.69,93.57,64.76,119c-2.47,10.56.33,14.23,11.52,15.89-1.81,7.48-3.62,14.93-5.74,23.63-6.82-1.41-13.76-2-20.06-4.32C40,150.31,34.78,141,36.24,129.06A279.21,279.21,0,0,1,41.8,99.75C48.07,72.78,54.7,45.9,61,18.94c.7-3,2-4.08,4.88-4.47C74,13.37,82,12.06,90.7,10.73Z"/></g></svg>