<svg id="Layer_1" data-name="Layer 1" xmlns="http://www.w3.org/2000/svg" viewBox="0 0 200 200"><g id="gLnHtL.tif"><path d="M59.83,106.58c-1.84-.16-3.3,0-4.47-.48S53,104.49,53,103.61s1.26-2.09,2.26-2.61,2.6-.57,4.63-1a16.59,16.59,0,0,1-2.72-2.48c-.64-1-1.54-2.44-1.2-3.19A3.57,3.57,0,0,1,59,93a52.75,52.75,0,0,1,6.84,2.36,10.24,10.24,0,0,1,1.4-3,4,4,0,0,1,2.87-1.25,3.29,3.29,0,0,1,2,2.12,11.13,11.13,0,0,1,0,3.82c-.11,1.43.23,2.31,1.85,2.53a18.68,18.68,0,0,1,3.4,1.19c-.74-3.48,1.63-5.94,2.09-9.11a32.79,32.79,0,0,0,.41-7.72c-.12-1.32.68-2.73,1-3.88-1-1.71-1.85-3.38-2.86-5a8,8,0,0,0-1.81-1.95,28.17,28.17,0,0,1-8.6-10.75c-.72-1.57-.44-2.73,1.07-3.37,2.13-.92,4.35-1.64,6.63-2.48-.23-2.76-.71-5.75-.67-8.74.07-5.7,0-5.08,5.66-4.74.89,0,1.76.6,2.64.62,1.28,0,2.39,2.21,3.81.31.82-1.1,1.77-2.12,2.47-3.28,1.45-2.4,2.77-4.88,4.15-7.32.83-1.46,2-1.87,3.38-.82,2.56,2,5.07,4.08,7.56,6.17a15.34,15.34,0,0,1,1.55,1.7l9.67-4.66a8,8,0,0,1,.86-.31c3.75-1.39,4.15-1.33,5.27,2.55,1,3.41,1.54,6.94,2.27,10.41,3.2.41,6.61.63,9.93,1.31,6,1.22,6.2,1.68,3.69,7.29-1.29,2.89-3.09,5.55-4.79,8.53A32.42,32.42,0,0,1,135.72,68c2.08,2.2,4.09,4.47,6.06,6.77,1.24,1.46,1,2.84-.67,3.78-3.15,1.77-6.36,3.46-9.64,5.23.87,2.42,2,5.06,2.77,7.79,1,3.38.64,4-2.79,4.64-2.66.5-5.4.59-8.31.88,0,1.36,0,2.78,0,4.21,0,1.61-.76,2.18-2.26,2l-4.93-.52-.33,3.86c6.36.61,12.25-1.14,18.38-2.56.12-1.38.2-2.95.41-4.5s1-2.58,2.68-2.51A2.92,2.92,0,0,1,140,99.79c.59,3.1.9,3.27,4,2.21a28.22,28.22,0,0,1,4.78-1.44c.9-.14,2.53.23,2.75.79.36,1-.09,2.24-.3,3.36-.06.32-.46.59-.74.84-2.25,2-2.16,2.7.52,4.16a10.17,10.17,0,0,1,2.53,1.49,3.53,3.53,0,0,1,1,2.49,2.61,2.61,0,0,1-1.82,1.65,54.16,54.16,0,0,1-6.19.07c.31.74.79,1.74,1.17,2.78.45,1.25,1.85,2.53.08,3.81-1.44,1-3.17.55-4.61-1.08-1-1.12-1.31-2.62-3.23-3.21-2.12-.65-3.71-.23-5.69.24-4.34,1-8.8,1.53-13.22,2.19a26.29,26.29,0,0,1-3.38,0c.73.83,1.07,1.28,1.47,1.66a18.54,18.54,0,0,1,2.31,24.1,2.13,2.13,0,0,0,0,3c2.57,3.59,4.05,7.49,2.59,12.09a6.77,6.77,0,0,0,1,.51,10.13,10.13,0,0,1,7.25,6.39c.86,2.33,2.33,2.57,4.35,2.95a19,19,0,0,1,6.29,2.36c2.24,1.37,2.13,3.75-.11,5.18a14.93,14.93,0,0,1-4.41,1.71c-5.29,1.31-10.58,1.19-16,.67a136.4,136.4,0,0,0-18.64,0c-4.22.18-8.45,1.33-12.23-1.69-.47-.38-1.46-.12-2.21-.16a73.19,73.19,0,0,1-7.71-.47,5.45,5.45,0,0,1-4.8-4.52c-.61-2.68.38-4.61,2.24-6.27a34.57,34.57,0,0,1,3.23-2.26c-1.77-5.07-2-10.24.35-15.08,1.23-2.54,1.1-4.4.18-7-2.88-8.27-2.44-16.17,4.5-22.65,1.44-1.34,1.16-2-.73-2.61-5.77-1.84-11.52-3.73-17.27-5.63a4.3,4.3,0,0,1-1.09-.8c-1.95-1.52-3.67-1.47-5.67,0-.77.56-1.81,1.28-2.6,1.16a4,4,0,0,1-2.55-1.81c-.32-.57.27-1.76.67-2.56C58.34,107.73,59,107.36,59.83,106.58ZM114,102.39a30.86,30.86,0,0,1-4.27,2.36c-5.77,2.06-11.59-.1-17.74.47v4.07l-.61.13c-.24-.77-.45-1.55-.74-2.29-.2-.52-.44-1.34-.8-1.42a22.79,22.79,0,0,0-5.8-.89c-2.53.11-4.59-.18-6.2-2.42-1.28-1.78-4-2.28-5.15-1.13a12.79,12.79,0,0,0-3.78,8.34,2.19,2.19,0,0,0,1,1.71c3.51,1.45,7,2.84,10.64,4.07,2.33.8,4.76,1.31,6.94,1.89l2.42-5.6a44,44,0,0,1-1.07,8,3.36,3.36,0,0,1-1.06,1.63,16.09,16.09,0,0,0-5.28,10.33c-.7,5.42-.1,10.62,3,15.16-4.26,6.13-4.4,12.55-2.25,18.69-1.73,1.51-3.5,2.55-4.57,4.08-2.29,3.26-1,6.53,2.8,7.58a23.12,23.12,0,0,0,5.83.88c1.23,0,2.47-.71,4-1.19,2.24,2.72,3.77,3.39,8.23,3.18,1.22,0,2.43-.29,3.64-.29q10.25,0,20.48,0c3.49,0,7,.35,10.45.08a31.93,31.93,0,0,0,7.51-1.83c1.38-.46,2.67-1.53,1.59-3.32-1.46-2.4-7.66-3.8-10.18-2.29-1-4-2.95-7.29-6.63-9.34-1.31-.73-2.48-1.06-3.43.61a9.26,9.26,0,0,1-1.79,1.74l-.57-.24c4.9-5.85,3.35-11.3-.54-16.66l-2.09.67a18.35,18.35,0,0,0,5.71-15.76c-.57-6.24-3.64-10.92-9.22-14.16,3.75-.32,7.39,0,11-.4s7.08-1.36,11.3-2.22c-2.57-2.83-3.32-5.49-2.85-8.51s0-3.31-2.87-2.4c-5.77,1.84-11.69,2.13-17.87,1.88C115.37,105,115.45,104.26,114,102.39Zm17.34-36.84c2.74-4.2,5.77-8.3,6.94-14.1-4.56-.57-8.81-1.2-13.09-1.57-1.8-.16-2.6-.51-2.8-2.57-.31-3.23-1.23-6.4-1.81-9.61-.37-2-1.47-2.52-3.23-1.69a74.7,74.7,0,0,0-9,4.45c-2,1.27-3,1.07-4.47-.61-2.51-2.83-5.19-5.54-9.23-7.34L89,43c2.81,1,4.71,3.2,7.47,1.78A15.88,15.88,0,0,0,99.22,43c3-2.43,5.36-1.85,6.68,1.7a11.62,11.62,0,0,1,.44,1.53c1,4.64-1.39,6.73-5.9,5.32a10,10,0,0,0-8.13.69c-3.77,2.06-6.72.21-6.69-4.09,0-.81.1-1.62.18-2.78L78,43.54c-1.69-.4-2.48.37-2.4,2,.18,3.33.3,6.67.69,10,.18,1.48-.14,2-1.57,2.32a26.76,26.76,0,0,0-5.38,1.79,2.36,2.36,0,0,0-1,2.06,24,24,0,0,0,8.9,10.94c.78-3.27-3.43-3.4-3.32-6.46l3.53,3.14c1.36-2,3.09-3.58,1-5.88-.31-.34-.16-1.11-.22-1.67l.46-.08,2.07,3.19,5.29-2c0-1.66-1.07-3.36,1-4.83A9.91,9.91,0,0,0,87,60.91,3.75,3.75,0,0,0,88.56,63c2.53,1.23,5.16,2.23,7.76,3.32.71,0,1.55-.71,2.53-1,2.11-.69,3-1.89,2.72-4.17a7.35,7.35,0,0,1,.64-2.56l.69.14-.23,5a12.59,12.59,0,0,1,1.85.17c2.18.59,3.5-.12,4.26-2.3a9.66,9.66,0,0,1,1.88-2.38l.53.4-2.43,4.61,5.39,4,3.38-2.35.85,1a7.59,7.59,0,0,0-1.29.47c-1.74,1.09-2.46,2.46-1.63,4.59a7.51,7.51,0,0,1,.22,3.6,10.88,10.88,0,0,1-8.38,8.93,11.28,11.28,0,0,1-11.52-4.29c-.45-.62-1.1-1.45-1.73-1.52a10.87,10.87,0,0,0-4.52.25c-1,.34-2.4,1.58-2.41,2.43a4.36,4.36,0,0,0,2,3c.92.55,2.35.23,3.55.29l2,.13c-2.75,1.88-6.54,1.62-7.88-.77-1.18-2.09-3-2.5-5.39-3.55-.14,2-.37,3.63-.35,5.3s.58,2.53,2.73,2.6c4.69.14,8,3,10.55,6.73,2,2.85,2.37,5.84-.1,8.76,3.66,1.27,3.89-1.9,5-3.85l.55.3-.41,3.83a19.15,19.15,0,0,0,11.55-1.2,2.45,2.45,0,0,0,1.08-1.58c.61-2.49,1.1-5,1.64-7.54,4.22,2.23,5.91,2.14,7.17-.33s.32-3.75-4-6a3.42,3.42,0,0,1,4.16.72,4.93,4.93,0,0,1,1.16,5.65c-1.13,2.48-3.12,3.25-7.35,2.82-1.58,3.51-1.22,4.37,2.4,5.16,1.52.33,3.09.41,4.94.64,0-1.73.08-3.09,0-4.43-.12-1.64.4-2.37,2.17-2.29a33.19,33.19,0,0,0,5.46-.27c4.39-.56,4.61-.9,3.09-5.15-.88-2.48-2-4.88-3-7.44,2.74-1.13,5.39-2.06,7.88-3.3,4.62-2.31,4.78-3.09,1.24-6.88C136.57,70.22,134,68,131.35,65.55Zm-27-.55c-5.44,0-9.57,3.73-9.59,8.63a9.92,9.92,0,0,0,10,9.94A9.67,9.67,0,0,0,114.63,74C114.57,68.72,110.3,65,104.34,65Zm41.81,42,.29-.81c1.09-.47,2.39-.71,3.21-1.47s.91-1.91,1.34-2.89a8,8,0,0,0-2.69-.33c-2,.45-3.88,1.35-5.88,1.76-2.43.49-3.19-.19-3.34-2.65-.07-1.31-.22-2.51-1.87-2.6s-2,1.26-2,2.47c-.16,3.4-.26,6.81-.22,10.22,0,2.07.79,4.12,2.76,4.92,2.74,1.12,5.42,2,6.91,4.94.25.5,1.71.38,2.61.54a12.16,12.16,0,0,0-.3-2.19c-.22-.72-.86-1.34-1-2.05a19.41,19.41,0,0,1,0-3.12c2.35.35,4.19.73,6,.82a2.1,2.1,0,0,0,1.59-1.28,2.3,2.3,0,0,0-.95-1.8C150.5,109.93,148.3,108.5,146.15,107ZM93.59,77.5c.23-2.57.06-5,.72-7.14.88-2.85,1-3.51-1.75-4.88A13.36,13.36,0,0,0,88,64.12c-4.2-.42-8.43,2.49-9.27,6.14a8.88,8.88,0,0,0,5.07,10.13c1,.44,1.79.6,2.68-.59A6.35,6.35,0,0,1,89.68,78,21.44,21.44,0,0,1,93.59,77.5ZM66.85,96.89a46.37,46.37,0,0,0-6-2.49c-1.31-.35-2.81,0-4.23.11.76,1,1.55,2,2.26,3,.51.76,1.29,1.63,1.23,2.39,0,.51-1.29,1-2.07,1.38a4.48,4.48,0,0,1-1.35.15c-1.28.15-2.88.15-2.75,1.94s1.51,1.93,3.07,1.88a17.13,17.13,0,0,1,3.62.65,26.32,26.32,0,0,0-1.92,2.81c-.34.63-.71,1.78-.42,2.09a3.49,3.49,0,0,0,2.29.76,2.46,2.46,0,0,0,1.53-.9c1.39-1.51,3-2,4.53-1.25,1.69-3,3.29-5.91,4.89-8.8a1.19,1.19,0,0,0,.25-.61,58,58,0,0,0-.52-6.19,2.59,2.59,0,0,0-1.6-1.8,2.78,2.78,0,0,0-2,1.36C67.19,94.21,67.19,95.29,66.85,96.89Zm38.48-48.81c0-3.09-1.23-5.35-2.74-5.37-2,0-4.69,2.73-4.66,4.85,0,2,2.17,3.25,5.15,3.24C105.22,50.8,105.24,49.33,105.33,48.08ZM93.49,45.9l-5.64-1.78L87.13,50a.59.59,0,0,0,.05.22,2,2,0,0,0,2.71,1.67C92.32,51.45,93,50.45,93.49,45.9ZM96.6,46l-.7-.3a9,9,0,0,0-1.45,2.74c-.08.48,1,1.15,1.55,1.73a6.17,6.17,0,0,0,.83-1.77A11,11,0,0,0,96.6,46ZM83.15,93.34a5.8,5.8,0,0,0-4.25,7.82C79.12,97.54,79.65,96.57,83.15,93.34Zm1-3.68c-2.91-.23-3.82.42-3.73,2.54Z"/><path d="M98,151.62c-1.84,3.81-1.77,7.73-.72,12C94.27,160.74,94.66,154.42,98,151.62Z"/><path d="M120.35,91.37,117.44,94l.35-2.51-1.6-.37c.46-.49.68-.92,1-1.06A2.14,2.14,0,0,1,120.35,91.37Z"/><path d="M106.66,75.88c-.82-1.27-1.6-1.94-1.58-2.58s1-1.56,1.48-1.49a2.44,2.44,0,0,1,1.71,1.52C108.37,73.89,107.51,74.62,106.66,75.88Z"/><path d="M137.58,112l4.63-1.89a9.49,9.49,0,0,1-1.61,2.37C139.5,113.31,138.54,113,137.58,112Z"/><path d="M85.09,71c.73.88,1.5,1.4,1.48,1.9s-.77,1-1.21,1.56c-.51-.44-1.34-.83-1.44-1.35S84.51,71.93,85.09,71Z"/><path d="M64.46,102.32l1.33,3.57-.37.47c-.54-.47-1.36-.85-1.57-1.43a8.46,8.46,0,0,1-.06-2.62Z"/></g></svg>