<svg id="Layer_1" data-name="Layer 1" xmlns="http://www.w3.org/2000/svg" viewBox="0 0 200 200"><g id="tAmiLG.tif"><path d="M10.42,13.54H124.18c0,.32.06.64.06,1V62.18q0,.39,0,.78a.5.5,0,0,1-.54.54l-1.22,0H62.28c-.35,0-.7,0-1,0-.63,0-.77.15-.81.76,0,.38,0,.75,0,1.13V189.15c0,.46,0,.93,0,1.39a.58.58,0,0,1-.64.64l-1,0H12.07c-1.71,0-1.71,0-1.71-1.73V14.84C10.36,14.41,10.4,14,10.42,13.54Z"/><path d="M138.05,13.54H188V191.13c-.37,0-.75.07-1.12.07H139.45l-.78,0a.55.55,0,0,1-.6-.59c0-.47,0-.93,0-1.39V13.54Z"/><path d="M74.23,134.24V79c0-1.82-.07-1.66,1.63-1.67H122.6c1.72,0,1.64-.15,1.64,1.65V189.47c0,.32,0,.64,0,.95,0,.64-.14.72-.8.77H75.74c-1.5,0-1.51,0-1.51-1.55Z"/></g></svg>