<svg id="Layer_1" data-name="Layer 1" xmlns="http://www.w3.org/2000/svg" viewBox="0 0 200 200"><g id="XvoiPh.tif"><path d="M77,187.36c1.93-1.39,3.76-3,5.81-4.14,4.27-2.47,6.72-5.78,6.26-11-.19-2.16.26-4.38.23-6.57a17.34,17.34,0,0,0-.7-3,6,6,0,0,1-.08-1.8c1-8.23,2-16.44,2.94-24.68.16-1.51-.53-3.11-.39-4.63.46-4.83,1-9.66,1.73-14.46.38-2.62.52-4.93-1.06-7.41-1.93-3-1.76-6.22.4-9.42a28.73,28.73,0,0,0,3.12-7.12c.29-.85-.23-2.07-.6-3-.88-2.23.15-3.19,2.16-3.51a5.28,5.28,0,0,0-4-6.39,19.58,19.58,0,0,1-4.25-1.46c-1.92-1-2.06-2.38-.6-3.94.52-.55,1.06-1.07,1.58-1.63a2.12,2.12,0,0,0,.39-2.88c-.59-1-.49-2.47-.79-3.71-.21-.9-.58-1.77-.9-2.74l1.35.94c-.5-3.69-1.26-7.3.65-10.82.3-.55-.24-1.5-.08-2.19.67-2.76,1.44-5.49,2-8.3a15.61,15.61,0,0,1,1-3.71c1.46-2.94.38-6.75,3.27-9.14.32-.26.37-1,.39-1.46.09-1.81,3.33-8.89,4.71-10.2a1.52,1.52,0,0,0,.53-.79,5.3,5.3,0,0,1,3.11-4.72c.39-.2.5-1,.64-1.61a4.29,4.29,0,0,1,3.24-3.35c.66-.21,1.16-.88,1.78-1.27,1.16-.73,2.46-2.14,3.49-2,2.19.37,3.78-.65,5.57-1.31h.41c2.1.91,3.89,2.4,6.49,2.29,1.91-.09,3.26,1.42,3.92,3.37A2.78,2.78,0,0,0,132,11.09c2.09,1,3.46,2.54,2.92,4.38a6.1,6.1,0,0,0,1,5.42v1.24c-1,1.85-2.58,3.48-2,5.86,0,.19,0,.51-.1.6-3,2.13-1.76,6.57-4.76,8.68.09,2.52-1.81,4.41-2.29,6.48s-1.47,3.92-2,5.8c-.68,2.44-1.51,4.82-2.16,7.22-.49,1.81-.35,3.77-1.73,5.37a1.76,1.76,0,0,0-.08,1.45c.62,1.86-.09,3.3-1.15,4.76a5,5,0,0,0-.59,2.05c-.17,1,.12,2.49-.44,2.92-2.42,1.87-1.1,5.79-4.27,7.22-1.34.61-2.4,1.82-3.88,3v2.23c2.81,1.67,3,2.16,1.47,4.87,3.09,2.49,6.29,4.93,9.33,7.56a51.86,51.86,0,0,1,5,5.15,6.68,6.68,0,0,1,1,7.85c-1.52,3-3.25,6-5,9-.69,1.17-1.22,2.13-.41,3.56.35.62-.15,1.76-.36,2.65a18.15,18.15,0,0,0-.89,3.36c-.3,10-.5,20-.72,30,0,2.2.61,4.66-2.22,5.82-.17.06-.27.45-.29.7-.47,4.29-1,8.58-1.32,12.88a7.75,7.75,0,0,0,.61,3.15c1,2.86.65,4.16-1.67,6.12-.76.64-1.12,1.76-1.88,2.39a13.39,13.39,0,0,1-8.94,3.11c-2.25,0-2.94-1.41-1.68-3.26s2.66-3.67,4.1-5.41a9,9,0,0,0,2.09-7c-.41-4-.66-8-1-12.16l-8.84-.83c-1.12,4.66-2.25,9.22-3.27,13.8A5.78,5.78,0,0,0,96,181.2c.52,2.51-.38,5.11-2.36,5.09-3.49,0-6.06,2.56-9.43,2.64-2.44.07-4.91.69-7.18-.75Zm14.73-85.68c-.21,1.31-.87,2.76-.54,3.93a23,23,0,0,0,2.88,6.68,11.76,11.76,0,0,1,1.68,10.15c-1.74,7-3.48,14-4.72,21-1,5.86-1.36,11.85-1.91,17.79a2,2,0,0,0,.85,1.57,6.75,6.75,0,0,0,2.71.91c7.16.61,14.32,1.32,21.5,1.61,4.12.16,5-1.05,5-5.07,0-.48,0-1,0-1.44.22-9.4.37-18.8.72-28.19a3.84,3.84,0,0,0-2.44-4c-4.41-2.3-5-5-2.08-8.85a2.24,2.24,0,0,0,.18-2.06c-2.23-2.91-2.66-6.2-2.68-9.72,0-3.86.6-3.62-3.73-3.23C103.42,103.27,97.68,103.65,91.77,101.68ZM121,105.81c-.65,4.51-2.6,9.43-4.65,11.93-2.82,3.42-2.82,3.42,0,7.08l.26-.65a16,16,0,0,0,3.25,2.37c.29.11,1.17-1.25,1.79-1.94l-.52-.36-1.34,2.12c-.15-.69-.35-1-.25-1.25q2-4.12,4-8.19c.83-1.65,1.71-3.27,2.58-4.9,1.91-3.56,1.38-6.83-1.53-9.51-4.22-3.89-8.61-7.59-12.71-11.18a36,36,0,0,1-3.69,1.36,29.52,29.52,0,0,1-5.77,1c-1.6.06-3.21-.57-4.83-.71a2,2,0,0,0-1.64.8c-1.13,2.38-2.09,4.85-3.11,7.29a3.18,3.18,0,0,0,.68.42c5.29,1.24,10.62,1,16,.38.54-.06,1-.76,1.72-1.3l8.52,7ZM96.53,74.47l-.06.72a10.43,10.43,0,0,1-3.21-.46c-.9-.43-1.52-1.43-2.27-2.18-.53.6-1.17,1.4-1.88,2.13-1.89,2-1.79,2.75.73,3.79,4.33,1.79,8.83,1.68,13.35,1a4.25,4.25,0,0,0,2.32-.7c1.27-1.23,1.49-.12,2.3.83l-12.4,1.66c2.22.79,3.16,2.15,2.56,4.37-.26,1-.57,2.27-.13,3s1.76.69,2.69,1c.13,0,.24.17.37.18a13.61,13.61,0,0,0,6.43-1.09c.8-.36,2-1.1,2-1.73.2-3.26.1-6.55.1-9.32a15,15,0,0,0,3.59-1,2.3,2.3,0,0,0,.19-2.11,15.51,15.51,0,0,0-3.45-1.35l.35-6.12-.53-.1c-.14.61-.3,1.21-.41,1.81a6,6,0,0,1-4.11,5,5.31,5.31,0,0,1-6-1.41c-1.45-1.74-3.21-1.56-5-1.64-.58,0-1.2.83-1.8,1.28.49.64.86,1.5,1.51,1.85A10.06,10.06,0,0,0,96.53,74.47Zm12.11,91.87a77.87,77.87,0,0,0,.56,8.34c.87,5,.11,9.36-3.43,13.09-.06.06,0,.24,0,.36,4.46,1.58,8.44-2.09,10-4.82.14-.24,0-.63,0-.95a69.62,69.62,0,0,1-.32-7.06c.16-3,.67-6.06,1-9ZM81.61,185c4,.76,9.56-1,13.26-3.88-.26-5.55,2.27-10.49,3.13-15.64l-7.64-1.3c-.14,1.05-.34,2.12-.41,3.19-.2,3.07-.17,6.17-.6,9.21a7.2,7.2,0,0,1-1.95,3.81A61.67,61.67,0,0,1,81.61,185Zm8-122.52.48.16c.23-1.32.4-2.66.71-4,.72-3,1.49-5.92,2.27-8.88a33.09,33.09,0,0,1,1-3.21,14.43,14.43,0,0,0,1.25-7.24c0-.29.26-.62.36-.94a18.15,18.15,0,0,1,.94-3,91.41,91.41,0,0,0,3.49-8.68c1-2.49,1.23-5.64,4.13-7.1,0,0,0-.13,0-.2-.22-3.46,3.67-4.77,4.16-7.89.05-.32.75-.52,1.13-.8.79-.57,1.58-1.13,2.34-1.74.53-.43,1-1.34,1.48-1.33,2.34.08,4.39-.78,6.56-1.4.94-.27,2.16.41,3.25.65l.2-.69c-1.36-.36-2.81-1.22-4-1-1.81.37-3.48,1-5.43.86-.84,0-1.76,1.21-2.63,1.9-.54.42-1,1.19-1.59,1.26-2.08.26-2.87,1.54-3.31,3.38-.15.65-.8,1.18-1.21,1.77-.74,1.08-1.51,2.13-2.2,3.24a48.12,48.12,0,0,0-4,7.86,25.65,25.65,0,0,0-1.26,4.77c-.31,1.59-1.61,3-2.44,4.46-.11.2.13.57,0,.81-.74,2.22-1.87,4.36-1.49,6.83,0,0-.09.1-.14.15-1.58,1.47-.88,3.36-1.16,5.1s-1.94,3.07-1.45,5.1c.11.45.31,1.15.1,1.37C88.72,56.64,90.86,59.81,89.62,62.47ZM103,73.27a5,5,0,0,0,5.34-5c0-2.81-2.06-4.84-5.15-4.94a5,5,0,0,0-5.11,5C98,71.13,100,73.17,103,73.27ZM97.31,70c.27-1.41.62-2.86.78-4.34a2,2,0,0,0-.64-1.45,4.72,4.72,0,0,0-6.51.31A4.45,4.45,0,0,0,91,70.57Zm16.48,33.64c-.21,4.6-.44,8.86,3,12.22,3.5-5.6,3.26-7.2-1.66-11.16C114.8,104.39,114.42,104.11,113.79,103.63ZM91.39,133l.91.18c.2-1.92.25-3.79,1.23-5.6,1.11-2,1.42-4.56,1.79-6.92s.55-4.74-1.44-7.1ZM104,62.26l-.22-.78a33.63,33.63,0,0,0-4.63-1.3,14.39,14.39,0,0,0-3.8.25,1.89,1.89,0,0,0-1.25.61c-.15.24.16,1.12.37,1.16a2.84,2.84,0,0,0,1.61-.26c.33-.14.52-.59.77-.91-.94,2.18,1,2.35,2.31,3.65l1.5-3.82.63,2.12Zm4.7,4.06.8.08.93-2.71-.37-.48c-.61.28-1.64.44-1.75.85C108.16,64.73,108.58,65.56,108.74,66.32Zm-4.17-4.15.12.88,2.92.31c-.44-.59-.77-1.38-1.35-1.7C105.9,61.46,105.15,62,104.57,62.17Zm-1,130.74,2.47-4.29C103.49,189.91,102.69,191.4,103.55,192.91Z"/></g></svg>