<?xml version="1.0" encoding="UTF-8" standalone="no"?>
<svg
   viewBox="0 0 60 60"
   height="64"
   width="64"
   version="1.1"
   id="svg8"
   sodipodi:docname="mastodon.svg"
   inkscape:version="1.1.2 (b8e25be8, 2022-02-05)"
   xmlns:inkscape="http://www.inkscape.org/namespaces/inkscape"
   xmlns:sodipodi="http://sodipodi.sourceforge.net/DTD/sodipodi-0.dtd"
   xmlns="http://www.w3.org/2000/svg"
   xmlns:svg="http://www.w3.org/2000/svg">
  <defs
     id="defs12" />
  <sodipodi:namedview
     id="namedview10"
     pagecolor="#ffffff"
     bordercolor="#666666"
     borderopacity="1.0"
     inkscape:pageshadow="2"
     inkscape:pageopacity="0.0"
     inkscape:pagecheckerboard="0"
     showgrid="false"
     inkscape:zoom="11.234375"
     inkscape:cx="31.465925"
     inkscape:cy="33.06815"
     inkscape:window-width="1296"
     inkscape:window-height="969"
     inkscape:window-x="0"
     inkscape:window-y="38"
     inkscape:window-maximized="0"
     inkscape:current-layer="svg8" />
  <g
     transform="matrix(.983244 0 0 .983244 -4.608956 17.501042)"
     id="g6">
    <path
       id="path2"
       style="stroke-width:1.04879"
       d="M 29.255859 0.53710938 C 21.211612 0.60318337 13.472703 1.4735545 8.9628906 3.5449219 C 8.9628906 3.5449219 0.017578125 7.544215 0.017578125 21.195312 C 0.017578125 24.320717 -0.042994767 28.057045 0.056640625 32.021484 C 0.38176664 45.372627 2.5014025 58.529883 14.845703 61.796875 C 20.538555 63.302943 25.424301 63.618395 29.359375 63.402344 C 36.495367 63.0059 40.501953 60.855469 40.501953 60.855469 L 40.265625 55.675781 C 40.265625 55.675781 35.165866 57.285968 29.439453 57.089844 C 23.764431 56.894768 17.773163 56.475853 16.855469 49.509766 C 16.771565 48.898319 16.730469 48.2436 16.730469 47.556641 C 16.730469 47.556641 22.300994 48.919159 29.359375 49.242188 C 33.676209 49.439361 37.724667 48.988882 41.835938 48.498047 C 49.705743 47.558025 56.557084 42.717812 57.441406 38.285156 L 57.441406 22.742188 C 57.441406 19.359828 56.017252 17.644531 53.171875 17.644531 C 50.025494 17.644531 48.449219 19.681761 48.449219 23.707031 L 48.449219 32.488281 L 41.939453 32.488281 L 41.939453 23.705078 C 41.939453 19.677711 40.361225 17.642578 37.214844 17.642578 C 34.368418 17.642578 32.945313 19.358924 32.945312 22.740234 L 32.945312 38.783203 L 26.398438 38.783203 L 26.398438 22.253906 C 26.398438 18.876791 27.257012 16.192542 28.984375 14.205078 C 30.767324 12.219712 33.100375 11.201172 35.996094 11.201172 C 39.346989 11.201172 41.885479 12.488616 43.5625 15.064453 L 45.193359 17.798828 L 46.824219 15.064453 C 48.502289 12.488616 51.041683 11.201172 54.392578 11.201172 C 55.249709 11.201172 56.051436 11.301371 56.810547 11.478516 C 54.186811 5.5348111 49.751953 3.5449219 49.751953 3.5449219 C 45.242141 1.4735545 37.497372 0.60318337 29.453125 0.53710938 L 29.255859 0.53710938 z M 15.998047 14.289062 A 3.5978864 3.5978864 0 0 1 19.595703 17.886719 A 3.5978864 3.5978864 0 1 1 12.398438 17.886719 A 3.5978864 3.5978864 0 0 1 15.998047 14.289062 z "
       transform="matrix(0.95347645,0,0,0.95347645,4.6874997,-17.799287)" />
  </g>
</svg>
