<svg id="Layer_1" data-name="Layer 1" xmlns="http://www.w3.org/2000/svg" viewBox="0 0 200 200"><defs><style>.cls-1{font-size:52.18px;fill:#fff;font-family:MyriadPro-Regular, Myriad Pro;}</style></defs><g id="_8LevBD" data-name="8LevBD"><path d="M38.55,189c-4.13-1.47-5.58-4.49-5.57-8.75q.1-52.69,0-105.38c0-18.32.06-36.64-.05-54.95,0-4.36,1.27-7.56,5.58-9.09h87c2,2.11,4.17,4.15,6.11,6.35C141.37,28.24,151,39.35,160.76,50.4a6.77,6.77,0,0,1,1.62,4.79q0,34.35,0,68.7c0,18.67-.07,37.34,0,56,0,4.35-1.21,7.58-5.55,9.1ZM121,17.93H40.16V129.39H155.22V57.11h-1.88l-27.83,0c-3.12,0-4.45-1.23-4.49-4.21,0-3.59,0-7.19,0-10.79Z"/></g><text class="cls-1" transform="translate(59.68 175.36)">MD</text></svg>