<svg id="Layer_1" data-name="Layer 1" xmlns="http://www.w3.org/2000/svg" viewBox="0 0 200 200"><path d="M48.18,57.62c-1,5.6.48,9.86,4.24,12.54-.71,4.7.39,8.71,4.11,11.68-.11,1.27-.54,2.6-.27,3.77A40.62,40.62,0,0,0,58.48,92a15.17,15.17,0,0,0,1.75,2.25,2.53,2.53,0,0,1,.61,1.54,10.75,10.75,0,0,0,4.54,10.88c-1.1,5,.71,10.13,4.42,12.24-1.82,3.58-.17,6.61,1.7,9.6a1.73,1.73,0,0,1,.25.41,12.39,12.39,0,0,1,.87,3.17c.12,11.53.12,23.06.26,34.6a20.1,20.1,0,0,0,1,6c2.28,6.71,7.24,10.58,13.86,12.65a27.05,27.05,0,0,0,13.48.34c0,.69.07,1.16.07,1.64V197h8.38c0-2.22,0-4.43,0-6.65a12.3,12.3,0,0,1,1.07-4.47,2.46,2.46,0,0,1,2-1.1c.48,0,1.16,1.09,1.24,1.76a39.75,39.75,0,0,1,0,4.5v6h7.46v-.63c0-4.79,0-9.59,0-14.39,0-.75,0-1.3,1-1.51,2.78-.62,5.55-1.31,8.3-2.05a17.78,17.78,0,0,0,4.1-1.43c4.46-2.48,6.51-6.43,6.52-11.46q0-12.21,0-24.42a1.93,1.93,0,0,1,1.44-2.1,80.13,80.13,0,0,0,8.17-3.85c6.75-3.78,11.88-8.82,13.12-17,.77-5.08,1.52-10.12.74-15.26-.29-2-1-3.66-3.08-4.35a14.09,14.09,0,0,0,.19-2.46c-.28-3.16-.42-6.39-3.48-8.44-.26-.17-.35-.84-.27-1.23,1-4.59-.09-8.38-4.19-11.06a10.36,10.36,0,0,0-3.57-10.78,2.12,2.12,0,0,1-.36-1.55c.31-4.09-.53-7.69-4.23-10.08,1-4.88,0-8.15-3.49-11.34a1.24,1.24,0,0,1-.36-1.06,7.61,7.61,0,0,0-1.37-7.48c-1.57-2.08-2-4.25-2.48-6.73-2.43-11.13-9-19-19.94-22.87C110.76.89,103,.82,95.3,1.13c-3,.12-6,.51-8.74.76,0,0-8.94,1-15.89,4.71a12.9,12.9,0,0,0-1.33.82c-3.27,2-6.61,4-9.73,6.22-6.44,4.66-11.9,10.26-14,18.21a54.9,54.9,0,0,0-2.08,16.63C43.71,52.21,44.21,55.86,48.18,57.62ZM53.81,63a9.45,9.45,0,0,1-.39,1.42,21.31,21.31,0,0,1-1.14-3.15A1.71,1.71,0,0,1,53,59.9c4.28-3.08,8.54-6.18,12.92-9.12,2.11-1.42,3.65-2.89,2.22-6,3.07,2.7,3.19,4.78.38,6.76-3.91,2.75-8,5.32-12.07,7.76C54.91,60.21,53.91,61.17,53.81,63Zm15.38-6.59a11,11,0,0,1-1.82,2.11,38.27,38.27,0,0,1-5.12,3,25.71,25.71,0,0,1-4.2,1.15c3.82-2.36,7.28-4.5,10.75-6.63Zm-11.79,20c-.5-1.36-.91-2.47-1.37-3.74,4.73-3.34,9.3-6.66,14-9.83,2-1.36,3.5-2.75,2.36-5.6,2.58,1.79,3,4.21.81,5.85-3.15,2.41-6.55,4.5-9.85,6.72-.35.24-.74.43-1.11.65C58.7,72.5,58.7,72.5,57.4,76.38Zm15.83-8.53c-1.11,2.87-1.11,2.87-10.61,6.56ZM62.49,87.62a6,6,0,0,1-.33,1.16c-.19-.2-.24-.23-.26-.28-1.44-3.12-1.46-3.14,1.25-5.07,4-2.84,8-5.65,12.25-8.67.12,1.53.42,2.68-1.1,3.56-3.06,1.79-6,3.85-9.07,5.53C63.59,84.74,62.61,85.77,62.49,87.62Zm12.92-5a8.84,8.84,0,0,1-1.34,1.67,11.5,11.5,0,0,1-2.61,1.56c-.57.24-1,1.33-2,.4-.18-.17-1.37.73-2.09,1.13L67.15,87l7.78-4.79Zm-8.89,17.93c-1.78-3.46-1.78-3.46,1.1-5.5l7.53-5.3c.59,2.07.54,2.22-1.05,3.2-.74.45-1.49.86-2.22,1.32C69.48,95.76,66.19,96.5,66.52,100.52Zm9-4.31c-.17,2.53-2.06,1.86-3.08,1.93Zm-1,28.91c-2-3-1.85-3.75,1-5.3C75.17,121.78,74.85,123.38,74.51,125.12Zm.14-17.63c-2.27,1.15-4.14,2.46-3.76,5.55l-.46-.13a29.64,29.64,0,0,1-1-2.86,1.37,1.37,0,0,1,.45-1.13c1.71-1.28,3.47-2.49,5.22-3.71l.55.27C75.3,106.17,75.17,107.23,74.65,107.49Zm8.45,68.56c-3.36-2-5.74-4.27-5.74-8.21q0-20.22,0-40.43a3.24,3.24,0,0,1,.27-1.56,10.6,10.6,0,0,0,1-5.62q0-18.67,0-37.35V81.27L79,81.2c1.26,3.48,2.53,7,3.77,10.43a3.22,3.22,0,0,1,.14,1.12v44.79c0,.26,0,.52-.09,1l-4-1.49c1.08,1.51,2,2.62,2.72,3.86a6.22,6.22,0,0,1,.94,2.78c.25,10.13.42,20.26.61,30.39C83.11,174.64,83.1,175.21,83.1,176.05Zm.42-91.18-.28.08-2.53-4.51c.05.75.08,1.16.11,1.58l-.48.1c-.55-2.31-1.22-4.61-1.57-7-.14-1,.14-2.51,1.51-2.41a4.53,4.53,0,0,1,2.57,1.78A4.36,4.36,0,0,1,83.49,77C83.57,79.61,83.52,82.24,83.52,84.87Zm53.58,77.37a16.77,16.77,0,0,1-1.62,8.15,4.6,4.6,0,0,1-3.13,2.52c-9.73,2.39-19.42,4.9-29.15,7.28a53.62,53.62,0,0,1-6.7,1c-4.29.49-7.48-1.13-9.11-5.1a20.94,20.94,0,0,1-1.74-7.62c-.12-30.5-.08-61-.07-91.5,0-2.18,0-4.33-2-6.11C87,70.6,89,72.47,89,75.71c0,9.16-.08,18.32-.11,27.48q-.1,33.48-.17,66.94c0,4.65,3.73,7.94,8.15,7.08,9.51-1.86,19-3.75,28.49-5.82,6.5-1.41,9.5-5.42,9.5-12.1,0-6.26.06-12.51,0-18.76,0-1.58.47-2.32,2.19-2.28,0,.44.1.89.1,1.35C137.11,147.15,137.12,154.69,137.1,162.24ZM93.3,136.89c1.25,2,2.57,4,3.87,5.94a3.12,3.12,0,0,0,3,1.51l13.67-.89c.53,0,1.06-.11,1.58-.17,0,.17,0,.34,0,.5-5.44,1.24-10.85,2.57-16.32,3.64a9.88,9.88,0,0,1-4.58-.5c-3.26-1-3.8-1.95-3.8-5.34v-9C91.64,134,92.42,135.5,93.3,136.89Zm-2.47-10.33a9.65,9.65,0,0,1,1.39-2c1.38-1.16,2.71-2.3,2.7-4.42,1.42,2,1.33,3-.37,4.5a27.13,27.13,0,0,1-2.21,1.61,11.49,11.49,0,0,1-1.08.61Zm39.37,29.36c1.52.77,1.67,1.91,1.35,3.33-.16.67-.31,1.34-.49,2.14-1.9-.68-3.67-1.28-5.41-2a1.28,1.28,0,0,1-.66-.92c0-3.58,0-7.17,0-11,2.11.71,4,1.34,6,2a1.12,1.12,0,0,1,.63.78c.07,1.32,0,2.64,0,4.11l-4.72-1.18-.13.26A32.43,32.43,0,0,0,130.2,155.92Zm-1.44,7.75a1.73,1.73,0,0,1,.56,1.33,4.41,4.41,0,0,1-3.41,3.44q-14.37,2.56-28.75,5.09c-1.9.33-3.22-.21-4.67-1.83,1.38-.31,2.67-.61,4-.88,3.53-.72,7.05-1.5,10.6-2.11.84-.15,1.77.36,2.67.36a27.14,27.14,0,0,0,4.68-.31c.29,0,.38-1.2.54-1.74,2.18-.76,4.45-1.52,6.7-2.35a6.21,6.21,0,0,0,1.62-1A4.07,4.07,0,0,1,128.76,163.67Zm-35.35,3.45v-15h10.07c1,4,2,8.14,3,12.52Zm26.1-8.23c-.22,2-2.05,2.82-3.92,3.62-1-4.21-2-8.22-2.86-12.24a1.25,1.25,0,0,1,.57-1.06c2.11-.76,4.26-1.41,6.92-2.27C120,151.13,120,155,119.51,158.89ZM49.39,40.18c1-7.48,3.93-14.17,9.81-19.11,2.69-2.27,5.89-3.93,8.84-5.9l.45-.31C70.23,13.72,77.32,9.54,91.6,7a4.24,4.24,0,0,0,.88.7,12.16,12.16,0,0,1,5.06,5.06A24.48,24.48,0,0,0,99.47,16c.62.86,1.18,2.41,2.48,1.81s.46-2,.13-3C101,11.43,99.69,8.17,96.67,6c3.4.32,5.27,2.49,6.6,5.27.9,1.89,1.53,3.92,2.54,5.75.37.66,1.5.9,2.28,1.33.21-.81.75-1.7.57-2.42-.75-3.16-1.83-6.21-4.43-8.43a4.91,4.91,0,0,1-.52-.78c3.33,1.84,5.74,4,7,7.33a14.06,14.06,0,0,0,1.55,3.19c.38.54,1.27.72,1.93,1.07.21-.66.78-1.45.59-2A44.37,44.37,0,0,0,111.86,10a29,29,0,0,0-3.19-3.85,18.22,18.22,0,0,1,8.48,8.11,27.17,27.17,0,0,0,2.15,3.6c.39.51,1.18.72,1.78,1.06.15-.64.57-1.37.39-1.89a43.27,43.27,0,0,0-2.53-6A28,28,0,0,0,116,7.17a13.65,13.65,0,0,1,7.35,8.33,14.6,14.6,0,0,0,1.55,3.35,2.27,2.27,0,0,0,2,.78A2.48,2.48,0,0,0,128,17.77a4.17,4.17,0,0,0-.64-2.12c-.68-1.33-1.45-2.61-2.18-3.92,4.21,4.31,6.88,9.44,8.85,15.35a25.11,25.11,0,0,0-4.91-.52,7,7,0,0,0-3.82,1.37c-1.56,1.38-.93,3.51,1.32,4.26a42.89,42.89,0,0,0,7.22,1.52c2.28.35,3.6,1.47,3.8,3.46.12,1.14-.31,1.58-1.41,1.58a49.67,49.67,0,0,0-5.32.15,2.58,2.58,0,0,0-1.71,1.28,2.2,2.2,0,0,0,1.54,3.4,67.12,67.12,0,0,0,7.72,1.53c2.18.33,3.31,1.25,3.63,3.26.16,1,0,1.55-1.17,1.57-1.67,0-3.34.23-5,.2A2.34,2.34,0,0,0,133.45,52c-.69,2-.12,3.26,2.19,3.86a74,74,0,0,0,7.46,1.3,3.57,3.57,0,0,1,3.28,3.23c.13,1-.08,1.54-1.21,1.56-1.83,0-3.66.17-5.49.23-1.59,0-2.28.95-2.41,2.45A2.09,2.09,0,0,0,139.06,67a75.57,75.57,0,0,0,7.76,1.27c2.2.24,3.45,1.19,3.82,3.23.19,1-.12,1.54-1.17,1.61-1.67.12-3.34.19-5,.4a2.43,2.43,0,0,0-1.66.74c-1.76,2.85-2,4.72,1.95,5.64a45.44,45.44,0,0,0,6.72.73,3.69,3.69,0,0,1,3.62,2.88c.3,1.18,0,1.84-1.32,1.94-2,.15-4.08.35-6.11.66-1.32.2-2.48.73-2.55,2.4a2.27,2.27,0,0,0,2.27,2.45c2.33.32,4.7.43,7.05.61a12.37,12.37,0,0,1,1.93.07c1.51.36,1.93,1.54,2,2.94s-1,1.41-2,1.59c-1.22.22-2.44.43-3.65.69-2.28.5-2.63,1-2.35,3.18.3,2.37,1,3,3.17,2.91,1.51-.08,3-.27,4.52-.33,2.54-.11,3.14.33,3.06,2.88a73.32,73.32,0,0,1-.8,9.48c-1.43,8.88-6.77,14.68-15.11,17.47-6.32,2.11-12.87,3.52-19.31,5.26a23.22,23.22,0,0,1-9.46.42c-6.43-.94-11.77-3.36-15-9.51-4.79-9-7.77-18.67-10.16-28.53a11.72,11.72,0,0,1,0-2.65l.45,0c1.81,5,3.57,9.91,5.44,14.84,2.23,5.84,4.57,11.64,8.07,16.86a11,11,0,0,0,13.21,4.32c2-.8,2.23-1.78.64-3.3-.7-.67-1.59-1.14-2.23-1.85a27.68,27.68,0,0,1-3.74-4.54,48.06,48.06,0,0,1-2.53-6c-1.93.75-3.83,1.65-5.83,2.23-2.62.76-4-.54-3.93-3.79,1.74,3,3.57,1.75,5.42.58,1.14-.71,2.29-1.42,3.46-2.09,3.3-1.91,6.31-4.36,10.15-5.22s7.66-1.76,11.48-2.65c3.3-.76,6.61-1.5,9.89-2.35a2.26,2.26,0,0,0,1.94-2.28c-.09-2.75-1.05-4.56-3.93-4.36a59.06,59.06,0,0,0-7.85,1c-5.52,1.14-11.16,2.07-15.92,5.45-2.36,1.67-4.67,3.43-7.12,5.23-.84-1.53-1.66-3.06-2.51-4.62-1,.84-1.84,1.62-2.75,2.28a27.58,27.58,0,0,1-2.85,1.83c-.84.46-1.86.75-2.42-.31A33.41,33.41,0,0,1,96.41,105c2,2.54,3.18,2.77,5.79.91.39-.28.78-.59,1.14-.9,2.11-1.84,4.16-3.76,6.34-5.52,3.6-2.9,7.37-5.37,12.28-5.49,3.72-.09,7.42-.48,11.12-.85a8.87,8.87,0,0,0,3-.93,2.62,2.62,0,0,0,1.64-3.15c-.47-1.85-1.94-3.32-3.47-3.29-1.93,0-3.88.11-5.8.32-7.1.79-14.12,1.87-20.14,6.2-1.46,1.06-3,2-4.5,3.1-.78-1.69-1.5-3.23-2.26-4.86-.6.44-1,.83-1.55,1.14a41.93,41.93,0,0,1-4.61,2.61,2.16,2.16,0,0,1-2-.55,18.58,18.58,0,0,1-1.25-3.59c2.1,2.71,3.2,2.93,6,1l.79-.55c2.22-1.71,4.4-3.47,6.67-5.1,4-2.85,8.16-5,13.27-4.71,3.5.17,7,.09,10.51,0a7.55,7.55,0,0,0,3.48-1,3.37,3.37,0,0,0,1.41-2.32,4,4,0,0,0-4.19-4.26c-3.12.06-6.24.3-9.34.62-5.17.54-10.27,1.39-14.8,4.19-2.24,1.39-4.45,2.81-6.76,4.27L97.05,77.5,91.62,81l-.4-.33c.24-.57.32-1.37.75-1.68,3-2.2,6-4.3,9.09-6.44,4.14-2.92,8.53-4.93,13.8-4.58A96.41,96.41,0,0,0,125.2,68a8.05,8.05,0,0,0,3.72-1.23,2,2,0,0,0,.52-3.22,7.41,7.41,0,0,0-3.27-2.07,12.62,12.62,0,0,0-4.17-.17c-5.91.39-11.93.29-17.47,2.73-3.38,1.49-6.57,3.42-9.92,5.2-.61-1.44-1.28-3.06-2-4.74-1.26.8-2.38,1.55-3.52,2.24-3.94,2.38-5.33,1.69-5.79-2.88a1.78,1.78,0,0,1,.09-.45c2,3.16,2.9,3.38,6.07,1.32,2.07-1.34,4.12-2.74,6.12-4.21,4.86-3.57,10.12-5.57,16.29-4.83a85.47,85.47,0,0,0,9.2.42,6.85,6.85,0,0,0,3.09-.69c2-1,2.34-3,.63-4.44a5.81,5.81,0,0,0-3.38-1.53c-4.46.05-8.93.35-13.38.68a26.11,26.11,0,0,0-11.31,3.56c-2.09,1.21-4.16,2.44-6.34,3.73-.68-1.63-1.35-3.24-2.07-4.93-.52.35-.9.64-1.31.89a28.75,28.75,0,0,1-4.07,2.29c-.81.31-2.37.3-2.73-.18a13.62,13.62,0,0,1-1.33-3.76l.43-.13c1.45,2.82,2.61,3.19,5.34,1.48,2.33-1.46,4.57-3.06,6.81-4.64,4.56-3.21,9.38-5.42,15.18-4.8a79.11,79.11,0,0,0,9.85.44,10.54,10.54,0,0,0,4.2-1.24,1.73,1.73,0,0,0,.58-2.55c-.77-1.35-1.75-2.52-3.5-2.49-4.57.09-9.14.16-13.71.32a28.77,28.77,0,0,0-13.3,4.1c-1.62.92-3.22,1.88-4.94,2.88l-1.93-4.84c-2.1,1.1-4,2.17-6,3.12-1,.48-2.12.43-2.57-.81A34.08,34.08,0,0,1,74.43,39a1.09,1.09,0,0,1,.73.73c.72,1.71,1.69,2.21,3.44,1.67a8.3,8.3,0,0,0,2-1c2.53-1.63,5-3.33,7.57-5,3.93-2.51,8.07-4.24,12.91-3.76,3.7.37,7.42.54,11.13.73a7.37,7.37,0,0,0,2.68-.37c1.33-.45,2.47-1.2,2.32-2.88a3.46,3.46,0,0,0-2.92-2.84,27.44,27.44,0,0,0-4.34-.37c-4.36,0-8.73.09-13.09.33a17.13,17.13,0,0,0-5.65,1.09c-3.49,1.48-6.84,3.33-10.6,5.2-.81-2.12-1.67-4.41-2.55-6.69-.18-.45-.36-1.12-.71-1.25a14,14,0,0,1-2.6-1.3l17.59-5.47a14.85,14.85,0,0,1-1.18,2.36,1.47,1.47,0,0,0-.1,1.16c.42,1.1,1,2.15,1.42,3.19l7.15-1.35c-2-4-4-7.82-5.93-11.66,0,0-6.53-.42-22.94,7.48a10.63,10.63,0,0,0-1.51,8.52c.74,2.87,1.5,5.74,2.45,8.54,3.46,10.26,7,20.48,10.5,30.72.23.67.36,1.37.59,2.26-1.54-.38-3,.27-3.72-1.66-3.76-10.55-7.64-21.06-11.41-31.61-1.26-3.52-3.06-6.93-2.94-10.83,0-1.46.18-2.92.29-4.45-.5.4-1,.76-1.4,1.14-7.26,6.42-12.7,13.69-11.49,24.15a25.89,25.89,0,0,1,0,2.8l6.61-2.69c0,.09.09.19.14.29L49.4,52.26A11.91,11.91,0,0,1,49,50.13,89,89,0,0,1,49.39,40.18Z"/></svg>