<svg id="Layer_1" data-name="Layer 1" xmlns="http://www.w3.org/2000/svg" viewBox="0 0 200 200"><g id="ejlWAt"><path d="M115.66,168.24l-26.25-2.38a6.52,6.52,0,0,1-1.73-.16c-2.65-1-3.94.47-5.29,2.47a73.59,73.59,0,0,1-22.76,21.57,22.23,22.23,0,0,1-10.87,3.67A9.5,9.5,0,0,1,41,190.15a24.73,24.73,0,0,1-6.19-21.63,35.8,35.8,0,0,1,8.39-17.11c1-1.22,1-2-.18-2.94-3-2.43-3.76-6.21-5.45-9.42-1.14-2.18-2.11-4.46-3.07-6.72-.65-1.53-1.79-.86-2.7-.6s-.88,1.21-.57,2.05.6,1.53.83,2.31c.72,2.43.43,3.66-1.28,4.9a5.16,5.16,0,0,1-5.85.6,5.66,5.66,0,0,1-1.83-1.39,5.44,5.44,0,0,0-3.94-2.62c-1.11-.13-1-1.11-.79-2,1-3.92,3.24-6.7,7.41-7.58,1.65-.34,3.28-.84,4.94-1.14,1.27-.23,1.44-.79,1-1.92a111.13,111.13,0,0,1-6.46-27.15c-2-18,2.38-34.13,13.92-48.21a79.82,79.82,0,0,1,22-19.1,101.94,101.94,0,0,1,22.7-9.07,68.31,68.31,0,0,1,20.44-2.94,15,15,0,0,0,7.11-1.69c3.67-1.85,7.65-1.89,11.63-1.61,7.78.54,14.44,4,20.91,8,4,2.43,8,4.77,11.89,7.21a4.6,4.6,0,0,1,1.47,1.68,8.38,8.38,0,0,0,3.11,3.09,9.39,9.39,0,0,1,2.83,3.28c1.78,3.09,3.34,6.3,5.07,9.42a1.8,1.8,0,0,0,1.46.74c1.34-.15,1.41.37,1.48,1.55a26.63,26.63,0,0,0,1.08,5.34,12.79,12.79,0,0,0,1.32,2.74,17.6,17.6,0,0,1,2.45,10.83c-.33,2.81.62,5.34,2,7.87a23.14,23.14,0,0,1,2.42,7.22c.86,5.67,1.46,11.4,1.93,17.12.37,4.66.59,9.36.53,14a77.81,77.81,0,0,1-4.05,22.73c-2.32,7.29-6.72,13-12.42,17.8a18.52,18.52,0,0,1-5.42,3,128.11,128.11,0,0,1-24.71,6.69c-6.84,1.07-13.63,3.06-20.71,2.16ZM27.89,89.72c.15,2.89.24,5.79.45,8.68.68,9.19,3.12,18,6.19,26.61a2.43,2.43,0,0,0,1.67,1.19c1.38.18,2.8,0,4.2.1,12.49.7,24.19,4.42,35.56,9.36,2,.86,3.94,1.73,6.12.92,1.81-.67,3.58-1.45,5.36-2.19.84-.35.83-.91.69-1.76a26.88,26.88,0,0,1-.45-5.29,16,16,0,0,1,3.69-9.27,14.17,14.17,0,0,1,6.27-5c.53-.19,1.28.22,1.93.36a5.33,5.33,0,0,1-.8,1.62c-2.25,2.18-4.65,4.2-6.82,6.45-1.07,1.1-2.35,2.51-2.51,3.9-.22,2,.47,4.07.84,6.1,0,.22.55.53.8.49,2.84-.45,5.65-1.1,8.51-1.39a3,3,0,0,0,2.92-2.43,8,8,0,0,1,1.92-3.08c2.16-2.09,5-3,7.84-3.48,9-1.64,17.69,0,26.26,2.73a3.38,3.38,0,0,1,2.5,2.36c.44,1.56,1.5,2.14,3.09,2.32a37.62,37.62,0,0,1,7.4,1.31,69.3,69.3,0,0,1,9.86,4.06c6.07,3.08,7.19,8.63,6.83,14.78,0,.35,0,.7,0,1a6.69,6.69,0,0,0,.76-.63,40.5,40.5,0,0,0,9-17.31c3.16-12.23,2.35-24.56.62-36.86a164.38,164.38,0,0,0-3.4-17.64c-2-7.81-4.47-15.5-6.72-23.24-.24-.82-.68-1-1.52-.76-5,1.48-10,2.84-15,4.37-6.24,1.92-12.74,1.44-19.1,2.23a4.83,4.83,0,0,1-2.52-.86c-.39-.21-.57-.81-.84-1.24a12.66,12.66,0,0,1,1.31-.45c5-1.08,10.14-2,15.16-3.25,5.82-1.44,11.59-3.06,17.63-3.27,1.85-.06,2-.31,1.36-2.12a39.26,39.26,0,0,0-8.6-13.8A54.67,54.67,0,0,0,137.9,22.61c-7.16-3.07-14.5-4.72-22.32-3.14-2.08.42-4.16.86-6.26,1.17-4.63.69-9.28,1.27-13.91,1.95A116.89,116.89,0,0,0,69,30C63.8,32,58.76,34.31,54.63,38.06a98.18,98.18,0,0,0-20.58,26C29.73,72.07,27.38,80.55,27.89,89.72Zm10,85.27c.48,2.23.9,5.2,1.77,8,1.38,4.48,5.84,6.63,9.22,5.67a61,61,0,0,0,7.85-2.42c7.16-3.14,14-6.73,18.46-13.63,2.78-4.29,5.82-8.41,8.68-12.65a5.76,5.76,0,0,0,.48-1.92c-.59.25-1.19.45-1.75.75-.73.37-1.38.92-2.13,1.21-1.24.46-2.12-.14-1.93-1.44a24.88,24.88,0,0,1,1.14-4c.38-1.14.9-2.23,1.26-3.38.11-.35-.13-.8-.21-1.21-.4.09-1,0-1.18.28-1.17,1.32-2.23,2.73-3.37,4.08a23.54,23.54,0,0,1-3.54,3.89c-1.47,1.08-2.24.59-2.55-1.21A10,10,0,0,1,70,154.6c.18-2.26.49-4.51.63-6.77.09-1.44-.32-1.61-1.61-.91-2.25,1.22-3.61,3.28-5.11,5.24a45.2,45.2,0,0,1-4.88,5.46c-1.14,1-1.95.55-2-1a11.17,11.17,0,0,1,.14-2.45c.61-3.12,1.3-6.23,1.94-9.35a13.59,13.59,0,0,0,.13-1.69,10.68,10.68,0,0,0-1.8.24c-4.4,1.39-7.76,4.27-10.59,7.77C41.46,157.86,38.9,165.7,37.94,175Zm74.42-10.23c5.77-.39,11.55-.85,17.33-1.17a100.83,100.83,0,0,0,18.68-3.13c.23-.06.44-.17.66-.25a6,6,0,0,0-.72-.23c-3.87-.76-7.81-1.28-11.6-2.33a20.92,20.92,0,0,1-10.08-6.26c-.89-1-1.69-1.46-2.84-.84-2.63,1.41-5.44,2.6-7.78,4.4-8.38,6.45-17.69,9-28.15,7.46a8,8,0,0,0-1,0,4.3,4.3,0,0,0,.92.39A190.11,190.11,0,0,0,112.36,164.76ZM39.84,131.23c-.39,0-.78,0-1.16,0-1.27-.1-1.71.26-1,1.55s1.1,2.57,1.66,3.85a33.11,33.11,0,0,0,5.94,9.87c.7.74,1.18,1.31,2.14.21A22.62,22.62,0,0,1,50.56,144c2.58-2.05,5.18-4,8.69-4.27,2.55-.18,3.89,1.2,3.3,3.69a11.07,11.07,0,0,1-.73,1.88,8.57,8.57,0,0,0-.75,1.56,9.08,9.08,0,0,0,0,1.88,6.17,6.17,0,0,0,1.66-.69,38.91,38.91,0,0,1,3.33-3,19.88,19.88,0,0,1,5-2.41c1.55-.46,2.18.29,2.25,1.92.08,1.93.14,3.86.31,5.78,0,.36.54.68.83,1,.27-.46.82-1,.75-1.38q-.68-3.78-1.61-7.51a2.8,2.8,0,0,0-1-1.62A58.39,58.39,0,0,0,66.1,137C57.81,133,49,131.46,39.84,131.23Zm78.81-8.14,0,.37c-5.43-.36-9,2.65-12.11,6.53-.81,1,.17.81.64.92,4.32.92,7.51,2.94,8.55,7.69a5.37,5.37,0,0,0,8.68,3.07,22.25,22.25,0,0,0,5-5.27c2-3,4-5.76,7.71-6.83a5.17,5.17,0,0,0,1.34-.9,5.71,5.71,0,0,0-1.52-1.09c-3.34-1-6.69-1.91-10.07-2.74C124.13,124.17,121.38,123.67,118.65,123.09Zm-10.81,15.06c.22-1.21-.56-2.2-2.1-2.52a23.46,23.46,0,0,0-4.41-.57,2.66,2.66,0,0,0-1.63,1c-.85,1-1.39,2.38-2.39,3.18-2.59,2.08-5.31,4-8.07,5.84-3.12,2.08-6.06,4.23-6.28,8.42a1.39,1.39,0,0,0,.43,1.09c1.39.81,2.87,1.47,4.26,2.28a1.67,1.67,0,0,0,2.31-.1,25.69,25.69,0,0,1,2.82-2c3.46-2.36,7-4.56,10.36-7.12A11.94,11.94,0,0,0,107.84,138.15Zm36.48,14.73a22,22,0,0,0,4.6-1.38c5.51-3.05,7.48-8.29,8.26-14.15a1.2,1.2,0,0,0-.59-1,15.7,15.7,0,0,0-4.37-.59c-2.86.28-4.72,2.32-6.34,4.45-2.51,3.3-4.87,6.71-7.33,10.05-.54.73-.1,1,.44,1.12C140.74,151.91,142.51,152.38,144.32,152.88Zm-24.46-5.14v.07a14.28,14.28,0,0,0-2.17,0c-1.16.18-.86,1.18-.74,1.85a1.38,1.38,0,0,0,1.16.72,13.52,13.52,0,0,0,3.19-.9c.48-.21.77-.85,1.14-1.3a14.6,14.6,0,0,0-1.42-.45A6.4,6.4,0,0,0,119.86,147.74Z"/><path d="M101.18,78.77A54.6,54.6,0,0,1,83,75a2.6,2.6,0,0,1-1.17-1.91,8,8,0,0,1,3.82-7.63,32.93,32.93,0,0,1,3.18-2c.93-.51.86-1.15.08-1.44a35.43,35.43,0,0,0-6-1.79c-3.33-.57-6.71-.76-10-1.3A5,5,0,0,1,69,55.64a4.67,4.67,0,0,1-.1-1.36,5.24,5.24,0,0,1,1.25,0c3.78.78,7.53,1.79,11.34,2.37,5.3.81,10.65,1.21,16,2,4.78.68,9.53,1.59,14.27,2.47,1.39.26,1.64,1,.57,2a4.32,4.32,0,0,1-2.68,1.11c-2.21,0-4.41-.41-6.62-.65-.23,0-.47,0-.7,0a5.67,5.67,0,0,0,.59.51,52.38,52.38,0,0,1,4.53,2.85,6.35,6.35,0,0,1,2.66,6.75c-.6,2.77-2.54,4.12-5.16,4.63C103.44,78.49,102,78.65,101.18,78.77Zm.06-2.85,4.57-.68c1.41-.2,1.85-1,1.58-2.36a8.62,8.62,0,0,0-4.76-6.21,14.84,14.84,0,0,0-10.8-1.42c-2.68.69-5.07,1.92-6.39,4.57-1.06,2.11-.75,2.91,1.43,3.69A38.38,38.38,0,0,0,101.24,75.92Z"/><path d="M99.13,100.33c0-3.32,0-3.34,3.24-4.2a22.14,22.14,0,0,1,3.13-.59.9.9,0,0,1,.79,1.6,5.16,5.16,0,0,1-1.67,1c-.76.29-1.63.31-2.36.65-.49.23-1.2,1-1.1,1.22.24.58.84,1.35,1.36,1.4a11.08,11.08,0,0,0,3.27-.38c3.43-.75,4.42.22,3.7,3.73a7.8,7.8,0,0,1-.47,1.67,2.59,2.59,0,0,0,1.08,3.62,18.1,18.1,0,0,0,3.91,2.12,23.72,23.72,0,0,0,16.6-.57c2.24-.9,4.48-2.12,5.09-4.93a4.44,4.44,0,0,0-.81-3.82,16.38,16.38,0,0,1-1.91-2.54,18.15,18.15,0,0,1-1.38-4.14c-.46-2.29-.45-4.72-1.15-6.93a10.46,10.46,0,0,1,.09-6.66c.51-1.56,1-3.15,1.58-4.67,1.18-2.92.21-5.26-1.82-7.36-.77-.8-1.58-1.56-2.32-2.39a6.25,6.25,0,0,1-1.24-1.76,6.7,6.7,0,0,1-.22-1.92,4.61,4.61,0,0,1,1.55.47,46.19,46.19,0,0,1,5.14,4.4,6.72,6.72,0,0,1,1.23,7.46c-2.78,6.75-2.28,13.42.07,20.09a37.07,37.07,0,0,0,1.78,3.64c.61,1.25,1.31,2.49,1.79,3.79a4.88,4.88,0,0,1-1.83,6,32.08,32.08,0,0,1-10.38,5.33c-4.57,1.41-8.88.44-13.07-1.49-2.07-1-4.12-1.92-6.19-2.84a1.2,1.2,0,0,1-.86-1.56c.35-1.55.56-3.13.94-4.68.23-1-.12-1.26-1-1.23s-1.55,0-2.31.12C99.77,104.51,99.13,104,99.13,100.33Z"/><path d="M147.25,79.28a.86.86,0,0,1-.54,0,12.06,12.06,0,0,1-1.34-.79c.33-.42.64-.85,1-1.24a4.25,4.25,0,0,1,.73-.53,2.92,2.92,0,0,0-.91-.29c-.67,0-1.35.19-2,.13s-1.33-.21-1.5-.56a1.86,1.86,0,0,1,.24-1.69c1-1,.27-1.41-.37-1.91-1.32-1-2.77-1.95-4-3.1-1.54-1.44-1.56-2.28.12-3.53A11.22,11.22,0,0,1,143,63.66c4.2-.82,8.49-1.24,12.71-2,2.38-.43,4.08,0,5.29,2.25a10.09,10.09,0,0,1,1.46,6.35c-.14,1-.65,1.41-1.7,1.54-2.44.3-4.85.76-7.28,1.18a1.62,1.62,0,0,0-.46.28c.14.11.28.3.43.31q1.08.06,2.16,0c1.78,0,3.57-.12,5.35-.15a2,2,0,0,1,1.25.28,13.36,13.36,0,0,1,1.46,1.63,6.31,6.31,0,0,1-1.71.84c-1.62.24-3.28.23-4.88.53-.56.1-1,.82-1.51,1.25-.26.23-.53.61-.82.65C152.37,78.87,150,79.05,147.25,79.28Zm2.45-7.87a20,20,0,0,0,9.66-3.28c.85-.55.81-1,.2-1.71a6.66,6.66,0,0,0-6.16-2.09c-1.11.13-2.74,0-1.69,2a.94.94,0,0,1,0,.84,14.73,14.73,0,0,1-1.5,1.24,13,13,0,0,1-.67-1.65c-.06-.24.25-.57.2-.82s-.36-.63-.52-.61q-3.7.53-7.4,1.15c-1.47.26-1.65.73-.79,1.92C142.8,70.88,145.42,71.46,149.7,71.41Z"/><path d="M85.61,53c3.5.33,7,.57,10.52,1,6.53.82,13,.31,19.5-.48,11.87-1.44,23.47-4.24,35-7.28a10.58,10.58,0,0,1,2.42-.42c.44,0,.89.37,1.34.57a4.06,4.06,0,0,1-.84,1.06,26.41,26.41,0,0,1-9.37,3.33c-4,.79-8,1.49-11.95,2.32A38.52,38.52,0,0,0,128,54.46c-.93.3-1.27.85-.57,1.72.09.11.17.24.25.36.47.75,1.39,1.59.27,2.35a2.28,2.28,0,0,1-3.05-.36,6.07,6.07,0,0,1-1-1.88,2.16,2.16,0,0,0-2.56-1.53c-6.68.65-13.35,1.41-20,1.71a49.56,49.56,0,0,1-17.45-2.32,3.58,3.58,0,0,1-.67-.26,7.09,7.09,0,0,1-.74-.59,2.84,2.84,0,0,1,1-.48c.77-.07,1.55,0,2.32,0Z"/><path d="M93.06,48.68c2,.3,4.29.54,6.51,1,2.81.56,5.49-.08,8.17-.7a39.17,39.17,0,0,1,13.64-1.19,27.7,27.7,0,0,0,6.37.07,37.76,37.76,0,0,0,6.69-1.56c1.6-.5,3.07-1.42,4.64-2a5.81,5.81,0,0,1,5.42.5,2.52,2.52,0,0,1,.51.64c-.18.13-.36.4-.53.39-3.73,0-6.66,2.17-9.89,3.5a19,19,0,0,1-8.93,1.31,88.16,88.16,0,0,0-20.65,1c-4.59.69-9.22,1.2-13.8-.16a16.64,16.64,0,0,1-2.61-1.29c.88-.4,1.75-.85,2.65-1.18A8.75,8.75,0,0,1,93.06,48.68Z"/><path d="M76.11,108.17a11.75,11.75,0,0,1,2.67-6.64A28.08,28.08,0,0,1,98.2,89.85a6.5,6.5,0,0,1,1.58-.14,7.67,7.67,0,0,1,1.45.41c-.26.53-.39,1.24-.81,1.56a6.48,6.48,0,0,1-2.22,1,10.57,10.57,0,0,1-2.44.29c-2.43,0-4.27.59-5.09,3.36-.69,2.35-2.57,4-4.61,5.43a3.74,3.74,0,0,1-1,.31c-.07-.32-.15-.63-.21-.94s-.12-.73-.18-1.09a5.05,5.05,0,0,0-1.11.57,18.24,18.24,0,0,0-5.43,7.56A8.6,8.6,0,0,1,76.78,110Z"/><path d="M93.33,86.81a16.8,16.8,0,0,1-2.46,0,3.26,3.26,0,0,1-2-.73,5.68,5.68,0,0,1-.58-2.23,8.16,8.16,0,0,1,1.71,0c.94.21,1.84.57,2.76.83.18,0,.41-.09.61-.14a4.71,4.71,0,0,0-.48-.29c-2.25-.87-4.51-1.73-6.76-2.61-3.24-1.27-6.52-2.48-9.08-5a5,5,0,0,1-.65-1,4.54,4.54,0,0,1,1.18.13c6.13,2.37,12.38,4.14,19,4.11,2.21,0,4.43,0,6.64,0a4.47,4.47,0,0,1,1.28.42c-.25.37-.42.89-.77,1.08a8.1,8.1,0,0,1-2.16.79c-1.27.28-2.57.46-3.85.68-1,.18-1.64.45-.84,1.67.88,1.37.36,2.18-1.29,2.25-.77,0-1.55,0-2.32,0Z"/><path d="M144.42,91.83c1.28.33,2.52.76,3.8,1,1.6.26,3.23.27,4.83.5a3.81,3.81,0,0,1,1.89.74c2.32,2.09,3,5,3.73,7.86.61,2.33,1.05,4.7,1.53,7.06a4.31,4.31,0,0,1-.09,1.23c-.4-.17-1-.23-1.18-.54a12.53,12.53,0,0,1-2-3.94c-.63-3.76-2.93-6.07-6-7.85-2-1.19-4.1-2.34-6.15-3.52a4.44,4.44,0,0,1-1-.78,9.32,9.32,0,0,1-.84-1.24Z"/><path d="M127.1,44.12c-4.29-.64-7.38.4-10.48,1.56A27.46,27.46,0,0,1,112,47a4,4,0,0,1-4.22-1.63c-.48-.66-.44-1.25.56-1.21,4.81.21,9.33-1.42,14-2.27a26.8,26.8,0,0,1,9.49-.32,4.69,4.69,0,0,1,1.22.58c-.3.34-.55.89-.92,1C130.19,43.55,128.23,43.89,127.1,44.12Z"/><path d="M141.19,111.11a8.81,8.81,0,0,1,5.93,3.75c1.69,2.56,3.13,5.3,4.6,8,.69,1.27,1.23,2.62,1.79,4a4.19,4.19,0,0,1,.14,1.18c-.39-.14-.88-.18-1.14-.44a18.86,18.86,0,0,1-2.69-3c-2.11-3.28-4-6.69-6.17-10A17,17,0,0,0,141,112a7.73,7.73,0,0,1-.49-.64Z"/><path d="M55.34,76.64c.18.07-.13,0-.13-.06,0-.27,0-.65.15-.78A8.41,8.41,0,0,1,58.07,74c3-.71,6.13-1.15,9.21-1.67,1.81-.3,3.62-.55,5.43-.79a2.79,2.79,0,0,1,.8.1c-.09.26-.1.63-.28.76a10.31,10.31,0,0,1-3.14,1.92c-3,.67-6.17,1-9.26,1.5Z"/><path d="M118.75,85.69a4.19,4.19,0,0,1,1.11-.59c1-.21,2.08-.35,3.13-.46,1.26-.13,1.3.75.93,1.49-.63,1.23,0,1.27.92,1.23s1.74,0,2.61,0c1.12.07,1.55.81.77,1.6a4.1,4.1,0,0,1-2.58,1.23,34.07,34.07,0,0,1-5.3-.57,1.07,1.07,0,0,1-.76-.56C119.27,88.07,119.07,87,118.75,85.69Z"/><path d="M60,52a15.65,15.65,0,0,1-3.58,10,5.45,5.45,0,0,1-1.24.82c-.1-.49-.38-1-.26-1.44.41-1.42,1.07-2.77,1.43-4.2.53-2.08.92-4.2,1.31-6.31.13-.75-.11-1.57,1.13-1.56S59.94,50,60,50.79C60,51.18,60,51.56,60,52Z"/><path d="M48.39,103.27a15.4,15.4,0,0,0-.72,3,10,10,0,0,0,.64,2.77c.07.3.41.7.32.83a1.49,1.49,0,0,1-.92.56,2.67,2.67,0,0,1-2.83-2.7A55,55,0,0,1,46.21,102c.12-.44.69-.77,1-1.15a14.47,14.47,0,0,1,1,1.34C48.39,102.44,48.33,102.77,48.39,103.27Z"/><path d="M46.37,93.16c-.24,3.29-2.38,5.55-4.69,7.64-.71.64-.87-.19-.84-.71a8.16,8.16,0,0,1,2-5c.8-1,1.52-2,2.28-3,.22-.29.47-.56.7-.84a11.38,11.38,0,0,1,.52,1.12A3.79,3.79,0,0,1,46.37,93.16Z"/><path d="M64,118.27c.48-.92.92-1.9,1.47-2.82s1.37-2,2-3c.39-.72.71-.68,1.16-.14a2.65,2.65,0,0,1,.19,3.36,44.64,44.64,0,0,1-3.3,4c-.15.17-.69.28-.73.21A14.17,14.17,0,0,1,64,118.27Z"/><path d="M144.91,98.91c.29-.09.74-.41,1.1-.33,1.74.38,4.26,3.34,4.44,5.17,0,.23-.43.73-.62.71C147.77,104.28,145,101.33,144.91,98.91Z"/><path d="M155.42,82.83a6.45,6.45,0,0,1-1.79-.17,5.51,5.51,0,0,1-1.26-1c.41-.42.85-1.22,1.23-1.19a14.13,14.13,0,0,1,3.74.81c.75.28.62,1-.14,1.22A9.85,9.85,0,0,1,155.42,82.83Z"/><path d="M64.83,75.65c.29.36.9.8,1,1.33.16.92-1.13,1.86-2.35,1.81-.86,0-1.77-.26-1.69-1.33C61.9,75.85,63.35,76.06,64.83,75.65Z"/><path d="M126.35,98.79c-.55-.6-1.28-1.13-1.19-1.36a8.24,8.24,0,0,1,1.27-1.85,9.34,9.34,0,0,1,1.26,1.92C127.76,97.69,127,98.21,126.35,98.79Z"/><path d="M123.49,132.54c-1.06-.28-2.4-.67-3.75-1-1.67-.39-3.35-.72-5-1.09-.22,0-.6-.14-.6-.22,0-.25.06-.66.23-.74.92-.45,1.93-1.24,2.83-1.15a53.94,53.94,0,0,1,6.45,1.34,8.65,8.65,0,0,1,1.78.59,7.8,7.8,0,0,1,1.19.84,5.66,5.66,0,0,1-1.22,1.09A7.64,7.64,0,0,1,123.49,132.54Z"/><path d="M94.68,71.34c0-1.38.58-1.92,2.17-2s3,1.06,2.9,2.39c-.07,1.74-1.54,1.51-2.58,1.59C95.28,73.52,94.71,73,94.68,71.34Z"/></g></svg>