<svg id="Layer_1" data-name="Layer 1" xmlns="http://www.w3.org/2000/svg" viewBox="0 0 200 200"><defs><style>.cls-1{fill:none;stroke:#000;stroke-width:3px;}</style></defs><path d="M99.75,7.5A92.72,92.72,0,0,0,7,100.37a95.05,95.05,0,0,0,4.77,29.43H39.43v-78L99.75,112.2l60.33-60.42v78h27.66a95.65,95.65,0,0,0,4.77-29.43A92.74,92.74,0,0,0,99.76,7.5ZM85.92,125.83,59.54,99.37v49.09H20.59a92.63,92.63,0,0,0,158.35,0H140V99.37l-26.15,26.42L100,139.65,86,125.79h-.06Z"/><circle class="cls-1" cx="99.25" cy="99.75" r="92.75"/></svg>