<svg id="Layer_1" data-name="Layer 1" xmlns="http://www.w3.org/2000/svg" viewBox="0 0 200 200"><g id="d2aio3"><path d="M124.77,108.71c0,9.32,0,18.64,0,28a4.93,4.93,0,0,1-1.68,4.08c-2.44,2.22-4.74,4.59-7,7a3.57,3.57,0,0,1-2.95,1.26c-4-.11-8,0-12,0-14.34,0-28.68,0-43,0a5.37,5.37,0,0,1-4.46-1.78C50.77,144,47.71,141,44.71,138v-12c0-14.77,0-29.54,0-44.31a6.42,6.42,0,0,1,2.77-5.75,67.94,67.94,0,0,0,7.65-7.53,3.62,3.62,0,0,1,3-1.22q27.1.08,54.21,0a3.62,3.62,0,0,1,3,1.19c3.07,3.22,6.26,6.32,9.4,9.46,0,4.28.11,8.57.13,12.85C124.79,96.66,124.77,102.69,124.77,108.71Zm-39.57,23c2-.41,4,.21,6.22-.44,2.91-.87,5.32-2.48,7.86-3.89s5.81-7.24,7.53-10.56,1.44-6.38,1.64-9.67c.22-3.69-1.29-7-2.74-10.06a19.77,19.77,0,0,0-5.86-7,24.52,24.52,0,0,0-14.63-5.19c-1.17-1.5-1.87.42-2.88.45a15.2,15.2,0,0,0-4.46.56,23.09,23.09,0,0,0-11.32,8,24.41,24.41,0,0,0-5.45,15.82,24.31,24.31,0,0,0,.81,3.95c1.08,6.63,5.29,11.08,10.52,14.64C76.21,130.81,80.41,132.46,85.2,131.7Zm.83,6.9a15.88,15.88,0,0,0,0-1.69c-.06-.62.4-1.47-.62-1.73-.72-.18-1.86.81-1.93,1.76a23.83,23.83,0,0,0,0,3.38c.07.92,1.41,2.09,1.92,1.69s.51-1.12.62-1.72A9.52,9.52,0,0,0,86,138.6Zm0-60.25a15,15,0,0,0,0-2.12,5.19,5.19,0,0,0-.6-1.32c-.56.34-1.57.63-1.61,1a20.53,20.53,0,0,0,0,4.83c0,.4,1,.69,1.62,1A5.79,5.79,0,0,0,86,80.46,14.85,14.85,0,0,0,86,78.35Zm24.21,39.51c-.42.21-.87.37-.85.45.08.49.12,1.24.44,1.42a38.4,38.4,0,0,0,5,2.36c.25.1,1-.79,1.3-1.34.09-.15-.43-.87-.81-1-1.07-.49-2.22-.82-3.33-1.22Zm6.1-22.58c-.41-.22-.81-.62-1-.53-1.83.73-3.63,1.55-5.42,2.37a1.27,1.27,0,0,0-.59.6,1.19,1.19,0,0,0,0,.83c.1.21.5.49.62.44,1.89-.91,4.19-.94,5.77-2.53A5,5,0,0,0,116.34,95.28Zm-7.06-10c-.1-.24-.22-.69-.3-.69-.76.06-2.08,0-2.19.34a4.16,4.16,0,0,1-3,3,1.28,1.28,0,0,0-.46,1,2,2,0,0,0,1.23.69C105.66,89.46,109,86.34,109.28,85.23ZM54.17,122.3c2.08-.89,3.65-1.54,5.2-2.24a1.17,1.17,0,0,0,.59-.59c.13-.36.3-.88.14-1.12A1.15,1.15,0,0,0,59,118c-1.69.7-3.35,1.48-5,2.3a1,1,0,0,0-.48.86A4.37,4.37,0,0,0,54.17,122.3Zm6-24.09c-.09-.25-.1-.62-.27-.73a47.73,47.73,0,0,0-4.83-2.69c-.32-.15-1.07.67-1.63,1,.3.4.53,1.07.89,1.15a12.79,12.79,0,0,1,4.71,2,.86.86,0,0,0,.78-.1C60.05,98.77,60.1,98.44,60.21,98.21ZM75.52,133.7c-.3-.3-.55-.71-.91-.86a1,1,0,0,0-.86.45c-.82,1.78-1.59,3.59-2.33,5.41-.06.16.16.55.34.67a.91.91,0,0,0,.79.09C74.58,138.09,74.15,135.43,75.52,133.7Zm33.36-1.94a3.94,3.94,0,0,0,.34-.49c-1.49-1.52-3-3-4.53-4.5-.07-.06-.6.32-.87.53a2.23,2.23,0,0,0-.5.58c1.48,1.53,3,3.05,4.54,4.49C108,132.46,108.65,131.9,108.88,131.76Zm-12-54.4c-.16.43-.29.87-.49,1.28C95.63,80.15,94,81.38,95,83.38a.85.85,0,0,0,.77.12c1.94-1.08,1.62-3.26,2.33-4.94a.9.9,0,0,0-.16-.77C97.77,77.61,97.44,77.58,96.85,77.36ZM72,77c-.32.8-.66,1.22-.57,1.48.5,1.35,1.12,2.67,1.68,4,.11.24.08.72.19.75a19.36,19.36,0,0,0,2,.25c-.14-.4-.3-.8-.42-1.21a18.75,18.75,0,0,0-1-3A12.42,12.42,0,0,0,72,77Zm23.76,55.78a4.31,4.31,0,0,0-.92.95c-.3.58,1.46,5.36,2.09,5.74a.93.93,0,0,0,.79-.09.81.81,0,0,0,.34-.68c-.54-1.91-1.14-3.81-1.75-5.7C96.27,132.87,95.94,132.83,95.76,132.77ZM61.6,84.34c-.16.26-.56.76-.5.83q2.07,2.23,4.25,4.35c.08.08.63-.09.68-.24.12-.35.24-.92.06-1.12-1.14-1.24-2.35-2.42-3.57-3.59C62.36,84.41,62,84.44,61.6,84.34ZM100.39,130a7.21,7.21,0,0,0-1.39,2c-.34,1,.9,2.63,1.72,2.32a3.26,3.26,0,0,0,1.62-1.65C102.75,131.65,101.71,130.11,100.39,130ZM71.08,132c-1-.84-1.56-1.84-2.27-1.91-1-.1-1.71.76-1.72,1.94s1.14,2.63,1.91,2.21S70.23,133,71.08,132Zm10.33,4.3c-1-.84-1.56-1.84-2.27-1.91-1-.09-1.71.77-1.72,2s1.14,2.63,1.91,2.2A10.52,10.52,0,0,0,81.41,136.32Zm11.19,0c-.94-.84-1.56-1.84-2.27-1.91-1-.09-1.7.77-1.72,2s1.14,2.63,1.91,2.2A10.52,10.52,0,0,0,92.6,136.32Zm-26.33-8.41c-.28-.15-.79-.53-.88-.45-1.47,1.39-2.9,2.83-4.3,4.29a.84.84,0,0,0,.28.67c.35.1.91.19,1.11,0,1.25-1.14,2.43-2.35,3.6-3.57C66.23,128.68,66.19,128.34,66.27,127.91ZM54.77,109.4c1-.72,2.94,1.1,3.72-1.12-1.09-1.41-2.63-.67-3.86-.55-1,.1-3-1.34-2.9,1C51.8,110,53.62,109.06,54.77,109.4Zm60.32,0c1-.82,2.87,1.09,3.66-1.13-1.07-1.45-2.62-.67-3.84-.56-1,.09-3-1.33-2.92.94C112.06,110,113.88,109.05,115.09,109.42Zm-2.61,6.88c1.34-.21,2.34-1.74,1.91-2.7a3.2,3.2,0,0,0-1.65-1.61c-.83-.29-2,1.33-1.69,2.36A7.51,7.51,0,0,0,112.48,116.3Zm-21.74-38c-1.32,0-2.49,1.58-2.06,2.49a4.27,4.27,0,0,0,2,1.66c.52.26,1.62-1.28,1.34-2.11A8.47,8.47,0,0,0,90.74,78.34ZM101,82.62c-1.32.11-2.45,1.7-2,2.59a4.69,4.69,0,0,0,2,1.63c.44.23,1.59-1.52,1.3-2.23A10.62,10.62,0,0,0,101,82.62Zm9.58,41.66c-.79-.77-1.32-1.62-2.07-2s-1.85,1.1-1.8,2.31a7.09,7.09,0,0,0,2.21,1.84C109.43,125.87,109.88,125.21,110.57,124.28ZM61.64,94.57a6.08,6.08,0,0,0,1.11-1.67c.29-1.07-.76-2.58-1.64-2.46a1.91,1.91,0,0,0-1.77,2C59.29,93.2,60.39,94.43,61.64,94.57Zm51.45,10.49a9.32,9.32,0,0,0,1.31-2c.28-.77-.84-2.41-1.33-2.17a4.49,4.49,0,0,0-2,1.65C110.61,103.43,111.76,105,113.09,105.06ZM81.28,80.24c-.82-.72-1.41-1.6-2.16-1.77-.43-.1-1.68,1.32-1.61,1.43a21.88,21.88,0,0,0,2.25,2.58ZM70.54,84.18c0-1.47-.16-1.63-1.25-1.52-1.27.12-2.34,1.06-2.2,1.92a2.57,2.57,0,0,0,2.6,1.52C71.07,85.94,70.33,84.85,70.54,84.18Zm40,8.35c-.6-.78-.91-1.51-1.43-1.74-.32-.14-1,.5-1.48.83a4.25,4.25,0,0,0-.6.6c-.67.68-.41,1.28.23,1.75.42.31,1.18.82,1.35.68A15.16,15.16,0,0,0,110.55,92.53ZM60.31,125.82c1.08-.39,2.46.63,2.48-1.16,0-1.19-.86-2.4-1.71-2.4a2.16,2.16,0,0,0-1.68,2.38C59.44,125.09,60,125.49,60.31,125.82Zm-3.72-21.64c1.65,0,1.79,0,1.9-.87a2.42,2.42,0,0,0-1.55-2.57c-.87-.13-1.74,1-1.91,2.21S55.72,104.21,56.59,104.18Zm0,11.19c.67-.21,1.75.53,1.92-.85A2.54,2.54,0,0,0,57,111.93c-.86-.15-1.75.93-1.93,2.19S55.67,115.43,56.57,115.37Z"/><path d="M124.77,75.34c-3.18-3.19-6-5.89-8.64-8.68a3.64,3.64,0,0,0-2.95-1.26q-28.4.09-56.8,0c-1.21,0-2.25.08-3,1.2a3.83,3.83,0,0,1-.6.61l-7.91,7.45c-.06-3.7-.18-7.4-.19-11.1q0-23.88,0-47.76a10.61,10.61,0,0,1,.07-3,3.48,3.48,0,0,1,1.69-1.58c.45-.24,1.13-.05,1.7-.05h74.44c1,0,2.21-.48,2.21,1.52C124.75,33.36,124.77,54,124.77,75.34ZM85.65,21.53H53.41c-3.24,0-3.52.24-3.52,3.23q0,14.4,0,28.8c0,2.85.38,3.25,3.07,3.25q32.46,0,64.91,0c1.16,0,1.78-.07,1.77-1.54q-.09-16.11,0-32.24c0-1.44-.57-1.56-1.75-1.56C107.14,21.55,96.4,21.53,85.65,21.53Z"/><path d="M129.94,84.19q0,37.23,0,74.45c0,.79-.09,2.1-.5,2.26-1.11.44-1.63-.83-2.3-1.48a2.49,2.49,0,0,1-.6-1.45c-.09-1,0-2,0-3q0-70.59,0-141.16c0-1.4.25-3.09-.44-4.07-.44-.63-2.38-.24-3.66-.24q-37.65,0-75.31,0c-1.75,0-3.42,0-4.47-1.7-.12-.2-.22-.4-.33-.61A3,3,0,0,1,43,6.91c.71,0,1.43,0,2.15,0h81.77c.57,0,1.15,0,1.72,0C129.5,6.81,130,7,130,8s0,2,0,3Z"/><path d="M84.31,158.42c-12.63,0-25.25,0-37.87,0-1.19,0-1.79-.12-1.76-1.56.09-4.59,0-9.18,0-13.77,0-.35.24-.9.5-1a1.31,1.31,0,0,1,1.11.32c2.66,2.61,5.33,5.21,7.9,7.92a3.67,3.67,0,0,0,3,1.21q28-.06,55.94,0a3.64,3.64,0,0,0,3-1.22c2.47-2.61,5-5.1,7.6-7.62a2.62,2.62,0,0,1,.9-.39,3.57,3.57,0,0,1,.16.79c0,4.59-.06,9.18,0,13.77,0,1.46-.6,1.56-1.77,1.55-5.31-.05-10.62,0-15.93,0Z"/><path d="M40.41,84.6V12.71c0-1.14,0-2.29,0-3.44,0-.12.64-.36.7-.3.81.91,2.2,1.47,1.87,3.1a8.23,8.23,0,0,0,0,1.72v142c0,1.68.39,3.49-1.51,4.55a2.71,2.71,0,0,0-.62.6,3.64,3.64,0,0,1-.43-1.06c-.06-1.15,0-2.3,0-3.44Z"/><path d="M157.49,128.28c0-17.64-.09-35.29.08-52.93,0-3.41-1.27-6.6-1-10,0-.32-.48-.65-.61-1-.6-1.79-.26-2.31,1.47-2.35,3.82-.1,3.57-.14,2.81,3.79a37.47,37.47,0,0,0-1.12,7.33q.15,56.38.06,112.76c0,1.66.28,3.29-1.41,4.62s-3.21,2.4-5.5,2.39c-15.21-.07-30.41,0-45.62,0-4.15,0-6.82-2.78-6.86-7,0-2.15.06-4.3,0-6.45-.06-1.46.91-1.17,1.7-1.12.26,0,.5.36.75.55-1.42,1.61-.48,3.53-.7,5.3-.37,3,1.56,4.93,3.59,6.66.52.44,1.58.35,2.4.36,7.6,0,15.21,0,22.81,0,7,0,14.06,0,21.09,0,4.12,0,6-1.92,6-6Q157.51,156.7,157.49,128.28Z"/><path d="M144.58,124.16q0-25.81,0-51.62a22.36,22.36,0,0,0-1.66-8.35c-.54-1.37,0-2.15,1.41-2.19.57,0,1.15,0,1.72,0,2.17,0,2.26.29,1.69,2.46a32.9,32.9,0,0,0-1.46,8.44q0,51.84,0,103.68c0,1,.08,2,0,3a5.2,5.2,0,0,1-4.84,4.62q-10.53.14-21.08,0a5.08,5.08,0,0,1-5-4.86,1.33,1.33,0,0,1,.41-1.07c.26-.14.75.1,1.13.22a.5.5,0,0,1,.3.29c1.37,3.9,4.52,3.85,7.86,3.76,4.87-.14,9.75,0,14.63-.05a4.8,4.8,0,0,0,4.91-5Q144.59,150.83,144.58,124.16Z"/><path d="M84.75,162.72H43.43a5,5,0,0,1-1.17-.29l.65-.91a3.62,3.62,0,0,1,3.31-1.4q38.52.06,77,0a4.18,4.18,0,0,1,3.61,1.72,4.08,4.08,0,0,1,.36.61,2.47,2.47,0,0,1-.73.29c-1,0-2,0-3,0Z"/><path d="M142.85,43c0-4.58,0-9.17,0-13.75,0-1.17.1-1.94,1.56-1.75a10.2,10.2,0,0,0,2.14,0c1-.07,1.52.11,1.52,1.35-.05,9.74,0,19.48,0,29.21,0,.84-.11,1.38-1.11,1.31a12.86,12.86,0,0,0-2.15,0c-1.37.15-2-.06-2-1.79C143,52.78,142.85,47.91,142.85,43Z"/><path d="M155.77,43c0-4.73,0-9.45,0-14.18,0-.84.12-1.36,1.12-1.3a20.19,20.19,0,0,0,2.58,0c1-.07,1.52.13,1.51,1.36q-.08,14.61,0,29.21c0,.84-.13,1.37-1.13,1.3a11.77,11.77,0,0,0-2.14,0c-1.39.16-2-.08-2-1.8C155.87,52.77,155.77,47.9,155.77,43Z"/><path d="M119.81,165.86a11,11,0,0,1-.52,1.9c-1.33,2.52-2.51,5.07-2.28,8,0,.21-.26.45-.4.68a3.25,3.25,0,0,1-.59-.58c-.27-.45-.69-.94-.68-1.41.07-2.8-1-5.21-2.31-7.6-.63-1.19-.44-1.54.8-1.58,1.56,0,3.13,0,4.69,0A4.05,4.05,0,0,1,119.81,165.86Z"/><path d="M105,165.73a5.71,5.71,0,0,0-.75.76c-1.36,2.29-1.66,5-2.69,7.41-.33.77.59,1.86-.59,2.45a14.86,14.86,0,0,1-.86-2.62,20.67,20.67,0,0,0-2.19-7.19c-.7-1.26-.53-1.26.63-1.24,1.85,0,3.7,0,5.55,0A2.92,2.92,0,0,1,105,165.73Z"/><path d="M145.25,25.84a7.49,7.49,0,0,1-1.71,0,1.15,1.15,0,0,1-.66-.82c-.15-2.78.8-5.34,1.72-7.89a1.16,1.16,0,0,1,.8-.67,1.11,1.11,0,0,1,.87.61,32.34,32.34,0,0,1,1.78,7c.21,1.7-.52,2-1.94,1.81A4.93,4.93,0,0,0,145.25,25.84Z"/><path d="M158.17,25.84a7.49,7.49,0,0,1-1.71,0,1.11,1.11,0,0,1-.66-.82c-.16-2.78.79-5.34,1.71-7.88a1.17,1.17,0,0,1,.81-.68,1.11,1.11,0,0,1,.86.61A31.65,31.65,0,0,1,161,24c.2,1.7-.53,2-1.94,1.81A4.93,4.93,0,0,0,158.17,25.84Z"/><path d="M146.3,9.9c0,1.42,0,2.85-.05,4.27,0,.18-.65.4-1,.45-.2,0-.63-.26-.64-.41,0-2.85,0-5.7,0-8.55,0-.17.65-.4,1-.45.19,0,.62.26.63.41C146.32,7,146.3,8.47,146.3,9.9Z"/><path d="M159.21,9.91c0,1.43,0,2.85-.05,4.27,0,.18-.66.39-1,.44-.19,0-.61-.28-.61-.43,0-2.85-.05-5.7,0-8.55,0-.16.67-.38,1-.43.19,0,.61.27.61.43C159.23,7.06,159.21,8.49,159.21,9.91Z"/><path d="M63.65,107.88a15.78,15.78,0,0,1,2.09-9.67,35,35,0,0,1,5.7-6.6c2.27-2.1,4.64-3.82,7.9-3.79,1.26-1.28,2.88-.79,4.37-.83.18,0,.36.3.54.46a4.28,4.28,0,0,0-.7.38c-2.21,2-2.29,2.78-.45,4.38,1.22,1.05,2.07,1.06,3.24,0,1.71-1.49,1.83-2.2.7-3.85l-.8-1.21a10.1,10.1,0,0,1,1.2-.22c3.12-.22,5.83,1.25,8.34,2.66a20.7,20.7,0,0,1,9.79,12.08c2.72,8.39-.14,17.77-5.94,22.8A21.34,21.34,0,0,1,86,130.06a25.25,25.25,0,0,1-10-1.81,13.07,13.07,0,0,1-2.35-1.58c-5.46-3.61-7.27-5.92-9.38-12-.13-.37-.58-.68-.59-1C63.62,112,63.65,110.25,63.65,107.88Zm21.95-14a15.64,15.64,0,0,1-1.75,0c-4.28-.64-7.5,1.75-10.13,4.4-1.74,1.75-3.8,4.06-3.18,7.19-1.6,2.19-.5,4.3-.15,6.6a9.88,9.88,0,0,0,3.23,6c.73.69,1.37,1.47,2.14,2.11,2.12,1.76,4.39,3.19,7.34,3,1.43-.1,2.89.14,4.29-.06a12.44,12.44,0,0,0,4.6-1.27c5.13-3.11,7.92-7.56,7.89-13.81,0-4-1.78-7.07-4.08-9.91C93.1,94.78,89.5,93.24,85.6,93.85Z"/><path d="M65.37,44.13a6.81,6.81,0,0,1,0,1.69,1.05,1.05,0,0,1-.81.63c-.29,0-.81-.38-.83-.61a30.59,30.59,0,0,1,0-3.83c0-.24.53-.62.82-.63a1,1,0,0,1,.82.63A12.45,12.45,0,0,1,65.37,44.13Z"/><path d="M65.37,34.88a4.89,4.89,0,0,1,0,1.67c-.19.48-.73.82-1.12,1.22a3.89,3.89,0,0,1-.53-1.21,17,17,0,0,1,0-2.94A7.05,7.05,0,0,1,64.21,32a11.14,11.14,0,0,1,1.13,1.64C65.51,34,65.37,34.46,65.37,34.88Z"/><path d="M101.74,39.7c-1.28-.43-2.59.58-3.51-.66a17.37,17.37,0,0,1,3.28-.24c1.11.12,2.4-.7,3.32.52Z"/><path d="M98.09,35.26c0,.76,0,1.47,0,2.18,0,.11-.2.31-.26.29-.21-.06-.55-.19-.56-.31a16.82,16.82,0,0,1,0-2.13c.07-1.09.19-2.19.28-3.28C98.76,32.93,97.74,34.24,98.09,35.26Z"/><path d="M93.78,35a15.48,15.48,0,0,1,0-1.67c0-.23.28-.43.43-.64.14.14.37.26.4.42.25,1.42-.62,3.05.81,4.25-.17.16-.35.48-.5.46-.38,0-1-.18-1-.35a18.49,18.49,0,0,1,0-2.47Z"/><path d="M76.65,43.18c-.36,1.23.46,2.4-.65,3.19a16.24,16.24,0,0,1-.26-2.85c.08-1-.58-2.12.52-2.92Z"/><path d="M98.17,43.21c-.35,1.21.47,2.37-.66,3.15a17.46,17.46,0,0,1-.25-2.86c.08-1-.59-2.11.54-2.88Z"/><path d="M105,43.1c0-.76,0-1.47,0-2.17,0-.11.21-.31.27-.29s.54.18.55.31a16.65,16.65,0,0,1,0,2.12c-.07,1.1-.19,2.19-.28,3.29C104.3,45.44,105.32,44.13,105,43.1Z"/><path d="M100.44,48.31l-2.22-.38c.6-1.17,1.66-.48,2.48-.53a22.88,22.88,0,0,1,3.28.26C103.05,48.87,101.74,47.89,100.44,48.31Z"/><path d="M80.74,48.31c-1.23-.36-2.39.46-3.18-.65a15.34,15.34,0,0,1,2.85-.26c1,.08,2.12-.58,2.91.52Z"/><path d="M76.65,34.61c-.35,1.21.47,2.37-.67,3.13a16.32,16.32,0,0,1-.24-2.86c.08-1-.6-2.1.54-2.86Z"/><path d="M71.4,34.81c0-.84,0-1.69,0-2.52,0-.15.25-.3.41-.41s.27.18.28.28c0,1.79.06,3.58.07,5.37,0,.1-.18.2-.28.3-.17-.17-.47-.33-.48-.51C71.37,36.49,71.4,35.64,71.4,34.81Z"/><path d="M69,47.28l2.22.38c-.6,1.16-1.65.47-2.47.52a21.41,21.41,0,0,1-3.28-.25C66.44,46.71,67.75,47.69,69,47.28Z"/><path d="M68.46,31.87c-.84,0-1.68,0-2.52,0-.17,0-.33-.31-.5-.47.1-.1.2-.29.3-.29,1.79,0,3.58,0,5.37.08.1,0,.29.25.27.27s-.26.41-.4.42C70.14,31.89,69.3,31.87,68.46,31.87Z"/><path d="M94.32,41.46c.12.12.29.2.31.31.26,1.44-.67,3.12.87,4.3-.22.14-.46.43-.65.4-.37,0-1-.26-1-.43-.08-1.41-.06-2.82,0-4.23C93.81,41.69,94.15,41.57,94.32,41.46Z"/><path d="M84.31,35.09c0,.71,0,1.42,0,2.13,0,.23-.26.45-.41.67-.14-.22-.4-.44-.41-.67q-.06-2.34,0-4.68c0-.23.27-.45.41-.67.15.22.4.44.41.67C84.34,33.39,84.31,34.24,84.31,35.09Z"/><path d="M80.74,31.87c-1.41,0-2.12,0-2.83,0-.13,0-.26-.34-.34-.54s.18-.28.29-.28A10,10,0,0,1,80,31c.83.15,1.87-.62,2.48.54Z"/><path d="M102.24,31.87c-1.41,0-2.12,0-2.83,0-.12,0-.24-.35-.3-.56s.19-.26.29-.26a10,10,0,0,1,2.12,0c.82.14,1.86-.62,2.45.55Z"/><path d="M84.31,44.08c0,.85,0,1.41,0,2,0,.1-.21.3-.27.28-.21-.06-.54-.19-.55-.32a9.54,9.54,0,0,1,0-1.69c.07-1,.19-1.91.28-2.86C84.92,42.24,83.9,43.44,84.31,44.08Z"/><path d="M72.26,43.18c0,1.42,0,2.13,0,2.83,0,.13-.33.27-.54.34,0,0-.27-.18-.28-.28a10.72,10.72,0,0,1,0-2.12c.15-.83-.62-1.88.54-2.48Z"/><path d="M74.41,47.36a2.34,2.34,0,0,1,.27.58c0,.07-.17.19-.27.28a3.06,3.06,0,0,1-.27-.58C74.13,47.57,74.32,47.46,74.41,47.36Z"/><path d="M95.14,31.94c.1.1.29.24.27.27a3.85,3.85,0,0,1-.38.52l-.39-.39Z"/></g></svg>