<svg id="Layer_1" data-name="Layer 1" xmlns="http://www.w3.org/2000/svg" viewBox="0 0 200 200"><g id="WAges5.tif"><path d="M128.31,49.23c-1.54-1.68-3-3.24-4.47-4.88s-1.54-2.91-.11-4.63a26.39,26.39,0,0,1,3.53-3.48,3.52,3.52,0,0,1,4.74.33l35.36,35.35a3.57,3.57,0,0,1,.39,4.76,25.78,25.78,0,0,1-3.38,3.47,3.14,3.14,0,0,1-4.52.1c-1.37-1.06-2.59-2.3-3.88-3.46-.4-.36-.79-.75-1.31-1.25-2,2.09-4,4.13-6,6.13Q119,111.12,89.43,140.55c-1.56,1.56-3.23,3-4.82,4.56a1.71,1.71,0,0,1-2,.45c-2.27-.95-4.58-1.83-6.79-2.9a2,2,0,0,0-2.71.36q-5.51,5.44-11.1,10.8c-3.28,3.15-3.53,2.94-7.19.59a18.33,18.33,0,0,1-7-8.4,1.86,1.86,0,0,1,.38-2.36c4.34-4.42,8.63-8.89,13-13.28.66-.67.61-1.1.23-1.88-1.09-2.25-2-4.56-3-6.85a2.14,2.14,0,0,1,.59-2.58c7.23-7.36,14.38-14.8,21.66-22.12q23.44-23.56,47-47C127.88,49.71,128.07,49.49,128.31,49.23Zm2.58,2.68c-.22.21-.49.45-.74.71L84.69,98.05l-22.22,22.2c-.38.38-.69.65-.37,1.3a43.45,43.45,0,0,0,5.68,9.19,36,36,0,0,0,14,10.66,1.4,1.4,0,0,0,1.76-.32c1.21-1.23,2.52-2.38,3.74-3.6q32.13-31.93,64.23-63.88c.2-.2.36-.43.45-.53ZM64.27,133c-.09,0-.17.06-.22.11-4,4-8,8-12,11.92a.83.83,0,0,0-.06,1.33c1.68,1.74,3.38,3.45,5.08,5.17.66.66,1.26.5,1.9-.11,2.57-2.48,5.17-4.92,7.75-7.39,1.45-1.4,2.89-2.82,4.36-4.25Z"/><path d="M157.72,56.27,147,46.23a8.19,8.19,0,0,0,1.41-.87Q156.69,37,164.9,28.68c1.1-1.11,1.08-1.13,0-2.28-.27-.3-.56-.58-.83-.88-1.92-2-2-3.65-.21-5.73a21.09,21.09,0,0,1,3.52-3.15,2.63,2.63,0,0,1,3.73.27q7.91,7.72,15.7,15.55a3.2,3.2,0,0,1,.34,4.35,11.7,11.7,0,0,1-4.17,4,2.9,2.9,0,0,1-3.67-.31l-3-2.7C170.16,44,164,50,157.72,56.27Z"/><path d="M47.6,153.52l2.7,2.8c-.23.25-.48.54-.76.82q-12,12-24.09,24.05a4.78,4.78,0,0,1-1.86,1.06,36,36,0,0,1-5.28,1.28C27.68,173.15,37.75,163.53,47.6,153.52Z"/><path d="M101.68,85.21l17,17.15c-.74.62-1.64,1.25-2.41,2q-16.45,16.55-32.85,33.15a1.51,1.51,0,0,1-2.08.32c-6.48-3.05-11-8.14-14.85-14a2.13,2.13,0,0,1,0-2.59,30.47,30.47,0,0,1,2.89-3.61q10.69-10.81,21.45-21.57Z"/><path d="M105,82.94c0-1.37,2.32-3.85,3.45-3.81a2.47,2.47,0,0,1,1.43.71c2.87,2.64,5.76,5.26,8.53,8,2,2,3.83,4.17,5.77,6.24a1.8,1.8,0,0,1,0,2.63c-1.94,2.62-3,2.88-5.33.63-4.36-4.22-8.59-8.58-12.85-12.91A9.7,9.7,0,0,1,105,82.94Z"/><path d="M117.62,74.57c.41-.54.64-1.08,1.06-1.32a1.59,1.59,0,0,1,2,.28l9.09,9a5.68,5.68,0,0,1,.59.8c.51.78.72,1.54-.07,2.29s-1.47.45-2.19,0a5.81,5.81,0,0,1-.89-.65c-2.76-2.72-5.53-5.42-8.23-8.18A12.67,12.67,0,0,1,117.62,74.57Z"/><path d="M127.31,64.9a5.92,5.92,0,0,1,1.13.64q5,5,10,10c.73.73.53,1.46-.18,2.09s-1.36.94-2.18.09c-3.25-3.35-6.54-6.66-9.78-10a1.61,1.61,0,0,1-.41-1.39A5.88,5.88,0,0,1,127.31,64.9Z"/></g></svg>