<svg id="Layer_1" data-name="Layer 1" xmlns="http://www.w3.org/2000/svg" viewBox="0 0 200 200"><g id="dthNZe"><path d="M33.93,126.9c-2.58.3-5.05.54-7.5.89-1.05.15-1.1-.55-1.32-1.19Q21.21,115.28,17.3,104a1.54,1.54,0,0,0-.63-.88v25.86L9.2,130V80.36c2.15,0,4.31-.06,6.47,0,.37,0,.84.72,1,1.2,2.88,8,5.72,16,8.58,24a4.77,4.77,0,0,0,.93,1.7V80.47h7.74Z"/><path d="M191.9,80.35c-.27.72-.46,1.27-.69,1.81-2.89,6.8-5.78,13.6-8.72,20.38a3.25,3.25,0,0,0,0,2.68q4.48,11.58,8.9,23.19c.18.46.33.92.57,1.59-2.87-.39-5.56-.72-8.24-1.17-.37-.06-.76-.71-.94-1.17-1.7-4.33-3.36-8.68-5.15-13.31-.3.56-.51.9-.66,1.27-1.52,3.55-3.06,7.1-4.53,10.67a1.39,1.39,0,0,1-1.76,1c-2.21-.33-4.44-.48-6.83-.72.2-.54.35-1,.53-1.41,2.88-6.75,5.8-13.49,8.62-20.27a3.7,3.7,0,0,0,0-2.5c-2.54-6.83-5.19-13.63-7.8-20.44-.18-.46-.33-.92-.59-1.62,2.76,0,5.36,0,8,.05.28,0,.63.66.8,1.07,1.31,3.37,2.59,6.76,3.89,10.13.18.46.38.9.69,1.63a89.33,89.33,0,0,0,3.8-9.07c1-3.23,2.73-4.44,6-3.87A26,26,0,0,0,191.9,80.35Z"/><path d="M41.47,80.43H62.73v7.62H49.22V98.49H59.43v7.67H49.21v11.63l13.52-.89v7.65l-21.26,1.58Z"/><path d="M96.55,80.42H118v7.64H104.39v10h10.19v7.68H104.33v17.81c-2.46,0-4.73,0-7,0-.27,0-.61-.48-.76-.8a2.72,2.72,0,0,1,0-1V80.42Z"/><path d="M83.57,88.07v35.67H75.88V88.11h-8V80.44H91.59c0,2.33,0,4.65,0,7,0,.24-.76.63-1.18.64C88.18,88.11,86,88.07,83.57,88.07Z"/><path d="M143.88,117.26v7.64l-20.76-1V80.48h7.6v36Z"/><path d="M157.94,126.07l-7.51-.64V80.49h7.51Z"/></g></svg>