<svg id="Layer_1" data-name="Layer 1" xmlns="http://www.w3.org/2000/svg" viewBox="0 0 200 200"><g id="hxBTb4.tif"><path d="M184,100c0,14.75-.07,29.5.06,44.25,0,2.8-.73,4.47-3.25,5.93q-38.62,22.29-77.1,44.86a5.63,5.63,0,0,1-6.41.1c-26-15-52.09-29.86-78.07-44.92a6.45,6.45,0,0,1-2.73-4.69c-.25-30.08-.25-60.17-.43-90.25,0-2.75,1.05-4.15,3.29-5.45Q58,27.49,96.48,5a5.58,5.58,0,0,1,6.4-.12q39,22.52,78.16,44.76c2.28,1.3,2.85,2.85,2.83,5.26-.08,15,0,30.09,0,45.13ZM75.38,156c8.21,3.93,16.13,8,24.27,11.44,1.58.68,4.34-.17,6-1.18,16.53-9.84,32.93-19.89,49.43-29.8a9.22,9.22,0,0,0,4.87-8.61q-.06-28,0-56.07a8.78,8.78,0,0,0-4.75-8.21Q130.94,49.33,106.71,34.9c-3.67-2.2-6.86-2.14-10.57,0q-24.3,14.3-48.82,28.22c-3.86,2.2-5.51,5.1-5.47,9.55.15,17.08.47,34.18-.13,51.24-.26,7.3,2.41,12.24,7.57,16.63,6.37,5.42,13.21,9,21.95,7.16,9.52-2,15.17-8.78,15.17-18.27,0-17.67-.15-35.34.1-53C86.58,72,84.33,72,81.13,72c-3,.06-5.53-.36-5.46,4.3.27,17.52.12,35,.1,52.56,0,6.76-6.26,10.65-12.4,7.55A30.66,30.66,0,0,1,55.48,131a10,10,0,0,1-2.89-6.24c-.23-16.2-.07-32.41-.18-48.62a5.62,5.62,0,0,1,3.16-5.6C70,62.35,84.35,54,98.85,45.85a6.48,6.48,0,0,1,5.38.08Q125.28,58,146,70.61a7.59,7.59,0,0,1,3.17,5.4c.24,15.92.08,31.83.19,47.75a6.06,6.06,0,0,1-3.41,5.93c-10.79,6.38-22,12.23-32,19.69-9.06,6.76-16.74,7.06-26.19,1.16C79.42,145.33,79,146,75.38,156Zm17.34-41c1,6.5,4.49,12.95,8.69,15,10.2,5,20.57,5.35,30.48-.63a15.72,15.72,0,0,0,7.87-16c-.71-6.53-4.79-10.38-10.88-12.32-1.66-.53-3.3-1.14-5-1.64-5.3-1.58-10.7-2.87-15.89-4.74s-6.24-6.41-2.91-10c5.1-5.42,18.49-3.71,21.65,3,1.27,2.69,2.81,3.34,5.4,2.78,1.68-.36,3.37-.64,5.21-1-.94-7-4-11.77-10.51-14.07a32.2,32.2,0,0,0-20.18-.84c-7.92,2.31-12.86,8.07-13,15.12s3.91,12.17,11.93,14.83c5.93,2,12,3.52,18,5.27,3.11.9,5.73,2.31,6,6s-1.83,6.38-5,8a15.72,15.72,0,0,1-21.79-7.68c-.92-2.15-1.91-3-4.25-2.3A50.75,50.75,0,0,1,92.72,115.06Z"/></g></svg>