<svg id="Layer_1" data-name="Layer 1" xmlns="http://www.w3.org/2000/svg" viewBox="0 0 200 200"><g id="y3rgXG"><path d="M78.26,59.48c-2.5.37-5,.8-7.5,1.09a18.11,18.11,0,0,1-4,0c-1.54-.17-2.06-.92-1.64-2.38.34-1.18-.62-.89-1-.94-3.12-.42-6.24-.81-9.37-1.09-1.33-.12-2.87-.36-4,.17-1.71.79-2-.69-2.9-1.24-.06,0,.14-.76.29-.8a14.35,14.35,0,0,1,4.15-.62A97.81,97.81,0,0,1,62,55.31a14.46,14.46,0,0,0,9.63-1c.87-.42,1-.79.38-1.45-1.53-1.54-3-3.12-4.65-4.56-1.17-1-1.62-.83-2.33.63a7.54,7.54,0,0,1-.55,1.22.77.77,0,0,1-.79,0A6.56,6.56,0,0,1,63,49.13c-1.16-1.6-.64-6,1-6.94A3.71,3.71,0,0,1,66.7,42c2.43.75,4.79,1.73,7.18,2.62a4.16,4.16,0,0,0,1.28.38c3.78-.07,6.32,2.38,9,4.44a6.38,6.38,0,0,0,3.47,1.31c10.46,1,19.84,4.53,27.12,12.49,6,6.58,9.17,14.5,10.67,23.16a50.24,50.24,0,0,1,.73,6.47,3.88,3.88,0,0,0,1.71,3.17,33.65,33.65,0,0,1,9,10.52,20.58,20.58,0,0,1,2.23,14.34,5.72,5.72,0,0,0,1,4.64c5.68,8.56,8,17.83,5.51,28a2.32,2.32,0,0,0,.43,1.93c3.59,3.06,7.27,6,10.92,9,5.34,4.37,17,3.48,21.93-2.72.74-.95,1.52-1.86,2.29-2.78a6.51,6.51,0,0,1,1-1.17c1.21-.89,2.51-1.91,4.08-1.13s.88,2.22.9,3.45a7.83,7.83,0,0,1-2.11,5.33c-1.86,2.14-3.92,4.1-5.9,6.14-.19.2-.35.42-.53.63a5.85,5.85,0,0,1,.8-.2c.59-.08,1.8-1.84,1.51.53a4.19,4.19,0,0,0,1.06,0c1.6-.39,3.19-.84,4.79-1.23a2.72,2.72,0,0,1,.84.08,4.1,4.1,0,0,1-.48.72c-.89.8-1.81,1.57-2.7,2.38a2,2,0,0,0-.3.58,1.8,1.8,0,0,0,.63.1c1-.21,1.89-.48,2.83-.7a2.29,2.29,0,0,1,.64,0c-.13.21-.21.5-.4.63-1.26.81-2.55,1.58-3.81,2.39a3.44,3.44,0,0,0-.58.62,3.33,3.33,0,0,0,1,.16c2.37-.37,4.73-.79,7.1-1.15a6.4,6.4,0,0,1,1.44.11,4.84,4.84,0,0,1-1.16.94c-2.44.94-4.9,1.81-7.36,2.72-.34.12-.66.29-1,.43a4.88,4.88,0,0,0,1,.12c2.53-.15,5.07-.34,7.61-.5a5.29,5.29,0,0,1,.8.08c-.17.21-.31.54-.53.62a26.76,26.76,0,0,1-3.77,1.23c-2.05.42-4.47.09-6.12,1.09-2.66,1.61-4.67,1.07-7.23,0-1.66-.71-3.85-.39-5.77-.22-2.91.26-5.79.85-8.72.39-1.09,1.56-2.68.81-3.75.37a12.05,12.05,0,0,0-6.11-.56,8.17,8.17,0,0,1-2.42-.08,23.48,23.48,0,0,0-2.74-.88c-2.57-.15-5.16-.13-7.74-.11-1.33,0-.68.51-.19,1a1.83,1.83,0,0,1,.31.55,1.73,1.73,0,0,1-.59.07,17.18,17.18,0,0,0-2.42-.46c-1.22,0-2.51-1.29-3.71.16-.11.13-.7-.15-1.07-.2-1.15-.14-2.38-1.16-3.4.31-.07.11-.45.1-.64,0-2.29-.82-4.63.41-6.81,0s-4,.53-6.1-.21a3.1,3.1,0,0,0-3.11,1.49c-.27.46-.86.73-1.31,1.08-.09-.42-.21-.84-.28-1.27-.29-1.56-1.13-.81-1.75-.35a19,19,0,0,1-8.56,3.16,6.59,6.59,0,0,1-1.09,0,6.41,6.41,0,0,1,.54-1.08c.32-.42.78-.72,1.08-1.15a16.47,16.47,0,0,0,1-1.69l-1.62.08c-.21,0-.56.08-.63,0-1.1-1.57-2-.36-3,.16-.83.42-1.77,2.08-2.77.1,0-.09-.55,0-.82.07-.91.25-2,1-2-.88a3.67,3.67,0,0,0-1.63-.26c-1.11.08-2.22.3-3.34.42a3.09,3.09,0,0,1-.83-.15c.14-.24.28-.48.41-.72s.28-.62.42-.93A4.52,4.52,0,0,0,83,182c-2.31.24-4.61.52-6.92.76-.47,0-1.2.21-.76-.72a6.48,6.48,0,0,1,.61-.9c-.41,0-.83,0-1.23,0-.74.1-1.48.31-2.22.34a14.11,14.11,0,0,1-2-.21l1.4-1a6.12,6.12,0,0,0,.49-.4,2.68,2.68,0,0,0-.73-.34c-.59-.08-1.2,0-1.78-.15-.3-.06-.82-.41-.8-.49.45-1.45-.62-.78-1-.71-3.7.57-7.39,1.2-11.09,1.78a3.43,3.43,0,0,1-1.11-.2,6.27,6.27,0,0,1,.89-.55c1.3-.56,2.63-1.07,3.93-1.66.28-.12.45-.49.68-.75a2.92,2.92,0,0,0-.86-.12c-1.41.18-2.82.4-4.23.61-.37,0-.9.3-1.08.14-2-1.78-3.7-.13-5.42.51-2.53.93-5,2-7.5,3a5.36,5.36,0,0,1-1.51.11c.29-.39.58-.78.89-1.15.2-.22.47-.38.66-.61a2.16,2.16,0,0,0,.28-.57,3,3,0,0,0-.58-.18,1.6,1.6,0,0,0-.66.08c-3.75,1.64-7.89,1-11.75,2-.95.25-1,.16-1-.83,0-.11-.46-.34-.67-.3-1.55.28-3.08.65-4.63.9a12.32,12.32,0,0,1-2.91.17c-.6,0-1.87.61-1.58-1a6.05,6.05,0,0,0-1.14-.32c-2.35-.44-4.71-.84-7-1.34-.51-.11-1.89-.33-.2-1.15,1.23-.59-.21-1-.34-1.45a4.1,4.1,0,0,0-.34-.78,2.71,2.71,0,0,1,.83-.11c1.11.17,2.2.42,3.31.6s2.17.71,3.06-.49c.15-.22.7-.15,1.06-.2,2.18-.33,4.36-.63,6.53-1a8.08,8.08,0,0,0,1.46-.55,8.68,8.68,0,0,0-1.56-.58c-2.15-.35-4.31-.62-6.45-.95a3,3,0,0,1-.82-.45,2.43,2.43,0,0,1,.69-.49c.79-.23,1.6-.39,2.4-.57l1.89-.41c-.45-.37-.93-.71-1.35-1.11-.14-.14-.13-.45-.2-.68,1-.23.55-2,2-1.79,1.11.18,2.22.34,3.34.42.52,0,1.61.49.92-.85.27-.12.58-.38.82-.33A27.73,27.73,0,0,1,31,166c1.06.36,1.32,0,1.27-1s.06-1.77.1-2.65c.81.46,1.59,1,2.43,1.37.56.26,1,1.57,1.91.27A19.82,19.82,0,0,1,39,165.14c.39.2.8.37,1.2.56a11.36,11.36,0,0,0,0-1.3c0-.37-.18-.73-.22-1.1-.11-.83.24-.93.87-.51.32.21.63.41.93.65.7.56,1.19.61,1.3-.47.15-1.43.68-1,1.29-.28a7.48,7.48,0,0,0,.71.87c.4.4.84.76,1.26,1.13.15-.49.27-1,.45-1.45a6.33,6.33,0,0,1,.51-1,7.36,7.36,0,0,1,.69.79c.51.83,1,1.68,1.49,2.51.2.31.46.56.69.85a4.81,4.81,0,0,0,.47-1c.41-1.75.77-3.51,1.17-5.26a3.38,3.38,0,0,1,.41-.77,5.5,5.5,0,0,1,.47.81,2.5,2.5,0,0,1,.27,1.08c-.18,1.82,1.07,2.53,2.41,3.16a2.83,2.83,0,0,0,.78.13,3.33,3.33,0,0,0,0-.84c-.42-1.36-1-2.68-1.3-4.05A16.36,16.36,0,0,1,56.2,149a32.2,32.2,0,0,1,10.6-12.59c1.23-.9,1.57-1.45.66-3-5-8.43-2.88-17.15,5.55-23.11l.75-.5c2.08-1.35,2.08-1.35.74-3.41C70.23,99.87,72,91.64,78.64,87.65s13.91-5,21.48-3.88c3.41.5,6.77,1.3,10.15,2,1.62.32,1.68.26,1.49-1.32-1.85-15.29-12.68-23.16-26.27-24.24-2.39-.19-4.78-.3-7.18-.45ZM112,144.74a15.6,15.6,0,0,0,2.16-.44,21.14,21.14,0,0,0,2.2-1.06c-.79.21-1.6.36-2.36.63a18.44,18.44,0,0,0-2,.91l-3.94.62s.06.11.09.11ZM71.58,154c.34,2,2.62,5.31,4.24,5.83a1.25,1.25,0,0,0,.54-.05c-.14-1.56,1.61-.91,1.67-1.14.48-1.81,1.28-.71,2-.32s1.26.43,1.2-.5c-.12-1.84.68-1.21,1.47-.61.53.4,1,.88,1.51,1.33.65.58,1.08.38,1.28-.4.15-.61.23-1.23.34-1.85.57.34,1.12.7,1.71,1,.39.2.85.29,1.23.51s1,.72,1.51,1c.81.44,1.66.81,2.49,1.22.15-.77.36-1.53.44-2.3,0-.35-.19-.72-.24-1.09a4.6,4.6,0,0,1,0-.83,3.12,3.12,0,0,1,.79.35,5.4,5.4,0,0,1,2,4.09c.06,1.05.47,1.1,1.46.88,1.81-.4,2.74-1.67,3.73-3a24.66,24.66,0,0,1,1.89-2.07c0,.95,0,1.9-.06,2.84-.14,1.85.12,2.12,1.76,1.2s3.1-2.08,4.65-3.12a3,3,0,0,1,.73-.26,3.27,3.27,0,0,1-.23.77c-.45.78-1,1.52-1.41,2.3s-.21,1.2.67.92c1.57-.5,3.1-1.11,4.65-1.65a5.5,5.5,0,0,1,.81-.15c-.05.25-.09.51-.15.77-.11.54-.22,1.08-.34,1.62,1.09.16,2.42.8,3.22.39a21.24,21.24,0,0,0,8.12-7.26c.2-.3.17-1.15,0-1.26-3.48-2-6.72-4.31-11.25-3.37a57.9,57.9,0,0,1-32.29-2.13c-4.35-1.61-4.34-1.66-7.52,1.77a6.31,6.31,0,0,0-1,1.22C72.61,151.69,72.11,152.83,71.58,154Zm49.48-66.42H121c0,.67.11,1.34.09,2a4.39,4.39,0,0,1-.28,1,3.42,3.42,0,0,1-1.16-.44Q118,88.62,116.45,87c-2.41-2.59-2.4-2.6-.71-5.81a5.19,5.19,0,0,0,.5-1,2.21,2.21,0,0,1,3-1.84,3.08,3.08,0,0,0,1.06-.13,3.62,3.62,0,0,0-.66-1c-4-2.84-8.11-5.65-12.15-8.49-.47-.33-1.11-.77-1.18-1.23a53.08,53.08,0,0,1-.84-7.52c0-1.14-.48-1.56-1.26-1.73a17.6,17.6,0,0,0-4.47-.63,7.32,7.32,0,0,1-5.08-2c-1.56-1.25-2.8-3.28-5.36-2.49-.25.08-.64-.36-1-.48A6.36,6.36,0,0,0,86.2,52c-2,.08-3.41-.9-4.81-2.1a10.35,10.35,0,0,0-2.52-1.85c-3.57-1.5-7.2-2.87-10.81-4.26-.23-.09-.71-.06-.78.07-.74,1.41-1,.28-1.53-.19a2.85,2.85,0,0,0-1-.42c-.08.45-.36,1-.21,1.34s.72.73,1.11,1.07c3,2.52,5.93,5,8.86,7.57A10.52,10.52,0,0,1,75.82,55l-2,.69c-.63.21-1.28.4-1.9.66-.12,0-.21.54-.19.54,1,.46.19.8-.1,1.1-.61.65-.46.82.38.8,2.17,0,4.35,0,6.52-.12.33,0,.64-.51,1-.77s.59-.48.66-.43c1.48,1.19,3.37.81,5,1a41.35,41.35,0,0,1,12.34,3.74c7.91,3.82,12.31,10.19,14.63,18.35a15.7,15.7,0,0,0,1.55,4.19,5.82,5.82,0,0,1,.94,4c-.38,3.42-.73,6.85-1.26,10.25a5.59,5.59,0,0,1-1.47,2.38,12.34,12.34,0,0,1-1.64,1.16,4.68,4.68,0,0,0-.72,1,4.54,4.54,0,0,0,1.09.69c1.29.37,2.6.7,3.91,1a1.09,1.09,0,0,0,.9-.31c.63-.95.07-4.1-.67-4.95a1.59,1.59,0,0,1-.27-1.41c1-1.93,2.1-3.81,3.24-5.66.51-.83,1.12-2.25,2.06-.24a.82.82,0,0,0,.74.29,1.53,1.53,0,0,1,2,.87c.12.22.51.27.78.4.11-.42.41-.91.31-1.27-.55-1.82-1.27-3.59-1.8-5.41-.4-1.36-.58-2.78-.88-4.17a2.4,2.4,0,0,0-.27-.59,3.05,3.05,0,0,0-.08.66Q120.84,85.52,121.06,87.53ZM96.32,120.18c-5.86.09-9.83.28-13.39,2.41-2.62,1.57-3.06,2.71-2.17,5.58.14.43.33.84.43,1.28.31,1.32,1,1.68,2.43,1.58a79.53,79.53,0,0,1,28.25,2.72,3,3,0,0,0,2.28-.25c2.06-1.47,4-3.13,6-4.73.81-.65.63-1.1-.18-1.69a23.88,23.88,0,0,0-9.11-4.23C105.43,121.71,100,120.84,96.32,120.18Zm45.3,35.35c-.34-.1-.7-.35-1-.27-1.14.37-2.25.82-3.35,1.28-2.56,1.07-2.53,1.07-3.6-1.58a22.86,22.86,0,0,0-1.85-4.05c-.78-1.22-1.12-1.08-1.77.16a18.34,18.34,0,0,1-1.94,3.26,40.2,40.2,0,0,1-20,13.4c-.64.19-1.29.37-1.93.58s-1.1.69-.22,1.13a45.31,45.31,0,0,0,5,2.23,32.36,32.36,0,0,0,3.32.54c1.55.36,1.74.89.73,2.13-1.23,1.51-2.59,2.91-3.86,4.39a3.66,3.66,0,0,0-.43.94c.36,0,.77.22,1.07.11q5.12-2,10.21-4.09c.76-.32.87-.88-.06-1.16-1.36-.4-2.75-.7-4.13-1.05-.57-.14-1.36-.23-.72-1.11,2.27-3.15,3.49-6.77,4.62-10.42a1.39,1.39,0,0,1,1.63-1.15,14.67,14.67,0,0,0,8.89-1.71c1-.58,1.85-.25,1.87,1,0,2-.1,4-.15,6,0,.34,0,.68,0,1,.31-.15.73-.22.9-.46,1.95-2.91,3.88-5.84,5.76-8.79A15.26,15.26,0,0,0,141.62,155.53ZM97.09,105.36a78.4,78.4,0,0,0,8.11-1.55,14.22,14.22,0,0,0,4.61-2.62c1.34-1.06,1.11-2-.41-2.71a9,9,0,0,0-2.11-.74c-3.75-.69-7.49-1.56-11.27-1.91a40,40,0,0,0-8.24.4c-1.3.15-2.75.71-3.07,2.25s.87,2.6,2,3.52a7.09,7.09,0,0,0,1.13.74A20.16,20.16,0,0,0,97.09,105.36Zm5.27,44v-.08c2.17,0,4.35,0,6.51,0a5.8,5.8,0,0,0,1.58-.54,9.62,9.62,0,0,0-1.5-.83c-1.41-.49-2.85-.9-4.28-1.33-1-.29-1.26-.66-.37-1.48q2.31-2.15,4.47-4.42a3,3,0,0,1,2.59-1c2.39.17,4.78.23,7.17.42,1.59.13,2.37-.47,2.5-2.08.15-1.79.46-3.56.64-5.34a7.63,7.63,0,0,0-.11-1.5,10.84,10.84,0,0,0-1.33.64c-5.17,3.35-10.39,6.63-16.69,7.32-3.11.34-6.27.25-9.4.4a5.11,5.11,0,0,0-1.36.47,11.39,11.39,0,0,0,.93.91c1.9,1.44,3.81,2.88,5.73,4.3.76.56.82,1-.09,1.43-1.22.58-2.42,1.18-3.61,1.82a3.54,3.54,0,0,0-.74.71,3.8,3.8,0,0,0,.86.19C98,149.37,100.2,149.36,102.36,149.36ZM55.6,155.84l.33.12c.2,1.26.4,2.51.62,3.76a3.92,3.92,0,0,0,.32.77c.19-.21.45-.37.56-.61.39-.81.69-1.66,1.09-2.47,1.39-2.83,2.92-3.44,5.82-2.25a25.42,25.42,0,0,1,3.17,1.69c1,.61,1.72.26,2.11-.76a8.06,8.06,0,0,0,.39-1.75,11.08,11.08,0,0,1,4.15-7.67c2.11-1.66,2.07-2.16.25-4.08a14.8,14.8,0,0,0-2.28-1.69,21.49,21.49,0,0,0-.76,2.8A1.87,1.87,0,0,0,72,145a1.18,1.18,0,0,1,.06,1.91,3,3,0,0,0-.6,1.19c-.39,1.44-1.14,1.8-2.46,1a4.34,4.34,0,0,0-4.49,0,7.59,7.59,0,0,1-1.46.56,4.83,4.83,0,0,1-1.08.1,5,5,0,0,1,.26-1.16,24,24,0,0,1,6.75-8,5.27,5.27,0,0,0,.85-1.1,4.74,4.74,0,0,0-1.44.43c-3.07,2.2-5.79,4.72-7.37,8.27-.77,1.74-1,1.81-2.2.33-.85-1-1.08-.34-1.26.27C56.86,151.12,56.24,153.48,55.6,155.84Zm38.83,24.72,0-.16c1.27,0,2.55,0,3.82,0a3.94,3.94,0,0,0,1.15-.4,3.35,3.35,0,0,0-.55-.92c-1.5-1.23-3-2.42-4.54-3.65a7.6,7.6,0,0,1-.74-.76c.27-.09.53-.2.81-.27,3-.84,5.23-2.83,7.27-5.06a3.25,3.25,0,0,0,.4-1,4.84,4.84,0,0,0-1.06-.15A45.15,45.15,0,0,1,87,167a4.28,4.28,0,0,0-1.07,0,4.32,4.32,0,0,0,.42,1c1.28,1.65,2.58,3.3,3.91,4.91s1.15,2.08-.64,2.83c-1.37.58-2.83.94-4.24,1.46a11.93,11.93,0,0,0-1.6.88,19.08,19.08,0,0,0,1.61,1.1,3.31,3.31,0,0,0,1.07.32C89.1,179.83,91.77,180.19,94.43,180.56ZM66.08,124.19a16.44,16.44,0,0,0,2,7.81c.17.27.56.4.85.59.1-.27.18-.54.29-.8.59-1.36,1.16-2.72,1.79-4,.54-1.15,1.3-1.17,2.32-.46a38.12,38.12,0,0,0,4,2.43,6.46,6.46,0,0,0,1.85.35c0-.56,0-1.13-.08-1.68s-.39-1.06-.31-1.53c.28-1.5.65-3,1.07-4.46a4.42,4.42,0,0,1,.84-1.18,8,8,0,0,0-1.64-.31,9.68,9.68,0,0,0-2,.35c-2,.48-3.92,1-5.86,1.49-1.12.3-1.56,0-1.34-1.19.34-1.83.68-3.67,1-5.51a4.2,4.2,0,0,0-.18-1.25c-.43.21-1,.3-1.28.64C67.7,118,66.06,120.73,66.08,124.19Zm19-36.57c.88-1.55-.1-1.33-.82-1.22a6.81,6.81,0,0,0-1.71.54,5.63,5.63,0,0,0-1,.76c.28.31.52.81.86.89,1.1.24,1.41.93,1.45,1.93a9.11,9.11,0,0,0,.3,1.54c.46,2,1.13,2.46,3.15,2.28A36.94,36.94,0,0,1,92,94c4.63.22,9.27.58,13.9.86a11.47,11.47,0,0,0,1.64-.14,9.26,9.26,0,0,0-.81-1.53c-1.26-1.58-2.58-3.12-3.86-4.69a3.41,3.41,0,0,1-.33-.75,2.86,2.86,0,0,1,.83,0c2.2.74,4.38,1.52,6.58,2.25a4.57,4.57,0,0,0,1.23,0,4.71,4.71,0,0,0-.85-.67c-1.3-.58-2.6-1.18-3.94-1.63-1.7-.57-3.44-1-5.17-1.48-.25-.06-.6.3-.89.46,1.27,1.75-.7,2.25-1.27,3.29-1.91,3.48-4.55,3.72-8,2.24a17.24,17.24,0,0,1-5.48-3.77A2.65,2.65,0,0,1,85.05,87.62Zm57,74c-1.75-.33-1.48.37-1.13,1a3.64,3.64,0,0,0,.82,1.05c2.28,1.94,4.56,3.87,6.87,5.77.91.75.93.7,2.1-.2a.83.83,0,0,1,.78,0,4.09,4.09,0,0,1,1.22,1.27c.84,1.79,2.76,1.89,4.11,2.85,1.84,1.29,3.19-2,4.86-.23-.22-1.09-.42-2.18-.67-3.26,0-.08-.41-.12-.62-.1-1.79.09-3.58.16-5.35.32-1.6.15-2.32-.65-2.63-2.09s-.7-2.75-1-4.14a1.73,1.73,0,0,0-1.79-1.59C146.92,162.21,144.25,161.89,142.05,161.67Zm-11.08-31a2.11,2.11,0,0,0,0,.46c.06.48.15,1,.23,1.44.39-.31.92-.54,1.15-.94,1.09-1.87,2.18-3.75,3.1-5.7a44,44,0,0,0,1.67-4.63c.06-.18-.05-.43-.08-.65a4,4,0,0,0-.5.51,45.48,45.48,0,0,1-3.32,4.73c-1.17,1.3-1.54,1-2.3-.56a51.74,51.74,0,0,0-2.86-5c-.24-.39-.83-.57-1.26-.84-.15.45-.28.91-.45,1.35a22.59,22.59,0,0,1-1,2.71c-.92,1.79-1.95,3.53-2.89,5.31a4.14,4.14,0,0,0-.27,1.19c.42,0,1,.3,1.25.1,1.93-1.69,4.52-.73,6.63-1.65.21-.09.83.33,1,.65A4.47,4.47,0,0,1,131,130.65Zm-44.63,9.71v.1c1,0,2.1,0,3.15,0,.32,0,.62-.28.93-.43a2.9,2.9,0,0,0-.5-.69c-2.78-2.15-5.57-4.3-8.38-6.41a4.68,4.68,0,0,0-1.19-.5,3.89,3.89,0,0,0-.2,1.44c.39,1.67.84,3.34,1.39,5,.34,1,0,1.37-1,1.41q-2.35.09-4.71.27a4.56,4.56,0,0,0-1,.33c.22.36.36.86.68,1.06,2.67,1.66,5.36,3.27,8.06,4.87.2.12.55,0,.82,0a5.25,5.25,0,0,0-.27-.79c-.68-1.24-1.42-2.45-2-3.72-.54-1.11,0-1.76,1.13-1.85S85.3,140.36,86.34,140.36Zm-16.72,22c.12.87.3,2.05.45,3.24a1.94,1.94,0,0,0,2.29,1.92c3.26-.34,6.51-.81,9.76-1.25a1.59,1.59,0,0,0,.55-.28c-.2-.18-.37-.47-.59-.52-3.85-.84-6.61-3.32-9.27-6a18,18,0,0,0-2.38-1.75c-.27,1.06-.56,2.12-.8,3.19A9.29,9.29,0,0,0,69.62,162.38Zm66.54-49.8a2.3,2.3,0,0,0-.06-.54l-4.21-7.87c-.2.12-.55.21-.56.35-.13,1.12-.17,2.24-.3,3.35-.09.83-.53.92-1.26.59-2.18-1-4.38-1.87-6.58-2.79a5.2,5.2,0,0,0-.8-.2c.12.24.21.49.34.72,1.09,2,2.22,3.88,3.26,5.86.54,1,.9,2.12,1.34,3.19.86-.93,1.74-1.85,2.58-2.8a4.52,4.52,0,0,0,.55-1,1.53,1.53,0,0,1,2.44-.64c.87.56,1.63,1.3,2.45,2a.88.88,0,0,0,.58.23C136,113,136.11,112.69,136.16,112.58Zm-20,9.54c-.77-2.45-1.37-4.53-2.12-6.56a1.54,1.54,0,0,0-1.39-.55c-2.51.67-5,1.41-7.47,2.29-.65.23-1.08,1.06-1.62,1.61a9.43,9.43,0,0,0,1.81,1c2.78.84,5.58,1.61,8.38,2.41.35.1.71.38,1,.34A5.25,5.25,0,0,0,116.19,122.12Zm28.21,20.59c.29-3.82-1.71-6.9-3.12-10.16-.13-.3-.49-.5-.75-.74a4.73,4.73,0,0,0-.18,1,4.39,4.39,0,0,1-.82,3.35c-1.66,1.93-1.53,3.92.3,5.71a7.74,7.74,0,0,1,2.49,4.38,3,3,0,0,0,.73,1.33c.08.1.78-.09.79-.2C144.07,145.81,144.23,144.26,144.4,142.71Zm-43.7-26.22c3.37-.7,6.59-1.37,9.81-2.06.25-.05.47-.31.7-.47a4.46,4.46,0,0,0-.9-.39c-1.17-.22-2.37-.31-3.53-.6-1.63-.41-2.09-1.15-1.81-2.78.2-1.18.53-2.34.82-3.49.23-.9,0-1-.89-.77-1.87.44-3.79.7-5.7,1-.27,0-.54.12-.81.19a3,3,0,0,0,.66.76c1.2.74,2.52,1.33,3.65,2.17s1.17,1.72-.08,2.66c-.78.59-1.63,1.08-2.39,1.68a10.84,10.84,0,0,0-1.17,1.26Zm-18.47,1.63c0,.27,0,.94.07,1.61,0,.94.37,1,1.27.77,2.6-.61,5.25-1,7.88-1.47,1.25-.21,2.54-.21,3.77-.48.48-.1.87-.67,1.3-1A8.55,8.55,0,0,0,95.1,117c-3.2-.65-6.43-1.19-9.62-1.91S82.22,114.23,82.23,118.12Zm-7-25c-.17.19-.38.33-.45.52-1.18,3-2.13,6.12-.69,9.33A12.23,12.23,0,0,0,75.58,105c.15-.7.3-1.4.44-2.1.1-.44.19-.88.28-1.32.51-2.58,1.23-3.06,3.89-2.54.8.15,1.71.7,2.34.46.44-.16.5-1.35.74-2.08a.76.76,0,0,1,.08-.21l.86-1.33a17,17,0,0,0-1.73.21c-.73.15-1.44.37-2.16.57-2.19.59-2.94.27-4-1.71-.24-.47-.4-1-.64-1.43C75.62,93.37,75.41,93.26,75.23,93.1Zm61.29,47a7.29,7.29,0,0,0-.77-1.66c-.77-.94-3.85-1.93-4.53-1.41a3.75,3.75,0,0,0-1.29,4c.12.66.23,1.32.39,2,.38,1.49,1.2,2.92.43,4.53-.07.15.2.47.31.71.18-.1.43-.16.54-.31,1.47-2,2.94-4,4.35-6A7,7,0,0,0,136.52,140.11ZM79.68,108.46c-.09.05-.37.12-.41.25a.75.75,0,0,0,.21.57,2.51,2.51,0,0,0,.7.55q5.53,3,11.08,5.89a1.71,1.71,0,0,0,.61.07c0-.26,0-.6-.14-.77-1-1.12-2-2.18-3-3.3-1.52-1.72-1.45-2,.58-3.09.2-.1.4-.18.6-.29l2.9-1.57-3.19-1.51c-.14-.06-.29-.07-.44-.12-2.08-.6-2.26-.42-1.77,1.66s.2,2.43-1.7,2.73a7.87,7.87,0,0,1-2.64-.18C81.94,109.14,80.87,108.78,79.68,108.46Zm-10,59.44c-1.5.29-2.62.45-3.7.73s-2.12.67-3.18,1a29.14,29.14,0,0,0,2.54,1.79c2.27,1.26,4.53,2.57,6.9,3.62,1.39.63,1.79.17,1.26-1.34a25.43,25.43,0,0,0-2-4.48C71.08,168.59,70.17,168.26,69.67,167.9Zm29-29.32,1.77-.68a8.05,8.05,0,0,0-.66-1.59c-3-4.26-5-4.59-9.1-1.52-.18.13-.37.26-.54.4-1.17,1-1.14,1.57.32,1.9C93.11,137.71,95.85,138.09,98.64,138.58Zm53.43,35,.08-.26c-.25-.14-.49-.28-.73-.44-3-2-6-3.93-9-5.93-1-.7-2.2-2.26-3-2.07-1.07.26-1.82,1.81-2.71,2.81-.1.11-.25.21-.28.34-.1.4-.15.8-.22,1.2a9.38,9.38,0,0,0,1.2-.19,5,5,0,0,0,.78-.43c.73-.36,1.47-.7,2.21-1a18.82,18.82,0,0,1-.57,2.47c-.31.87-.29,1.19.67,1.81,1.17.76,1.24-.14,1.62-.58a19.6,19.6,0,0,0,1.08-1.7,4.53,4.53,0,0,1,.56-.6,2.47,2.47,0,0,1,.49.7c.29,1.09.49,2.2.79,3.28.07.26.4.45.61.67.63-1.43,1.35-1.68,2.25-.2,0,.05.45-.06.61-.19,1-.83,1.9-.53,2.8.21C151.5,173.63,151.82,173.59,152.07,173.63Zm-28-54.48a38.54,38.54,0,0,0-3.75,2,27.43,27.43,0,0,0-2.74,2.45c1.09.72,2.18,1.45,3.27,2.16.06,0,.15.09.21.07.43-.14,1.08-.17,1.24-.47a45.78,45.78,0,0,0,2.27-4.61C124.71,120.4,124.3,119.83,124.07,119.15Zm-7.43,28.52c.66-.46,1-.66,1.26-.88,2.61-2.09,5.23-4.17,7.83-6.27.57-.46,1.11-1,1.66-1.43-.67.08-1.34.18-2,.24-.52,0-1,.06-1.56.08a3.79,3.79,0,0,0-3.21,1.74c-1.23,1.86-2.48,3.71-3.71,5.58A4.27,4.27,0,0,0,116.64,147.67Zm5.85-1.31a4,4,0,0,0-.33-.41,6.84,6.84,0,0,0-1.64,1.25,1.25,1.25,0,0,0,0,1.22,31.27,31.27,0,0,1,2.93,1.54c1.14.92,3.07.36,3.71,2.09.27-.16.71-.26.78-.48.37-1.16.64-2.34,1-3.51a23,23,0,0,0-2.61.47c-.18.05-.14.69-.33,1s-.65.64-.78.57a18,18,0,0,1-3-1.91C122,148,122.35,147.15,122.49,146.36Zm-2.78-41.7c-2.44,0-3.06.5-3.54,2.42-.16.64-.28,1.3-.46,1.94-.3,1.06-.16,1.56,1.07,1,1.94-.89,2.67-2.82,3.76-4.43C120.61,105.49,119.87,104.83,119.71,104.66Zm-16.33,70.4v-.12c-1.64,0-3.28,0-4.92,0a2.51,2.51,0,0,0-.72.23c.24.14.48.38.73.39,1.41.07,2.83.16,4.24.11,2.68-.09,5.36-.25,8-.44a3.71,3.71,0,0,0,1.16-.55,5.94,5.94,0,0,0-1.16-.18C108.28,174.68,105.83,174.87,103.38,175.06Zm20.82-63c-.81-1.51-1.49-2.83-2.24-4.11a1.1,1.1,0,0,0-.95.09,6.31,6.31,0,0,0-1.17,1.63c-.13.27-.06.92.14,1,1.09.63,2.24,1.18,3.39,1.7C123.52,112.49,123.82,112.24,124.2,112.07Zm-16.29-51.2-.3.16a2.88,2.88,0,0,0,.34.56q4,4.43,8,8.83l.6.65a3.44,3.44,0,0,0-.22-.92c-2-3.62-5-6.3-8-9A2.84,2.84,0,0,0,107.91,60.87ZM80.23,113a1.45,1.45,0,0,0-.5-.12c-2.16.22-7.33,5-7.6,7.1a1.44,1.44,0,0,0,.16.54,1.87,1.87,0,0,0,.52-.37,24.15,24.15,0,0,1,7-6.72C80,113.4,80.05,113.25,80.23,113ZM170,171.64a10.62,10.62,0,0,0-.18-1.87c-.09-.34-.49-.6-.76-.9-.28.28-.76.52-.83.84-.25,1.23-.39,2.49-.53,3.74-.1.87.48,1,1.14.82C170.28,173.92,170.07,172.78,170,171.64Zm-48.87-.06c.26-.11.54-.21.8-.35a28.76,28.76,0,0,0,9.81-8.63,3.09,3.09,0,0,0,.31-1.13c-.27.23-.55.44-.81.69-2.28,2.22-4.51,4.5-6.86,6.66A25.7,25.7,0,0,1,121.3,171a4.08,4.08,0,0,0-.49.45Zm-33.11,2.71c-.28-.31-.39-.56-.57-.61q-5.33-1.65-10.67-3.23c-.12,0-.3.13-.46.2a2.41,2.41,0,0,0,.54.38q5.1,1.64,10.21,3.25A3.6,3.6,0,0,0,88.06,174.29Zm77.26-2.59h-.06a6.05,6.05,0,0,0-.1,1.33,6.43,6.43,0,0,0,.48,1.28c.36-.31.94-.55,1-.92a19.93,19.93,0,0,0,.52-3.52c0-.28-.48-.88-.67-.85-.43.07-1.06.36-1.16.69A6.93,6.93,0,0,0,165.32,171.7ZM124.69,118l.21-.44a9.6,9.6,0,0,0-1-.6c-1.61-.76-3.22-1.56-4.88-2.21a13.74,13.74,0,0,0-2.6-.49c.77.47,1.51,1,2.31,1.38,1.67.84,3.37,1.63,5.07,2.4C124.07,118.12,124.41,118,124.69,118ZM80,139.18a4.72,4.72,0,0,0-.57-.73,18.74,18.74,0,0,1-5.9-7.22c-.09-.19-.3-.32-.46-.48a3.12,3.12,0,0,0,.12.82,26.42,26.42,0,0,0,2.28,4.35A21.24,21.24,0,0,0,79,139.06C79.15,139.22,79.54,139.13,80,139.18Zm-13,26.2a.88.88,0,0,0-.12-.19,25.39,25.39,0,0,1-5.32-7.91c-.06-.13-.23-.21-.35-.31,0,.22-.08.47,0,.65.88,1.87,1.69,3.78,2.74,5.55a11.9,11.9,0,0,0,2.36,2.34c.14.14.39.15.59.22ZM92.3,87.7v0c1.41-.08,2.83-.13,4.24-.24.22,0,.41-.34.61-.51a1.62,1.62,0,0,0-.58-.18q-3.91.19-7.82.45c-.25,0-.48.24-.71.37.23.12.46.35.68.34C89.92,87.88,91.11,87.78,92.3,87.7Zm40.13,32.36h-.21c0,1.27,0,2.54,0,3.81a4.68,4.68,0,0,0,.32,1.07c.22-.36.62-.72.62-1.08,0-2.69-.11-5.39-.21-8.07,0-.21-.27-.4-.41-.6a3.39,3.39,0,0,0-.12.62C132.42,117.22,132.43,118.64,132.43,120.06Zm-7.8-22.81-.2-1.15c-.2.17-.5.31-.58.53-.68,2-1.35,3.91-2,5.89-.09.27.1.62.17.93.2-.2.49-.36.58-.6C123.35,100.91,124,99,124.63,97.25Zm39.75,74.17a6.39,6.39,0,0,0,0-1.34,5,5,0,0,0-.44-.94c-.23.31-.6.6-.67,1a35.56,35.56,0,0,0-.58,3.53,3.51,3.51,0,0,0,.26,1.1c.38-.29,1-.51,1.09-.87A15.48,15.48,0,0,0,164.38,171.42Zm8.34-2.9a27.12,27.12,0,0,0,.53,2.87c.09.31.54.51.83.77.25-.37.75-.76.71-1.1a10.35,10.35,0,0,0-.66-2.6c-.12-.33-.55-.55-.85-.82ZM121.45,94.83l-.22-.61a2.8,2.8,0,0,0-.42.75,19.79,19.79,0,0,1-3.52,8.13c-.14.17-.09.49-.13.73a2.57,2.57,0,0,0,.72-.44C120,100.93,120.67,97.85,121.45,94.83Zm7.29,36.39-.1-.35c-.13.06-.31.08-.39.18q-2.18,2.52-4.31,5.07c-.16.19-.15.51-.22.77.24-.1.56-.15.72-.33,1.38-1.63,2.74-3.29,4.1-4.94A1.87,1.87,0,0,0,128.74,131.22Zm10,16.88-.29-.08a4.86,4.86,0,0,0,0-.66c0-.35-.1-.7-.16-1.05-.09.35-.19.7-.27,1.06-.5,2.09-1,4.19-1.49,6.28a3.42,3.42,0,0,0,0,.64c.2-.15.54-.25.6-.44C137.67,151.94,138.18,150,138.71,148.1Zm33.61,23.5c-.14-.77-.28-1.64-.48-2.5-.06-.24-.32-.43-.49-.64-.17.2-.49.41-.49.61,0,1.18.09,2.37.21,3.54,0,.23.32.42.49.63a2.77,2.77,0,0,0,.74-.65C172.42,172.36,172.32,172,172.32,171.6Zm9.1-4.54c.16-.21.51-.53.45-.65-.52-1-1.11-2.06-1.71-3.06-.06-.1-.52-.1-.57,0s-.28.6-.18.78c.47.92,1,1.8,1.56,2.69C181,166.9,181.21,166.94,181.42,167.06ZM83.78,106.2a1.86,1.86,0,0,0-.15-.33c-1.37-1.48-2.74-3-4.13-4.42-.07-.08-.25-.07-.37-.1,0,.2,0,.47.07.58q2,2.11,4,4.17C83.31,106.2,83.54,106.17,83.78,106.2Zm93.14,63.74c-.41-1-.77-2-1.18-3-.07-.15-.47-.31-.53-.26s-.45.47-.41.65a28.94,28.94,0,0,0,.83,2.79,3.85,3.85,0,0,0,.55.87ZM93.4,145.67l.95-.14a2.52,2.52,0,0,0-.62-.44q-2.69-.78-5.39-1.51a2.37,2.37,0,0,0-.65,0c.21.18.39.44.64.52C90,144.65,91.75,145.17,93.4,145.67Zm2.95-33.62,0-.13a8.81,8.81,0,0,0,.89,0c.33,0,.65-.14,1-.21a6.14,6.14,0,0,0-.84-.23q-2.66-.42-5.31-.81a3.55,3.55,0,0,0-.65,0c.17.18.31.46.51.5C93.42,111.52,94.89,111.77,96.35,112.05Zm80.81,53.69c-.23.45-.42.65-.39.77.29,1,.6,2,1,3,0,.11.44.09.67.14.07-.47.31-1,.16-1.4A20.33,20.33,0,0,0,177.16,165.74ZM96.06,53.35,95,53.69a11.89,11.89,0,0,0,1.2.68,3.62,3.62,0,0,0,1.09.26c.66.07,1.33.09,2,.14-.65-.41-1.28-.87-2-1.22A4.34,4.34,0,0,0,96.06,53.35Zm87.49,111.24c-.68-.82-1.37-1.66-2.08-2.47a.4.4,0,0,0-.37,0c-.08.17-.19.44-.12.56.48.82,1,1.63,1.53,2.41a.56.56,0,0,0,.53.16C183.21,165.18,183.3,164.93,183.55,164.59Zm-101.71-74-.14-.45c-.14.06-.32.08-.4.18-.8,1-1.58,2.08-2.36,3.14,0,0,.16.2.25.31ZM185.4,160.71c-.55-.41-1.2-.94-1.9-1.39-.12-.08-.46.17-.7.26l1.37,1.37a2.29,2.29,0,0,0,.51.43.85.85,0,0,0,.52.09C185.26,161.46,185.28,161.21,185.4,160.71ZM76.73,111.41a4.5,4.5,0,0,0,1.21.39,6.3,6.3,0,0,0,1.26-.32,6.59,6.59,0,0,0-1.34-1C77.71,110.36,77.28,110.92,76.73,111.41Zm33.06-1.36c1-.62,2.26-1.32,3.45-2,.11-.06.16-.23.23-.34-.2,0-.44-.09-.59,0-1.16.63-2.31,1.3-3.46,2a1.2,1.2,0,0,0-.27.28ZM68,139l1.71-1c-.3-.17-.66-.53-.88-.45a11.14,11.14,0,0,0-1.75.9Zm69.12-5.77c-.38-.82-.84-1.82-1.34-2.81-.08-.15-.32-.22-.49-.32a1.42,1.42,0,0,0,0,.58c.4,1,.83,1.91,1.28,2.85.07.16.27.25.41.38Zm47.24,29.92.2-.47c-.74-.63-1.47-1.27-2.22-1.89-.06,0-.24.07-.37.11l1.26,1.66a3,3,0,0,0,.59.64C183.93,163.3,184.17,163.19,184.36,163.17Zm-3.79,4.7c-.81-1.23-1.32-2-1.85-2.77,0,0-.25,0-.38,0,.22.57.42,1.15.66,1.71a2.4,2.4,0,0,0,.44.76C179.55,167.72,179.81,167.7,180.57,167.87Zm-36.32-17.36c0-.13-.05-.3-.14-.38a.36.36,0,0,0-.34.08c-.38.92-.73,1.85-1.08,2.78,0,0,.09.08.13.12l1.41-2.39C144.26,150.67,144.24,150.58,144.25,150.51Zm41.58,8.69.16-.32a7.08,7.08,0,0,0-1.1-.88c-.2-.11-.54,0-.81.08a10.89,10.89,0,0,0,1.06,1C185.31,159.19,185.59,159.16,185.83,159.2Zm-56.91-18.07.35-.58c-.27-.06-.58-.22-.82-.15a1.08,1.08,0,0,0-.51.61c0,.1.24.45.36.44S128.71,141.25,128.92,141.13Z"/><path d="M79.11,50.5c-.09.06-.4.35-.46.3a39.6,39.6,0,0,1-3.28-2.47c-.16-.13.13-.77.21-1.18a4.55,4.55,0,0,1,1,.3C77.7,48.14,79,48.69,79.11,50.5Z"/></g></svg>