<svg id="Layer_1" data-name="Layer 1" xmlns="http://www.w3.org/2000/svg" xmlns:xlink="http://www.w3.org/1999/xlink" viewBox="0 0 200 200"><defs><style>.cls-1{fill:none;}.cls-2{clip-path:url(#clip-path);}</style><clipPath id="clip-path"><rect class="cls-1" x="-222" y="-210" width="178" height="178"/></clipPath></defs><g class="cls-2"><g id="vurX8n"><path d="M-26.79-9.94h9c2.43-2.93,5.35-7,8.88-10.55,5.1-5.07,10.54-9.83,16-14.47,3-2.51,3.81-7.4,1.07-10.31A29.58,29.58,0,0,1,.11-67.76c.08-1.91-.09-4,2.54-4.29s4.82.44,5.69,3.18c1.06,3.39,1.9,6.85,2.95,10.24a16.19,16.19,0,0,0,1.57,2.92L13.7-56c-.38-1.44-.68-2.91-1.15-4.31-2.24-6.56-1.82-12.83,1.82-18.83,1.89-3.11,4-4.21,6.52-3.27s3.89,3.84,3.47,7.14c-.58,4.48-1,9-1.23,13.5-.16,3.44,1.58,5.07,5.57,5.58-.28-1.91-.44-3.75-.84-5.52-1.38-6.07,1.16-10.84,5-15.11,2.13-2.35,5-2.72,8-2.12,3.7.76,4.94,6,2.36,9.55-1.52,2.06-2.92,4.2-4.48,6.23a3.24,3.24,0,0,0,0,4.54c2.94,3.63,3.37,7.92,3,12.37a4.51,4.51,0,0,1-.77,2.2c-1.7,2.22-.4,3,1.57,3.41,4.75.91,8-1.76,8-6.58,0-1,0-2,0-3-.22-5.08,1.65-4.95,5.33-6,2.61-.71,5.07,1,5.89,4.23,1.22,4.75,3.13,9.75-.55,14.21-3.3,4-7.21,7.32-12.83,7.45a68,68,0,0,1-7.14,0c-3.92-.32-6.19,1.78-7.52,5C30.12-16.34,26.11-7.51,20-.1,15,6,11.13,13,4.64,17.85c-7,5.19-14,9.72-22.92,11.8A109.38,109.38,0,0,1-39,32.25c-6.88.28-12.76-2.46-18.65-5.19A48.22,48.22,0,0,1-78.39,9,10.32,10.32,0,0,0-81.55,5.8c.23,1.13.49,2.25.69,3.39,1.79,10,3.82,20,5.25,30.05,1.07,7.52,1.3,15.16,2,22.74.65,7,1.4,14,2.16,20.93a49.18,49.18,0,0,0,1.18,7.27A4.2,4.2,0,0,0-68,92.41c7.64,3.24,15.29,6.5,21.31,12.46,1.86,1.84,3.2,4.21,4.91,6.22,2.41,2.84,4.54,6.12,7.5,8.23,6.3,4.47,11.31,10.16,15.94,16.13,4.4,5.67,8,11.93,12,17.94.21.33.39.82.69.94,4.32,1.61,5.89,5.94,8.64,9,5.1,5.72,5.6,13.39,3.86,20C5.08,190.24,4.72,197.26,3,204c-2,7.73-4.18,15.46-9.1,22-4,5.29-7.88,10.65-12,15.8-.79,1-2.6,1.47-4,1.59-4.89.42-7.85,3.57-10.34,7.21-1.56,2.29-.93,3.16,1.85,3.73,7.6,1.56,14.89.34,22.21-1.92a13.16,13.16,0,0,1,7.75.33c4.37,1.55,6.69,4.93,5.53,9.8-1,4.17-3.41,7.55-7.67,8.64-6.87,1.77-13.84,3.22-20.83,4.46-3.57.64-7.29.4-10.92.8-4.33.47-7.57-1.47-10.69-4.1-2.18-1.83-4.64-3.31-6.82-5.13a41.48,41.48,0,0,1-4.34-4.45c-1.23-1.39-2.33-2.89-3.49-4.34-3.67,3-4.57,3-8.34,0-.86-.66-2.13-1-2.68-1.8-.67-1-1.39-2.62-1-3.55a38.29,38.29,0,0,1,16.76-19.35c2.79-1.62,3.34-4.24,4.65-6.59.43-.77.43-1.9,1-2.45,4.34-4.06,3.44-9.87,5.2-14.77a92.34,92.34,0,0,1,6-13.2,53.14,53.14,0,0,1,6.9-9.85c1.75-1.94,1.12-3.52.23-5a4.77,4.77,0,0,0-3.23-2.26c-9-.12-17.33-3.08-25.2-7-9.42-4.65-18.24-10.31-24-19.61A4.89,4.89,0,0,0-91.13,152c-6.26,5.68-13.77,7.45-21.86,7.78a2.81,2.81,0,0,0-.63.22c0,.25-.2.59-.09.78,2.78,5,2.66,10.69,3.62,16.1.64,3.59.87,7.25,1.23,10.88a3.49,3.49,0,0,1-.15,2.05c-1.88,2.85-.13,4.95,1.56,6.78a42.74,42.74,0,0,1,8.64,14.69A17,17,0,0,1-98,215c.28,2.47.18,4.87,3.85,5.16,1.07.09,2.5,2.41,2.82,3.91A65.94,65.94,0,0,1-90.12,235c.14,4,2.18,6.88,4.77,9.57,1.57,1.63,3.16,3.24,4.69,4.9s1.7,3.21.17,4.76c-2.71,2.75-5.39,5.55-8.33,8.05-2.73,2.32-4.82,2.18-7.34-.3-1.79-1.77-2.79-1.6-4,.57A33.9,33.9,0,0,1-122,279.1c-5,1.22-10.62.17-15.9-.36a17.39,17.39,0,0,1-9.77-3.83c-3.08-2.61-3.57-6.4-1-9.55,3.34-4,8-6,12.63-8.05a12.76,12.76,0,0,0,2.23-.79c2.74-2,7.45-2.23,6.94-7.32-.35-3.53.71-7-1.89-10.49-5.31-7.06-9.08-14.9-8-24.18.3-2.62-.44-4.31-3.21-5.08-3-.86-4.68-3-4.23-6.27.6-4.26-1.11-7.21-4.21-10.06a107.55,107.55,0,0,1-12.19-13c-5.67-7.3-8.52-15.92-10.34-25a52.24,52.24,0,0,1,2.45-30c4.3-10.85,9.83-21.27,21-27a22,22,0,0,1,12.38-2.35c2.26.23,3.1-.7,2.85-2.88-.77-6.77-1.5-13.54-2.31-20.31-.39-3.23-.83-6.46-1.47-9.64a5.73,5.73,0,0,0-1.79-2.73c-4.17-3.91-8.74-7.44-12.56-11.65a153.22,153.22,0,0,1-11.56-14.9c-6.32-9-12.45-18.16-14.86-29.14a39.27,39.27,0,0,1-.52-8.27c0-1.88-.35-2.88-2.48-3.54-7.06-2.2-13.46-5.61-18.27-11.49A3.62,3.62,0,0,0-200-19.85c-10.89-2.18-19.37-8.75-27.63-15.5-2.66-2.17-4.33-5.6-6.33-8.54a6,6,0,0,0-3.9-2.58c-9.08-2.52-18.25-.53-27.35-.89-4.27-.17-7.94-1-11.36-3.48-2.57-1.87-3.64-1.3-5.19,1.53a81.45,81.45,0,0,1-6.43,10.2c-3.95,5.17-9.45,6.08-15.47,4.61A4.12,4.12,0,0,1-307.15-39c.08-5,2.62-8.56,6.56-11.34,2.58-1.82,5.15-3.66,7.61-5.63.66-.53,1.43-1.92,1.18-2.36a4.12,4.12,0,0,0-2.6-2.05,9.6,9.6,0,0,0-8,2.59c-3.62,3.34-8.06,5.88-13.23,6a32.09,32.09,0,0,1-9.59-1.09c-3.15-1-3.66-3-1.93-5.84,1.43-2.34,3.27-4.44,4.93-6.64.47-.62.95-1.23,1.52-2A15.5,15.5,0,0,1-323.94-69c-1.4-1.23-3.4-2.6-3.64-4.15-.37-2.39,1.21-4.59,3.69-5.52,2.77-1,5.62-1.81,9.18-2.94l-4.33-.29c-2-.14-4.1-.36-4.64-2.83s1.16-6.5,3.46-6.71a64.87,64.87,0,0,1,14.4-.18c4.52.62,8.81,2.73,13.29,3.84a25.58,25.58,0,0,0,6.79.38,28.54,28.54,0,0,1,18.44,6.12,4.39,4.39,0,0,0,3.5.29,58.38,58.38,0,0,1,25.1-3.46c5.95.56,12,.75,16.81,5.44,1.23,1.19,3.93.94,6,1.24,6.26.93,12.45,1.88,18.35,4.56s10.1,7.45,14.32,12.12c1.45,1.6,2.57,3.51,4,5.15a2.41,2.41,0,0,0,1.95.62,10.42,10.42,0,0,0,3.61-1.31c5.85-3.86,12.53-4.21,19.13-4.29,5.58-.07,11.17.68,17,1.08-1.78-3.69-3.71-7.72-5.82-12.09a21.78,21.78,0,0,0-11.31,5.44,10.8,10.8,0,0,1-8.09,3A31.18,31.18,0,0,1-179.41-68c-2.85-1.74-3.51-4.31-2.18-7.41,1.57-3.63,4.57-5.64,7.82-7.38,2.06-1.1,2.26-2.29.67-3.92a15.84,15.84,0,0,1-4.33-9.68c-.27-2.45.82-4.29,3.16-5.53a35.16,35.16,0,0,0,4.74-3.59l-.41-.6c-3.18,0-6.36.06-9.54,0-5.26-.12-7.59-4.1-4.76-8.39,3.52-5.34,7.32-10.49,11-15.76,3-4.36,6.64-8.47,6.5-14.27-.09-4-1.48-5.38-5.4-5.21-2.37.1-3.38-.86-4.23-3.12-3.85-10.25-8-20.39-12-30.61-1.81-4.71-3.4-9.5-4.92-14.3-.68-2.17.73-3.33,3-2.71a249.34,249.34,0,0,1,49.54,19.59c10,5.27,19.76,10.92,29.42,16.76,11.31,6.84,16.85,17.14,17,30.37a64,64,0,0,1-2,18.49c-1,3.37.32,7.39.63,11.11.09,1.08.45,2.14.51,3.22.6,10.66,1.14,21.33,1.76,32a22.68,22.68,0,0,0,.84,5.83,3.94,3.94,0,0,0,2.66,2c6.47,1.28,13.06,2,19.43,3.67,2.7.7,5,3,7.4,4.81,3.63,2.72,7,5.82,10.73,8.36A43.17,43.17,0,0,1-39.62-31c2.48,4,5.41,7.78,7.9,11.81C-29.81-16.12-28.28-12.79-26.79-9.94Zm-95.21-22c2.87,3.7,5.51,6.42,7.32,9.61,2.48,4.39,6.86,6.34,10.7,8.64s8.35,3,12.67,4c1.46.34,3.29-.25,4.78-.84,1.91-.75,3.27-.35,3.71,1.52,1,4.56,2.24,9,5.39,12.64,3.51,4.11,6.69,8.5,10.28,12.53,2.6,2.91,5.91,4.87,9.44,6.76,5.68,3,11.28,5.26,17.79,5.88,10,1,19-2.71,28.33-4.92a6.7,6.7,0,0,0,1.65-.66c9.61-5.4,18-12.06,23.5-21.91A23.28,23.28,0,0,1,15.13-.83c2.95-4.08,6.09-8,8.77-12.29,1.75-2.79,2.8-6,4.21-9C29-24,29.89-25.9,30.92-27.7c1.82-3.18,4-5.95,8.23-5.69,1.48.09,3-.18,4.45,0,6.78,1,10.71-3.62,15-7.44a3,3,0,0,0,.83-2.15,51.38,51.38,0,0,0-.89-7.64c-.15-.72-1.7-1.79-2.28-1.62a3.67,3.67,0,0,0-2,2.34c-.33,1.31.21,2.84-.15,4.13a14.65,14.65,0,0,1-2.39,5.5c-2.6,3.09-8.86,3.94-12.54,2.13-2.25-1.11-3-3.94-2.65-6.47.57-4.34,1.41-8.81-1.36-12.9-2.12-3.13-1.79-6.13.61-8.89a62.62,62.62,0,0,0,4.45-5.56,2.87,2.87,0,0,0,.08-2.6,2.84,2.84,0,0,0-2.4-1.1,5.39,5.39,0,0,0-3.09,2c-2,3.4-3.79,6.9-3.33,11.16A88.63,88.63,0,0,1,31.73-53c0,2.45-1.3,3-3.28,1.92-1.45-.8-2.66-2-4.11-2.82-2.95-1.58-4.77-3.77-4.74-7.25,0-4.57.09-9.13,0-13.69a8.64,8.64,0,0,0-1.07-2.69c-.9.68-2.47,1.27-2.57,2A52.35,52.35,0,0,0,15.27-64c.34,3.57,1.93,7,2.61,10.55A4.4,4.4,0,0,1,16.6-49.9c-.5.42-2.4-.29-3.33-1A15,15,0,0,1,6.82-61.09a65.2,65.2,0,0,0-2-7.3l-.85.2a14.6,14.6,0,0,0-.34,1.94,24.25,24.25,0,0,0,6.87,18.06c3,3.14,4.37,6.62,3.69,10.75a6.93,6.93,0,0,1-2.54,3.87c-2.4,1.89-5.49,3-7.61,5.13C-1.44-23-6.64-17.16-11.8-11.35a61.1,61.1,0,0,0-4.71,6.71c-.6.88-1.09,1.83-1.63,2.74a15.67,15.67,0,0,1-2.18-2.44c-.75-1.28-1.08-2.81-3.21-2.11-4.13,1.35-6.2.83-7.69-3.23-3.12-8.45-8.91-15.17-13.67-22.56C-48-37.11-52.65-40-57.36-42.95a19.12,19.12,0,0,1-2.74-1.56c-3-2.71-5.94-5.47-8.81-8.31s-7.71-.54-10.38-3.92c-8.47-.91-17-2.79-25.07,1.89-1.38.8-2.79,1.55-4.26,2.35a24.12,24.12,0,0,0,1.71,2.39c.6.65,1.54,1.06,1.94,1.79a20.1,20.1,0,0,1,1.19,3.48,32.45,32.45,0,0,1-3.47.73,10.6,10.6,0,0,1-2-.34c-3.41-.35-3.71.22-2.68,3.48a25.11,25.11,0,0,1,.55,5.31c-1.59,0-3.18-.08-4.78-.1-.17,0-.34.16-.7.33C-116.95-32.94-118.22-31.5-122-31.93Zm21.14-72.89a8.25,8.25,0,0,1-1.82.89,23,23,0,0,1-2.89.29,9.66,9.66,0,0,1,.32-3.13c1.46-3.22,3-6.4,4.75-9.5,3.69-6.73,2.78-14,2.68-21.21a9.54,9.54,0,0,0-.77-2.84c-.42-1.22-1-2.39-1.36-3.63-1.49-4.84-2.9-9.73-8.34-11.74-2.88-1.07-5.86-1.89-8.66-3.12-6-2.64-12.1-1.86-18.09-.78-7.57,1.36-15,3.28-22.5,5.18a67.74,67.74,0,0,0-7.75,3c.62,2.63,1.62,3.26,3.61,2.45a26.44,26.44,0,0,1,5.41-1.6c5.06-.85,10.18-2,15.2.08.87.36,1.4,1.58,2.08,2.4-.89.45-1.76,1.23-2.67,1.27-3.12.17-6.24.07-9.39.07.21,3,.24,2.93,2.29,3.48A72.28,72.28,0,0,1-141.7-141c3,1.15,3.52,3.73,1.07,5.71s-4.79,4.33-8.58,3.45a13.31,13.31,0,0,0-5.62,0c-3,.63-5-.89-6.88-2.58a14.27,14.27,0,0,1-2.26-3.41c-1.68,2.86-3.24,5.85-5.12,8.64-1.24,1.85-3.07,3.29-4.38,5.11-1.43,2-2.54,4.22-3.82,6.33-1.44,2.38-2.91,4.75-4.57,7.45,5.37,2.1,9.84.17,14.4-.86-.74-.39-1.58-.34-2.2-.68a36.21,36.21,0,0,1-3.37-2.28c1-1.13,1.79-2.85,3-3.27,2.32-.78,4.74-.49,6.13,2.16a23.07,23.07,0,0,0,1.79,2.71c1.28,1.8.79,2.93-1.42,3.13-.66.06-1.33,0-2,0-.23,2.06-1.3,4.57-.47,5.72,1.6,2.25,1.9,4,.61,6.47a6.63,6.63,0,0,0,1.88-2.08c1.32-2.15,3-2,4.26-.24a11.06,11.06,0,0,1,1.93,5.07c.22,2.5-.89,2.85-3.31,2.22a16.21,16.21,0,0,0-10.26.72c1.56.77,3.21.81,4.77,1.21a15.8,15.8,0,0,1,3.17,1.56l-2.78,2.54c-.9.83-1.87,1.59-2.7,2.49a41.39,41.39,0,0,1-3.13,3.67c-1.42,1.21-3.21,2-4.66,3.13-3,2.39-3,5.4.08,6.59a109.58,109.58,0,0,0,11.27,3.48,5.19,5.19,0,0,0,3.46-.26c2.68-1.41,5.13-3.25,7.8-4.69a48.13,48.13,0,0,1,7-3.09c9.13-3.19,18.36-6.12,27.42-9.52a7.3,7.3,0,0,0,3.65-4.51A29.06,29.06,0,0,0-115-97.5c-.08-1.52-1-3-1.54-4.51l-1-.44c1.12-.73,2.28-2.07,3.33-2a3.75,3.75,0,0,1,2.47,2.71,95.9,95.9,0,0,1-.07,15,7.15,7.15,0,0,1-6.52,6.63A16.24,16.24,0,0,0-121.6-79c-4.62,1.71-9.19,3.56-13.86,5.07-3.18,1-4,1.93-2.73,5a15,15,0,0,0,2.63,4.2c2.2,2.54,2.21,7.87.44,10.16-3.6,4.66-6.85,9.59-10.21,14.44-.16.23,0,.71.09,1.76,3.78-2.48,7.17-4.68,10.54-6.92,3-2,5.7-4.4,8.88-5.87,5.64-2.6,11.53-4.66,17.34-6.89,3.52-1.35,7.14-2.48,10.6-4,.69-.3,1.23-1.87,1.19-2.83-.24-6.12-.84-12.23-1-18.36C-97.85-90.42-97.74-97.64-100.86-104.82ZM-247-51.14a27.19,27.19,0,0,1,.37-5.6c.25-.93,1.63-1.57,2.5-2.34.58,1,1.64,2,1.66,3,.08,3.36,1.66,5.76,5,6.07a6.58,6.58,0,0,1,5.23,2.83c1.08,1.52,2.12,3.08,3.17,4.62,2.05,3,4.21,5.83,7.71,7.49,2.41,1.14,4.44,3,6.7,4.52,4.39,2.88,8.5,6.17,14,7a12.76,12.76,0,0,1,6,3.31c4.37,3.89,9,7.28,14.58,9.17a47.63,47.63,0,0,1,5.89,1.9c1.73.86,2.76.41,3.27-1.11a43.4,43.4,0,0,0,1.74-6.84c1.19-7.23,1.17-14.71,5.69-21.13,4-5.62,7.62-11.29,14.47-13.94,2.4-.93,4.48-2.69,7.08-4.31-1-.45-1.51-.88-2-.87-6.43.11-12.91-.2-19.26.59-4.79.6-8.75,4.13-13.54,5.41-3,.81-5.36.11-6.48-2.87a14.41,14.41,0,0,0-2.27-4c-1.49-1.83-3.34-3.38-4.82-5.22-4.42-5.48-10.21-8.1-17.13-8.49-.58,0-1.52,0-1.68-.29-1.26-2.36-3.62-1.59-5.48-2-3.86-.75-7.93-.21-11.17-3.47s-8.13-3-12.34-3.43a39.92,39.92,0,0,0-20.63,2.65c-3.88,1.66-7.91,2.69-12.11-1-2.56-2.26-6.81-2.68-10.35-3.76-5.11-1.56-11.15,1.5-15.69-3.08a1.05,1.05,0,0,0-.55-.22c-2.91-.6-5.79-1.4-8.73-1.74a100.17,100.17,0,0,0-11.22-.61c-.7,0-1.39,1.3-2.09,2,.64.58,1.22,1.54,1.94,1.67,4.08.7,8.18,1.23,12.29,1.74,1.76.22,3.64-.06,5.31.43a3.84,3.84,0,0,1,2.26,2.52,3.08,3.08,0,0,1-1.85,2.42c-3.12.47-6.3.48-9.46.72q-5.42.42-10.83,1c-1.7.17-3.05,1.12-2.4,2.87a4,4,0,0,0,2.93,2,65.76,65.76,0,0,0,8.87-.25c2.46-.18,4.91-.72,7.36-.75.82,0,1.65,1.08,2.48,1.67-.63.74-1.1,1.82-1.9,2.18-6.13,2.74-12.36,5.25-18.44,8.07a3.8,3.8,0,0,0-1.81,3.12c.12.84,1.76,1.86,2.87,2.06,5.38,1,9.78-1.27,13.93-4.45,6.48-5,11.81-5.29,16.88-1.25,2,1.56,2.38,4.29.54,6-2.75,2.49-5.77,4.7-8.66,7-1.54,1.24-3.48,2.25-4.44,3.84-.86,1.42-.88,3.53-.74,5.29,0,.43,2.18.94,3.36,1,5.45.1,12.05-5.19,12.85-10.83.47-3.28,3-4.44,4.81-6.34s3.4-1.51,5.39.22,4.29,3.48,6.57,3.62C-262-50.86-254.59-51.14-247-51.14ZM-151.53-6.7c2.37,4,4.25,7.92,8.85,7.07,2.73-.51,3.64-3.39,3.81-6.1.15-2.36-.2-4.57-2.94-5.51a10.55,10.55,0,0,0,1.17,3.07c1,2,0,5.45-1.89,6.6-2.22,1.31-3.76-.22-4.71-1.76a42.65,42.65,0,0,1-2.64-6.37c-.15-.37-.34-.73-.8-1.69-.48,1.69-.78,2.76-1.1,3.9-3.1-2.8-6.62-4.06-8.46-3.1-2.08,1.08-3,5.27-2.22,9.28C-162,1-160,1-158.35,1.4-152.09,2.79-152.52-2.35-151.53-6.7Zm19.83-3.67c-2.43.26-4.43,3.48-4.36,7.29a3.21,3.21,0,0,0,1.84,2.37c3.08.91,5.73.15,6.42-1.6a19.66,19.66,0,0,1-2.58.74c-3.51.52-4.85-1.14-3.53-4.44C-133.34-7.44-132.52-8.78-131.7-10.37Zm14.81-2.18c-.22,2,.08,3.86-.7,5-.64.94-2.55,1-3.89,1.47,3.73-.56,4.51,1.86,5.14,4.71a55.67,55.67,0,0,0,2,5.84l.79-.25Zm-7.87,1.5c-1.68,4.73-.43,9,2.14,13,.27.42,1.25.39,1.9.56,0-.86.21-1.88-.16-2.56-.84-1.53-2.37-2.77-2.9-4.37C-124.47-6.51-124.47-8.83-124.76-11Zm-44.8-89.79c-.86,1-1.66,1.54-1.9,2.29-.11.33,1.09,1.56,1.41,1.46a9.57,9.57,0,0,0,2.39-1.61Zm60.87,99.5.54,0V-9.21l-.54,0Zm.34,9.57c2.08-1.31,2-2.64,1.08-4l-1.08,0Z"/></g></g><g id="zqk8sE"><path d="M148.11,86.67a12.76,12.76,0,0,1,9.29,3.71c6.73,6.67,13.47,13.34,20.1,20.11,5.24,5.35,5,13.42-.47,18.88q-12.42,12.47-24.88,24.89l-22.27,22.27c-5.94,5.94-13.84,6-19.81,0q-9.39-9.35-18.75-18.74c-5.93-5.95-5.91-13.83.05-19.8q23.57-23.58,47.14-47.16A13.21,13.21,0,0,1,148.11,86.67ZM93,140.79c2.45,0,4.91-.17,7.34,0,3.63.3,6.85,1.37,9.5,4.28,4.33,4.75,9,9.21,13.61,13.65a9.36,9.36,0,0,1,3.08,5.64c.35,2.74.41,5.52.55,8.28a20.86,20.86,0,0,1-.18,2.44c1.69-1.47,3.12-2.54,2.8-4.73-.26-1.85-.25-3.74-.53-5.59-.21-1.39-.69-2.75-1.09-4.29,16.92-5,27.8-15.95,32.62-32.35,3.55.46,6.71.86,9.88,1.29,2.27.32,3.45-1.11,4.7-2.81-3.06,0-6,.21-8.8,0a11.68,11.68,0,0,1-7.86-3.8c-4.44-4.79-9.13-9.35-13.84-13.88a10.32,10.32,0,0,1-3.13-5.61,19.13,19.13,0,0,1-.53-3.16c-.08-2.5,0-5,0-7.48-1.83,1.27-3,2.87-2.61,5.32.48,3,.85,6,1.31,9.22-16.56,4.86-27.5,15.81-32.32,32.33-3.23-.47-6.18-.87-9.12-1.34A5,5,0,0,0,93,140.79Z"/><path d="M104.23,42.68a13.42,13.42,0,0,1-4.31,9.86q-22.51,22.47-45,45c-.91.91-1.8,1.84-2.73,2.72a13.07,13.07,0,0,1-18.29.09Q23.6,90.3,13.56,80C8.51,74.8,8.74,66.74,14,61.47c8.56-8.63,17.18-17.2,25.78-25.8L61.22,14.2c6.11-6.09,14-6.08,20,0q9.48,9.49,19,19A12.9,12.9,0,0,1,104.23,42.68ZM62.82,30.22C46.23,35.09,35.31,46.06,30.5,62.49c-3.43-.45-6.54-.82-9.64-1.27-2.37-.35-3.69,1-5.1,2.92A24.39,24.39,0,0,1,28.69,65a6.56,6.56,0,0,1,2.4,1.49Q39.39,74.71,47.57,83a5.45,5.45,0,0,1,1.21,1.85A24.33,24.33,0,0,1,50,97c0,.32,0,.65,0,1.09,2.85-2.4,3-2.41,2.76-5.61-.23-3-.83-5.88-1.3-9C68,78.58,78.9,67.62,83.69,51.23c3.65.42,7,.89,10.29,1.16a4,4,0,0,0,4.11-2.6c-2.52,0-5.15.17-7.74,0a12.79,12.79,0,0,1-8.9-4.12c-4.16-4.54-8.54-8.89-13.06-13.07a12.15,12.15,0,0,1-4.1-8.39c-.21-2.79-.05-5.61-.05-8.53C62.33,17,61.05,18.52,61.46,21,62,23.94,62.33,26.9,62.82,30.22Z"/><path d="M81.08,120.71l-1.93-1.79,3.58-5.41-1.89-2,36.87-24.74-.2-.58a5.64,5.64,0,0,0-1.52.49q-8.43,5.6-16.82,11.25L74.56,114.38l-1.72-2.07c1.1-1.66,2.26-3.43,3.45-5.24l-1.87-2q18.52-12.42,36.84-24.71l-.18-.56a5.11,5.11,0,0,0-1.5.42C104.45,83.59,99.35,87,94.23,90.46L68.13,108l-1.66-2.15,3.47-5.27L62.46,93.3l31-31,8.66,8.92,5.64-3.74,1.85,1.9-3.56,5.39,1.9,2L71.08,101.51l.2.58a6.34,6.34,0,0,0,1.61-.53q12.64-8.41,25.23-16.88l16-10.75,1.94,1.85-3.59,5.41c.59.62,1.17,1.22,1.91,2L77.49,108l.19.55a5.57,5.57,0,0,0,1.53-.45c5.17-3.43,10.32-6.9,15.48-10.36l25.87-17.32,1.81,2.05-3.45,5.19,1.91,2L83.92,114.39l.21.56a5.61,5.61,0,0,0,1.52-.46c5.8-3.86,11.57-7.74,17.36-11.62q11.92-8,23.93-16l1.8,2.09L125.36,94l1.89,2L90.32,120.84l.24.57a5.66,5.66,0,0,0,1.55-.52c5.61-3.73,11.21-7.5,16.81-11.25,7.52-5,15-10.07,22.71-15-.23.28-.47.56-.71.83a81.31,81.31,0,0,1-17,14c-8.41,5.42-16.65,11.11-25,16.69l-1.52,1-1.63-2.14,3.38-5.13-1.87-2,36.86-24.74-.21-.58a6,6,0,0,0-1.52.48q-9.1,6.06-18.16,12.15L82.51,119.79C82.06,120.09,81.61,120.37,81.08,120.71Z"/><path d="M181.81,150.46a5.61,5.61,0,0,0-1.52.46c-6,4-11.92,8-17.88,12l-23.58,15.79-1.56-2.27,3.32-5-1.28-1.44a48.32,48.32,0,0,1,4.54-4c10-6.8,20.08-13.51,30.13-20.25.53-.35,1-.73,1.55-1.09l-.17-.55a6.49,6.49,0,0,0-1.61.54q-12.17,8.1-24.29,16.26l-1.43.92c2.24-4.2,19.84-17.71,30.53-23.47l1.81,1.8-3.73,5.61,2.51,1.5c-12.8,8.58-25.08,16.81-37.35,25.05l.19.57a6.49,6.49,0,0,0,1.63-.53q13.77-9.18,27.5-18.4l13.74-9.23,1.77,2.11-3.56,5.37,2.49,1.5-37.34,25.05.2.56a5.54,5.54,0,0,0,1.51-.46q9-6,17.89-12l23.47-15.73,1.71,2.18c-.76,1.14-1.78,2.56-2.66,4.06a4.49,4.49,0,0,0-.61,2.22c0,2.08.33,4.16.36,6.25a3.43,3.43,0,0,1-.76,2.22q-10.5,10.64-21.13,21.14a2.93,2.93,0,0,1-1.95.7,45.58,45.58,0,0,1-5.6-.42,32.68,32.68,0,0,1-4-1.15l-4.86,3.18-1.69-2.14c1-1.53,2.17-3.27,3.39-5.12l-1.9-2,36.89-24.76-.23-.58a6.1,6.1,0,0,0-1.53.5Q176.52,164.14,166.4,171L146.92,184l-1.64,1.06-1.76-2,3.51-5.26-1.89-2L182,151Z"/><path d="M97,127.88l2-.66-.16-.25c-1.89,1.88-3.77,3.77-5.77,5.77l-1-1,3.55-5.41-1.88-2L118,108.06c-6.8,6.66-12.52,14.5-21.21,19.07Z"/><path d="M170.68,139.4,172.3,141l-10,6.74Z"/><path d="M141.43,109.19c.29.23.64.46.93.74q7.78,7.78,15.55,15.59a2,2,0,0,1,.52,1.61c-3.23,10.25-8.52,19.15-17.87,24.89-4.06,2.5-8.66,4.14-13,6.08a1.82,1.82,0,0,1-1.62-.39Q118,149.93,110.22,142a2.1,2.1,0,0,1-.41-1.78q7.22-23.51,30.75-30.74C140.82,109.42,141.06,109.32,141.43,109.19Z"/><path d="M81.72,49.52c-.13.37-.21.57-.27.77Q74.22,73.88,50.62,81.11a2.14,2.14,0,0,1-1.77-.45Q41,72.95,33.29,65.11a2,2,0,0,1-.52-1.59c2.95-9.47,7.79-17.68,15.92-23.69a53.51,53.51,0,0,1,15.07-7.35,1.75,1.75,0,0,1,1.48.38c5.3,5.23,10.55,10.5,15.81,15.76A7,7,0,0,1,81.72,49.52Z"/></g></svg>