<svg id="Layer_1" data-name="Layer 1" xmlns="http://www.w3.org/2000/svg" xmlns:xlink="http://www.w3.org/1999/xlink" viewBox="0 0 200 200"><defs><style>.cls-1{fill:none;}.cls-2{clip-path:url(#clip-path);}</style><clipPath id="clip-path"><rect class="cls-1" x="11" y="230" width="178" height="178"/></clipPath></defs><g id="_1Rndzx.tif" data-name="1Rndzx.tif"><path d="M4.05,59.79H78.46V22.3H195.63V139.5h-69.2c0,.44-.05.76-.05,1.08V181c0,.33.06.66.09,1H78.37c0-.33.09-.66.09-1q0-20.2,0-40.43c0-.32,0-.64,0-1.05H5.14l-1.09,0ZM83.79,134H190.24V27.71H83.79ZM9.38,134h69V65.21h-69Zm111.68,5.58H83.81v36.93h37.25Z"/><path d="M113,61.12c-1.34.28-2.41.18-3.22-1.14A42.56,42.56,0,0,0,107,56.31v4.85h-2.51V52.07c1.36-.23,2.53-.23,3.36,1.19a16.4,16.4,0,0,0,2.67,3.18V52H113Z"/><path d="M142.77,58.56v2.59h-2.48v-9c2,0,3.88-.12,5.79.05a2.48,2.48,0,0,1,2.23,2.22,3,3,0,0,1-1.17,3.21l-.57.4,2.14,3.17c-1,0-1.89,0-2.75,0-.18,0-.4-.24-.53-.42a16.58,16.58,0,0,1-1.1-1.67A1.1,1.1,0,0,0,142.77,58.56Zm.1-2.23a8.82,8.82,0,0,0,2,0,1.33,1.33,0,0,0,.84-1,1.29,1.29,0,0,0-.78-1c-1.81-.55-2.26-.16-2.14,1.69A3,3,0,0,0,142.87,56.33Z"/><path d="M126.07,46.65V37.7a35.05,35.05,0,0,1,5,0,4.09,4.09,0,0,1,3.66,4.46,4.31,4.31,0,0,1-3.92,4.4A42,42,0,0,1,126.07,46.65Zm2.64-6.75v4.53c1.26.07,2.45.07,3.13-1.12a2.24,2.24,0,0,0-.1-2.49C131,39.75,129.86,39.77,128.71,39.9Z"/><path d="M98.34,37.38a4.69,4.69,0,0,1,4.9,4.74,5,5,0,1,1-4.9-4.74ZM96,42.09a2.3,2.3,0,1,0,4.6.06,2.35,2.35,0,0,0-2.29-2.43A2.25,2.25,0,0,0,96,42.09Z"/><path d="M130.71,52H138v2.15h-4.71v1.37h4.26v2h-4.26V59h4.82v2.14h-7.37Z"/><path d="M93.57,52H96.2c0,1.52,0,3,0,4.47a6.58,6.58,0,0,0,0,1.18A1.49,1.49,0,0,0,97.74,59,1.45,1.45,0,0,0,99.4,57.8a14.28,14.28,0,0,0,.1-2.17c0-1.18,0-2.35,0-3.59H102a61.39,61.39,0,0,1-.05,6.37c-.2,1.94-1.89,3-4.16,3-2.61,0-4-1.25-4.23-3.84-.12-1.63,0-3.27,0-4.91C93.53,52.46,93.55,52.29,93.57,52Z"/><path d="M114.33,46.76l1.18-2.8c.81-1.93,1.64-3.84,2.42-5.78.21-.52.48-.79,1.07-.71a3.75,3.75,0,0,0,.82,0c.66-.09,1,.15,1.27.81,1,2.52,2.11,5,3.17,7.52.11.27.2.55.35,1a17.58,17.58,0,0,1-2.43,0c-.25,0-.53-.52-.64-.85a.94.94,0,0,0-1.14-.75,5.82,5.82,0,0,1-1.18,0c-1-.1-1.8,0-2,1.2,0,.18-.42.4-.66.42C115.87,46.8,115.2,46.76,114.33,46.76Zm5.13-6.18-.93,2.47h1.89Z"/><path d="M149.56,59.82l1.33-1.58c.94.33,1.78.65,2.64.9a1.5,1.5,0,0,0,.89,0c.22-.07.53-.3.55-.49s-.23-.49-.44-.59a10.53,10.53,0,0,0-1.38-.43c-.49-.14-1-.27-1.47-.45A2.35,2.35,0,0,1,150,54.89a2.71,2.71,0,0,1,1.44-2.56,5.58,5.58,0,0,1,5.89.81l-1.16,1.66a15.91,15.91,0,0,0-2.34-.76c-.34-.06-.75.29-1.14.46.28.25.51.62.83.75.76.3,1.58.43,2.34.72a2.31,2.31,0,0,1,1.74,2.28A2.63,2.63,0,0,1,155.89,61,6.36,6.36,0,0,1,149.56,59.82Z"/><path d="M113.48,39.33l-1.84,1.42c-1.52-1.21-2.66-1.32-3.55-.38a2.73,2.73,0,0,0,0,3.5c.91,1,2.06.9,3.64-.39l1.81,1.28a4.55,4.55,0,0,1-5.09,2.06,4.64,4.64,0,0,1-3.62-4.16,4.82,4.82,0,0,1,8.7-3.33Z"/><path d="M119.59,52a22.76,22.76,0,0,1,2.34,0c.23,0,.52.36.62.62.61,1.61,1.18,3.24,1.83,5.06.62-1.7,1.21-3.21,1.7-4.75.24-.75.59-1.09,1.41-1a14.09,14.09,0,0,0,1.73,0c-.1.33-.16.58-.26.82-1,2.59-2.09,5.17-3.1,7.76a.9.9,0,0,1-1.07.69c-.39,0-.8,0-1.18,0a.92.92,0,0,1-.6-.39c-1.16-2.83-2.3-5.67-3.44-8.51C119.54,52.26,119.58,52.16,119.59,52Z"/><path d="M172.81,52c1,0,1.77,0,2.55,0a1,1,0,0,1,.66.46c.54.87,1,1.77,1.61,2.79.53-.92,1-1.73,1.47-2.58a1.09,1.09,0,0,1,1.2-.71c.63.06,1.27,0,2,0-.13.28-.2.49-.32.69-.27.47-.56.93-.85,1.39-1.34,2.15-3,4.2-2.06,7.08h-2.74c0-.83.05-1.66,0-2.49a3.75,3.75,0,0,0-.42-1.52C175,55.45,173.92,53.82,172.81,52Z"/><path d="M166.42,54.28h-2.7V52.06h7.94v2.19H169v6.91h-2.62Z"/><path d="M115.51,61.14V52H118v9.12Z"/><path d="M162.12,61.17h-2.45V52.05h2.45Z"/><path d="M29.24,94.42A9.93,9.93,0,0,1,19,84.4c0-5.59,4.58-9.89,10.43-9.86a9.94,9.94,0,1,1-.18,19.88Zm-4.79-10a5,5,0,0,0,4.8,5.24,4.9,4.9,0,0,0,4.89-5,5,5,0,0,0-4.92-5.21A4.78,4.78,0,0,0,24.45,84.38Z"/><path d="M50.51,123.9V104.77c2.61,0,5.18,0,7.75,0a14.55,14.55,0,0,1,2.79.32c4.79,1,7.59,4.4,7.58,9.16A9.09,9.09,0,0,1,61,123.53a16.7,16.7,0,0,1-3.15.35C55.43,123.93,53,123.9,50.51,123.9Zm5.31-4.65a34.27,34.27,0,0,0,3.78-.3,4.74,4.74,0,0,0,.34-9.12,27.64,27.64,0,0,0-4.12-.43Z"/><path d="M39.86,123.93c-1.75,0-3.5,0-5.25,0-.19,0-.44-.27-.54-.47a11.23,11.23,0,0,1-.7-1.68,1.07,1.07,0,0,0-1.24-.87c-2,.05-4,0-5.92,0-.56,0-.89.13-1.07.71-.26.77-.42,1.82-1,2.18s-1.64.14-2.48.16H18.61c.47-1.14.9-2.19,1.34-3.23,2.13-5,4.28-10.09,6.39-15.15a1.11,1.11,0,0,1,1.27-.82c1.22,0,2.43,0,3.65,0a1.05,1.05,0,0,1,.8.48q3.93,9.19,7.8,18.41A1.13,1.13,0,0,1,39.86,123.93Zm-8.39-7.2-2.23-5.62L27,116.73Z"/><path d="M67.68,78.57l-4,3.09a5.07,5.07,0,0,0-4.52-2.23,4.26,4.26,0,0,0-2.8,1.35,5.68,5.68,0,0,0,0,7.41c2,2.06,4.3,1.79,7.49-.9l.43.28L67.79,90c-2,3.46-6.68,5.18-11,4.08a9.67,9.67,0,0,1-7.33-9.29,9.8,9.8,0,0,1,6.72-9.77A10,10,0,0,1,67.68,78.57Z"/><path d="M94.11,149.36h5v2.85c0,2.45,0,4.91,0,7.37s1.53,3.81,3.9,3.49a2.8,2.8,0,0,0,2.47-2.22,9,9,0,0,0,.17-1.8c0-3.21,0-6.42,0-9.69h5.13v.92c0,3.07,0,6.13,0,9.19-.08,5.44-3.12,8.33-8.55,8.2a13.64,13.64,0,0,1-1.81-.12c-3.72-.57-6-2.58-6.28-6.34C93.88,157.3,94.11,153.35,94.11,149.36Z"/></g><g class="cls-2"><g id="vurX8n"><path d="M64,174h7.53v45.6c-5.06,1-5.91.72-6.9-1.89-2.41,1-4.75,2.5-7.23,2.75-7.42.78-12.65-3.58-13.53-11.69A32.83,32.83,0,0,1,45,196.25c2.5-8.49,10.29-11.06,17.88-6.48a7.92,7.92,0,0,0,1.17.4Zm0,30.1c0-1.58-.09-3.17,0-4.74.21-2.9-1.4-4.4-3.88-5.21-2.71-.88-5.36-.47-6.82,2a15.79,15.79,0,0,0-.65,15.32c1.18,2.51,4.27,3.52,7.19,2.66,2.75-.82,4.44-2.45,4.16-5.61C63.92,207.11,64,205.62,64,204.13Z"/><path d="M222.33,200a80.74,80.74,0,0,1-1.14,10.34,12.55,12.55,0,0,1-12.71,10.33c-7.26.07-12.39-3.25-13.88-10a55,55,0,0,1,0-24.42c1.68-7.23,7.54-10.64,15.4-9.88,6.28.61,11.25,6.15,11.8,13.29C222.08,192.56,222.13,195.54,222.33,200Zm-7.6-1.45c-.27-3.66-.28-7.33-.89-10.91s-2.83-5.17-6.18-5.11c-3,.05-5.68,1.86-5.84,5.17-.35,7.17-.35,14.38,0,21.56.16,3.31,2.77,5.14,5.81,5.22,3.41.08,5.6-1.42,6.21-5S214.46,202.14,214.73,198.5Z"/><path d="M-21.65,174.08h7.18v16.35c3-1,5.85-2.49,8.78-2.72,5.9-.45,10.2,2.93,10.61,8.82.54,7.67.13,15.4.13,23.3H-2.24c0-2.21,0-4.35,0-6.49,0-4.36.09-8.72,0-13.08-.15-5.66-4.89-8.33-9.64-5.29a5.77,5.77,0,0,0-2.33,4c-.25,5.84-.1,11.69-.11,17.54,0,1.07-.1,2.13-.16,3.35h-7.15Z"/><path d="M169.06,213.85h14.07c5.43,0,5.52.12,4.5,6H159.5a6.81,6.81,0,0,1,1.78-7.31c4.5-4.61,8.91-9.32,13-14.3a23.51,23.51,0,0,0,4.52-8.44,5.64,5.64,0,0,0-4.39-7.24c-4.09-.71-6.95,1.11-8,5.12-.2.76-.42,1.52-.67,2.43H159c-1.33-6.29,4.17-13,11.31-13.7a21.51,21.51,0,0,1,6.51.16c8.72,1.78,12.81,10.85,8,18.68-2.82,4.59-6.75,8.51-10.25,12.67C173,209.75,171.29,211.46,169.06,213.85Z"/><path d="M37.9,219.8c-5.73,1-6.44.71-7.79-3.53-3.5,4.12-7.84,5.26-12.87,3.87a8.21,8.21,0,0,1-6.32-7.41c-.54-4.1.68-7.62,4.56-9.45a26.09,26.09,0,0,1,7.37-1.92,46.62,46.62,0,0,1,6.68-.07c1-3.86.36-6.12-2-7.19a6.08,6.08,0,0,0-7.63,2.39c-.77,1.18-6.09,1.9-7.06.84a2.45,2.45,0,0,1-.3-1.87A8,8,0,0,1,18.46,189a28.24,28.24,0,0,1,11-.82c5.64.91,8.34,4.84,8.43,10.56,0,3.27,0,6.54,0,9.81C37.9,212.25,37.9,216,37.9,219.8Zm-15.31-4.51c2.54-1.32,4.74-2.14,6.54-3.49,1.58-1.18,1.35-5.34,0-5.36a24.89,24.89,0,0,0-8.33.92c-1.12.39-2.17,3.06-2,4.52C19,213.06,21.05,214,22.59,215.29Z"/><path d="M129.91,219.79c0-6.69.09-13.21,0-19.73-.09-5.27-3.95-7.68-8.72-5.62a4.64,4.64,0,0,0-3.23,4.76c.11,5.65,0,11.3,0,17,0,1.18-.11,2.35-.18,3.69h-7.21V188.58c5.44-1.08,6.38-.74,7.51,2.82,2.63-2.52,5.56-4,9.3-3.85,5.46.25,9.55,3.54,9.82,9.17.35,7.59.08,15.22.08,23.07Z"/><path d="M95,188.32h7v31.51H95Z"/><path d="M102.56,180.55h-8c.32-2.29-.08-5.13,1.1-6.16s4.54-1,5.81,0S102.23,178.18,102.56,180.55Z"/></g></g></svg>