<svg id="Layer_1" data-name="Layer 1" xmlns="http://www.w3.org/2000/svg" viewBox="0 0 200 200"><g id="eBurnk.tif"><path d="M7.92,102.56C7.92,96,7.43,89.44,8,83c2-22.82,10-43.46,29-57.1,11.76-8.44,25.49-14.58,41-15,9.71-.27,19.23-3.91,29.12-2.45,15.46,2.29,31.24,3.21,45.56,10.44a71.32,71.32,0,0,1,36.9,46.55c1.64,6.68,3.23,13.63,4.39,20.24,1.85,10.58,1.56,21.84.23,32.58-1.84,14.91-5.35,29.76-13,42.93C173.38,174.53,156,186.51,139,191.44c-5.6,1.62-11.18,3.32-17.29,2.79-5.84-.49-11.09,2.9-17.3,2.77-14.85-.32-29.78-1.78-43.64-6-17.62-5.35-33.47-15.24-42.3-32.67-7-13.77-11.6-28.25-10.62-44C8.12,110.42,7.92,106.48,7.92,102.56ZM66.86,55.47c-6.87,0-12.21-.59-17.36.13-9.44,1.34-12,6.11-9,15.27.12.37.78.58.88.94,4.52,16,12.26,29.29,28.41,36.36,1.82.8,3.82,4.16,3.6,6.1-1.05,9.56,2.69,18,5.58,26.58a35,35,0,0,0,5.86,10.61c3.26,4.06,7.24,7.57,11,11.16,4.16,3.94,6.56,3.94,10.78-.16,12.48-12.11,20.76-26.19,19.38-44.25-.37-4.81,1.2-7,5.43-9.49a62.37,62.37,0,0,0,26.37-29.29c1.89-4.31,2-8.75,3.29-13,1.5-4.81.77-7.72-3.27-8.1-5-.48-9.15-4-14.69-3-5.08.92-10.48.43-15.71.13-6.51-.37-12.19,2-17.76,4.72-3.14,1.55-6.08,4.76-9.15,4.82-3.27.06-6.94-2.24-9.82-4.35C82.92,54.88,74.09,55.38,66.86,55.47Z"/><path d="M65.7,65.94c12.56.14,23.08,5.08,32.8,12.77,3.89,3.08,2.77,7.79,5.52,10.86.75.84,2.89,1.61,3.56,1.17,4.78-3.18,7.83-8.89,4.88-13.07-5.7-8.08,1-4.83,4.27-6.82,7.34-4.47,14.93-5.18,23-4.88,6.64.26,9.33,4.34,6.39,10.09-5.93,11.59-14.16,20.51-27.2,24.94-5.22,1.77-10.09.85-15.07,1.56-5-5.63-4.31-.22-3.83,2.26,1.16,6.05,5.41,9.73,11.29,10.64,3.16.49,5,.94,4.34,4.42-2,10.6-5.1,20.7-13.19,28.54-2,1.93-4.14,1.82-5.34-.36-4.49-8.15-11-15.55-10.38-25.77.19-3.48,0-7,0-10.46,0-6.18-.16-12.34,7.1-15.28.4-.16.24-3.81-.44-4.12-3.89-1.79-7.85-4.09-12.17-.4-2.47,2.1-5.74,5.22-8.2,4.86-2.82-.42-5.07-4.27-7.7-6.46C60,86,56.66,80.4,54.14,74.11c-1.62-4-.26-7.67,3.7-8.12A71,71,0,0,1,65.7,65.94Z"/></g></svg>