<svg id="Layer_1" data-name="Layer 1" xmlns="http://www.w3.org/2000/svg" viewBox="0 0 200 200"><g id="Iqaqv2"><path d="M181.66,184.07c-6.07-.15-11.77-1.92-17.48-3.54-5.09-1.44-10-3.4-15.14-4.83a110.34,110.34,0,0,0-11.28-2.26c-1.77-.29-2.1.14-1.47,1.76a29.57,29.57,0,0,0,2.87,5.87c1,1.39.81,2.3-.19,3.35a34.7,34.7,0,0,1-10.74,7.68,57.54,57.54,0,0,1-24.78,5.64,55.12,55.12,0,0,1-24.08-6.29,40.93,40.93,0,0,1-10.23-7.25c-1-1-1.07-1.8-.24-3.09a49.54,49.54,0,0,0,3.48-6.66c.63-1.39-.18-2.4-1.74-2.38a64.21,64.21,0,0,0-18.21,3c-5.56,1.74-10.93,4.11-16.47,6a68.84,68.84,0,0,1-11.25,2.9c-1.78.28-3.79-.69-5.65-1.26a1.84,1.84,0,0,1-.85-1.42c-.12-4-1.88-7.28-3.8-10.58-1.75-3-.95-6.5,2.18-7.93,3.33-1.52,4.41-4.51,4.94-7.44a34.13,34.13,0,0,0,0-14,4.07,4.07,0,0,1,1.07-4.14,9.09,9.09,0,0,0,2.3-7.88c-.06-.46-.52-.87-.79-1.3a6.38,6.38,0,0,0-1.17.93c-.54.72-.94,1.56-1.48,2.29s-1.25.84-1.46-.27c-.74-3.84-.95-7.61,1.18-11.18a4.78,4.78,0,0,0,.63-2.56,21.88,21.88,0,0,1,4.86-15c1.34-1.73,2.8-3.38,4.07-5.16a11.46,11.46,0,0,0,1.42-3.07,3.68,3.68,0,0,0-.53-2.75,21.36,21.36,0,0,1-1.94-6c-.7-5.15.73-10,2.95-14.56.14-.28.43-.67.33-.86-.65-1.38.22-2.35.81-3.41,1.16-2.07,2.3-4.15,3.44-6.24.58-1,.63-1.73-.89-1.95A39.84,39.84,0,0,1,31.58,57c-.36-.1-.93-.4-.94-.63a1.51,1.51,0,0,1,.58-1.11c1.94-1.35,3.93-2.63,5.9-3.94.29-.19.57-.4.85-.6-.34-.34-.63-.87-1-1-1.56-.37-3.14-.62-4.72-.88a49.4,49.4,0,0,1-12.49-3.5c-4.69-2.14-8.34-5.55-11.63-9.4a20.47,20.47,0,0,1-4.84-9.4,11.18,11.18,0,0,1-.19-2.71,4,4,0,0,1,.61-1.39,7.57,7.57,0,0,1,.68,1.25c.28.81.46,1.67.72,2.5a3.59,3.59,0,0,0,.52,1.1,5,5,0,0,0,.9.73,6,6,0,0,0-.07-1.12c-.3-1.19-.7-2.35-.92-3.55-.07-.38.29-.85.45-1.28a4.23,4.23,0,0,1,.9,1.06c.47,1.24.76,2.55,1.28,3.76.19.46.81.74,1.24,1.11a5.29,5.29,0,0,0,.32-1.57c-.17-1.95-.46-3.9-.65-5.85,0-.3.23-.63.36-.94a3.5,3.5,0,0,1,.69.75c.68,1.39,1.28,2.82,2,4.19.2.36.76.52,1.15.77A5.41,5.41,0,0,0,13.63,24c0-2.54-.11-5.09-.08-7.63,0-.49.47-1,.71-1.46a6.31,6.31,0,0,1,.62,1.39c.4,2,.71,4.05,1.09,6.07a4.52,4.52,0,0,0,.57,1.68c.26.39.8.58,1.22.86a4.16,4.16,0,0,0,.48-1.4c-.14-2.76-.42-5.53-.51-8.3,0-.59.57-1.2.88-1.8.21.62.47,1.23.62,1.86C20,18.67,20.73,22,21.5,25.41a2.58,2.58,0,0,0,.49,1c.6.76,1.22.93,1.52-.21a10.09,10.09,0,0,0,.37-2.56c0-2.55-.11-5.11-.15-7.67A3.66,3.66,0,0,1,24,15c.29.23.79.42.86.7a56.1,56.1,0,0,1,1.23,6.25c.25,2.31,0,4.68.33,7a21.31,21.31,0,0,0,1.51,4.77c.13.35.89.79,1.13.68a1.62,1.62,0,0,0,.83-1.19c0-1.41-.2-2.83-.2-4.24a4,4,0,0,1,.59-1.39c.41.34,1,.61,1.18,1,.58,1.73,1,3.51,1.49,5.27a14.29,14.29,0,0,0,.51,1.84c.11.27.51.41.78.6.11-.27.34-.56.32-.82-.18-2.09-.27-4.21-.65-6.26-.52-2.83-1.3-5.61-1.89-8.43a4.93,4.93,0,0,1,.3-1.73c.45.38,1.16.68,1.31,1.15.7,2.17,1.23,4.4,1.84,6.6.31,1.14.61,2.29,1,3.42.1.31.41.54.62.81.21-.31.58-.6.62-.93.2-1.86.29-3.73.49-5.59a7.57,7.57,0,0,1,.48-1.56c.33.5.87,1,.94,1.49.34,2.44.5,4.9.82,7.35a6.26,6.26,0,0,0,.74,1.69c.37-.55,1-1.09,1.05-1.66.08-1.64-.14-3.28-.17-4.92a6.4,6.4,0,0,1,.38-1.49c.35.37.88.67,1,1.11a13.45,13.45,0,0,1,.46,8c-.73,2.82-1.72,5.58-2.58,8.37A4,4,0,0,0,41,44.53c.13.73.45,1.88.92,2,1,.25,2.57.36,3-.19a21.58,21.58,0,0,0,3.17-5.51c.76-2-.17-3.83-1-5.76-1.39-3.44-2.34-7.06-3.46-10.62a1.25,1.25,0,0,1,0-.81,17.45,17.45,0,0,1,.86-1.52c.26.48.54,1,.76,1.47.1.24,0,.56.1.81a6.74,6.74,0,0,0,.5.85l.32-.93.48-1.3c.37.35.87.63,1.06,1.06.29.65.31,1.43.57,2.11a6.57,6.57,0,0,0,.81,1.26A4.38,4.38,0,0,0,50,26.19a29.15,29.15,0,0,0,.52-3.37,17.39,17.39,0,0,1,.09-1.92,7,7,0,0,1,.7-1.46,5.07,5.07,0,0,1,.82,1.43c.38,2.11.63,4.24,1,6.34.06.37.49.67.74,1a3.88,3.88,0,0,0,.53-1c.14-.67.1-1.37.24-2a12.89,12.89,0,0,1,.59-1.64A11.6,11.6,0,0,1,56,24.92c.22.54.3,1.15.5,1.71a3.11,3.11,0,0,0,.49.73c.1-.32.33-.65.29-.95-.18-1.22-.5-2.42-.64-3.64A4.74,4.74,0,0,1,57,21.3c.43.28,1.11.47,1.25.86.47,1.27.73,2.62,1.12,3.92A3.87,3.87,0,0,0,60,27c.12-.33.37-.66.35-1-.07-1.23-.28-2.45-.35-3.67a5.93,5.93,0,0,1,.3-1.46c.45.3,1.17.52,1.31.92.47,1.38.71,2.83,1.08,4.24a5.07,5.07,0,0,0,.48,1c.21-.3.57-.59.61-.92.2-1.53.27-3.08.48-4.61a7.35,7.35,0,0,1,.68-1.66c.3.54.82,1.06.87,1.62.14,1.55.06,3.11.13,4.66a4.74,4.74,0,0,0,.41,1.22c.34-.31.87-.56,1-1,.52-1.65.86-3.36,1.37-5a9.15,9.15,0,0,1,1-1.79c.26.67.79,1.37.74,2-.49,6.09-1.52,12.06-6,16.68a39.06,39.06,0,0,1-6,4.62,32,32,0,0,1-4.71,2.72c-1.15.53-.91,1.12-.19,1.52,2.42,1.31,4.6,3,7.49,3.48,4.3.65,6,2.82,5.85,7.15a2.61,2.61,0,0,1-1.35,1.73A15.11,15.11,0,0,1,62,60.87a8.25,8.25,0,0,1-2.92.24c-1.53-.2-1.94.26-1.77,1.76a65.5,65.5,0,0,1,.39,7.28c0,.89.25,1.23,1,1.14,2.3-.28,4.6-.58,6.89-1,1.75-.3,3.47-.76,5.21-1.12a1.75,1.75,0,0,1,1.08,0c3.27,1.61,6.47,0,9.69-.18,2.36-.12,4.72-.44,7.08-.73a3.82,3.82,0,0,0,2-.62,6.15,6.15,0,0,0,1.06-2,9.4,9.4,0,0,0-1.86-.36c-2.17,0-4.33.25-6.5.25a3,3,0,0,1-2-.77,4.29,4.29,0,0,1-1.36-2.4,2.46,2.46,0,0,1,2.07-2.41,3.21,3.21,0,0,1,1.22-.16c2.89.36,5.16-1,7.4-2.53a19.79,19.79,0,0,1,2.5-1.41A2.25,2.25,0,0,0,94.59,53a17.45,17.45,0,0,0-1.68-3.68,2.27,2.27,0,0,0-1.53-.84c-1.26-.16-2.56-.08-3.83-.2s-1.79.52-1.83,1.75a13.24,13.24,0,0,1-.3,2.44,2.27,2.27,0,0,1-2.89,2,2.37,2.37,0,0,1-2.36-2.53c0-2.09,0-4.19.07-6.28a3.7,3.7,0,0,1,3-3.68,3.51,3.51,0,0,0,1-.32c.56-.37,1.06-.82,1.58-1.24a12.54,12.54,0,0,1-1.68-.95c-.59-.48-1.36-1-1.55-1.64A4.31,4.31,0,0,0,79,34.44C76.82,34,74.5,33.76,72.73,32a2.8,2.8,0,0,1,.79-4.74c2.82-1.42,5.6-2.95,8.26-4.64,2.12-1.34,5.9-.59,7,1.63.11.25.36.59.59.62A68,68,0,0,0,97.8,26c4.09.06,8.19-.32,12.28-.5a14,14,0,0,1,10.27,3.27c3,2.67,5.83,5.6,7,9.62A4.8,4.8,0,0,1,127.3,41c-.94,3-1.41,6-.39,8.93a11.38,11.38,0,0,1,.2,6.85c-.38,1.46-.29,2.62,1.18,3.48a2.49,2.49,0,0,1,1.2,3,2.34,2.34,0,0,1-2.65,1.74,10.29,10.29,0,0,0-5.9.78,3.31,3.31,0,0,1-1.9,0c-.93-.21-1.61.19-1.58,1a2.07,2.07,0,0,0,1.24,1.52c2,.43,4.06.61,6.1.88.59.07,1.18.15,1.77.2,2.29.21,4.46.29,6.4-1.5a5.29,5.29,0,0,1,6.58-.86c1.48.82,2.55.45,3.82-.83,2.78-2.81,5.7-5.54,9.58-6.88a5.71,5.71,0,0,0,1.68-.91,1.55,1.55,0,0,0-.39-2.81,3.91,3.91,0,0,0-4.23.35c-2.15,1.53-3.31.9-3.78-1.71a2,2,0,0,0-1.1-1.16A2.85,2.85,0,0,1,143,50.4a3.32,3.32,0,0,1,2-3.33c1.27-.55,2.7-.73,4-1.2a26.93,26.93,0,0,0,4-1.73,1.64,1.64,0,0,0,.5-1.45c-.49-1.78.43-3,2.28-2.63a16.49,16.49,0,0,1,1.87.78A5.64,5.64,0,0,0,159,41a4,4,0,0,0,0-1.34c-1.16-3.23-1.61-6.5-.34-9.77a9.35,9.35,0,0,1,1.76-2.22c.05.81.09,1.62.15,2.43.14,2,.2,4.09.49,6.1.08.52.89.93,1.37,1.39A14.91,14.91,0,0,0,163,36c.58-2.38,1-4.79,1.75-7.12a4.79,4.79,0,0,1,1.81-2.15c1.14-.82,1.26-1.18.08-2A49.41,49.41,0,0,1,162,21.33a34.56,34.56,0,0,1-5.37-6c-1-1.46-1.12-3.49-1.5-5.29-.09-.43.41-1,.64-1.47a7.58,7.58,0,0,1,.92,1.21c1,1.94,1.79,4,2.91,5.85.46.76,1.53,1.16,2.32,1.73A13.68,13.68,0,0,0,163,15c.65-2.37,1.11-4.79,1.81-7.14.2-.67,1-1.16,1.51-1.73a8.42,8.42,0,0,1,.3,2.35c-.35,2.12-.94,4.19-1.29,6.31a6.84,6.84,0,0,0,2.4,6.76,1.81,1.81,0,0,0,2.59,0,3.63,3.63,0,0,0,.91-5.14,15.72,15.72,0,0,1-2-12,4.23,4.23,0,0,1,.7-1.18,5.32,5.32,0,0,1,.45,1.44,20.53,20.53,0,0,0,2.34,10.14A10.79,10.79,0,0,0,173.86,17a6.77,6.77,0,0,0,2,1.34c.55.28,1.33.21,1.76.58,1.18,1,1.3.28,1.41-.69.26-2.26.17-4.65,1.73-6.52a47.75,47.75,0,0,1,3.74-3.79c.22-.21.73-.13,1.1-.19a3,3,0,0,1-.36,1.08c-.94,1.11-2,2.12-2.91,3.27-3,3.81-1.2,9.67,1.83,12.62a4,4,0,0,0,5-.09,43.2,43.2,0,0,0,3.88-4.51,8.76,8.76,0,0,1,1.25-1c0,.5.15,1.13-.09,1.5a28.46,28.46,0,0,1-3.69,5.19c-2.13,2.07-3.7,4.25-3.84,7.3-.1,2.25,1.07,3.18,3.06,2.13a37.13,37.13,0,0,0,4-3,4.7,4.7,0,0,1,1.16-.42c0,.43.13,1-.09,1.26-2,2.22-3.72,4.94-7.23,5.16-1.51.1-4.25,3.58-3.89,5.07a2.38,2.38,0,0,0,1.58,1.54,44.14,44.14,0,0,0,5.14-.1c.5,0,1,0,1.5.09-.19.52-.23,1.23-.61,1.54-2.08,1.78-4.57,1.85-7.13,1.48-.4,0-.79-.28-1.19-.29-.66,0-1.33.06-2,.09a15.42,15.42,0,0,0,.79,1.51,1.16,1.16,0,0,1-.64,2,65.07,65.07,0,0,1-6.91,2c-1.32.28-2.21.57-2.36,2.09-.43,4.41-2.78,8-5.27,11.44a9.14,9.14,0,0,0-2,6,7,7,0,0,1-.51,2.78A7.73,7.73,0,0,0,165,82.5c2.69,4.51,4.26,9.49,6,14.39a3.62,3.62,0,0,0,.94,1.63c5.33,4.18,8.16,10,10.57,16.07a5.83,5.83,0,0,0,1.15,1.83c3.16,3.3,6.38,6.53,9.5,9.86a9.13,9.13,0,0,1,1.64,2.8c.52,1.26.08,1.79-1.25,1.43a23.26,23.26,0,0,1-4.74-1.76c-3.76-2-3.83-2-3.76,2.2,0,1.5.18,3,.31,4.51a4.35,4.35,0,0,0,2.52,3.7c2.79,1.25,2.69,3.62,2.52,5.9a37,37,0,0,0,1.91,13.62,4.47,4.47,0,0,0,1.48,2.08,5.42,5.42,0,0,1,2.09,5.84c-.9,4.15-1.94,8.26-3,12.37a5.14,5.14,0,0,1-4.27,4.14C186.27,183.5,184,183.76,181.66,184.07ZM70.34,156.84a48.14,48.14,0,0,1,13.39,2c2.45.76,3.27,2.14,3.08,4.7a22.49,22.49,0,0,0,.12,4.92c.37,2.75,1.06,5.46,1.4,8.22a2.3,2.3,0,0,0,1.58,2.22,43.17,43.17,0,0,0,13.55,3.2A38.89,38.89,0,0,0,121.11,179c.84-.36,1.43-1,.88-1.93-1.81-3.19-.66-5.94.82-8.91,1.32-2.65,1.89-5.67,3-8.46.33-.87,1.11-2.07,1.85-2.19a17.74,17.74,0,0,1,6.2-.21c2.44.46,4.6,1.21,7-.38,1.14-.74,2.54-.83,2.63-2.6,0-.42.49-.86.83-1.22,2.92-3.19,5.9-6.33,8.77-9.57,1.55-1.75,3-3.64,2.48-6.24-.38-1.79-.87-3.55-1.35-5.31-.77-2.77-1.33-5.56-.14-8.32,1.08-2.5,2.32-4.94,3.57-7.37a2,2,0,0,0-.39-2.59c-2.45-2.52-4.88-5.06-7.32-7.6-.22-.23-.48-.42-.72-.63a21.44,21.44,0,0,1-2.93-2.68c-1-1.3-1.6-2.85-2.46-4.25-.38-.61-1.1-1.38-1.66-.39a9.27,9.27,0,0,0-1.32,3.83,49.74,49.74,0,0,0,.15,7.91c.33,3.34,1,6.65,1.42,10,.32,2.41-.71,5.08-2.39,5.54-1.36.38-1.64,1.23-2,2.31a51.71,51.71,0,0,1-9.72,18.72,46.58,46.58,0,0,1-13.43,11.36,70.36,70.36,0,0,1-8.69,4,5.83,5.83,0,0,1-3.55-.07,39.45,39.45,0,0,1-5.43-2.27,46.08,46.08,0,0,1-12.63-9,44.66,44.66,0,0,1-9.37-12.74c-1.1-2.35-2.47-4.57-3.46-7a60.06,60.06,0,0,1-1.71-5.87,1.73,1.73,0,0,0-.47-.73c-2.2-2.22-2.62-4.88-2.07-7.84s2.13-6,1.55-9.26c-.32-1.85-.21-3.78-.43-5.66a5.57,5.57,0,0,0-.85-2.3,9,9,0,0,0-1.87-2A5.64,5.64,0,0,0,64,95.91a7.69,7.69,0,0,0-5.15.51,3.8,3.8,0,0,0-2.61,2.27A15.46,15.46,0,0,1,54,103.1c-1.4,1.63-1,3.22-.46,4.79,1.91,5.07,4,10.07,6,15.12a3.66,3.66,0,0,1-1.32,4.51c-1.1.88-2.16,1.83-3.19,2.8-2.36,2.21-4,6.86-1.87,10.14q3.64,5.7,7.31,11.39a7.27,7.27,0,0,0,.68.68c1.11,1.26,2.16,2.56,3.32,3.77a2.48,2.48,0,0,0,1.53.79C67.43,157.11,68.89,156.94,70.34,156.84ZM44.48,127.57c-.44-2-.77-3.82-1.23-5.57-.1-.37-.66-.62-1-.93-.25.33-.65.62-.73,1a22.29,22.29,0,0,1-5.09,10.3,120.18,120.18,0,0,0-7.78,9.53c-3.91,5.41-3.8,11.54-2.48,17.73a2.46,2.46,0,0,0,1.7,1.35c1.73.34,3.53.4,5.29.61,2.23.26,2.42.13,2.55-2.14,0-.95.34-1.68,1.39-1.66a42.34,42.34,0,0,1,5.17.33c1.68.25,2.44,1.45,2.49,3.13,0,1.41.77,1.95,2.18,1.54,3.29-.94,6.57-1.94,9.86-2.89.83-.24.87-.45.33-1.17-.7-.91-1.6-2-1.59-3a11.8,11.8,0,0,0-.88-4.15c-1.11-3.21-2.19-6.42-4.55-9-1.91-2.08-3.92-4.08-5.89-6.11-1.78-1.84-1.89-2.86-.89-5.18A35.21,35.21,0,0,0,44.48,127.57Zm127.9,29c1.44.2,3.07.37,4.67.69a1.65,1.65,0,0,1,1,1.06c.12.49-.2,1.07-.19,1.61,0,.23.35.68.51.67,2.45-.24,4.9-.48,7.33-.84a1.65,1.65,0,0,0,1.55-1.89c-.1-2.18.22-4.3-.45-6.54a13.24,13.24,0,0,0-7.07-8.7c-4.26-2-7.17-5.36-10.08-8.82a8.23,8.23,0,0,0-1.64-1.17c-.26.68-.56,1.35-.76,2a2.28,2.28,0,0,0,.12,1,2.66,2.66,0,0,1-1.48,3.17,64.65,64.65,0,0,0-6.82,4.29c-5.56,4.21-10.44,8.95-11.39,16.41-.11.81-.12,1.29.77,1.53q7,1.92,14,3.88c1.1.3,1.86.39,1.5-1.19a9.85,9.85,0,0,1,0-2,4.12,4.12,0,0,1,3.75-4.59C169.17,156.83,170.68,156.75,172.38,156.56Zm-72.2-83.47h0c0-1-.06-1.93,0-2.88.1-1.28-.45-1.72-1.69-1.64-3.28.21-6.58.22-9.85.57-5.76.62-11.5,1.42-17.24,2.21a1.54,1.54,0,0,0-1.07,1c-.19,2.22-.3,4.46-.3,6.7,0,.3.73.9,1.09.88,9.24-.73,18.48-1.54,27.71-2.3.91-.07,1.34-.45,1.32-1.36S100.18,74.14,100.18,73.09Zm39.21,3.2h0c0-.91,0-1.83,0-2.74A1.49,1.49,0,0,0,138,71.78c-3.51-.6-7-1.43-10.52-1.81-5.54-.59-11.1-.88-16.65-1.32-.87-.07-1.36.25-1.36,1.09,0,1.73.06,3.46.07,5.19,0,2.56-.18,2.79,2.42,2.74a15.67,15.67,0,0,1,1.91.2L135.52,80c4.34.42,3.87,1.12,3.87-3.28ZM88.59,96.78c2.53,0,6.19,0,9.84,0,1.22,0,1.8-.37,1.73-1.74-.1-2.19,0-4.39,0-6.58,0-1.14-.42-1.57-1.53-1.49-2.78.19-5.56.28-8.33.55q-9.33.89-18.65,1.93c-.56.06-1.07.63-1.6,1,.37.56.61,1.29,1.13,1.65A8.6,8.6,0,0,1,74.7,96.8a1.6,1.6,0,0,0,1.3.84C79.82,97.44,83.64,97.13,88.59,96.78Zm25.28-9.92-.05.46a18.15,18.15,0,0,0-2.86.05c-.42.07-1.06.64-1.07,1-.09,2.46-.08,4.93,0,7.39a1.5,1.5,0,0,0,1.07,1q11.86.77,23.76,1.37a1.64,1.64,0,0,0,1.34-.57c.92-2.08,1.71-4.23,2.54-6.35.36-1-.08-1.36-1-1.47Zm59.83-44c4,0,8.06-2.73,8.91-6.06a24.9,24.9,0,0,0,.66-3.06,7.55,7.55,0,0,0-1.8-6.11c-.48-.55-1-.89-1.63,0-1.22,1.68-2.69,3.2-3.84,4.92-.43.64-.26,1.68-.37,2.54.69-.19,1.58-.18,2-.62a27.91,27.91,0,0,0,2.19-2.93,7.45,7.45,0,0,1,1.16-1,4.7,4.7,0,0,1,.67,1.47,4.66,4.66,0,0,1-2.86,5c-2.61,1.17-5.19,2.4-7.76,3.65-.39.19-.66.64-1,1a4.06,4.06,0,0,0,1.2.91A17.77,17.77,0,0,0,173.7,42.85Zm-72.11,16a17.86,17.86,0,0,1,2.72-.48c2.51,0,4.52-1.21,6.52-2.5a1.17,1.17,0,0,0,.3-2A11.14,11.14,0,0,1,109.4,52c-1.08-2.12-3.08-2.6-5.09-3a1.94,1.94,0,0,0-1.62,1c-.89,2.34-1.62,4.74-2.33,7.14A1.31,1.31,0,0,0,101.59,58.88ZM69.37,81h0c0-.64,0-1.28,0-1.91-.16-1.73-.56-2-2-1.15A68.27,68.27,0,0,0,61,82.24c-.86.66-1.48,2-.41,2.83,2.19,1.77,4.55,3.34,6.91,4.89.24.15,1.34-.37,1.36-.64C69.08,86.57,69.21,83.8,69.37,81Zm96.35-46.78.2.12a14.2,14.2,0,0,0,.54,2.64c.38,1,1.22,1.45,2.19.75,4.13-3,3.79-6.52.9-10.22-.68-.87-1.56-.84-1.94.35C166.93,30,166.34,32.14,165.72,34.26Zm6.93-10.32c0,2.66,1.06,4.53,2.44,4.78,1.12.2,2.31-.95,3-2.89.06-.17.07-.35.13-.52.61-2-1.25-2.68-2.15-3.77-1.4-1.72-2.28-1.47-3,.61A14.7,14.7,0,0,0,172.65,23.94Zm-68,43.93v-.11c.59,0,1.19,0,1.78,0a8.72,8.72,0,0,0,1.77,0,14.8,14.8,0,0,0,2.08-.75c-.79-.66-1.55-1.35-2.38-2-.19-.13-.61.09-.93.11-1.65.14-3.31.26-5,.41A18.29,18.29,0,0,0,99,66c-.44.11-.76.69-1.13,1.06.51.28,1,.77,1.52.8C101.11,67.93,102.89,67.87,104.66,67.87Zm12-9.42a7.9,7.9,0,0,0,.69-.4,28,28,0,0,0,3-2.73,2.12,2.12,0,0,0,.27-2,7.71,7.71,0,0,0-2.42-1.9c-.76-.44-1.22-.17-1.28.84-.11,1.72-.39,3.42-.55,5.14A3.26,3.26,0,0,0,116.65,58.45Zm15.2,128c.22-.05.33-.05.39-.1,1.16-.88,2.32-1.76,3.46-2.65.08-.06.07-.24.09-.37a2.17,2.17,0,0,0-.62-.1c-1.73.09-2.26,1.78-3.45,2.61C131.66,185.87,131.8,186.22,131.85,186.43ZM183.37,181c1.51-.22,2.9-.41,4.29-.64.18,0,.32-.25.47-.39-.15-.07-.3-.22-.45-.22-1.46.06-3.05-.79-4.31.62-.14.15-.32.27-.47.41ZM32.57,131.6c-.19,0-.38-.07-.41,0-1.13,1.47-2.24,2.94-3.33,4.43-.08.11,0,.33,0,.5.15-.08.35-.12.44-.24.94-1.22,1.88-2.44,2.79-3.68A6.32,6.32,0,0,0,32.57,131.6ZM22.33,180.86c.41-.5.91-.94.85-1.06-.26-.44-.65-1-1.07-1.07s-.73.59-1.1.92Zm-1.74-5.18.7.29c.11-.33.41-.81.29-1a9.16,9.16,0,0,0-1.45-1.4s-.56.46-.52.53A18.42,18.42,0,0,0,20.59,175.68Zm109.22,6.64c-.6-.47-.93-.91-1.16-.86a3.85,3.85,0,0,0-1.13.72c.25.26.49.71.75.72S129.07,182.62,129.81,182.32ZM37.67,123.19A3.71,3.71,0,0,0,38,122a.85.85,0,0,0-.67-.48c-.33.08-.6.41-.89.63Zm94.79,52.94,0-.29a4.91,4.91,0,0,0-1.25.37c-.64.43-1.21,1-1.81,1.46.57-.28,1.14-.57,1.72-.83.28-.13.61-.17.89-.3A2.12,2.12,0,0,0,132.46,176.13ZM34.39,128.47c.44-1.08.76-1.86,1-2.65,0-.09-.11-.23-.17-.35-.28.48-.58,1-.85,1.46a3.74,3.74,0,0,0-.34.88C34.05,127.9,34.18,128,34.39,128.47Z"/></g></svg>