<svg id="Layer_1" data-name="Layer 1" xmlns="http://www.w3.org/2000/svg" viewBox="0 0 200 200"><g id="b2dSQk.tif"><path d="M127.54,173.44c-3.36-8.07-6.54-15.69-9.71-23.32-2-4.89-3.91-9.85-6.11-14.66-1.18-2.57-.81-4.07,1.64-5.62,8.15-5.18,12.82-12.56,13-22.39a25.93,25.93,0,1,0-42.21,20c6.11,4.92,6.15,4.94,3.09,12.42-4.4,10.72-8.86,21.42-13.3,32.13a7.21,7.21,0,0,1-.9,1.11A51.41,51.41,0,0,1,66.85,170c-2.43-1.6-4.33-1.27-6.59.4C55.78,173.73,51,176.7,46.53,180c-2,1.49-3.4,1.33-5.12-.47Q34.89,172.71,28,166.18c-1.82-1.74-1.95-3.12-.48-5.15,3.44-4.75,6.87-9.54,9.9-14.55a8.72,8.72,0,0,0,.67-5.81c-.54-2.63-2.3-5-2.83-7.62-1.49-7.35-6.14-10.21-13.23-10.62-3.83-.22-7.6-1.36-11.42-1.94-2.25-.35-3.12-1.43-3.08-3.73q.15-9.67,0-19.33c0-2.35.94-3.29,3.17-3.66,5.92-1,11.8-2.29,17.74-3.24,2.67-.43,4.36-1.44,5.31-4.15,1.77-5.1,5.77-10.26,5.33-15.07-.43-4.64-5.24-8.9-8.22-13.27-5.11-7.52-5.14-7.5,1.28-14,3-3,6.18-6,9.08-9.14,1.78-2,3.16-2.22,5.4-.58C51.73,38.08,56.91,41.69,62.28,45a7.58,7.58,0,0,0,5.74.76c14.79-5.29,14.76-5.37,17.73-20.85,2-10.65,2-10.65,12.82-10.65,3.43,0,6.88.17,10.3-.05,3.12-.19,4.66.71,5.11,4.09a177.2,177.2,0,0,0,3.41,18.14c.42,1.74,2.36,3.12,3.61,4.66.08.1.27.1.39.18,9.93,6.46,18.52,5,27.46-2.87,7.58-6.67,8.2-6,15.39,1.23,2.73,2.73,5.36,5.58,8.22,8.17,2.07,1.87,2.37,3.41.62,5.78-3.67,4.95-7.19,10-10.38,15.27a7.49,7.49,0,0,0-.52,5.74c1.91,5.06,3.2,11.33,7,14.44,3.6,3,10,2.66,15.15,3.69,9,1.81,9,1.78,9,10.79,0,4.3-.13,8.6.05,12.89.12,2.73-1,3.79-3.61,4.21-5.79.93-11.6,1.88-17.28,3.29a7.62,7.62,0,0,0-4.51,3.7c-2.35,5-6.08,10.51-5.63,15.49s5.22,9.5,8.28,14.12c4.42,6.66,4.49,6.61-1.22,12.32-3.14,3.14-6.44,6.13-9.35,9.47-2.2,2.51-4,2.42-6.49.5-4-3-8.36-5.54-12.3-8.61-2.79-2.17-5.17-2.52-8.07-.39A42.41,42.41,0,0,1,127.54,173.44Z"/></g></svg>