<svg id="Layer_1" data-name="Layer 1" xmlns="http://www.w3.org/2000/svg" viewBox="0 0 200 200"><g id="OhWZMs.tif"><path d="M182.12,160.9H171.36a4.62,4.62,0,0,0,4.59,5,10.41,10.41,0,0,0,4.94-1l.45-.21a.55.55,0,0,1,.17,0c0,.65,0,1.3,0,1.95a.53.53,0,0,1-.28.39,11.59,11.59,0,0,1-7.41.68,6.31,6.31,0,0,1-4.73-5.07,9.4,9.4,0,0,1,.75-6.59c2.11-4,8.12-4.69,10.84-1.24A7,7,0,0,1,182,158.1c0,.15.08.3.12.46ZM179.78,159a4.1,4.1,0,0,0-1.81-3.71,4.36,4.36,0,0,0-6.59,3.71Z"/><path d="M33.59,78.09c.5-21.81,8.79-40,25.59-54A69.48,69.48,0,0,1,107.83,8.36,69.85,69.85,0,0,1,171.65,63a67.15,67.15,0,0,1,1.56,18.1,69.89,69.89,0,0,1-44.4,61.93,2.79,2.79,0,0,1-4-1.78q-7.73-20.08-15.43-40.18c-.73-1.9-.12-3.26,1.76-4.06a20.13,20.13,0,0,0,12.58-15.71A20.51,20.51,0,1,0,95.59,97a5.32,5.32,0,0,1,1.1.53,2.71,2.71,0,0,1,1,3.33q-1.62,4.26-3.26,8.5L82.18,141.19a2.8,2.8,0,0,1-2.18,2.1,3.5,3.5,0,0,1-1.73-.17,68.48,68.48,0,0,1-23-14.6A70.22,70.22,0,0,1,33.59,78.09Z"/><path d="M37.29,153.54h2.3v2c.1,0,.14,0,.16-.07,2.76-3.45,7.5-3.08,9.42.89a9.67,9.67,0,0,1-.5,9.86c-2.16,3.37-7.23,2.92-8.85.14a1.89,1.89,0,0,0-.21-.25v7.58H37.29Zm2.29,7.29a7.76,7.76,0,0,0,.73,3.52,3.56,3.56,0,0,0,3.29,2.09A3.4,3.4,0,0,0,47,164.38a8.21,8.21,0,0,0,0-7.08,3.41,3.41,0,0,0-3.36-2.06,3.52,3.52,0,0,0-3.29,2.08A7.6,7.6,0,0,0,39.58,160.83Z"/><path d="M104.71,185.29a3.15,3.15,0,0,0-2.72-3.56,8.81,8.81,0,0,0-5.39.79l-.44.21s0,0-.15,0c0-.63,0-1.28,0-1.92,0-.1.14-.24.25-.29a10.64,10.64,0,0,1,7-.7,4.93,4.93,0,0,1,3.71,4.63,39.62,39.62,0,0,1,.14,4.36c0,1.89,0,3.77,0,5.7h-2.34v-2c-.1,0-.14,0-.16.05-1.63,2.25-3.9,2.68-6.41,2.12A4.36,4.36,0,0,1,95,189.49c.35-2.37,1.92-3.77,4.62-4.06.85-.1,1.71-.11,2.58-.13S103.83,185.29,104.71,185.29Zm0,1.87c-1.19,0-2.29,0-3.4,0a11.34,11.34,0,0,0-2.24.34,2.34,2.34,0,0,0-1.86,2.55,2.58,2.58,0,0,0,1.88,2.58A4.19,4.19,0,0,0,104,190.7,6.21,6.21,0,0,0,104.74,187.16Z"/><path d="M157.47,187.76H146.73a4.61,4.61,0,0,0,4.57,5,10.29,10.29,0,0,0,4.94-1l.51-.23.12,0c0,.65,0,1.32,0,2a.48.48,0,0,1-.27.34,11.5,11.5,0,0,1-7.75.59,5.94,5.94,0,0,1-4-3.67,9,9,0,0,1,.71-8.49c2.32-3.58,8-3.85,10.51-.57a7.41,7.41,0,0,1,1.4,4.19C157.5,186.52,157.47,187.1,157.47,187.76Zm-10.68-1.88h8.32a3.85,3.85,0,0,0-3.91-4.28A4.18,4.18,0,0,0,146.79,185.88Z"/><path d="M66.43,161.41H55.65c.09,3.31,2.05,4.91,4.64,5a10.28,10.28,0,0,0,4.94-1l.45-.2h.15c0,.69,0,1.37,0,2,0,.11-.17.27-.3.32a11.76,11.76,0,0,1-7.28.7,6.19,6.19,0,0,1-4.63-4.34,9.36,9.36,0,0,1,.54-7.35c2.12-4.05,8.17-4.69,10.87-1.19a7.4,7.4,0,0,1,1.42,4.25C66.46,160.19,66.43,160.76,66.43,161.41Zm-10.69-1.9h8.32a3.85,3.85,0,0,0-3.64-4.27A4.21,4.21,0,0,0,55.74,159.51Z"/><path d="M124.45,160.36a25.45,25.45,0,0,1-.55,3.14,6.16,6.16,0,0,1-7.1,4.5,5.94,5.94,0,0,1-5.22-4.56,11,11,0,0,1,0-6.19,6.16,6.16,0,0,1,7.13-4.55,6.24,6.24,0,0,1,5.52,5.86c.07.59.1,1.19.16,1.78Zm-2.57-.05a7.34,7.34,0,0,0-.73-3.43,3.63,3.63,0,0,0-3.4-2.14,3.53,3.53,0,0,0-3.41,2.19,8,8,0,0,0,0,6.85,3.49,3.49,0,0,0,3.37,2.17,3.64,3.64,0,0,0,3.42-2.1A7.52,7.52,0,0,0,121.88,160.31Z"/><path d="M33.53,160.85A27.28,27.28,0,0,1,33,164a6.17,6.17,0,0,1-7.1,4.51A5.92,5.92,0,0,1,20.68,164a11,11,0,0,1,0-6.32,6.14,6.14,0,0,1,7.11-4.49,6.24,6.24,0,0,1,5.52,5.86c.07.59.11,1.18.16,1.78Zm-2.56,0a7.56,7.56,0,0,0-.72-3.48,3.62,3.62,0,0,0-3.43-2.17,3.51,3.51,0,0,0-3.41,2.2,8.12,8.12,0,0,0,0,6.8,3.5,3.5,0,0,0,3.41,2.2,3.61,3.61,0,0,0,3.43-2.17A7.51,7.51,0,0,0,31,160.89Z"/><path d="M56.34,194.52H54.05v-14.6h2.28V182l.47-.54a5.57,5.57,0,0,1,6.47-1.54,4.69,4.69,0,0,1,2.67,3.94,11.85,11.85,0,0,1,.13,1.78c0,2.93,0,5.87,0,8.84H63.73v-.66c0-2.72,0-5.43,0-8.14a8.51,8.51,0,0,0-.36-2.23,2.52,2.52,0,0,0-2.08-1.79c-2.68-.55-4.88,1.3-4.92,4.24,0,2.63,0,5.26,0,7.89Z"/><path d="M72.6,168.14H70.3v-14.6h2.29v2.13l.45-.54a5.56,5.56,0,0,1,6.47-1.58,4.67,4.67,0,0,1,2.69,4,16.38,16.38,0,0,1,.13,2.33c0,2.52,0,5,0,7.58v.69H80v-.65c0-2.71,0-5.42,0-8.13a8.44,8.44,0,0,0-.35-2.23,2.54,2.54,0,0,0-2.11-1.83c-2.67-.53-4.85,1.31-4.9,4.21-.05,2.61,0,5.22,0,7.83Z"/><path d="M140.07,167.64h-2.29v-2.11l-.32.36a5.33,5.33,0,0,1-5.93,2,4.49,4.49,0,0,1-3.35-4.25c-.13-1.3-.12-2.62-.13-3.93,0-2.19,0-4.38,0-6.61h2.34v.63c0,2.71,0,5.42,0,8.13a8.93,8.93,0,0,0,.34,2.24,2.52,2.52,0,0,0,2.11,1.83c2.66.54,4.85-1.3,4.91-4.2.05-2.65,0-5.3,0-7.94V153h2.3Z"/><path d="M97.26,167.05v-2.32c1.1.35,2.18.75,3.28,1a7.15,7.15,0,0,0,3.84-.05A2.06,2.06,0,0,0,106,164.2a1.76,1.76,0,0,0-1.1-2.16c-1-.37-2.08-.59-3.12-.89a20.31,20.31,0,0,1-2-.64,3.46,3.46,0,0,1-2.31-3.32,3.84,3.84,0,0,1,2.09-3.82,7.17,7.17,0,0,1,4.07-.7c1.21.12,2.41.43,3.61.66.36.07.48.29.46.66,0,.58,0,1.17,0,1.85a8.9,8.9,0,0,0-4.76-1.08,7,7,0,0,0-1.8.34,1.78,1.78,0,0,0-1.32,1.8,1.6,1.6,0,0,0,1.28,1.67c1,.34,2.05.55,3.07.85a20.19,20.19,0,0,1,2,.69c2.94,1.18,2.88,5.35.5,6.85a7.83,7.83,0,0,1-4.65,1.07A14.82,14.82,0,0,1,97.26,167.05Z"/><path d="M127.88,179.87c.65,0,1.29,0,1.92,0a.61.61,0,0,1,.7.5q1.91,5.26,3.84,10.51c.13.38.28.75.48,1.28.45-1.21.84-2.26,1.22-3.31,1-2.81,2.07-5.61,3.08-8.43.15-.42.34-.58.78-.55.61,0,1.23,0,1.91,0-.09.28-.16.51-.24.73q-2.46,6.66-4.91,13.33c-.16.46-.35.65-.86.62-.74-.05-1.48,0-2.22,0a.66.66,0,0,1-.48-.32q-2.64-7.08-5.24-14.19S127.87,180,127.88,179.87Z"/><path d="M165.74,165v1c0,1.13,0,1.14-1.05,1.5a9.45,9.45,0,0,1-5,.39A6.18,6.18,0,0,1,155,164a9.5,9.5,0,0,1-.13-6.92,6.4,6.4,0,0,1,6-4.37,9.4,9.4,0,0,1,4.44.75.61.61,0,0,1,.45.69c0,.54,0,1.09,0,1.58a24.73,24.73,0,0,0-3-.84c-3.48-.58-5.79,1.3-6,4.84a10,10,0,0,0,.16,2.44,4.56,4.56,0,0,0,5.57,3.76A33.33,33.33,0,0,0,165.74,165Z"/><path d="M165.81,130.59a6.9,6.9,0,1,1-6.93,6.87A6.92,6.92,0,0,1,165.81,130.59Zm0,1.71a5.19,5.19,0,1,0,5.19,5.22A5.2,5.2,0,0,0,165.82,132.3Z"/><path d="M85.39,192.56v2.05c-1.5-.09-3-.07-4.42-.29a2.93,2.93,0,0,1-2.69-2.91,16,16,0,0,1-.13-2c0-2.54,0-5.09,0-7.7H76.46v-1.86h1.66v-4.17h2.35v4.13h4.91v1.85H80.53c0,.22,0,.4,0,.57v7.58a6.37,6.37,0,0,0,.06,1c.2,1.29.61,1.66,2,1.72.47,0,.94,0,1.42,0Z"/><path d="M111.87,175.71h2.35v4.13h4.91v1.86h-4.89v.63c0,2.48,0,5,0,7.45a7.17,7.17,0,0,0,.06,1c.19,1.3.61,1.67,2,1.73.47,0,.94,0,1.42,0h1.45v2.09c-1.6-.13-3.2-.16-4.76-.41a2.89,2.89,0,0,1-2.33-2.82,13.48,13.48,0,0,1-.13-1.9c0-2.57,0-5.13,0-7.77h-1.68V179.9h1.65Z"/><path d="M147.26,167.65H145v-14.6h2.28v2.15c1.58-2.32,3.7-2.79,6.16-2.44v2.34a10.76,10.76,0,0,0-1.55-.34,3.91,3.91,0,0,0-4.45,3.61,12.64,12.64,0,0,0-.12,1.84C147.25,162.67,147.26,165.13,147.26,167.65Z"/><path d="M46.9,179.9h2.26v14.58H46.9Z"/><path d="M70.92,179.9h2.27v14.6H70.92Z"/><path d="M90.8,194.5H88.53V179.92H90.8Z"/><path d="M124.55,194.51h-2.27V179.92h2.27Z"/><path d="M49.15,177.13H46.89v-3h2.26Z"/><path d="M88.54,174.11h2.27v3H88.54Z"/><path d="M122.28,177.13v-3h2.27v3Z"/><path d="M73.18,177.13H70.91v-3h2.27Z"/><path d="M164.91,140.55h-1.85v-7a17.26,17.26,0,0,1,4.24.22,1.51,1.51,0,0,1,1.13,1.38,1.76,1.76,0,0,1-.71,1.79l-.48.28c1.18.8,1.39,2.15,2.11,3.35-.66,0-1.19,0-1.71,0a.58.58,0,0,1-.39-.3,15.81,15.81,0,0,1-.73-1.49,1.3,1.3,0,0,0-1.61-.87Zm0-3.92c.6-.06,1.26.21,1.56-.42a1.29,1.29,0,0,0-.05-1.09c-.35-.53-1-.33-1.51-.3Z"/></g></svg>