<svg id="Layer_1" data-name="Layer 1" xmlns="http://www.w3.org/2000/svg" viewBox="0 0 200 200"><g id="iC9WXO.tif"><path d="M.35,95.68c3.81-2.49,7.4-5.22,12.27-5.74a11.61,11.61,0,0,1,8.1,1.94c4.06,2.79,7.85,6,11.71,9,1.59,1.25,3.12,1.34,4.32-.28a43.16,43.16,0,0,0,2.71-5L30.36,91l.26-.81a37.74,37.74,0,0,0,4.81.64c1.52,0,4,.08,4.36-.67.83-1.82-1.2-2.72-2.56-3.62a59.67,59.67,0,0,1-5.09-3.44c-.76-.63-1-1.81-1.54-2.74,1.07-.27,2.23-.93,3.2-.72a25,25,0,0,1,5.51,2c2.22,1.08,3.19.12,3.68-1.9.19-.78.3-1.59.52-2.76l-6.84-3.38-.05-.44,6.69.45.5-.63L32.74,62.12l.51-.83c1.39.47,2.8.87,4.16,1.41,2.27.9,4.44,2.17,6.78,2.77,1.76.45,3.72.09,5.6.09l.4-1L45.35,59l.47-.54,6.32,3.15.37-.43c-2.35-2.68-4.54-5.51-7.1-8-1.76-1.69-1.4-2.83.56-4.59,2.07,1.43,4.23,2.95,6.43,4.43,1.43,1,2.84,1.95,4.35,2.77,2.1,1.14,3.64.39,3.24-1.92a21.41,21.41,0,0,0-2.9-6.61c-.8-1.4-2.16-2.49-3.17-3.79a23.59,23.59,0,0,1-1.55-2.61l.59-.67a13.57,13.57,0,0,1,2.49,1.37c2.08,1.78,3.92,3.87,6.13,5.46,1.84,1.33,4.06,2.32,6.28.44,0-3-2.81-5.24-2.47-8.61l6.28,6.27.92-.52c-.07-5.17-2.86-9.82-3.5-14.94,2-.75,3,.08,3.86,1.7,1.6,3.11,3.34,6.15,5,9.13,4.94-2.74,2.75-6.36,2-9.64-.57-2.46-1.56-4.81-2.28-7.24a5.7,5.7,0,0,1,.06-1.74l.91-.29c1.22,2,2.45,3.94,3.65,5.93,2,3.36,4.2,6.54,9.19,7.56l-.36-7.77c.43.36,1,.62,1.18,1,.73,1.47,1.2,3.07,2.06,4.45.51.82,1.55,1.3,2.84,2.31V22l.89-.32a29.63,29.63,0,0,1,1.75,3.1c1,2.48,2,5,3,7.52.2.46,1,1.15,1.14,1.07.55-.31,1.31-.88,1.32-1.37,0-1.63-.28-3.27-.34-4.9a5.07,5.07,0,0,1,.54-1.65,6.9,6.9,0,0,1,.92,1.13c.54,1.1.92,2.29,1.5,3.36.31.57,1,1.44,1.35,1.37a2.41,2.41,0,0,0,1.57-1.36,34.76,34.76,0,0,0,1.54-5.38c.6-3.05,1-6.13,1.54-9.2h1c.5,3.06,1,6.13,1.52,9.18a59.41,59.41,0,0,0,1.35,5.94,2.45,2.45,0,0,0,1.48,1.35c.28.08,1-.7,1.26-1.22.58-1.25.93-2.61,1.52-3.86a7.32,7.32,0,0,1,1.41-1.52c0,2.41-.1,4.46.07,6.48,0,.6.82,1.15,1.27,1.72.44-.45,1.11-.82,1.29-1.35.81-2.36,1.48-4.77,2.25-7.32,2,.72,2.76,1.61,2.73,3.52a28,28,0,0,0,.89,6.8c.18.75,1.41,1.8,2.06,1.72s1.61-1.15,1.93-2c.52-1.31.62-2.78,1.45-4.25a5.07,5.07,0,0,1,.6,1.3c.22,1.8.3,3.61.56,5.4.11.74.4,1.9.86,2a2.72,2.72,0,0,0,2.19-.74A62.13,62.13,0,0,0,146.47,33c.83-1.09,1.2-2.52,1.94-3.7a11.17,11.17,0,0,1,1.79-1.78,14.13,14.13,0,0,1,0,2.52c-.67,3.61-1.5,7.2-2.11,10.82a6.68,6.68,0,0,0,.61,2.51,11.8,11.8,0,0,0,2.81-1.13,34.43,34.43,0,0,0,3.28-3.12l1,.73A8.9,8.9,0,0,1,154.36,42c-2.33,2-2.75,3.31-1.34,5,2-.8,1.83-4.23,5.09-3.94a15.83,15.83,0,0,1-.43,2.1,12.74,12.74,0,0,0-.91,2c-.22,1.48-.22,3-.31,4.49,1.36-.28,2.73-.54,4.09-.84.94-.22,1.87-.5,2.81-.75-.62.84-1.22,1.68-1.86,2.5s-1.32,1.61-2.47,3c1.77,0,3.09.35,4.08-.07,3.68-1.54,7.24-3.37,10.87-5a11.2,11.2,0,0,1,2.34-.51,7.4,7.4,0,0,1-.69,2.28c-2.6,3.58-5.33,7.07-7.91,10.68-.38.53-.52,1.81-.18,2.14a3.07,3.07,0,0,0,2.28.42c1.84-.25,3.65-.69,5.48-1l.28.69c-1.15.66-2.34,1.26-3.45,2s-2.92,1.66-2.82,2.23a12.09,12.09,0,0,0,2.2,4.89c2.22,3,4.79,5.75,7,8.74.88,1.17,1.09,2.38-.47,3.81-.75.69-.63,3.56.18,4.53,4.72,5.63,7.29,12.15,9,19.15.11.47.46,1.23.74,1.25,2.53.15,2.91,2.17,3.85,3.91a27.88,27.88,0,0,0,4,5.37c.38.43,1.63.06,2.48.07.46,0,1.21-.16,1.32,0a2.49,2.49,0,0,1,.35,1.74c-.79,2.59-5,6.43-8,6.08-2.78-.32-5.61.08-8.17-1.5a2,2,0,0,0-1.79.44c-2.74,2.79-5.42,5.63-8,8.55a1.91,1.91,0,0,0-.09,1.81c1.28,1.72,2.73,3.32,4.53,5.45-3.75.16-5.27-4-9-3.63l1.45,4.31.66,1.93a5.78,5.78,0,0,1-2.17-.07,16.64,16.64,0,0,1-2.66-1.74c-2.73,3.35-2.67,4.31.35,7.61,2,2.2,4,4.44,6,6.72-1.05.9-1.68.81-3.08,0a41.23,41.23,0,0,0-9.85-4.14c-1.06-.29-2.82,1.12-3.9,2.13-.43.4-.18,1.95.23,2.75,1.06,2.12,2.43,4.07,3.53,6.17.3.56.3,1.89,0,2-.74.36-2.09.68-2.51.28a35.1,35.1,0,0,1-4.39-5c-1.16-1.6-2.1-2.62-4.1-1a57.33,57.33,0,0,1-5.7,3.53l4.11,14.33-.35.31-8.34-8.61c-.47-.48-.9-1.17-1.47-1.33a37.28,37.28,0,0,0-4.12-.7,28.11,28.11,0,0,0-.14,3c.11,1.55.52,3.1.49,4.65a10,10,0,0,1-.93,2.86c-.88-.57-2.16-.94-2.56-1.75a68.14,68.14,0,0,1-2.51-6.61,8.6,8.6,0,0,0-.42-.81c-2.67-.21-3.92,1.06-4.31,3.53-.54,3.47-1.21,6.92-1.84,10.38a4.1,4.1,0,0,1-1,2.26c-1.5-4.1-3.05-8.18-4.48-12.29-.8-2.29-2-3.8-4.68-3.09-1.84,2.77.08,6.84-3.42,9.55-.52-2.82-1.15-5.32-1.4-7.86-.18-1.77-1.06-2.59-2.6-2.5a3.1,3.1,0,0,0-2.3,1.35c-1.92,4-3.65,8.11-5.73,12.84a24.66,24.66,0,0,1-1-3.28c-.45-3.51-.81-7-1.17-10.55-.29-2.75-1.88-4.2-4.5-4.69A18,18,0,0,1,86.9,166c-.57,1.72-1.23,3.45-1.69,5.22-.54,2.1-1.67,2.89-4,2,.18-2.45.32-5,.58-7.52a1.77,1.77,0,0,0-1.7-2.21c-.82-.09-2.08,0-2.47.52-2.08,2.73-4,5.61-5.87,8.47A27.06,27.06,0,0,0,70.36,175l-.73,0a14.54,14.54,0,0,1-.34-3.25c.37-3.51.9-7,1.38-10.5a4,4,0,0,0-2.45-4.61A35.42,35.42,0,0,1,64.14,154c-1.44,2.27-2.66,4.38-4.09,6.34-.41.57-1.41.7-2.14,1-.15-.7-.58-1.48-.4-2.08a59.12,59.12,0,0,1,2.28-6.21,2.64,2.64,0,0,0-.78-3.52c-1.18-.95-1.8-2.74-4.07-1.73-3.4,1.51-5.73,4-8,6.81a13.55,13.55,0,0,1-2.87,2.06c.29-1,.51-2,.89-3,1.35-3.5,2.76-7,4.15-10.48.12-.3.45-.62.4-.88-.28-1.58-.14-3.66-1.1-4.59-1.22-1.18-3.07-.29-4.44.88-1.22,1-2.54,2-3.81,2.93l-.61-.3a6.54,6.54,0,0,1,.56-1.88c1.07-1.54,2.23-3,3.42-4.47,2.26-2.77,0-5.1-.76-7.55a28,28,0,0,0-1.84-3.62c-1.06,2.4-2,4.26-2.71,6.21-2,5.53-8.75,9.58-14.65,8.68,0-.16-.06-.43,0-.46,5.57-3,3.26-7.65,2.14-11.63a62.57,62.57,0,0,0-13.54-24.28c-1.2-1.37-2.37-2.76-3.61-4.09C6.47,95.88,4.1,95,1.25,96.94c-.17.12-.6-.16-.9-.25ZM74.11,45.41C70,48.3,67,54.08,61,49.1c1.42,3.23,2.38,6.25-.52,9.18l7.62,3.2-.18.66c-4,.54-7.32-1.52-10.57-3.54s-6.59-4.45-9.88-6.69c2.53,3.25,5.51,6,8.19,8.92a68,68,0,0,1,5.47,7.35c.38.55.22,1.46.31,2.21l-.64.33a8,8,0,0,0-8.72-3.54c-1.3.23-2.59,1-3.82.88-2.64-.26-5.24-.94-7.2-1.32,1.4,2,4,4.26,4.68,7s-.58,6.06-1,9.26l8.23,1-.1.73c-6.13,2.16-11.71-.51-18-2.59,6,4.1,11.95,7.41,14.53,14.08a26.86,26.86,0,0,1-3.09-1.91,6.07,6.07,0,0,0-3.31-1c-.58.07-1.24,1.62-1.36,2.57-.32,2.63-.37,5.3-.55,8-.07.93-.19,1.85-.28,2.78l-.75,0-.9-4c-5.39,2.28-5.33,3-11-2.37a22.85,22.85,0,0,0-1.79-1.76A61.46,61.46,0,0,0,20,93.79c-3.85-2.25-9-1.88-11.28.51,1.23,1.61,2.41,3.07,4.89,2.27a12.75,12.75,0,0,1,3.66-.06l0,.56-5.16,1.39c3.07,4,7.71.58,11.29,3.46H15.45c1.47,2,2.9,3.66,4,5.51,1.49,2.52,4.1.21,6,1.71l-4.34.47,0,1.06,5.94.53-4.41,1.54,3.34,6.48,3.4-1,.21.58-3,1.8,1.1,2.23,3.27-1.89c-.65,1.43-2.27,2.25-2.55,3.4-.31,1.3.58,2.9,1,4.42l2.59-1.44.62.48c-2.76,1.68-3.75,3.84-2.32,6.76,4.23-1.93,6.55-5.27,7.79-9.53.28-1,.69-2.5,1.3-2.63,2-.45,1.79-1.45,1.42-2.94-.32-1.29-.79-2.84,1.11-3.88l.73,3.8.73.19,4.27-7.3c.7,3.81-1.64,5.77-2.89,8.12a34.81,34.81,0,0,1,3.52,1.71c.55.36.85,1.13,1.26,1.71a9.05,9.05,0,0,1-2.22-.16c-1.27-.41-2.48-1-3.71-1.52l-.52.62,4.66,9.6c2.63-4,5.1-7.79,7.9-12.07,1.36,4.67-2.49,6.75-3.66,10,6.2-2.56,6.2-2.56,7-2.09l-9,7.67c3.14,4.74,6.06,8.79,10.83,12l4.08-11.74.61.15c0,6.71-2.62,12.92-4.55,19.37,4.37-3.75,6.93-9.31,12.91-11l-6.53,8.6L79.42,161c3.67-4.14,1.54-8.73,2.51-13.41,2.72,7.25,2.44,14.16,1.4,21.52,2.82-5.68,4.08-11.79,9.32-15.73l-5,10.46,14.72,4.32.8-.6q-1-6.49-1.93-13l.92-.23c2.19,6,4.37,12,6.21,17.07,1-4,.51-9.66,3.14-14.53l1.22.22-1.85,12.69,14.34-.88c.5-5.49-3-9-5.17-13.33.78.11,1.65.28,2,.79a75.07,75.07,0,0,1,5.4,8.9,78.55,78.55,0,0,1,3.13,8.63c-.21-5-.49-11.47-.69-17.93,0-.5.48-1,.73-1.54.32.53.87,1,.9,1.59.21,3.55.31,7.11.47,11.4,4.87-2.12,9.17-3.95,13.44-5.88,1.12-.5,1.61-1.24,1.11-2.78-.91-2.8-2.33-4.88-5.12-6a6.93,6.93,0,0,1-1.59-1.36l.53-.65c5.88,1.87,9.89,6.37,14.27,10.52-2.53-5.69-5.4-11.25-5.13-17.79,1.54,3.85,3.09,7.69,4.88,12.17,2.72-3.28,5.19-6.17,7.56-9.14,1.6-2,1.23-3.52-.92-4.87a6.8,6.8,0,0,1-1.24-1.32l.52-.63,6.88,2.65c-2.35-6.38-2.35-6.38-1.35-8.55l1.91,4.66c3.41-3.31,6.78-6.52,10.08-9.8,4.19-4.15,5.76-9.45,6.15-15.11.46-6.5-2.61-12-5.42-17.6-.85-1.68-2-1.33-2.9-.1a14.71,14.71,0,0,0-1.26,2.44c.49.24.84.43,1.22.59,3.78,1.63,4.92,3.15,4.67,7.26a14.08,14.08,0,0,1-1.51,5.42,8.37,8.37,0,0,0-.51,6,18.6,18.6,0,0,1,.47,6.75c-1,5.93-8.23,9.94-13.32,7.65-2.42-1.09-3.52-.65-4.55,1.75-.48,1.13-1,2.24-1.56,3.36l-.74-.32c-.33-2.94,1-5.46,2.26-8,.27-.57.74-1.27.61-1.76-.94-3.38-2-6.72-3.1-10.24-4.71,2.42-5.25,8.63-10.59,9.48a9.63,9.63,0,0,1,1.8-2.71,33.6,33.6,0,0,0,8.22-14.57c1.56-6,.3-10.68-3.87-13.28a38,38,0,0,0-6.29-2.85c-1.84-.71-3.77-1.2-5.66-1.78l.08-.61,3.33-.51c-.25-1.83-.47-3.42-.71-5.15-.53.18-.83.31-1.14.38s-.59.09-1.38.19c1.56-9.77,8.7-14.38,16-19.39,0,.74.13,1.19,0,1.36-1.6,1.75-.62,3,.5,4.57,2.64,3.72,5,7.61,7.53,11.44a2,2,0,0,1,.12.73l-1.85.54c0,3.11.69,6.2-.14,8.81-1.54,4.8-4.4,9.18-3.89,14.53,0,.15,0,.31-.1,1a34.52,34.52,0,0,0,2.74-2.6c2-2.47,4.08-5,6-7.54.32-.44.08-1.34,0-2-.29-3.21-.66-6.41-.88-9.62-.28-4,.06-8-.75-11.83-.9-4.23-2.81-8.25-4.26-12.37a4.34,4.34,0,0,1,0-1.11l1.66.55,3.63-5.33c-2.16.47-5,1.93-7.34,1.35s-4-3.21-6.17-5.07c-1,3.84-2,7.58-3,11.33l-1.34-.31c.82-4.61,1.64-9.23,2.44-13.71-3,2.42-5.84,5.48-10.86,6L152,49l-9.18-5.85,2.84-.53.91-5.91c-.78,1-1.25,1.67-1.78,2.29-2.62,3.12-4.4,3.57-8,2.07l-5.31-2.27c0,3.29.06,6.21,0,9.14a6.76,6.76,0,0,1-.8,2.08c-.45-.73-1.25-1.43-1.3-2.19-.36-4.91-.57-9.83-.82-14.69C124.52,44.49,124.22,45,121.28,46l4.34-9.72c-3.18-1-6.24-1.24-8.17-2.83s-2.39-4.42-3.11-5.88c-.67,1.38-1.25,4.07-2.91,5.55s-4.56,2-7.33,3.1c1,3.23,2.08,6.62,3.14,10l-.86.26C102.73,41.92,102,36,99.45,30.36c-.21,6,.81,11.76-3.47,16.44l1.57-10.23c-6.22,1-11.72,1.19-15.08-5,2,6.85,1.07,8.76-3.23,11.4l6.1,8.18C78.73,48.05,76.43,41.53,73,35.92c.93,3.2,2,6.29,3,9.44,1.56,5.29,1.55,7.84-.21,10.09C75.2,52,74.7,49,74.11,45.41ZM160.2,114.1c.15.62.25,1.27.46,1.88,1.27,3.73,2.38,7.53,4,11.12a5.3,5.3,0,0,0,3.54,2.56c3,.47,5.83-.44,7.31-3.46,1.66-3.41,1.89-6.91-.39-10.15-.45-.65-1.63-.8-2.47-1.17a17.27,17.27,0,0,0-1,2.46,21.72,21.72,0,0,0-.29,2.82l-.77-.07a5.56,5.56,0,0,0,0-2.2c-.63-1.33-1.26-3.24-2.36-3.65C165.68,113.32,162.91,112.55,160.2,114.1Zm13.18-8.44.56.58c-1,1.19-2,2.36-2.92,3.6a16,16,0,0,0-1.2,2.19,7.63,7.63,0,0,0,2.57,1.1c2.39.08,4.57-2.07,5.56-5.13a5.75,5.75,0,0,0-1.82-6.46c-1.91-1.36-6-1.74-7.25-.28-2.91,3.3-5.55,6.83-8.37,10.36C166,112.16,170,109.48,173.38,105.66Zm-14.49-8a13,13,0,0,0,2.94-13,3.31,3.31,0,0,0-2.3-2c-3.49-.06-7,.19-10.47.47a2.52,2.52,0,0,0-1.67,1.23c-1,2,.64,5.95,2.71,6.74C153.59,92.51,157,94,158.89,97.7ZM144.44,81.6,162,80.23c-1.83-2.46-3.74-4.92-5.54-7.46-1.43-2-3-2-4.44-.25C149.51,75.35,147.17,78.29,144.44,81.6Zm42.66,33.61c-.85,3.31-1.66,6.42-2.47,9.54l.63.15.71-1.75c1,1.93,1.8,3.67,4.26,2.83l-.56-2.5.33-.13,2.11,2.8.47-.4a9.9,9.9,0,0,1-.85-1.11,5.79,5.79,0,0,1-.44-1l3.5,1.66.39-.69C191.71,122.22,191.45,117.15,187.1,115.21Zm-15.29-18.5c3.09-2,4.11-5.21,3.07-9.25C174,84,174,84,170.23,84.56c.59.54,1.39.68,1.93,1.14a6.93,6.93,0,0,1,2.23,2.63c.2.61-.67,1.73-1.3,2.39-.44.45-1.29.51-2,.78C171.31,93.25,171.54,94.87,171.81,96.71Zm4.46-14-5.51-6.25C170.67,82.22,170.67,82.22,176.27,82.7Zm-56.8,96.65c.36-1.86.68-3,.77-4.1.07-.88.17-2.32-.27-2.56-.7-.38-1.84,0-2.94.1ZM51.61,143c-.88,2.47-1.53,4.29-2.23,6.28l4.55-3.38Zm21,17.93v5.32l2.65-3.75Zm23.47,16.38c1.72-6.61,2.27-5.95-.62-6.26Zm46.37-5.16L140.88,167l-2,1.83Zm20.24-22.18-1.08,2.24,3.58,1.73Z"/><path d="M73.71,129.87c.51-1,.78-2.33,1.57-2.81a13.66,13.66,0,0,0,5.88-7.65c1.87-5.16,4.2-6.75,9.66-6.68,2.4,0,4.8.46,7.19.42,2.19,0,4.37-.47,6.86-.77-.8,2.31-2.63,3-4.58,2.93a38,38,0,0,1-6.87-.86c-3.71-.74-5.68,0-7.86,3.22-2.71,4-5.49,7.83-8.5,12.12l3.18-.7.24,1.48.84.7,1.54-3.62.94.76L83,131.3l2.87-3.92.31.14L85.05,131l.36.58,3.81-1.75s.16.42.58,1.53L94,125l.29.1-1.43,3.35.25.17c2-2.4,3.77-5.21,6.21-7.07,2.23-1.7,4-5.24,8-3.35-1.36.68-3,1.09-4,2.09a80.9,80.9,0,0,0-7.11,7.58c-2,2.39-3.82,4.8-6.92,5.87a2.05,2.05,0,0,0-.9,1.67,17.59,17.59,0,0,0,.6,3.25l3.76-4,.44.44-5.31,6.67c-.27-2.17-.59-3.77-.62-5.38a2.6,2.6,0,0,0-2.17-2.78c-3.83-1.18-7.62-2.51-11.42-3.78Z"/><path d="M50.8,117.81c2.14-2,4.44-3.89,6.39-6.08s3.53-4.69,5.16-6.9c.66,2.15.66,2.33-2.13,5.84-1.44,1.8-3.1,3.43-4.56,5.4,3.88-1.53,7.76-2.51,12-1L51.3,118.63Z"/><path d="M134.93,139.93c1.27,7.22,2.42,13.78,3.69,21-4.22-6-8.06-11.49-12.1-17.27,2.38.4,3.32,2.4,4.66,3.72a51.31,51.31,0,0,0,4.26,4.44,37.83,37.83,0,0,1-.87-5.83C134.58,144.18,133,142.16,134.93,139.93Z"/><path d="M70.64,80.41c-3.59,1.46-6.8.64-10.4-.23,3,2.62,5.14,5.39,5.11,9.36-2.21-6.26-8.3-9-12.52-13.43l.4-.54c2.83,1,5.62,2.14,8.5,3S67.31,79.72,70.64,80.41Z"/><path d="M119.38,147.54l-1.92,17h-.69c-2.14-5.7-4.29-11.39-6.36-16.91,1.82.19,1.82.19,5.9,10.14.68-3.72,1.3-7.09,1.92-10.46Z"/><path d="M139.27,45.75c-1,6.76-1.91,13.2-2.82,19.44-1.55-1.28-1.61-3.24,0-12.37a44.6,44.6,0,0,1-3.5,4.47,13.36,13.36,0,0,1-4.22,2.62C132.18,55.27,135.64,50.62,139.27,45.75Z"/><path d="M97.39,58.72c-4-1.57-5-5.35-6.85-8.62.27,4,.79,7.93-.28,11.8-.93-6.18-1.84-12.25-2.75-18.33l.51-.36Z"/><path d="M82.7,65.2c-3.44,2-5.64-.88-8.49-2,1.15,3.27,3.58,6,3.25,9.25l-9.18-16,.61-.34C73.33,59.42,76.58,64.44,82.7,65.2Z"/><path d="M112.08,47.23c-.45,2.25-.76,4.54-1.42,6.72a10.06,10.06,0,0,1-2.54,3.92l4-18.34c1.47,6.13,2.8,11.75,4.14,17.36C113.48,54.26,113.06,50.63,112.08,47.23Z"/><path d="M158.67,145.9c-4.94-3.29-9.32-6.21-13.68-9.16-.08-.05.08-.45.23-1.22l9,4.19c-.19-2.79-4-4.83-2-8.89C154.45,136.08,156.48,140.8,158.67,145.9Z"/><path d="M93,144.72c3.69,2.33,2.62,6.8,4.35,10.17,1.3-2.92,2.58-5.76,3.85-8.6l1.13.45L97.12,160l-.56,0C95.38,155,94.19,150,93,144.72Z"/><path d="M73.64,129.8c0,.3,0,.82-.09.87-4.23,1.77-8.47,3.48-13,5.31l9.92-14c.87,1.8-.19,3.47-1.27,5.07s-2.24,3-3.63,4.91l8.12-2.07Z"/><path d="M78.43,135.59v9.6c2.36-1.75,3.89-4.79,7.12-5.42l-9.76,10.82,2.28-14.91Z"/><path d="M47.11,105.64c2.86-.07,5.14.31,6.54,2.6l-.26.72c-1.26-.45-2.49-1-3.77-1.33a27.26,27.26,0,0,0-4.29-.81,12.32,12.32,0,0,1-3.76-.55L50.76,101C50.91,102.09,50.91,102.09,47.11,105.64Z"/><path d="M80.88,79.9l-5.23-1.66,2,6.54-.55.22L70.55,73.35c.75-.43.71-.36,5,2.71A56.71,56.71,0,0,0,81,79.19Z"/><path d="M132.43,131.47c3.09.89,4.46,4.3,7.27,5.8-.32-2.66-.62-5.18-.92-7.69l.81-.15c.88,4,1.76,8,2.83,12.78L132.09,132Z"/><path d="M61.16,94.22l11.19-2.5c-1.4,2.67-4,2.14-6.13,2.86,1.46,1.65,4.48,1.59,4.41,4.14Z"/><path d="M87.47,74.93c-.3-3.52-.61-7-.94-11l7.15,6.55c-.63.7-.63.7-5.39-2.63l.34,7Z"/><path d="M107.55,68.07c-3.15-.45-2.21-3.9-3.91-5.4-.56,1.77-1.11,3.51-1.71,5.39-1-1.26-.13-6.39,1.6-10.08C104.92,61.47,106.22,64.72,107.55,68.07Z"/><path d="M123.08,67.14l-1.51-4.91c-1.72.62-1.75,3.84-4.17,3.23l5.26-9.19c.37,3.52.76,7.11,1.14,10.7Z"/><path d="M137.56,76.51l1.36-5.35-5.65,1.18-.06-.35,8.87-5.6c-1.24,3.39-2.52,6.87-3.8,10.35Z"/><path d="M58.38,98.09l-7.49-2.51,8.2-5.21c0,3.28-3,3.32-4.19,4.95l3.93,2.12Z"/><path d="M103.09,140.34l2.14-2.66.74.41c-.9,2.09-1.8,4.19-2.9,6.77-1.28-3.42-2.37-6.33-3.58-9.59C102.85,135.52,101.68,139,103.09,140.34Z"/><path d="M114.78,136.67l5.27,3.64.93-4.55.89.18c-.19,2.62-.39,5.23-.62,8.34l-6.76-7.15Z"/><path d="M73.43,112.08l-3.36,5.65a24,24,0,0,1,3.1,0,18.34,18.34,0,0,1,2.58.72l-.1.6H67.48l5.2-7.29Z"/><path d="M125.55,126.74l2.07-3.19.65.38-1.67,6.59-4.39-5.39.31-.47Z"/><path d="M108.37,128.25l1.9,2.44,1.4-3.26c1.5,3.1-1.46,4.58-1.76,6.82l-2.07-5.7Z"/><path d="M135.53,119.23l2.2,1.73v-3.64l.71,0q.36,3.1.73,6.21l-.56.16-3.86-3.72Z"/><path d="M123.11,74.4l-3.94,3-.44-.45,5-4.64c.31,2.22.58,4.1.84,6l-.78.15Z"/><path d="M99,71.29l2.47,4.95-.46.26-1.79-2.07-1.5,5-.63-.17C97.68,76.85,98.26,74.45,99,71.29Z"/><path d="M146.18,106.66,142.87,104l.4-.58,4.53,3-.13.8-4.28,1.72-.31-.61Z"/><path d="M81.19,88.46l-2.42.46,1.6,3.42-.37.19-3.61-4.14,4.71-.72Z"/><path d="M129.4,85.15,134.05,82c-.47,2.11-.77,3.51-1.08,4.9l-.44-.06V84.27l-2.72,1.55Z"/><path d="M98,105.88l2.41,1.21-.37.75-3.68-1.69,3.08-3.37,1,1L97,105Z"/><path d="M89.21,86.84h4.11l.09.62-2.57.4,1.35,2.63-.66.37Z"/><path d="M74.13,106.27l3.34-2.52.32.31-1.07,1.78,2.45,1.42-.21.53Z"/><path d="M108.16,88.14,106,87.26l-.33,1.92-.62.14-.7-3.68,4.11,1.82Z"/><path d="M157.92,85.13c1.78-.06,2.62.69,2.69,2.49s-1.19,3-2.44,2.78a4.24,4.24,0,0,1-2.86-2.74A2.29,2.29,0,0,1,157.92,85.13Z"/></g></svg>