<svg id="Layer_1" data-name="Layer 1" xmlns="http://www.w3.org/2000/svg" viewBox="0 0 200 200"><g id="Cjauof.tif"><path d="M8,123.37v-6.54c.25-1.17.5-2.35.76-3.52,1.33-5.9,4.41-10.38,10.13-12.87,3.11-1.34,6.09-3,9.19-4.33a3.69,3.69,0,0,0,2.43-3.39A71.29,71.29,0,0,1,50.37,49.89,71.63,71.63,0,0,1,97.76,27.25a71.37,71.37,0,0,1,45.46,11.43,3.33,3.33,0,0,0,3.82.2c2.89-1.52,5.82-3,8.84-4.22a8.57,8.57,0,0,1,4.35-.6,25.72,25.72,0,0,1,12,5.33c9.09,7.25,16.19,16,19.2,27.47.93,3.56,1.69,7.17,2.53,10.75v5.81c-.16.7-.36,1.39-.47,2.1-1.11,6.82-4.4,12.08-10.78,15.17-1.41.68-2.71,1.6-4.12,2.3a3.07,3.07,0,0,0-1.76,2.87c-1.71,20.41-10.26,37.44-25.87,50.67-24.17,20.48-57.76,23.14-85,7a3,3,0,0,0-3.35-.12,96.49,96.49,0,0,1-8.77,4.34,21.76,21.76,0,0,1-7,1.72c-5.56.25-10.42-2-14.81-5.19C20.36,156,13.12,144.57,9.46,130.83,8.81,128.38,8.48,125.86,8,123.37Zm53.1,25.25-.33-.08c-.09-1.33-.08-2.67-.27-4-1.93-13.74-8.24-25.16-18.42-34.48a32.27,32.27,0,0,0-12.62-7.3c-8.62-2.57-15.7,1.33-18.09,10a28.53,28.53,0,0,0-.64,11.7c1.94,13.73,8.29,25.15,18.51,34.43A30.41,30.41,0,0,0,43,166.39c7.75,1.75,13.9-1.58,16.38-9.12A73.23,73.23,0,0,0,61.1,148.62Zm60.48-10.34a22.49,22.49,0,0,0,2,10.09c2.28,4.83,6.06,7.41,11.48,7.39,5,0,9.35-2,13.25-4.85,11.39-8.38,18.18-19.71,21-33.49a26.94,26.94,0,0,0-1.09-15.88c-1.85-4.48-5.12-7.3-10-7.9a17.9,17.9,0,0,0-9.37,1.62,37.94,37.94,0,0,0-13.73,10.49C127,115.13,122.08,125.8,121.58,138.28ZM102.42,67.44c1.09,0,2.18,0,3.26,0,7.68-.3,15.17-1.53,22.17-4.87,3.46-1.66,6.68-3.7,9-6.89,2.49-3.48,2.83-7.14.63-10.89-2.69-4.58-7-7.14-11.76-8.95-13.9-5.32-28-5.41-42.12-.9-4.77,1.52-9.2,3.79-12.57,7.65-4.09,4.68-4.16,10.1.29,14.44A33,33,0,0,0,79.86,63,49.52,49.52,0,0,0,102.42,67.44ZM27,99.14l.12.55a9.26,9.26,0,0,0,1,.32,31.1,31.1,0,0,1,13.41,6.56,58.22,58.22,0,0,1,20.53,33.15c1.68,7.29,1.62,14.53-1.67,21.48,0,.06.1.19.24.44,3.63-1.74,7.23-3.6,10.93-5.21a12.77,12.77,0,0,0,7.69-9.06,36.73,36.73,0,0,0,1.11-9.67c-.24-8.28-3.06-15.88-7.17-23-4.69-8.09-10.66-15-19.08-19.43C50,93.11,45.48,91.47,40.88,93,36.1,94.63,31.61,97.06,27,99.14Zm150,2.13c3.1-1.9,5.88-3.3,8.3-5.15,4.51-3.44,6.05-8.54,6-13.84,0-12.58-4-23.85-12.5-33.35-4.11-4.59-8.47-8.76-14.3-11.19-3.63-1.5-7-2-10.48.31a61.57,61.57,0,0,1-6.75,3.33C166.61,56.72,176.45,76.43,177,101.27Z"/></g></svg>