<svg id="Layer_1" data-name="Layer 1" xmlns="http://www.w3.org/2000/svg" viewBox="0 0 200 200"><g id="YA1E4H.tif"><path d="M180.19,160.5c-1.14,3.45-2.31,6.9-3.43,10.35q-3,9.35-6,18.7a1.11,1.11,0,0,1-1.28.91c-2.65-.05-5.3,0-8,0l-9.8-30.75c2,0,3.85,0,5.69,0,.21,0,.5.43.59.71q3.84,12,7.65,24c.09.29.19.58.39,1.14l.77-2.5q3.62-11.35,7.24-22.71a1.09,1.09,0,0,1,.74-.64c1.82,0,3.63,0,5.45,0Z"/><path d="M53.61,199.83a4.91,4.91,0,0,1-.14-.84V169.76c0-.22,0-.44.05-.73h5v2.77c.17-.08.26-.1.31-.16a10.06,10.06,0,0,1,11.67-1.95,5.15,5.15,0,0,1,2.48,3,23.36,23.36,0,0,1,.82,9.29,25.18,25.18,0,0,1-.68,4.14,5.34,5.34,0,0,1-4.72,4.28,18.35,18.35,0,0,1-3.62.28c-2.37-.12-4.51-.84-5.83-3.12l-.2.13v12.11Zm15.14-20.06c-.18-1.52-.32-3.11-.57-4.68a2.27,2.27,0,0,0-2-2.07,23.21,23.21,0,0,0-4.64-.13A2.57,2.57,0,0,0,59.25,175a21.59,21.59,0,0,0,0,9,2.83,2.83,0,0,0,2.57,2.48,20.6,20.6,0,0,0,4.08,0,2.55,2.55,0,0,0,2.36-2.29C68.45,182.78,68.56,181.32,68.75,179.77Z"/><path d="M118.44,72.52c-3.67-6.35-7.33-12.71-11-19.12,4.73-3.07,7.31-7.34,7.31-13A14.18,14.18,0,0,0,110,29.78,14.78,14.78,0,1,0,92.53,53.4l-11,19.11c-11.78-6.33-20.78-21.35-18-38a37,37,0,1,1,55,38Z"/><path d="M134.74,100.85a14.8,14.8,0,1,0,14.94,0l11-19c11,5.68,20.05,19.85,18.28,35.77a36.93,36.93,0,1,1-55.22-35.82Z"/><path d="M58.45,150.44A36.29,36.29,0,0,1,23,122.94c-3.64-14.83.56-27.53,12.1-37.61A34.42,34.42,0,0,1,53.27,77.2a36.5,36.5,0,0,1,22.72,4c.64.34.7.65.35,1.26Q71.27,91.21,66.24,100c-.38.66-.72.49-1.24.26-5.56-2.48-10.85-2-15.69,1.75a14.2,14.2,0,0,0-5.6,10.49,14.86,14.86,0,0,0,29.56,3.09,7.93,7.93,0,0,0,.14-.85c0-.7.38-.83,1-.83,2.24,0,4.48,0,6.72,0H93.76c1.64,0,1.66,0,1.56,1.66a36.41,36.41,0,0,1-11,24.33,35.88,35.88,0,0,1-21.9,10.38c-.67.07-1.33.14-2,.17S59.12,150.44,58.45,150.44Z"/><path d="M49.68,175.31c-.32,2.79-.6,6-1.08,9.18a6.14,6.14,0,0,1-5.19,5.43,36.06,36.06,0,0,1-14.74.16,6.8,6.8,0,0,1-5.77-5.75,46.7,46.7,0,0,1-.62-12.6c.13-2.06.48-4.11.81-6.16.49-3.1,2.45-4.81,5.43-5.43A35.09,35.09,0,0,1,42.7,160c4.06.82,5.64,2.68,6.27,7.34C49.31,169.83,49.43,172.35,49.68,175.31Zm-21.87.31c.2,2.15.38,4.66.68,7.16a2.63,2.63,0,0,0,2.24,2.42,25.21,25.21,0,0,0,10,0,2.68,2.68,0,0,0,2.35-2.33,28.93,28.93,0,0,0,.46-3.31,58.45,58.45,0,0,0-.36-12.33,2.7,2.7,0,0,0-2.35-2.4,26.47,26.47,0,0,0-9.8,0,2.75,2.75,0,0,0-2.54,2.67C28.25,170.09,28.05,172.66,27.81,175.62Z"/><path d="M150.44,170h-5.8c-.11-1-.16-2-.32-3a2.47,2.47,0,0,0-2.21-2.2,23.64,23.64,0,0,0-9,.17,2.58,2.58,0,0,0-2.15,2.27,21.39,21.39,0,0,0-.38,2.75,62.35,62.35,0,0,0,.42,12.81,2.78,2.78,0,0,0,2.32,2.48,22.92,22.92,0,0,0,8.85.12,2.83,2.83,0,0,0,2.49-2.65c.13-1,.16-2,.24-3h5.71a17.75,17.75,0,0,1-1,7.45,4.5,4.5,0,0,1-2.73,2.53,19.93,19.93,0,0,1-7.17,1,53.51,53.51,0,0,1-8.3-.55c-4-.65-5.41-2.23-6-6.64a64,64,0,0,1-.44-15.77,14.5,14.5,0,0,1,.48-2.34,6.54,6.54,0,0,1,5.18-5.07,34.56,34.56,0,0,1,13.7-.51c3.75.61,5.23,2.2,5.78,6C150.3,167.12,150.33,168.49,150.44,170Z"/><path d="M97,180.67H82.29c.15,1.29.24,2.49.45,3.67a2.56,2.56,0,0,0,2.43,2.22,20.8,20.8,0,0,0,4.1.06c1.81-.17,2.13-.58,2.44-2.37,0-.19.05-.37.09-.63h4.93a5.37,5.37,0,0,1-3.54,6.13,15.46,15.46,0,0,1-4.94.9,34.29,34.29,0,0,1-6.54-.65,4.7,4.7,0,0,1-3.82-3.85,27.23,27.23,0,0,1-.14-12.44A5.48,5.48,0,0,1,82,169.3a20.8,20.8,0,0,1,9.95-.05,5,5,0,0,1,4.13,4.17C96.55,175.75,96.73,178.14,97,180.67Zm-14.59-3.32h9.34c-.05-.8-.05-1.5-.16-2.18a2.34,2.34,0,0,0-2.41-2.36,18.17,18.17,0,0,0-2.76-.14c-3.29.1-4.23,1.15-4.08,4.44C82.39,177.17,82.42,177.23,82.45,177.35Z"/><path d="M106.34,190.42h-5V169h4.79v3.31a2.3,2.3,0,0,0,.33-.37,6,6,0,0,1,5.34-3.18,16.23,16.23,0,0,1,3.81.21c2.76.5,4.74,2.36,4.83,5.08.18,5.41.05,10.84.05,16.33h-4.9v-1.12c0-4.38,0-8.75,0-13.13,0-2.37-.93-3.26-3.31-3.44a9.29,9.29,0,0,0-2.47.15,4.16,4.16,0,0,0-3.45,4.43c0,4,0,8,0,12Z"/></g></svg>