<svg id="Layer_1" data-name="Layer 1" xmlns="http://www.w3.org/2000/svg" viewBox="0 0 200 200"><g id="PGgGqT"><path d="M99.76,46.66h79.29c3.23,0,4.95,1.71,4.95,4.92q0,40.62,0,81.25a9.47,9.47,0,0,1-.22,2.61,4.21,4.21,0,0,1-4.16,3c-1.73,0-3.46,0-5.19,0l-62.62,0-91.19,0c-3.28,0-5-1.71-5-5V60.45c0-3,0-6.07,0-9.1a4.33,4.33,0,0,1,4.61-4.66c10.3,0,20.59,0,30.89,0ZM61.34,113.41H88.13c4.05,0,8.11,0,12.16,0,.75,0,.95-.22.95-1,0-5.47,0-10.94,0-16.41q0-20.88,0-41.76c0-1.69,0-1.69-1.65-1.69l-23.47,0H22.93c-1.41,0-1.42,0-1.42,1.41q0,28.66,0,57.33c0,2.09,0,2.09,2,2.08H61.34Zm-6.85,14.07H66.23c1.19,0,1.22,0,1.22,1.26a10,10,0,0,0,0,1.45c0,.21.36.55.55.55,2.32,0,4.65,0,7,0,.51,0,.69-.28.7-.76a8,8,0,0,1,.12-1.77,1.11,1.11,0,0,1,.73-.7c1.47-.22,1.48-.19,1.47-1.71,0-.29,0-.57,0-.85,0-.49-.25-.69-.74-.73-1.57-.13-1.57-.15-1.57-1.7,0-.14,0-.28,0-.42.1-.83-.21-1.18-1.09-1.15-1.73.05-3.46,0-5.19,0-2.31,0-1.91-.14-2,2,0,1.26-.05,1.29-1.29,1.29l-22.44,0c-2.42,0-2.07-.27-2.14,2.14,0,.85.26,1.13,1.12,1.13C46.62,127.46,50.56,127.48,54.49,127.48Zm-25.8,2.14h0c2,0,4.09,0,6.13,0,.73,0,1-.2,1-1,0-1.84,0-3.69,0-5.53,0-.73-.25-1-1-1-4.12,0-8.23,0-12.34,0-.69,0-1,.24-1,.94,0,1.87,0,3.74,0,5.62,0,.69.26.95.95.94C24.55,129.61,26.62,129.62,28.69,129.62Zm64-7.49c-2.1,0-4.2,0-6.3,0-.62,0-.83.19-.82.83,0,1.9.06,3.8,0,5.7,0,.73.18,1,.94,1,4.14,0,8.27,0,12.41,0,.66,0,.91-.21.9-.87,0-1.9,0-3.8,0-5.7,0-.72-.27-.93-.95-.92C96.83,122.15,94.76,122.13,92.7,122.13Zm18.79-64A5.56,5.56,0,0,0,117,63.78a5.58,5.58,0,1,0,0-11.16A5.56,5.56,0,0,0,111.49,58.12Zm36.64,63.14a5.51,5.51,0,1,0-11,.07,5.51,5.51,0,0,0,11-.07Zm-23,0a5.51,5.51,0,1,0-5.52,5.5A5.5,5.5,0,0,0,125.13,121.28Zm35,0a5.49,5.49,0,1,0,11,0,5.53,5.53,0,0,0-5.5-5.53A5.47,5.47,0,0,0,160.16,121.31ZM134.69,59.85v0c1,0,1.93,0,2.89,0a2.8,2.8,0,0,0,3-3c0-.37,0-.74,0-1.11a2.81,2.81,0,0,0-3.1-3.12c-1.48,0-3,.05-4.43,0-3.55-.17-4.38,1.16-4.24,4.4a2.75,2.75,0,0,0,2.69,2.83C132.59,59.9,133.64,59.85,134.69,59.85Zm16.67-7.23h-2.72c-2.12,0-3.13,1-3.17,3.14a14.43,14.43,0,0,0,0,1.61,2.53,2.53,0,0,0,2.41,2.44c2.29.09,4.59.09,6.87,0a2.51,2.51,0,0,0,2.38-2.55c0-.56,0-1.13,0-1.69a2.71,2.71,0,0,0-2.84-2.93C153.35,52.59,152.36,52.62,151.36,52.62Zm16.48,7.26h1.78c3.5,0,4.31-.84,4.19-4.35a2.72,2.72,0,0,0-2.72-2.89c-2.12-.08-4.25-.07-6.38,0a2.64,2.64,0,0,0-2.62,2.7c0,.51,0,1,0,1.53a2.78,2.78,0,0,0,3,3C166,59.9,166.9,59.88,167.84,59.88Zm-33.12,3h0c-.56,0-1.13,0-1.69,0-3.6-.27-4.33,1.27-4.17,4.31a2.79,2.79,0,0,0,3,2.92c1.53,0,3.06-.08,4.58,0,3.82.21,4.42-1.51,4.22-4.57a2.7,2.7,0,0,0-2.75-2.66C136.82,62.9,135.77,62.92,134.72,62.92Zm33.24,0h0c-1.08,0-2.16,0-3.23,0a2.32,2.32,0,0,0-2.19,1.23,5.26,5.26,0,0,0,0,4.66,2.32,2.32,0,0,0,2.16,1.29c2.18,0,4.37,0,6.55,0a2.53,2.53,0,0,0,2.5-2.25,10.17,10.17,0,0,0,0-2.7,2.56,2.56,0,0,0-2.53-2.21C170.11,62.9,169,62.93,168,62.93Zm0,10.22H164.8a2.69,2.69,0,0,0-2.7,2.54,15,15,0,0,0,0,2.12,2.57,2.57,0,0,0,2.51,2.52c2.18.06,4.37.06,6.55,0a2.65,2.65,0,0,0,2.66-2.66c.16-2.77-.55-4.16-2.3-4.47a6.07,6.07,0,0,0-.85-.06Zm-33.21,7.22h0c1.07,0,2.15,0,3.23,0a2.5,2.5,0,0,0,2.1-1.11,5.46,5.46,0,0,0,.06-4.89A2.59,2.59,0,0,0,138,73.17c-2.13,0-4.25-.06-6.38,0a2.71,2.71,0,0,0-2.71,2.8c0,.57,0,1.13,0,1.7a2.69,2.69,0,0,0,2.78,2.72C132.69,80.39,133.71,80.37,134.74,80.37ZM151.3,62.92c-1,0-2,0-3.06,0-1.69,0-2.67,1.15-2.79,3-.21,3.22,1.08,3.94,2.52,4.2h.17c2.13,0,4.25,0,6.38,0a2.64,2.64,0,0,0,2.65-2.66c0-.59,0-1.19,0-1.78a2.64,2.64,0,0,0-2.74-2.74C153.4,62.9,152.35,62.92,151.3,62.92Zm0,17.45h3.23a2.67,2.67,0,0,0,2.64-2.66,18.31,18.31,0,0,0,0-2,2.63,2.63,0,0,0-2.57-2.56q-3.27-.08-6.54,0a2.62,2.62,0,0,0-2.56,2.49,12.44,12.44,0,0,0,0,2.2,2.62,2.62,0,0,0,2.72,2.49C149.26,80.38,150.28,80.37,151.3,80.37Zm14.36,30h0c1.39,0,2.77,0,4.16,0,1,0,1.35-.39,1.4-1.41,0-.57,0-1.14,0-1.7,0-1.31-.4-1.66-1.69-1.66-1.45,0-2.89,0-4.33,0-1.19,0-2.38-.07-3.57,0s-1.61.42-1.6,1.66c0,.57,0,1.13,0,1.7,0,1.08.36,1.44,1.44,1.46C162.89,110.42,164.27,110.39,165.66,110.39Zm-23,0v0c1.41,0,2.83,0,4.24,0,.93,0,1.26-.36,1.29-1.31,0-.65,0-1.3,0-2,0-1.09-.34-1.53-1.44-1.54-2.83,0-5.66,0-8.49.07a1.13,1.13,0,0,0-1.21,1.24c0,.65,0,1.3,0,1.95,0,1.16.36,1.55,1.52,1.57C139.92,110.42,141.28,110.4,142.64,110.4Zm-23,0v0c1.42,0,2.83,0,4.25,0,.87,0,1.24-.39,1.28-1.25s0-1.47,0-2.2-.39-1.28-1.25-1.29c-2.89,0-5.77,0-8.66,0a1.12,1.12,0,0,0-1.2,1.25c0,.56,0,1.13,0,1.7,0,1.54.28,1.81,1.85,1.82ZM165.59,91a3.42,3.42,0,0,0-3.32,3.31,3.34,3.34,0,0,0,3.34,3.36,3.34,3.34,0,1,0,0-6.67Zm-23,0a3.33,3.33,0,1,0,3.3,3.38A3.33,3.33,0,0,0,142.64,91Zm-23,6.64a3.33,3.33,0,1,0-3.3-3.3A3.35,3.35,0,0,0,119.6,97.68ZM117,73.21h0c1.25,0,2.49,0,3.74,0s1.91-.66,1.89-1.61-.7-1.52-1.87-1.53c-2.49,0-5,0-7.48,0-1.12,0-1.73.58-1.74,1.55s.62,1.55,1.72,1.57S115.72,73.21,117,73.21Zm50.19,41.09a9,9,0,0,0-1.17-.59.93.93,0,0,0-.7,0,.63.63,0,0,0-.19.58c.05.17.32.43.46.41A15,15,0,0,0,167.16,114.3Zm-18.62,1.88c-.45-.25-.72-.51-1-.49s-.54.45-.49.58a1,1,0,0,0,.65.56C147.92,116.86,148.15,116.51,148.54,116.18Zm-10.92.95c.28-.42.58-.67.55-.88s-.36-.4-.56-.6c-.19.2-.51.39-.53.61S137.34,116.71,137.62,117.13Zm5.87-3c-.42-.28-.67-.57-.87-.54s-.55.37-.54.56.34.52.56.55S143.08,114.46,143.49,114.17Zm-18.83,13c.27-.42.55-.66.52-.87s-.35-.38-.54-.58c-.19.2-.51.38-.54.6S124.37,126.75,124.66,127.16Zm10.83-6.75c-.26.45-.51.7-.49.93s.38.52.51.48a.88.88,0,0,0,.56-.55C136.09,121.07,135.79,120.83,135.49,120.41Zm-20.83,5.07c-.3.37-.61.59-.6.79s.32.57.52.58a.81.81,0,0,0,.59-.51C115.21,126.15,114.92,125.89,114.66,125.48Zm23.82.86c-.41-.28-.65-.58-.85-.56s-.42.34-.63.52c.2.2.37.53.6.57S138.05,126.61,138.48,126.34Zm20.91-5.08c-.43-.27-.67-.53-.9-.52s-.53.37-.5.5a.82.82,0,0,0,.54.57C158.73,121.84,159,121.55,159.39,121.26Zm11.22-5.86c-.25.44-.51.68-.5.92s.39.52.53.48a.87.87,0,0,0,.56-.56C171.21,116,170.9,115.8,170.61,115.4Zm-9.15,10.86c-.42-.26-.65-.51-.88-.5s-.52.36-.49.51a.86.86,0,0,0,.53.58C160.82,126.87,161.06,126.56,161.46,126.26Zm-46-10c-.39-.29-.61-.6-.82-.58a.78.78,0,0,0-.56.52.8.8,0,0,0,.52.57C114.79,116.84,115,116.56,115.45,116.3Zm46-.06c-.42-.27-.68-.57-.88-.53a.85.85,0,0,0-.49.62c0,.15.35.49.53.48S161.06,116.53,161.46,116.24Zm-13.88,10.93c.31-.41.63-.64.61-.84s-.31-.5-.55-.57-.49.3-.51.49S147.35,126.72,147.58,127.17Zm23.91-.81c-.39-.3-.6-.57-.83-.58s-.55.31-.53.46a.81.81,0,0,0,.47.61C170.8,126.89,171.06,126.61,171.49,126.36Zm-51-12.24c-.45-.24-.7-.48-.92-.46s-.52.4-.48.53a.82.82,0,0,0,.56.54C119.85,114.75,120.08,114.44,120.49,114.12Zm-7.12,7.12c-.44-.26-.67-.51-.89-.49s-.53.37-.5.5a.82.82,0,0,0,.54.56C112.72,121.83,113,121.53,113.37,121.24Zm13.38-.81c-.29.4-.56.62-.57.85s.33.55.46.53a.82.82,0,0,0,.61-.49C127.29,121.12,127,120.86,126.75,120.43Zm-2.1-5.05c-.29.43-.58.68-.55.88a.9.9,0,0,0,.58.54c.11,0,.47-.33.47-.51S124.91,115.82,124.65,115.38Zm25.92,5.91c-.41-.28-.66-.58-.86-.55a.87.87,0,0,0-.51.6c0,.13.33.48.51.48S150.16,121.55,150.57,121.29Zm22.17.84c.27-.42.53-.65.52-.87s-.35-.54-.49-.51a.83.83,0,0,0-.58.52C172.16,121.47,172.46,121.71,172.74,122.13Z"/><path d="M33.4,140.3c2.66,0,5.33,0,8,0,.77,0,1.1.26,1.06,1-.05,1,0,1.93-.05,2.89a3.23,3.23,0,0,1-3.24,3.44c-1.21.08-2.44,0-3.66,0H28.1c-2.54,0-3.83-1.31-3.84-3.82,0-.86,0-1.71,0-2.56s.32-1,1.07-1C28,140.31,30.7,140.29,33.4,140.3Z"/><path d="M166.22,140.31c2.66,0,5.32,0,8,0,.84,0,1.17.28,1.13,1.14s0,2,0,3a3.24,3.24,0,0,1-3.24,3.27c-3.89,0-7.77.05-11.65,0a3.29,3.29,0,0,1-3.24-3.3c0-1,0-2,0-3.06,0-.8.32-1,1.06-1,2.67,0,5.33,0,8,0Z"/><path d="M27.45,93.64c0,4,0,8,0,12,0,.82.26,1.11,1.06,1.1,2,0,4,0,6,0,1,0,1.09-.08,1.09-1.14V87.62c0-2,0-4,0-6,0-.81.3-1.1,1.1-1.09,2.92,0,5.85,0,8.77,0,1.15,0,1.22.06,1.22,1.19q0,11.31,0,22.63c0,.45,0,.91,0,1.36,0,.72.24,1,1,1q3.11,0,6.21,0c.75,0,1-.28,1-1,0-2.83,0-5.67,0-8.5V81.72c0-1.16.05-1.21,1.2-1.22h8.68c1.28,0,1.29,0,1.29,1.28v23.48c0,1.44,0,1.45,1.45,1.45,1.87,0,3.74,0,5.61,0,.84,0,1.09-.29,1.08-1.07,0-2,0-3.91,0-5.87q0-9.18,0-18.38c0-.65.2-.92.87-.91q4.64,0,9.27,0c.82,0,1,.36,1,1.09,0,2.52,0,5,0,7.57v16.42c0,1.07.09,1.17,1.16,1.16l5.87,0c1.09,0,1.13,0,1.13-1.17V82c0-1.46,0-1.47,1.46-1.47,1.19,0,2.38,0,3.57,0,.53,0,.88.14.88.76s-.37.75-.89.75c-.8,0-1.59,0-2.38,0S95,82.23,95,83.11c0,5.21,0,10.43,0,15.65,0,2.78,0,5.56,0,8.34,0,.78-.23,1.13-1.06,1.12q-4.64,0-9.27,0c-.73,0-.83-.34-.83-.95q0-11.69,0-23.39C83.85,81.82,84,82,82,82c-1.67,0-3.35,0-5,0-1.15,0-1.2,0-1.2,1.2v23c0,2.36.13,2-2.07,2-2.58,0-5.16,0-7.75,0-1.31,0-1.34,0-1.34-1.32V83.75c0-.34,0-.68,0-1,0-.5-.23-.72-.72-.72H57.13c-.58,0-.72.32-.72.82,0,1,0,2.1,0,3.15v20.93c0,1.26,0,1.3-1.29,1.3-2.95,0-5.9,0-8.84,0-.78,0-1.06-.27-1.05-1q0-11,.05-22c0-.82-.05-1.64-.05-2.46,0-.55-.25-.77-.77-.76-2.19,0-4.37,0-6.56,0-.75,0-.77.47-.77,1q0,7,0,14c0,3.35,0,6.69,0,10,0,1-.08,1.11-1.13,1.11l-8.77,0c-1.19,0-1.25-.07-1.25-1.26q0-11.53,0-23.06c0-.34,0-.68,0-1,0-.61-.23-.89-.85-.85-.31,0-.62,0-.94,0-.52,0-.77-.24-.76-.78s.27-.71.75-.71c.76,0,1.53,0,2.29,0s1,.31,1,1.06c0,4,0,8.06,0,12.08Z"/><path d="M35.43,73.88A9.86,9.86,0,0,0,36,72.25c.48-2.91.9-5.83,1.37-8.74.32-2,.65-4,1-5.94a5.36,5.36,0,0,1,.67-1.65,1,1,0,0,1,1.83,0,7.88,7.88,0,0,1,.85,2.38c.55,3.44,1,6.9,1.54,10.35.22,1.42.55,2.83.87,4.24a4.63,4.63,0,0,0,.49,1h.28a10.29,10.29,0,0,0,.61-1.71c.53-3.33,1-6.67,1.53-10,.25-1.54.55-3.07.84-4.6a4.79,4.79,0,0,1,.32-1c.25-.6.49-1.29,1.3-1.26s1.13.69,1.26,1.32c.49,2.27.94,4.55,1.32,6.84.45,2.71.79,5.44,1.24,8.15a15.47,15.47,0,0,0,.72,2.25l.39,0a10,10,0,0,0,.61-1.79c.54-3.36,1-6.73,1.54-10.08.26-1.65.58-3.3,1-4.92.19-.77.43-1.75,1.46-1.73s1.25,1,1.41,1.7c.46,2.22.84,4.45,1.21,6.68.48,2.86.89,5.72,1.37,8.57a8.73,8.73,0,0,0,.59,1.59H64A10.83,10.83,0,0,0,64.6,72c.48-2.88.9-5.77,1.35-8.65.26-1.71.51-3.42.85-5.11A8.62,8.62,0,0,1,67.63,56a1,1,0,0,1,1.8,0,6.52,6.52,0,0,1,.79,2.13c.59,3.61,1.09,7.23,1.66,10.84.21,1.31.51,2.61.81,3.91a6.13,6.13,0,0,0,.47,1l.26,0A6.3,6.3,0,0,0,74,72.58q.63-3.39,1.18-6.78c.41-2.55.75-5.11,1.18-7.65A6.1,6.1,0,0,1,77,56.24c.2-.37.7-.84,1-.82a1.54,1.54,0,0,1,1.1.85,26.58,26.58,0,0,1,1.07,4.1c.63,3.8,1.14,7.63,1.74,11.43a14.68,14.68,0,0,0,.68,2.1H83a7.09,7.09,0,0,0,.53-1.36c.47-2.7.9-5.42,1.34-8.13.35-2.15.65-4.32,1-6.46a6.76,6.76,0,0,1,.79-2,1,1,0,0,1,1.77,0,8.55,8.55,0,0,1,.93,2.62c.56,3.44,1,6.9,1.53,10.35.2,1.28.48,2.56.77,3.83a6.92,6.92,0,0,0,.47,1.13l.3,0A6.91,6.91,0,0,0,93,72.49c.42-2.29.8-4.58,1.16-6.88s.67-4.71,1.07-7.06A9.06,9.06,0,0,1,96,56.22c.18-.37.69-.83,1-.81a1.63,1.63,0,0,1,1.12.83,6.9,6.9,0,0,1,.74,2.33c.3,2.87.5,5.74.58,8.63-.81-3.63-.8-7.41-2.18-10.91l-.34,0a4.22,4.22,0,0,0-.46,1Q95.82,61,95.2,64.74c-.42,2.54-.79,5.09-1.22,7.63a4.07,4.07,0,0,1-.54,1.51c-.25.39-.74.92-1.08.89a1.76,1.76,0,0,1-1.15-.93,8.82,8.82,0,0,1-.74-2.42c-.6-3.87-1.13-7.74-1.71-11.61a22.66,22.66,0,0,0-.55-2.41,7.39,7.39,0,0,0-.5-1.12l-.32,0a12.37,12.37,0,0,0-.63,1.83c-.41,2.26-.75,4.53-1.11,6.8-.39,2.49-.76,5-1.19,7.47A4.88,4.88,0,0,1,83.85,74c-.21.35-.67.77-1,.76A1.53,1.53,0,0,1,81.78,74a9.24,9.24,0,0,1-.8-2.5c-.57-3.61-1-7.24-1.6-10.85-.17-1.15-.46-2.28-.73-3.4a5.31,5.31,0,0,0-.45-1l-.26,0a4.85,4.85,0,0,0-.52,1.14c-.4,2-.78,4.06-1.11,6.1-.48,3-.9,6-1.4,9a5.15,5.15,0,0,1-.72,1.79,1,1,0,0,1-1.79,0,4.52,4.52,0,0,1-.67-1.64c-.48-2.73-.89-5.48-1.33-8.22-.37-2.26-.74-4.53-1.15-6.78a8.05,8.05,0,0,0-.54-1.38l-.38,0a15.19,15.19,0,0,0-.73,2.32c-.59,3.78-1.1,7.57-1.69,11.35a26,26,0,0,1-.78,3.39c-.2.7-.45,1.54-1.37,1.51S62.55,74,62.4,73.26C62,71.19,61.56,69.1,61.21,67c-.5-3-.92-6.05-1.41-9.07a9.69,9.69,0,0,0-.58-1.64l-.3,0a5.36,5.36,0,0,0-.52,1.15q-.69,3.84-1.32,7.7c-.36,2.21-.66,4.43-1,6.64a10.51,10.51,0,0,1-.49,1.72c-.24.64-.5,1.36-1.33,1.34s-1.12-.74-1.31-1.39a25.11,25.11,0,0,1-.76-3.22c-.48-3.22-.88-6.46-1.36-9.69-.16-1.06-.43-2.11-.69-3.15a6.09,6.09,0,0,0-.46-1l-.3-.05a7.83,7.83,0,0,0-.6,1.56c-.44,2.46-.82,4.92-1.22,7.38s-.77,4.93-1.21,7.38a5,5,0,0,1-.66,1.65,1,1,0,0,1-1.83,0A7.54,7.54,0,0,1,43,71.86c-.56-3.41-1-6.84-1.54-10.26-.22-1.4-.52-2.78-.83-4.17a6.58,6.58,0,0,0-.48-1.14l-.3,0a9.28,9.28,0,0,0-.6,1.56c-.44,2.48-.82,5-1.22,7.47s-.71,4.7-1.14,7a6,6,0,0,1-.79,2,.94.94,0,0,1-1.72,0,5,5,0,0,1-.74-1.79c-.49-2.85-.91-5.71-1.36-8.56-.33-2.05-.66-4.09-1.05-6.12a9.54,9.54,0,0,0-.59-1.59l-.31,0a6.31,6.31,0,0,0-.5,1.21c-.52,3.07-1,6.15-1.51,9.22-.37,2.18-.76,4.35-1.22,6.51-.16.73-.46,1.61-1.4,1.59s-1.23-.92-1.37-1.63c-.38-2-.69-4-.89-6a20.61,20.61,0,0,1,.09-3.92c.16,1.18.32,2.35.49,3.52s.34,2.42.54,3.62a8.79,8.79,0,0,0,1.2,3.67,8.77,8.77,0,0,0,.67-1.65c.45-2.51.85-5,1.25-7.54.35-2.24.68-4.49,1-6.72a7.84,7.84,0,0,1,.49-1.63c.22-.58.47-1.22,1.24-1.23s1.1.65,1.3,1.26a15.17,15.17,0,0,1,.66,2.55C33,63,33.52,66.9,34.12,70.77A28.94,28.94,0,0,0,35,73.9Z"/><path d="M73.88,126c0,.7,0,1.41,0,2.12s-.23.85-.8.84c-1,0-2,0-3.06,0a1,1,0,0,1-.67-.64c0-1.56,0-3.12,0-4.68,0-.24.47-.64.74-.66,1-.08,2,0,3,0,.54,0,.76.29.77.8V126Z"/><path d="M143.63,118.09c0-.16-.17-.35-.12-.47a10.26,10.26,0,0,1,.56-1c.08.16.25.33.21.46a7.85,7.85,0,0,1-.4,1Z"/><path d="M116.6,119.73c-.11,0-.24,0-.31,0-.32-.22-.63-.48-.94-.72.1-.08.24-.24.28-.22.4.2.78.44,1.16.67Z"/><path d="M161.21,123.39c.39-.23.78-.46,1.17-.66a.29.29,0,0,1,.26.13c0,.11,0,.31-.08.36-.36.21-.74.39-1.11.57Z"/></g></svg>