<svg id="Layer_1" data-name="Layer 1" xmlns="http://www.w3.org/2000/svg" viewBox="0 0 200 200"><defs><style>.cls-1{font-size:52.18px;font-family:MyriadPro-Regular, Myriad Pro;}.cls-1,.cls-2{fill:#fff;}</style></defs><g id="_8LevBD" data-name="8LevBD"><path d="M41.55,189c-4.13-1.47-5.58-4.49-5.57-8.75q.1-52.69,0-105.38c0-18.32.06-36.64-.05-54.95,0-4.36,1.27-7.56,5.58-9.09h87c2,2.11,4.17,4.15,6.11,6.35C144.37,28.24,154,39.35,163.76,50.4a6.77,6.77,0,0,1,1.62,4.79q0,34.35,0,68.7c0,18.67-.07,37.34,0,56,0,4.35-1.21,7.58-5.55,9.1ZM124,17.93H43.16V129.39H158.22V57.11h-1.88l-27.83,0c-3.12,0-4.45-1.23-4.49-4.21,0-3.59,0-7.19,0-10.79Z"/></g><text class="cls-1" transform="translate(57.07 175.36)">PDF</text><g id="u7DVHB.tif"><path d="M104.28,42.11a64.62,64.62,0,0,1-4.13,17.35,3.37,3.37,0,0,0,.56,3.77c2.76,3.14,5.42,6.36,8.26,9.43a3.82,3.82,0,0,0,2.59.75c5.08,0,10.18-.46,15.24-.16a21.31,21.31,0,0,1,7.76,2.45c3.27,1.57,4.51,5.15,3.5,8.69-.81,2.84-3.48,4.61-7,4.49-6-.19-11.09-2.76-15.94-5.95-1.91-1.25-3.58-2.85-5.48-4.11a4.08,4.08,0,0,0-2.78-.73q-7.64,1.69-15.19,3.77A5,5,0,0,0,89.06,84c-3.78,6.44-7.67,12.8-13,18.12a20.74,20.74,0,0,1-5.79,4.2c-3.37,1.55-6.23-.22-7-3.84-1.05-4.83,1-8.55,4.23-11.82,4.33-4.45,9.72-7.3,15.39-9.53a10.08,10.08,0,0,0,6.27-5.85c1.58-3.94,3.47-7.75,5.32-11.58a3.13,3.13,0,0,0-.14-3.27C91.42,55.22,89,49.79,89.09,43.75A22.22,22.22,0,0,1,90.75,36c1-2.65,4.48-4.24,7.11-3.91,3,.38,5,2.26,5.8,5.55C104,39.12,104.08,40.63,104.28,42.11ZM83.48,85.22A32.55,32.55,0,0,0,69.3,94.57a8.88,8.88,0,0,0-2,3.73c-.27,1.35.21,2.85.35,4.29l3.66-1.3a.87.87,0,0,0,.3-.25c3.06-3.71,6.19-7.37,9.16-11.17a37.27,37.27,0,0,0,2.69-4.69l.06,0Zm9.07-42.3a38.24,38.24,0,0,0,3.7,12.65,3.84,3.84,0,0,0,.74.83,4.7,4.7,0,0,0,.51-1c.91-4,1.92-8,2.64-12a10.49,10.49,0,0,0-.33-4.62c-.31-1-1.37-2.49-2.16-2.54a4.37,4.37,0,0,0-3.38,1.64C93.33,39.3,93.09,41.2,92.55,42.92Zm28.07,33.42-.06.25c-1.75.12-3.5.23-5.25.38a3.06,3.06,0,0,0-.84.31A2.86,2.86,0,0,0,115,78c4.28,3.16,8.81,5.83,14.13,6.79,3.09.56,4.88-.14,5.28-1.91.47-2.06-.79-3.72-3.65-4.78a5.56,5.56,0,0,0-1.12-.34C126.64,77.28,123.63,76.81,120.62,76.34Zm-27.41.83c3.85-.92,7.34-1.73,10.8-2.61a1.29,1.29,0,0,0,.12-1.11c-1.81-2.21-3.7-4.36-5.54-6.55-.63-.74-1-.63-1.36.21-1.36,3-2.76,6-4.1,9.07C93,76.45,93.18,76.85,93.21,77.17Z"/><polygon class="cls-2" points="83.48 85.22 83.49 85.16 83.43 85.18 83.48 85.22"/></g></svg>