<svg id="Layer_1" data-name="Layer 1" xmlns="http://www.w3.org/2000/svg" viewBox="0 0 200 200"><g id="P7nLsI.tif"><path d="M163.19,183c0-.06,0-.14-.08-.18-5.85-6.59-11.73-13.16-19.13-18.12-1-.65-2-1.25-3-1.82a.91.91,0,0,0-.84,0c-2.27,2.23-5.12,3.43-8,4.54A90.67,90.67,0,0,1,113.51,172a145.69,145.69,0,0,1-26.64,1.6c-14.14-.45-28-2.62-41.17-8a54.93,54.93,0,0,1-18-11.18,43.12,43.12,0,0,1-7.4-9.24,8.54,8.54,0,0,0-.49-.72L-1.78,157.44l-.23-.35c6.52-7.09,14.58-12,23.24-15.82-1.53-2.59-3.18-5.12-4.57-7.8a53,53,0,0,1-5.73-30.21,81.54,81.54,0,0,1,14.41-39c1.33-1.93,3-3.63,4.46-5.49a4.29,4.29,0,0,0,.69-1.69A69.51,69.51,0,0,1,38.28,36c6.25-10.71,14.93-18.75,26.78-22.72C78.3,8.8,91,10.7,102.74,18.15c2.66,1.68,5.14,3.66,7.69,5.5,5.14-5.79,11.82-9.13,19.21-11.11,17-4.56,34.85,6.72,38.1,24A3,3,0,0,0,169.62,39a50.48,50.48,0,0,1,13.64,9.58,4.47,4.47,0,0,0,1.24.8,17.55,17.55,0,0,1,5.58,3.78,5.53,5.53,0,0,1,1.85,3.64c0,.26.31.53.53.75,1.19,1.16,2.45,2.24,3.57,3.46,2.12,2.32,2.38,5.35,2.84,8.25a12.89,12.89,0,0,1,0,3.67,17.19,17.19,0,0,1-1,3c1.06,2.21.81,4-1.08,6.12a13.94,13.94,0,0,1-5.69,3.74,1.67,1.67,0,0,0-1.12,1.1,11.65,11.65,0,0,1-4.8,5.7c-1.39.9-2.9,1.61-4.36,2.41-.28.15-.58.28-.69.34,1.78,2.27,3.68,4.42,5.25,6.78,2.49,3.78,4.37,7.87,4.56,12.48a29,29,0,0,0,.68,4.83c1,4.92-.8,8.92-4.61,12.08a1.94,1.94,0,0,0-.73,1,13.69,13.69,0,0,1-5.42,8.44,23.27,23.27,0,0,1-7.64,3.79,5.35,5.35,0,0,0-1.46.6,149,149,0,0,1-28.59,14.19c-.22.08-.42.17-.77.32.33.2.56.35.8.48a53.88,53.88,0,0,1,19.44,17.93,33.64,33.64,0,0,1,2.14,4.77Zm.39-36.67-.07-.24a32.22,32.22,0,0,1-12.12-2c-14.14-4.75-28.65-5.82-43.41-4.72-7.56.57-15.11,1.14-22.67,1.64a42.27,42.27,0,0,1-12.59-.89,18.94,18.94,0,0,1-9.57-5c-4.42-4.56-4.39-10.91.23-15.27a21.56,21.56,0,0,1,4.9-3.37A34.52,34.52,0,0,1,83.11,113c6.81-.23,13.43,1.08,20,2.69,11.05,2.7,22.14,5.08,33.58,5.4a97.48,97.48,0,0,0,20-1.1c5.52-1,11-2.33,16.45-3.51,3.74-.81,7.47-1.73,11.34-1.29,1,.11,2,.38,3,.59a26.53,26.53,0,0,0-3.68-10.63c-1.86-2.93-4.05-5.67-6.12-8.47-.12-.15-.59-.16-.86-.08-1.57.42-3.11,1-4.69,1.34-5.32,1.29-10.68,1.83-16.07.47a25.82,25.82,0,0,1-7.55-3.45,11,11,0,0,1,1.64.21c3.47.55,6.93,1.35,10.42,1.58,5.86.39,11.48-1,17-3a24,24,0,0,0,8.25-4.51c.79-.72,1.45-1.58,2.31-2.52l-3.79.27-.06-.31c.79-.33,1.6-.6,2.36-1,2.31-1.16,4.65-2.29,6.89-3.56a6.32,6.32,0,0,0,2.88-3.34,2,2,0,0,0-.33-2.2c-2.27.65-4.41,1.35-6.6,1.88a120.11,120.11,0,0,1-21.12,2.76c-2.21.14-4.43.45-6.64.41-3.76-.08-7.51-.3-11.25-.59-5.18-.41-10.32-1.06-15.06-3.58a18.39,18.39,0,0,1-8.45,5,57.76,57.76,0,0,1-14.54,2.25A75.15,75.15,0,0,1,94.2,83.5C87,82.1,80.7,78.75,74.61,74.89a8.93,8.93,0,0,1-.92-.73c1.41-1.78,2.69-3.59,4.17-5.22a33.5,33.5,0,0,1,7.87-6.07,54.94,54.94,0,0,1,23.6-7.31,35,35,0,0,1,17.93,2.75,33.5,33.5,0,0,1,11,7.74,34.1,34.1,0,0,1,10.11-5.95A55,55,0,0,1,178,57c6.38,1,12.38,3,17.49,7.18,0,0,.1,0,.19,0a1.58,1.58,0,0,0-.19-.34c-.3-.4-.59-.8-.92-1.18a24.59,24.59,0,0,0-12.48-7.28c-11.46-3.09-22.65-1.87-33.58,2.47A45.41,45.41,0,0,0,138,63.73a15.89,15.89,0,0,1-2.64-2.2,17.69,17.69,0,0,0-5.6-4.55,35.57,35.57,0,0,0-16.21-4.35,51.74,51.74,0,0,0-22.9,3.87A47,47,0,0,0,76.29,66.61a3.56,3.56,0,0,1-2.75,1.1,45,45,0,0,0-6.36.21,7.58,7.58,0,0,0-5.84,3.4c-1.31,2.08-.73,4,1.59,4.76a15.32,15.32,0,0,0,3.69.76c2.91.27,5.84.37,8.75.65a14.74,14.74,0,0,1,3.14.84.84.84,0,0,1,.4.7.83.83,0,0,1-.65.44c-1.46.06-2.92.06-4.38.07H71c1,1.3,1.79,2.49,2.74,3.53,3.78,4.08,8.71,6.1,13.92,7.54A76.2,76.2,0,0,0,107.23,93a63.59,63.59,0,0,0,17.11-1.78c5.89-1.57,11.31-3.91,14-10.34a13.13,13.13,0,0,1,.13,1.93c-.26,3-2.06,5-4.31,6.64a27.56,27.56,0,0,1-11.6,4.78,84,84,0,0,1-33.66-.65,34,34,0,0,1-13.71-5.91c-2.44-1.86-4.6-4-5.55-7a1.74,1.74,0,0,0-1.92-1.42,15.32,15.32,0,0,1-6.39-1.36,4.89,4.89,0,0,1-2.61-6.35c1.05-2.89,3.3-4.49,6.11-5.41a21.79,21.79,0,0,1,8.19-.74,2.18,2.18,0,0,0,1.84-.68A47.63,47.63,0,0,1,90.7,53.91a53.93,53.93,0,0,1,26.63-3.31,31.23,31.23,0,0,1,16.91,6.93s.12,0,.18,0A6.49,6.49,0,0,0,132,50,17.43,17.43,0,0,0,125.57,47c-7.28-1.92-14.62-1.64-22-.54A74.9,74.9,0,0,0,75.69,56.84c-1.74,1-3.41,2.23-5.32,3.49a8.68,8.68,0,0,1,.93-1.49,34.47,34.47,0,0,1,3.31-3.31A55.46,55.46,0,0,1,93.51,46a69.58,69.58,0,0,1,23.82-3c1.27.07,2.53.22,4,.34a20.86,20.86,0,0,0-4.56-4.24c-5.54-3.88-11.8-5.68-18.45-6.32C85.63,31.52,74.47,35.39,64.42,43c-.18.14-.39.26-.82.54.3-.49.41-.73.57-.94a16.54,16.54,0,0,1,1.07-1.31,34.1,34.1,0,0,1,11.84-8.11c8.56-3.58,17.41-4,26.41-2.26a32.28,32.28,0,0,1,15.87,7.42c0,.05.16,0,.53.1-1.35-1.83-2.43-3.56-3.76-5.07a62.83,62.83,0,0,0-18-14.48C84.81,12,71.42,12,58.34,19.54c-8.72,5.05-15,12.39-19.41,21.4C34.44,50.16,32.51,60,31.51,70.13c-.2,2-.3,4-.45,6A30.22,30.22,0,0,1,29.48,63a1.21,1.21,0,0,0-.45.41A86,86,0,0,0,15.79,91.88c-2,7.72-2.91,15.56-1.78,23.5a52.22,52.22,0,0,0,19.41,34.17c7.38,6,16,9.54,25.11,11.89a141.18,141.18,0,0,0,36.05,4A128.17,128.17,0,0,0,121,162.73a154.16,154.16,0,0,0,38.66-14.28C161,147.77,162.27,147,163.58,146.33Zm-96-17.46-.1-.35a15.93,15.93,0,0,1,5-2.57,41.76,41.76,0,0,1,20.7-1.07c6.3,1.11,12.56,2.5,18.79,4a169.8,169.8,0,0,0,36.38,4.84,189.57,189.57,0,0,0,22.61-.81,42,42,0,0,0,10.54-2,9.92,9.92,0,0,0,6.28-12.69,1.36,1.36,0,0,0-.88-.83,20.74,20.74,0,0,0-5.14-.24,120.66,120.66,0,0,0-12.68,2.58,111.51,111.51,0,0,1-50,1.86c-6.59-1.21-13.1-2.84-19.65-4.29-6.85-1.51-13.73-2.54-20.76-1.51a28.14,28.14,0,0,0-11.57,4,10.67,10.67,0,0,0-4.16,4.59c-1.47,3.3-.44,7.08,2.68,9.74s6.65,3.66,10.49,4.2c5.21.73,10.42.26,15.63-.07,8.45-.54,16.9-1.2,25.37-1.59a90.93,90.93,0,0,1,17.59,1A149.45,149.45,0,0,1,152.8,142a56.76,56.76,0,0,0,8.48,1.67,25.11,25.11,0,0,0,8.76-.9c4.12-1,7.81-2.63,10.6-5.89a31.37,31.37,0,0,0,2.21-3.32l-.23-.18-1.11.35c-5.53,1.67-11.24,2-16.94,2.37a189.79,189.79,0,0,1-21.73,0,134.11,134.11,0,0,1-19.78-2.33c-7.8-1.62-15.57-3.38-23.33-5.18-9.25-2.14-18.49-2.95-27.82-.53C70.49,128.46,69,128.62,67.56,128.87ZM122.36,39c6.55-4.27,13.73-5.43,21.15-5.63a58.37,58.37,0,0,1,21.6,3.58,28.59,28.59,0,0,0-10.17-16.3c-6.09-4.79-13-7.08-20.74-6.13A40,40,0,0,0,114,23.39c-.69.55-1.33,1.16-2.05,1.79C116.45,29.16,120.34,33.38,122.36,39Zm54.73,7.68A53.27,53.27,0,0,0,150.62,36a56.73,56.73,0,0,0-28.05,3.32,21.56,21.56,0,0,1,.83,3.2c.12,1,.58,1.24,1.47,1.48,5.28,1.42,10.26,3.27,12,9.32a4.28,4.28,0,0,0,.37-.32,20,20,0,0,1,7.64-5.11c8.23-3.25,16.75-3.55,25.4-2.44C172.54,45.75,174.73,46.24,177.09,46.67ZM21.54,143.9l.61.93A49.61,49.61,0,0,0,42.93,162c12.83,5.87,26.42,8.36,40.39,9.16a146,146,0,0,0,22.81-.55,121.36,121.36,0,0,0,21.05-3.81,81.84,81.84,0,0,0,12.26-4.71,3.62,3.62,0,0,0-3.15-.57A127.94,127.94,0,0,1,102,168.2a161.18,161.18,0,0,1-26-.71,118.89,118.89,0,0,1-21.87-4.24c-9.8-3-18.75-7.47-26.2-14.63-1.74-1.68-3.34-3.5-5.07-5.32ZM173.7,78.47l.1.2c2.74-.34,5.48-.62,8.2-1a66.43,66.43,0,0,0,13.25-3.17,1.93,1.93,0,0,0,1.48-2c0-1.52-.1-3-.16-4.56a2.43,2.43,0,0,0-1.13-1.87,37.09,37.09,0,0,0-17.53-7.15c-2.89-.44-5.82-.62-8.73-.92l-.05.3,1,.37a13.84,13.84,0,0,1,7.19,5.27c2.86,4.23,2.08,9.31-2,13.11C174.8,77.54,174.24,78,173.7,78.47Zm-59.16,3.9a43.23,43.23,0,0,0,14.09-2.8c4.73-2,7.42-5.64,8.75-10.45a1.69,1.69,0,0,0-.52-1.88,40,40,0,0,0-10.37-7,31.08,31.08,0,0,0-14.65-2.68c5.73,1.61,9.84,4.91,10.58,11.06C123.18,75,120.12,79.44,114.54,82.37ZM100.09,59.22c-9.43,2-21.93,9.53-23.76,14.15,7.25,4.71,15,8.14,23.93,8.8l-.92-.53a11.31,11.31,0,0,1-5.63-13.38C94.75,64.51,96.59,61.26,100.09,59.22Zm87.82-4.41.15-.35a61.17,61.17,0,0,0-5.43-2.86,53.87,53.87,0,0,0-31.86-2.78,34.77,34.77,0,0,0-13.23,5.56,2.7,2.7,0,0,0-.86.92c-.51,1-.93,2.1-1.41,3.2l2.18,3c7.2-5.62,15.48-8.53,24.4-9.78S179.52,51.18,187.91,54.81ZM154,79.07c0-.2,0-.24-.06-.26s-.28-.28-.43-.41a9.85,9.85,0,0,1-3.3-7.72,12.32,12.32,0,0,1,4-8.63c.88-.88,1.86-1.67,2.79-2.5a23,23,0,0,0-4,1c-4.77,1.61-9.49,3.32-13.17,7-.25.26-.59.64-.57.94a9.77,9.77,0,0,1-1.12,4.6c-.42.93-.94,1.81-1.44,2.78C142.22,78.3,148.08,78.67,154,79.07ZM98.13,67.39a2.43,2.43,0,0,0,3.28,2.47c.29-.08.59-.12.87-.19a7.22,7.22,0,0,0,5.09-4.37,2.34,2.34,0,0,0-1.12-3.14C102.94,60.57,98.09,63.69,98.13,67.39Zm61.29,1.36a6.13,6.13,0,0,0,5.37-4.85A2.54,2.54,0,0,0,161.43,61a8.79,8.79,0,0,0-4.49,2.83,2.7,2.7,0,0,0-.53,3.15A3.31,3.31,0,0,0,159.42,68.75Zm-44.69,0a1.84,1.84,0,0,0,1.89-1.67,1.38,1.38,0,0,0-1.4-1.38,1.91,1.91,0,0,0-1.94,1.75A1.33,1.33,0,0,0,114.73,68.77Zm56.55-.16c1.13,0,2-.58,2-1.26s-.58-1.09-1.49-1.08-1.54.51-1.52,1.22A1,1,0,0,0,171.28,68.61Zm-11.36,8c.54-.64,1.1-1,1.14-1.42.06-.71-.58-1-1.24-1s-1.11.35-1,1C158.92,75.66,159.41,76,159.92,76.65Zm-55.8-.39c-.39.57-.83.93-.8,1.24s.52.6.81.9c.31-.32.79-.61.88-1S104.55,76.79,104.12,76.26Z"/><path d="M52.2,123.73c-.15.59-.28,1.19-.46,1.78a19.36,19.36,0,0,0-.8,9.92c1,4.83,4.12,8,8.43,10.1,3.7,1.8,7.71,2.65,11.69,3.56.77.17,1.53.37,2.45.6-.25.16-.32.25-.39.25-6.55.45-12.83-.28-18.27-4.41a14.89,14.89,0,0,1-2.92-21.94Z"/><path d="M105.81,103.89l18.1-8.17C122.19,99.19,110.21,104.61,105.81,103.89Z"/><path d="M153.43,99.47c3.54.45,16.2,6.79,17,8.59a3.68,3.68,0,0,1-1.06,0,15.86,15.86,0,0,1-2.68-1.05c-4.16-2.28-8.29-4.62-12.43-6.94A9.54,9.54,0,0,1,153.43,99.47Z"/></g></svg>