<svg id="Layer_1" data-name="Layer 1" xmlns="http://www.w3.org/2000/svg" viewBox="0 0 200 200"><g id="S2iNlJ"><path d="M118,79.27v60.16c0,.38,0,.76,0,1.14,0,.62.32.89.9.91s1.2,0,1.8,0c3.21,0,6.43,0,9.64,0a20.27,20.27,0,0,1,20.33,20.24c0,2.12-.05,4.25,0,6.37a10.6,10.6,0,0,0,8.83,10.12,10.5,10.5,0,0,0,11.72-6.77,11.34,11.34,0,0,0,.66-3.83c.05-16.24,0-32.47,0-48.71,0-1.57,0-1.62-1.55-1.75-.87-.07-1.11-.48-1.12-1.25,0-2.66-.14-5.33-.14-8,0-1.93-.13-2.16-1.94-2.51-4.58-.89-9.15-1.9-13.77-2.64a24.94,24.94,0,0,1-5.77-1.53,6.47,6.47,0,0,1-3.9-4.06c-.22-.67-.76-1.28-.82-1.94a13.22,13.22,0,0,1,0-4.35c1.87-7,3.7-14.13,6-21.06a17.66,17.66,0,0,1,10.67-11.26c2.62-1.05,3.81-2.85,3.53-5.23a5.45,5.45,0,0,0-.64-2c-2.25-4-4.42-8-6.87-11.87a23.13,23.13,0,0,0-9.66-8.34q-6.33-3.06-12.74-5.94c-1-.46-1.42-1-1.2-2.11s.22-2,.35-2.92c.17-1.27.3-1.36,1.59-.92,2.47.84,4.94,1.72,7.41,2.58,3.55,1.23,7.09,2.48,10.65,3.69a26.24,26.24,0,0,1,12.08,8.34c6.34,7.76,12.63,15.56,19,23.33a11,11,0,0,1,2.57,7.56c-.24,7.95-.54,15.9-.81,23.85q-.42,13-.82,26c0,.55,0,1.09-.07,1.64s-.27,1-.88.93c-1.33-.08-1.31.79-1.3,1.72,0,4.47,0,8.93,0,13.4,0,7.3,0,14.6,0,21.9,0,1.14-.18,2.27-.26,3.41,0,.48,0,1,0,1.46,0,.91,0,1.82,0,2.72,0,.65.11,1.3.11,2,0,1.51,0,3-.07,4.53,0,.38-.16.76-.13,1.13.34,3.39-1,6.32-2.68,9.06a20.37,20.37,0,0,1-37.76-10.24c0-2,0-4,0-6.05a10.55,10.55,0,0,0-10.47-10.91c-3.7-.15-7.41,0-11.11,0-1,0-1.33.39-1.33,1.35,0,5.83,0,11.66,0,17.49a5.11,5.11,0,0,0,4.32,5c.58.11,1.19.12,1.78.23a4.1,4.1,0,0,1,3.39,3.89c.09,3.21,0,6.42,0,9.64,0,.81-.34,1.21-1.17,1.18-.66,0-1.31,0-2,0H15.72c-2.65,0-2.35.08-2.36-2.42s0-5.12,0-7.68c0-2.88,1.45-4.41,4.32-4.73,3.47-.38,5.2-2.31,5.2-5.88q0-27.3,0-54.6c0-3.25,0-6.51,0-9.76.06-3.42.4-6.85.3-10.26-.72-24.84-.09-49.67-.31-74.51A9.59,9.59,0,0,1,24,15a8.13,8.13,0,0,1,6.67-4.1c.65,0,1.31,0,2,0h75.85a17.32,17.32,0,0,1,2.28.08A8.14,8.14,0,0,1,118,19c.07,3.48,0,7,0,10.46ZM70.47,90.5c8,0,15.91-.14,23.85.06,4.92.12,6.76-2.57,6.72-6.7-.14-14.7-.06-29.4-.05-44.09,0-.65,0-1.31.05-2a19.82,19.82,0,0,0-.64-7.39,2.56,2.56,0,0,0-2-2,16.54,16.54,0,0,0-3.52-.56c-6,.05-12-.12-18.07,0-2.65,0-5.31-.2-8-.31-.32,0-.65,0-1,0-1.19.1-2.38.27-3.56.28-4.58,0-9.15,0-13.73,0-1.85,0-3.7,0-5.55,0a5,5,0,0,0-5.12,5c0,.38,0,.76,0,1.15q0,25.07,0,50.15a15,15,0,0,0,.12,2.12,4.12,4.12,0,0,0,2.31,3.36,8.75,8.75,0,0,0,3.42.77C54,90.53,62.25,90.5,70.47,90.5ZM170,95.57c.09-2.14.09-2.12-2.11-2.38-2.41-.29-4.83-.62-7.24-1a2.82,2.82,0,0,1-1-.43,3.74,3.74,0,0,1-1.72-4.36c.44-1.46,1-2.87,1.58-4.29,1.21-3.16,2.44-6.3,3.63-9.46.44-1.16.41-1.29-.83-1.52a24.71,24.71,0,0,0-4.52-.49,4.34,4.34,0,0,0-4.32,3.15c-1.51,4.49-3,9-4.38,13.52a6,6,0,0,0,0,2.88c.65,2.88,2.87,4.14,5.49,4.71,2,.43,4.08.54,6.12.84,2.45.36,4.89.81,7.35,1.15,1.87.26,1.88.21,2-1.75C169.92,96,169.93,95.85,170,95.57Z"/></g></svg>