<svg id="Layer_1" data-name="Layer 1" xmlns="http://www.w3.org/2000/svg" viewBox="0 0 200 200"><g id="smW1k5"><path d="M42.72,34.53a150.24,150.24,0,0,0,49.85,39l-4.83,6.12c-17.9-11.83-38.06-15.43-59-16C27.72,54.08,32.87,41.5,42.72,34.53ZM90.43,73.82s0,0-.07,0C84.22,72.17,78,70.94,72,68.91c-12.92-4.39-25.71-9.18-38.53-13.84a1.87,1.87,0,0,0-2,.24c-1.88,1.44-2.18,3.38-1.84,5.56A1.1,1.1,0,0,0,30.76,62c3.5.38,7,.86,10.49,1.22a108.41,108.41,0,0,1,29.2,6.74c5.64,2.24,11.16,4.77,16.94,7.26Z"/><path d="M87.33,80.26l-3.48,5.33c-3.57-.94-7-2-10.58-2.76a73.38,73.38,0,0,0-27.58-1.3,45.46,45.46,0,0,0-18.61,7.09c-.38.26-.76.49-1.29.83-.3-.68-.6-1.28-.84-1.9-2.16-5.63-2.94-11.36-.71-17.13A33.89,33.89,0,0,1,27.35,65a1.81,1.81,0,0,1,1.31-.67c16.89.27,33.28,2.93,48.7,10.17,2.49,1.17,4.85,2.61,7.25,4C85.53,79,86.39,79.63,87.33,80.26ZM26.08,86.87a20.43,20.43,0,0,1,8.54-5.09,50.56,50.56,0,0,1,16.61-2.39c10.17,0,20.09,1.75,29.93,4.12a6.65,6.65,0,0,0,.78.1.86.86,0,0,0-.47-.43c-11.08-4.73-22.58-7.61-34.7-7.67A54.94,54.94,0,0,0,26,79.24c-.35.14-.86.43-.9.71A11,11,0,0,0,26.08,86.87Z"/><path d="M60.88,15.57c1.22,3.59,2.19,6.85,3.45,10A93.79,93.79,0,0,0,82.58,54.13c3.78,4.15,8,7.91,12,11.88a2.59,2.59,0,0,1,.57,1.45c.07.52-.16,1.07-.12,1.59a4.29,4.29,0,0,1-2,4c-1.88-1-3.86-1.94-5.8-3A149,149,0,0,1,44.63,35.88,3.33,3.33,0,0,1,44,31.76C46.58,26.09,50,21.17,55.51,18A57.7,57.7,0,0,1,60.88,15.57Zm31.2,54.87.25-.35-.89-.71a204.52,204.52,0,0,1-23-20.25c-3.26-3.43-6.37-7-9.28-10.77-3.46-4.47-6.36-9.28-6.94-15.3a18.43,18.43,0,0,0-7,9.68,1.22,1.22,0,0,0,.35.88C56.2,45.16,67.68,55.69,81,64.12,84.55,66.4,88.37,68.34,92.08,70.44Z"/><path d="M34.14,111.57a13.37,13.37,0,0,1-8.29-10.31,24.77,24.77,0,0,1,.26-10.6,2.56,2.56,0,0,1,1.08-1.35A44.55,44.55,0,0,1,46.55,82c11.6-1.63,22.89,0,34,3.33.88.26,1.75.56,2.62.84.06,0,.11.09.21.18-.72,1.45-1.39,2.95-2.22,4.35-.18.31-1,.41-1.45.37a59,59,0,0,0-18,1.16c-11.44,2.63-20.55,8.67-27,18.56C34.54,111,34.38,111.24,34.14,111.57ZM79.62,86.8a6.5,6.5,0,0,0-.75-.12C67,86.44,55.43,88,44.39,92.57A50.57,50.57,0,0,0,29,102.37a1.84,1.84,0,0,0-.62,1.3c.36,2.56,3.36,5.25,6,5.45a26.52,26.52,0,0,1,5.35-7.52c6.09-6.18,13.62-9.76,21.87-12A91.09,91.09,0,0,1,79.62,86.8Z"/><path d="M121.35,116.76c-3.43.12-6.76.15-10.07.39-6.16.43-12.26,1.31-18,3.66a19.61,19.61,0,0,0-4.12,2.25c-3,2.19-3.14,5.18-.09,7.33a24.05,24.05,0,0,0,6.12,3.07c7.24,2.47,14.79,3.16,22.4,3.25,8.3.09,16.53-.5,24.5-3a26.28,26.28,0,0,0,6.12-2.8c3.82-2.41,3.8-5.59.08-8.18-3.12-2.15-6.72-3.1-10.34-3.93-1.55-.36-3.13-.64-4.68-1.08,1.59-.17,3.17-.37,4.76-.5a2.71,2.71,0,0,1,1.22.2q13.44,5,26.86,10.08c.24.09.46.22.83.4l-15.17,5q-21.36,7-42.7,14.12a2.33,2.33,0,0,1-2.4-.35q-15.4-11.24-30.85-22.4c-.24-.17-.48-.36-1-.72l46.51-10.15ZM88.17,121l-11,3.11,9,6.08C84.82,126.48,85.88,123.66,88.17,121Z"/><path d="M80.34,5c-3.92,17.14,1,32,10.84,45.71,1.54,2.14,3.27,4.14,5,6.17a1.69,1.69,0,0,1,.45,1.62c-.5,2.35-.9,4.73-1.35,7.17a2.33,2.33,0,0,1-.51-.28c-12.26-10.74-22.48-23.05-29-38.11-1.5-3.45-2.49-7.13-3.74-10.7a2.32,2.32,0,0,1,.35-2.14c2.24-3.55,4.89-6.67,8.76-8.53A13.23,13.23,0,0,1,80.34,5ZM77.55,6.39A10.45,10.45,0,0,0,70,7.89a18.06,18.06,0,0,0-6,6.49,2.18,2.18,0,0,0-.24,2A117.52,117.52,0,0,0,75.93,42.05c4.67,7.27,10.15,13.81,17.38,18.71.39.27.8.52,1.2.78-1.35-1.85-2.83-3.54-4.21-5.3-5.77-7.32-10.65-15.15-13.57-24.07-2-6.05-2.9-12.23-1.47-18.53C75.81,11.2,76.76,8.85,77.55,6.39Z"/><path d="M155.16,153.46l-41.79,18c0-.47-.07-.8-.07-1.12,0-5.05,0-10.11,0-15.16a1.31,1.31,0,0,1,1-1.47c9.43-3.36,18.85-6.78,28.29-10.14a3.24,3.24,0,0,1,1.85,0,14.72,14.72,0,0,1,8.35,6.27C153.54,151,154.32,152.18,155.16,153.46ZM143.38,144a3.27,3.27,0,0,0-.62.09q-13.75,5.13-27.51,10.25c-.64.24-.74.62-.73,1.22,0,4.09,0,8.18,0,12.28v1.86Z"/><path d="M80.6,91.86a2.42,2.42,0,0,1-2.17,2.33c-7.82,2.07-13.52,7-17.62,13.79-1.62,2.7-2.72,5.71-4.08,8.57-.18.39-.41.91-.74,1-4,1.6-8,2.65-12.31,1.87a11.76,11.76,0,0,1-8.6-6.42,1.69,1.69,0,0,1,.13-2C41.87,101,51.27,95,63,92.59a57.71,57.71,0,0,1,16.69-.89C80,91.73,80.3,91.81,80.6,91.86Zm-2.49.69,0-.17a3.56,3.56,0,0,0-.65,0c-3.84.3-7.74.29-11.52,1A45.74,45.74,0,0,0,36.73,111a1.94,1.94,0,0,0-.15,2.48,8.31,8.31,0,0,0,7.65,3.5c.11-.54.2-1.1.35-1.66,1.25-4.91,4.21-8.7,8-11.87C58.35,98.68,65.14,96,72.28,94,74.21,93.46,76.16,93,78.11,92.55Z"/><path d="M106.62,189.91c1-3.13,1.78-5.95,2.73-8.73a2.61,2.61,0,0,1,1.34-1.23q21.53-9.84,43.09-19.62l4.28-1.94,4.22,3.65Z"/><path d="M96.89,57c-2.19-2.84-4.28-5.37-6.16-8.05A59.47,59.47,0,0,1,80.16,23.81a44.16,44.16,0,0,1,.57-17.55,2.7,2.7,0,0,1,1.56-1.94,10.25,10.25,0,0,1,10.4.2,20.24,20.24,0,0,1,6.68,6.59c-1,1.44-2.16,2.75-3,4.21-3.22,5.44-4,11.4-3.58,17.6a55.13,55.13,0,0,0,4.57,17.69,4.71,4.71,0,0,1,.2,4.12A17,17,0,0,0,96.89,57ZM92.22,6.92c-2.67-2.18-5.65-2.25-8.81-1.15a1.72,1.72,0,0,0-1.24,1.44,45.6,45.6,0,0,0-.42,16.55c1.78,10.93,6.72,20.32,14,28.55.13.14.29.25.43.38C87.53,38.06,84.46,23,92.22,6.92Z"/><path d="M113.87,95a68.39,68.39,0,0,0,7.6-23.41c.74.81,1.43,1.67,2.22,2.42a125.2,125.2,0,0,0,16.93,13.33c.82.55,1,1.09.61,1.86-1.21,2.55-2.44,5.08-3.71,7.6a1.13,1.13,0,0,1-1,.48c-7-2.22-14.32-2.24-21.6-2.14-.27,0-.54,0-.8,0C114.1,95.14,114,95.08,113.87,95Zm8.26-20.28c-.33,2.21-.6,4.42-1,6.61-.14.73,0,1.16.6,1.48,2.67,1.31,5.26,2.81,8,3.89a34.19,34.19,0,0,0,10.5,2.13C133,85.61,127.34,80.32,122.13,74.72Z"/><path d="M106,189.93,68.73,151.44c1.73-.74,3.34-1.47,5-2.1.25-.09.74.25,1,.51q8.1,7.2,16.18,14.44c5.71,5.1,11.4,10.2,17.13,15.28a1.47,1.47,0,0,1,.53,1.84C107.69,184.17,106.87,187,106,189.93ZM70.31,151.56l35,27.41c-4.95-4.86-10.06-9.52-15.17-14.19S80,155.49,74.89,150.87c-.32-.3-.88-.66-1.22-.57A32.7,32.7,0,0,0,70.31,151.56Z"/><path d="M170.51,131.13,108,153c0-1.65,0-3.16,0-4.66,0-.25.63-.57,1-.69q9-3,18.09-6,19.81-6.52,39.64-13.09a1.37,1.37,0,0,1,1.84.48C169.17,129.71,169.8,130.33,170.51,131.13Z"/><path d="M99.87,11.7a9.24,9.24,0,0,1,3.93,3.74,36.79,36.79,0,0,1,4.41,12c.58,2.65,1,5.34,1.37,8a1.5,1.5,0,0,1-.38,1.25c-4.24,2.75-6.93,6.73-9.07,11.16-.58,1.2-1.06,2.45-1.6,3.7-.08-.06-.2-.11-.24-.19-3.25-7.64-5.48-15.5-4.93-23.92a25.18,25.18,0,0,1,4.73-13.68C98.63,13,99.28,12.39,99.87,11.7ZM98.11,47.45h.53c0-3.4-.11-6.81,0-10.2A37.1,37.1,0,0,1,100.5,26.1c.49-1.33,1.12-2.9,2.18-3.65a2.51,2.51,0,0,0,1-3.18,21.87,21.87,0,0,0-1.22-3.55,4.09,4.09,0,0,0-2.81-2.23C92.69,24.6,94.52,36,98.11,47.45Z"/><path d="M121.39,121.61c0,1.06-.06,2,1,2.66.56.37.55,1.59.84,2.41a8.79,8.79,0,0,0,.5,1.08l.38,0c.28-.89.52-1.8.87-2.67a14.45,14.45,0,0,1,.84-1.31c.25-.48.42-1,.71-1.7,3.17.52,6.49,1,9.27,3.1,1.3,1,1.3,2.17,0,3.14a10.51,10.51,0,0,1-3.12,1.65,47.3,47.3,0,0,1-27.58,0,10.47,10.47,0,0,1-3.19-1.75c-1.14-.87-1.09-2,0-2.91a6.91,6.91,0,0,1,1.72-1.13C109.29,121.72,115.27,121.56,121.39,121.61ZM117.31,127h3.22c0-1.07,0-2,0-3a1.6,1.6,0,0,0-3.19-.09C117.23,124.91,117.31,125.94,117.31,127Z"/><path d="M80,106.17A15.15,15.15,0,0,1,79.72,97a41.5,41.5,0,0,1,6.8-14.31c2.5-3.55,5.31-6.9,8-10.29a2.22,2.22,0,0,1,1.64-.66,23,23,0,0,1,3.35.71c.87.22,1,.72.81,1.62a61,61,0,0,1-6.74,15.76,71.16,71.16,0,0,1-12.36,15.3C80.9,105.43,80.52,105.74,80,106.17Zm1-3.8c2.62-10.64,8.39-19.7,14.15-28.78-5,5.15-9.41,10.77-12.17,17.49A23,23,0,0,0,81.05,102.37Z"/><path d="M96.73,133.12c2.82-.77,5.65-1.54,8.48-2.28a2,2,0,0,1,.89.14,50.66,50.66,0,0,0,25,.17,20,20,0,0,0,4-1.58c1.52-.76,2.64-1.87,2-3.92L145,125c1.26-.1,2.52-.16,3.78-.3a1.13,1.13,0,0,1,1.32.8,2.78,2.78,0,0,1-.51,3.3,16.65,16.65,0,0,1-3.66,2.7A39.17,39.17,0,0,1,133.74,135a95.13,95.13,0,0,1-33.23-.68c-1.27-.26-2.52-.62-3.78-.93Z"/><path d="M109.63,37.14c2,9.33-2.75,28.33-8.63,35L95.38,70.7c.31-2.51.56-5.17,1-7.8A50.49,50.49,0,0,1,101.79,46a25.17,25.17,0,0,1,5.73-7.24C108.16,38.18,108.86,37.71,109.63,37.14ZM96.94,68.77l.27.07a124,124,0,0,1,10.8-29,3.08,3.08,0,0,0-1.12.76,38.66,38.66,0,0,0-3.48,4.66c-2.64,4.69-3.94,9.85-5,15.07C97.84,63.13,97.42,66,96.94,68.77Z"/><path d="M126.33,117.78v-3.37l6.6-1.37,8-1.63a4.21,4.21,0,0,0,3.46-4.13c0-1.84,0-3.68,0-5.51A3.34,3.34,0,0,0,142,98.32a35.78,35.78,0,0,0-3.81-.94l4.21-9a14.6,14.6,0,0,1,9.67,10.52,20.37,20.37,0,0,1,.16,9.22,9.1,9.1,0,0,1-6.87,7.16,50,50,0,0,1-7.43,1.28C134.13,117,130.29,117.36,126.33,117.78Zm13.39-21.52c5.8,0,8.5,4.56,11.91,8.23,0-6.44-3.89-13.12-8.39-14.58C143.31,92.72,141.45,94.49,139.72,96.26Z"/><path d="M115,76.43c-1,3.24-2,6.47-3,9.61-2.47-.67-4.75-1.46-7.11-1.87s-4.75-.42-7.07-.61c.92-2.65,2.06-5.33,2.76-8.13.57-2.32,2-4.09,3.14-6.06Z"/><path d="M78.22,132.21,85,137.15q9.53,7,19,14a1.93,1.93,0,0,1,.81,1.21c0,6.24,0,12.47,0,18.94a9.43,9.43,0,0,1-.83-.6Q91.42,159.26,78.81,147.8a1.94,1.94,0,0,1-.63-1.23c-.05-4.55,0-9.1,0-13.65C78.15,132.74,78.19,132.57,78.22,132.21Zm24.34,34.36c0-4.81,0-9.33,0-13.84a1.81,1.81,0,0,0-.72-1.15q-10-7.76-20.1-15.45c-.25-.19-.53-.34-.94-.6,0,3.81,0,7.44,0,11.07a2,2,0,0,0,.83,1.74q7.86,6.79,15.67,13.62Z"/><path d="M90.26,96c.74-1.08,1.43-2,2-3,1.55-2.59,3-5.23,4.57-7.82A1.8,1.8,0,0,1,98,84.4a28.66,28.66,0,0,1,13.22,2.25c.1,0,.17.14.4.34-1.1,2.67-2.19,5.4-3.38,8.08-.12.27-.82.39-1.25.4-5,.12-9.94.21-14.91.32A18.27,18.27,0,0,0,90.26,96Z"/><path d="M79.39,94.61c-.27,2.5-.66,5-.76,7.41a22.56,22.56,0,0,0,.66,3.93A1.45,1.45,0,0,1,79.1,107c-5,4.87-10.71,8.64-17.73,10-1.34.26-2.72.3-4.11.45C58.31,108.15,70.67,95.57,79.39,94.61Zm-20,20.93a3.06,3.06,0,0,0,.57.21c2.81.34,5.35-.64,7.86-1.69.26-.11.36-.69.46-1.07a43.3,43.3,0,0,1,1.17-4.41,34,34,0,0,1,7.2-10.82c.16-.17.33-.33.47-.51a3.88,3.88,0,0,0,.32-.47C68.26,100,63.37,107.25,59.37,115.54Z"/><path d="M107.35,152.79,69.77,125.23c1.44-.51,2.7-1,4-1.39.24-.07.64.16.9.35q16,11.59,32,23.24a1.61,1.61,0,0,1,.64,1.07C107.39,149.83,107.35,151.16,107.35,152.79ZM71.47,125.54,89.28,136a1.56,1.56,0,0,0-.63-.76C84.37,132.1,80,129,75.83,125.78A3.35,3.35,0,0,0,71.47,125.54Z"/><path d="M112.69,172.47,155.43,154l.82,1.26-44.35,19.1c0-.48-.08-.87-.09-1.26-.11-6.55-.21-13.09-.36-19.64a1.26,1.26,0,0,1,1-1.43c8.89-3.08,17.76-6.22,26.66-9.26a9.55,9.55,0,0,1,2.93,0l0,.33-10.34,3.73c-6,2.15-11.94,4.32-17.93,6.42a1.51,1.51,0,0,0-1.18,1.73c0,5.36,0,10.72,0,16.08Z"/><path d="M163.26,162.28l.38,1.63-57.09,29.47a2.12,2.12,0,0,1-.13-.34c-.16-2.26-.16-2.26,1.86-3.27l53.83-26.94Z"/><path d="M105.48,152.4a7.83,7.83,0,0,0,2.52,1.17,9.87,9.87,0,0,0,3-.95c0,1.9,0,3.61,0,5.32.08,5.24.16,10.48.29,15.72,0,.7-.12,1.12-.83,1.39a1.69,1.69,0,0,1-1.83-.14c-2.59-1.77-3.44-4-3.23-7.17.31-4.69.1-9.4.12-14.11Z"/><path d="M90.32,123.05c6.17-4.29,21.93-6,31-5.49V121H120.2c-5.27-.05-10.48.26-15.5,2.06a3.65,3.65,0,0,0-1,.39c-1.41,1.09-3,.89-4.57.66C96.31,123.71,93.43,123.42,90.32,123.05Z"/><path d="M177.61,167.63a12.28,12.28,0,0,1-6.86-2.74,15.07,15.07,0,0,0-1.62-1.27c-.9-.57-1.75-.82-2.59.26a1.35,1.35,0,0,1-2.38-.48,5.49,5.49,0,0,1,1-5c1-1,2.05-.87,2.69.35a2.32,2.32,0,0,0,2.46,1.3c1.48-.13,2.95-.46,4.44-.5a17.15,17.15,0,0,1,4.3.31c2.21.51,3.2,2.25,2.87,4.53S180.3,167.65,177.61,167.63Z"/><path d="M104.06,130.49l-8.41,2.27a1.21,1.21,0,0,1-.68,0,16.4,16.4,0,0,1-6.34-3.56c-1.61-1.64-1.54-3.52.2-5.1a1.73,1.73,0,0,1,1.19-.46c3.68.4,7.35.86,11.28,1.34-1,1.16-1.15,2.35-.14,3.34A28.39,28.39,0,0,0,104.06,130.49Z"/><path d="M148.47,141.41,160,137.25v2.52c0,3.36-.07,6.73,0,10.09,0,1.35-.43,2-1.78,2.15-2.45-4.19-4.73-8.61-9.86-10.32Z"/><path d="M108.5,58.27c1.41,1.54,2.84,3.19,4.36,4.74,1.23,1.25,2.59,2.38,3.86,3.59.24.23.53.64.47.9-.63,2.7-1.32,5.4-2.06,8.31l-11-6.87Zm6.7,12.32c.27-1.2.53-2.23.71-3.27a1,1,0,0,0-.35-.72c-1.81-1.74-3.65-3.46-5.46-5.2-.4-.38-.74-.83-1.14-1.28a6,6,0,0,0-1.4,4.39,1.54,1.54,0,0,0,.4,1C110.31,67.2,112.69,68.84,115.2,70.59Z"/><path d="M109.65,178c-.3-1.87-.3-1.87,1.2-2.51l44.75-19.29c.65-.29,1.23-.57,1.47.59Z"/><path d="M68.77,152.42l11.57,11.94c8.11,8.38,16.21,16.78,24.37,25.11a3.53,3.53,0,0,1,1,3.51c-.35-.33-.65-.59-.92-.88Q87,173.29,69.25,154.47a7.59,7.59,0,0,1-.94-1.84Z"/><path d="M108.83,177.8,76.07,148.36c1.12-.81,1.87-.52,2.77.3q14.46,13.18,29,26.28A2.52,2.52,0,0,1,108.83,177.8Z"/><path d="M163.62,159.89l-.36,1.79a18.08,18.08,0,0,1-2.92-2,28.63,28.63,0,0,1-3-3.87c-1.27-1.86-2.45-3.79-3.61-5.72-2.52-4.2-6.33-6.54-11-7.68L141.3,142c1.63-.56,2.84-1.22,4.47-.73a16.12,16.12,0,0,1,10,7.69c1.25,2.24,2.57,4.44,3.88,6.65A11,11,0,0,0,163.62,159.89Z"/><path d="M108.91,95.28c3.9-8.85,6.6-18.07,9.17-27.51.23.54.71,1.11.67,1.64-.64,9-2.83,17.56-8,25.14-.4.58-.81,1-1.57.88C109.12,95.43,109.09,95.39,108.91,95.28Z"/><path d="M162.48,134.59c0,5.91,0,11.61,0,17.3a1.27,1.27,0,0,1-.59.92c-.76.42-1.6.72-2.49,1.1l-.67-1.15c.09-.11.13-.2.18-.21,1.59-.35,1.81-1.41,1.77-2.87-.1-3.93,0-7.87,0-11.81,0-.42,0-.84,0-1.38-.42.12-.74.2-1.05.31-3.63,1.3-7.27,2.58-10.88,3.94a3.23,3.23,0,0,1-3.11-.24Z"/><path d="M142.59,121,133.7,123a1.32,1.32,0,0,1-.56,0l-6.94-1.81c.32-.34.63-.66.92-1a5.23,5.23,0,0,1,6-1.75c3.15.84,6.38,1.37,9.57,2Z"/><path d="M109.38,179.26a5.78,5.78,0,0,1,1.12-.88q15.27-6.87,30.55-13.7l15.49-6.93a8.81,8.81,0,0,1,1.14-.34l.14.39-48.11,21.87Z"/><path d="M119.38,69.67A2.3,2.3,0,0,1,120.54,72a62.2,62.2,0,0,1-6.69,21.82A2.21,2.21,0,0,1,111,95.21a44.07,44.07,0,0,0,5.85-12.07A59.63,59.63,0,0,0,119.38,69.67Z"/><path d="M122,113.49h3.54v9.9c-1,0-2,0-2.9,0a1,1,0,0,1-.61-.71C122,119.65,122,116.63,122,113.49Z"/><path d="M108.79,179.42,74.76,149l.16-.35a3.77,3.77,0,0,1,1.09.51c3.92,3.48,7.81,7,11.71,10.49l20.48,18.41a7.3,7.3,0,0,1,.87,1.12Z"/><path d="M163.68,159.34,161.12,157c2.15-1,4.11-1.88,6.08-2.74a.9.9,0,0,1,.63.09l5.12,2.35-4.25,2.13C167,156.47,165.82,156.57,163.68,159.34Z"/><path d="M106.4,197c0-.88,0-1.6,0-2.32a1.12,1.12,0,0,1,.47-.79c2.9-1.51,5.83-3,8.76-4.47.52,2,.39,2.37-1.3,3.29l-6.83,3.72C107.2,196.61,106.87,196.77,106.4,197Z"/><path d="M148.8,124.07c-1.41.12-2.72.25-4,.35-2.24.19-4.49.29-6.73.56a3,3,0,0,1-2.88-1.17l8.1-1.64C145.67,121.68,146.92,122.09,148.8,124.07Z"/><path d="M99.08,186.86c2.22,2.38,4.41,4.61,6.4,7,.48.58.3,1.71.42,2.59l-.37.24c-.41-.47-.8-1-1.23-1.4a50.47,50.47,0,0,0-3.79-3.81A4.21,4.21,0,0,1,99.08,186.86Z"/><path d="M169.43,159.16l3.77-1.88c.44,1.6.34,1.8-1.18,2-.84.12-1.7.13-2.56.19Z"/><path d="M159.81,154.43c1.5-.57,2.86-1.69,4.86-1-1.46.65-2.74,1.27-4.06,1.78-.22.09-.61-.26-.92-.41Z"/><path d="M166.61,153.8l-5.77,2.62C161.31,155.38,165.7,153.51,166.61,153.8Z"/><path d="M165.21,165.8A8.63,8.63,0,0,1,166,165c.32-.26.81-.36,1-.66.61-.83,1.18-.55,2,0l-3.51,1.83Z"/><path d="M128.28,113.09c-1.54,1.36-2.24-.39-3.32-.36l.07-.34Z"/><path d="M128.41,118.33l-2,1.69C126.14,118.25,126.18,118.22,128.41,118.33Z"/><path d="M124.52,124.08l-.22,1h-1l-.18-1Z"/><path d="M119.89,126.45H118A15.81,15.81,0,0,1,118,124c0-.33.59-.84.85-.81a1.37,1.37,0,0,1,1,.82A13.43,13.43,0,0,1,119.89,126.45Z"/><path d="M101.83,165.2c-5.94-5.2-11.6-10.36-17.5-15.24-2.26-1.86-3.31-3.77-3-6.68a55.34,55.34,0,0,0,0-6.46c.34.21.6.34.82.51q9.42,7.24,18.85,14.48a1.76,1.76,0,0,1,.82,1.6c0,3.56,0,7.12,0,10.68C101.89,164.39,101.86,164.68,101.83,165.2ZM82.14,138.32c0,2.72,0,5.15,0,7.57a1.12,1.12,0,0,0,.94,1.29c3.83,1.17,7.65,2.38,11.48,3.58l6.06,1.91.09-.19Z"/></g></svg>