<svg id="Layer_1" data-name="Layer 1" xmlns="http://www.w3.org/2000/svg" viewBox="0 0 200 200"><g id="mBUBjU"><path d="M52.6,104.39a11.5,11.5,0,0,0,1.69,1.44c15.14,6.49,30.25,13,45.48,19.31,1.83.75,4.58.38,6.53-.41,9.57-3.84,19-8,28.5-12,5.74-2.47,11.46-5,17.37-7.6-.63-.69-.79-1-1-1.12-15.27-6.62-30.52-13.27-45.86-19.73a7.5,7.5,0,0,0-5.26,0C84.36,90.73,68.79,97.46,52.6,104.39Zm94.87,48.19c-11.33-5-21.76-8.66-31.31-13.94-9.73-5.37-18.19-5.12-27.82.18s-19.82,9-30.78,13.8C70.31,158.2,82,163.43,93.77,168.37c3.07,1.28,4.34,2.85,4.18,6.26-.28,6.09-.08,12.21-.08,18.31,1.35.26,2.17.36,3,.59,5.77,1.7,6.27,1.35,6.3-4.66,0-4.66.19-9.33-.08-14-.21-3.51,1.06-5.3,4.35-6.66C123.05,163.39,134.56,158.21,147.47,152.58Zm-1.86-94.73,0-1.5C131.77,50.46,117.91,44.5,104,38.77c-1.3-.54-3.3-.07-4.73.54C87,44.48,74.74,49.77,62.52,55.07A31.56,31.56,0,0,0,59,57.18a15,15,0,0,0,2,1.4c13,5.56,26,11.18,39.09,16.54a8.39,8.39,0,0,0,5.64-.29c7-2.74,13.83-5.77,20.71-8.72C132.86,63.38,139.23,60.6,145.61,57.85Zm16.63-.12-49.48,21.7,49.48,21.73Zm-69.34,72-61.34-25.4,19.21,43.9Zm20.87-.7v1.44L154.2,148.2l19.09-43.94ZM42.48,101.12,90.21,80.24l.15-1.51-47.88-21Zm78.16-77.95c-5.62-6.32-10.43-12-15.58-17.32-.83-.86-3.88-1-4.64-.25C95,11.07,89.86,16.87,84.23,23c6,2.59,11.23,4.93,16.54,7.08a5,5,0,0,0,3.38,0C109.34,28,114.47,25.77,120.64,23.17Zm23,25.14.94-1.11c-2.6-6.64-5.16-13.3-7.87-19.89-.28-.69-1.7-1.59-2.19-1.4-6.62,2.68-13.18,5.53-19.75,8.34l.4,1.45ZM60.55,46.67,61.61,48,89.75,35.62V34.2c-6.13-2.73-12.22-5.55-18.44-8.05-.78-.32-2.9.76-3.29,1.67C65.36,34,63,40.37,60.55,46.67Z"/></g></svg>