<svg id="Layer_1" data-name="Layer 1" xmlns="http://www.w3.org/2000/svg" viewBox="0 0 200 200"><defs><style>.cls-1{fill:#010002;}</style></defs><path class="cls-1" d="M63.35,71.86H150.9V66.39a8.23,8.23,0,0,0-8.21-8.21H106.56V53.4A12.33,12.33,0,0,0,94.25,41.09h-21A12.36,12.36,0,0,0,60.91,53.4v4.79H24.78a8.21,8.21,0,0,0-8.21,8.2V139.7l27.6-55.91C47.52,77,55.78,71.86,63.35,71.86ZM69.12,53.4a4.12,4.12,0,0,1,1.21-2.89,4,4,0,0,1,2.89-1.22h21a4.1,4.1,0,0,1,4.1,4.11v4.79H69.12V53.4Z"/><path class="cls-1" d="M181.27,80.06H63.35a14.44,14.44,0,0,0-11.82,7.35L19.82,151.65c-2,4,.06,7.35,4.57,7.35H142.31a14.49,14.49,0,0,0,11.84-7.35l31.7-64.24C187.84,83.37,185.79,80.06,181.27,80.06Z"/></svg>