<svg id="Layer_1" data-name="Layer 1" xmlns="http://www.w3.org/2000/svg" viewBox="0 0 200 200"><path d="M91.74,59.14A12.93,12.93,0,1,0,78.81,72.06,12.94,12.94,0,0,0,91.74,59.14ZM78.81,63.92a4.79,4.79,0,1,1,4.79-4.78A4.79,4.79,0,0,1,78.81,63.92Z"/><path d="M73.58,79.65v28.91a4.07,4.07,0,1,0,8.14,0V79.65a4.07,4.07,0,1,0-8.14,0Z"/><path d="M36.78,103.78s0,.07.06.1a4.15,4.15,0,0,0,.75,1.12s0,.09.09.14.15.08.22.14a3.63,3.63,0,0,0,.9.6c.13.06.25.13.38.18a4.27,4.27,0,0,0,1.38.26,4,4,0,0,0,1.51-.29h0a3.89,3.89,0,0,0,.69-.45,3.53,3.53,0,0,0,.67-.44h0L59.11,89.47v63.6l-3.45,24.85a4.06,4.06,0,0,0,3.47,4.59,3.73,3.73,0,0,0,.57,0,4.07,4.07,0,0,0,4-3.5l3.48-25.14a3.52,3.52,0,0,0,0-.56V79.65a4.21,4.21,0,0,0-.31-1.56,4.14,4.14,0,0,0-2.21-2.2,4.09,4.09,0,0,0-3.11,0,4,4,0,0,0-1.32.89L42.05,95,31,67.18a4.07,4.07,0,1,0-7.56,3l13.39,33.58S36.78,103.78,36.78,103.78Z"/><path d="M145.37,83.72a4.08,4.08,0,0,0,3.94-3.08v0c2.25-1.56,4.69-4.73,5.38-11.27a50.1,50.1,0,0,0-2.28-19.09c-3.56-11.71-11-23.52-19.61-23.52A8.68,8.68,0,0,0,131,27a4,4,0,0,0-5,1.21L98.5,65.57a4.06,4.06,0,0,0,1,5.79c.54.37,1.53,1,20.25,5.93a4,4,0,0,0-.5.72l-7.51,17.15L93.35,76.77a4.07,4.07,0,0,0-4.43-.88,4.07,4.07,0,0,0-2.21,2.2,4,4,0,0,0-.31,1.56v46.78a4,4,0,0,0,.29,1.5l8.09,20.26v31.74a4.07,4.07,0,0,0,8.14,0V147.41a4.1,4.1,0,0,0-.29-1.51l-8.09-20.26V89.48l15.58,15.59h0l.08.08c.18.17.41.25.6.4a4.62,4.62,0,0,0,.64.45h.06a4,4,0,0,0,1.52.32h.07a4.21,4.21,0,0,0,1.36-.26l.37-.17a4.25,4.25,0,0,0,.94-.62,1.37,1.37,0,0,1,.2-.13s0-.07.06-.09a4.13,4.13,0,0,0,.79-1.15l9.9-22.62a4,4,0,0,0,.25-2.11c4.87,1.25,10.61,2.71,17.41,4.43A4.78,4.78,0,0,0,145.37,83.72Zm-.76-31.09a42.18,42.18,0,0,1,2,15.86c-.41,3.83-1.57,5.38-2.07,5.53a.36.36,0,0,1-.15,0c-2.3,0-8.22-5.93-11.81-17.75-2.91-9.58-2.46-17.27-.81-20.36.37-.67.71-1,1.05-1C135.1,34.88,141,40.81,144.61,52.63Zm-22.15-5.89a57,57,0,0,0,2.31,11.92,55.69,55.69,0,0,0,5.77,13c-9-2.31-17.13-4.46-22.12-5.86Z"/><path d="M162.85,47.79a4,4,0,0,0,1.73-.4l13.29-6.29a4.07,4.07,0,1,0-3.47-7.36L161.1,40a4.08,4.08,0,0,0,1.75,7.76Z"/><path d="M162.31,14.54a4.06,4.06,0,0,0-5.75-.18L148,22.41a4.07,4.07,0,0,0,5.59,5.92l8.53-8A4.07,4.07,0,0,0,162.31,14.54Z"/><path d="M164.94,69.66h14a4.07,4.07,0,0,0,0-8.14h-14a4.07,4.07,0,1,0,0,8.14Z"/></svg>