<svg id="Layer_1" data-name="Layer 1" xmlns="http://www.w3.org/2000/svg" viewBox="0 0 200 200"><g id="lOw3Wi"><path d="M60.55,178.86c-14,0-27.92-.05-41.88.06-2.26,0-2.72-.66-2.67-2.76.14-5.41,0-10.84.08-16.25a4.41,4.41,0,0,1,1-2.82C21.29,153,25.63,149,29.82,144.9a3.86,3.86,0,0,0,.55-2.46c0-11.25.05-22.5,0-33.75a5.71,5.71,0,0,1,1.94-4.75c2.85-2.58,5.4-5.5,8.26-8.07a6.31,6.31,0,0,1,3.79-1.57c11.42-.12,22.83-.06,34.25-.07A5.31,5.31,0,0,0,80.75,94c.32-.14.56-1,.42-1.47a1.9,1.9,0,0,0-1.25-1.1c-1.21-.17-2.47,0-3.69-.11-.88-.1-2.48-.49-2.48-.73,0-1.45,0-3.23.79-4.25a20.4,20.4,0,0,1,4.76-3.85,3.75,3.75,0,0,0,2-3.9A4.83,4.83,0,0,1,83.08,74q6.15-5.61,12.1-11.46a3.59,3.59,0,0,0,.5-2.26c0-11.41.06-22.83,0-34.24a5.33,5.33,0,0,1,1.8-4.3c2.86-2.71,5.53-5.63,8.44-8.27A5.92,5.92,0,0,1,109.47,12c19.71-.09,39.42,0,59.13-.12,2.28,0,2.68.71,2.66,2.78-.08,15.11,0,30.22-.11,45.33,0,2.3.66,3,2.9,2.85s4.76,0,7.14-.06c1.41,0,1.82.5,1.81,1.87-.06,5.83,0,11.66-.07,17.49a4.16,4.16,0,0,1-1.08,2.53c-3.53,3.67-7.1,7.3-10.8,10.79a5.18,5.18,0,0,1-3.29,1.08c-19.38.07-38.76,0-58.14.07-3.55,0-3.58,0-3.58,3.56,0,14.13,0,28.26-.05,42.38,0,2.12.69,2.69,2.67,2.56,2.38-.15,4.77,0,7.15-.05,1.38,0,1.91.52,1.91,1.87,0,5.91,0,11.83-.07,17.74a3.84,3.84,0,0,1-1.13,2.3c-3.47,3.6-7,7.2-10.6,10.63a5.55,5.55,0,0,1-3.48,1.23C88.48,178.89,74.51,178.86,60.55,178.86ZM137.74,14.45c-9.36,0-18.72-.06-28.07.07a6.71,6.71,0,0,0-3.82,1.55c-2.08,1.72-3.81,3.85-5.83,5.64a5.34,5.34,0,0,0-1.89,4.49c.07,12.81,0,25.61,0,38.42a7,7,0,0,0,0,1.71c.07.28.74.7.83.63a34,34,0,0,0,4.62-3.63c.38-.4-.3-1.71-.3-2.6,0-9.93,0-19.87,0-29.8,0-1.71.72-2.28,2.37-2.28q22.41.06,44.82,0c1.84,0,2.38.65,2.37,2.45-.08,9.69-.1,19.38,0,29.06,0,2.05-.71,2.43-2.54,2.41-7.47-.09-15,.3-22.41-.15-5.35-.32-9.59.71-12.6,5.41a31.13,31.13,0,0,1-2.8,3.09,16.13,16.13,0,0,0-1.15,1.76,15.28,15.28,0,0,0,2.11.29c12,0,24-.44,36,.23,7.49.42,13.25-1.41,17.47-7.57a7.7,7.7,0,0,0,1.6-3.84c.1-14.86,0-29.71.08-44.57,0-2.14-.62-2.84-2.81-2.81C156.46,14.51,147.1,14.45,137.74,14.45ZM63.54,155.32v0c9.44,0,18.88,0,28.32-.05a5.86,5.86,0,0,0,3.53-1.16,80.33,80.33,0,0,0,6.81-6.75,4.58,4.58,0,0,0,1.07-2.84q.11-20.94,0-41.88a8.28,8.28,0,0,0-.52-2,12.76,12.76,0,0,0-1.67.92c-3.71,2.85-7.32,5.83-11.11,8.56a4.89,4.89,0,0,0-2.44,4.41c.07,8.62,0,17.25,0,25.87,0,5.25.07,4.25-4.15,4.27-14.21.06-28.41,0-42.62.12-2.32,0-2.69-.83-2.68-2.83.08-9.36.11-18.72,0-28.08,0-2.48.9-3,3.16-3q15.15.15,30.3,0a6.69,6.69,0,0,0,4.08-1.57c3.88-3.53,7.55-7.3,11.27-11a10.13,10.13,0,0,0,1-1.34,9.79,9.79,0,0,0-1.81-.35c-14,0-28.08,0-42.12,0a4.93,4.93,0,0,0-3,1.23c-2.43,2.2-4.77,4.52-7,6.94a4.9,4.9,0,0,0-1.18,3c-.08,15,0,30.05-.1,45.07,0,2,.65,2.45,2.51,2.43C44.65,155.27,54.1,155.32,63.54,155.32Zm-1.77,21.09v-.13c13.47,0,26.93.05,40.4-.08a7.33,7.33,0,0,0,4.24-1.8,67.06,67.06,0,0,0,7-6.94,6.86,6.86,0,0,0,1.57-3.84c.22-3.35.08-6.72.08-10.09,0-6.28,0-6.3-6.26-6-2.06.1-4.11-.21-5.85,1.75-2.65,3-5.26,6.71-8.71,8.12s-7.91.45-11.93.45c-16.42,0-32.84,0-49.27.06-2,0-2.86-.46-2.67-2.59a42.46,42.46,0,0,0,0-5.41,10.66,10.66,0,0,0-.45-2,7.28,7.28,0,0,0-2.07,1c-2.84,2.73-5.66,5.49-8.34,8.37a4.64,4.64,0,0,0-1,2.85c-.08,4.51.12,9,0,13.54-.08,2.32.72,2.88,2.93,2.87C34.85,176.37,48.31,176.41,61.77,176.41ZM140.71,94.1h0c9,0,18.07.05,27.1-.06a5.59,5.59,0,0,0,3.41-1.36c2.73-2.48,5.3-5.14,7.85-7.82a3.93,3.93,0,0,0,1.13-2.3c.11-5.25.1-10.51,0-15.77,0-.49-.59-1.41-.86-1.39-4.3.29-9.06-1.64-12.46,2.95a33.06,33.06,0,0,1-5.73,5.73,7,7,0,0,1-4,1.64c-15.77.12-31.54.07-47.3.13a7.57,7.57,0,0,0-3.14.91c-.46.23-.64,1-.95,1.57a12.08,12.08,0,0,0,1.68.22c4.93,0,9.86,0,14.78,0,.69,0,1.91.45,2,.79.16,1.63.65,3.3-1.17,4.65-3.49,2.59-6.78,5.45-10.12,8.22a14,14,0,0,0-1.4,1.56,17.2,17.2,0,0,0,2.13.26Q127.16,94.11,140.71,94.1ZM87.84,88.8c3,0,6.07,0,9.11,0a18.46,18.46,0,0,1,2.31.36,14.84,14.84,0,0,1-1.41,1.9q-16.71,16.74-33.43,33.46a9.66,9.66,0,0,0-1.16,2,17.65,17.65,0,0,0,2.54-.35c.44-.12.78-.58,1.16-.89q5.49-4.36,11-8.72Q99,99.74,120.13,82.94a8.58,8.58,0,0,0,1.21-1.61,11,11,0,0,0-1.86-.33c-5.75,0-11.5,0-17.25,0a16.73,16.73,0,0,1-2.33-.32,15.51,15.51,0,0,1,1.37-1.92q16-16.7,32.09-33.35a14.67,14.67,0,0,0,1-1.09,1.79,1.79,0,0,0,.17-.67c-.29-.06-.66-.24-.87-.13a7.9,7.9,0,0,0-1.4,1L105.83,65Q91.75,76,77.67,86.94a9.45,9.45,0,0,0-1.23,1.43,8.89,8.89,0,0,0,1.79.41C81.43,88.82,84.63,88.8,87.84,88.8Zm8.09-20.62-.78-2.57a8.59,8.59,0,0,0-2.24,1.14c-2.72,2.61-5.37,5.3-8,8a4.6,4.6,0,0,0-1.06,1.84A4.46,4.46,0,0,0,84,78.26a6.48,6.48,0,0,0,1.47-.64c3-2.31,6-4.61,8.87-7A9.92,9.92,0,0,0,95.93,68.18Zm-8.71,26,.13.44c1.55-.53,3.12-1,4.64-1.63a2.73,2.73,0,0,0-.14-1.21c-2.27-.15-4.54-.3-6.81-.24-.39,0-1,.89-1.07,1.42,0,.35.61,1,1.07,1.17A7.9,7.9,0,0,0,87.22,94.16Z"/><path d="M81.28,171.15c-3.69,0-7.39,0-11.08,0-1.49,0-2-.5-2-2s.44-2,2-2q11.08.09,22.17,0c1.48,0,2,.47,2,2s-.49,2-2,2C88.67,171.11,85,171.15,81.28,171.15Z"/><path d="M146.32,88.88c-3.61,0-7.21,0-10.82,0-1.4,0-2.09-.38-2.08-1.94s.52-2,2-2q11.07.08,22.12,0c1.55,0,1.95.64,1.94,2.06s-.5,1.91-1.87,1.89C153.85,88.85,150.09,88.88,146.32,88.88Z"/></g></svg>