<svg id="Layer_1" data-name="Layer 1" xmlns="http://www.w3.org/2000/svg" viewBox="0 0 200 200"><g id="IMsdE9"><path d="M68,96.25c0-13.43,0-26.85,0-40.28a31,31,0,0,0-.43-5.86c-.67-3.49-2.56-5.28-5.12-5.24-2.75,0-4.54,2.16-4.93,6-.31,3-.42,6.06-.81,9.07-1,7.87-3.86,15.21-6.71,22.55-1.74,4.5-3.48,9-5.14,13.53a21.89,21.89,0,0,0-.16,15.2c2.6,7.6,5.11,15.25,5.58,23.41.08,1.56,1.3,3.29,2.44,4.53q18.69,20.37,37.54,40.61c1.7,1.83,3.39,3.68,5,5.58a2.52,2.52,0,0,1-.23,3.82q-3.72,3.48-7.54,6.87a2.29,2.29,0,0,1-1.42.63c-.65,0-1.65-.27-1.83-.7a2.71,2.71,0,0,1,.09-2.32,45.06,45.06,0,0,1,3.84-3.72c3-2.83,3-2.86.32-5.81q-15-16.15-29.93-32.29c-2.92-3.15-5.88-6.26-8.7-9.5-1.56-1.79-2.79-1.59-4.41-.06-3.26,3.06-6.66,6-10,8.95-.67.59-1.31,1.23-2,1.76-1.23.9-2.51,2.6-4.12.87s.16-2.87,1.3-3.9c4.1-3.74,8.09-7.62,12.44-11,2.82-2.22,3.61-4.65,2.75-7.91-1.37-5.18-2.24-10.55-4.18-15.5-3.37-8.59-2.63-16.74.76-25q3.76-9.18,7.08-18.53a66.49,66.49,0,0,0,4-20.44,14.47,14.47,0,0,1,1.42-6.18c1.94-3.72,5.28-5,9.48-4.52,3.47.41,3.57.25,3.62-3.23.07-5,.3-10,0-15C67.3,14,74.59,7.21,83,7.35c18.61.3,37.23.25,55.84,0,8.3-.11,15.43,6.22,15.1,15.22,0,.72,0,1.43,0,2.15.13,2.74.14,2.74,2.65,2.05,5.82-1.58,10.47.3,12.53,5.08,2.13,4.94.52,9.6-4.48,12.86-2.84,1.86-5.77,3.6-8.58,5.51a6,6,0,0,0-2,6.63,1.47,1.47,0,0,0,1.13.71c1.24-.1,2.46-.51,3.7-.57a9.21,9.21,0,0,1,9.59,6.23,9.52,9.52,0,0,1-3.36,11c-.7.55-1.5,1-2.23,1.48-2.77,1.94-2.76,1.94-.17,4.3,5.81,5.3,5,12.49-1.92,16.36-.46.26-1.21.22-1.46.57s-.48,1.37-.22,1.65c.71.77,1.78,1.19,2.51,2,5.05,5.18,3.09,13.51-3.9,15.38-3.91,1-3.86,1.67-3.85,5.08,0,5.37.05,10.74,0,16.11-.11,9.46-5.9,15.36-15.47,15.33a7.19,7.19,0,0,0-6.91,3.74c-4.41,6.84-11,11.17-18.2,14.55-5,2.35-10.09,4.58-15.1,6.92-1.13.52-2.29.63-2.75-.5a3,3,0,0,1,.51-2.75,15.9,15.9,0,0,1,4.12-2.44c4.54-2.09,9.16-4,13.7-6.15a37.85,37.85,0,0,0,12.66-9.76,14.33,14.33,0,0,0,1.52-2.72,12.86,12.86,0,0,0-2.89-.76c-5.19-.08-10.39,0-15.58,0-9.13,0-18.25.06-27.38,0-6.4-.06-10.93-3.21-13.21-9.14a19.76,19.76,0,0,1-.91-6.84C67.91,123.1,68,109.67,68,96.25ZM72,73.13v42.42c0,1.07,0,2.15,0,3.22.13,3.57.21,3.66,3.55,3.8,1.07,0,2.14,0,3.22,0h40.27c9.13,0,18.25.05,27.38,0,3,0,3.39-.6,3.35-3.45a3.17,3.17,0,0,0-2.07-3.31,8.38,8.38,0,0,1-3.69-3c-1.36-2.29-3.26-2.47-5.48-2.37-1.43.06-2.87,0-4.3,0s-2.56-.4-2.67-2c-.12-1.76,1.18-2,2.5-2a21.64,21.64,0,0,1,3.22,0c3,.37,4.84-.58,6-3.72.83-2.17.72-3-1.24-4.11-6-3.37-5.7-13.74,1.37-16.66,2-.82,2.35-1.39.86-3.34-4.68-6.14-3.95-11.11,2.43-15.42,2.47-1.67,3.11-3.48,3.06-6.21-.12-8.59,0-17.18,0-25.77,0-6.11,0-6.13-6.22-6.14H78.07c-1.25,0-2.51,0-3.76.07a2.12,2.12,0,0,0-2.25,2.39c0,1.26,0,2.51,0,3.76Q72,52.19,72,73.13Zm38.9,53.53H83c-2.68,0-5.37.07-8,0-2,0-3,.72-2.94,2.8,0,2.5,0,5,0,7.51.11,7.64,3.94,11.45,11.66,11.49,8.58,0,17.17,0,25.76,0,9.84,0,19.68.08,29.52,0,5.75-.06,10.06-3.76,10.66-9.29a93.36,93.36,0,0,0,.12-10.18,2.06,2.06,0,0,0-2.34-2.28l-3.75,0Zm0-105.74h32.7c1.43,0,2.86.05,4.28-.09s1.83-.94,1.29-2.25a12.72,12.72,0,0,0-.6-1.48c-2.26-4-5.69-5.59-10.22-5.57-18.41.07-36.81,0-55.21,0a17.21,17.21,0,0,0-3.21.21,9.6,9.6,0,0,0-7.37,6.34c-.69,1.75-.11,2.59,1.89,2.76,1.24.1,2.5.05,3.75.05Zm48.55,40.16c-2.95,0-12.4,6.23-13.51,8.85a4.79,4.79,0,0,0,1.17,5.41c1.37,1.51,3.32,2.77,5.23,1.71a91.9,91.9,0,0,0,11.17-7.24c1.85-1.41,1.82-3.93.73-5.9A5.07,5.07,0,0,0,159.48,61.08Zm-3.9,21.15c-2.86,1-6.81,2.07-10.54,3.67a5.07,5.07,0,0,0-2.78,6.26,5.14,5.14,0,0,0,6.26,3.63,78.32,78.32,0,0,0,10.66-3.33,5.05,5.05,0,0,0,3-6.1C161.49,83.77,159.4,82.2,155.58,82.23ZM153.9,39.38h.1c0,1.77-.07,3.55.07,5.31,0,.31,1.14.92,1.37.78,3-1.88,6.21-3.55,8.8-5.9,2.93-2.65,1.84-7-1.76-8.82s-8.35,1-8.57,4.91C153.84,36.9,153.9,38.14,153.9,39.38Zm-.56,62.06-.2.6a15,15,0,0,0-2.12,0,5.14,5.14,0,0,0-4.73,4.86,4.9,4.9,0,0,0,4.21,5.28,14.37,14.37,0,0,0,6.23-.25,4.8,4.8,0,0,0,1.76-8.39C157.13,102.42,155.08,102.12,153.34,101.44Z"/><path d="M46.21,161.29a3.63,3.63,0,0,1-3.68-3.68A3.83,3.83,0,0,1,46.38,154a3.9,3.9,0,0,1,3.36,4.06A3.32,3.32,0,0,1,46.21,161.29Z"/><path d="M88.42,91c.12-8-1-6.86,6.72-6.92,7.36-.06,7.41,0,7.35,7.31-.08,8.38,1.18,7.11-7,7.2-7.11.08-7.11,0-7.11-7.06Zm6.77,3.77c3.44.06,3.88-.33,3.88-3.41s-.4-3.38-3.35-3.44c-3.39-.06-3.87.37-3.88,3.45S92.21,94.66,95.19,94.72Z"/><path d="M135.86,62.1c-.16,7.83,1.06,6.64-6.83,6.71-7.26.07-7.3,0-7.24-7.34.07-7.7-1.05-6.8,6.79-6.76C137,54.74,135.72,53.49,135.86,62.1Zm-7.24,3.28c2.88.05,3.68-.62,3.79-3.19.15-3.18-.55-4-3.43-4.06-3.1-.07-3.77.59-3.78,3.7C125.2,64.69,125.81,65.33,128.62,65.38Z"/><path d="M95.21,68.83c-7.74-.15-6.77,1.18-6.76-6.77,0-8.49-1.17-7.35,7.3-7.35,7.71,0,6.68-1.08,6.74,6.8C102.55,68.82,102.51,68.82,95.21,68.83Zm.35-3.45c2.78,0,3.46-.67,3.5-3.38,0-3.22-.73-4-4.08-3.87-2.82.08-3.17.48-3.14,3.57S92.52,65.4,95.56,65.38Z"/><path d="M116.54,60.07c0,.89,0,1.78,0,2.68.09,1.85-.35,3.19-2.61,3-2.48-.19-3,1.29-2.91,3.38s0,4.29,0,6.43c0,1.73-.49,2.7-2.41,2.61s-3.93,0-5.9,0c-1.31,0-1.89-.76-2-2-.06-1.48.85-1.79,2-1.8a14.23,14.23,0,0,1,1.6,0c2.39.21,3.17-1.11,3.16-3.23,0-1.43,0-2.86,0-4.29,0-1.25-.55-2.81,0-3.65s2.19-.71,3.37-.91a2.39,2.39,0,0,0,2.11-2.63,33.39,33.39,0,0,1,.22-4.26,1.93,1.93,0,0,1,1.49-1.08c.52,0,1.48.58,1.52,1a42.82,42.82,0,0,1,.08,4.81Z"/><path d="M76.79,103a30.19,30.19,0,0,1,.08-4.76,2.36,2.36,0,0,1,1.77-1.43,2.39,2.39,0,0,1,1.87,1.36,29.09,29.09,0,0,1,.24,5.29c0,1.92.7,3,2.78,2.94a28.37,28.37,0,0,1,5.3.2,2.33,2.33,0,0,1,1.5,1.73c0,.65-.89,1.81-1.44,1.84a93.18,93.18,0,0,1-10.57,0c-.59,0-1.42-1.48-1.56-2.36a29.28,29.28,0,0,1-.08-4.78Z"/><path d="M83.88,43a30.56,30.56,0,0,1,4.79.09,2.41,2.41,0,0,1,1.59,1.69,2.63,2.63,0,0,1-1.52,1.82,8.18,8.18,0,0,1-3.14.38c-4.87-.12-5,.22-4.85,5.14a4.6,4.6,0,0,1-.1,2.11,13,13,0,0,1-2,2.18c-.65-.69-1.68-1.28-1.87-2.08a18.09,18.09,0,0,1-.16-4.24C76.7,42.38,76,42.85,83.88,43Z"/><path d="M122,73.53a13.12,13.12,0,0,1,3.2.07c.68.17,1.72,1,1.71,1.47,0,2.41.71,3.79,3.38,3.55,1.58-.14,2.3.66,2.13,2.25s-1.27,1.49-2.36,1.51-2.14,0-3.21,0c-2.18.1-3.93-.19-3.76-3.06.1-1.67-1.14-2-2.52-2a9,9,0,0,1-3.18-.21,2.55,2.55,0,0,1-1.27-2,2.36,2.36,0,0,1,1.61-1.55A26.38,26.38,0,0,1,122,73.53Z"/><path d="M108.14,94.16V91.48c0-1.36.74-1.89,2-1.87,1.08,0,2.15,0,3.22,0,1.88.07,3.05-.51,3.17-2.67a2.31,2.31,0,0,1,1.56-1.58c1.4-.24,1.73.88,1.75,2,0,.89,0,1.79,0,2.68-.08,3.14-.09,3.15-3.32,3.34-.71,0-1.43,0-2.14,0-1.47,0-2.4.57-2.42,2.16,0,.36,0,.72,0,1.07,0,1.43.24,3.07-2,2.85s-1.73-1.88-1.8-3.24c0-.72,0-1.44,0-2.15Z"/><path d="M138.66,42.87c6.19,0,5.57-.25,5.57,6.65a16.83,16.83,0,0,1-.15,4.27A3.4,3.4,0,0,1,142,55.63c-.36.12-1.15-1-1.72-1.62-.1-.11-.06-.34-.08-.52-.19-1.92.29-4.46-.76-5.59s-3.58-.74-5.47-1c-1.36-.18-2.55-.65-2.46-2.23s1.49-1.77,2.77-1.81C135.37,42.84,136.44,42.87,138.66,42.87Z"/><path d="M130.78,98.56a10.7,10.7,0,0,1-3.16-.09,2.38,2.38,0,0,1-1.26-1.84c0-.6.77-1.32,1.36-1.76.36-.26,1-.13,1.56-.11,1.78.08,2.59-.78,2.55-2.54,0-1.5,0-2.94,2.19-2.74s1.48,2,1.66,3.24a7.5,7.5,0,0,1,0,1.06C135.72,98.65,135.72,98.65,130.78,98.56Z"/><path d="M90,78.1c-1.12,0-2.19-.22-2.26-1.93-.08-1.86,1.1-1.92,2.4-1.89,1,0,2.07-.12,2.13,1.53S91.8,78.13,90,78.1Z"/><path d="M112.08,141.55a5.31,5.31,0,0,1-5-4.63,5.55,5.55,0,0,1,4.93-5.3,5,5,0,1,1,0,9.93Z"/></g></svg>