<svg id="Layer_1" data-name="Layer 1" xmlns="http://www.w3.org/2000/svg" viewBox="0 0 200 200"><g id="G0G22y"><path d="M97.38,191a90.76,90.76,0,1,1,90.78-90.6A90.87,90.87,0,0,1,97.38,191Zm0-176.1C50.4,14.9,12.05,53.11,12,100c-.05,47.13,38.18,85.54,85.18,85.57,47.15,0,85.53-38.18,85.57-85.17A85.47,85.47,0,0,0,97.41,14.9Z"/><path d="M133.52,166.4q-12.59-24.32-25.21-48.72c.27-.22.5-.41.75-.59a21,21,0,0,0,9-15.43c.07-.67.14-1,1-1q27.65,0,55.3,0l.68,0c-1.59,14.39-5.69,27.85-13.45,40.1C154.54,151.81,141.21,164,133.52,166.4Z"/><path d="M19.89,100.63h1.19q27,0,54.05,0c1,0,1.32.2,1.42,1.27a20.34,20.34,0,0,0,8.77,15.17l1.05.75C78,134,69.6,150.23,61.16,166.54c-1.39-.75-2.73-1.4-4-2.16-11.91-7.17-20.8-17.17-27.28-29.38a92.84,92.84,0,0,1-9.81-31.85c-.09-.68-.16-1.37-.24-2.06A3.33,3.33,0,0,1,19.89,100.63Z"/><path d="M107.54,81.89c-8-3.52-11-3.55-20.31-.24L59.2,33.2a1.47,1.47,0,0,1,.34-.26c11.9-5.2,24.27-8.32,37.31-8.35a72.83,72.83,0,0,1,36.8,9.31c1.08.61,2.11,1.31,3.27,2.05Z"/><path d="M97.14,112a12,12,0,1,1,12.12-12A12,12,0,0,1,97.14,112Z"/></g></svg>