<svg id="Layer_1" data-name="Layer 1" xmlns="http://www.w3.org/2000/svg" viewBox="0 0 200 200"><g id="ItivyX"><path d="M99.23,10a87.51,87.51,0,1,1,.16,175c-47.79,0-87.3-38.87-87.32-85.86C12.06,49,50.16,10.06,99.23,10ZM37.68,97.12a61.47,61.47,0,0,0,61.15,61.69c33.53.08,61.2-27.51,61.3-61.12a61.23,61.23,0,1,0-122.45-.57Z"/><path d="M118,61.06c-1.6,7.51-3.16,14.37-4.47,21.27-.33,1.74.14,3.63.24,5.46,1.74-.84,3.76-1.35,5.16-2.57C121,83.36,122.74,81,125,78.43c5.13,9.69,12.06,1.7,18.26,3.29-.77,2.66-1.4,5.53-2.44,8.24-1.52,3.93-1.68,7.31,3,9.46-6.12,5.32-11.71,10.57-17.72,15.29-3.81,3-5.12,6-2.37,10.24a22.24,22.24,0,0,1,1.35,3.58l-18.35-4.31c-4.82-1.13-5.46-.58-5.43,4.47,0,5.68,0,11.36,0,17.29h-5c0-5.58-.09-11.22,0-16.86s-.42-6.15-5.8-4.88q-8.34,2-16.69,3.9A2.64,2.64,0,0,1,73,128a2.06,2.06,0,0,1-.05-.77c3.28-8.49,3.27-8.47-3.61-14.39-5-4.32-10-8.7-15.13-13.2,8.21-5.93,0-12.07.5-18.09C60.34,79.7,67.37,88.16,72.24,79c2.48,2.35,4.75,4.76,7.3,6.8,1.23,1,3,1.3,4.52,1.91.16-1.52.68-3.12.4-4.56-1.39-7.19-3-14.34-4.64-22,1.08.49,1.74.72,2.33,1.07,7,4.15,6.56,5.11,11.17-3.34C95,55.69,96.85,52.6,98.87,49c2.45,4.36,4.64,8.26,6.84,12.15,2.81,5,3.07,5,7.88,2.25C114.83,62.71,116.12,62.06,118,61.06Z"/></g></svg>