<svg id="Layer_1" data-name="Layer 1" xmlns="http://www.w3.org/2000/svg" viewBox="0 0 200 200"><defs><style>.cls-1{fill:#2e3192;}</style></defs><g id="cbAn22.tif"><path class="cls-1" d="M131.61,189,96.4,154.34l34.37-34.9.35.08c0,2,0,4,0,6.07,0,3.29.07,6.58,0,9.87,0,.89.28,1.1,1.13,1.1q17.88-.13,35.75-.22c4.9,0,9.8,0,14.7-.07A21.09,21.09,0,0,0,186,136a8.19,8.19,0,0,0,5.63-3.27l.28.16a27.3,27.3,0,0,1-1.36,3.35c-5.39,9.58-10.78,19.17-16.29,28.69a12.14,12.14,0,0,1-10.75,6.32c-8.22.17-16.45.15-24.67.19-2.38,0-4.75,0-7.24,0Z"/><path class="cls-1" d="M81.22,11.48a19.1,19.1,0,0,1,3-.45c11.26,0,22.52-.1,33.78.09a12.06,12.06,0,0,1,10.54,6.31c5.14,8.8,10.17,17.67,15.21,26.53.53.95.93,1.12,1.92.54,4.25-2.49,8.56-4.89,12.85-7.33l1.08-.58c-4.33,16-8.6,31.73-12.91,47.6L99.07,71.28c.54-.33.88-.56,1.24-.76,4.24-2.44,8.48-4.89,12.74-7.29.76-.42,1-.77.5-1.6Q100.83,39.42,88.17,17.19c-.23-.41-.48-.82-.75-1.21-1.53-2.16-3.4-3.81-6.17-4.17Z"/><path class="cls-1" d="M60.24,75.49c4.25,15.84,8.47,31.59,12.76,47.64-.63-.34-1-.53-1.36-.74-4.21-2.43-8.42-4.84-12.61-7.31-.81-.47-1.2-.41-1.7.45q-12.8,22.16-25.66,44.28c-1.57,2.71-2.35,5.57-1.12,8.7l-.28.11A22.39,22.39,0,0,1,28.22,166c-5.59-9.6-11.2-19.18-16.65-28.86a12.13,12.13,0,0,1,.13-12.47c5-8.8,10.11-17.54,15.17-26.3.75-1.31.74-1.31-.52-2L13.76,89c-.31-.18-.61-.38-1.15-.71Z"/><path class="cls-1" d="M86.35,137v35c-.36,0-.67.07-1,.07-15.32,0-30.64,0-46-.05a14.7,14.7,0,0,1-4.5-.76,5.89,5.89,0,0,1-4-7.63,18.34,18.34,0,0,1,1.82-4.19c4.11-7.17,8.3-14.29,12.42-21.44a1.79,1.79,0,0,1,1.8-1q19.08,0,38.17,0Z"/><path class="cls-1" d="M166.37,82.89c2.76,4.7,5.45,9.26,8.13,13.83q8,13.66,16,27.32a9.21,9.21,0,0,1,1.4,6.08c-.42,2.88-2.84,5-6.3,5.29-3.24.26-6.5.21-9.75.24-6,0-12.06,0-18.09.07a1.44,1.44,0,0,1-1.48-.8q-9.79-16.74-19.63-33.45c-.15-.25-.27-.51-.44-.85Z"/><path class="cls-1" d="M80.31,75.85,50.08,58.26c.82-1.41,1.58-2.74,2.35-4Q63,36.12,73.48,18a13.29,13.29,0,0,1,3.46-4.18,5.71,5.71,0,0,1,7.38-.09,13.9,13.9,0,0,1,3.2,3.68c4.34,7.45,8.55,15,12.83,22.45a1.32,1.32,0,0,1,.09,1.5q-9.91,17-19.79,34C80.57,75.49,80.48,75.6,80.31,75.85Z"/></g></svg>