<svg id="Layer_1" data-name="Layer 1" xmlns="http://www.w3.org/2000/svg" viewBox="0 0 200 200"><g id="yB8GWC.tif"><path d="M121.23,123.46Q94.45,150.25,67.65,177c-12.13,12.09-26.7,12.15-38.73.21C24.49,172.84,20,168.49,15.7,164A24.81,24.81,0,0,1,16,129.36Q71.44,73.6,127.2,18.15a24.74,24.74,0,0,1,34.57-.21c5.08,4.83,10,9.81,14.88,14.86a24.89,24.89,0,0,1-.26,35.42C158.1,86.73,139.62,105.05,121.23,123.46Zm-7.85-41.69a24.29,24.29,0,0,0,34.75-.49,24.6,24.6,0,0,0,.21-34.46c-9.42-9.6-25.14-9.51-34.87.2A24.26,24.26,0,0,0,113.38,81.77ZM80.86,114.36c3.07,2.46,6.52,2.75,9.52-.18s3-6.72.09-9.64-6.61-3-9.62,0S78,110.92,80.86,114.36ZM89,85.57c2.93-3.36,3.07-6.78,0-9.75s-6.73-2.82-9.64.25c-2.7,2.84-2.84,6.29,0,9.22C82.42,88.4,85.74,88.21,89,85.57ZM75.15,99.39c3.08-3.3,3.21-6.82.43-9.76S69,86.54,66,89.47s-3.24,6.44-.28,9.54S72,101.85,75.15,99.39Zm29.68,20.23c-3.13-2.46-6.43-2.64-9.43.46s-2.81,6.7.11,9.53,6.68,2.8,9.59-.26S107.84,122.9,104.83,119.62ZM94.62,100.69c3,2.41,6.46,2.75,9.44-.2s3-6.61,0-9.58-6.59-3-9.58-.08S91.72,97.23,94.62,100.69ZM109,106.37c-2.72,3.36-2.74,6.86.26,9.65s6.74,2.68,9.6-.42,2.84-6.68-.28-9.57S112.1,103.58,109,106.37Z"/><path d="M120.47,74.43a14.46,14.46,0,1,1,20.54,0A14.52,14.52,0,0,1,120.47,74.43Z"/></g></svg>