<svg id="Layer_1" data-name="Layer 1" xmlns="http://www.w3.org/2000/svg" viewBox="0 0 200 200"><g id="yS7nx0.tif"><path d="M33.78,79.32c-.11-2.13,1.17-3.89.89-6-.26-2,1.08-3.78.82-5.88a44.87,44.87,0,0,1-.06-5.8,58.81,58.81,0,0,0,0-6.23,39.36,39.36,0,0,0-3.61-13c-1.42-2.89-3.1-5.64-4.73-8.57,1-2.19,3.6-1.71,5.28-2.83s4.21-1.23,6.1-2.23,3.89-1.25,5.78-2.14,4.69-.17,6.55-1.16c2.24-1.2,4.34,0,5.59-.53,5.07.57,4.69,4.5,5.52,7.23.87,2.89.84,6.1.9,9.17A29.43,29.43,0,0,1,62,46.79c-.28,1.68.47,3.36-.71,5.13-.86,1.3.62,3.5-.94,5-.79,6.12-3.51,11.52-6.22,16.94-2.14,4.28-4.72,8.29-7.37,12.71L55,93.67c5.93-5.87,9.49-12,13.83-22a151.58,151.58,0,0,0,5.4-15.61,44.48,44.48,0,0,0,1-5.38,70.89,70.89,0,0,0,.84-8c.14-2.62,0-5.26,0-7.89V32.33c4.1,2.21,7.06,5.39,9.81,8.63A86.42,86.42,0,0,1,96.6,56.45c1.07,2,2,4.15,3,6.23S101.17,67,102,69.14c.66,1.59.75,3.27,1.34,4.84.68,1.81.16,4.07.16,5.8-2.75,4-6.77,6-10.58,8.09-5.37,3-11,5.53-16.43,8.42a80.82,80.82,0,0,1-13.93,5.36A28.92,28.92,0,0,0,64,105.2a70.43,70.43,0,0,1,5.83,13.36c.6,2,1.41,3.94,1.38,6.08,0,.92-.19,1.81.63,2.68a2.57,2.57,0,0,1,.13,2.35c-1.19,2.25-.83,4.86-2,7.29-.78-2.21-1.39-4.35-2.28-6.38-1.58-3.61-4.28-6.53-6.48-9.75-3.1-4.53-7.14-8.28-11.14-12a49.19,49.19,0,0,0-10.92-7.68A35.71,35.71,0,0,0,25.9,96.9a47.47,47.47,0,0,0-6.32-.63c-1.41.07-2.8.6-4.22.77s-2.56,0-3.87.75c-.94.54-2.43.1-4,.1-2.78-3.31-4.42-6.75-2.93-11.65C5.87,82,7.64,78.47,12.07,76.3c1.82,0,4.1-.36,6.21.08,3.18.67,6.51.55,9.59,1.86A31.72,31.72,0,0,0,32.7,79.6C33,79.67,33.43,79.42,33.78,79.32Z"/><path d="M111,150.22q6.17,6.38,12.32,12.75a26.75,26.75,0,0,1,1.8,2.16c1.08,1.39.84,3,.82,4.62-2,1.59-2,1.59-3.72.41-2.93-2.09-5.71-4.36-8.47-6.68-4.45-3.74-8.88-7.53-13.7-10.87-4.31-3-8.67-6-12.86-9.13a90.76,90.76,0,0,0-8.44-5.67c-1.33-.8-2.41-1.5-2.66-3.17-.2-1.31-1.18-2.24-.18-4s.71-4.38,1.06-6.6a24.7,24.7,0,0,0,.76-3.81c0-2.64-.33-5.29-.49-7.41l-3.61-2.7c0-1.11,0-2.08,0-3a5.76,5.76,0,0,1,3.69-5.92c3.27-1.47,6.35-3.37,9.59-4.92a119.31,119.31,0,0,0,15.32-9.1c1.29-.87,2.58-1.76,4.1-2.8,2.43,4.92,4.81,9.7,7.16,14.48a17.88,17.88,0,0,0,12.31,9.72A19.1,19.1,0,0,0,137.93,107c1.94-.87,3.76-1.81,6.18-1.54.61,2.45-1.26,4.06-2.17,5.94a20.36,20.36,0,0,1-8.45,8.55v2.85c.32.25.93.81,1.61,1.26s1.37.72,2.22,1.16c4.69.77,9.15-.72,13.51-2.74,3.48-1.61,7.15-2.88,10.47-4.77,5.29-3,10.42-6.31,15.51-9.64,3.84-2.51,7.42-5.42,11.3-7.84,2.55-1.59,5-3.56,8.59-4a12.54,12.54,0,0,1-.51,1.61A72.27,72.27,0,0,1,186.3,112q-3.86,4.5-8,8.68a96.35,96.35,0,0,1-13,10.62c-3.26,2.3-6.1,5.2-9.35,7.54-4.22,3-7.49,7-11.62,10.74.37-5.7-2-10.27-5.13-14.26a86.47,86.47,0,0,0-9.17-9.19,14.25,14.25,0,0,0-5.54-3.64c-1.6-.47-3.06-1.33-4.81-1.42a41.59,41.59,0,0,1-5.06-.8c-2.6-.46-5,.75-7.47,1a21.91,21.91,0,0,0-3.52,1l-.11,1.76c-2.1,1.76-3.68,4.6-7.18,5.41-1.67-.72-3.52-1.38-4.4-3.41L96,127.58,97.6,125l-1-1.9-2.9-.82c-.19.19-.39.38-.5.5l-2.44-1.36,1-1.45-3.32-2.21c-1.65.14-2.26,1.37-3.08,2.11l3.2,3.82a6.43,6.43,0,0,1-1.81-.61c-1-.69-1.77-1.55-3-2.69v-2.26L87,115.45c-.52-1.79-2.18-2.13-3.61-2.56a36.6,36.6,0,0,0-4.9-.75,35.28,35.28,0,0,1,2,8.83c.32,2.94.61,5.86.66,9.13,5.47,4.14,12.15,6.28,18.23,9.76,1.67-1.7,3-3,3.45-5.13a23.77,23.77,0,0,1,3.3-7.32,8.69,8.69,0,0,1,2.75-2.22c4.52-2.85,9-2.73,13.88-1.17,2.71.87,4.54,3,7.11,3.91,5.26,5.28,11,10.17,13,17.88a14.19,14.19,0,0,1,.16,7.5c-.32,1.14-.3,2.31-.66,3.44a13.48,13.48,0,0,1-4.17,6.58c-1.86,1.55-3.09,3.86-5.54,4.68a3.82,3.82,0,0,1-2.56,0l1.57-.53v-2.84a12.93,12.93,0,0,0-2.95-2.67c-1.09-.55-2.52-2-3.92-.16L112,150.22h-1l-.83-.83-.83-.83a6.53,6.53,0,0,0-.87-.79.6.6,0,0,0,.13-.12L108,147l-.26.26a4.16,4.16,0,0,0,.71.54,6.53,6.53,0,0,1,.87.79l.83.83Z"/><path d="M91.91,126.13c-1.82.13-2.59-1.16-3.32-2.49C90.41,123.52,91.18,124.8,91.91,126.13Z"/><path d="M92.56,124.72l3.4-.86.11,1.37C94.84,125.23,93.67,125.65,92.56,124.72Z"/><path d="M87.94,121.17l-.13-1.59.53-.07.32,1.62Z"/><path d="M88.59,121.15l.83.83Z"/><path d="M89.49,121.89l.68.58-.26.26-.58-.68Z"/><path d="M91.84,123.73l-.68-.58.26-.26.58.68Z"/><path d="M92.74,124.47l-.83-.83Z"/></g></svg>