<svg id="Layer_1" data-name="Layer 1" xmlns="http://www.w3.org/2000/svg" viewBox="0 0 200 200"><g id="wMHo2l"><path d="M103.61,19.31c2.56.29,5.14.5,7.68.9,3.49.55,7,1.12,10.41,1.93a76.64,76.64,0,0,1,22,9.36,81.89,81.89,0,0,1,13.76,10.35c2.62,2.47,5.38,4.9,7.13,8.18a4.76,4.76,0,0,0,1.26,1.55c3.1,2.35,4.48,5.93,6.49,9s4,6.33,4.89,10c.34,1.37,1.17,2.61,1.61,4,1.91,5.89,3.94,11.78,4.43,18,.4,5,1.26,10.06.27,15.16-.52,2.7-.27,5.55-.76,8.27a33.43,33.43,0,0,1-1.91,7.69c-.59,1.37-.74,2.92-1.21,4.35a70.44,70.44,0,0,1-2.61,7.26c-2.2,4.75-4.46,9.49-7.76,13.63-1.77,2.22-3.48,4.49-5.11,6.82-2.43,3.49-5.78,6.07-8.78,9-3.85,3.77-8.55,6.32-12.93,9.35a32.08,32.08,0,0,1-8.16,3.9c-2.53.86-4.88,2.2-7.38,3.11a64.49,64.49,0,0,1-13.64,3.23,68.85,68.85,0,0,1-12.73,1c-4.15-.21-8.3-.4-12.42-.86A46,46,0,0,1,81.48,183c-3.48-.94-7.14-1.51-10.38-3-4.74-2.17-9.76-3.87-13.93-7.19-1.25-1-2.79-1.63-4.09-2.56a59,59,0,0,1-5.68-4.36c-3.3-3-6.6-6-9.65-9.29a55.32,55.32,0,0,1-5.14-6.89c-2-3-3.64-6.26-5.52-9.32-2.92-4.73-4.4-10-6.25-15a45.53,45.53,0,0,1-2.28-12c-.24-3-.74-6-.88-9.06a73.24,73.24,0,0,1,.14-8.51,57.64,57.64,0,0,1,1-6.78c.94-5,1.79-10.11,3.85-14.86,1.18-2.72,2.26-5.48,3.42-8.21a19.17,19.17,0,0,1,1.37-2.85c3.12-4.93,6-10,9.84-14.45a87.89,87.89,0,0,1,7.42-7.53,65.19,65.19,0,0,1,8.1-6.46c5-3.21,9.78-6.78,15.55-8.58,2.37-.74,4.7-1.61,7-2.47a70.71,70.71,0,0,1,23.08-4.16c1.71-.05,3.43,0,5.15,0ZM77.68,135.12a1.36,1.36,0,0,0,.21-.1s0-.1.08-.15l-.25.29-.16.16Zm27.71-65.76a1.13,1.13,0,0,0-.12-.18.39.39,0,0,0-.13-.06l.29.2v.62a5.68,5.68,0,0,1-1-.43c-.45-.29-.44-1.44-1.33-.75-.1.07.46,1,.68,1.51a7.51,7.51,0,0,1,.25.93,6.81,6.81,0,0,1-.78,0c-.81-.11-1.58-1.37-2.43-.07l-1.16,1.17c-1.84.63-.38,1.91-.57,2.87-.55.19-.53.37,0,.56,0,.65-.15,1-1,.73-1.13-.33-2.15.56-1.76,1.42.79,1.72-.79,1.74-1.33,2.49l0,0-.62.06-.33-2.06-.49.08.87,1.94c-.06.56-.1,1.14-.89.61l-.88-.57-.41-.66.45.62-1.18,2.34-.6-1.77a.77.77,0,0,0,.24-.06s.06-.1.09-.16L91,80.9a5,5,0,0,0-.85.64,4,4,0,0,0-.42.88,5.44,5.44,0,0,0,.78.17,9.91,9.91,0,0,0,1.09,0c-.74.87-1.39,2.36-2.22,2.46-1.57.19-1.39,1.8-2.45,2.21l0,0c-.36,0-.72-.1-1.08-.12s-.64,0-1,0a3.42,3.42,0,0,0,.43.62c.81.79.47,1.49-.42,1.46s-1.13.37-1.42,1l-1.2.58V89.54l.17-.18-.14.21c-.45.48-1.76.67-.57,1.7L81.18,93l-.93.28.92.26c-.31.58-.54,1.39-1.43,1-1.42-.64-2-.61-1.11,1.09a7.1,7.1,0,0,1,.53,1.77c.06.24,0,.72-.12.74a2.16,2.16,0,0,1-.9-.12c-.36-.11-.69-.26-1-.4V97a10.37,10.37,0,0,0,.15-1.1c0-.05-.27-.11-.42-.17.07.35.13.7.21,1a1.19,1.19,0,0,0,.11.26l-.59.58H76l-.58-.58c-.18-.61-.36-.39-.54,0l-.59.59-.19.77.15-.81.59-.59.6,0,.58.58a13.46,13.46,0,0,1-2,2.66c-.43.35-1.42-.06-2.13,0-.38.06-.7.5-1,.77a.9.9,0,0,0-.24.12s0,.13,0,.19l.25-.34,1.76.61a1,1,0,0,0-.21.08s0,.12,0,.17l.23-.28c0,.36.17.89,0,1-.92.85-1.92,1.61-2.89,2.41l0,0c0-.28-.07-.57-.12-.85s-.13-.69-.2-1c-.09.26-.17.53-.28.78a14,14,0,0,1-.63,1.55c-.73,1.39-1.66,2.54-3.45,2.46v-.64l.57-1.16a2.19,2.19,0,0,0,.77.26.89.89,0,0,0,.66-.33.7.7,0,0,0-.24-.63.74.74,0,0,0-.67.09,2.26,2.26,0,0,0-.47.65L65,107.45c-.08,0-.23.13-.22.15A2,2,0,0,0,65,108c-.07.26-.13.75-.2.75-1.14,0-1,.87-1,1.58l0,0-1.42-.13a5.27,5.27,0,0,1,.43,1.87c0,.23-1.39.19-1.5.51-.36,1-.81.31-1.24.22-.9-.18-.82.49-.88,1l-1.05.17.34,1.13a7.8,7.8,0,0,0,.61-.81,1.55,1.55,0,0,0,.06-.54c.2.3.55.58.58.89.17,1.81-.11,2-2,1.71-.35-.06-1,0-1.07.19-.3,1.19-1.27,1.15-2.15,1.3l-.2-.16.24.12-.05.6,0,0c-.76,1.15-.72,1.24.57,1.77l0,0-.57,1.2-.16-.18.2.14,13.84,13.85,1.74,1.74c1.77,1.64,1.77,1.64,3.47,0l0,0a4.68,4.68,0,0,1,.83-.05c1.19.16,1.1.19.8-1-.08-.34.46-.84.72-1.26l0,0a9.07,9.07,0,0,0,2.51-1.18c1.38-1.25,2.56-2.71,3.86-4a4.2,4.2,0,0,1,1.16-.58l.28.42.27-.42a7.43,7.43,0,0,0,.83-1.21c.13-.28-.07-.86.1-1a16,16,0,0,1,2-1c-.77-.14-1.55-.24-2.3-.44-.16,0-.28-.4-.33-.63,0-.07.27-.29.43-.3.89,0,1.79,0,2.68,0,.24,0,.47-.27.71-.41a5.39,5.39,0,0,0-.64-.22,8.92,8.92,0,0,1-1.65-.32c-.27-.11-.4-.56-.59-.86a5.58,5.58,0,0,1,.89-.24c1-.11.16-.64.22-1l0,0a7.4,7.4,0,0,1,.56-.56c.26-.21.55-.39.82-.58l.38,1.14c-.42.18-.63.36,0,.55L89.25,123a.78.78,0,0,0,.11.2.29.29,0,0,0,.14.05l-.29-.21v-1.19l.15-.15-.12.19H88.07v-.62a2.37,2.37,0,0,1,2.59-.88c.86.22.92-.24.92-.84l0,0,1.77-.63v.62l-.58.58a.74.74,0,0,0-.21.07.46.46,0,0,0-.07.14l.25-.25.58-.57.57-.59v-.54h-.54c-1.05-.56-.38-1.17,0-1.76l.59-.6,1.2-.56,0,0,1.77-1.2,0,0c.18-.2.5-.41.51-.62a10.21,10.21,0,0,0-.14-1.65,6.94,6.94,0,0,0,1.8.14,21.3,21.3,0,0,0,2.63-.78c-.23-.58-.46-1.16-.67-1.75a2.72,2.72,0,0,1-.1-.57l.15-.22-.11.26c-.63.32-1.2.54-1.35-.5-.09-.62-.25-1.24-.38-1.86l0,0c.35.12.71.21,1.06.35s.6.3.9.45c0-.35,0-.69-.11-1-.11-.61.07-.88.74-.83,1.27.11,1.59-1,1.69-1.79a1.51,1.51,0,0,0-1.41-1.82c-.21,0-.41-.2-.61-.31a4.06,4.06,0,0,1,.8-.24c1-.08.71-.62.45-1.16l0,0c1.06.36,1,.36,1.5,2.17,0,.17.19.43.31.45,1.58.18.63,1.08.53,1.76-.15,1,.27,1.29,1.29.9a13.83,13.83,0,0,0,1.31-.54c.83-.41.28-.5-.12-.8-.22-.16-.15-.72-.21-1.09a1.33,1.33,0,0,0,.21-.09.45.45,0,0,0,.06-.14l-.23.27c-.2-.2-.41-.38-.6-.59-1.11-1.18-1.1-1.18.59-1.76,0,.83.44,1.17,1.28,1.1a10.83,10.83,0,0,1,1.61,0l.2.14-.23-.11c0-1.2.64-1.73,1.77-1.77a.78.78,0,0,0,.07.23s.1.06.16.08l-.27-.28-.58-1.75,1.17-1.16c.62-.15,1.55-.63,1.8-.4,1.36,1.29,1.65,0,2.23-.75l1.15-1.16.59-.58.58-.56L119.82,93l.58-.59a.64.64,0,0,0,.2-.11s0-.11,0-.16l-.2.31-.58.58h-1.19c0-.6,1.15-1.4-.32-1.78-.2,0-.48-.73-.4-.81a15.26,15.26,0,0,1,1.46-1.2,2.89,2.89,0,0,0,.2.91.83.83,0,0,0,.64.19,2.56,2.56,0,0,0,.52-1.22c0-1.25.81-.73,1.39-.74,1.44,1.13,1.47,1.13,2.28,0a4.56,4.56,0,0,0,.79-.65c.06-.07-.18-.39-.29-.6a2.22,2.22,0,0,0-.35.49,4.17,4.17,0,0,0-.11.8h-2.36V87.22l.59-.58a1.9,1.9,0,0,0,.78-.15c.14-.1.11-.44.15-.67-.15.06-.34.07-.44.18a5.34,5.34,0,0,0-.45.68h-.63l0-1.77,0,0h2.34l0,0c1.12.6,1.2.51,1.16-1.16h1.19c0,1.06.64,1.33,1.4.92.59-.3,1-1,1.45-1.5.52-2.15.42-2.43-1.16-3.46a3.6,3.6,0,0,0,.81-.12c.12,0,.17-.3.25-.45-.2,0-.48-.15-.59-.06a2.09,2.09,0,0,0-.43.67l-2.35,1.11,0,0c1.41-1.26,1.43-3.4,2.89-4.63l0,0c.79.31,1.53.64,1.5,1.7s.22,1.42,1.14.5c.37-.37.95-.82,1.1.27,0,.24.33.45.51.67.11-.24.38-.55.32-.73a3.75,3.75,0,0,0-.78-1.36,11.32,11.32,0,0,0-1.62-1.11,5,5,0,0,0,1.38-1.06,6.37,6.37,0,0,0,.5-1.8l.58-.58,1.18.6-.93.85.92.28,0,.62-.74.08.14.32.55-.43.59-.59c.7-.61,1.18-1.21.21-2a16.75,16.75,0,0,1-1.36-1.43h0q-7.5-7.52-15-15v0a13.47,13.47,0,0,0-1-1c-.56-.49-1.1-.87-1.32.32a6.25,6.25,0,0,1-.68,1.82c-.11.2-.57.27-.88.29a2.94,2.94,0,0,1-.85-.21c.13.29.18.71.4.85,1.15.69,1.09,1.21-.15,1.63-.44.15-.9.26-1.34.39h0l-.63-1a8.84,8.84,0,0,0-3.78,4.33c-.24.74.61.13,1,.15l0,0-.1,1.89a7,7,0,0,0-1.63-.51c-.35,0-.74.24-1.12.38a8.61,8.61,0,0,0-1.84,1.17c-.8.88,0,1,.68,1.11l.58.59a10.31,10.31,0,0,1-.13,1.58c-.2.81-.62.7-1.06.14Zm-7.51,45.56a1,1,0,0,0,.24-.09s0-.11,0-.17l-.24.3a1.13,1.13,0,0,0-.22.08s0,.1-.06.16Zm-1.7-39.21-.58.58-.17.21.13-.25.58-.58.18-.19Zm-8.66,8.66-.15.22.11-.26.59-.58L89,84,89,83.52l-.85.26Zm60.59,2.88A1.06,1.06,0,0,0,148,87s-.12,0-.18,0l.29.26.14.77.28-.16ZM102.5,108.57a6.65,6.65,0,0,0,.67-.86,1.22,1.22,0,0,0,.06-.71.69.69,0,0,0-.51,0,.84.84,0,0,0-.39.55,5.46,5.46,0,0,0,.21,1.1.71.71,0,0,0-.25.11s0,.12,0,.19Zm32.9-31.18a5.67,5.67,0,0,0,1.13-.78A11.4,11.4,0,0,0,137.58,75s-.16-.19-.18-.18a8.91,8.91,0,0,0-1.77,1.24c-.25.27-.14.88-.19,1.34l-.15.19ZM125,120.11l0,0c.25-1.56-2.71.13-2-1.94l-2.69-2.52c-.85-.78-1.71-1.54-2.54-2.34-.53-.52-1-.45-1.45.06-1.4,1.44-2.81,2.89-4.28,4.27-.89.82-.93,1.45-.09,2.37,3,3.34,6,6.74,9,10.12q8.08,9.18,16.16,18.36c2.23,2.52,4.35,5.15,6.77,7.46,3,2.87,7.11,2.55,10.13-.2,2.6-2.36,3.06-7.2.57-9.67-3.32-3.3-7-6.2-10.57-9.27l0,0a14.3,14.3,0,0,0-1.3-1.49c-3.85-3.44-7.7-6.88-11.6-10.26C129.2,123.41,127.08,121.79,125,120.11ZM86.92,26l0,0c-.24-.29-.5-.58-.72-.89-1.37-1.94-3-2.2-5.25-1.35-4.09,1.55-8.33,2.71-12.4,4.3a64.24,64.24,0,0,0-8,4c-1.48.84-2.73,2.09-4.18,3-1,.61-2.35.65-2.83,1.88a2,2,0,0,1-1.68,1.32,5.63,5.63,0,0,0-1.71,1,61.9,61.9,0,0,0-10.36,9.84,92.65,92.65,0,0,0-7.3,9.6,81.83,81.83,0,0,0-6.23,11.59,67.14,67.14,0,0,0-4.75,14.33,3.06,3.06,0,0,0,1.07,3.19q13.91,13.86,27.76,27.74c1.89,1.88,1.48,1.81,3.26,0Q66.32,103,79,90.35c6.64-6.68,13.18-13.45,19.83-20.12,4.88-4.89,9.88-9.67,14.81-14.51,1.91-1.87,1.7-1.46-.08-3.24q-9.06-9.1-18.15-18.16C92.57,31.53,89.73,28.79,86.92,26Zm19,89.94c-.14-.2-.21-.44-.35-.5s-.59-.15-.73,0a22.9,22.9,0,0,0-1.67,1.6l-20.8,20.79c-2.1,2.11-4.18,4.24-6.32,6.31-1.7,1.65-2.33,1.62-4.12,0-.42-.39-.82-.81-1.22-1.22L59.5,131.71A12.63,12.63,0,0,0,58,130.39c-.13-.1-.51.07-.72.2a.53.53,0,0,0-.15.5,3.31,3.31,0,0,0,.61.94c5,5,9.9,9.95,14.89,14.89,1.27,1.26,1.48,1.21,2.83,0,.29-.26.55-.54.82-.81l27.93-27.94c.48-.47,1-.94,1.4-1.45A2.82,2.82,0,0,0,105.93,116Zm40.36-40.38c-.32-.37-.6-.74-.94-1.08Q138,67.16,130.66,59.83a3.75,3.75,0,0,0-1.17-.8c-.18-.08-.52.1-.73.25a.56.56,0,0,0,0,.52,17.3,17.3,0,0,0,1.33,1.51q5.59,5.63,11.21,11.23c3.17,3.16,3.17,3.23,0,6.39q-13.06,13-26.1,26.14c-.62.63-2.27,1.32-1.2,2.38s1.53-.67,2.11-1.24Q130.44,92,144.69,77.66c.41-.4.83-.8,1.2-1.24A4.3,4.3,0,0,0,146.29,75.59ZM110,117.13c.25-.1.47-.12.59-.24,1.57-1.55,3.14-3.09,4.65-4.68a1.06,1.06,0,0,0,0-1,4.76,4.76,0,0,0-1-1c-.91-.84-1.83-2.3-2.75-2.31s-1.89,1.4-2.75,2.28-1.74,2-2.6,3c1.06,1.2,2.11,2.41,3.19,3.59A2.52,2.52,0,0,0,110,117.13Zm22.37-36.49-.49-.52c-.31.39-.63.77-.92,1.18,0,0,.16.24.25.36ZM133,60.07a3.93,3.93,0,0,0,.61-.76c0-.13-.1-.34-.16-.51-.22.12-.54.19-.63.37S132.87,59.62,133,60.07ZM58,134.8l-.32-.46a2.89,2.89,0,0,0-.57.53c0,.06.25.31.38.47Zm63.79-99.19a4.15,4.15,0,0,0-.06.84c0,.08.25.15.38.22a2.13,2.13,0,0,0,.16-.73C122.26,35.84,122,35.75,121.78,35.61ZM127,85.81c-.16,0-.37-.18-.48-.12s-.16.31-.24.47c.14,0,.34.16.41.11A1.55,1.55,0,0,0,127,85.81ZM113.47,99.08l-.3-.47c-.09.16-.25.32-.25.47s.18.31.28.47ZM61.89,131.16c-.07-.15-.11-.37-.22-.43s-.31.06-.47.1c.09.14.14.34.27.42S61.74,131.2,61.89,131.16ZM166.45,54.74c.15-.07.36-.12.43-.24s-.06-.29-.1-.45c-.14.09-.34.15-.42.28S166.41,54.6,166.45,54.74ZM112.58,134.9c.08.14.13.32.25.4s.25-.06.38-.09c-.07-.14-.1-.34-.21-.41S112.72,134.86,112.58,134.9Zm8.89-43.71c.17-.07.4-.1.48-.22s-.08-.32-.13-.49a1.69,1.69,0,0,0-.46.31C121.31,90.86,121.43,91.06,121.47,91.19Zm-16.8,16.75-.15-.19a2.09,2.09,0,0,0-.19.4s.1.12.15.18Zm-5.87,5.48c0,.06,0,.15.06.17a.93.93,0,0,0,.24,0l-.07-.29Zm30.57-50.14c0-.07-.07-.18-.14-.21a.83.83,0,0,0-.26,0l.19.32Zm-14.45,76.16c.06-.05.15-.08.17-.14s0-.17,0-.25a.84.84,0,0,0-.24.16S114.88,139.36,114.92,139.44Zm-18.56-23.1.14.11,0-.16Zm-5,5.24-.12-.1,0,.16Z"/><path d="M62.53,35.33a13.47,13.47,0,0,1,.63,1.57c0,.11-.34.32-.52.49a10.09,10.09,0,0,1-.77-1.3C61.83,36,62.19,35.72,62.53,35.33Z"/><path d="M76.11,62.15a9.83,9.83,0,0,1,.82,1.43c0,.08-.63.58-.71.52A8.92,8.92,0,0,1,75.15,63Z"/><path d="M64.43,31l.49.28-1,1.47c-.17-.18-.5-.46-.47-.51C63.75,31.81,64.11,31.41,64.43,31Z"/><path d="M69.34,66.32c-.58.36-.85.67-1.12.66s-.54-.31-.81-.49c.23-.23.43-.59.7-.65S68.69,66.05,69.34,66.32Z"/><path d="M63.73,38.41a7.2,7.2,0,0,1,.62.8c.05.09-.11.3-.18.45-.28-.26-.56-.52-.82-.8A4,4,0,0,1,63.73,38.41Z"/><path d="M95.09,62.51l.34.61-.62.28-.27-.69Z"/><path d="M94.05,61.83a8.4,8.4,0,0,1-.4-.93,1.24,1.24,0,0,1,.44-.23,8.56,8.56,0,0,1,.59.85Z"/><path d="M78.87,60.7c.09-.17.14-.42.28-.48a3.07,3.07,0,0,1,.91-.18,1.18,1.18,0,0,1,.09.46,2.39,2.39,0,0,1-.76.22,2.18,2.18,0,0,1-.56-.06Z"/><path d="M79,68.08l.66.67-.41.36-.49-.84A2.23,2.23,0,0,1,79,68.08Z"/><path d="M78.75,68.27c-.07-.07-.19-.13-.2-.2,0-.32,0-.65,0-1a.76.76,0,0,1,.26,0c.07.32.12.65.18,1A2.23,2.23,0,0,0,78.75,68.27Z"/><path d="M106.39,60.6c-.07.15-.1.36-.21.42s-.29-.06-.44-.1c.08-.14.13-.32.26-.41S106.25,60.56,106.39,60.6Z"/><path d="M83.37,76.83l-.1.24L83,76.73l.2-.13Z"/><path d="M70.5,64.35a1.05,1.05,0,0,1,.44-.17c.08,0,.15.21.22.32-.14.07-.28.18-.41.17S70.58,64.46,70.5,64.35Z"/><path d="M36,87.57s.05-.15.08-.15a1,1,0,0,1,.23.06s-.05.15-.08.15A1.12,1.12,0,0,1,36,87.57Z"/><path d="M87.8,48.84c.08.14.24.27.24.4s-.16.25-.26.38c-.08-.13-.24-.26-.24-.39S87.7,49,87.8,48.84Z"/><path d="M86.92,26l-.23.27c0-.05,0-.12,0-.15l.2-.1Z"/><path d="M80,70.52l.24.11-.2-.15Z"/><path d="M80,70.48l-.28-.24a.52.52,0,0,1,.15.06,2,2,0,0,1,.09.22Z"/><path d="M78.83,60.66l-.13.23.17-.19Z"/><path d="M96.73,45.69,97,46c-.06,0-.15,0-.18-.06a.61.61,0,0,1-.07-.24Z"/><path d="M96.76,45.66l-.28-.24c.06,0,.13,0,.16,0a.85.85,0,0,1,.09.22Z"/><path d="M118.12,94.76l-.58.58c-.79,0-1.12.41-1.15,1.15-.6.08-1.16.09-1.22-.73,0-.65-.53-.93-.71-.26-.26,1-.37,1.26-1,.31-.38-.53-.72-1.1-1.08-1.65l0,0c1-.3,2.36.4,3.1-.92a.61.61,0,0,1,.51-.16c.43,0,.87.12,1.3.18a14.88,14.88,0,0,1-1.27-.94.76.76,0,0,1-.14-.6.58.58,0,0,1,.47-.17c.83.45,1.63.94,2.44,1.41l0,1.18Z"/><path d="M112.35,97.65c-1.51-.75-1,.53-1.16,1.15-1,.24-2.1.39-2.64,1.6-.16.38-.94.48-1.43.7a38.7,38.7,0,0,1,2.43-3.95,2.69,2.69,0,0,1,1.91-.66C111.75,96.48,112.05,97.24,112.35,97.65Z"/><path d="M99.61,72.21c.79,0,1.19-.36,1.15-1.16,1.14,0,.85.71.57,1.32s-.12,1,.65,1.06a2.15,2.15,0,0,1,.68.27c-.22.16-.41.41-.66.48C100.82,74.52,100.56,74.29,99.61,72.21Z"/><path d="M110.58,91.3c1.49-.41,2,.85,2.64,1.7.07.1-.6.78-.93,1.19l0,0-1.72-2.9Z"/><path d="M124.47,82a11.33,11.33,0,0,1-.68,1.18,8.67,8.67,0,0,1-.87.84c0-.45-.25-1-.1-1.34A5.23,5.23,0,0,1,124,81.17c.11-.11.52.07.8.11l-.32.77Z"/><path d="M126.75,83.79l-1.17-.58c.82-.95,1.94-.47,2.93-.61C128.38,84.1,128.25,84.19,126.75,83.79Z"/><path d="M113.48,60.1a.89.89,0,0,1,.12.45l-.25.27a3.31,3.31,0,0,1-.57.93,3.43,3.43,0,0,1-1,.45c0-.42-.14-1,.08-1.21a7.28,7.28,0,0,1,1.66-.88Z"/><path d="M93.88,116.12l-.58.58c-1.65-.5-1.65-.5-.57-1.77l0,0C93.44,115,94,115.16,93.88,116.12Z"/><path d="M80.57,126.51c1.08.55,1.39,1.22.85,1.88a.51.51,0,0,1-.46.14.6.6,0,0,1-.28-.42c-.05-.55-.06-1.1-.08-1.64Z"/><path d="M117.06,86.48c.37.61.74,1,.67,1.14a4.24,4.24,0,0,1-.86,1c-.14-.26-.43-.53-.4-.77A5.8,5.8,0,0,1,117.06,86.48Z"/><path d="M110,63.59l.6-1.07,1.37.78c-.15.21-.32.61-.45.6a12.1,12.1,0,0,1-1.56-.35Z"/><path d="M107.7,97.07c1.09,0,1.13.5.42,1.12-.29.25-.8.24-1.2.35.15-.36.29-.73.46-1.08a2.36,2.36,0,0,1,.35-.43Z"/><path d="M98.48,110.89c-.67.1-1.38.31-1.73-.57h0l1.44-.73c.87-.44.85.16.86.73l0,0-.63.63Z"/><path d="M130.35,73.82c.33-.19.64-.39,1-.55a1.22,1.22,0,0,1,.47,0,5.72,5.72,0,0,1-.57,1.1c-.48.56-.93.6-1.14-.25C130.18,74,130.26,73.91,130.35,73.82Z"/><path d="M81.14,93.61V93l2.91-.56Z"/><path d="M87.46,118.74l-.24.66c-.38-.32-.77-.63-1.12-1,0,0,.09-.27.13-.42Z"/><path d="M70.18,135.14l-1.75,0,.84-1.2Z"/><path d="M76.51,129.35c0,.89-.57,1.29-1.32,1.51-.06,0-.19-.22-.28-.33l1.64-1.13Z"/><path d="M121,87.21c-.51-.13-1,1.11-1.46.1-.13-.28.19-.76.31-1.14L121,87.26Z"/><path d="M110.46,93.55c.25.57.48.93.42,1a4.13,4.13,0,0,1-.89.58c0-.16-.16-.35-.11-.48A9.68,9.68,0,0,1,110.46,93.55Z"/><path d="M86.91,87.26a6.22,6.22,0,0,1,1.24.41c.13.08.09.48.12.73-.26-.07-.61-.07-.78-.24a4.15,4.15,0,0,1-.55-.94Z"/><path d="M99.07,106.84c-1.34.07-1.07-.94-1.15-1.72l0,0c.78.31,1.39.74,1.16,1.72Z"/><path d="M70.17,136.9l0-1.74a1.7,1.7,0,0,1,1.13,1.74l0,0Z"/><path d="M94.42,114.46c-.26-.44-.56-.76-.5-.85a3.74,3.74,0,0,1,.75-.67c.15.21.44.46.4.63S94.71,114.08,94.42,114.46Z"/><path d="M66.17,109.76c0-.08,0-.2.09-.25.44-.39.89-.77,1.35-1.15,0,.08.12.16.11.23-.16.88-.79,1.13-1.59,1.14Z"/><path d="M107.11,66.47V65.28c.1,0,.21,0,.29,0,.38.24.75.49,1.12.75Z"/><path d="M91.56,113.77c-.19,0-.44,0-.55-.06a2.73,2.73,0,0,1-.62-.81c0-.05.35-.3.54-.46a6.15,6.15,0,0,1,.64.81c.07.13,0,.36,0,.55Z"/><path d="M123.61,79.25l.43.37a3.41,3.41,0,0,1-.58.5c-.1.06-.3-.08-.45-.13Z"/><path d="M92.73,110.56c.22.26.42.41.39.47a2.15,2.15,0,0,1-.41.66s-.28-.06-.42-.1Z"/><path d="M78.87,127.08c.39-.69.67-1.76,1.7-.57l0,0-1.77.58Z"/><path d="M77.35,99.81l-1.07.31c0-.17-.13-.46-.09-.48a2.09,2.09,0,0,1,.76-.23C77,99.4,77.15,99.61,77.35,99.81Z"/><path d="M86.38,121.27l-.29,0-1.67-.2c0-.06.11-.18.15-.17.59.13,1.18.29,1.77.43Z"/><path d="M125.63,83.18v.61c-1.28,0-1.14-.93-1.15-1.77l0,0Z"/><path d="M127.93,75.1a6.55,6.55,0,0,1-.29-1c0-.08.27-.2.42-.3a1.8,1.8,0,0,1,.17.64,3.23,3.23,0,0,1-.33.74Z"/><path d="M73.1,104.57l.68-.95.2.19-.92.72Z"/><path d="M90.23,117.11a6.9,6.9,0,0,1-1.15.12,2.61,2.61,0,0,1-.65-.28c.43-.08.85-.18,1.28-.22C89.82,116.72,90,116.9,90.23,117.11Z"/><path d="M75.59,102.65a6.54,6.54,0,0,1-.67-.86c0-.09.1-.3.16-.46a6,6,0,0,1,.72.71C75.85,102.11,75.7,102.34,75.59,102.65Z"/><path d="M104.07,97.05l-.33.38a2.6,2.6,0,0,1-.25-.33s.12-.21.17-.2A2.26,2.26,0,0,1,104.07,97.05Z"/><path d="M133.71,72.82l-.59.58-.45-.84Z"/><path d="M62,114.2c0-.15-.14-.35-.08-.45s.29-.2.45-.3c0,.17.15.38.09.5S62.18,114.12,62,114.2Z"/><path d="M82.91,126.51l-.2-1,.48.06-.32.88Z"/><path d="M83.49,128.2l-.58-1.15,0,0c1.14-.09.92.49.57,1.15Z"/><path d="M64.42,110.9l.79.41-.34.36-.45-.77Z"/><path d="M99,110.33l.27,1-.83-.48,0,0,.63-.63Z"/><path d="M129.09,76.26l-1.16-1.16,0,0h1.19l0,0v1.19Z"/><path d="M104.84,99.27l-.4.38-.43-.59c.07,0,.17-.17.21-.15A5.16,5.16,0,0,1,104.84,99.27Z"/><path d="M79.49,128.4c0,.13.13.31.08.39a1.54,1.54,0,0,1-.41.27c0-.16-.15-.35-.09-.45S79.34,128.47,79.49,128.4Z"/><path d="M106.57,67.63H106a1.11,1.11,0,0,1,1.2-1.2Z"/><path d="M76.55,129.4a5.85,5.85,0,0,1,.91-.51c.09,0,.28.16.42.25a2.59,2.59,0,0,1-.51.18,8.33,8.33,0,0,1-.86,0Z"/><path d="M125.63,78l-.15-.94.46.11-.35.79Z"/><path d="M113.6,60.55l.77.85-1-.58Z"/><path d="M119.82,82.64c.18.06.43.06.51.18a2,2,0,0,1,.19.69,1.93,1.93,0,0,1-.61-.36c-.1-.11,0-.36-.06-.55Z"/><path d="M78.82,131.25a2.79,2.79,0,0,1-.58.32c-.06,0-.19-.18-.29-.27l.54-.5Z"/><path d="M73.09,134.58c.06-.16.08-.39.2-.49a2.84,2.84,0,0,1,.68-.32s.13.19.1.22a2,2,0,0,1-.48.55c-.13.08-.35,0-.53,0Z"/><path d="M119.26,56.07a5.91,5.91,0,0,1-.93.49c-.11,0-.3-.14-.45-.23a3.24,3.24,0,0,1,.52-.19c.28,0,.56-.06.85-.09Z"/><path d="M100.47,104.82c-.16,0-.35.14-.45.09s-.15-.27-.22-.41c.14,0,.32-.14.41-.09S100.38,104.68,100.47,104.82Z"/><path d="M71.9,135.17l1.19-.59,0,0-.28,1-.84-.44Z"/><path d="M106.49,99.79c-.11.12-.22.33-.32.33s-.3-.16-.45-.26l.45-.44Z"/><path d="M114.44,91.17l-.67.32c0-.16-.16-.36-.1-.46a.54.54,0,0,1,.43-.21C114.2,90.82,114.29,91,114.44,91.17Z"/><path d="M84.64,91.3l-1.2-1.2C84.38,90,84.59,90.56,84.64,91.3Z"/><path d="M101.94,103.55l.2.08-.28.19-.11-.16Z"/><path d="M126.16,80.86l-.2.78.24-.75Z"/><path d="M125.59,78.6c.15.25.3.5.44.76,0,0-.12.1-.19.15l-.21-1Z"/><path d="M121.44,82l-.08.23a1.94,1.94,0,0,1-.23-.27s.11-.11.17-.16Z"/><path d="M128.52,82l-.75-.12.12-.29.58.45Z"/><path d="M97.92,105.12l-.47-.52.28-.17.14.73Z"/><path d="M125.59,78v.62l0,0-.93-.26.93-.28Z"/><path d="M93.55,83.45l-.13-.19.29-.18a.7.7,0,0,1,0,.24C93.71,83.38,93.61,83.41,93.55,83.45Z"/><path d="M69,107l.22.08-.3.23-.13-.19Z"/><path d="M91.75,110.07a2.09,2.09,0,0,1-.21.12,1.53,1.53,0,0,1-.17-.27.74.74,0,0,1,.25,0C91.68,109.91,91.7,110,91.75,110.07Z"/><path d="M93.26,112.62l-.22.8.26-.76Z"/><path d="M112.07,84.11c0,.08.1.16.09.23s-.09.15-.14.22C112,84.41,112.05,84.26,112.07,84.11Z"/><path d="M130.09,74.11l-.56-.59.82.3C130.26,73.91,130.18,74,130.09,74.11Z"/><path d="M131.7,72a2,2,0,0,1-.41.15s-.1-.11-.15-.17a2.14,2.14,0,0,1,.42-.16S131.66,71.89,131.7,72Z"/><path d="M92,117.7c-.06.13-.13.27-.2.4,0-.06-.17-.14-.15-.18a2.5,2.5,0,0,1,.19-.41C91.91,117.58,92,117.64,92,117.7Z"/><path d="M83.72,119.8c-.11.1-.22.27-.32.26s-.22-.16-.31-.27.12-.19.16-.18A4.21,4.21,0,0,1,83.72,119.8Z"/><path d="M118.29,85.88l-.22.07-.06-.29a.56.56,0,0,1,.23,0S118.28,85.82,118.29,85.88Z"/><path d="M80.84,123.29l-.13-.21.29-.17a.74.74,0,0,1,0,.25C81,123.22,80.91,123.25,80.84,123.29Z"/><path d="M79,125c0,.05,0,.14,0,.16a.78.78,0,0,1-.22,0l0-.28Z"/><path d="M112.31,65.71l-.2-.15c.08,0,.16-.1.23-.1s.13.09.2.14Z"/><path d="M80.57,129.81l-.23-.08a1.78,1.78,0,0,1,.27-.21s.11.1.17.16Z"/><path d="M73.44,132.42c-.06,0-.18,0-.18-.08a.78.78,0,0,1,.07-.25c.06,0,.18,0,.18.08A.78.78,0,0,1,73.44,132.42Z"/><path d="M74.79,132.28H76l0,0v.61l0,0-1.16-.57Z"/><path d="M71.94,135.14l-.46-.62.42.65Z"/><path d="M115.62,88c-.07,0-.18.08-.21,0a.79.79,0,0,1-.09-.23l.34-.08Z"/><path d="M114.44,88.25l.09.24-.35.06a1,1,0,0,1,0-.26S114.37,88.26,114.44,88.25Z"/><path d="M135.44,74.55h-.61V73.36Z"/><path d="M110.62,91.26l-.31-.27c.07,0,.16,0,.19.05a.72.72,0,0,1,.08.26Z"/><path d="M121.54,87.21H121l0,.05h.62Z"/><path d="M84.6,91.88v0Z"/><path d="M84,92.44l.6-.61Z"/><path d="M122.16,86.63v.63l-.62-.05,0,0Z"/><path d="M106,95.3l-.1.23.14-.19Z"/><path d="M121.54,84.9l-.21.29s0-.12,0-.14a1.18,1.18,0,0,1,.19-.11Z"/><path d="M107.15,96.45l-.28-.25c.06,0,.14,0,.17,0a1.69,1.69,0,0,1,.08.24Z"/><path d="M124.47,85l.21-.27s0,.11-.06.14a1.11,1.11,0,0,1-.19.09Z"/><path d="M107.73,97l-.58-.58,0,0,.58.58Z"/><path d="M122.16,84.91h-.62l0,0h.56Z"/><path d="M76.51,97.61h0Z"/><path d="M129.67,83.22l-.62-.63Z"/><path d="M129.1,82.64h-.63l.05-.63-.05,0Z"/><path d="M119.85,82.6l-.28-.25c.06,0,.12,0,.15.07a.74.74,0,0,1,.1.22Z"/><path d="M102.54,100.5l-.24-.14.2.18Z"/><path d="M95,80.32l.25.14L95,80.28Z"/><path d="M73.06,104.53l-.29.29c0-.06,0-.14.08-.17a.92.92,0,0,1,.25-.08Z"/><path d="M69.6,105.11l-.26.27s0-.12.08-.14a.73.73,0,0,1,.22-.09Z"/><path d="M66.13,109.73l-.24.27c0-.06,0-.13.06-.16a1.13,1.13,0,0,1,.22-.08Z"/><path d="M96.75,110.32l-.42-.22.41.23Z"/><path d="M63.83,110.34l.59.56h0l-.57-.58Z"/><path d="M99,75.72v0Z"/><path d="M93.3,112.66l.24-.31c0,.06,0,.14-.05.17a1.15,1.15,0,0,1-.23.1Z"/><path d="M129.09,75.14l.11-.25-.15.21Z"/><path d="M92.14,114.34l-.58-.57,0,0,.57.58Z"/><path d="M96.77,114.35l-.24-.13.2.17Z"/><path d="M92.1,114.38l.59.59,0,0-.59-.59Z"/><path d="M95,115.51l-.28-.23s.11,0,.13.07a1.28,1.28,0,0,1,.11.2Z"/><polygon points="128.79 71.83 128.85 72.01 128.69 71.99 128.79 71.83"/><path d="M62.13,116.11l.12-.25-.16.22Z"/><path d="M62.09,116.08l-.23.25a.32.32,0,0,1,.07-.13,1.21,1.21,0,0,1,.2-.09Z"/><path d="M134.26,71.07l-.14.24.15-.24Z"/><path d="M54.58,118.42l.31.28c-.06,0-.16,0-.19,0a.72.72,0,0,1-.08-.26Z"/><path d="M56.93,119l.22-.26c0,.05,0,.12-.06.14a.6.6,0,0,1-.2.08Z"/><path d="M93.88,119h-.62v-.62h.62Z"/><path d="M56.89,119l-.25.3c0-.06,0-.14.06-.17a.79.79,0,0,1,.23-.09Z"/><path d="M91.57,119.55l-.23-.12.2.16Z"/><path d="M55.19,120.16l.28-.28c0,.06,0,.15-.06.17a.72.72,0,0,1-.25.07Z"/><path d="M82.26,123.66l-.39-.25.25-.25.25.39Z"/><path d="M82.37,123.55l.22.34-.33-.23Z"/><path d="M106.54,68.21v0Z"/><path d="M82.91,127.05v-.54l0,0v.62Z"/><path d="M78.83,127.05l-.26.33c0-.07,0-.16,0-.19a.76.76,0,0,1,.26-.11Z"/><path d="M84.07,128.82h-.62l0-.62,0,0Z"/><path d="M73.1,130.54l.12-.23-.16.19Z"/><path d="M73.06,130.5l-.22.28c0-.05,0-.11.06-.13a1.28,1.28,0,0,1,.2-.11Z"/><path d="M70.79,131.7l.14-.24-.18.2Z"/><path d="M70.75,131.66l-.11.25.15-.21Z"/><path d="M74.82,132.25,74.4,132l.39.27Z"/><path d="M76,132.29l.11-.25-.15.21Z"/><path d="M75.94,132.86l.31.29c-.06,0-.15,0-.18-.07a.58.58,0,0,1-.09-.26Z"/><path d="M76,134.56l-.27-.23s.1,0,.13.07a1.74,1.74,0,0,1,.1.19Z"/><path d="M73.68,136.87l-.24-.12.2.15Z"/><path d="M71.32,136.9l.27.24s-.11,0-.13-.08a.75.75,0,0,1-.1-.2Z"/><path d="M106,95.34l.26-.29c0,.06,0,.14-.06.17a1.69,1.69,0,0,1-.24.08Z"/><path d="M128,125.93c-.32.16-.58.4-.75.35A4.11,4.11,0,0,1,125,123c0-.24.3-.63.46-.63a1.14,1.14,0,0,1,.74.43,24.23,24.23,0,0,1,1.43,2A5.56,5.56,0,0,1,128,125.93Z"/><path d="M130.92,131.73c-.18.37-.22.59-.35.67s-.35,0-.46-.13a20.09,20.09,0,0,1-1.51-1.68c-.12-.16,0-.5,0-.77.23.05.54,0,.68.15C129.89,130.55,130.42,131.18,130.92,131.73Z"/><path d="M125,120.11a.81.81,0,0,1,0,.27c-.19.43-.4.85-.6,1.27-.13-.1-.35-.17-.39-.3-.23-.87.32-1.11,1-1.19Z"/><path d="M132.39,135.55l-.21.55a3.18,3.18,0,0,1-.61-.31.82.82,0,0,1,.17-.42A2.63,2.63,0,0,1,132.39,135.55Z"/><path d="M138.7,147.39l.42.76c-.22.11-.45.33-.65.3a.67.67,0,0,1-.36-.54C138.15,147.73,138.45,147.6,138.7,147.39Z"/><path d="M137.67,146.77l-.36.23-.32-.62c.16,0,.37-.13.47-.07S137.61,146.61,137.67,146.77Z"/><path d="M134.87,139.74a2,2,0,0,1-.8-.14c-.14-.08-.12-.41-.17-.64.16,0,.36,0,.46.14a4.76,4.76,0,0,1,.46.68Z"/><path d="M147,143.25a4.23,4.23,0,0,1,.73.39c.12.1.14.32.2.48-.24,0-.58,0-.69-.12s-.14-.52-.2-.79Z"/><path d="M147,143.21a2,2,0,0,1-.81-.21c-.14-.12-.09-.46-.12-.71.16.07.37.1.47.22a4.15,4.15,0,0,1,.42.74Z"/><path d="M134.82,139.78c.15.2.31.4.44.61,0,0-.07.12-.11.19l-.28-.84Z"/><path d="M139.87,149.56l-.07.2a1.5,1.5,0,0,1-.2-.24s.1-.1.15-.16Z"/><path d="M135.65,142.87c0,.06,0,.16,0,.18a.79.79,0,0,1-.23,0l0-.3Z"/><path d="M144.07,136.86l-.55.47-.16-.28.75-.15Z"/><path d="M133,138l-.08.22a1.38,1.38,0,0,1-.22-.26s.11-.11.16-.17Z"/><path d="M145.07,138.55l-.07.22a1.33,1.33,0,0,1-.21-.26s.1-.11.15-.16Z"/><polygon points="136.83 144.22 136.78 144.06 136.93 144.08 136.83 144.22"/><path d="M81.71,91.3l.62-.62Z"/></g></svg>