<svg id="Layer_1" data-name="Layer 1" xmlns="http://www.w3.org/2000/svg" viewBox="0 0 200 200"><path d="M128.59,139.37c-6.12,7.07-9.53,19.95-5.06,24.12,4.25,3.18,15.73,2.79,24.2-8.81,6.17-7.74,4.07-20.7.58-24.13-5.22-4-12.71,1.18-19.72,8.92ZM71,141.5c-6.51-7.43-14.95-11.85-20.4-8.58-3.67,2.73-4.33,12.07.86,21.23,7.71,10.9,18.58,12,23,9.36,4.72-3.5,2.15-15.32-3.52-22ZM100.34,164c-7.9-.16-20,3.16-19.86,7.41-.14,2.88,9.53,11.23,19.36,10.81,9.47.22,19.27-8.15,19.16-11.78s-10.7-6.63-18.64-6.32Zm-.52-99.7C90.68,64.06,81.91,71,81.91,75c0,4.87,7.21,9.83,18,10,11,0,18-4,18.1-9,.12-5.67-10-11.71-18-11.62Zm-22,3.8c-15.25-2.46-28,6.43-27.46,22.82.5,6.32,33.1-21.73,27.49-22.7Zm69.73,23.24c.5-16.28-12.21-25.17-27.49-22.72C114.45,69.59,147.06,97.66,147.56,91.32Zm2.6,5.9c-8.86-2.35-3,36.12,4.22,33,7.93-6.22,10.47-24.66-4.22-32.9ZM43.61,130.66c7.2,3.21,13.07-35.26,4.21-32.91-14.66,8.27-12.15,26.68-4.21,33ZM111,88.11c-8.21,5.37-9.69,17.38-3.3,26.8s18.19,13,26.37,7.7,9.7-17.23,3.33-26.79-18.22-13-26.4-7.59Zm-22.15,1c-8.19-5.26-20-1.82-26.37,7.59s-4.92,21.55,3.3,26.91,20,1.92,26.4-7.6S97,94.53,88.82,89.2ZM120,140.3c-.06-10-8.94-18-19.86-17.88s-19.76,8.13-19.7,18.1v.2c.06,10,9,18,19.89,17.91s19.72-8.13,19.61-18v-.23ZM143,32.07c-16.52,8.47-26.12,15.23-31.41,21,2.71,10.72,16.76,11.15,21.93,10.81A3.73,3.73,0,0,1,131.27,62c1.28-.88,5.87-.12,9.08-1.85a2.7,2.7,0,0,1-2.38-1.4c3-.94,6.26-1.7,8.15-3.32a5,5,0,0,1-3.32-.64c2.68-1.38,5.56-2.58,7.82-4.7-1.4,0-2.9,0-3.32-.53a28.07,28.07,0,0,0,6.26-5.06c-1.93.34-2.77.14-3.25-.19,1.87-1.85,4.25-3.44,5.37-5.82-1.46.56-2.79.65-3.74,0,.67-1.37,3.38-2.23,4.94-5.55-1.53.22-3.16.33-3.49,0a17.28,17.28,0,0,1,3.13-6.12c-3.27,0-8.25,0-8-.2l2-2c-3.19-.86-6.46.12-8.84.87-1-.75,0-1.85,1.32-2.9a34.16,34.16,0,0,0-7.38,1.84c-1.17-1.09.73-2,1.7-3.13a21.27,21.27,0,0,0-7.82,3c-1.29-1.18-.11-2.24.75-3.18a19.85,19.85,0,0,0-6.54,4.05c-.64-.76-1.5-1.29-.45-3.22A17.28,17.28,0,0,0,118,26.4c-1.37-.95-.83-2.15-.83-3.21A51.21,51.21,0,0,0,111.53,29c-.45-.22-.76-1.09-1-2.48-5.56,5.36-13.52,18.77-2,24,9.63-7.83,21.31-13.61,34.19-17.91Zm-87.67,0c12.85,4.31,24.44,10.09,34.17,18,11.4-5.36,3.52-18.77-2-24-.28,1.36-.58,2.34-.94,2.57a56.59,56.59,0,0,0-5.65-5.81c0,1.09.56,2.37-.84,3.21a16.53,16.53,0,0,0-5.16-4.5c1.05,1.84.16,2.38-.43,3.21A17.81,17.81,0,0,0,68,20.51c.86,1.06,2.15,2.15.86,3.33a20.47,20.47,0,0,0-7.7-3c.94,1.06,2.87,2.14,1.7,3.24a29.84,29.84,0,0,0-7.4-1.87c1.28,1.09,2.43,2.06,1.36,2.9-2.46-.87-5.75-1.82-9-.95l2,2c.23.27-4.7.22-8,.25A15.32,15.32,0,0,1,45,32.52c-.34.31-1.93.12-3.46,0,1.61,3.22,4.27,4.08,4.91,5.48-1,.67-2.23.53-3.74,0,1.18,2.24,3.55,3.86,5.37,5.79-.54.3-1.29.53-3.33.28a28.45,28.45,0,0,0,6.23,5c-.45.5-2,.47-3.44.53,2.24,2.19,5.15,3.33,7.83,4.75a4.62,4.62,0,0,1-3.33.76c1.82,1.58,5.15,2.34,8.16,3.29a2.88,2.88,0,0,1-2.49,1.4c3.21,1.82,7.71,1,9,1.92a3.85,3.85,0,0,1-2.26,2c5.13.31,19.31-.11,22-10.84C81.19,47.09,71.56,40.32,55.05,32Zm12.41-16c1.67,0,3.09,1,4.66,1.46,3.77-1.23,4.63.44,6.48,1.14,4.13-.86,5.39,1,7.37,3l2.3-.09c6.23,3.63,9.33,11,10.42,14.78,1.09-3.77,4.19-11.15,10.42-14.78l2.29.06c2-2,3.24-3.86,7.38-3,1.87-.75,2.71-2.34,6.51-1.17,2.38-.76,4.45-2.68,7.57-.34,2.63-1.06,5.2-1.39,7.46.64,3.55-.42,4.67.45,5.53,1.51.79,0,5.79-.76,8.11,2.57,5.81-.64,7.63,3.33,5.53,7.06,1.21,1.82,2.43,3.56-.33,7,1.05,1.93.41,3.95-2,6.51.67,2.68-.53,4.53-2.66,6,.43,3.66-3.43,5.81-4.5,6.54-.44,2.15-1.31,4.18-5.69,5.25-.64,3.21-3.32,3.75-5.9,4.39,8.5,4.83,15.65,11.14,15.65,26.67l1.31,2.15c9.64,5.79,18.33,24.33,4.8,39.46-.83,4.69-2.34,8-3.65,11.75-1.93,15.11-14.89,22.19-18.3,23a60.59,60.59,0,0,1-17.46,9.75C114.33,184.32,107,187,99.66,187H99c-7.4,0-14.78-2.68-21.54-9.55A59.87,59.87,0,0,1,60,167.7c-3.43-.84-16.32-7.91-18.32-23-1.34-3.74-2.82-7.18-3.69-11.9C24.4,117.67,33.06,99.14,42.7,93.33l1.23-2.13c0-15.53,7.17-21.87,15.64-26.67-2.57-.65-5.15-1.18-5.87-4.42-4.41-1.06-5.28-3.1-5.7-5.25-1.06-.73-4.92-2.88-4.5-6.62-2.15-1.5-3.32-3.32-2.68-6.12-2.24-2.46-2.87-4.6-1.93-6.53-2.79-3.44-1.51-5.26-.33-7-2-3.77-.2-7.82,5.59-7.17,2.23-3.33,7.29-2.58,8-2.58.86-1.09,2-2,5.58-1.61,2.24-2,4.83-1.71,7.49-.73a4.59,4.59,0,0,1,2.9-1.18Z"/></svg>