<svg id="Layer_1" data-name="Layer 1" xmlns="http://www.w3.org/2000/svg" viewBox="0 0 200 200"><g id="Z9D8Oq"><path d="M93.39,159.82c-12.39,1.45-24.6,1.72-36.63-2.5,14.34-46.6,29.48-92.93,42-140,0,.68-.15,1.35-.15,2,0,4.8,0,9.61,0,14.42a3.5,3.5,0,0,0,.46,1.4c4.39,8.88,9.79,17.17,15,25.59q28.59,46.48,57.31,92.9c.24.39.5.78.8,1.25l5.62-3,.22.28c-.28.25-.54.53-.84.75-3.61,2.63-7.26,5.19-10.8,7.89a40.93,40.93,0,0,0-9.62,9.68c-1.34,2-2.2,4.34-3.35,6.48a2.16,2.16,0,0,1-1.28,1.05c-2.47.42-5,.82-7.47,1-12.53.91-25.08,1-37.64,1-8.38,0-16.77.16-25.14-.17-12.25-.48-24.49-1.2-36.72-2.07-11.95-.84-23.87-2-35.61-3,16-.7,32.14,2,48.33,1.69l-5.35-7.59.2-.27,4.33.37c2,.18,4.09.34,6.13.53a1,1,0,0,0,1.16-.63,18.48,18.48,0,0,1,2-2.77,1.9,1.9,0,0,1,1.23-.46q13.78-.81,27.57-1.58l2.08-.11q.39-65.13.78-130.16h-.41C95,75.69,92.06,117.62,93.39,159.82Zm6.15,4.08H101c4.53.07,9.06.11,13.58.25a3.69,3.69,0,0,1,2,.75c1.4,1.12,2.66,2.41,4,3.57A2.09,2.09,0,0,0,122,169c3.31-.42,6.63-.85,9.93-1.4a144.18,144.18,0,0,0,32.9-9.26c2.23-.95,4.42-2,6.63-3a14.64,14.64,0,0,0-3.66-.63c-10.2-.46-20.4-1.05-30.61-1.29a166.31,166.31,0,0,0-29.58,1.51,63.86,63.86,0,0,0-7.28,1.9,1.25,1.25,0,0,0-.74.85C99.51,159.67,99.54,161.71,99.54,163.9Zm0-12.94.14.06a6,6,0,0,0,.22-.8c1.56-8.48,3.21-16.94,4.64-25.45A231.48,231.48,0,0,0,107.64,92a191,191,0,0,0-2.78-37.9c-1.08-6.17-2.26-12.3-5.65-17.73-.14-.23-.28-.45-.57-.94C98.93,74.12,99.22,112.54,99.51,151ZM97.7,33l.3,0V29.25Z"/></g></svg>