<svg id="Layer_1" data-name="Layer 1" xmlns="http://www.w3.org/2000/svg" viewBox="0 0 200 200"><g id="P9F7py"><path d="M93.61,194.84c-.89-.07-1.78-.16-2.67-.2a119.54,119.54,0,0,1-19.52-2.11A37.3,37.3,0,0,1,66,190.82a2.71,2.71,0,0,1-1.9-3c.12-1.79,0-3.59,0-5.38,0-2.69,1-4,3.67-4.54.87-.17,1.22-.45,1-1.31s.48-1.37,1.15-1.59a70,70,0,0,1,7.21-2.13A100,100,0,0,1,95,171.13c-.7-.81-1.32-1.56-2-2.27a.89.89,0,0,1,0-1.42c.89-.91,1.78-1.83,2.61-2.79a2.07,2.07,0,0,0,.59-1.19c0-6.73,0-13.47,0-20.2,0-7.25,0-14.5,0-21.75s0-14.51,0-21.76c0-5.18,0-10.36,0-15.54s0-10.36,0-15.54,0-10.35,0-15.53V44.76H101v-.19H96.23c.31-1.07,1-1.58,2.51-2.12l-2.88-2.18,1.48-1.67c-1.49-.35-1.89-1.36-1.74-2.76a1.31,1.31,0,0,0-.52-1,13.26,13.26,0,0,0-7-2.33c-4.16-.17-8.32-.77-12.48-.9a15.92,15.92,0,0,0-4.78,1.05c-1.88.56-3.73,1.25-5.57,1.93-3.43,1.27-6.78.72-10.13-.31-1.71-.52-3.42-1.07-5.14-1.56a3.82,3.82,0,0,0-1.07,0,4.22,4.22,0,0,0,.24,1,11.49,11.49,0,0,1,1.56,6.13,4.3,4.3,0,0,1-3.25,4.28c-.15,0-.28.13-.41.44.51.06,1,.14,1.54.18.81.06,1.19.36,1.18,1.29,0,3.38,0,6.76.1,10.15a15.71,15.71,0,0,0,.28,2.46,1.53,1.53,0,0,0,2.64,1.06c.67-.5,1.78-.48,2.06,0a2.47,2.47,0,0,1-.78,3,15.56,15.56,0,0,1-1.74.56q11.57,33.42,23.12,66.85l-.2.07c-.35-1-.72-1.93-1.06-2.9-4.9-13.85-9.84-27.7-14.7-41.57-2.5-7.15-4.89-14.35-7.31-21.53a1.75,1.75,0,0,0-1.26-1.31A3.08,3.08,0,0,1,48.8,60c-.19-1.71-.34-3.43-.62-5.13a4.82,4.82,0,0,0-.81-1.46l-.37.12a3.76,3.76,0,0,0-.23.84c-.05,2-.26,3.87.43,5.82a9.42,9.42,0,0,1,.06,3.48c0,.19-.42.47-.69.52-.46.09-.94,0-1.52.14,1.06.06.89.77.89,1.37Q46,83,46,100.36q0,20.51.1,41v.87c7,.47,13.9.8,20.79,1.42s13.73,1.18,20.49,2.86c-.35,2.26-1.79,3.72-3.15,5.15-7.12,7.54-15.94,12-26,14.32A57,57,0,0,1,41,167.25C28.29,166.2,17.21,161.57,8.49,152a45.48,45.48,0,0,1-3.18-4.42v-1a49.19,49.19,0,0,1,6.07-1.84,143.68,143.68,0,0,1,20.18-1.89l14.19-.43c0-1.89,0-3.77,0-5.65q-.24-18.6-.51-37.19Q45,82.25,44.67,65c0-1-.38-2.07-.37-3.09a12.11,12.11,0,0,1,.57-2.38,23.51,23.51,0,0,0,.31-5.92l-.38-.21c-.3.36-.78.68-.88,1.09a30.61,30.61,0,0,0-.45,3.17c-.09.82-.1,1.65-.24,2.47a3,3,0,0,1-2.55,2.74,1.31,1.31,0,0,0-1.09,1q-9.24,26.65-18.54,53.29c-1.92,5.52-3.9,11-5.85,16.54a.62.62,0,0,1-.38.4q12.27-35.46,24.55-71L38.83,63c-1.74-.41-2.2-1.19-1.79-2.93.18-.76.59-1,1.28-.64.25.12.49.24.74.38,1.4.76,2.46.34,2.76-1.25a37.63,37.63,0,0,0,.54-4.61c.14-2.45.19-4.9.25-7.35,0-1.65,0-1.65,1.62-1.84l.37,0,.29-.38-.9-.47c-1.69-.79-1.93-2.6-2.72-4-.06-.13.95-1,1.56-1.3.43-.24,1-.74,1.52,0a6,6,0,0,0,1.06,1.24c.83.68,1.59.38,1.76-.69a4.18,4.18,0,0,0-1-3.58,18.73,18.73,0,0,0-2.13-2c-.7-.58-1,0-1.34.52-.58,1.13-.84,1.23-1.76.35A19.23,19.23,0,0,1,39,32a1.15,1.15,0,0,1,.19-1.68c.93-.77,1.93-1.47,2.92-2.22l1.06,1.27A5.63,5.63,0,0,1,46.94,27a6.24,6.24,0,0,1,2.29.28,3.45,3.45,0,0,1,1.27.67c2.72,2.08,5.92,2.47,9.14,2.31,1.35-.08,2.68-1,4-1.59,3.22-1.57,6.3-3.51,9.64-4.72,5.87-2.14,11.82-1.49,17.62.6,1.58.56,3.09,1.31,4.76,2,0-1.23,0-2.42,0-3.6,0-.44.17-1.09.47-1.26.79-.44.77-1.07.81-1.81.07-1.13-.05-2-1.38-2.29-.27-.06-.47-.44-.7-.66a3.1,3.1,0,0,1,.75-.63c.7-.27,1.44-.44,2.17-.66a1.85,1.85,0,0,0-.86-2.22,5,5,0,0,1-1.68-6.24,5.36,5.36,0,0,1,6.26-3,5.53,5.53,0,0,1,3.93,5.46,4.7,4.7,0,0,1-2.17,3.82,1.79,1.79,0,0,0-.89,2.13l3.09,1.14v.38a9.11,9.11,0,0,1-1.41.75.88.88,0,0,0-.71,1.05c.05.52,0,1.05,0,1.55a4,4,0,0,0,.47,1,5.56,5.56,0,0,1,.73,1.57c.11,1.13,0,2.27,0,3.56,1.06-.48,2-1,3-1.38,6.27-2.64,12.74-3.57,19.26-1.29a55.47,55.47,0,0,1,9.53,4.7c4.13,2.43,8.11,2.09,12.16,0,.39-.21.77-.45,1.16-.68,2.84-1.65,5.16-1.23,7.35,1.42l.9-1a5.51,5.51,0,0,1,3.14,2.12,1.65,1.65,0,0,1,.15,1.48,21.81,21.81,0,0,1-2.49,2.86c-.48.48-.94.38-1.24-.37-.53-1.29-.81-1.32-1.93-.41s-2.36,2-2.6,3.72a2.7,2.7,0,0,0-.07.41c0,.76-.06,1.74.79,1.92.51.11,1.31-.43,1.75-.89,1-1.08,1-1.15,2.31-.45.47.25.9.59,1.34.88-1,1.88-1.54,3.93-3.65,4.77.18.24.22.33.26.34,2.22.29,1.73.33,1.85,2.18.24,3.78.41,7.57.74,11.35.17,1.86,1.28,2.34,2.9,1.53.56-.28,1.27-1,1.81,0a2.09,2.09,0,0,1-.81,3,13.66,13.66,0,0,1-1.46.34c1.75,5.08,3.48,10.12,5.23,15.16q6.38,18.47,12.77,36.92c1.3,3.77,2.62,7.54,3.93,11.31.13.39.19.8.28,1.19l0,0c-.85-2.28-1.72-4.54-2.53-6.83-3.85-10.84-7.71-21.67-11.5-32.53C166,80.18,163.31,72,160.49,63.8a1.66,1.66,0,0,0-.91-.93,3.36,3.36,0,0,1-2.7-3.33c-.17-1.54-.3-3.09-.47-4.63a1.41,1.41,0,0,0-.24-.77,4.51,4.51,0,0,0-.85-.64,2.47,2.47,0,0,0-.34.88,40.53,40.53,0,0,0,.21,4.55c.15,1.17.71,2.28.87,3.45.08.58-.35,1.22-.55,1.83h0c-.28,0-.55,0-.83,0-1.83,0-1.89,0-1.86-1.92a19.49,19.49,0,0,1,.45-3,18.35,18.35,0,0,0,0-5.73c-.94,0-1.16.58-1.25,1.12-.26,1.64-.48,3.28-.62,4.92s-.81,3-2.63,3.54c-.34.09-.65.65-.79,1.06-2.32,6.74-4.58,13.5-6.92,20.24q-4.75,13.66-9.6,27.29-2.83,8-5.71,16a7.23,7.23,0,0,1-.49,1l0,0c.57-1.8,1.09-3.61,1.71-5.39q9.58-27.73,19.19-55.47c.53-1.53,1.07-3,1.62-4.64L147,63A2.23,2.23,0,0,1,145.34,60a1.28,1.28,0,0,1,1.94-.32c.53.33.91,1,1.7.58a2.41,2.41,0,0,0,1.2-2.16c.12-3.38.23-6.75.33-10.13,0-.52,0-1,0-1.55,0-1.39.06-1.5,1.46-1.61l1.47-.15a3.87,3.87,0,0,0-.7-.48A4.28,4.28,0,0,1,149.54,40a11.29,11.29,0,0,1,1.36-6l.72-1.44a8.53,8.53,0,0,0-1.34.1c-2.79.77-5.56,1.61-8.35,2.35a11.31,11.31,0,0,1-6.61-.38c-2.87-1-5.71-2-8.64-2.83a13.21,13.21,0,0,0-4.17-.09c-4.34.29-8.7.49-13,1.08-1.64.23-3.16,1.42-4.71,2.23-.17.09-.24.56-.2.83a2.17,2.17,0,0,1-2,2.74l1.91,1.49-3.29,2.32a3.59,3.59,0,0,1,.58.21c2,1,2.23,1.1,2.23,3.17q0,58.8,0,117.59a2.05,2.05,0,0,0,.92,1.88,30,30,0,0,1,2.37,2.15c.53.49.43.92,0,1.43-.67.79-1.29,1.63-1.8,2.28,1.35.07,3.18.15,5,.26a84.76,84.76,0,0,1,16.77,2.32,14.07,14.07,0,0,1,1.87.61c1.42.59,2.83,1.21,2.2,3.23.63.11,1.13.18,1.63.3a4,4,0,0,1,3.16,4.15c0,1.93-.09,3.87,0,5.79a2.81,2.81,0,0,1-2,3.06,40,40,0,0,1-6,1.86,113.32,113.32,0,0,1-19.54,1.94,8.48,8.48,0,0,0-1.11.16ZM152.85,45.78c0,.81-.3,2,.07,2.26.62.46,1.67.34,2.58.47V45.88c-.29.95-1,.83-1.66.73C153.56,46.57,153.32,46.19,152.85,45.78ZM47.25,48.44V46c-.36.26-.67.66-1,.65a7.7,7.7,0,0,1-1.71-.46c0,.52-.21,1.7.21,2C45.37,48.59,46.43,48.38,47.25,48.44Z"/><path d="M155.55,64.22h0c0,3.11,0,6.21-.06,9.31q-.16,13.58-.37,27.14-.3,20.72-.62,41.42c0,.07,0,.14.06.5,1.7,0,3.46-.11,5.19,0,8.15.63,16.3,1.27,24.43,2,3.33.31,6.62.94,9.92,1.46a13.06,13.06,0,0,1,1.94.66V147c-2.1,4.55-5.84,7.59-9.74,10.42a53.14,53.14,0,0,1-26.56,9.72,54.65,54.65,0,0,1-23-2.37,43.65,43.65,0,0,1-21.26-14.6,13.38,13.38,0,0,1-1.35-2.2,12.58,12.58,0,0,0-.33-1.36,8.39,8.39,0,0,1,1.88-.87c3.38-.66,6.75-1.42,10.15-1.83a253.6,253.6,0,0,1,27.69-1.43l.6,0c0-.31.07-.61.07-.9q0-21,.1-41.95,0-16.73,0-33.45C154.31,65.14,154.36,64.34,155.55,64.22Z"/><path d="M183,127.66l1.74,4.52-.31.11-1.47-4.59Z"/><path d="M125.3,128.7l-1.21,4.08-.33-.11c.52-1.32,1-2.63,1.57-3.95Z"/></g></svg>