<svg id="Layer_1" data-name="Layer 1" xmlns="http://www.w3.org/2000/svg" viewBox="0 0 200 200"><defs><style>.cls-1{fill:#010102;}.cls-2{fill:#e3e9ee;}.cls-3{fill:#cddbe5;}</style></defs><g id="gjSOhs"><path class="cls-1" d="M15.49,31.27a10,10,0,0,0,4.93.73l23.51-.19a63.62,63.62,0,0,0,10.33,0,32.91,32.91,0,0,0,7.49,0H79.5l33.71,0c7.18.21,14.36.35,21.55,0a19.75,19.75,0,0,0,5.59,0,27.35,27.35,0,0,0,6.52,0h1.95c10.28.3,20.57.26,30.85,0a85.88,85.88,0,0,0,11.23,0c3-.25,4.3.83,4,4.1a75.59,75.59,0,0,0,.12,9.15,21.92,21.92,0,0,0,0,6.57,7.56,7.56,0,0,0,0,3.75c-.33,7.8-.34,15.6,0,23.4A83.92,83.92,0,0,0,195,92a55.61,55.61,0,0,0,0,10.16,8.31,8.31,0,0,0,0,3.81,10.59,10.59,0,0,0,0,4.72l0,1.83a13.69,13.69,0,0,0-.09,4.86,17.57,17.57,0,0,0,0,5.27l.06,2c.38,4.25-3,2.65-5,3.19-7.93-.49-15.86-.13-23.79-.18a1.4,1.4,0,0,0-1.5.82l-2.8.16c-1.21-.17-2.43-.32-3.64-.51-5.07-.8-10.12-1.07-15.11.52l-1.8-.22c-.36-.79-.9-1-1.63-.44a5,5,0,0,0-3.13-.15c-9.67-.58-19.34-.06-29,0a31.25,31.25,0,0,0-7.61,0c-10.61-.53-21.23-.24-31.84-.07-7.37-.3-14.74-.37-22.1,0a31.41,31.41,0,0,0-7.69,0,157.66,157.66,0,0,0-16.84-.07,50.56,50.56,0,0,0-9.37.08H10.24c-4.87-.42-4.85-.42-4.86-5.16,0-1.52-.09-3.05-.14-4.57a175.59,175.59,0,0,0-.09-20,.44.44,0,0,0,0-.48,21.53,21.53,0,0,0,.12-6.56,90.61,90.61,0,0,0-.13-13.18,7.8,7.8,0,0,0,.07-3.78c.37-6.55.25-13.1,0-19.66a15.67,15.67,0,0,0,0-5.63c.07-4.82.21-9.64.16-14.46,0-1.83.58-2.33,2.38-2.43,2.55-.14,5.25.9,7.66-.74Zm88.3,88.26c3.15.49,5.49-1.08,7.44-3.21,5.24-5.73,4.06-13.52-2.61-17.37-2.83-1.63-5.86-2.9-8.66-4.56-3.22-1.9-4.35-4.7-3.34-7.39s3.74-4,7.39-3.28a12.26,12.26,0,0,1,4.79,1.75c1.56,1.08,2.5,1.28,3.24-1,1.19-3.64,1.31-3.75-2.48-4.57a22.47,22.47,0,0,0-9.24-.47c-4.93,1-8.35,4.07-9.29,8.63-1.06,5.11.66,9,5.45,11.74,2.42,1.39,5,2.42,7.5,3.74,2.67,1.44,5.19,3.14,4.76,6.73-.4,3.42-2.73,5-5.91,5.7a12.8,12.8,0,0,0-1.72.64,24.4,24.4,0,0,1-8.1-3.23c-.66-.45-1.75-2.27-2.36-.43s-3,4.37-.53,5.59C94.34,120.62,99,122.07,103.79,119.53ZM187,94.93h.17c0-4.2-.33-8.44.11-12.6.36-3.41-1.69-2.38-3.37-2.6-2.37-.3-2.7.53-2.61,2.84.32,7.94.34,15.88.31,23.82,0,5.45-2.66,8.24-8.07,9a16.88,16.88,0,0,1-6.49-.29c-4.72-1.17-6.66-3.32-6.69-8.2,0-7.47-.33-15,.21-22.42.36-5,0-5.24-4.83-4.8-1.31.11-2,.4-1.94,1.87.17,9,.1,18.06.47,27.07.26,6.26,4.09,10.2,10.29,11.45a30.73,30.73,0,0,0,11.15.12c7.24-1.21,11-5.36,11.26-12.65C187.16,103.35,187,99.14,187,94.93Zm-63.85,5c.17,5.74.75,11.53-.21,17.23-.55,3.26,1.47,2.71,3.29,2.7s4.09.8,3.73-2.77c-.42-4.16-.12-8.39-.29-12.58-.08-2,.63-2.79,2.66-2.67,2.95.18,5.9.19,8.86.24.72,0,1.82.45,2-.5a10.47,10.47,0,0,0,.17-4.58c-.48-1.79-2.08-.43-3.17-.51-.77-.06-1.55,0-2.33,0-9,.14-9,.08-8.22-9.13.15-1.76.62-2.52,2.46-2.41,3.57.21,7.16.11,10.71.48,2.62.28,1.85-1.4,1.81-2.61s1.14-3.25-1.74-3.2c-5.75.09-11.5.14-17.25,0-2.5-.07-2.62,1-2.56,3C123.3,88.44,123.18,94.19,123.18,100Z"/><path class="cls-2" d="M187,94.93c0,4.21.13,8.42,0,12.62-.28,7.29-4,11.44-11.26,12.65a30.73,30.73,0,0,1-11.15-.12c-6.2-1.25-10-5.19-10.29-11.45-.37-9-.3-18-.47-27.07,0-1.47.63-1.76,1.94-1.87,4.83-.44,5.19-.17,4.83,4.8-.54,7.47-.26,15-.21,22.42,0,4.88,2,7,6.69,8.2a16.88,16.88,0,0,0,6.49.29c5.41-.77,8-3.56,8.07-9,0-7.94,0-15.88-.31-23.82-.09-2.31.24-3.14,2.61-2.84,1.68.22,3.73-.81,3.37,2.6-.44,4.16-.11,8.4-.11,12.6Z"/><path class="cls-2" d="M123.18,100c0-5.76.12-11.51-.06-17.26-.06-2.07.06-3.11,2.56-3,5.75.18,11.5.13,17.25,0,2.88,0,1.69,1.91,1.74,3.2s.81,2.89-1.81,2.61c-3.55-.37-7.14-.27-10.71-.48-1.84-.11-2.31.65-2.46,2.41-.77,9.21-.76,9.27,8.22,9.13.78,0,1.56-.11,2.33,0,1.09.08,2.69-1.28,3.17.51a10.47,10.47,0,0,1-.17,4.58c-.2,1-1.3.52-2,.5-3,0-5.91-.06-8.86-.24-2-.12-2.74.63-2.66,2.67.17,4.19-.13,8.42.29,12.58.36,3.57-1.82,2.76-3.73,2.77s-3.84.56-3.29-2.7C123.93,111.48,123.35,105.69,123.18,100Z"/><path class="cls-2" d="M101.11,116.62a12.8,12.8,0,0,1,1.72-.64c3.18-.67,5.51-2.28,5.91-5.7.43-3.59-2.09-5.29-4.76-6.73-2.46-1.32-5.08-2.35-7.5-3.74C91.69,97.05,90,93.18,91,88.07c.94-4.56,4.36-7.67,9.29-8.63a22.47,22.47,0,0,1,9.24.47c3.79.82,3.67.93,2.48,4.57-.74,2.27-1.68,2.07-3.24,1A12.26,12.26,0,0,0,104,83.72c-3.65-.7-6.35.54-7.39,3.28s.12,5.49,3.34,7.39c2.8,1.66,5.83,2.93,8.66,4.56,6.67,3.85,7.85,11.64,2.61,17.37-2,2.13-4.29,3.7-7.44,3.21C103.73,117.79,101.6,118,101.11,116.62Z"/><path class="cls-3" d="M101.11,116.62c.49,1.34,2.62,1.17,2.68,2.91-4.75,2.54-9.45,1.09-13.67-1-2.5-1.22-.05-3.83.53-5.59s1.7,0,2.36.43A24.4,24.4,0,0,0,101.11,116.62Z"/></g></svg>