<svg id="Layer_1" data-name="Layer 1" xmlns="http://www.w3.org/2000/svg" viewBox="0 0 200 200"><g id="osdz6o.tif"><path d="M2,110.94v-6.19c0-.3.12-.59.15-.89.29-3.24.47-6.5.88-9.73a94.08,94.08,0,0,1,6.8-24.78A99,99,0,0,1,114.08,9.75a93.64,93.64,0,0,1,25.58,7q40.1,17.71,54.94,59a91.77,91.77,0,0,1,5.07,24.86c.1,1.39.22,2.77.33,4.15v6.19a5.76,5.76,0,0,0-.15.81,97.1,97.1,0,0,1-1.7,14.92,2.15,2.15,0,0,1-.91,1.48q-14.48,10.5-28.94,21a2.14,2.14,0,0,0-.94,1.63c-.61,5.09-1.25,10.17-1.89,15.25q-1.07,8.4-2.13,16.81c-.17,1.37-.35,2.73-.54,4.13h-1.17c-15.19,0-30.38,0-45.56,0-2.34,0-4.39.26-6.09,2a5.22,5.22,0,0,1-.89.62,14.92,14.92,0,0,1-11.86,1.89,18.57,18.57,0,0,1-7-3.87,2.71,2.71,0,0,0-1.76-.57H39.17c-.35-2.76-.69-5.44-1-8.11L36.38,164.8c-.58-4.64-1.18-9.27-1.72-13.92a2.3,2.3,0,0,0-1-1.76q-14.48-10.5-28.93-21a1.87,1.87,0,0,1-.83-1.34c-.51-3.94-1.05-7.88-1.55-11.83C2.16,113.6,2.1,112.27,2,110.94ZM138.22,36.63c-9.4,32.89-18.72,65.51-28,98.13a.46.46,0,0,1-.12-.43q4.7-23.46,9.4-46.93,5.41-27,10.84-54a.86.86,0,0,0-.54-1.11A42.47,42.47,0,0,0,106,27.35c-.5,0-.75.22-.76.77,0,1.47-.1,2.95-.16,4.42q-.27,7.56-.56,15.12c-.3,7.71-.63,15.42-.94,23.14-.2,5.12-.36,10.24-.57,15.37q-.54,13.65-1.1,27.31c-.25,6.45-.48,12.92-.72,19.37,0,.2-.07.39-.1.59a.76.76,0,0,1-.2-.49q-.27-7.35-.55-14.7-.26-7-.54-14L98.8,80l-.54-14q-.48-12.31-1-24.64c-.17-4.4-.35-8.79-.51-13.19,0-.51-.18-.74-.72-.79a42.48,42.48,0,0,0-23.74,4.85,1,1,0,0,0-.6,1.22q4.14,20.46,8.22,41l9.78,48.89,2.4,11.94-.16,0L63.88,36.81a5.92,5.92,0,0,0-.63.14A42,42,0,0,0,43.51,50.58a1.79,1.79,0,0,0-.26,2.21Q63,94.72,82.65,136.67c.16.34.31.67.46,1l-.2.09L37.46,59.35a1.91,1.91,0,0,0-.24.1l-.37.33a41.74,41.74,0,0,0-12.11,20,1.6,1.6,0,0,0,.33,1.59Q31.06,88.65,37,96l37.85,46.7c.13.17.24.35.36.53l-.16.1-52-52.53c-.19.36-.33.59-.43.84a41.45,41.45,0,0,0-2.1,25.87,2.32,2.32,0,0,0,.83,1.25c2.5,1.87,5,3.69,7.56,5.52Q39.53,132,50.13,139.73a1.61,1.61,0,0,1,.69,1c.55,4,1,8.06,1.53,12.09q1,8.13,2,16.25c.06.46.25.65.7.63.28,0,.55,0,.83,0,11.35,0,22.69,0,34,0a3.38,3.38,0,0,1,1.76.55c1.55,1,3,2.19,4.54,3.27a7.72,7.72,0,0,0,9.56,0c1.43-1,2.86-2,4.24-3.11a3.56,3.56,0,0,1,2.39-.77q17.06,0,34.11,0c.71,0,1.07-.08,1.17-.94,1.11-9.15,2.3-18.29,3.41-27.44a2.31,2.31,0,0,1,1-1.76q14.18-10.28,28.34-20.59a2.57,2.57,0,0,0,1.08-1.59,42.37,42.37,0,0,0-2.13-25.65c-.11-.27-.25-.52-.43-.88l-52.37,52.92a1.2,1.2,0,0,1,.32-.7l14-17.35q18-22.22,36-44.42a1.43,1.43,0,0,0,.31-1.44,41.88,41.88,0,0,0-8.07-15.72c-1.39-1.69-2.95-3.24-4.54-5L118.8,138.33a1.52,1.52,0,0,1,.2-.81q19.91-42.45,39.84-84.88a1.57,1.57,0,0,0-.25-1.93,41.75,41.75,0,0,0-14.2-11.45C142.42,38.3,140.36,37.54,138.22,36.63Z"/></g></svg>