<svg id="Layer_1" data-name="Layer 1" xmlns="http://www.w3.org/2000/svg" viewBox="0 0 200 200"><g id="UwuNQk"><path d="M118.14,75.25c2,2.53,4,4.92,5.85,7.46a61.23,61.23,0,0,1,10.9,26.15,48.69,48.69,0,0,1-2.67,26.35c-.08.19-.15.39-.24.57s-.08.05-.1.06c-.53-1.86-1-3.74-1.61-5.57a55.69,55.69,0,0,0-4.34-9.61,2.69,2.69,0,0,1-.3-2.3,44.13,44.13,0,0,0,1.75-12.87,45.09,45.09,0,0,0-6.81-23.81A15.71,15.71,0,0,0,119.43,80c3.17,9.6,1.78,18.93-1.59,28.3l-1.73-2.15a144.06,144.06,0,0,0-19.74-20A138.48,138.48,0,0,0,72.56,69.9a82.38,82.38,0,0,0-18.24-7.36c-1.59-.41-3.19-.76-4.81-1s-3.2-.38-5-.58c.89-.52,1.65-1,2.45-1.43a47.74,47.74,0,0,1,10.3-4,54.07,54.07,0,0,1,22.89-.87,65.39,65.39,0,0,1,26,10.59l.45.29c1.25-1.43,2.5-2.86,3.73-4.29,3.21-3.75,6.34-7.57,9.65-11.23,4.55-5,10.38-8,16.82-9.78a30.67,30.67,0,0,1,9.3-1.1c3.62.1,7.25,0,10.88,0,.59,0,.64-.28.68-.74a43.1,43.1,0,0,1,2.77-12.28A19.93,19.93,0,0,1,167.07,17a13.48,13.48,0,0,1,16.68,1,23.36,23.36,0,0,1,6.31,10.6,48.62,48.62,0,0,1,2.12,13.12,69.29,69.29,0,0,1-1.84,19.88,35.16,35.16,0,0,1-5.41,12.34,13.55,13.55,0,0,1-7.61,5.58,10.69,10.69,0,0,1-9.94-2.64,20.79,20.79,0,0,1-4.45-5.74c-2.86-5.11-4.16-10.68-5-16.4-.06-.45-.21-.61-.67-.6-3.65,0-7.3,0-10.95.13a23.76,23.76,0,0,0-17.26,8.36c-3.59,4.06-7.1,8.19-10.64,12.3C118.32,75,118.21,75.16,118.14,75.25Zm50.67-21.14c.15.83.25,1.57.41,2.29.57,2.52,1.27,5,3.07,7a3.34,3.34,0,0,0,2.93,1.2c1.86-.2,2.88-1.54,3.69-3a19.16,19.16,0,0,0,2.15-7.5ZM180.6,39a14.52,14.52,0,0,0-2.66-6.77c-1.76-2.14-4.2-2.17-6,0a13.6,13.6,0,0,0-2.45,5.35c-.13.48-.22,1-.33,1.46Z"/><path d="M111.23,152.22a50.35,50.35,0,0,1-17-3.5,100.14,100.14,0,0,1-23.22-12.63,126.18,126.18,0,0,1-17.94-15.5c-7-7.29-13.06-15.2-17.43-24.34a41.14,41.14,0,0,1-4.32-14.93A17.23,17.23,0,0,1,33.53,71c1.86-3.11,4.73-4.49,8.21-4.9a28.63,28.63,0,0,1,8.56.7,52,52,0,0,1,11.53,3.81A124.24,124.24,0,0,1,87.05,86a154.64,154.64,0,0,1,22.48,20.92,94.4,94.4,0,0,1,13.81,19.88,35,35,0,0,1,3.79,11.59c.72,6.23-1.82,10.25-7.87,12.59A21.69,21.69,0,0,1,111.23,152.22ZM45.32,77.79c-.47,0-1.32.07-2.16.2-3.94.58-6.41,3-6.71,6.78a16.69,16.69,0,0,0,.35,4.67,38,38,0,0,0,5.37,12.21,98,98,0,0,0,14.34,17.68,130.28,130.28,0,0,0,25.2,19.83,71.39,71.39,0,0,0,16.85,7.66,24,24,0,0,0,9.81,1.07c4.44-.6,7-3.48,7-7.95a19.56,19.56,0,0,0-1.45-7.05,60.43,60.43,0,0,0-9-15.37,127.24,127.24,0,0,0-22-21.91,101.07,101.07,0,0,0-25-15A35.54,35.54,0,0,0,45.32,77.79Z"/><path d="M37.48,137.56a20.17,20.17,0,0,0-1.62,9.23,14.67,14.67,0,0,1-1,6.71,9.8,9.8,0,0,1-4.6,4.8A6.31,6.31,0,0,1,23,157.17,6.27,6.27,0,0,1,21.06,150a10.62,10.62,0,0,1,6.56-6.89l3.72-1.48A17.2,17.2,0,0,0,37.48,137.56Z"/><path d="M30.84,112.88a2.31,2.31,0,0,1-.09.47,18.42,18.42,0,0,0-1.49,7.72,31.79,31.79,0,0,1-.34,5.53,9.3,9.3,0,0,1-6,7.34c-2.65,1-5,.09-7-1.83a6.23,6.23,0,0,1-1.52-6.62,10.42,10.42,0,0,1,6.41-6.93c1.59-.65,3.2-1.26,4.77-2A15.74,15.74,0,0,0,30.84,112.88Z"/><path d="M94.79,156.9c-1.54,3.08-1.68,6.38-1.65,9.71a12.78,12.78,0,0,1-1.4,6.94,10.09,10.09,0,0,1-3.85,3.9,6.27,6.27,0,0,1-7-.5,6.16,6.16,0,0,1-2.72-6.71,10.2,10.2,0,0,1,6.28-7.57c1.23-.53,2.47-1,3.72-1.5A18.33,18.33,0,0,0,94.79,156.9Z"/><path d="M42,162.64c-1.57,3.13-1.7,6.48-1.67,9.85,0,.52,0,1,0,1.54a10.9,10.9,0,0,1-3.9,8.31,6.8,6.8,0,0,1-11.1-3.57,7,7,0,0,1,.36-4.09A10.29,10.29,0,0,1,31,168.79a26.52,26.52,0,0,1,2.69-1.15C36.74,166.5,39.72,165.16,42,162.64Z"/><path d="M68.8,159.3a20.55,20.55,0,0,0-1.07,3.58,66.58,66.58,0,0,0-.46,7.06,11.33,11.33,0,0,1-3.4,8.45c-3.86,3.75-10.12,2.29-11.53-2.74a7.85,7.85,0,0,1,.86-5.8c1.42-2.85,3.89-4.4,6.75-5.48a26.63,26.63,0,0,0,6.76-3.29C67.45,160.51,68.14,159.87,68.8,159.3Z"/><path d="M61.64,134.38c-1.76,3.26-1.59,7-1.61,10.63a10.72,10.72,0,0,1-4.17,9,6.76,6.76,0,0,1-10.57-7.56,10.5,10.5,0,0,1,6-6.53c2-.84,4-1.52,5.87-2.51A45.37,45.37,0,0,0,61.64,134.38Z"/><path d="M109.11,144.52c-1.62-4.14-7.66-9.3-11.48-9.79.82-.95,1.58-1.93,2.45-2.78a1.54,1.54,0,0,1,1.25-.24,7.81,7.81,0,0,1,2,.82,25.07,25.07,0,0,1,7.37,6.46q.21.28.39.57c.85,1.34.82,1.72-.19,2.91Z"/><path d="M60.81,113.47c-.41-3.26-8.29-10-11.41-9.87.91-1,1.7-2,2.62-2.89a1.51,1.51,0,0,1,1.35-.08,20.25,20.25,0,0,1,3.32,1.76,23.86,23.86,0,0,1,5.46,5.06l.37.49c1.29,1.81,1.27,2.12-.16,3.76Z"/><path d="M88.12,113.58c-.44-3.26-7.41-9.3-11.37-9.91.85-1,1.64-2,2.5-2.85a1.18,1.18,0,0,1,1-.21,9.57,9.57,0,0,1,2.13.85,24.72,24.72,0,0,1,7.34,6.36c.14.18.27.37.4.57,1,1.51,1,1.76-.21,3.13Z"/><path d="M42.31,86.84c.81-.92,1.57-1.89,2.45-2.74A1.43,1.43,0,0,1,46,83.91a12,12,0,0,1,2.57,1.19,23.5,23.5,0,0,1,6.94,6.46c.17.25.32.52.47.79a1.56,1.56,0,0,1-.26,2.08c-.72.72-1.36,1.53-2.07,2.33C52.88,94.12,51,92.38,49,90.69S45.06,87.36,42.31,86.84Z"/><path d="M80.12,130c.78-.91,1.53-1.85,2.37-2.71a1.29,1.29,0,0,1,1.08-.3,9.53,9.53,0,0,1,2.34.93,24.82,24.82,0,0,1,7,6.14c.16.2.31.41.45.62,1,1.59,1,1.85-.22,3.27-.54.61-1.07,1.23-1.63,1.88-.84-2.64-2.77-4.37-4.72-6.06S82.86,130.48,80.12,130Z"/><path d="M71.14,101.49a20.81,20.81,0,0,0-11.38-9.87c.71-.82,1.53-1.8,2.4-2.72a1,1,0,0,1,.85-.18,11.39,11.39,0,0,1,2.27.89,24.39,24.39,0,0,1,7.2,6.29A9.78,9.78,0,0,1,73.2,97c.66,1.15.62,1.45-.25,2.45Z"/><path d="M75,128.79c-.45-3.2-8.3-9.9-11.46-9.82.89-1,1.69-2,2.58-2.92a1.16,1.16,0,0,1,1-.16,12.48,12.48,0,0,1,2.46,1,24.66,24.66,0,0,1,6.94,6.13c.13.16.24.33.36.5,1,1.56,1,1.88-.19,3.26C76.14,127.45,75.61,128.07,75,128.79Z"/><path d="M101.71,128.13c-1-3.74-8-9.67-11.51-9.78.91-1,1.73-2,2.62-3a1.19,1.19,0,0,1,.93-.16,5.24,5.24,0,0,1,1.38.47,22.5,22.5,0,0,1,8.47,7.44,5.24,5.24,0,0,1,.46.88,1.31,1.31,0,0,1-.21,1.56C103.12,126.38,102.44,127.24,101.71,128.13Z"/><path d="M66.81,121.79c.46.22.89.4,1.28.63a9.08,9.08,0,0,1,3.36,3.21,2.7,2.7,0,0,1,.13.92,2.3,2.3,0,0,1-.87,0,9.09,9.09,0,0,1-4.34-3.78,1,1,0,0,1-.06-.71C66.34,121.93,66.63,121.88,66.81,121.79Z"/><path d="M83.3,132.94a8.26,8.26,0,0,1,.89.35,10.64,10.64,0,0,1,3.63,3.14,1.09,1.09,0,0,1,.22.39,8.54,8.54,0,0,1,.07.86,2,2,0,0,1-.81,0,9.05,9.05,0,0,1-4.39-3.78,1.23,1.23,0,0,1-.06-.79C82.87,133,83.15,133,83.3,132.94Z"/><path d="M97.8,126a1.76,1.76,0,0,1-.5-.13,9.57,9.57,0,0,1-4.13-3.55,2.82,2.82,0,0,1-.16-1,2.39,2.39,0,0,1,.93,0,9.18,9.18,0,0,1,4.27,3.71C98.57,125.66,98.42,126,97.8,126Z"/><path d="M66.91,99.53c-.32-.17-.84-.39-1.31-.69a8.83,8.83,0,0,1-3.14-3.11,2.69,2.69,0,0,1-.14-.87c.29,0,.62-.14.85,0a8.93,8.93,0,0,1,4.34,3.77C67.88,99.22,67.69,99.58,66.91,99.53Z"/><path d="M57,111.31c-1.28,0-4.62-2.92-4.87-4.2-.08-.42,0-.66.51-.6a1.64,1.64,0,0,1,.45.1,9.46,9.46,0,0,1,4.24,3.67C57.73,111,57.56,111.33,57,111.31Z"/><path d="M45.51,89.83a3.4,3.4,0,0,1,.68.23,10.16,10.16,0,0,1,3.8,3.3,2.2,2.2,0,0,1,.29.62c.17.53-.1.77-.58.63A4.66,4.66,0,0,1,48.37,94a9.36,9.36,0,0,1-3.28-3.19C44.71,90.19,44.84,89.85,45.51,89.83Z"/><path d="M105.25,142.48c-.25-.08-.41-.11-.55-.17a9.47,9.47,0,0,1-4.14-3.53,2.86,2.86,0,0,1-.2-1,2.9,2.9,0,0,1,1.07.05,9.16,9.16,0,0,1,4.17,3.71,1,1,0,0,1,.06.71C105.63,142.39,105.35,142.44,105.25,142.48Z"/><path d="M84.36,111.44a6.05,6.05,0,0,1-.86-.31A10.14,10.14,0,0,1,79.85,108a1.68,1.68,0,0,1-.34-.59,1.07,1.07,0,0,1,0-.71c.06-.11.43-.12.62,0a5.09,5.09,0,0,1,1.19.53,9.23,9.23,0,0,1,3.32,3.25,1.42,1.42,0,0,1,.09.8C84.75,111.33,84.48,111.39,84.36,111.44Z"/></g></svg>