<svg id="Layer_1" data-name="Layer 1" xmlns="http://www.w3.org/2000/svg" viewBox="0 0 200 200"><g id="zQK14n.tif"><path d="M103.26,175.32c-.57-.06-1.14-.12-1.71-.16-1.18-.1-2.36-.19-3.53-.3a4.08,4.08,0,0,1-2.79-1.29,7,7,0,0,0-.6-.52c-1.74.86-3.32.06-4.93-.56a1.31,1.31,0,0,1-.89-1.32,16.15,16.15,0,0,1,.61-6c-1-.38-1.07-1.25-1.06-2.15q.11-7,.22-13.92c0-2.47,0-4.95.06-7.42q0-10.94,0-21.86v-1.36c-.79-.53-1.56-1.07-2.36-1.56a2.06,2.06,0,0,1-1-2.11A86,86,0,0,0,85,100.17c-.21-1.71-.54-3.41-.86-5.11a3.38,3.38,0,0,0-.49-1.1A32.24,32.24,0,0,1,79,81.29,12.68,12.68,0,0,1,79.28,76a5,5,0,0,1,1.89-2.8,1.64,1.64,0,0,0,.49-.49,15.88,15.88,0,0,1,4.73-5.09c1.17-.86,2.37-1.68,3.42-2.43.84-1.85,1.64-3.51,3.79-4,.38-.69.37-1.7,1.38-2.08a24.94,24.94,0,0,0-.93-6.57,3.81,3.81,0,0,0-.47-.07,2.06,2.06,0,0,1-2.06-1.35,5.45,5.45,0,0,1-.42-1.77,2.5,2.5,0,0,0-1.37-2.21c-.38-.21-.72-.5-1.09-.74a4.46,4.46,0,0,1-.41-7.07c-.68-.78-1.39-1.54-2-2.35a5.14,5.14,0,0,1-1.1-2.8,4.44,4.44,0,0,1,1.67-3.94c.75-.67,1.43-1.4,2.14-2.1l-.16-.28L85,29.05a4.18,4.18,0,0,1,2.25-2.78,10.68,10.68,0,0,0-3.42-.53c.46-1.7,2.49-2.45,5.43-1.95l-1.81-2.27c1.35-.82,3.37.17,5.82,2.92.23-.29.45-.58.69-.86.59-.69,1.21-1.36,1.8-2.06,2.41-2.85,5.53-3.53,9.07-3.1,2.93.35,5.24,1.89,7.41,3.72,1,.8,1.85,1.68,2.79,2.51a17.65,17.65,0,0,0,7,4.11,3.93,3.93,0,0,1-2.72,1.33c-1.41.12-2.83.06-4.24.07a8.09,8.09,0,0,1-.92-.08l.82,3.92a2.33,2.33,0,0,1,1.8,2.75c1.85,1.7,1.55,3.6,0,5.29.56,1.2,0,2-1,2.77.11.47.23.92.31,1.38a15.93,15.93,0,0,1,.21,1.81c0,1.37,0,1.43-1.18,2,.64,1,1.31,2,1.89,3.08a6.77,6.77,0,0,1,.63,1.82,1.7,1.7,0,0,1-1.84,2.25h-1.52c.1.27.17.46.25.66a1.51,1.51,0,0,1-.92,2.21,1.67,1.67,0,0,1-.57.19c-1.23.09-1.72.91-1.94,1.94.8.84,1.58,1.67,2.39,2.48a1.94,1.94,0,0,0,.69.38,11.53,11.53,0,0,1,3.64,2.36,14.59,14.59,0,0,0,1.62,1.18c.47.32,1,.59,1.51.9a4.42,4.42,0,0,1,4.53,2,38.57,38.57,0,0,1,2.28,3.48,66.7,66.7,0,0,1,6.06,12.81A24.33,24.33,0,0,1,135,93.27c.44,5-4,7.17-7.9,5.54a27.62,27.62,0,0,1-3.24-1.89c-.09.6-.19,1.24-.27,1.88a58.51,58.51,0,0,0,.6,18.81c.24,1.26.15,1.4-1,2l-.67.32c0,.64,0,1.28,0,1.91l-.63,19.31q-.3,9.9-.59,19.81c0,.69,0,1.37-.83,1.77,1.14.52,2.15,1,3.13,1.44a29.66,29.66,0,0,1,7.83,5.38c.85.83.92,1,.83,2.07A8.34,8.34,0,0,1,131,172a43.28,43.28,0,0,1-12,.12,7.34,7.34,0,0,1-3.41-1.54c-.14,0-.22,0-.27,0-2.19,1-4.15.13-6.12-.7a1.21,1.21,0,0,1-.7-1,14.23,14.23,0,0,1,.11-5.66c-1.41-.28-1.43-1.37-1.46-2.5q-.24-9.56-.51-19.1a6.41,6.41,0,0,0-.19-1.83c0,.23-.06.45-.07.67-.3,6.81-.58,13.61-.89,20.41-.07,1.46-.18,2.91-.32,4.36a8.86,8.86,0,0,1-.44,1.41l.7.61a21.27,21.27,0,0,1,4.36,5.05,7.81,7.81,0,0,1,.69,1.35c.3.78.09,1.17-.71,1.32-.63.12-1.28.14-1.92.21l-1.91.2Zm-14.62-146-.21.2-.22.18-.19.22-.21.2-.18.22-.2.21-.2.2L87,31a3.17,3.17,0,0,0-1.28,3.37c.27,1.94,1.59,3.22,2.94,4.47.11.1.38.05.74.08-.21-.33-.3-.5-.42-.65-.69-.87-1.39-1.74-2.1-2.59a3.2,3.2,0,0,1,0-4.33c.08-.08.09-.24.13-.37l.21-.19.2-.21.2-.2.18-.22.21-.2.18-.22.22-.19.22-.19.25-.2.36-.61h0v0l-.37.6Zm26.75,139.31h0v0ZM99.61,101.05v0l0,0Zm-8.58.08h0v0Zm9.61-.64,0,0v0l-.07,0ZM86.78,97.08h0l0,0,0,0ZM92.85,62v0h.07ZM112.6,91.52l.21.22.64.86.14-.66.21-.43.41-.6.4-.61.8-1,.22-.21.39-.6.22-.22.2-.41.4-.58.21-.43.19-.39.2-.41.21-.41.21-.42c.09-.19.55-.37,0-.56l-.23-.22-.2-.2-.21-.22.32-2.4a1.75,1.75,0,0,1,.13-2.22c.23-.33.55-.59.8-.91a2.25,2.25,0,0,0,.22-.58s-.11-.06,0,0h.06l-.52.42-.71-1-.24-.23a1.87,1.87,0,0,1,.13-2.37,5.25,5.25,0,0,0-2.85-1.65c-1.08-.1-2.18,0-3.27,0v.07l2.09.3,0,0,1.63.78c1.42.71,1.81,1.59,1.45,2.92l.52.81.08-.05-.16-.68.42-.12.24.23c.25,1.58-1,4.07-2.62,4.49a11.74,11.74,0,0,0-2.39,1.38L112.17,86c.57,1,1.43,2,1,3.34l-.2.41-.23.21-.18.4-.22.21L112,91l.37.34ZM81.31,73.82l-.18.27h0l0,0,.18-.23,0,0,0,0ZM105.45,68v-.28l.17-.44a1.64,1.64,0,0,1,.5,0c1,.4,1.89.82,2.84,1.24l-.23.25-.36.38-.25.21-.81.21-.26-.15,0-.07,0,0,.29.15c.36.29.55,0,.77-.21l.24-.21.37-.39.23-.24,2.27-.43a18.7,18.7,0,0,0-.17-2A1.24,1.24,0,0,0,109.81,65c-1.79-.07-3.37,0-4.07,2.09a1.51,1.51,0,0,1-.09.18l-.17.44s-.06,0,0,.07a.48.48,0,0,0,0,.17l.24.18.17.24.56.43.08-.17-.66-.24-.17-.24Zm7.29,14.51.27-.14.14-.26.27-.14.36-.64,1-.7-.06.71.95-.73,0,0-1.7-.1-.19.83-.36.63-.27.14-.15.26-.31.15v0Zm8.46,81.15h0l.33.27a15.81,15.81,0,0,0,1.52,1.1,28,28,0,0,1,6.21,4.49c.53.52,1,1.05,1.56,1.58.37.38.68.31,1.09-.16a9.41,9.41,0,0,0-1.25-1.33c-1.84-1.36-3.69-2.72-5.62-4a31.07,31.07,0,0,0-3.53-1.71ZM94.55,81.94l.37.68,2.37,3.57a3,3,0,0,0,.39-.25,1.38,1.38,0,0,0,.15-.3l-.67-.44,0,0c-.52-.64-1-1.3-1.57-1.93a9,9,0,0,0-.72-.65L94.53,82l-.41-.61c-.74-2.36-.78-2.07,1.26-3.31l.79-.46.71-.38L92.51,75.8a2.74,2.74,0,0,1-1.58-1.32,12.8,12.8,0,0,1-1.29-3.17c-.26-.91-.79-1.19-1.58-.68a17.51,17.51,0,0,0-2,1.75l2,1.12v0l1.41,1.23,0,0,.43.45v0c1.32,2,2.63,4,4,6a1.26,1.26,0,0,0,.31.25ZM126,75.87l.41.62,1.09,4.35c.64.73,1.83,1.38,2.4,2.56l-.19.19-2.48-2.07c0,.69,0,1.16-.08,1.63A6.73,6.73,0,0,1,125,88c-.45.4-1,.74-1.43,1.11l-.15,0,.13,0,.68-.19a1,1,0,0,1,1.15.39c.74,1,1.53,2,2.26,3a8.11,8.11,0,0,0,4.25,3,2.08,2.08,0,0,0,2.28-.4c0-.15.06-.32.08-.48a14.69,14.69,0,0,0-1.1-6.55A81,81,0,0,0,125.86,73a10.58,10.58,0,0,0-1.28-1.69,4.46,4.46,0,0,0-3-1.42c.7,1.36,1.32,2.58,2,3.8a2.1,2.1,0,0,0,.48.62c.56.48,1.15.93,1.73,1.4ZM112,87.09l-.13-.39-.18.12.34.25.47.52,0,.57.14,0-.13-.53ZM86.69,28l.62-.38-.11-.13-.49.53c-.3-.26-.56-.27-.8.19ZM99.46,174.25l-.65-.12,0,.11h.69l3,.3v-.29ZM97.77,69.16l.44.22.4.25v0a15.66,15.66,0,0,0,4.24,1.92l3-6.15a21.23,21.23,0,0,1-6.72-1.78c-1.73-.76-3.64-1.31-4.67-3.27a19.92,19.92,0,0,0-.66,2.05,3.31,3.31,0,0,0,0,1.29,7.39,7.39,0,0,0,.51,1.43c.37.82.79,1.62,1.19,2.43Zm17.27,22c-.83,1-1,1.82-.49,2.51l.46-2.53.07-.15Zm1.16-18.09,0,0-.07,0a6.68,6.68,0,0,0-.59-2.8l-.21.56h-.17c0,.53,0,1.06.07,1.58,0,.1.24.17.36.26l0,0ZM112.77,68l-.87-1.21-.21,1.68a3.37,3.37,0,0,0,2.76,1.5v0L113,68.17Zm10,5.62v0c-.38-.79-.76-1.58-1.13-2.37a4.52,4.52,0,0,0-2.22-2.09l2.24,4.43Zm-8-44h4l2.27-.5a30,30,0,0,1-3.54-2c-1.78-1.34-3.44-2.84-5.13-4.28-2.35-2-4.82-3.71-8-4s-5.84.38-8,2.78c-.68.75-1.35,1.51-2,2.25-.36.38-.76.72-1.09,1a32.64,32.64,0,0,0-2.49-2.23,3,3,0,0,0-2.31-.83l0-.05,0,0,.84.57a6.06,6.06,0,0,1,2.43,4.39c.18,1.34-.69,2.2-1.45,3.11a3.65,3.65,0,0,0-.27.3,7.78,7.78,0,0,0-1.24,2.17L90,31.74c-1,2.8-.85,3.52,1.22,5.46a32.76,32.76,0,0,1,2.41,2.45,8.5,8.5,0,0,1,1.88,3.1c.44,1.42.91,1.65,2.5,1.26.15-2.64-1.31-4.62-2.82-6.51a13.42,13.42,0,0,0,1.31-2.12,13.57,13.57,0,0,0,.47-2.4c.59-.52,1.57-.29,1.86-1.17-.15-.64-.73-.76-1.16-1.07-.9-.64-1.83-1.25-2.67-2a5.13,5.13,0,0,1-.81-1.29,4.19,4.19,0,0,1,3-1.06,9.83,9.83,0,0,1,3.77.62,15.24,15.24,0,0,0,7.24,1.1,18.29,18.29,0,0,1,6.82.67c.25.08.53.09.79.15,1,.2,2,.42,3.06.63h-4a2.2,2.2,0,0,0-.71-.31c-1.65,0-3.3-.09-5,0-2,.08-3.9.33-5.82-.33-.82-.29-1.66-.57-2.5-.79-1.33-.35-2.67-.65-4-1l0,.2c1.16.29,2.33.55,3.47.9s2.28.84,3.42,1.24a10.18,10.18,0,0,0,4.81.26A19.62,19.62,0,0,1,114.76,29.58ZM108.6,174.36l1.53-.09a8.45,8.45,0,0,0-.57-1.22,21.47,21.47,0,0,0-1.91-2.6c-1-1.08-2.11-2-3.17-3.07l0,0h0a2.55,2.55,0,0,0,.22.54c.56.8,1.21,1.55,1.7,2.39.79,1.33,1.48,2.72,2.2,4.08h0Zm4.81-80.62v0l-1.86-2.19-2,2.36,3.9,3,.85-2.6ZM115,67.1h0a16.07,16.07,0,0,1,2,5.68,2.33,2.33,0,0,0,1.11,1.7l2.5-.69c-.08-2.86-3.81-7.51-6.37-8Zm-15.4,4v0L99.21,71l-.84-.42-2.1-1.42c2.63,5.08,5.8,10.12,7.12,11.38l1.63-.74c-.09-1.34-.17-2.79-.31-4.23-.21-2.06.07-3.93,1.81-5.31.07,0,.1-.14.17-.24l-.42-.32,0,0-1.39-1.21-1.64,3.85ZM97.92,86.71c-1,.5-1.74,1.31-3,1.5l.22-.54,0,0,1.68-1c-1.53-2.33-3-4.54-4.45-6.72-1-1.54-2.07-3.1-3.24-4.54A6.57,6.57,0,0,0,85.35,73c-1.25-.28-1.87,0-2.31,1.19a7.7,7.7,0,0,0-.43,2,15.15,15.15,0,0,0,.79,5.7,32,32,0,0,0,9.12,14.26,6.82,6.82,0,0,0,5.91,1.77,11.66,11.66,0,0,0,4.42-1.67,59.75,59.75,0,0,0,8.84-6.78c.18-.17.33-.38.54-.61A10.23,10.23,0,0,1,107,86.09a8.32,8.32,0,0,1-3-5.17C103,82,102,83,101,83.91s-2,1.87-3.07,2.81Zm24,33.48a33.45,33.45,0,0,1-7.41,1.79,2.09,2.09,0,0,1-2-.5,57.83,57.83,0,0,1-13.55,1c-1-.07-1.89-.15-2.83-.2-1.13-.06-1.46.25-1.56,1.36-.06.64-.17,1.27-.18,1.92-.08,5.21-.19,10.43-.2,15.64,0,4.51.11,9,.15,13.52,0,3,0,6,0,9a1.85,1.85,0,0,0,.87,1.82,4.82,4.82,0,0,0,2,.68c2.09,0,4.18-.09,6.27-.19a4.75,4.75,0,0,0,1.18-.36c.57-13.92,1.14-27.75,2.25-41.66l6.63-1.17a.93.93,0,0,1-.42,1.19,10.35,10.35,0,0,1-1.46.89,1.76,1.76,0,0,0-1.09,1.77c0,2.61-.11,5.21-.14,7.82,0,3.69,0,7.38-.05,11.08,0,4.91.3,9.81.6,14.71.09,1.5.83,2.19,2.06,2.25,1.85.1,3.71,0,5.57,0a3.12,3.12,0,0,0,.79-.18c1.33-.35,1.32-.35,1.36-1.68.14-5.46.28-10.91.46-16.36.22-7,.49-14.09.73-21.13C122,122.28,121.92,121.3,121.92,120.19ZM95.76,37.31c.37.47.68.83,1,1.21a8.91,8.91,0,0,1,1.83,4.87c0,1.2-.27,1.53-1.44,1.56-.47,0-.94-.07-1.41-.08a1.78,1.78,0,0,1-1.9-1.57,5.31,5.31,0,0,0-2.31-3.23,2.64,2.64,0,0,0-4.22,2,4,4,0,0,0,1.26,3.5,14.76,14.76,0,0,0,1.6,1.23,3.06,3.06,0,0,1,1.44,2.33,5.59,5.59,0,0,0,.4,1.67,1.6,1.6,0,0,0,2.4.9l1-.48a3.56,3.56,0,0,1-.38.71,1.7,1.7,0,0,1-.44.23,27.81,27.81,0,0,1,1,8.84c.9.54,1.73,1.11,2.63,1.57a25.26,25.26,0,0,0,7.85,2.3,2.72,2.72,0,0,0,.9,0c1-.16,2-.36,3-.55.3-1,.62-2,1-3a1.88,1.88,0,0,1,1.56-1.41,4.19,4.19,0,0,0,1-.3,1.17,1.17,0,0,0,.68-1.79,4.52,4.52,0,0,0-.39-.58c-4-.47-8-1-11.73-2.63l-1,.76c0-.87.61-1.14,1.22-1.43,1-.48,2-1,3-1.53l.45-.26c-.6,1.24-1.78,1.68-3,2.29A25.83,25.83,0,0,0,108.67,56c2.34.29,4.7.52,7,.66,1.16.07,1.67-.58,1.44-1.66a9.85,9.85,0,0,0-2.57-4.78c-1.22-.12-2.27-.15-3.29-.35a4.17,4.17,0,0,1-1.59-.79,1,1,0,0,1-.2-1.21c.16-.3.33-.65.82-.55-.61,1.26-.43,1.71.85,2a8.5,8.5,0,0,0,3.62.15c.81-.18,1-.39,1-1.23a7.34,7.34,0,0,0-.14-1.62,18.37,18.37,0,0,0-2.62-6.22,8.91,8.91,0,0,1-.91-1.69,1.72,1.72,0,0,1,1.88-2.14c-.75.47-1.48.91-1.42,1.92h4.86a3.37,3.37,0,0,0-1.7-1.89l.5-.29c.06-1.35-.93-1.73-1.84-2.13-.22-1.44-.17-2.9-1.21-4.21-1.14.1-2.36.14-3.55.33-2.72.43-5.37.5-7.93-.77a22.79,22.79,0,0,0-6.13-1.7,5.79,5.79,0,0,0-.72,0L94.8,28c.69.58,1.36,1.18,2.08,1.72.48.37,1,.63,1.55,1s.86.6.81,1.19-.51.84-1,1c-.27.12-.56.22-.87.35A5.14,5.14,0,0,1,95.76,37.31Zm16.82,83.25c0-1.1-.06-2.11,0-3.12a117.36,117.36,0,0,0-.1-15.12c-.08-1.47-.33-2.9.52-4.3-.81-.45-1.53-.88-2.27-1.26-2.2-1.13-1.93-1-3.49.75a24.81,24.81,0,0,1-10.81,7.62,27.79,27.79,0,0,1-3.75.81c-1.28.24-1.52.43-1.58,1.76-.09,2.09-.14,4.19-.22,6.29a8.61,8.61,0,0,1-.13,1.61,2,2,0,0,0,1.1,2.46,29,29,0,0,0,3.31,1.51,35.71,35.71,0,0,0,5.23,1.57,32.13,32.13,0,0,0,9.69-.11C110.88,120.94,111.66,120.74,112.58,120.56Zm7.75-34.68c-.33.35-.57.6-.81.87-.84,1-1.63,2-2.55,2.88a3.47,3.47,0,0,0-1.07,1.77,33.65,33.65,0,0,1-2.63,7.88,1.46,1.46,0,0,0-.12.78c.1,2.09.21,4.19.34,6.28a78.25,78.25,0,0,1-.19,13,14.61,14.61,0,0,0,0,1.75c2.13.28,8.45-1.29,10.44-2.56a60.29,60.29,0,0,1-.86-19.75c-1.5-1-2.81-1.88-4.15-2.72a1.58,1.58,0,0,0-1-.18,1.83,1.83,0,0,0-1.44,1.35c.15.25.29.45.39.65a2.89,2.89,0,0,1,.15,2.37,1.43,1.43,0,0,1-2.54.55c-.09-.09-.16-.19-.22-.26l-.75.28a9.9,9.9,0,0,1,.34-1.2c.42-.93.82-1.87,1.32-2.74,1.26-2.17,2.58-4.29,3.87-6.44.69-1.16,1.37-2.32,2.05-3.49ZM108.6,73.75l0-.23a4.86,4.86,0,0,1,3.7-1.22,14.29,14.29,0,0,0,1.72.1,1,1,0,0,0,.76-.51,1.56,1.56,0,0,0-.21-1,1.2,1.2,0,0,0-.66-.43,9.57,9.57,0,0,0-5.19-.42,3.74,3.74,0,0,0-3.31,4c0,.58,0,1.15.06,1.73.08,1.25.17,2.5.25,3.75a3.21,3.21,0,0,1-.65,2.56c.79,2.43,2.62,3.83,4.57,5.11l.75-.5a3,3,0,0,0,1.49-3c-.06-.57-.1-1.15-.19-1.72-.25-1.75.22-2.27,2-2.2.37,0,.74.09,1.11.09a4.38,4.38,0,0,0,1.2-.13.94.94,0,0,0,.53-1.46,2.23,2.23,0,0,0-.9-.77,6.7,6.7,0,0,0-1.83-.57c-1.13-.16-2.27-.19-3.4-.28a7.84,7.84,0,0,1,5.38.24.81.81,0,0,0,.17-1.14,3.79,3.79,0,0,0-1.22-1.14,10.16,10.16,0,0,0-5.44-.86Zm13.13,13.14-1,1.75a4.72,4.72,0,0,0,5.33-3.47,12,12,0,0,0,.36-5.83,10.27,10.27,0,0,0-1-2.94,4.41,4.41,0,0,0-4.38-2.12c-1,.25-2,.56-2.91.88a.87.87,0,0,0-.27,1.58,1.87,1.87,0,0,0,1,.35,4.52,4.52,0,0,0,1.6-.21c1.34-.46,2.46.22,3.65.57,0,0,0,.12,0,.24a18.72,18.72,0,0,0-2.12,0,6.35,6.35,0,0,0-3.43,1.37,1.55,1.55,0,0,0-.41,2.28c.2-.11.4-.24.61-.34a8.49,8.49,0,0,1,4.1-.94,3.83,3.83,0,0,1,.73.22l-.07.26c-.4,0-.8,0-1.2,0a8.11,8.11,0,0,0-3.47,1c-1,.54-1.2,1.11-.89,2.29.58.49,1.21.2,1.82.06a19.28,19.28,0,0,1,2-.44,1.58,1.58,0,0,1,1.7.75L121.73,84c-.38,1.11.16,1.92.66,2.78ZM99.14,84.66,103,81.07c-3.74-4.6-6.39-9.73-9.11-14.82-.88,0-1,.09-1.35,1a16,16,0,0,0-.48,6.82c0,.26.13.52.19.8.35.12.66.25,1,.34,1.26.37,2.54.7,3.8,1.07.39.12.9.13,1,.9L94.47,79.6Zm16.2-45.88-2.74.14,2,3.18c2.06,0,3.24-1.25,2.93-3.13l-.56-.09-.45.75C115.73,39.92,115.5,39.44,115.34,38.78ZM115,69.61a10.5,10.5,0,0,0-4.16-6.86l-.33,1.61ZM90.15,26c-.22-.65-.32-1.34-1-1.68a4.2,4.2,0,0,0-4.35.82C86.86,24.18,88.52,24.92,90.15,26Zm25.6,74.47a1.86,1.86,0,0,0,0-2.52A1.75,1.75,0,0,0,115.75,100.51Zm-.85-57.84.66,1.57c.93-.59,1.09-1,.84-1.93Zm-5.43,26.48c0,.08,0,.17.06.17.75,0,1.5,0,2.35,0A1.9,1.9,0,0,0,109.47,69.15Zm3.77,11.52-.25-.23-.8.28.11,1.2.21,0Zm-25-54.08c-.92.06-1.08.15-1.57.84Zm40.72,145v-.06h-1.5v.06Zm-7.21,0v0h-.45v0Zm8.59-.23v0h-.2s0,.05,0,.05ZM94.8,59.9h.07v-.22H94.8Z"/><path d="M102.31,36.62a16.58,16.58,0,0,0,7.35-1.08c-.65,1.1-3.26,1.67-7,1.62-.8.63-.83.68-1,1.49l7.53-.29-1-1.44A1.83,1.83,0,0,1,109.59,39c0,.24,0,.47,0,.71a3.5,3.5,0,0,1-3,3.24,4.89,4.89,0,0,1-4.6-1.2,3.16,3.16,0,0,1-.2-4.47C102,37.1,102.1,36.89,102.31,36.62Zm-.9,2.59a3.12,3.12,0,0,0,1.7,2.92,4.87,4.87,0,0,0,3.92.29,3,3,0,0,0,2-3.51l-2-.1c-.11.54-.17,1-.8,1.08s-.87-.57-1.09-1.15Z"/><path d="M93.16,46,92,43.29c-1,.64-.74,1.56-.74,2.42-.9-.71-.81-1.67.18-2.79-.91-1-1.52-1.05-2.83,0a1,1,0,0,1,.71-1.18,1.83,1.83,0,0,1,1.92.19,5,5,0,0,1,2.15,3.63C93.36,45.62,93.28,45.72,93.16,46Z"/><path d="M108.83,43c-1.08,1.63-4.61,2.31-5.67,1a17.29,17.29,0,0,0,3,0A14.92,14.92,0,0,0,108.83,43Z"/><path d="M85.3,73.75l-.23-.15.28,0Z"/><path d="M95.16,87.67l-.07,0c0-.08,0,0,0,.07Z"/><path d="M97.89,86.72h0Z"/><path d="M91.5,81.11v0Z"/><polygon points="91.5 81.14 91.5 81.17 91.5 81.11 91.5 81.14"/><path d="M92.5,82.76l0,0Z"/><path d="M92.48,82.79l0,0Z"/><path d="M121.47,111.47v.77l-.06.06s-.06,0-.06-.06c0-.26,0-.51,0-.77Z"/><path d="M121.6,104.28l.06-.19.06,0-.07.19Z"/><path d="M116.67,93.36l0,0Z"/><path d="M116.64,93.34l0,0Z"/><path d="M126,75.89l-.22-.21.16-.48c.31.46.93.67.46,1.31Z"/><path d="M132.1,88.09l.27.31-.12.1-.25-.33Z"/><path d="M128.63,79.71l-.3-.26.11-.09.17.37Z"/><path d="M123.34,72l0,0c-.06-.13,0,0,0,0Z"/><path d="M130.24,83.23l.07.09,0-.12Z"/><path d="M128,78.7l0,0Z"/><path d="M128,78.73l0,0Z"/><path d="M128.61,79.73l0,0Z"/><path d="M130.27,83.2l0,0Z"/><path d="M127.82,83.77l0,0Z"/><polygon points="127.8 83.79 127.82 83.81 127.82 83.77 127.8 83.79"/><path d="M125.61,74.64h0Z"/><path d="M132.89,89.27l0,0Z"/><polygon points="125.64 74.63 125.58 74.64 125.61 74.64 125.64 74.63"/><path d="M132.87,89.29l0,0Z"/><path d="M124.57,73.25l0,0Z"/><path d="M124.6,73.23l0,0Z"/><path d="M123.32,72l0,0Z"/><path d="M100.65,80.09l-.32-.19.08-.1.22.32Z"/><path d="M98,75.62s.06,0,.07,0,0,0,0,.07-.06,0-.07,0Z"/><path d="M100.63,80.12l0,.06c0,.1,0,0,0-.09Z"/><path d="M95,68.89l-.22-.35,0,0,.22.36Z"/><path d="M95,68.92s0,.1,0,0,0,0,0-.07Z"/><polygon points="101.25 80.9 101.21 80.9 101.25 80.93 101.25 80.9"/><polygon points="101.25 80.93 101.25 80.97 101.25 80.9 101.25 80.93"/><polygon points="94.78 68.54 94.73 68.55 94.76 68.56 94.78 68.54"/><path d="M96,67.56h-.43l.09-.64.23,0Z"/><path d="M95.91,65.27l-.1.63-.17,0,.08-.61Z"/><path d="M96.06,63.73l-.08.5-.14,0v-.5Z"/><path d="M96.58,68l-.65-.43Z"/><polygon points="94.23 63.83 94.21 63.75 94.27 63.76 94.23 63.83"/><path d="M97.39,68.57l-.45-.23Z"/><path d="M98.2,69.18h-.44V69Z"/><polygon points="98.61 69.63 98.6 69.58 98.6 69.61 98.61 69.63"/><path d="M98.18,69.4v0Z"/><path d="M97.79,69l-.23-.23Z"/><path d="M97.59,68.78l-.24-.24Z"/><path d="M97,68.37l-.24-.24Z"/><path d="M96.78,68.17l-.24-.24Z"/><path d="M103.83,73c.51.65.22,1.35.11,2a4.1,4.1,0,0,1-.39,1c.07-1-.39-2.08.3-3Z"/><path d="M103.83,77.44l.17.8-.2,0-.12-.81Z"/><path d="M98.39,70.58l.22.43-.7-.24,0-.12Z"/><path d="M104.09,72.82l.15-.46.25.3-.42.14Z"/><path d="M103.93,79.55l0-.27H104l0,.28Z"/><path d="M105.46,69.79,105,69.5l.1-.13.34.43Z"/><path d="M106.27,69.72c0,.1,0,.21,0,.08l0-.06Z"/><path d="M98.56,71h0Z"/><polygon points="105.44 69.8 105.49 69.79 105.46 69.79 105.44 69.8"/><polygon points="99.58 71.14 99.59 71.2 99.59 71.17 99.58 71.14"/><path d="M104.07,72.8l-.24.23,0,0,.24-.23Z"/><path d="M112.78,91.75l-.2-.2-.21-.21v-.83l.21-.2.2-.41.21-.2.2-.41c.44-.53.89-1.05,1.32-1.6.63-.82,1.25-1.66,1.87-2.49l.88-1.2.21.21.2.2.21.21v.62l-.2.41-.21.4-.2.41-.2.41-.2.41-.41.6-.2.41-.21.21-.4.61-.21.2-.81,1-.4.61-.41.6-.2.42Z"/><polygon points="89.87 75.12 89.88 75.06 89.87 75.1 89.87 75.12"/><path d="M89.46,74.7l0,0Z"/><polygon points="88.05 73.5 88.05 73.44 88.05 73.47 88.05 73.5"/><path d="M115.28,67.1l.43.32-.1.12-.31-.45Z"/><path d="M118.49,70.41l0,0Z"/><path d="M118.06,70l0,0Z"/><path d="M118,70l.21.2,0,0-.21-.2Z"/><path d="M118.25,70.18l.24.23,0,0-.24-.23Z"/><path d="M115.3,67.09h0Z"/><polygon points="113.41 93.74 113.39 93.79 113.42 93.76 113.41 93.74"/><path d="M113.36,73.41l.31-.1v.07h-.35Z"/><path d="M112.8,67.94l.21.2.47,1.1-.09.1L112.18,68l0,0Z"/><polygon points="112.18 67.98 112.17 67.95 112.16 68 112.18 67.98"/><path d="M97.16,85.2l0,0Z"/><path d="M115.63,72.65l.09-.48.12.08-.24.37Z"/><polygon points="115.37 70.83 115.43 70.81 115.39 70.81 115.37 70.83"/><path d="M112.83,81l0,0Z"/><path d="M112.81,81l-.23.18,0,0,.23-.18Z"/><path d="M112.58,81.13l0,0Z"/></g></svg>