<svg id="Layer_1" data-name="Layer 1" xmlns="http://www.w3.org/2000/svg" viewBox="0 0 200 200"><path d="M136.56,4.39H65A21.46,21.46,0,0,0,43.54,25.83V173.72A21.45,21.45,0,0,0,65,195.16h71.58A21.46,21.46,0,0,0,158,173.72V25.83A21.47,21.47,0,0,0,136.56,4.39Zm15.08,169.33a15.1,15.1,0,0,1-15.08,15.08H65A15.09,15.09,0,0,1,49.9,173.72V25.83A15.1,15.1,0,0,1,65,10.75h71.58a15.1,15.1,0,0,1,15.08,15.08Z"/><path d="M91.23,20.29h19.08a3.18,3.18,0,0,0,0-6.36H91.23a3.18,3.18,0,0,0,0,6.36Z"/><path d="M135.74,20.29h3.18a3.18,3.18,0,1,0,0-6.36h-3.18a3.18,3.18,0,0,0,0,6.36Z"/><path d="M123,20.29h3.18a3.18,3.18,0,0,0,0-6.36H123a3.18,3.18,0,0,0,0,6.36Z"/><path d="M108.72,169.73H92.82a8,8,0,1,0,0,15.9h15.9a8,8,0,0,0,0-15.9Zm0,9.54H92.82a1.59,1.59,0,1,1,0-3.18h15.9a1.59,1.59,0,0,1,0,3.18Z"/><path d="M53.07,23.47V166.55h95.39V23.47ZM92.16,33.94a3.18,3.18,0,0,1,4.5,4.49L87.12,48a3.18,3.18,0,0,1-4.5-4.49ZM63.54,46.66,76.26,33.94a3.18,3.18,0,0,1,4.5,4.49L68,51.15a3.18,3.18,0,0,1-4.5-4.49Zm18.15,5.42a3.18,3.18,0,1,1-6.36,0,3.26,3.26,0,0,1,.92-2.25,3.18,3.18,0,0,1,5.44,2.25ZM63.54,62.55,69.9,56.2a3.18,3.18,0,1,1,4.5,4.49L68,67.05a3.18,3.18,0,0,1-4.5-4.5Zm33.12-8.22L68,83a3.18,3.18,0,0,1-4.5-4.5L92.16,49.84a3.18,3.18,0,1,1,4.5,4.49ZM103,48a3.38,3.38,0,0,1-2.26.92A3.34,3.34,0,0,1,98.51,48,3.19,3.19,0,0,1,103,43.47,3.22,3.22,0,0,1,103,48Zm9.52-9.55-3.17,3.18a3.21,3.21,0,0,1-2.25.94,3.19,3.19,0,0,1-2.25-5.43l3.18-3.18a3.17,3.17,0,1,1,4.49,4.49Z"/></svg>