<svg id="Layer_1" data-name="Layer 1" xmlns="http://www.w3.org/2000/svg" viewBox="0 0 200 200"><g id="_7UcRN6" data-name="7UcRN6"><path d="M6.54,133.28H164.37v27.07H6.54Z"/><path d="M180,122.66h-9.21c0-2.76.11-5.39,0-8-.51-10-6.39-14.6-16.32-13.2a74.76,74.76,0,0,1-13.36.81c-14.59-.58-22.81-8.57-24.27-23.19-.1-1-.19-1.91-.32-3.3-7.83-1.58-15.11-4.78-18.43-12.43a31.17,31.17,0,0,1-2.64-15.11C96.69,37,106,29.53,117.89,29v8c-10.86,4.26-14.83,9.25-13.68,17.22,1.2,8.22,5.59,10.53,23.5,12.19-.54,2.64-1.21,5.22-1.59,7.85-1.56,10.66,4,18,14.61,18.83a56.54,56.54,0,0,0,11.62-.51c17.45-2.27,27.57,6.54,27.65,24.24Z"/><path d="M132.66,44v-8.3c19.13-.44,28.26,14,23.46,36.65,35.78,2.34,41.08,28.76,38.22,50.57l-8-.66c-1-12.41.88-25.2-10.47-34.16-11-8.65-23.2-5.78-36.25-4.36,1.21-2.23,2-3.66,2.77-5.11a92.81,92.81,0,0,0,4.26-8.3C152.49,55.66,148.38,47.78,132.66,44Z"/><path d="M171.51,133h8.29v28.14h-8.29Z"/><path d="M186.54,133.08h8.28v28.13h-8.28Z"/></g></svg>