<svg id="Layer_1" data-name="Layer 1" xmlns="http://www.w3.org/2000/svg" viewBox="0 0 200 200"><path d="M173.21,82.43H27.84L25,104.28l-.05.42H176.81Zm-116.16,19-4.75,0,1.64-15.32,4.75.06Zm44.06-.89H96.34v-15h4.77Zm37.68,1.23-1.65-15.29,4.75-.06,1.64,15.32Z"/><path d="M169.25,57.84H31L28.5,77.24l-.05.42h144ZM59.64,75.3l-4.75,0L56.53,60l4.75,0Zm41.47,0H96.34v-15h4.77Zm35.08.35-1.64-15.29,4.76-.06L141,75.61Z"/><path d="M24.34,109.47l-2.45,19-.05.42H180.7l-3.12-19.38Zm29.72,17.38-4.74,0L51,111.5l4.76,0Zm47.05.72H96.34v-15h4.77Zm40.66-.37-1.64-15.3,4.75-.05,1.64,15.31Z"/><path d="M101.69,141.22h93.82L181.25,44.89h-163L4,141.22H95V172.3H60.17v6.61L136,179v-6.7H101.69V141.22ZM9.13,136.79l.06-.39L22.1,49.31H177.42l13,87.48Z"/></svg>