<svg id="Layer_1" data-name="Layer 1" xmlns="http://www.w3.org/2000/svg" viewBox="0 0 200 200"><g id="nOZtxy"><path d="M157.06,26.35l2.05,2c.6-.59,1.18-1.2,1.8-1.78,4.45-4.16,9-4.76,14.34-1.87a17.07,17.07,0,0,1,6.46,5.91,9.33,9.33,0,0,1,.77,9,34.17,34.17,0,0,1-2.34,4.54C174.2,54,166.89,62.8,159.43,71.55c-7.15,8.38-14.21,16.85-21.24,25.33-1.63,2-3,4.17-4.49,6.22-4.43,6-3.21,12.73.79,17.5s8.76,7,14.92,6.32a13,13,0,0,0,6.57-2.84l7.9-6.2c-.14,1.8-.36,3.3-2,4.3a32.5,32.5,0,0,0-4,3.07c-5.93,5-13.59,5.11-19.85,1.24-5.7-3.54-9.13-8.57-9.27-15.47a14.34,14.34,0,0,1,2.67-8.4,241.09,241.09,0,0,1,17.43-22.23c6.85-8,13.76-16,20.34-24.27,3.58-4.49,6.59-9.44,9.72-14.26a17.68,17.68,0,0,0,1.94-4.58,6.09,6.09,0,0,0-.64-5,14.33,14.33,0,0,0-10.37-7.26,6.45,6.45,0,0,0-4.89,1,47,47,0,0,0-4.42,3.81,1.26,1.26,0,0,0-.14,1,3.87,3.87,0,0,1-1,4.11c-.35.35-.65.76-1,1.09a4.24,4.24,0,0,0-1.68,3.75,4.48,4.48,0,0,1-1.23,2.69c-5.38,6.54-10.81,13-16.23,19.52q-3.87,4.63-7.72,9.26a2,2,0,0,0-.52,1,7.43,7.43,0,0,1-2.24,4.7L111.36,96.72c-1.51,1.7-3,3.42-4.55,5.09a1.58,1.58,0,0,0-.39,1.53,21.52,21.52,0,0,1,.37,3.48,7.58,7.58,0,0,1-2.13,5.42c-2,2.05-3.9,4.15-6,6.12-2.55,2.45-5.69,2.57-8.89,1.8-1.92-.45-3.76-1.22-5.76-1.9l-8.25,8.85q-19.61,21-39.17,42.1A4.85,4.85,0,0,1,31,170.69a1.58,1.58,0,0,0-1.79.39Q22,177.53,14.64,183.91c-1.17,1-2,1-3,.11a1.9,1.9,0,0,1-.14-2.84q4-5.31,8.08-10.6c1.34-1.75,2.7-3.49,4-5.27a1.48,1.48,0,0,0,.21-1.2,5.19,5.19,0,0,1,1.19-6q23.44-25,46.78-50.16l.72-.81a20.46,20.46,0,0,1-2.86-7.33,9.19,9.19,0,0,1,2.5-8.33c1.46-1.5,2.94-3,4.29-4.6,2.46-2.91,5.6-3.59,9.15-3a1.88,1.88,0,0,0,2-.6q11.7-12,23.43-23.94a6.71,6.71,0,0,1,3.67-2,2.48,2.48,0,0,0,1.16-.62Q129.12,44,142.41,31.2c1.32-1.27,2.69-2.19,4.62-2a1.37,1.37,0,0,0,.87-.45q1.2-1.22,2.34-2.49a3.53,3.53,0,0,1,4.12-1.13,1.17,1.17,0,0,0,1.47-.38,41.08,41.08,0,0,1,3.2-3.13,14.53,14.53,0,0,1,13.85-3.17,21.74,21.74,0,0,1,12.74,9.07,13.94,13.94,0,0,1,1.48,13.71,41.51,41.51,0,0,1-3.09,6c-6,9.65-13.1,18.4-20.48,27q-9.79,11.4-19.41,23c-2.33,2.82-4.34,5.89-6.48,8.86-2.47,3.42-2.3,6.89-.13,10.36,2.67,4.28,7.9,6.59,12.24,5.3a10.63,10.63,0,0,0,3.36-1.77c3.79-2.88,7.51-5.86,11.26-8.8.3-.24.61-.45,1-.71a5,5,0,0,1-2.15,4.4,98,98,0,0,0-8.06,6.3c-6,5.24-13.43,3.06-17.55-1.25-3.07-3.22-4.66-7-3.42-11.48a12.89,12.89,0,0,1,1.79-3.6,228.29,228.29,0,0,1,16.64-21.21c6.75-7.89,13.58-15.72,20-23.83,3.82-4.79,7.1-10,10.47-15.16a16.18,16.18,0,0,0,2.95-9.22c-.06-3.79-1.82-6.81-4.38-9.42a19.16,19.16,0,0,0-10.89-5.84,11.93,11.93,0,0,0-9.62,2.48C159.73,23.79,158.43,25.11,157.06,26.35Zm-120,136c.34-.44.59-.83.9-1.16q16.84-18.06,33.7-36.1L88,107.64c.37-.39.76-.71.35-1.36a9.92,9.92,0,0,0-6.16-4.58,2.35,2.35,0,0,0-2.47.81L30.12,155.75c-.23.25-.44.51-.74.86A12.21,12.21,0,0,1,37.06,162.36Zm111.7-123,.25-.22c.56.64,1.15,1.25,1.67,1.92s1,1.42,1.49,2.13l.3-.16c-.25-1.76-1.59-3-2.56-4.39l.28-.2,2.93,3.63.24-.12c-.32-1.86-1.72-3.16-2.85-4.61l.28-.2,3.45,4.15A4.64,4.64,0,0,0,154,40c-.71-1.18-1.49-2.32-2.25-3.47l.15-.13,2.84,3.29c0-.29,0-.47,0-.64-.43-3-3.91-6.66-7.06-7.49a3.37,3.37,0,0,0-3.48,1q-12.79,12.31-25.62,24.6a3.51,3.51,0,0,0-.4.53c5.85,2,10.09,5.7,12.39,11.47a1.41,1.41,0,0,0,.6-2.2c-.62-1-1.15-2.05-1.82-3s-1.35-1.67-2-2.5a15.48,15.48,0,0,1,5.1,5.75,1.59,1.59,0,0,0,.08-1.16c-.71-1.3-1.46-2.59-2.27-3.84a21.3,21.3,0,0,0-1.55-1.89,14.31,14.31,0,0,1,4.85,5.47,1.6,1.6,0,0,0,.12-1.15c-1-1.61-2-3.17-3-4.74-.16-.24-.34-.45-.5-.68a14.2,14.2,0,0,1,4.57,5.21,1.37,1.37,0,0,0,.13-1.06c-.69-1.28-1.41-2.54-2.2-3.75a20.84,20.84,0,0,0-1.66-2A14.33,14.33,0,0,1,135.79,63a1.37,1.37,0,0,0,.07-1,18.53,18.53,0,0,0-1.34-2.53c-.72-1.05-1.56-2-2.35-3a14.83,14.83,0,0,1,4.71,5.29,1.6,1.6,0,0,0,0-1.21c-.9-1.49-1.86-2.93-2.81-4.38l-.41-.6.35-.25,4,5c-.22-2.64-2.09-4.37-3.58-6.33a2,2,0,0,1,.67.41c1.34,1.53,2.67,3.07,4,4.61-.34-2.27-1.84-4-3.21-5.82A14.06,14.06,0,0,1,140,57.88a1.39,1.39,0,0,0,0-1c-.83-1.36-1.7-2.69-2.57-4a8.19,8.19,0,0,0-.59-.73l.37-.28,3.91,4.94a3.33,3.33,0,0,0-.14-1.11c-.74-1.25-1.52-2.47-2.31-3.69-.27-.4-.62-.76-.93-1.14a2.93,2.93,0,0,1,1.27.86c1,1.22,2,2.48,3.09,3.93a3.34,3.34,0,0,0-.07-1.11,20.45,20.45,0,0,0-1.4-2.5c-.57-.85-1.26-1.62-1.91-2.43l.31-.24,4.17,5.09a4.17,4.17,0,0,0-.24-1.25c-1-1.6-2-3.17-3-4.69a12.73,12.73,0,0,1,3.86,4.69c.62-.92.58-1-3.14-6A14.93,14.93,0,0,1,145,51.9c-.07-2.14-1.67-3.52-2.74-5.16l.31-.22,3.36,4.23c-.21-2.16-1.76-3.62-3-5.27l.3-.22,3.57,4.39c-.21-2.21-1.78-3.7-3.07-5.34l.29-.23,3.72,4.47a11,11,0,0,0-3-5.13l.31-.24,3.62,4.35.24-.13a14.31,14.31,0,0,0-3.27-5l.32-.23,3.58,4.32.26-.15a13.72,13.72,0,0,0-3.22-5l.29-.22,3.55,4.24.38-.16a13.68,13.68,0,0,0-3.09-4.79l.29-.23c1.13,1.36,2.25,2.71,3.36,4C151.69,43.64,151.69,43.64,148.76,39.39ZM85.67,116.53c1.12.44,2,.84,2.9,1.13a18,18,0,0,0,2.79.66c5.27.75,8.69-2.76,7.79-8a14.8,14.8,0,0,0-1.21-3.84A27.91,27.91,0,0,0,83.67,92.71a13.25,13.25,0,0,0-6.21-1.21,5.82,5.82,0,0,0-5.58,4.33c-.93,3.53.47,6.57,2.12,9.69,1.44-1.54,2.8-2.89,4-4.35a4.56,4.56,0,0,1,5.1-1.42,11.75,11.75,0,0,1,6.08,4.12c2.55,3.13,2.44,6.22-.3,9.17Zm19.8-19.26a1.42,1.42,0,0,1-.21-.07c-.22-.36-.44-.73-.67-1.09a28.92,28.92,0,0,0-14-11.78c-.65-.27-1.12-.27-1.41.48a31.21,31.21,0,0,1,16.44,15.51,4.13,4.13,0,0,1,.45-.77q10.64-12,21.28-24a9.12,9.12,0,0,0,1.17-1.65,3.36,3.36,0,0,0,.22-2.71ZM38,164.53l.62-.63,34.82-37.38,14-15a3.73,3.73,0,0,0,1.32-2.85,2.38,2.38,0,0,0-.52.53q-4.75,5.11-9.52,10.22Q58.54,141.1,38.36,162.75C37.91,163.24,37.3,163.69,38,164.53ZM14.19,181.15l.12.14a2,2,0,0,0,.25-.14l15.86-13.9a1.3,1.3,0,0,0,.24-2,7.12,7.12,0,0,0-1.78-1.45,1.27,1.27,0,0,0-1.84.48c-.64.89-1.33,1.75-2,2.63Q19.63,174.05,14.19,181.15Zm88-71.19c-.23-1-.37-1.87-.61-2.68-1.76-5.94-5.57-10.39-10.43-14a24.13,24.13,0,0,0-12.06-5,1.6,1.6,0,0,0-1.86,1c6.52,0,11.62,3.09,16.12,7.33s7.81,9.23,8.2,15.78c1.4-1.38,2.69-2.64,2.74-4.9ZM32.06,168.71c2,.61,3.16-.48,2.81-2.51a8.32,8.32,0,0,0-7.43-6.45c-1.64-.08-2.44,1.18-1.74,2.73,1.72-1.5,3.71-1.24,5.68.73S33.53,167,32.06,168.71ZM155.93,35.9c.78-1.67,3.2-2.21,2.34-4.78l-3.22,3.39Z"/></g></svg>