<svg id="Layer_1" data-name="Layer 1" xmlns="http://www.w3.org/2000/svg" viewBox="0 0 200 200"><g id="BGYo0o"><path d="M130,16.89c-6.65.3-12.64,1.31-16.72,6.87-3.22,4.39-3.53,8.58-.66,13.25a30.22,30.22,0,0,0,17.26,13.33c6.82,2.12,11.31-1.36,11.45-8.55,0-.85,0-1.69,0-3.11a26.31,26.31,0,0,1,12.51,11.44c11.86,19.95,12.17,40.47,1.23,60.7-9.88,18.28-24.76,30.53-46,33.49a49.13,49.13,0,0,1-11.49.39c-9.89-.94-17.4,3.2-23.72,10.24q-15.4,17.16-30.75,34.38a10.27,10.27,0,0,0-1.08,2l-1-.61v-2.92c0-29.89-.09-59.78.11-89.66a47.91,47.91,0,0,1,2.21-14.33c4.26-13,18.12-19.7,32.48-15.73l-4.18,2.84c-5.89,4-7,9.74-2.31,15,5,5.67,11.63,6.75,18.64,5.22,6.11-1.33,10.9-4.73,12.49-11.15,1.9-7.61-2.53-12.75-7.22-17.93-4.52-5-9.31-10-12.54-15.82C74.62,35.3,77,26,86.26,17.71,99.61,5.8,115.89,6.82,129.41,15.86,129.58,16,129.64,16.26,130,16.89Z"/></g></svg>