<svg id="Layer_1" data-name="Layer 1" xmlns="http://www.w3.org/2000/svg" viewBox="0 0 200 200"><g id="LyYJzx.tif"><path d="M77.06,133.24c0-10.42,0-20.84,0-31.26,0-3,.15-3.2,3.23-2.41a78,78,0,0,0,23.42,2.26c9-.46,17.84-1.94,26-6.35,3.58-1.94,3.85-1.78,3.87,2,.09,20.08.1,40.16.21,60.24a8,8,0,0,1-3.74,7.12c-5.2,3.74-11.22,5.27-17.25,6.51a64,64,0,0,1-29.51-.87c-6.18-1.64-6.22-1.54-6.22-7.67Q77,148,77.06,133.24ZM102,135.88c0,7.57,0,15.13,0,22.69,0,3.54.13,3.75,3.4,3.52a60.7,60.7,0,0,0,19.56-4.5c3.22-1.36,4.23-3.52,4.18-7-.19-13.8-.07-27.6-.08-41.4,0-.94,0-1.89,0-2.83,0-1.43-.49-2.11-2-1.38a52.29,52.29,0,0,1-22.24,5.11c-2.33,0-2.82,1.11-2.8,3.13C102,120.76,102,128.32,102,135.88Z"/><path d="M99.84,90.7c-8.12.4-16.12-.25-23.75-3.3a29.8,29.8,0,0,1-6-3.09c-3.27-2.28-4.1-5.11-3-8.91C68.65,70.23,77.69,62.6,83,62.2a2.57,2.57,0,0,1,2,1.35c.72,1.9,2.28,2.45,3.9,2.85a43.53,43.53,0,0,0,21.69,0,7.22,7.22,0,0,0,3.87-2.75c.92-1.39,1.64-1.77,3.14-1.26,4.51,1.57,8.69,3.72,11.8,7.41a16.54,16.54,0,0,1,3.22,5.83c1.3,4.4.37,6.5-3.5,9.08-6.13,4.09-13.18,5.2-20.27,6A84.58,84.58,0,0,1,99.84,90.7Z"/><path d="M108.78,40c0,1.14,0,2.27,0,3.41,0,5.55,0,5.54-5.25,7.6-.44.17-1,.64-1,1a1.67,1.67,0,0,0,.7,1.37c3.08,1.63,6.23,3.11,9.3,4.76.74.4,1.7,1.29,1.69,1.93a2.87,2.87,0,0,1-1.65,2,34.11,34.11,0,0,1-17.65,2,47.24,47.24,0,0,1-7.57-1.94c-.72-.24-1.68-1.29-1.65-1.92a3.27,3.27,0,0,1,1.66-2.08c2.92-1.61,6-3,8.87-4.59.51-.28.78-1.16.94-1.81,0-.16-.79-.61-1.27-.8-4.19-1.61-4.22-1.6-4.26-5.86,0-4,0-8,0-11.92,0-2.51,1.1-3.64,3.45-4.37a16.57,16.57,0,0,1,9.93.09c2.52.74,3.81,2.24,3.83,4.86,0,2.09,0,4.17,0,6.25Zm-2.35.67a17.19,17.19,0,0,0,0-1.72c-.22-1.69-.48-3.8-2.53-3.64-.91.08-1.72,2.13-2.45,3.36a2,2,0,0,0-.14,1.63,13.35,13.35,0,0,0,2.53,4.11C104.55,45.05,106.38,42.24,106.43,40.67Z"/><path d="M73.91,132.38c0,10.41,0,20.82,0,31.23a12.92,12.92,0,0,1-.57,2.69,10.93,10.93,0,0,1-2.58-1c-2.82-2-5-4.22-4.92-8.27.18-19.68.08-39.37.08-59.05,0-.76,0-1.52.07-2.27.11-1.07.52-1.76,1.8-1.38,4.94,1.5,6.14,3.12,6.15,8.5Q73.93,117.61,73.91,132.38Z"/><path d="M99.85,98.69c-8.66-.36-17.21-1.35-25.31-4.61a37.7,37.7,0,0,1-7.8-4.39c-1.06-.76-1.66-2.4-2.1-3.77-.24-.77.25-1.79.41-2.7a14.29,14.29,0,0,1,2.21,1.31c4.59,4,10.26,5.49,15.94,6.64A81.46,81.46,0,0,0,121.09,90c4.35-1.18,8.56-2.84,11.87-6.17a5.55,5.55,0,0,1,1.44-.79,9.09,9.09,0,0,1,.51,1.58,4.79,4.79,0,0,1-2,5,46.53,46.53,0,0,1-7.78,4.43C117.07,97.37,108.51,98.34,99.85,98.69Z"/><path d="M100.33,181.17c-8.55-.11-16.93-.95-24.91-4a47.31,47.31,0,0,1-8.22-4.74,7.06,7.06,0,0,1-2.11-2.61,5.4,5.4,0,0,1-.21-2.12,8.47,8.47,0,0,1,1.89.14,7.62,7.62,0,0,1,1.47.81c13.62,7.28,28.09,8.53,43.13,6.4,7.69-1.1,15-3,21.71-7.15a5.07,5.07,0,0,1,1.45-.38c.08.7.47,1.6.19,2.07a10.4,10.4,0,0,1-2.8,3.43,47.21,47.21,0,0,1-7.9,4.22,35.09,35.09,0,0,1-8.09,2.24C110.76,180.2,105.53,180.61,100.33,181.17Z"/><path d="M125.63,39.83l-1.73,1.56a7.85,7.85,0,0,1-1.45-1.81c-.09-.21.92-1.24,1.36-1.2S124.88,39.19,125.63,39.83Z"/><path d="M140,30.09,141.15,32l-1.68,1a7.31,7.31,0,0,1-.88-1.8C138.55,30.94,139.34,30.57,140,30.09Z"/><path d="M113.91,39.61c.82-.54,1.44-1.24,1.82-1.13a1.9,1.9,0,0,1,1,1.49c0,.47-.81.89-1.26,1.33Z"/><path d="M131.75,57.73c-.55-.59-1.25-1.06-1.17-1.31a6.08,6.08,0,0,1,1.1-1.68L133.2,56Z"/><path d="M141.63,64.7c-.9.34-1.57.85-2,.7s-.69-1-1-1.5a6.09,6.09,0,0,1,1.83-.55C140.73,63.35,141,64,141.63,64.7Z"/><path d="M139.45,25.2c-.41-1-.83-1.59-.81-2.14,0-.3.93-.87,1.21-.76.53.21.9.83,1.34,1.28Z"/><path d="M137.66,19.06,136,20.77c-.44-.45-1-.84-1.24-1.38-.11-.31.48-1.22.75-1.22A7,7,0,0,1,137.66,19.06Z"/><path d="M142,15.26c-1.1.72-1.59,1.24-2.15,1.32-.38.06-.85-.49-1.29-.77.36-.51.63-1.3,1.1-1.45S140.77,14.75,142,15.26Z"/><path d="M131.69,37.69a10.41,10.41,0,0,1,1.47,2.43c.06.23-1,1.11-1.46,1a2.1,2.1,0,0,1-1.28-1.45C130.36,39.22,131.05,38.64,131.69,37.69Z"/><path d="M131.9,30.05a11.69,11.69,0,0,1,1.1,1.87c0,.1-.94.84-1.15.72a3.18,3.18,0,0,1-1.23-1.38C130.56,31.13,131.29,30.61,131.9,30.05Z"/><path d="M121.49,35.85c-.86.57-1.45,1.17-1.64,1.06a6.59,6.59,0,0,1-1.39-1.4c.39-.28.83-.85,1.17-.79A6.82,6.82,0,0,1,121.49,35.85Z"/><path d="M137.4,27.79c-.74.51-1.39,1.09-1.5,1a3.8,3.8,0,0,1-1.1-1.5c-.06-.16.77-.94.93-.86A8.56,8.56,0,0,1,137.4,27.79Z"/><path d="M140.08,41.7c-.71-.85-1.5-1.4-1.45-1.84s.84-1,1.41-1.26c.17-.08,1,.67,1,1C141,40.19,140.55,40.75,140.08,41.7Z"/><path d="M122.37,44c-1.34.57-1.88,1-2.28.93a5.37,5.37,0,0,1-1.56-1.07c.28-.36.58-1,.84-1A14.06,14.06,0,0,1,122.37,44Z"/><path d="M123.6,50.43c-.59-1.17-1.09-1.7-1-2.07a5.58,5.58,0,0,1,1.1-1.58c.34.3,1,.62,1,.9A12,12,0,0,1,123.6,50.43Z"/><path d="M131.66,46.07c.73.84,1.31,1.27,1.5,1.83.09.28-.6,1.16-.86,1.14-.58-.07-1.41-.44-1.57-.88S131.19,47.07,131.66,46.07Z"/><path d="M140.1,49.75c-.72-.83-1.53-1.36-1.48-1.81s.82-1,1.39-1.29c.19-.08,1.05.65,1,1A6.83,6.83,0,0,1,140.1,49.75Z"/><path d="M139.59,57.84c-.45-1-.89-1.63-.87-2.2,0-.35.91-1,1.08-1,.54.29,1.24.85,1.28,1.35S140.33,57,139.59,57.84Z"/><path d="M127.67,25.88A7.35,7.35,0,0,1,129,27.72c.08.26-.57.74-.89,1.12a5.49,5.49,0,0,1-1.28-1.37C126.67,27.21,127.21,26.66,127.67,25.88Z"/><path d="M123.42,30.17c.5.52,1.07.85,1.09,1.22a.95.95,0,0,1-1.88.25C122.56,31.28,123.05,30.81,123.42,30.17Z"/><path d="M129.26,36.08c-.67.36-1.18.84-1.51.74s-.56-.75-.83-1.16c.4-.26.82-.75,1.19-.72S128.77,35.56,129.26,36.08Z"/><path d="M137.22,35.59c-.49.55-.8,1.16-1.17,1.2A1.36,1.36,0,0,1,135,36a1.33,1.33,0,0,1,.76-1.09C136.09,34.81,136.57,35.26,137.22,35.59Z"/><path d="M128.34,46.47c-1-1.87-1.46-2.34-1.38-2.69s.75-.88,1.06-.82a1.52,1.52,0,0,1,.86,1.1A9.25,9.25,0,0,1,128.34,46.47Z"/><path d="M135.66,45.27c-.35-.67-.82-1.16-.73-1.51a1,1,0,1,1,1.91.3C136.82,44.42,136.21,44.74,135.66,45.27Z"/><path d="M127.48,49.55c1,1.69,1.47,2.18,1.38,2.51s-.73.6-1.14.88c-.27-.39-.72-.77-.77-1.19A8.19,8.19,0,0,1,127.48,49.55Z"/><path d="M138.24,51.63c-1.64.88-2.13,1.35-2.48,1.26a1.37,1.37,0,0,1-.8-1.11,1.5,1.5,0,0,1,1.11-.83A7.89,7.89,0,0,1,138.24,51.63Z"/><path d="M135.68,61.32c-.35-.64-.81-1.12-.72-1.45s.69-.62,1.07-.92c.29.4.83.8.81,1.19S136.22,60.81,135.68,61.32Z"/><path d="M133.69,23.15c-1.41.82-1.88,1.31-2.21,1.23s-.61-.69-.91-1.07c.39-.3.76-.79,1.18-.83S132.71,22.78,133.69,23.15Z"/><path d="M104.58,38a7.24,7.24,0,0,1,.71,2.19c0,.35-.66.67-1,1a5.55,5.55,0,0,1-.94-1.66C103.27,39.24,103.9,38.8,104.58,38Z"/></g></svg>