<svg id="Layer_1" data-name="Layer 1" xmlns="http://www.w3.org/2000/svg" viewBox="0 0 200 200"><g id="D6EkSj.tif"><path d="M103,172.39c-14.57-.52-29.13-1.07-43.7-1.55-2.88-.09-6-.09-7.33-3s.62-5.46,2.2-7.79c4-6,9.94-6.68,16.36-5.45,3.49.66,6.9,1.71,10.38,2.47a2.43,2.43,0,0,0,2-.52c.28-.34,0-1.38-.34-2-1.48-3-3.11-5.88-4.55-8.88-1.64-3.44-3.66-6.72-3.6-10.8,0-2-1.27-2.65-3.12-1.59a27.64,27.64,0,0,1-14.61,3.79,23.91,23.91,0,0,1-13.54-4.57,34.05,34.05,0,0,1-3.53-2.95c-4.15-3.76-8.22-6.42-13.77-2-1.48,1.19-4.49,1.42-6.47.87-5.93-1.64-7-9.88-2-14.23a18.77,18.77,0,0,1,12.62-4.79,101.55,101.55,0,0,0,10.76-.09c1.53-.15,3-1.47,4.34-2.5.37-.29.3-1.55,0-2.14a2.16,2.16,0,0,0-1.78-.66c-7.93.86-15.13-1.38-22-5.16-5.38-3-7.55-9.22-4.22-14.22C21,79,24.45,72.83,30.56,69a9,9,0,0,0,4.35-6.78c.5-3.21,2-6.29,3.32-9.34.82-2,2.52-2.21,4.36-.75a23.19,23.19,0,0,1,2.77,2.66c4.9,5.43,5.14,4.36,8.11-1.57a7.77,7.77,0,0,1,1.12-2c1.19-1.19,2.59-3.16,3.78-3.08s2.64,2.06,3.42,3.5c1.82,3.35,3.4,6.78,3.48,10.83.14,7.4,4.88,12,10.47,16,2.91,2.06,6.31,1.93,9.65,1.65,4.55-.38,9.09-.94,13.64-1.36,2-.19,3.34-.38,2.69-3.17C97.41,56.92,107.81,42.78,125,36c6.31-2.5,13.23-3.72,20-4.75,5.91-.89,11.76,1.16,17.05,3.52,16.71,7.43,26.63,20.66,29,38.62,1.84,13.59-6.61,28.05-22.33,32.55-5.25,1.51-5.57,2-4.85,6.36,2.64,15.9-2.32,29.74-12.11,41.92a48.31,48.31,0,0,1-28.11,17.46,32.67,32.67,0,0,1-6.07.72C112.76,172.46,107.89,172.39,103,172.39ZM36,113.77c-2.31,0-4.62-.09-6.92,0a11.89,11.89,0,0,0-9.21,4.84,3.84,3.84,0,0,0-.43,3.46,3.56,3.56,0,0,0,3.23,1.23,17.5,17.5,0,0,0,5.1-3.09c2.3-1.9,4.4-2.14,6.93-.4,3.13,2.15,6.41,4.08,9.69,6,4.43,2.58,9.13,5.84,14.22,4.84,7.75-1.52,15.16-4.31,19.35-12.2a27.32,27.32,0,0,1,6.6-7.41c9.87-8.35,24.09-6.74,29.66,9.1.22.6,0,1.94-.38,2-.83.27-2.15.39-2.68-.09-2.07-1.86-3.89-4-5.84-6-4.61-4.76-9.4-5.12-15.09-2-9.65,5.33-12.49,17.91-7.76,26.7a159.31,159.31,0,0,0,10,16.32,20.23,20.23,0,0,0,11.73,8.14c12.1,3.2,22.72-.53,32.73-6.68,8.36-5.14,13.4-13.16,17.35-21.93,5.09-11.31,5.19-22.74.77-34.24-2.2-5.72-5-11.25-6.73-17.09-1.08-3.55-.93-7.52-1-11.3,0-.91,1.48-1.82,2.28-2.73a11.63,11.63,0,0,1,1.6,2.83c.41,1.72.07,3.69.74,5.26,2.79,6.59,5.81,13.08,8.82,19.58.66,1.43,1.49,2.36,3.55,1.85,13.32-3.29,23.88-14.89,20.77-29.5-3.19-14.95-11.79-26.6-26.65-32.41-11.22-4.38-22.22-2.21-32.66,2.55a43.09,43.09,0,0,0-13.08,9.12,23.26,23.26,0,0,0-6.2,22.46c1.92,8.2,6.25,15,11,21.69,8.53,12,15,24.87,17.87,39.41,1.21,6.14,1.14,12.21-1.73,18-.23.46-1.08.62-1.65.91-.1-.48-.41-1-.26-1.42a20.11,20.11,0,0,0,1-12.06c-1.89-7.69-3.92-15.38-7.95-22.27q-7.17-12.23-14.84-24.16c-5.82-9.05-5.94-9-16.49-8.49a59.84,59.84,0,0,0-6,1.09c-6.61,1-12.78.36-17.63-5-2.1-2.31-4.22-4.34-7.78-4.27-.74,0-2.08-2.1-2.2-3.33-.45-4.5-.43-9-.76-13.56-.06-.78-1-1.49-1.51-2.23a6.71,6.71,0,0,0-1.69,1.24c-2.69,3.49-5,7.16-4.81,11.84,0,.48-.8,1-1.23,1.47a6.83,6.83,0,0,1-1.24-1.6,15.29,15.29,0,0,1-.26-2.28c-.68-3.65-1.35-4.14-4.39-2.62A91.08,91.08,0,0,0,36,70.06c-6.43,4.1-10.54,10.34-14.62,16.51-2.1,3.18-1.15,5.86,2.46,7.45,3.24,1.43,6.84,2,10.11,3.37,4.36,1.84,8.51,1.31,12.66-.35,1.9-.76,3.63-2,5.57-2.55,1-.3,2.89,0,3.28.68s.13,2.49-.44,3.47a6.48,6.48,0,0,1-2.86,2.46c-2,.89-2.27,2.34-2.47,4.28-.67,6.73-2.35,8.19-9.12,8.38C39,113.81,37.49,113.77,36,113.77ZM71,166.48v-.09c4.6,0,9.21,0,13.81,0,.46,0,.91-.38,1.36-.58-.35-.6-.57-1.59-1-1.73-5.11-1.49-10.39-2.46-15.35-4.33-5.34-2-8.83.17-12,3.9a9.57,9.57,0,0,0-1.05,2,6.57,6.57,0,0,0,2,.82C62.81,166.52,66.91,166.48,71,166.48Z"/><path d="M43.65,81.61c0,2.72-1.63,4.55-4,4.41-2.06-.12-4.53-2.29-4.75-4.15-.29-2.41,2.13-4.81,4.72-4.69S43.64,78.82,43.65,81.61Z"/></g></svg>