<svg id="Layer_1" data-name="Layer 1" xmlns="http://www.w3.org/2000/svg" viewBox="0 0 200 200"><g id="s1HGPC.tif"><path d="M172,3.35V57L114.12,75.36a100.27,100.27,0,0,0,13.48,5.07q22.2,7.16,44.4,14.34v56.66c-1.33.32-2.69.57-4,1q-49.26,15.65-98.5,31.32c-12.63,4-25.23,8.18-37.85,12.27h-3c-.5-1.36-1.42-2.72-1.43-4.09-.1-14.48,0-28.95-.08-43.43,0-3.62,1.54-5.9,5.06-7,6.25-1.9,12.45-3.94,18.68-5.91L90.69,123c-2.09-.75-3.33-1.25-4.6-1.66L32.94,104.45c-4.62-1.47-5.78-3.08-5.78-7.94q0-20.58,0-41.16c0-5.39,1-6.68,6.2-8.35Q89.19,29.27,145,11.57C154,8.73,163,6.09,172,3.35Z"/></g></svg>