<svg id="Layer_1" data-name="Layer 1" xmlns="http://www.w3.org/2000/svg" viewBox="0 0 200 200"><g id="DcULlF.tif"><path d="M158.84,100.5a45.44,45.44,0,0,1-9.3-.72,14,14,0,0,0-8.63,1.48c-3.79,1.87-7.72,3.5-11.09,6.12-1.8,1.4-3.6,2.81-5.38,4.23-1.57,1.26-3.1,2.58-4.68,3.83-.89.7-1.27.61-1.58-.43a16.89,16.89,0,0,1-.4-2.38c-.1-.74-.1-1.5-.24-2.23-.42-2.27-1.28-3-3.63-3.16-.83-.06-1.36.5-1.49,1.56a18.73,18.73,0,0,1-.34,3,22.07,22.07,0,0,1-4.86,8.39c-1.3,1.51-1.3,2.05.31,3.25a16,16,0,0,1,4.78,6.51,59.85,59.85,0,0,0,8.12,13.63,16.43,16.43,0,0,1,3.37,5.55,11.64,11.64,0,0,1-.46,8.34,4.25,4.25,0,0,1-2,1.92,29.63,29.63,0,0,1-5.54,1.64c-2.76.54-5.56.86-8.34,1.24-.61.09-1.23,0-1.84,0-1.48.07-3-.26-4.44.36a1.74,1.74,0,0,1-1.21,0c-1.58-.63-3.23-.23-4.83-.39-2-.19-4-.49-6-.76s-4-.51-6-.91a14.21,14.21,0,0,1-3.39-1.18c-2-1-2.79-2.84-2.89-5-.06-1.36,0-2.72,0-4.09,0-1.67,1.06-2.93,1.9-4.2,1.61-2.44,3.54-4.67,5.06-7.15,1.66-2.72,3-5.65,4.49-8.46s2.76-5.47,5.41-7.29c1.34-.93,1.28-1.67.09-3a23.23,23.23,0,0,1-4.77-8,14,14,0,0,1-.46-3.2c-.14-1.6-.63-1.91-2.22-1.67-1.74.26-2.94.89-2.92,2.9a16.67,16.67,0,0,1-.24,2.43,14.37,14.37,0,0,1-.45,2.37c-.25.84-.71.94-1.45.37-.91-.7-1.75-1.48-2.65-2.18-3.34-2.59-6.42-5.51-10.1-7.65-3.94-2.29-7.92-4.55-12.36-5.71a12.61,12.61,0,0,0-4.86-.16,45.17,45.17,0,0,1-7.42.73c-1.16,0-2.32,0-3.48,0a38,38,0,0,1-9.95-1.39A44.41,44.41,0,0,1,19.2,94.67a31.22,31.22,0,0,1-8.91-6.84c-2.92-3.49-5.22-7.35-5.52-12.07a1.48,1.48,0,0,0,0-.21c-.43-2.48-.43-2.5,1.72-3.37a2.88,2.88,0,0,0,1.71-1.64c.45-1.14.94-2.27,1.38-3.41,2.12-5.54,6.06-7.23,11.5-6.58,5.06.61,9.45,3,13.54,5.87,1.56,1.11,3.08,2.25,4.62,3.38.45.33.76.42,1.09-.24s1-.94,1.25-1.49a19.92,19.92,0,0,0,.61-1.94,3.38,3.38,0,0,1,2.13-2.06c.91-.29,1.8-.66,2.72-.89,6.59-1.6,12.33-5.08,18.21-8.23,3.18-1.7,6.21-3.67,9.34-5.49a10.24,10.24,0,0,1,7.3-1.22A8.48,8.48,0,0,1,87,51.78c2.12,2.91,4.19,5.86,6.4,8.7a36.56,36.56,0,0,0,4,4.33c2.09,2,4.28,1.93,6.34-.08a60.51,60.51,0,0,0,4.91-5.46c1.85-2.34,3.56-4.8,5.27-7.25,3.2-4.57,8.35-5.08,12.82-2.36,6.18,3.77,12.48,7.3,19,10.5A67.3,67.3,0,0,0,153,62.87c1.21.43,2.45.79,3.68,1.17A3,3,0,0,1,159,66.62c0,1.55,1.52,2,1.91,3.21,0,.11.52.21.67.11.63-.39,1.22-.86,1.82-1.31,4.33-3.21,8.71-6.35,14.11-7.57a16.84,16.84,0,0,1,6.67-.44c3.62.62,5.76,2.86,7.14,6.05.41.93.73,1.9,1.09,2.86a4,4,0,0,0,2.87,2.88c1.34.34,1.59.88,1.36,2.1a24,24,0,0,1-8.77,16A46.19,46.19,0,0,1,179,96.05a49.56,49.56,0,0,1-11.39,3.69A34.39,34.39,0,0,1,158.84,100.5ZM123.51,85.77l-1.3-.38-2-1.22c-.41-.23-.84-.43-1.24-.68a9.1,9.1,0,0,1-4.44-6.22,3.94,3.94,0,0,0-.44-.93,4.56,4.56,0,0,0-.4,1.08,5.45,5.45,0,0,0,1.56,4.67,11.24,11.24,0,0,0,7.05,3.24l1.3.38c.71.75,1.58.56,2.45.41.29.15.59.44.86.4a24.65,24.65,0,0,0,4.8-.77c3.73-1.26,6.49-3.93,9.05-6.8a5.51,5.51,0,0,0,.81-1.42c.58-1.34.66-2.6-.58-3.72a2.34,2.34,0,0,1-.64-1.39,6.51,6.51,0,0,0-3.63-5.08A32.22,32.22,0,0,0,127,63.43c-3.63-.74-6.9-.12-9.33,3a15.51,15.51,0,0,0-2.9,5.51c-.69,2.54-.54,2.83,2.1,2.83H138.6c1.51,0,1.65.15,1.08,1.44-1.56,3.53-3.64,6.69-7.17,8.54A11.92,11.92,0,0,1,126,86.19Zm-46,0-2.45.42c-1.6.52-3.12-.19-4.51-.64-4.64-1.49-7.33-5.07-9.21-9.35a7.06,7.06,0,0,1-.21-.79c-.15-.46.08-.63.48-.64s1,0,1.43,0H85.6a.87.87,0,0,0,1-1,8.69,8.69,0,0,0-.28-1.59,14.69,14.69,0,0,0-2.48-5c-2.87-3.9-5.74-4.32-10-3.55a33,33,0,0,0-9.32,3.71,6.89,6.89,0,0,0-3.38,3.65c-.52,1.34-.51,2.87-1.76,3.95-.33.28-.34,1.22-.16,1.75a8.32,8.32,0,0,0,1.4,2.67A24.67,24.67,0,0,0,64.1,82.7a15.73,15.73,0,0,0,8,3.76c1,.11,2,.47,2.9-.34.86.15,1.74.35,2.45-.41l1.3-.37a11.33,11.33,0,0,0,7-3.25,5.42,5.42,0,0,0,1.56-4.67,4.56,4.56,0,0,0-.4-1.08,3.94,3.94,0,0,0-.44.93c-.65,3.43-2.84,5.54-5.87,7a20.91,20.91,0,0,0-1.85,1.14Zm103.92-9.65a42.56,42.56,0,0,1,5.3,0c1.84.24,2.12.93,1.63,2.72a13,13,0,0,1-4.94,6.83,12.22,12.22,0,0,1-6.58,2.46,4.54,4.54,0,0,1-4.68-2.28,10.43,10.43,0,0,1-.58-2.13c-.87-3.09-1.7-3.38-4.43-1.7-1.8,1.1-3.58,2.25-5.84,2.18a19.82,19.82,0,0,0-2.62.35,3,3,0,0,0-2.59,1.75c-1.26,3.13-2.8,6.16-3.45,9.51-.21,1.11,0,1.69,1.15,2a6.53,6.53,0,0,0,2,.22,90.83,90.83,0,0,0,16.18-2,28.71,28.71,0,0,0,15.21-8.26A18.92,18.92,0,0,0,191.87,78a4.23,4.23,0,0,0,0-1.42c-.2-1.19-.91-1.87-2.12-1.66-.92.15-1-.2-1.18-.87a6.68,6.68,0,0,0-6.12-5.2,13.13,13.13,0,0,0-8.29,1.62c-2.39,1.46-2.79,2.26-1.94,4.91.44,1.35.9,1.81,2.19,1.29C176.71,75.71,179.09,76.08,181.46,76.11ZM44,98.16A26.27,26.27,0,0,0,47,97.92c1.08-.21,1.57-.83,1.42-1.68a23,23,0,0,0-.91-4c-.75-2-1.69-4-2.6-6a2.9,2.9,0,0,0-2.4-1.71c-1.27-.17-2.57-.24-3.83-.49a12,12,0,0,1-2.86-.94c-1.17-.56-2.23-1.32-3.38-1.9s-1.76-.41-2.33.74a10.17,10.17,0,0,0-.88,2.7,4,4,0,0,1-2.85,3.12,6.9,6.9,0,0,1-5-.19,13.47,13.47,0,0,1-8.26-7.43C11.76,77,12.36,75.92,15.89,76c3.72.09,7.5-.61,11.16.74A1.27,1.27,0,0,0,28.74,76,4,4,0,0,0,27,70.39a4.45,4.45,0,0,0-1.31-.55,38.8,38.8,0,0,0-5.4-1.08,7.52,7.52,0,0,0-5.52,1.68,8.07,8.07,0,0,0-2.3,3.77c-.12.3-.44.71-.7.73-2.16.18-2.84.78-2.55,2.83a18.14,18.14,0,0,0,3,8c3.14,4.48,7.57,7.17,12.55,9.11a44.3,44.3,0,0,0,10.54,2.35C38.21,97.58,41.19,97.85,44,98.16Zm50.35,9.33c.41,0,1.22-.15,2-.18,2.63-.07,5.25-.16,7.88-.13a45.8,45.8,0,0,1,4.66.41c.65.07.7-.31.65-.72a5.29,5.29,0,0,0-.34-1.37,7.82,7.82,0,0,0-3.71-3.94,13.1,13.1,0,0,1-2.22-1.42c-1.12-.94-1.36-2-.84-2.84s1.47-1.07,2.91-.51l1.91.72a1.79,1.79,0,0,0,1.88-.43c1.68-1.37,3.42-2.67,5.11-4a10.35,10.35,0,0,0,1.62-1.55c.86-1.11.81-1.63-.18-2.65-1.13-1.18-2.32-2.31-3.47-3.48a3.46,3.46,0,0,0-4.1-.91c-1.82.75-3.67,1.46-5.43,2.35a4.36,4.36,0,0,1-4.27,0c-1.82-.91-3.73-1.67-5.63-2.41a3.3,3.3,0,0,0-3.75.84c-1.12,1.11-2.24,2.21-3.34,3.33-1.38,1.4-1.4,2-.06,3.4a9.7,9.7,0,0,0,1.22,1.09c1.7,1.35,3.43,2.66,5.12,4a1.77,1.77,0,0,0,1.87.42c.77-.29,1.52-.62,2.29-.89a2.41,2.41,0,0,1,2.56.75,1.94,1.94,0,0,1-.49,2.39,13.57,13.57,0,0,1-2.5,1.73,8,8,0,0,0-4,4.46c-.46,1.33-.23,1.6,1.18,1.55C93.21,107.48,93.55,107.49,94.3,107.49Zm-17.53-48c-1.48.16-3,.19-4.45.49-4.06.86-7.63,2.87-11.12,5a15,15,0,0,0-2.46,2.13c-.17.17-.1.59-.14.9a3.47,3.47,0,0,0,.72-.19,40.7,40.7,0,0,1,4.52-2.28c3.27-1.17,6.61-2.18,10-3.16a9.58,9.58,0,0,1,3.6-.56,12.85,12.85,0,0,1,7.19,2.61,4.72,4.72,0,0,0,.78.65.88.88,0,0,0,.74,0,.89.89,0,0,0,.2-.7,3.94,3.94,0,0,0-1.9-2.55A10.18,10.18,0,0,0,76.77,59.44Zm47.47.21a9.09,9.09,0,0,0-7.52,2.13A7.58,7.58,0,0,0,115,63.54a1.6,1.6,0,0,0-.11,1.46c.51.59.92-.12,1.32-.43a11.85,11.85,0,0,1,10.94-2.25c3.6,1,7.17,2.2,10.72,3.42a30.1,30.1,0,0,1,3.46,1.72,9.53,9.53,0,0,0,1.17.41c-.19-.41-.34-.83-.57-1.22-.09-.16-.33-.23-.48-.37-2.51-2.43-5.73-3.64-8.82-5.05A15.26,15.26,0,0,0,124.24,59.65Zm-23.92,96.61a24.06,24.06,0,0,0,3.54-.86,5.66,5.66,0,0,0,3.56-4.85c0-.23-.16-.48-.25-.72a4.32,4.32,0,0,0-.68.34,9.91,9.91,0,0,1-2.44,1.73c-3.47,1.06-6.85,1.22-9.58-1.83-.12-.13-.45-.28-.49-.24a1.31,1.31,0,0,0-.35.64,2.47,2.47,0,0,0,.12.8C94.44,154.18,96.86,156,100.32,156.26Z"/><path d="M162,91.2c-.33.29-.72.87-1.22,1a3.92,3.92,0,0,1-1.71-.27c-.08,0-.2-.3-.16-.34.37-.42.71-1,1.19-1.18s1.34-.4,1.82.34C161.92,90.81,161.91,90.89,162,91.2Z"/><path d="M40,90.33c.42,0,.59,0,.69,0a10.71,10.71,0,0,1,1.45,1c.08.06-.07.65-.17.67a13.54,13.54,0,0,1-1.91.16c-.11,0-.26-.13-.32-.24a3.2,3.2,0,0,1-.48-1.21C39.24,90.55,39.89,90.37,40,90.33Z"/></g></svg>