<svg id="Layer_1" data-name="Layer 1" xmlns="http://www.w3.org/2000/svg" viewBox="0 0 200 200"><defs><style>.cls-1{font-size:52.18px;fill:#fff;font-family:MyriadPro-Regular, Myriad Pro;}</style></defs><path d="M121.45,78.53h11.74a5.27,5.27,0,1,0,0-3.51H113.58V69.76A1.76,1.76,0,0,0,111.82,68h-14A1.76,1.76,0,0,0,96,69.76V75H76.4a5.27,5.27,0,1,0,0,3.51H88.15c-14.21,5.2-25.48,21.28-25.48,38.62a1.76,1.76,0,1,0,3.51,0c0-18.6,14-35.61,29.84-36.79V83.8a1.75,1.75,0,0,0,1.76,1.75h14a1.75,1.75,0,0,0,1.76-1.75V80.36c15.83,1.18,29.84,18.19,29.84,36.79a1.76,1.76,0,1,0,3.51,0C146.93,99.81,135.65,83.73,121.45,78.53ZM138.15,75a1.76,1.76,0,1,1-1.76,1.76A1.76,1.76,0,0,1,138.15,75Zm-66.7,3.51a1.76,1.76,0,1,1,1.75-1.75A1.75,1.75,0,0,1,71.45,78.53ZM110.06,82H99.53V71.51h10.53Z"/><g id="_8LevBD" data-name="8LevBD"><path d="M45.55,188c-4.13-1.47-5.58-4.49-5.57-8.75q.1-52.69,0-105.38c0-18.32.06-36.64-.05-54.95,0-4.36,1.27-7.56,5.58-9.09h87c2,2.11,4.17,4.15,6.11,6.35C148.37,27.24,158,38.35,167.76,49.4a6.77,6.77,0,0,1,1.62,4.79q0,34.35,0,68.7c0,18.67-.07,37.34,0,56,0,4.35-1.21,7.58-5.55,9.1ZM128,16.93H47.16V128.39H162.22V56.11h-1.88l-27.83,0c-3.12,0-4.45-1.23-4.49-4.21-.05-3.59,0-7.19,0-10.79Z"/></g><text class="cls-1" transform="translate(60.76 174.36)">SVG</text></svg>