<svg id="Layer_1" data-name="Layer 1" xmlns="http://www.w3.org/2000/svg" viewBox="0 0 200 200"><g id="qXSalf.tif"><path d="M122.39,113.68c-.5,5-.84,9.95-1.54,14.88-1.13,8-1.9,16.09-3.88,23.88-4.79,18.84-14.18,19.11-27.84,17.77-6.2-.61-12.26-2.47-18.43-3.47-2-.33-4.2.25-6.3.41l-.76,1.39L59.24,156l-3,3.23L16,129.7v5l-1.16.27A46.66,46.66,0,0,1,10,120.52l1.15-.63,3.25,4.82c.87-1.32,1.7-2.41,2.34-3.6C31.81,93.5,46.94,65.91,61.82,38.19c1.31-2.45,1-5.76,1.41-8.68.23-1.81.31-3.64.46-5.46L65.53,24c.15,2,.42,3.95.45,5.93.1,6,.07,6,5.76,7.73q19.68,5.91,39.34,11.87c1.34.4,2.63,1,4.35,1.62-.81,1.59-1.41,2.84-2.07,4.06Q88,101.83,62.61,148.43c-1.35,2.47-2.17,4.72.46,7.48,1.09-1.71,2.19-3.23,3.08-4.87q24.52-44.83,49-89.69c2.52-4.59,5.22-9,5.08-14.54,0-.75.57-1.51,1.68-2.26.24.9.44,1.82.73,2.7,1.18,3.51,1.79,7.37,3.68,10.45,18.1,29.49,36.41,58.85,54.68,88.24.74,1.2,1.57,2.34,2.67,4l3.35-5.54,1.13.42c-.31,1.65-.52,3.32-.95,4.94a76.77,76.77,0,0,1-2.3,7.47,10,10,0,0,1-2.06,2.5l-1.92-2.27c-5.47,2-11,4.26-16.7,6.19A78,78,0,0,1,154,166.23c-9.59,1.87-16.51-1-20.16-10-3.25-8-5-16.66-7-25.11-1.17-4.8-1.66-9.76-2.52-14.63a17.9,17.9,0,0,0-1-2.86Z"/></g></svg>