<svg id="Layer_1" data-name="Layer 1" xmlns="http://www.w3.org/2000/svg" viewBox="0 0 200 200"><g id="HlnrAv.tif"><path d="M43.8,63.77c-6.48-1.4-20-11.55-23.18-17.39l1.75-.8a156,156,0,0,1,32.16-10.3c5.38-1.1,10.82-2,16.26-2.73,3.37-.49,6.8-.62,10.2-.93a1.31,1.31,0,0,1,1.28.58q8.42,10.27,16.85,20.53c.16.21.34.4.57.66.21-.22.39-.41.55-.61Q108.66,42.55,117,32.3a1.69,1.69,0,0,1,1.6-.67,173.28,173.28,0,0,1,20,2.41,167,167,0,0,1,29,7.77c3.54,1.31,7,2.84,10.49,4.28.2.08.38.2.68.35-5.9,8.3-14.06,13.45-23.23,17.47-.13-.73-.23-1.37-.35-2A10.8,10.8,0,0,0,148,53.53a28.67,28.67,0,0,0-8.35-1.84c-4.95-.34-9.92-.47-14.88-.71-.66,0-.85.2-1,.82-1.36,7.78-2.76,15.55-4.14,23.32q-1.84,10.39-3.7,20.81l-3.87,21.74q-1.84,10.44-3.7,20.88t-3.71,20.81q-1.86,10.44-3.71,20.88c-.4,2.25-.81,4.51-1.35,6.76-.26-1.44-.53-2.88-.78-4.32q-2.1-11.66-4.19-23.31Q92.48,147,90.26,134.63q-2.15-12-4.3-23.95-2-11.12-4-22.23Q79.9,76.83,77.81,65.21c-.8-4.46-1.61-8.91-2.38-13.38-.11-.66-.32-.92-1.06-.89-4.48.22-9,.29-13.44.6a31.44,31.44,0,0,0-10.1,2.21A10.89,10.89,0,0,0,43.93,63C43.9,63.26,43.85,63.51,43.8,63.77Z"/><path d="M17.64,41.67l-4.87-10c58-22.46,115.84-22.47,173.91,0l-4.9,10c-1.86-.77-3.57-1.49-5.29-2.18a196,196,0,0,0-36-10.58q-10-1.92-20.14-2.85a209.62,209.62,0,0,0-25.8-.77c-5.69.18-11.39.43-17.06.94A191.53,191.53,0,0,0,45.32,32,195.54,195.54,0,0,0,18.59,41.3Z"/></g></svg>