<svg id="Layer_1" data-name="Layer 1" xmlns="http://www.w3.org/2000/svg" viewBox="0 0 200 200"><g id="QawT2P"><path d="M104.78,103.3q33.16,0,66.33,0c1.49,0,2.53.45,3,2,2.31,7.27,7.31,12,14.26,14.76,2.29.92,2.43,1.14,2.43,3.64v47.19c0,2.29-.15,2.54-2.22,3.36-7.13,2.8-12.2,7.59-14.55,15a2.36,2.36,0,0,1-2.41,1.77c-.57,0-1.13,0-1.69,0H39.35c-3.09,0-3.17,0-4.25-3-2.45-6.63-7.17-11-13.61-13.61-2.67-1.1-2.78-1.3-2.78-4.15q0-23.31,0-46.63c0-2.43.22-2.76,2.45-3.65,7-2.78,11.94-7.5,14.27-14.75.49-1.51,1.51-2,3-2q33.16,0,66.34,0Zm64.48,4.61H39.9c-.73,1.14-1.36,2-1.82,2.85A27.32,27.32,0,0,1,24.22,123.6a1.47,1.47,0,0,0-1,1.61q0,21.84,0,43.67a1.83,1.83,0,0,0,1.32,2,27.78,27.78,0,0,1,8.75,6,41.35,41.35,0,0,1,6.42,9.47H169.27c.1-1.09,0-2.29,1.6-2.11.18,0,.46-.41.6-.68a27.32,27.32,0,0,1,13.84-12.86,1.46,1.46,0,0,0,1-1.58q0-21.9,0-43.81a1.64,1.64,0,0,0-1.15-1.77,27.23,27.23,0,0,1-13.64-12.69c-.14-.28-.39-.77-.55-.75C169.31,110.28,169.33,109.1,169.26,107.91Z"/><path d="M16.82,151.57l-4.64-4.91c-1.29-1.37-2.54-2.77-3.86-4.11-1.05-1.05-1-2.08-.52-3.45a59.29,59.29,0,0,0,2.61-8.71c.79-4.07-.17-8-1.83-11.78-.92-2.08-.84-2.53.8-4.07L99.07,30.41c2.36-2.22,4.73-4.42,7.07-6.66a2.54,2.54,0,0,1,3.31-.49c6.71,3.74,13.6,3.77,20.63,1,2.19-.86,2.5-.79,4.15,1q16.1,17.16,32.19,34.31c1.72,1.83,1.76,2.1.72,4.34-3.17,6.79-3.58,13.63-.32,20.52a2.57,2.57,0,0,1-.63,3.29c-4.75,4.41-9.47,8.85-14.21,13.27a1.87,1.87,0,0,1-1.06.54c-1.91.06-3.83,0-6.14,0l16.76-15.74c-.8-.87-1.67-1.68-.35-2.73.15-.13,0-.71-.1-1a27,27,0,0,1,1.18-18.19,2,2,0,0,0-.43-2.56q-14.9-15.76-29.69-31.63c-.53-.58-.94-.95-1.89-.62a27.44,27.44,0,0,1-19,.07c-.23-.09-.65-.18-.75-.07-1.15,1.3-1.88.27-2.74-.51L13.42,117c.55,2.75,1.15,5.2,1.51,7.69a27,27,0,0,1-2.14,14.44c-.34.81-.35,1.38.35,1.94.4.32.66.83,1.07,1.12C17.62,144.51,17.09,148,16.82,151.57Z"/><path d="M122.91,87.64,111.06,98.77c-6.44-6.87-12.84-13.7-19.38-20.66l11.54-10.84,3.22,3.42C104,73,101.61,75.25,99.1,77.61l4.51,4.83,7-6.5,3.2,3.43-6.9,6.51c1.73,1.84,3.41,3.64,5.15,5.52l7.67-7.16Z"/><path d="M80.34,88.74l7.42,7.9.27-.08c-.34-1.89-.68-3.79-1-5.67-.37-2-.81-4-1.1-6.09a2.24,2.24,0,0,1,.49-1.68c1.11-1.2,2.36-2.26,3.76-3.58.4,2,.76,3.81,1.11,5.61.47,2.44,1,4.88,1.38,7.33A1.69,1.69,0,0,0,94,94c5.07,1.7,10.11,3.46,15.16,5.2.3.11.58.25.88.38a3.73,3.73,0,0,1-3.92,1.94,9.31,9.31,0,0,0-2.11,0,18.6,18.6,0,0,1-9.83-1.72,4.76,4.76,0,0,0-.73-.21l.18,1.91c-3,0-5.84,0-8.73,0a1.12,1.12,0,0,1-.71-.35c-2.64-2.79-5.26-5.59-8-8.48Z"/><path d="M117.67,53.72l3.22,3.41-4.47,4.25L132.55,78.6l-4.17,3.92L112.21,65.31l-4.49,4.19-3.24-3.4Z"/><path d="M66.19,101.53c3.66-4.84,9.28-4.85,13.36,0H66.19Z"/><path d="M120,38.53c0,1-1.09,1.6-1.71,1-1.77-1.73-3.45-3.56-5.08-5.43-.2-.23-.06-1,.2-1.33a1.28,1.28,0,0,1,1.23-.15c1.78,1.78,3.49,3.64,5.21,5.48C120,38.23,120,38.45,120,38.53Z"/><path d="M142.57,62.65a8.52,8.52,0,0,1,1.2.85c1.4,1.44,2.76,2.92,4.14,4.39.57.6.94,1.26.19,1.93s-1.28.25-1.81-.32c-1.44-1.54-2.91-3-4.3-4.63a1.87,1.87,0,0,1-.33-1.37C141.7,63.21,142.2,63,142.57,62.65Z"/><path d="M139,59c-.16.22-.33.68-.64.82a1.26,1.26,0,0,1-1.14-.06c-1.73-1.77-3.43-3.58-5.06-5.44a1.29,1.29,0,0,1,.17-1.23c.25-.25,1-.42,1.22-.24,1.82,1.81,3.56,3.69,5.32,5.56C139,58.49,139,58.67,139,59Z"/><path d="M128.43,50a9.55,9.55,0,0,1-1.18-.84c-1.42-1.49-2.88-3-4.18-4.54-.33-.39-.14-1.2-.19-1.81.61.11,1.42,0,1.8.36,1.52,1.44,2.94,3,4.33,4.58a1.83,1.83,0,0,1,.34,1.37C129.31,49.46,128.82,49.69,128.43,50Z"/><path d="M152.09,72.79a8,8,0,0,1,1.18.84c1.39,1.44,2.75,2.92,4.13,4.38.58.61,1,1.27.2,1.93s-1.34.19-1.91-.42c-1.39-1.52-2.84-3-4.19-4.52a1.89,1.89,0,0,1-.36-1.37C151.19,73.34,151.7,73.12,152.09,72.79Z"/><path d="M137.12,38.68a7.55,7.55,0,0,1-.77,1.09c-1.35,1.3-2.72,2.58-4.09,3.87-.6.56-1.27,1-1.94.19s-.21-1.3.35-1.82c1.41-1.32,2.78-2.66,4.23-3.93a1.88,1.88,0,0,1,1.37-.33C136.57,37.8,136.8,38.3,137.12,38.68Z"/><path d="M146.93,49.27a6.23,6.23,0,0,1-.6.91c-1.45,1.39-2.88,2.81-4.42,4.1-.36.29-1.13.08-1.71.1.07-.58-.07-1.35.26-1.69a59.06,59.06,0,0,1,4.39-4.13,1.77,1.77,0,0,1,1.38-.23C146.52,48.4,146.69,48.93,146.93,49.27Z"/><path d="M159.34,62.34a8.86,8.86,0,0,1-.78,1.1c-1.39,1.34-2.81,2.64-4.2,4-.59.55-1.32.83-1.79.08a1.81,1.81,0,0,1,.24-1.66c1.39-1.46,2.89-2.82,4.4-4.15a1.59,1.59,0,0,1,1.26-.24C158.79,61.51,159,62,159.34,62.34Z"/><path d="M143.27,57.42c-.24-.22-.67-.44-.78-.77a1.31,1.31,0,0,1,.2-1.13c1.57-1.54,3.17-3.06,4.84-4.49a1.44,1.44,0,0,1,1.34.1,1.23,1.23,0,0,1,.25,1.18c-1.67,1.69-3.41,3.31-5.15,4.94C143.85,57.36,143.61,57.34,143.27,57.42Z"/><path d="M139.58,41.38a10,10,0,0,1-.82,1.08c-1.35,1.29-2.73,2.56-4.1,3.85-.57.53-1.19.85-1.83.19s-.32-1.27.26-1.81c1.4-1.31,2.77-2.67,4.22-3.92a2.09,2.09,0,0,1,1.5-.35C139.09,40.46,139.3,41,139.58,41.38Z"/><path d="M145.77,60.08c-.24-.21-.68-.43-.8-.75a1.32,1.32,0,0,1,.18-1.14c1.56-1.55,3.16-3.07,4.83-4.51a1.42,1.42,0,0,1,1.34,0,1.31,1.31,0,0,1,.28,1.2c-1.71,1.71-3.5,3.36-5.28,5C146.23,60,146.06,60,145.77,60.08Z"/><path d="M144.5,46.54a6.66,6.66,0,0,1-.74,1.11c-1.38,1.33-2.79,2.63-4.19,4-.58.55-1.31.88-1.77.12a1.94,1.94,0,0,1,.29-1.77c1.35-1.43,2.81-2.75,4.29-4a1.61,1.61,0,0,1,1.26-.28C144,45.7,144.17,46.17,144.5,46.54Z"/><path d="M136,49.53c-.25-.19-.75-.36-.85-.67a1.43,1.43,0,0,1,.2-1.25c1.52-1.52,3.08-3,4.71-4.4a1.53,1.53,0,0,1,1.45,0,1.33,1.33,0,0,1,.13,1.32c-1.59,1.64-3.28,3.19-5,4.75C136.54,49.43,136.32,49.43,136,49.53Z"/><path d="M156.84,59.72a6,6,0,0,1-.67,1q-2.11,2.06-4.28,4.06c-.58.53-1.34.81-1.8,0a1.79,1.79,0,0,1,.26-1.66c1.39-1.45,2.89-2.8,4.4-4.13A1.61,1.61,0,0,1,156,58.8C156.33,58.88,156.54,59.36,156.84,59.72Z"/><path d="M154.35,57.09a5.49,5.49,0,0,1-.65,1c-1.41,1.36-2.86,2.68-4.29,4-.59.56-1.31.82-1.77.07a1.79,1.79,0,0,1,.26-1.66c1.34-1.42,2.8-2.75,4.27-4a1.9,1.9,0,0,1,1.38-.32C153.84,56.24,154.06,56.74,154.35,57.09Z"/><path d="M132.14,33.41a5.85,5.85,0,0,1-.72,1.07c-1.38,1.34-2.79,2.63-4.18,4-.58.55-1.32.87-1.78.13a1.89,1.89,0,0,1,.27-1.76,53.77,53.77,0,0,1,4.18-4,2.25,2.25,0,0,1,1.51-.31C131.66,32.57,131.86,33.06,132.14,33.41Z"/><path d="M128.58,41.64c-.25-.19-.74-.38-.83-.68a1.44,1.44,0,0,1,.19-1.26c1.51-1.52,3.07-3,4.7-4.4a1.52,1.52,0,0,1,1.44.08,1.34,1.34,0,0,1,.15,1.31c-1.6,1.63-3.29,3.17-5,4.73C129.14,41.53,128.91,41.54,128.58,41.64Z"/><path d="M108.06,161.29h-5.64V133.17H108V144.3c.45-.55.65-.75.8-1,1.84-2.88,3.75-5.73,5.49-8.68a2.79,2.79,0,0,1,3-1.61c1.3.13,2.62,0,4.16,0-.3.53-.51.93-.74,1.3-2.08,3.29-4.15,6.59-6.28,9.85a1.7,1.7,0,0,0,0,2c2.44,4.55,4.84,9.11,7.25,13.68.21.4.39.81.68,1.43-2.08,0-4,0-5.89-.05-.35,0-.78-.59-1-1-1.59-3.09-3.13-6.2-4.69-9.3-.16-.32-.34-.64-.59-1.1-1.19,1.6-2.33,3-2.14,5.07S108.06,159.08,108.06,161.29Z"/><path d="M129.43,137.7v6.64h9.33v4.74h-9.34v7.59h10.32v4.56h-16V133.15h15.67v4.55Z"/><path d="M98.73,142.54H93.28c-.18-1.19-.27-2.36-.55-3.49A2.68,2.68,0,0,0,90,136.73,2.63,2.63,0,0,0,87,138.84a10.8,10.8,0,0,0-.62,3.16c0,3.94,0,7.87.15,11.81a6.49,6.49,0,0,0,.58,2.16,2.52,2.52,0,0,0,2.51,1.69c1.29,0,2.38-.32,2.83-1.61a23,23,0,0,0,.79-3.4,18,18,0,0,0,.12-2h5.5c1.67,6.72-3.35,12-10.49,11.11-4.12-.53-6.42-2.45-7.25-6.52a39,39,0,0,1,0-16c1.37-6.41,9.75-9.15,14.91-5C98,135.81,99.15,139.29,98.73,142.54Z"/><path d="M50.42,133.11H68.31v4.62h-6v23.48H56.45V137.79h-6Z"/><path d="M159.17,137.77H153.1v23.46h-5.7V137.8h-6.12v-4.65h17.89Z"/><path d="M76.74,161.26H71.16V133.15h5.58Z"/><path d="M39.34,119.49a19.74,19.74,0,0,1-.05,3.08c-.08.51-.68.94-1,1.4-.39-.43-1.1-.84-1.13-1.29a60.36,60.36,0,0,1,0-6.59c0-.45.72-.88,1.11-1.31.37.45,1,.86,1.06,1.35a23.51,23.51,0,0,1,.05,3.36Z"/><path d="M37.07,133.28a25,25,0,0,1,0-3.36c.06-.46.67-.84,1-1.26.39.43,1.11.84,1.13,1.28a63,63,0,0,1,0,6.59c0,.46-.71.88-1.1,1.32-.38-.45-1-.86-1.09-1.36a20.19,20.19,0,0,1-.05-3.21Z"/><path d="M39.33,175a23,23,0,0,1,0,3.22c-.06.47-.65.86-1,1.28-.4-.43-1.11-.83-1.14-1.28a63,63,0,0,1,0-6.59c0-.46.72-.89,1.11-1.34.38.45,1,.86,1.09,1.35a23.51,23.51,0,0,1,.05,3.36Z"/><path d="M39.34,161.14a23,23,0,0,1-.05,3.22c-.07.46-.66.84-1,1.26-.41-.42-1.14-.82-1.16-1.26a65.69,65.69,0,0,1,0-6.73c0-.41.71-.79,1.09-1.18.37.39,1,.75,1.07,1.19A25.51,25.51,0,0,1,39.34,161.14Z"/><path d="M39.34,147.26a16.82,16.82,0,0,1-.05,2.93,2,2,0,0,1-1,1.45c-.87.23-1.18-.55-1.19-1.32,0-2.15-.05-4.3.07-6.44,0-.45.71-.87,1.09-1.31.37.44,1,.85,1.07,1.34a23.35,23.35,0,0,1,.05,3.35Z"/><path d="M169.33,174.77a19.74,19.74,0,0,1,0-3.08c.09-.5.69-.92,1.05-1.37.39.44,1.08.85,1.11,1.31a63,63,0,0,1,0,6.59c0,.45-.73.87-1.13,1.3-.36-.46-1-.88-1-1.39a23.51,23.51,0,0,1,0-3.36Z"/><path d="M171.6,119.41a20.33,20.33,0,0,1,0,3.22c-.08.49-.71.9-1.09,1.35-.38-.45-1.05-.88-1.08-1.35-.11-2.19-.1-4.39,0-6.59,0-.44.66-.84,1-1.26.4.42,1.08.79,1.15,1.27a22.1,22.1,0,0,1,.05,3.36Z"/><path d="M171.6,133.21a22.08,22.08,0,0,1-.06,3.36c-.07.48-.74.86-1.14,1.28-.35-.41-1-.82-1-1.25-.1-2.2-.11-4.4,0-6.59,0-.47.7-.9,1.08-1.35.38.44,1,.84,1.09,1.34A20.19,20.19,0,0,1,171.6,133.21Z"/><path d="M171.6,161.07a21.58,21.58,0,0,1,0,3.22c-.08.49-.71.9-1.08,1.34-.38-.44-1.06-.87-1.08-1.34a62.79,62.79,0,0,1,0-6.58c0-.44.65-.84,1-1.26.4.42,1.08.8,1.15,1.27A22,22,0,0,1,171.6,161.07Z"/><path d="M171.6,147.18a21.58,21.58,0,0,1,0,3.22c-.08.48-.71.88-1.09,1.32-.37-.44-1.05-.86-1.07-1.32a62.79,62.79,0,0,1,0-6.58c0-.43.65-.83,1-1.24.4.41,1.08.78,1.15,1.25A22,22,0,0,1,171.6,147.18Z"/><path d="M179.56,164.5a20.91,20.91,0,0,1-3.07-.05c-.46-.07-.83-.66-1.25-1,.43-.39.83-1.08,1.27-1.11a55,55,0,0,1,6.16,0c.41,0,.79.7,1.18,1.08-.4.37-.76,1-1.22,1.06A19.61,19.61,0,0,1,179.56,164.5Z"/><path d="M179.51,158.66a21,21,0,0,1,3.08.05c.46.07.85.65,1.27,1-.43.4-.83,1.12-1.28,1.15a55.22,55.22,0,0,1-6.17,0c-.4,0-.77-.71-1.16-1.09.39-.37.75-1,1.19-1.06A19.61,19.61,0,0,1,179.51,158.66Z"/><path d="M179.47,132a22.57,22.57,0,0,1-3.08,0c-.42-.06-1.12-.69-1.07-.93.1-.47.62-1.17,1-1.19a57.65,57.65,0,0,1,6.44,0c.38,0,.9.73,1,1.2.05.23-.66.87-1.07.93a26.59,26.59,0,0,1-3.22,0Z"/><path d="M179.54,144.22a16.82,16.82,0,0,1,2.93.05c.5.09.92.67,1.37,1-.43.39-.83,1.09-1.28,1.11a50.38,50.38,0,0,1-6,0c-.45,0-.87-.71-1.3-1.1.45-.36.86-.94,1.36-1a16.92,16.92,0,0,1,2.94-.05Z"/><path d="M179.64,150.05a19.74,19.74,0,0,1-3.08-.05c-.48-.08-.88-.69-1.32-1.06.44-.38.87-1.06,1.33-1.09a50.38,50.38,0,0,1,6,0c.44,0,.84.76,1.25,1.17-.42.34-.8.9-1.26,1a19.2,19.2,0,0,1-2.94,0Z"/><path d="M179.51,142.87a16,16,0,0,1-2.94-.05c-.49-.09-.88-.7-1.32-1.08.44-.37.85-1,1.31-1.06a52.57,52.57,0,0,1,6,0c.44,0,.84.64,1.26,1-.41.41-.78,1.07-1.26,1.16A17.45,17.45,0,0,1,179.51,142.87Z"/><path d="M179.58,153.67a21,21,0,0,1-3.08,0c-.46-.07-.84-.64-1.25-1,.41-.4.8-1.13,1.23-1.16a55,55,0,0,1,6.16,0c.42,0,.8.7,1.19,1.08-.43.37-.83,1-1.32,1.07A16.82,16.82,0,0,1,179.58,153.67Z"/><path d="M179.51,135.63a19.76,19.76,0,0,1-3.08,0c-.44-.07-.79-.69-1.18-1.05.38-.38.75-1.06,1.16-1.09a55,55,0,0,1,6.16,0c.44,0,.85.74,1.27,1.14-.42.35-.8.93-1.26,1A20.91,20.91,0,0,1,179.51,135.63Z"/><path d="M179.57,168.08a21.07,21.07,0,0,1-3.08-.05c-.45-.07-.83-.64-1.25-1,.42-.4.82-1.12,1.26-1.15a52.75,52.75,0,0,1,6.16,0c.41,0,.79.71,1.18,1.09-.39.36-.75,1-1.19,1a19.74,19.74,0,0,1-3.08,0Z"/><path d="M179.47,139.25c-.93,0-1.87,0-2.8,0s-1.53-.27-1.36-1.15a1.76,1.76,0,0,1,1.28-1.05,50.15,50.15,0,0,1,5.88,0,1.78,1.78,0,0,1,1.3,1c.16.85-.54,1.17-1.36,1.15Z"/><path d="M179.54,157.29a17.87,17.87,0,0,1-2.93,0c-.5-.09-.91-.67-1.36-1,.42-.39.83-1.09,1.27-1.12a50.38,50.38,0,0,1,6,0c.45,0,.86.72,1.29,1.1-.45.37-.86,1-1.36,1.05A16.82,16.82,0,0,1,179.54,157.29Z"/><path d="M179.64,126.19a15.89,15.89,0,0,1,2.93,0c.48.09.85.74,1.27,1.14-.42.35-.82,1-1.25,1a55,55,0,0,1-6,0c-.46,0-.88-.7-1.33-1.07.44-.37.84-1,1.33-1.06a18.47,18.47,0,0,1,3.07,0Z"/></g></svg>