<svg id="Layer_1" data-name="Layer 1" xmlns="http://www.w3.org/2000/svg" viewBox="0 0 200 200"><polyline points="180.3 172.58 180.3 156.45 160.2 156.45 160.2 172.47"/><rect x="13.7" y="173.41" width="172.05" height="9.98"/><polygon points="52.72 55.67 53.93 70.56 44.92 70.56 46.13 55.67 52.72 55.67"/><path d="M51.37,159.06v13.52H43.85l2.38-87.5h6.4l1.93,71a40,40,0,0,0-3.1,2.87A.26.26,0,0,0,51.37,159.06Z"/><path d="M53.93,70.56H54a7.26,7.26,0,1,1,0,14.52H44.83a7.26,7.26,0,0,1,0-14.52h9.1Z"/><path d="M49.09,83a7.26,7.26,0,0,1,5-12.39H44.83a7.26,7.26,0,1,0,0,14.52h9.29A7.25,7.25,0,0,1,49.09,83Z"/><path d="M117.58,159H51.46a40,40,0,0,1,3.1-2.87,46.41,46.41,0,0,1,63,2.87Z"/><path d="M117.66,159.05v13.53H51.37V159.06a.26.26,0,0,1,.09-.09h66.12Z"/><path d="M93.72,146.05A46.14,46.14,0,0,0,73,156.1a40,40,0,0,0-3.1,2.87H51.46a40,40,0,0,1,3.1-2.87,46.21,46.21,0,0,1,30-11A47.21,47.21,0,0,1,93.72,146.05Z"/><path d="M69.86,159a.26.26,0,0,0-.09.09v13.52H51.37V159.06a.26.26,0,0,1,.09-.09Z"/><path d="M144.54,139.66v32.92H117.66V159.05h0V159h-.08a46.08,46.08,0,0,0-9.31-7.3V121.16h36.27v18.5Z"/><polygon points="160.2 121.16 160.2 130.75 160.2 140.35 160.2 149.94 160.2 156.45 160.2 159.53 160.2 172.58 144.54 172.58 144.54 157.34 144.54 148.41 144.54 139.66 144.54 130.92 144.54 121.16 123.93 121.16 123.93 106.98 142.07 106.98 160.2 106.98 160.2 121.16"/><path d="M140.65,34.61A19.67,19.67,0,1,1,121,54.28,19.67,19.67,0,0,1,140.65,34.61Z"/><path d="M140.65,76.89A22.61,22.61,0,1,0,118,54.28,22.63,22.63,0,0,0,140.65,76.89Zm0-39.34a16.74,16.74,0,1,1-16.74,16.73A16.74,16.74,0,0,1,140.65,37.55Z"/><path d="M13.7,175.51H185.75a2.94,2.94,0,0,0,0-5.87h-2.51V156.45a2.94,2.94,0,0,0-2.94-2.93H163.14V107a2.94,2.94,0,0,0-2.94-2.93H145V96.28a2.94,2.94,0,0,0-5.87,0v7.77h-15.2A2.93,2.93,0,0,0,121,107v11.25H108.27a2.94,2.94,0,0,0-2.94,2.93v25.62a49.57,49.57,0,0,0-48,3.56l-1.7-62.45a10.19,10.19,0,0,0,1-19.91l-1-12.55a2.93,2.93,0,0,0-2.92-2.7h-.37V25.94a2.94,2.94,0,1,0-5.87,0V52.73h-.36a3,3,0,0,0-2.93,2.7L42.19,68a10.19,10.19,0,0,0,1,19.91L41,169.64H13.7a2.94,2.94,0,1,0,0,5.87Zm40.61-5.87V161.9h60.42v7.74Zm123.05-10.25v10.25H163.14V159.39Zm-50.5-49.47h30.41v8.31h-4.38a2.94,2.94,0,0,0,0,5.87h4.38v3.72h-4.38a2.94,2.94,0,0,0,0,5.87h4.38v3.72h-4.38a2.94,2.94,0,0,0,0,5.87h4.38V147h-4.38a2.94,2.94,0,0,0,0,5.87h4.38v3.72h-4.38a2.94,2.94,0,0,0,0,5.88h4.38v7.17h-9.79V121.16a2.94,2.94,0,0,0-2.94-2.93H126.86Zm14.75,14.18V128H125.23a2.94,2.94,0,1,0,0,5.88h16.38v2.87H125.23a2.94,2.94,0,1,0,0,5.87h16.38v2.87H125.23a2.94,2.94,0,1,0,0,5.87h16.38v3.07H125.23a2.94,2.94,0,1,0,0,5.87h16.38v9.36h-21V158.93a2.93,2.93,0,0,0-1.32-2.41,50,50,0,0,0-6.13-5.18h4a2.94,2.94,0,1,0,0-5.87H111.2V142.6h5.94a2.94,2.94,0,1,0,0-5.87H111.2v-2.87h5.94a2.94,2.94,0,1,0,0-5.88H111.2V124.1ZM109.6,156H59.42a43.57,43.57,0,0,1,50.18,0ZM48.84,58.61H50l.73,9H48.11ZM40.51,77.82a4.32,4.32,0,0,1,4.32-4.32H54a4.33,4.33,0,1,1,0,8.65H44.83A4.33,4.33,0,0,1,40.51,77.82ZM49.09,88h.68l1.81,66.77c-.62.56-1.23,1.14-1.83,1.73a3,3,0,0,0-1.32,2.41v10.71H46.86Z"/><path d="M185.75,180.8H13.7a2.94,2.94,0,1,0,0,5.87H185.75a2.94,2.94,0,0,0,0-5.87Z"/></svg>