<svg id="Layer_1" data-name="Layer 1" xmlns="http://www.w3.org/2000/svg" viewBox="0 0 200 200"><g id="AUbkMP.tif"><path d="M94,44h10.62c.59,0,1.19.12,1.78.13,18.23.35,35.63,4.32,51.66,13s28.76,20.58,31.31,40.1v6.12c-1.41,12.93-8,22.92-17.75,31.08-15.1,12.66-33,18.53-52.16,21.29-4.5.64-9.06.84-13.58,1.25H96.13c-2.86-.22-5.73-.4-8.59-.67C73,154.91,59,151.37,46,144.68,34.47,138.8,24.63,131,18.14,119.59A42.76,42.76,0,0,1,13,103.38v-6.3c0-.17.1-.34.13-.51A42.68,42.68,0,0,1,24.85,72.22C39.39,56.7,58.07,49.49,78.49,46,83.61,45.09,88.81,44.65,94,44ZM36.68,77.41C30.46,85,27.59,98,29.67,108c2.68,12.84,10.79,21.83,20.92,29.17,9.23,6.68,19.85,10.38,30.93,12.75,3.06.65,6.19,1,9.69,1.57-1.31-1.42-2.35-2.42-3.24-3.54-7.85-10-10.81-21.78-12.32-34-.77-6.2-.76-12.5-1.19-18.74a2,2,0,0,0-1.22-1.36C59.91,91,47,87.25,36.68,77.41ZM111,151.18a7.28,7.28,0,0,0,1.08,0c5-1,10.11-1.7,15-3.09,14.58-4.14,27.33-11.3,36.67-23.61,10.34-13.64,11-30.92,1.84-45.36-.94-1.49-1.69-1.57-3-.36a36.81,36.81,0,0,1-5.18,4.15c-8.14,5.28-17.24,8.11-26.59,10.26C127,94,127.18,94,126.9,98c-.59,7.94-1,15.92-2.23,23.76-1.51,9.51-4.81,18.48-10.94,26.16C112.88,149,112,150,111,151.18Zm-9.78-57c-5.73,0-11.46,0-17.18.06a2,2,0,0,0-1.43,1.3c-.25,9.2.2,18.33,3.29,27.14,1.77,5,3.9,9.82,7.83,13.57,4.6,4.39,10.52,4.53,15,.07a28.65,28.65,0,0,0,5.21-7c5.34-10.44,6.51-21.67,5.87-33.21-.09-1.69-.72-2-2.22-1.93C112.09,94.2,106.63,94.14,101.17,94.14ZM90.56,49.26c-2.23.33-4.14.56-6,.91C71,52.7,58.33,57.48,47.44,66.23a1.64,1.64,0,0,0-.32,1.54,32.82,32.82,0,0,0,4.28,5.47c5.85,5.27,13,7.76,20.59,9.4,4.12.89,4.16.9,5-3.28,2.12-10.68,5.58-20.76,13-29.08A6.41,6.41,0,0,0,90.56,49.26Zm20.7.38a19.09,19.09,0,0,1,1.4,1.78c2.73,4.48,6,8.73,8,13.54,2.3,5.69,3.39,11.87,5.06,17.82.1.36.71.91,1,.85A130,130,0,0,0,140,80c5.66-2.12,10.76-5.25,14.27-10.46,1.1-1.61,1.28-2.82-.72-3.78a13.52,13.52,0,0,1-1.83-1.3C139.65,55.9,126.05,51.62,111.26,49.64ZM101.18,84.18c5.28,0,10.56,0,15.83,0,.33,0,1-.59.94-.76-1.73-6.49-3.93-12.81-8.5-17.93-5-5.6-11.86-5.48-16.72.26-4.32,5.1-6.67,11.16-8.19,17.58-.05.22.53.84.82.84C90.63,84.2,95.91,84.18,101.18,84.18Z"/></g></svg>