<svg id="Layer_1" data-name="Layer 1" xmlns="http://www.w3.org/2000/svg" viewBox="0 0 200 200"><g id="Je6e0w"><path d="M73.34,51c-.29-.73-.46-1.24-.69-1.74-2.37-5.11-6.46-8.41-11.37-10.88a9.91,9.91,0,0,0-5.12-1.18c-2.12.11-4.24,0-6.36,0A1.86,1.86,0,0,1,47.74,35a1.8,1.8,0,0,1,2.08-2h53.76a2.05,2.05,0,0,1,2.3,2.6,1.63,1.63,0,0,1-1.78,1.6c-2.6,0-5.2,0-7.81,0a5.68,5.68,0,0,0-2,.43,26,26,0,0,0-10.5,7.51A19.24,19.24,0,0,0,80.55,51h1.29c5.73,0,11.45,0,17.18,0a4.53,4.53,0,0,1,1.81.39c1.81.78,3.61,1.59,5.36,2.47A15.11,15.11,0,0,1,113.56,62a104,104,0,0,0,24.93,36.84,106.16,106.16,0,0,0,41,23.88c6.21,2,12.63,3.35,19,4.93.82.21,1.06.51,1.06,1.32,0,7.59,0,15.17,0,22.75a2.56,2.56,0,0,1-2.81,2.84H195q-77.4,0-154.8,0a13.17,13.17,0,0,1-8.7-3.11,25.32,25.32,0,0,1-8-11.08,16.51,16.51,0,0,1-1.08-5.75c.17-12.38.34-24.76.87-37.13.23-5.49,1.9-10.81,3.5-16.08a259.6,259.6,0,0,1,9.44-24.91,18.19,18.19,0,0,1,1.21-2.26,6.36,6.36,0,0,1,6-3.35c9.41.09,18.81,0,28.22,0Zm-4,34.93h35.24c1.62,0,2.3-.41,2.53-2a9.44,9.44,0,0,0-.15-3.82c-1.08-3.7-2.28-7.38-3.62-11-1-2.67-2.21-5.27-3.45-7.83a3.27,3.27,0,0,0-3.3-1.8q-26.66.07-53.3,0a3.16,3.16,0,0,0-3.12,1.68c-1.08,2-2.15,4.08-3.07,6.18-1.72,4-3.28,8-5,11.92a7.52,7.52,0,0,0-.62,4.22c.29,2,.89,2.48,2.85,2.48Zm50.34,3.67-.26.13c0,.74,0,1.47,0,2.2.34,8.87.71,17.74,1,26.61a2.12,2.12,0,0,0,1.46,2.17c2.88,1.2,5.68,2.57,8.52,3.87.32.14.66.26,1.05.41a3,3,0,0,0,.1-.52c0-7.54,0-15.08,0-22.62a1.59,1.59,0,0,0-.49-1c-2.22-2.13-4.51-4.2-6.71-6.35C122.7,92.88,121.19,91.2,119.63,89.57Zm18.31,17.32a2.22,2.22,0,0,0-.11.42c0,6.72,0,13.45,0,20.17a1.43,1.43,0,0,0,.75,1c3,1.29,5.94,2.53,8.92,3.77a3.89,3.89,0,0,0,.74.14c0-.28.06-.46.06-.64,0-5.61-.08-11.22-.17-16.83a1.84,1.84,0,0,0-.69-1.24c-2.29-1.65-4.64-3.22-7-4.84C139.64,108.28,138.86,107.61,137.94,106.89Zm25.76,29.87a4.47,4.47,0,0,0,.07-.57c0-4.6,0-9.21,0-13.81,0-.67-.33-.89-.85-1.1l-7.43-3c-.6-.25-1.22-.46-1.86-.7a2,2,0,0,0-.11.42c0,5.09,0,10.18,0,15.26a1.47,1.47,0,0,0,.75,1A27.42,27.42,0,0,0,163.7,136.76Zm-123.92-9.9a6.57,6.57,0,1,0-6.59-6.58A6.58,6.58,0,0,0,39.78,126.86Zm47.84-6.53a6.58,6.58,0,0,0,13.15,0,6.61,6.61,0,0,0-6.59-6.61A6.54,6.54,0,0,0,87.62,120.33Zm80.4,3.35c0,4.72,0,9.28,0,13.85a.84.84,0,0,0,.45.64,22.25,22.25,0,0,0,7.55,1.3c.08-.19.14-.26.14-.32,0-4.24,0-8.47,0-12.71a1.09,1.09,0,0,0-.65-.81C173.11,125,170.66,124.36,168,123.68Zm12.56,3.56c-.08.16-.17.26-.17.36,0,4,0,7.93,0,11.9a.85.85,0,0,0,.43.66,16,16,0,0,0,6.19.63c0-4,0-7.86,0-11.75,0-.24-.46-.62-.75-.69C184.39,128,182.53,127.61,180.58,127.24Zm-112.14-90c3.61,3.19,7.4,5.91,7.72,11h1.61c.29-5.15,4.14-7.82,7.58-11ZM196,142.27c0-4,0-7.9,0-11.76,0-.21-.26-.58-.45-.61-1.59-.27-3.2-.48-4.93-.72,0,4,0,7.82,0,11.64a.9.9,0,0,0,.56.65C192.73,141.76,194.27,142,196,142.27Z"/><path d="M199.49,164.82c-2.77.11-5.44.19-8.11.33-11.66.6-23.32,1.08-35,1.88A147.51,147.51,0,0,0,126,171.86c-1.93.55-3.79,1.33-5.7,1.91a11.69,11.69,0,0,1-3.34.64q-46.45.06-92.91,0c-1.61,0-1.61,0-1.61-1.62q0-3.34,0-6.69c0-.4,0-.8.07-1.34H36.1V158c.47,0,.83-.07,1.19-.07,6.06,0,12.12,0,18.18,0,1,0,1.33.2,1.27,1.22-.08,1.56,0,3.12,0,4.68,0,.6.16.88.81.88l28.89,0a3.12,3.12,0,0,0,.5-.12c0-1.73.07-3.51,0-5.27-.07-1.17.34-1.41,1.44-1.41q54.93,0,109.87,0h1.29Z"/></g></svg>