<svg id="Layer_1" data-name="Layer 1" xmlns="http://www.w3.org/2000/svg" viewBox="0 0 200 200"><path d="M144,192v7.86H120.21v-7.8h7.7v-16H120.1l.08.07v-8h7.68V152.13h-8V144h8.16V128H136V112.08h7.87v-7.79h-7.8v7.86h-8.15V104H120V96.31h-8v7.86h-7.71V120h7.86V112.3h7.8v15.85h-7.66v8H120V144H104l.07.07v-8h-32l.08.07v-8H95.87v-24h-7.8V120H64.18v8H56l.06.07v-8.06H48l.07.07V112H64v-7.94h8.15V112h7.71V96.15H64c0-2.69,0-5.38.07-8.07l-.07.07H80.09V80.09l-.07.07h8V88h8V96h8V80.21H96.08v-8H88.23V64.24h7.62V48.31h-7.7v7.62H80V40.11H96.14V32.33h32v7.84h7.76v16H128V48.31h-7.93v7.86h-8V40.31h-7.8V56.1h7.87v32h24v7.86H152V88.08h7.84v16.1h-7.66v23.75H168v-7.86l8.07.07-.07-.07v16h24v16h-7.92V168H184l.07.07V144.28H168.15v7.86h7.67v8h-7.64v15.94h7.87L176,176v16H160l.06.07V184H152l.07.07V176h7.83v-7.73H136.2V192.1h7.86ZM159.84,160V136.29H136.16V160Z"/><path d="M56.07.16V56H.1V.16ZM48,8.33H8.29V48H48Z"/><path d="M200,56.13H144V.16h56ZM152.22,8.25V48h39.63V8.25Z"/><path d="M176,112.07h15.85v-7.94h-7.76V88.22h-7.9v-8h15.7V72.12H200v16h-7.83v8H200v24h-8.13V128h-7.93v-7.89h-8l.07.07Q176,116.11,176,112.07Z"/><path d="M128,.16V16H104.19V8.29H112V.16Z"/><path d="M200,200.06H184.18V184.11H192L192,184v8h8Z"/><path d="M192,184.11v-8h8v8l-8,0Z"/><path d="M88.05.16v8H80c0-2.68,0-5.35,0-8Z"/><path d="M55.88,200H.24V144.21H55.88ZM8.2,191.89H47.87V152.22H8.2Z"/><path d="M32.12,72.16v-8H64V48.33h8V72.16l.08-.07H64V88.15l.07-.07h-16v8.07L40,96.08l.07.07V88.08H32.05l.07.07V80.09l-.07.07H39.9V72.09H32.05Zm16.11,0v7.77h7.64V72.17Z"/><path d="M8.13,128.12v-8.05l-.07.07h8.06V96.08l-.08.07h8.07V88.08l-.07.07h8.07l-.07-.07v8.07h8.06L40,96.08v24.06l.07-.08-8.06.08v-7.87H24.27v7.8h7.85v8h-8V136H16.19v-7.92H8.06Z"/><path d="M8.12,80.16H.26V64.26H24v7.9h8.15l-.07-.07v8.07l.07-.07H24.05v8.06l.07-.07H16.05v8.07l.08-.07H.29V88.21H8.05V80.09h7.87V72.31H8.12Z"/><path d="M80.09,152h-8v15.89h-8V136.21h8l-.08-.07V144H80v8.09Z"/><path d="M112,184v15.85h-7.86v-7.68H80.24v-8.1h31.83Z"/><path d="M103.93,152.22h7.91V168h-7.7v7.86H96.22V160.18H104v-8Z"/><path d="M71.89,200H64.2V176.28h7.69Z"/><path d="M56,128.06v7.86H40.11V120.06l-.07.08h8.07l-.07-.07v8.06H56.1Z"/><path d="M72,24.11h8.06V40.18H72Z"/><path d="M80,152.12h7.87v15.79H80.09V152Z"/><path d="M8.14,120.07H.28v-7.8H8.07v7.87Z"/><path d="M72,72.16h8v8l.07-.07h-8v-8Z"/><path d="M8.06,128.05v7.86H.26v-7.78H8.13Z"/><path d="M104,144.05l-.09,8.17.07-.07H96.21v-8h7.88Z"/><path d="M184,168v8h-8l.08.07v-8h8Z"/><path d="M72.1,16.12v8.06H64.24V16.12Z"/><path d="M112.07,184.11v-7.92h8.1l-.07-.07V184H112Z"/><path d="M80.09,8.12v8.07H72V8.12Z"/><path d="M152.06,192H144l.07.07v-8h8L152,184v8.06Z"/><path d="M160,192v7.86h-7.93V192l-.07.07h8.06Z"/><path d="M152.06,88.15H136v-8h-8V64.09h24.06Z"/><path d="M176.05,112.14H168V96.29h8.07Z"/><path d="M168.05,112.07v8.07h-7.86v-8.07Z"/><path d="M183.83,72h-7.69V64.32h7.69Z"/><path d="M120,56.1h8.07v8.06H120Z"/><path d="M96,16.35V24H88.19V16.35Z"/><path d="M144.12,151.89v-7.64h7.77v7.64Z"/><path d="M48,96.08H64.1v8.06H48Z"/><path d="M16.24,16.28H39.89V40H16.24Z"/><path d="M183.87,40H160.2V16.31h23.67Z"/><path d="M40,160.26v23.68H16.29V160.26Z"/></svg>