<svg id="Layer_1" data-name="Layer 1" xmlns="http://www.w3.org/2000/svg" viewBox="0 0 200 200"><defs><style>.cls-1{fill:#c9c9c9;}.cls-2{fill:#fefefe;}</style></defs><path class="cls-1" d="M.8,199.27V.4H199.68V197c0,2.3,0,2.3-2.31,2.31H.8Zm92-137.92a9.52,9.52,0,0,0-1,1.38q-10.55,21-21,42.13c-.29.58,0,1.44,0,2.18a6.86,6.86,0,0,0-.39,1.56c0,21.86,0,43.72,0,65.58a1.93,1.93,0,0,0,1.6,2.12A87.11,87.11,0,0,0,90,180.51a85.22,85.22,0,0,0,38.79-4.22,2,2,0,0,0,1.65-2.22q-.07-30,0-60a9.76,9.76,0,0,0-.28-1.66c.44-2.94.78-5.84-.66-8.69C122.65,90.28,116,76.8,109.2,63.35c-.35-.71-.81-1.36-1.23-2-.23-.58-.44-1.18-.71-1.75L101.59,48a28.81,28.81,0,0,1,2,2.4q7.53,10.9,15,21.84,22.32,32.58,44.63,65.15c1.62,2.36,3.25,4.7,4.88,7.05.28-.14.47-.18.55-.29.37-.51.75-1,1.08-1.57A83.84,83.84,0,0,0,179.45,120,78.28,78.28,0,0,0,182,98.81c-.1-4.86-1-9.7-1.44-14.57-.18-2.09-1.21-3.14-3.07-3.94-6-2.58-11.95-5.33-17.91-8L132.39,60.06,103,46.85a5,5,0,0,1-.82-.56l.12-.26,69.78,15.35A8.25,8.25,0,0,0,171,58.55a82.28,82.28,0,0,0-17.16-20.82,4.1,4.1,0,0,0-3.77-1.1c-14.11,2.62-28.23,5.17-42.35,7.74-2.06.37-4.12.7-6.17,1.05l-.2-.45,27-22.33C108.89,16,90.1,16.14,71.4,23l-.13.58L99.42,45a1.66,1.66,0,0,1-1.17.17L87,43c-11.89-2.33-23.78-4.68-35.69-7a4.1,4.1,0,0,0-3,.43,79,79,0,0,0-18.1,20.84,12.66,12.66,0,0,0-.62,1.42c.9-.13,1.47-.19,2-.29Q64.94,52.2,98.25,46a6.22,6.22,0,0,1,1.54.09c-1.62.67-3.25,1.3-4.84,2l-30.57,14L42.78,72c-7.05,3.24-14.11,6.46-21.12,9.78A3.25,3.25,0,0,0,20,83.74a77.64,77.64,0,0,0-1.29,22.81,80.41,80.41,0,0,0,9.64,32c1.05,1.92,2.23,3.78,3.49,5.9.82-1.13,1.43-1.93,2-2.75Q39,134.33,44,127q24.77-35.81,49.55-71.6c1.81-2.61,3.73-5.15,5.6-7.72-1.94,4-3.89,8-5.82,11.94A13.78,13.78,0,0,0,92.77,61.35Z"/><path class="cls-2" d="M.8,199.27H197.37c2.3,0,2.31,0,2.31-2.31V.4c.1,0,.3.1.3.16,0,.42,0,.85,0,1.27V199.59H2.24A6.74,6.74,0,0,1,.8,199.27Z"/><path class="cls-2" d="M99.79,46.07A6.22,6.22,0,0,0,98.25,46q-33.3,6.21-66.61,12.46c-.57.1-1.14.16-2,.29a12.66,12.66,0,0,1,.62-1.42,79,79,0,0,1,18.1-20.84,4.1,4.1,0,0,1,3-.43c11.91,2.27,23.8,4.62,35.69,7l11.28,2.19A1.66,1.66,0,0,0,99.42,45L71.27,23.53,71.4,23c18.7-6.81,37.49-6.94,56.92-.31L101.32,45l.2.45c2-.35,4.11-.68,6.17-1.05,14.12-2.57,28.24-5.12,42.35-7.74a4.1,4.1,0,0,1,3.77,1.1A82.28,82.28,0,0,1,171,58.55a8.25,8.25,0,0,1,1.12,2.83L102.31,46l-.12.26a5,5,0,0,0,.82.56l29.38,13.21L159.6,72.29c6,2.68,11.9,5.43,17.91,8,1.86.8,2.89,1.85,3.07,3.94C181,89.11,181.92,94,182,98.81A78.28,78.28,0,0,1,179.45,120a83.84,83.84,0,0,1-9.71,22.65c-.33.54-.71,1.06-1.08,1.57-.08.11-.27.15-.55.29-1.63-2.35-3.26-4.69-4.88-7.05q-22.32-32.56-44.63-65.15-7.48-10.94-15-21.84a28.81,28.81,0,0,0-2-2.4,9.56,9.56,0,0,0-.81-1.44c-.22-.26-.64-.34-1-.5ZM32.25,56.35l.34.62L92.27,45.83v-.52l-3.8-.73Q70,41,51.53,37.36a4,4,0,0,0-2.56.29,17.55,17.55,0,0,0-3.9,3c-2.58,2.72-5.09,5.52-7.47,8.42C35.7,51.4,34,53.92,32.25,56.35Z"/><path d="M130.08,112.41a9.76,9.76,0,0,1,.28,1.66q0,30,0,60a2,2,0,0,1-1.65,2.22A85.22,85.22,0,0,1,90,180.51a87.11,87.11,0,0,1-18.11-4.21,1.93,1.93,0,0,1-1.6-2.12c0-21.86,0-43.72,0-65.58A6.86,6.86,0,0,1,70.7,107c5.41,8.11,12.59,9.33,22,3.7a3.75,3.75,0,0,1,.52.33,13.42,13.42,0,0,0,18.14-.38c.94-.85,1.72-.78,2.73.1C118.93,115,124.74,115.56,130.08,112.41Z"/><path class="cls-2" d="M99.16,47.66c-1.87,2.57-3.79,5.11-5.6,7.72Q68.77,91.17,44,127q-5.07,7.33-10.14,14.7c-.56.82-1.17,1.62-2,2.75-1.26-2.12-2.44-4-3.49-5.9a80.41,80.41,0,0,1-9.64-32A77.64,77.64,0,0,1,20,83.74a3.25,3.25,0,0,1,1.62-1.93c7-3.32,14.07-6.54,21.12-9.78l21.6-9.89L95,48.1c1.59-.73,3.22-1.36,4.84-2h0Z"/><path class="cls-2" d="M130.08,112.41c-5.34,3.15-11.15,2.61-16-1.62-1-.88-1.79-1-2.73-.1a13.42,13.42,0,0,1-18.14.38,3.75,3.75,0,0,0-.52-.33c-9.37,5.63-16.55,4.41-22-3.7,0-.74-.28-1.6,0-2.18q10.46-21.1,21-42.13a9.52,9.52,0,0,1,1-1.38,57.3,57.3,0,0,0,15.2,0c.42.68.88,1.33,1.23,2,6.75,13.45,13.45,26.93,20.22,40.37C130.86,106.57,130.52,109.47,130.08,112.41Z"/><path d="M108,61.31a57.3,57.3,0,0,1-15.2,0,13.78,13.78,0,0,1,.57-1.75c1.93-4,3.88-8,5.82-11.94l.65-1.58c.33.16.75.24,1,.5a9.56,9.56,0,0,1,.81,1.44l5.67,11.54C107.53,60.13,107.74,60.73,108,61.31Z"/><path class="cls-2" d="M32.25,56.35c1.77-2.43,3.45-5,5.35-7.28,2.38-2.9,4.89-5.7,7.47-8.42a17.55,17.55,0,0,1,3.9-3,4,4,0,0,1,2.56-.29q18.48,3.57,37,7.22l3.8.73v.52L32.59,57Z"/></svg>