<svg id="Layer_1" data-name="Layer 1" xmlns="http://www.w3.org/2000/svg" viewBox="0 0 200 200"><defs><style>.cls-1{fill:#fff;stroke:#000;stroke-miterlimit:10;stroke-width:2px;}</style></defs><path d="M2.12,27.32H197L145.1,162.66a48.75,48.75,0,0,1-91.06,0Z"/><path class="cls-1" d="M95.21,89.43c-18.71,0-49.07,8.11-49.07,29.63,0,27,38.05,33.63,57.75,33.63,11.85,0,30.19-5.25,45.68-20.22l-5.25-5c-13.72,12.94-26.35,15.28-38.61,15.28-13.88,0-38.36-9-38.36-23,0-15,21.93-21.57,35.34-21.57,17.2,0,33.53,3.64,41.27,14.45l6.24-3.64L136.48,93.74a4.87,4.87,0,0,1-4.68,2.55,23.91,23.91,0,0,1-7.23-1.66C117.24,92,104.09,89.43,95.21,89.43Z"/><path id="t" class="cls-1" d="M128.52,159v-7.84c-9.51.52-13.61-3.54-13.61-13.36V84.39h17.87c6.61,0,11.7,4.37,15.44,9.25l4.94-4.83L142.09,74.15H69.22L58.1,88.81,63,93.64c3.75-4.88,8.84-9.25,15.44-9.25H96.4v53.38c0,9.82-4.16,13.88-13.62,13.36V159Z"/><path id="t-2" data-name="t" class="cls-1" d="M106,137.82V130c-9.51.52-13.62-3.53-13.62-13.36V63.24h17.88c6.6,0,11.69,4.36,15.44,9.25l4.93-4.84L119.58,53H46.71L35.59,67.65l4.94,4.84c3.74-4.89,8.83-9.25,15.44-9.25H73.9v53.37c0,9.83-4.16,13.88-13.62,13.36v7.85Z"/></svg>