<svg id="Layer_1" data-name="Layer 1" xmlns="http://www.w3.org/2000/svg" viewBox="0 0 200 200"><path d="M188.77,42.53a71.3,71.3,0,0,1-9,3.29,40,40,0,0,0,8.13-14.3,3,3,0,0,0-4.4-3.51,71.24,71.24,0,0,1-21,8.3A40.14,40.14,0,0,0,94.59,70.16,102.68,102.68,0,0,1,24.12,32.77a3,3,0,0,0-4.94.39,40.17,40.17,0,0,0,4.11,46.16,33,33,0,0,1-5.36-2.4,3,3,0,0,0-4.48,2.57V80a40.24,40.24,0,0,0,19.63,34.49c-1-.1-2-.25-3-.44A3,3,0,0,0,26.59,118,40.13,40.13,0,0,0,56,144.83a71,71,0,0,1-37.92,10.82,70.65,70.65,0,0,1-8.5-.5,3,3,0,0,0-2,5.53,108.09,108.09,0,0,0,58.48,17.14c40.84,0,66.38-19.25,80.61-35.4,17.76-20.14,27.94-46.8,27.94-73.14,0-1.1,0-2.21,0-3.32a78.13,78.13,0,0,0,17.94-19,3,3,0,0,0-3.72-4.43Z"/></svg>