<svg id="Layer_1" data-name="Layer 1" xmlns="http://www.w3.org/2000/svg" viewBox="0 0 200 200"><defs><style>.cls-1{font-size:52.18px;fill:#fff;font-family:MyriadPro-Regular, Myriad Pro;}.cls-2{letter-spacing:0.02em;}.cls-3{letter-spacing:0.01em;}</style></defs><g id="_8LevBD" data-name="8LevBD"><path d="M44.55,189c-4.13-1.47-5.58-4.49-5.57-8.75q.1-52.69,0-105.38c0-18.32.06-36.64-.05-54.95,0-4.36,1.27-7.56,5.58-9.09h87c2,2.11,4.17,4.15,6.11,6.35C147.37,28.24,157,39.35,166.76,50.4a6.77,6.77,0,0,1,1.62,4.79q0,34.35,0,68.7c0,18.67-.07,37.34,0,56,0,4.35-1.21,7.58-5.55,9.1ZM127,17.93H46.16V129.39H161.22V57.11h-1.88l-27.83,0c-3.12,0-4.45-1.23-4.49-4.21,0-3.59,0-7.19,0-10.79Z"/></g><text class="cls-1" transform="translate(62.42 175.36)"><tspan class="cls-2">T</tspan><tspan class="cls-3" x="27.08" y="0">X</tspan><tspan x="57.29" y="0">T</tspan></text></svg>