<svg id="Layer_1" data-name="Layer 1" xmlns="http://www.w3.org/2000/svg" viewBox="0 0 200 200"><path d="M200,79.4c-.53,27.75-10.46,49.42-27.49,67.83-26,28.18-57.9,43.6-96.93,42.33C37.91,188.34,7.27,163.12,1.21,128A79.28,79.28,0,0,1,7.8,79.88C27.71,38,60.27,12.32,106.94,6.93c22.89-2.64,44.88,1.58,63.86,15.68C190.45,37.23,200,57.18,200,79.4ZM71.23,137.53c-4.33-5.26-4.19-7.21.94-11.78,1.2-1.06,2.43-2.09,3.71-3.06,18.73-14.21,33.43-31.93,45.41-52,2.84-4.75,2.67-9.58-1.08-13.22-4.81-4.66-9.88-9.87-15.87-12.33-14.56-6-29.68-10.56-44.67-15.42-1.68-.55-4.35.23-5.92,1.31C32.89,45.36,17.44,64,9.14,88.21-5,129.33,14.29,168.55,54.83,181c4.27,1.31,8.69,2.12,13.79,3.34C65,167.67,63.47,152.3,71.23,137.53Zm75.89-75.06c-12.78-14.67-11-28.56,1.57-42.6-2.49.14-5,.32-5.9,1.62-3.21,4.47-6.81,9-8.56,14.11-3.47,10.11,1.1,18.56,7.1,26.63,6.6,8.88,4.94,13.37-4.93,18C111.62,91.9,93.84,110.77,81.49,133.1c6.64,7.66,13.41,14,18.33,21.56,5.05,7.75,8.29,16.67,12.49,25.43a9.38,9.38,0,0,0,1.78-.38c4-1.4,8-2.61,11.83-4.33,34.16-15.35,58.14-39.74,68.24-76.62,4-14.76-3.77-32.73-23.82-33.94-5.64-.33-11.32,0-17,0,7.41-6.57,16.56-.94,25.22-3.88C170.35,55.28,158.63,56,147.12,62.47ZM106.23,181.19C102.39,164.54,95.31,150.43,82,140c-5-3.87-6.23-3.5-8.62,2.32-5.25,12.77-4.65,25.74-.73,38.69.37,1.23,1.93,2.92,3,3C85.79,184.54,95.88,184.07,106.23,181.19Zm30-117.87c-4.86-2.47-7.32.6-9.36,3.55-2.4,3.46-1.15,7.64,3.79,11.64C131.58,72.88,129.73,66.36,136.2,63.32Z"/></svg>