<svg id="Layer_1" data-name="Layer 1" xmlns="http://www.w3.org/2000/svg" xmlns:xlink="http://www.w3.org/1999/xlink" viewBox="0 0 200 200"><defs><style>.cls-1{fill:none;}.cls-2{clip-path:url(#clip-path);}</style><clipPath id="clip-path"><rect class="cls-1" x="11" y="-434" width="178" height="178"/></clipPath></defs><g id="_4TkjLH" data-name="4TkjLH"><path d="M100.22,192c-4.42-1.51-8.89-2.85-13.23-4.55-13.74-5.39-25.9-13.14-35.52-24.51-10.24-12.12-15.87-26.25-17.79-41.89a121,121,0,0,1-.83-14.37q-.1-48.56,0-97.09c0-.87,0-1.73.06-2.59H168.3c0,.8-.07,1.6-.07,2.4q0,49,0,98a93.3,93.3,0,0,1-6.05,34.19c-7.16,18.25-19.85,31.49-37,40.71A113.44,113.44,0,0,1,103,191.23c-.68.2-1.34.51-2,.77ZM37.79,12.35v2.18c0,30.34-.09,60.67.09,91a123.4,123.4,0,0,0,1.74,20.22,69.3,69.3,0,0,0,22.51,41c10.84,9.69,23.64,15.65,37.46,19.68a4,4,0,0,0,2.31-.14c6-2.26,12.11-4.22,17.86-7,14.61-7,26.29-17.28,34-31.74,6.74-12.65,9.24-26.31,9.28-40.47.07-31,0-61.91,0-92.87,0-.59-.05-1.19-.08-1.88Z"/><path d="M131.18,89.5l-9.9,42.71,24.92-23.84.31.17q-6.33,15.45-12.67,30.89l.27.21,20.39-15.16a3.24,3.24,0,0,1,0,.86c-3.78,10.11-7.81,20.1-14.62,28.67-7.49,9.45-17.36,15.56-28.26,20.21-3.28,1.4-6.65,2.6-10,3.83a3.13,3.13,0,0,1-2,.13c-11.19-4-22-8.69-31.13-16.55-7.7-6.61-13-14.91-17.07-24.07a127.41,127.41,0,0,1-5-13.08l20.22,15,.36-.27q-6.34-15.47-12.68-30.92l.22-.13L79.25,131.8l.3-.16-9.72-42,.3-.12q11.39,19.07,22.76,38.15h.42l7-50.59.31,0,7.1,51.19,23.18-38.85Z"/><path d="M45.59,75.37V66.84c3.47-1,6.75-2,10-3a24.87,24.87,0,0,1,17.2.29,23.59,23.59,0,0,0,18.8,0c6.24-2.58,12.68-2.21,18.92.32a21.11,21.11,0,0,0,16.68,0A26.46,26.46,0,0,1,147,64.35c2.63,1,5.39,1.55,8.28,2.36v8.57c-2.29-.54-4.53-.74-6.5-1.58a28.09,28.09,0,0,0-23.11-.06,17.82,17.82,0,0,1-14.38-.18A26.41,26.41,0,0,0,90,73.32a19.33,19.33,0,0,1-15.61,0,27,27,0,0,0-21.38,0A59.22,59.22,0,0,1,45.59,75.37Z"/><path d="M88.27,57.41V19c6.38.34,12.68.27,18.84,1.14,5.62.79,8.48,4.78,8.26,9.86-.13,2.85-1.14,4.39-4.81,7.28.45.24.88.48,1.31.69a8.64,8.64,0,0,1,5.3,8c.09,3.92-1.34,7.28-4.92,9a22.27,22.27,0,0,1-8,2.34C99,57.67,93.67,57.41,88.27,57.41ZM97,51.46a74.23,74.23,0,0,0,8.31-1.1c2.24-.54,3.14-2.22,3.13-4.43a4.55,4.55,0,0,0-3.12-4.53c-2.7-1.06-5.49-.78-8.32-.67Zm0-16.54a67,67,0,0,0,7.17-1A3.8,3.8,0,0,0,107,29.71a3.77,3.77,0,0,0-3.39-3.78c-2.15-.35-4.35-.36-6.65-.52Z"/><path d="M71.46,19.11h9.06v2.5c0,7.09.09,14.18,0,21.26-.16,7.94-4.76,13.29-12.55,14.91a24,24,0,0,1-11.7-.4c-6.4-1.84-10.48-6.65-10.66-13.27-.21-8.13-.05-16.27,0-24.41,0-.11.1-.21.2-.43h8.8v3.09q0,9.34,0,18.68a21.51,21.51,0,0,0,.22,3.5,7,7,0,0,0,6,6.16c6.64,1.29,10.7-2,10.72-8.74q0-10.35,0-20.71Z"/><path d="M154.15,47.85c.35,2,.75,4,1,6.08a1.42,1.42,0,0,1-.56,1.15c-8.42,5.06-23,4.6-29.34-4.83a20,20,0,0,1,14.59-31.49,25.27,25.27,0,0,1,14.76,2.7c-.43,2.51-.86,5-1.24,7.16-3-1-5.75-2.33-8.71-2.87-7.26-1.32-12.87,3.28-13.45,10.65-.31,4.05.1,8,3,11.07,3.66,3.93,8.31,4.23,13.15,3A65.21,65.21,0,0,0,154.15,47.85Z"/><path d="M45.64,81.87c3.17-.93,6.14-1.68,9-2.68a26.27,26.27,0,0,1,19,.26A21.21,21.21,0,0,0,91,79.37a42.66,42.66,0,0,1,4.67-1.46c-.39,3-.74,5.75-1.14,8.46a1.16,1.16,0,0,1-.64.79c-2.8.94-5.56,2-8.42,2.69a17.17,17.17,0,0,1-11-1.29,26.34,26.34,0,0,0-21.34-.17,65,65,0,0,1-7.48,2Z"/><path d="M105.17,78.06c1.92.59,3.53.94,5,1.56a21.33,21.33,0,0,0,17,0c6.49-2.68,13-2.48,19.64-.1,2.63,1,5.4,1.55,8.33,2.37v8.65A55.56,55.56,0,0,1,148,88.64a27.2,27.2,0,0,0-21.87,0c-4.95,2.11-9.83,1.67-14.94.14-3.89-1.15-5.74-3.09-5.54-7.1A22.22,22.22,0,0,0,105.17,78.06Z"/><path d="M132.78,102c.68-2.9,1.22-5.48,1.93-8a1.83,1.83,0,0,1,1.49-.87,54.8,54.8,0,0,1,8.2,1c3.61.84,7.13,2.11,10.86,3.25v8.21a22.85,22.85,0,0,1-4.54-.68C145,102.81,139.26,100.79,132.78,102Z"/><path d="M45.59,105.64V97.09c3.43-1,6.6-2.15,9.86-2.89,3-.67,6-.92,9.07-1.35,1.14-.16,1.62.37,1.83,1.5.46,2.45,1.07,4.88,1.67,7.5-2-.16-3.88-.62-5.65-.36a86.51,86.51,0,0,0-8.76,2C51,104.13,48.45,104.87,45.59,105.64Z"/><path d="M107.51,93.79a63.19,63.19,0,0,0,6.82,2.27,62.91,62.91,0,0,0,7,.75c-1.63,2.66-3.24,5.35-5,8-.19.29-1,.34-1.5.2-1.88-.54-3.74-1.17-5.58-1.85a1.56,1.56,0,0,1-.84-1C108.11,99.43,107.84,96.76,107.51,93.79Z"/><path d="M79.39,96.58c5.22.79,9.49-1,14.07-2.73-.38,3-.71,5.81-1.12,8.57a1.37,1.37,0,0,1-.81.84c-2,.69-3.94,1.35-5.94,1.89a1.66,1.66,0,0,1-1.42-.61C82.61,102.06,81.14,99.52,79.39,96.58Z"/></g><g class="cls-2"><g id="vurX8n"><path d="M206.21-233.94h9c2.43-2.93,5.35-7.05,8.88-10.55,5.1-5.07,10.54-9.83,16-14.47,3-2.51,3.81-7.4,1.07-10.31a29.58,29.58,0,0,1-8.12-22.49c.08-1.91-.09-4,2.54-4.29s4.82.44,5.69,3.18c1.06,3.39,1.9,6.85,2.95,10.24a16.19,16.19,0,0,0,1.57,2.92l.84-.31c-.38-1.44-.68-2.91-1.15-4.31-2.24-6.56-1.82-12.83,1.82-18.83,1.89-3.11,4-4.21,6.52-3.27s3.89,3.84,3.47,7.14c-.58,4.48-1,9-1.23,13.5-.16,3.44,1.58,5.07,5.57,5.58-.28-1.91-.44-3.75-.84-5.52-1.38-6.07,1.16-10.84,5-15.11,2.13-2.35,5-2.72,8-2.12,3.7.76,4.94,6,2.36,9.55-1.52,2.06-2.92,4.2-4.48,6.23a3.24,3.24,0,0,0,0,4.54c2.94,3.63,3.37,7.92,3,12.37a4.51,4.51,0,0,1-.77,2.2c-1.7,2.22-.4,3,1.57,3.41,4.75.91,8-1.76,8-6.58,0-1,0-2,0-3-.22-5.08,1.65-5,5.33-6,2.61-.71,5.07,1,5.89,4.23,1.22,4.75,3.13,9.75-.55,14.21-3.3,4-7.21,7.32-12.83,7.45a68,68,0,0,1-7.14,0c-3.92-.32-6.19,1.78-7.52,5-3.63,8.92-7.64,17.75-13.73,25.16-5,6.07-8.89,13.13-15.38,17.95-7,5.19-14,9.72-22.92,11.8a109.38,109.38,0,0,1-20.76,2.6c-6.88.28-12.76-2.46-18.65-5.19A48.22,48.22,0,0,1,154.61-215a10.32,10.32,0,0,0-3.16-3.15c.23,1.13.49,2.25.69,3.39,1.79,10,3.82,20,5.25,30.05,1.07,7.52,1.3,15.16,2,22.74.65,7,1.4,14,2.16,20.93a49.18,49.18,0,0,0,1.18,7.27,4.2,4.2,0,0,0,2.3,2.23c7.64,3.24,15.29,6.5,21.31,12.46,1.86,1.84,3.2,4.21,4.91,6.22,2.41,2.84,4.54,6.12,7.5,8.23,6.3,4.47,11.31,10.16,15.94,16.13,4.4,5.67,8,11.93,12,17.94.21.33.39.82.69.94,4.32,1.61,5.89,5.94,8.64,9,5.1,5.72,5.6,13.39,3.86,20-1.8,6.87-2.16,13.89-3.93,20.67-2,7.73-4.18,15.46-9.1,22-4,5.29-7.88,10.65-12,15.8-.79,1-2.6,1.47-4,1.59-4.89.42-7.85,3.57-10.34,7.21-1.56,2.29-.93,3.16,1.85,3.73,7.6,1.56,14.89.34,22.21-1.92a13.16,13.16,0,0,1,7.75.33c4.37,1.55,6.69,4.93,5.53,9.8-1,4.17-3.41,7.55-7.67,8.64-6.87,1.77-13.84,3.22-20.83,4.46-3.57.64-7.29.4-10.92.8-4.33.47-7.57-1.47-10.69-4.1-2.18-1.83-4.64-3.31-6.82-5.13a41.48,41.48,0,0,1-4.34-4.45c-1.23-1.39-2.33-2.89-3.49-4.34-3.67,3-4.57,3-8.34.05-.86-.66-2.13-1-2.68-1.8-.67-1-1.39-2.62-1-3.55A38.29,38.29,0,0,1,177.79,9.82c2.79-1.62,3.34-4.24,4.65-6.59.43-.77.43-1.9,1-2.45,4.34-4.06,3.44-9.87,5.2-14.77a92.34,92.34,0,0,1,6-13.2,53.14,53.14,0,0,1,6.9-9.85c1.75-1.94,1.12-3.52.23-5a4.77,4.77,0,0,0-3.23-2.26c-9-.12-17.33-3.08-25.2-7-9.42-4.65-18.24-10.31-24-19.61A4.89,4.89,0,0,0,141.87-72c-6.26,5.68-13.77,7.45-21.86,7.78a2.81,2.81,0,0,0-.63.22c0,.25-.2.59-.09.78,2.78,5,2.66,10.69,3.62,16.1.64,3.59.87,7.25,1.23,10.88a3.49,3.49,0,0,1-.15,2.05c-1.88,2.85-.13,4.95,1.56,6.78a42.74,42.74,0,0,1,8.64,14.69A17,17,0,0,1,135-9c.28,2.47.18,4.87,3.85,5.16,1.07.09,2.5,2.41,2.82,3.91A65.94,65.94,0,0,1,142.88,11c.14,4,2.18,6.88,4.77,9.57,1.57,1.63,3.16,3.24,4.69,4.9s1.7,3.21.17,4.76c-2.71,2.75-5.39,5.55-8.33,8.05-2.73,2.32-4.82,2.18-7.34-.3-1.79-1.77-2.79-1.6-4,.57A33.9,33.9,0,0,1,111,55.1c-5,1.22-10.62.17-15.9-.36a17.39,17.39,0,0,1-9.77-3.83c-3.08-2.61-3.57-6.4-1-9.55,3.34-4,8-6,12.63-8a12.76,12.76,0,0,0,2.23-.79c2.74-2,7.45-2.23,6.94-7.32-.35-3.53.71-7-1.89-10.49C99,7.65,95.2-.19,96.28-9.47c.3-2.62-.44-4.31-3.21-5.08-3-.86-4.68-3-4.23-6.27.6-4.26-1.11-7.21-4.21-10.06a107.55,107.55,0,0,1-12.19-13c-5.67-7.3-8.52-15.92-10.34-25a52.24,52.24,0,0,1,2.45-30c4.3-10.85,9.83-21.27,21-27a22,22,0,0,1,12.38-2.35c2.26.23,3.1-.7,2.85-2.88-.77-6.77-1.5-13.54-2.31-20.31-.39-3.23-.83-6.46-1.47-9.64a5.73,5.73,0,0,0-1.79-2.73c-4.17-3.91-8.74-7.44-12.56-11.65a153.22,153.22,0,0,1-11.56-14.9c-6.32-9-12.45-18.16-14.86-29.14a39.27,39.27,0,0,1-.52-8.27c0-1.88-.35-2.88-2.48-3.54-7.06-2.2-13.46-5.61-18.27-11.49A3.62,3.62,0,0,0,33-243.85C22.14-246,13.66-252.6,5.4-259.35c-2.66-2.17-4.33-5.6-6.33-8.54a6,6,0,0,0-3.9-2.58c-9.08-2.52-18.25-.53-27.35-.89-4.27-.17-7.94-1-11.36-3.48-2.57-1.87-3.64-1.3-5.19,1.53a81.45,81.45,0,0,1-6.43,10.2c-4,5.17-9.45,6.08-15.47,4.61A4.12,4.12,0,0,1-74.15-263c.08-5,2.62-8.56,6.56-11.34,2.58-1.82,5.15-3.66,7.61-5.63.66-.53,1.43-1.92,1.18-2.36a4.12,4.12,0,0,0-2.6-2,9.6,9.6,0,0,0-8,2.59c-3.62,3.34-8.06,5.88-13.23,6a32.09,32.09,0,0,1-9.59-1.09c-3.15-1-3.66-3-1.93-5.84,1.43-2.34,3.27-4.44,4.93-6.64.47-.62,1-1.23,1.52-2A15.5,15.5,0,0,1-90.94-293c-1.4-1.23-3.4-2.6-3.64-4.15-.37-2.39,1.21-4.59,3.69-5.52,2.77-1,5.62-1.81,9.18-2.94l-4.33-.29c-2-.14-4.1-.36-4.64-2.83s1.16-6.5,3.46-6.71a64.87,64.87,0,0,1,14.4-.18c4.52.62,8.81,2.73,13.29,3.84a25.58,25.58,0,0,0,6.79.38,28.54,28.54,0,0,1,18.44,6.12,4.39,4.39,0,0,0,3.5.29A58.38,58.38,0,0,1-5.7-308.5c6,.56,12,.75,16.81,5.44,1.23,1.19,3.93.94,6,1.24,6.26.93,12.45,1.88,18.35,4.56s10.1,7.45,14.32,12.12c1.45,1.6,2.57,3.51,4,5.15a2.41,2.41,0,0,0,1.95.62,10.42,10.42,0,0,0,3.61-1.31c5.85-3.86,12.53-4.21,19.13-4.29,5.58-.07,11.17.68,17,1.08-1.78-3.69-3.71-7.72-5.82-12.09a21.78,21.78,0,0,0-11.31,5.44,10.8,10.8,0,0,1-8.09,3A31.18,31.18,0,0,1,53.59-292c-2.85-1.74-3.51-4.31-2.18-7.41,1.57-3.63,4.57-5.64,7.82-7.38,2.06-1.1,2.26-2.29.67-3.92a15.84,15.84,0,0,1-4.33-9.68c-.27-2.45.82-4.29,3.16-5.53a35.16,35.16,0,0,0,4.74-3.59l-.41-.6c-3.18,0-6.36.06-9.54,0-5.26-.12-7.59-4.1-4.76-8.39,3.52-5.34,7.32-10.49,11-15.76,3-4.36,6.64-8.47,6.5-14.27-.09-4-1.48-5.38-5.4-5.21-2.37.1-3.38-.86-4.23-3.12-3.85-10.25-8-20.39-12-30.61-1.81-4.71-3.4-9.5-4.92-14.3-.68-2.17.73-3.33,3-2.71A249.34,249.34,0,0,1,92.2-404.94c10,5.27,19.76,10.92,29.42,16.76,11.31,6.84,16.85,17.14,17,30.37a64,64,0,0,1-2,18.49c-1,3.37.32,7.39.63,11.11.09,1.08.45,2.14.51,3.22.6,10.66,1.14,21.33,1.76,32a22.68,22.68,0,0,0,.84,5.83,3.94,3.94,0,0,0,2.66,2c6.47,1.28,13.06,2,19.43,3.67,2.7.7,5,3,7.4,4.81,3.63,2.72,7,5.82,10.73,8.36A43.17,43.17,0,0,1,193.38-255c2.48,4,5.41,7.78,7.9,11.81C203.19-240.12,204.72-236.79,206.21-233.94Zm-95.21-22c2.87,3.7,5.51,6.42,7.32,9.61,2.48,4.39,6.86,6.34,10.7,8.64s8.35,3,12.67,4c1.46.34,3.29-.25,4.78-.84,1.91-.75,3.27-.35,3.71,1.52,1,4.56,2.24,9,5.39,12.64,3.51,4.11,6.69,8.5,10.28,12.53,2.6,2.91,5.91,4.87,9.44,6.76,5.68,3,11.28,5.26,17.79,5.88,10,1,19-2.71,28.33-4.92a6.7,6.7,0,0,0,1.65-.66c9.61-5.4,18-12.06,23.5-21.91a23.28,23.28,0,0,1,1.57-2.16c3-4.08,6.09-8,8.77-12.29,1.75-2.79,2.8-6,4.21-9,.88-1.88,1.78-3.76,2.81-5.56,1.82-3.18,4-5.95,8.23-5.69,1.48.09,3-.18,4.45,0,6.78,1,10.71-3.62,15-7.44a3,3,0,0,0,.83-2.15,51.38,51.38,0,0,0-.89-7.64c-.15-.72-1.7-1.79-2.28-1.62a3.67,3.67,0,0,0-2,2.34c-.33,1.31.21,2.84-.15,4.13a14.65,14.65,0,0,1-2.39,5.5c-2.6,3.09-8.86,3.94-12.54,2.13-2.25-1.11-3-3.94-2.65-6.47.57-4.34,1.41-8.81-1.36-12.9-2.12-3.13-1.79-6.13.61-8.89a62.62,62.62,0,0,0,4.45-5.56,2.87,2.87,0,0,0,.08-2.6,2.84,2.84,0,0,0-2.4-1.1,5.39,5.39,0,0,0-3.09,2c-2,3.4-3.79,6.9-3.33,11.16a88.63,88.63,0,0,1,.17,9.51c0,2.45-1.3,3-3.28,1.92-1.45-.8-2.66-2-4.11-2.82-2.95-1.58-4.77-3.77-4.74-7.25,0-4.57.09-9.13,0-13.69a8.64,8.64,0,0,0-1.07-2.69c-.9.68-2.47,1.27-2.57,2.05a52.35,52.35,0,0,0-.68,11.43c.34,3.57,1.93,7,2.61,10.55a4.4,4.4,0,0,1-1.28,3.57c-.5.42-2.4-.29-3.33-1a15,15,0,0,1-6.45-10.23,65.2,65.2,0,0,0-2-7.3l-.85.2a14.6,14.6,0,0,0-.34,1.94,24.25,24.25,0,0,0,6.87,18.06c3,3.14,4.37,6.62,3.69,10.75a6.93,6.93,0,0,1-2.54,3.87c-2.4,1.89-5.49,3-7.61,5.13-5.49,5.48-10.69,11.28-15.85,17.09a61.1,61.1,0,0,0-4.71,6.71c-.6.88-1.09,1.83-1.63,2.74a15.67,15.67,0,0,1-2.18-2.44c-.75-1.28-1.08-2.81-3.21-2.11-4.13,1.35-6.2.83-7.69-3.23-3.12-8.45-8.91-15.17-13.67-22.56-3.13-4.87-7.76-7.8-12.47-10.71a19.12,19.12,0,0,1-2.74-1.56c-3-2.71-5.94-5.47-8.81-8.31s-7.71-.54-10.38-3.92c-8.47-.91-17-2.79-25.07,1.89-1.38.8-2.79,1.55-4.26,2.35a24.12,24.12,0,0,0,1.71,2.39c.6.65,1.54,1.06,1.94,1.79a20.1,20.1,0,0,1,1.19,3.48,32.45,32.45,0,0,1-3.47.73,10.6,10.6,0,0,1-2-.34c-3.41-.35-3.71.22-2.68,3.48a25.11,25.11,0,0,1,.55,5.31c-1.59,0-3.18-.08-4.78-.1-.17,0-.34.16-.7.33C116.05-256.94,114.78-255.5,111-255.93Zm21.14-72.89a8.25,8.25,0,0,1-1.82.89,23,23,0,0,1-2.89.29,9.66,9.66,0,0,1,.32-3.13c1.46-3.22,3-6.4,4.75-9.5,3.69-6.73,2.78-14,2.68-21.21a9.54,9.54,0,0,0-.77-2.84c-.42-1.22-1-2.39-1.36-3.63-1.49-4.84-2.9-9.73-8.34-11.74-2.88-1.07-5.86-1.89-8.66-3.12-6-2.64-12.1-1.86-18.09-.78-7.57,1.36-15,3.28-22.5,5.18a67.74,67.74,0,0,0-7.75,3c.62,2.63,1.62,3.26,3.61,2.45a26.44,26.44,0,0,1,5.41-1.6c5.06-.85,10.18-2,15.2.08.87.36,1.4,1.58,2.08,2.4-.89.45-1.76,1.23-2.67,1.27-3.12.17-6.24.07-9.39.07.21,3,.24,2.93,2.29,3.48A72.28,72.28,0,0,1,91.3-365c3,1.15,3.52,3.73,1.07,5.71s-4.79,4.33-8.58,3.45a13.31,13.31,0,0,0-5.62,0c-3,.63-5-.89-6.88-2.58A14.27,14.27,0,0,1,69-361.88c-1.68,2.86-3.24,5.85-5.12,8.64-1.24,1.85-3.07,3.29-4.38,5.11-1.43,2-2.54,4.22-3.82,6.33-1.44,2.38-2.91,4.75-4.57,7.45,5.37,2.1,9.84.17,14.4-.86-.74-.39-1.58-.34-2.2-.68A36.21,36.21,0,0,1,60-338.17c1-1.13,1.79-2.85,3-3.27,2.32-.78,4.74-.49,6.13,2.16a23.07,23.07,0,0,0,1.79,2.71c1.28,1.8.79,2.93-1.42,3.13-.66.06-1.33,0-2,0-.23,2.06-1.3,4.57-.47,5.72,1.6,2.25,1.9,4,.61,6.47a6.63,6.63,0,0,0,1.88-2.08c1.32-2.15,3-2,4.26-.24a11.06,11.06,0,0,1,1.93,5.07c.22,2.5-.89,2.85-3.31,2.22a16.21,16.21,0,0,0-10.26.72c1.56.77,3.21.81,4.77,1.21a15.8,15.8,0,0,1,3.17,1.56l-2.78,2.54c-.9.83-1.87,1.59-2.7,2.49a41.39,41.39,0,0,1-3.13,3.67c-1.42,1.21-3.21,2-4.66,3.13-3,2.39-3,5.4.08,6.59a109.58,109.58,0,0,0,11.27,3.48,5.19,5.19,0,0,0,3.46-.26c2.68-1.41,5.13-3.25,7.8-4.69a48.13,48.13,0,0,1,7-3.09c9.13-3.19,18.36-6.12,27.42-9.52a7.3,7.3,0,0,0,3.65-4.51,29.06,29.06,0,0,0,.52-8.55c-.08-1.52-1-3-1.54-4.51l-1-.44c1.12-.73,2.28-2.07,3.33-2a3.75,3.75,0,0,1,2.47,2.71,95.9,95.9,0,0,1-.07,15,7.15,7.15,0,0,1-6.52,6.63A16.24,16.24,0,0,0,111.4-303c-4.62,1.71-9.19,3.56-13.86,5.07-3.18,1-4,1.93-2.73,5a15,15,0,0,0,2.63,4.2c2.2,2.54,2.21,7.87.44,10.16-3.6,4.66-6.85,9.59-10.21,14.44-.16.23,0,.71.09,1.76,3.78-2.48,7.17-4.68,10.54-6.92,3-2,5.7-4.4,8.88-5.87,5.64-2.6,11.53-4.66,17.34-6.89,3.52-1.35,7.14-2.48,10.6-4,.69-.3,1.23-1.87,1.19-2.83-.24-6.12-.84-12.23-1-18.36C135.15-314.42,135.26-321.64,132.14-328.82ZM-14-275.14a27.19,27.19,0,0,1,.37-5.6c.25-.93,1.63-1.57,2.5-2.34.58,1,1.64,2,1.66,3,.08,3.36,1.66,5.76,5,6.07A6.58,6.58,0,0,1,.8-271.18c1.08,1.52,2.12,3.08,3.17,4.62,2,3,4.21,5.83,7.71,7.49,2.41,1.14,4.44,3,6.7,4.52,4.39,2.88,8.5,6.17,14,7a12.76,12.76,0,0,1,6,3.31c4.37,3.89,9,7.28,14.58,9.17a47.63,47.63,0,0,1,5.89,1.9c1.73.86,2.76.41,3.27-1.11a43.4,43.4,0,0,0,1.74-6.84c1.19-7.23,1.17-14.71,5.69-21.13,3.95-5.62,7.62-11.29,14.47-13.94,2.4-.93,4.48-2.69,7.08-4.31-1-.45-1.51-.88-2-.87-6.43.11-12.91-.2-19.26.59-4.79.6-8.75,4.13-13.54,5.41-3,.81-5.36.11-6.48-2.87a14.41,14.41,0,0,0-2.27-4c-1.49-1.83-3.34-3.38-4.82-5.22-4.42-5.48-10.21-8.1-17.13-8.49-.58,0-1.52,0-1.68-.29-1.26-2.36-3.62-1.59-5.48-1.95-3.86-.75-7.93-.21-11.17-3.47s-8.13-3-12.34-3.43a39.92,39.92,0,0,0-20.63,2.65c-3.88,1.66-7.91,2.69-12.11-1-2.56-2.26-6.81-2.68-10.35-3.76-5.11-1.56-11.15,1.5-15.69-3.08a1.05,1.05,0,0,0-.55-.22c-2.91-.6-5.79-1.4-8.73-1.74a100.17,100.17,0,0,0-11.22-.61c-.7,0-1.39,1.3-2.09,2,.64.58,1.22,1.54,1.94,1.67,4.08.7,8.18,1.23,12.29,1.74,1.76.22,3.64-.06,5.31.43a3.84,3.84,0,0,1,2.26,2.52,3.08,3.08,0,0,1-1.85,2.42c-3.12.47-6.3.48-9.46.72q-5.42.42-10.83,1c-1.7.17-3,1.12-2.4,2.87a4,4,0,0,0,2.93,2,65.76,65.76,0,0,0,8.87-.25c2.46-.18,4.91-.72,7.36-.75.82,0,1.65,1.08,2.48,1.67-.63.74-1.1,1.82-1.9,2.18-6.13,2.74-12.36,5.25-18.44,8.07a3.8,3.8,0,0,0-1.81,3.12c.12.84,1.76,1.86,2.87,2.06,5.38,1,9.78-1.27,13.93-4.45,6.48-5,11.81-5.29,16.88-1.25,2,1.56,2.38,4.29.54,5.95-2.75,2.49-5.77,4.7-8.66,7-1.54,1.24-3.48,2.25-4.44,3.84-.86,1.42-.88,3.53-.74,5.29,0,.43,2.18.94,3.36,1,5.45.1,12.05-5.19,12.85-10.83.47-3.28,3-4.44,4.81-6.34s3.4-1.51,5.39.22,4.29,3.48,6.57,3.62C-29-274.86-21.59-275.14-14-275.14ZM81.47-230.7c2.37,4,4.25,7.92,8.85,7.07,2.73-.51,3.64-3.39,3.81-6.1.15-2.36-.2-4.57-2.94-5.51a10.55,10.55,0,0,0,1.17,3.07c1,2,0,5.45-1.89,6.6-2.22,1.31-3.76-.22-4.71-1.76a42.65,42.65,0,0,1-2.64-6.37c-.15-.37-.34-.73-.8-1.69-.48,1.69-.78,2.76-1.1,3.9-3.1-2.8-6.62-4.06-8.46-3.1-2.08,1.08-3.05,5.27-2.22,9.28C71-223,73-223,74.65-222.6,80.91-221.21,80.48-226.35,81.47-230.7Zm19.83-3.67c-2.43.26-4.43,3.48-4.36,7.29a3.21,3.21,0,0,0,1.84,2.37c3.08.91,5.73.15,6.42-1.6a19.66,19.66,0,0,1-2.58.74c-3.51.52-4.85-1.14-3.53-4.44C99.66-231.44,100.48-232.78,101.3-234.37Zm14.81-2.18c-.22,2,.08,3.86-.7,5-.64.94-2.55,1-3.89,1.47,3.73-.56,4.51,1.86,5.14,4.71a55.67,55.67,0,0,0,2,5.84l.79-.25Zm-7.87,1.5c-1.68,4.73-.43,9,2.14,13,.27.42,1.25.39,1.9.56,0-.86.21-1.88-.16-2.56-.84-1.53-2.37-2.77-2.9-4.37C108.53-230.51,108.53-232.83,108.24-235Zm-44.8-89.79c-.86,1-1.66,1.54-1.9,2.29-.11.33,1.09,1.56,1.41,1.46a9.57,9.57,0,0,0,2.39-1.61Zm60.87,99.5.54,0v-7.91l-.54,0Zm.34,9.57c2.08-1.31,2-2.64,1.08-4l-1.08,0Z"/></g></g></svg>