<svg id="Layer_1" data-name="Layer 1" xmlns="http://www.w3.org/2000/svg" viewBox="0 0 200 200"><g id="ohqmEy.tif"><path d="M98.86,192c-50.74.13-92.24-40.94-92.4-91.44C6.3,49.07,47.11,7.61,98.1,7.47A92.27,92.27,0,1,1,98.86,192ZM83.25,132.06,74.37,148c12.17,5.93,24.09,7.32,36.43,4.34,1.36-.33,2.74-2.24,3.36-3.72,3.45-8.21,10.58-12.3,19.35-11,1.38.2,3.41.18,4.21-.65,9.07-9.33,14-20.51,14.94-34.49-4.9,0-9.36.14-13.82,0-3.12-.13-4.48.71-5.23,4.13-3.25,14.85-12.43,24.33-27.27,27.94C98.58,136.4,91,135.18,83.25,132.06ZM74.37,51.41c2.74,4.94,5,9.36,7.65,13.53a4.36,4.36,0,0,0,3.91,1.34C109.17,58.11,130.87,73.48,134,94c.16,1,1.47,2.69,2.3,2.73,5.34.24,10.71.12,16.41.12-1-13.85-5.88-25-14.78-34.24a4.87,4.87,0,0,0-3.67-1c-10.45,1.29-16.06-2-20.45-11.89a4.94,4.94,0,0,0-2.73-2.61C98.56,44,86.55,45.57,74.37,51.41Zm-5.29,3.1C57.91,62.06,50.64,71.76,47,84.11a5.28,5.28,0,0,0,1.12,4c6.11,7.85,6.1,15.36-.06,23.3-.75,1-1.49,2.56-1.2,3.56,3.65,12.5,11,22.32,22.18,30,3.23-5.4,6.23-10.39,9.38-15.66-9.8-7.63-15.28-17.22-15.3-29.63s5.71-21.9,15.25-29.54ZM48.5,99.9A12.75,12.75,0,0,0,23,99.3a13,13,0,0,0,12.69,13.29A13,13,0,0,0,48.5,99.9Zm81.55,67a12.48,12.48,0,0,0,12.8-12.45,12.67,12.67,0,0,0-12.32-13,12.91,12.91,0,0,0-13.16,12.75A12.76,12.76,0,0,0,130.05,166.91Zm.15-134.5a12.77,12.77,0,1,0,.18,25.53,12.77,12.77,0,0,0-.18-25.53Z"/></g></svg>