<svg id="Layer_1" data-name="Layer 1" xmlns="http://www.w3.org/2000/svg" xmlns:xlink="http://www.w3.org/1999/xlink" viewBox="0 0 200 200"><defs><style>.cls-1{fill:none;}.cls-2{clip-path:url(#clip-path);}</style><clipPath id="clip-path"><rect class="cls-1" x="-222" y="230" width="178" height="178"/></clipPath></defs><g class="cls-2"><g id="vurX8n"><path d="M36.36,219.85c.75-13.63,4.94-25.7,14-36.79H31.64c-3.52,0-4.68-1.58-3.59-5A1.91,1.91,0,0,1,29.44,177c9.39-.07,18.77,0,28.24,0,.5,3.4.48,6.14-1.87,8.8-7.55,8.51-10.45,19-11.47,30-.48,5.11-.5,4.27-4.85,4.33C38.53,220,37.56,219.92,36.36,219.85Z"/><path d="M5.33,184.14A45.69,45.69,0,0,1-1.28,184a2.9,2.9,0,0,1-1.79-2.21c0-1.23.67-3.41,1.31-3.51,4.76-.74,9.58-1.05,14.67-1.53.1,1.32.24,2.27.24,3.23,0,12.28-.13,24.55.09,36.83.07,3.77-2.11,3.08-4.35,3.22-2.52.17-3.7-.35-3.63-3.32.19-9.6.07-19.2.07-28.8Z"/></g></g><g id="fbcdTC"><path d="M103.12,109.62v-37c0-2.29.11-2.4,2.33-2.42s4.47,0,6.71,0c1.31,0,1.9.44,1.9,1.86q0,26.75,0,53.49c0,1.37-.5,1.92-1.86,1.9-2.74,0-5.48-.06-8.21,0a2.8,2.8,0,0,1-2.79-1.66q-10.36-18.3-20.85-36.54a8.8,8.8,0,0,0-1.9-2.42c0,.76-.13,1.51-.13,2.27q0,17.43,0,34.87c0,3.46,0,3.46-3.55,3.46-1.9,0-3.8,0-5.7,0-1.25,0-1.81-.46-1.81-1.78q0-26.83,0-53.66c0-1.3.51-1.82,1.78-1.8,3.08,0,6.15,0,9.23,0a2.67,2.67,0,0,1,2.61,1.65Q91.2,90,101.61,108.22c.32.55.68,1.07,1,1.6Z"/><path d="M55.68,91.6c0,6,.15,12.08,0,18.11-.31,10.44-6.58,17.32-17,18.8-5.76.83-11.48.75-17-1.35-7.06-2.68-11-7.79-11.79-15.28A57.14,57.14,0,0,1,9.57,106q0-16.77,0-33.55c0-2.15.13-2.28,2.28-2.3q3.6,0,7.21,0c2.34,0,2.49.15,2.49,2.46,0,11.13,0,22.26,0,33.38a23.39,23.39,0,0,0,.34,4.51c1.23,6.4,6.26,9.6,13,8.36,6.13-1.13,8.83-4.35,8.85-10.86.05-11.74,0-23.48,0-35.22,0-2.57,0-2.62,2.63-2.63,2.35,0,4.7,0,7.05,0,2.12,0,2.33.21,2.33,2.3,0,6.37,0,12.75,0,19.12Z"/><path d="M144.75,70.36c1.06-.08,1.7-.17,2.35-.18,3,0,5.93.13,8.89-.05,2-.12,3.11.69,4,2.44,2.48,4.76,5.12,9.43,7.71,14.12.31.57.68,1.1,1.18,1.89.48-.75.83-1.24,1.12-1.75,2.82-5,5.67-9.89,8.4-14.89a3,3,0,0,1,3.05-1.79c3.08.09,6.15,0,9.22,0,.59,0,1.18.09,2.08.18-.43.77-.69,1.3-1,1.79-5,7.89-9.92,15.8-15,23.63a3,3,0,0,0,.06,3.86c5.52,8.68,11,17.41,16.41,26.12.23.37.42.77.77,1.4a12.7,12.7,0,0,1-1.71.23c-3.57,0-7.15,0-10.73,0a2.65,2.65,0,0,1-2.61-1.64c-2.95-5.39-6-10.74-9-16.11-.29-.51-.62-1-1.09-1.75-.61.94-1.08,1.6-1.49,2.3-3,5.15-6.11,10.28-9.09,15.46a3.08,3.08,0,0,1-3.09,1.75c-3.13-.09-6.26,0-9.39,0-.59,0-1.17-.1-2.09-.2.52-.89.85-1.51,1.22-2.1,5.28-8.37,10.53-16.75,15.87-25.07a2.94,2.94,0,0,0,0-3.73c-5-7.81-9.86-15.7-14.77-23.57C145.71,72.08,145.34,71.4,144.75,70.36Z"/><path d="M136.83,99V125.3c0,2.22-.05,2.27-2.24,2.28-2.63,0-5.26,0-7.88,0-1.31,0-1.76-.5-1.76-1.79q0-26.89,0-53.8c0-1.44.62-1.84,1.91-1.83,2.69,0,5.37,0,8,0,1.44,0,2,.56,1.94,2C136.81,81.11,136.83,90.05,136.83,99Z"/></g></svg>