<svg id="Layer_1" data-name="Layer 1" xmlns="http://www.w3.org/2000/svg" viewBox="0 0 200 200"><defs><style>.cls-1{fill:#fff;}</style></defs><g id="jxEbZA.tif"><path d="M200,77.29v7.94l-.74,0H80.73v8.14H200v7.94h-.17l-119.67,0h-78c-.3,0-.59,0-.94,0V46.07c0-.35,0-.71,0-1.07H200v8c-.44,0-.88,0-1.32,0H80.74v8.12H199c.33,0,.66,0,1-.06v8.11c-.27,0-.55,0-.82,0H81.63c-.29,0-.59,0-.92,0v8.1h118C199.12,77.26,199.56,77.28,200,77.29ZM76.94,94.84l0-.19c-.48,0-1,0-1.45,0a.71.71,0,0,1-.86-.63c-.12-.46-.31-.89-.46-1.34A3.25,3.25,0,0,0,73.56,94c-.12.54-.38.79-1,.72a10.72,10.72,0,0,0-1.39,0,2.49,2.49,0,0,0,.9.9A.94.94,0,0,1,72.58,97a10,10,0,0,0-.42,1.41L74.08,97l.88.62c.28.2.57.38,1,.65-.22-.82-.66-1.56-.48-2.1S76.43,95.28,76.94,94.84Zm-13.06,0-.22-.23a9.92,9.92,0,0,0-1.22,0,.87.87,0,0,1-1.14-.81,6.2,6.2,0,0,0-.42-1.16l-.25-.13c0,2-1.13,2.31-2.63,2.14a2.21,2.21,0,0,0-.1.21c1.61.61,1.93,1.75.92,3.31h.27L60.82,97l1.72,1.22.27,0C61.78,96.63,62.13,95.53,63.88,94.88ZM49.47,98.35A10.39,10.39,0,0,0,49,96.91a.88.88,0,0,1,.41-1.3,9.8,9.8,0,0,0,1-.8,3.22,3.22,0,0,0-1.33-.15c-.63.08-1-.12-1.09-.77a8.81,8.81,0,0,0-.41-1.19A3.2,3.2,0,0,0,47,94a.73.73,0,0,1-.93.65c-.47,0-.94,0-1.42,0a2.55,2.55,0,0,0,1,.93.91.91,0,0,1,.43,1.36,11.44,11.44,0,0,0-.43,1.44L47.57,97l.86.62ZM36,98.22l.13-.12a9.36,9.36,0,0,0-.37-1.17.91.91,0,0,1,.45-1.35,7.14,7.14,0,0,0,1-.76,3.67,3.67,0,0,0-1.47-.16.74.74,0,0,1-.92-.67c-.1-.43-.28-.86-.42-1.28-.41.6-.45,1.44-.88,1.74s-1.3.18-2,.23c0,0-.07.07-.22.22,1.68.62,2,1.77,1,3.34h.28L34.31,97Zm-14.8-5.67-.26.17c-.08.2-.17.39-.24.59-.46,1.33-.46,1.33-1.81,1.35-.25,0-.5,0-1,0a7.42,7.42,0,0,0,1.05.78c.76.38.83.92.51,1.63a8.52,8.52,0,0,0-.33,1l.16.08L21.07,97,23,98.37c-.21-.69-.3-1.14-.48-1.56a.8.8,0,0,1,.39-1.16c.38-.22.72-.52,1.08-.78-.09-.13-.1-.17-.11-.17C22.34,94.88,21.21,94.54,21.23,92.55ZM7.79,97l1.94,1.36c-.21-.68-.31-1.13-.48-1.55a.8.8,0,0,1,.37-1.16c.39-.23.73-.53,1.1-.8l-.07-.21c-.48,0-1,0-1.44,0a.71.71,0,0,1-.88-.61c-.11-.46-.3-.9-.45-1.35A3.26,3.26,0,0,0,7.26,94a.73.73,0,0,1-.93.65c-.46,0-.94,0-1.41,0a2.65,2.65,0,0,0,1,.94A.91.91,0,0,1,6.3,97a11.83,11.83,0,0,0-.42,1.4l1-.69Zm62.55-7.77L70.28,89c-.43,0-.86,0-1.29,0a.81.81,0,0,1-1-.73,9.14,9.14,0,0,0-.44-1.24l-.24-.12c0,1.88-1,2.34-2.56,2.11,0,0-.08.06-.24.21,1.66.64,2,1.77,1,3.33h.28l1.73-1.22,1.72,1.21A2.13,2.13,0,0,0,69,91.48c-.32-.71-.25-1.24.51-1.61A5,5,0,0,0,70.34,89.24Zm-13.23,0L57,89c-.47,0-.94,0-1.4,0a.7.7,0,0,1-.88-.62c-.11-.46-.3-.9-.45-1.34a3.1,3.1,0,0,0-.62,1.3.74.74,0,0,1-.93.66c-.47,0-.94,0-1.41,0a3.32,3.32,0,0,0,1.09,1,.75.75,0,0,1,.34,1.1c-.18.43-.28.9-.48,1.58l1.92-1.36,1.92,1.34c-.2-.66-.29-1.11-.47-1.53A.78.78,0,0,1,56,90,12,12,0,0,0,57.11,89.24Zm-19.24-.12a13.84,13.84,0,0,0,1.29.94.74.74,0,0,1,.33,1.09c-.18.44-.27.91-.48,1.59l1.92-1.36,2,1.36a9.65,9.65,0,0,0-.4-1.22c-.35-.74-.26-1.29.53-1.67a4.75,4.75,0,0,0,.84-.67v-.25c-1.73.54-2.57-.19-2.81-1.76,0,0-.09,0-.23-.1-.14.43-.32.86-.42,1.3a.75.75,0,0,1-.92.67A12.51,12.51,0,0,0,37.87,89.12ZM24.76,89l0,.25c.52.43,1.33.77,1.49,1.3s-.26,1.33-.49,2.21l1.89-1.33,1.73,1.21a3.52,3.52,0,0,0-.3-1.44.75.75,0,0,1,.35-1.09,13.45,13.45,0,0,0,1.13-.86A3.49,3.49,0,0,0,29.13,89a.75.75,0,0,1-.93-.66,12,12,0,0,0-.46-1.31L27.5,87C27.45,88.83,26.48,89.41,24.76,89Zm-10.16-2a3.52,3.52,0,0,0-.33.3c-.06.15-.12.31-.17.47C13.64,89,13.64,89,12.29,89c-.25,0-.49,0-1,.06a14.82,14.82,0,0,0,1.2.88A.85.85,0,0,1,13,91.25a10,10,0,0,0-.43,1.47l1.9-1.34,1.73,1.2a4.06,4.06,0,0,0-.31-1.48.72.72,0,0,1,.34-1,14.15,14.15,0,0,0,1.15-.84c-.08-.12-.09-.17-.1-.17C15.71,89.25,14.58,88.89,14.6,86.91ZM50.46,72.28c-1.64.26-2.55-.39-2.78-2,0,0-.09,0-.22-.1-.14.41-.31.8-.41,1.21-.13.57-.4.84-1,.76a12.76,12.76,0,0,0-1.54,0c.29.27.4.38.53.48,1.27,1,1.27,1,.83,2.47-.05.17-.07.35-.14.7l1.86-1.3,1.89,1.32c-.24-.87-.7-1.62-.52-2.15S49.93,72.73,50.46,72.28Zm-1,14.81A15,15,0,0,0,49,85.55a.8.8,0,0,1,.37-1.16,10,10,0,0,0,1.1-.84A3.78,3.78,0,0,0,49,83.4c-.55.06-.79-.18-.9-.68s-.28-.86-.42-1.28a1.43,1.43,0,0,0-.48.81c-.15.89-.59,1.34-1.56,1.15a7.27,7.27,0,0,0-1.18,0c.74.6,1.54.93,1.71,1.46s-.25,1.34-.46,2.18l1.88-1.27Zm-35-7,.84.6.86.61a3.69,3.69,0,0,0-.29-1.48.73.73,0,0,1,.33-1c.41-.24.78-.56,1.17-.84l-.06-.21c-.48,0-1,0-1.45,0a.71.71,0,0,1-.87-.63,14.16,14.16,0,0,0-.46-1.34,3.37,3.37,0,0,0-.61,1.31.74.74,0,0,1-.93.66,13.26,13.26,0,0,0-1.41,0l-.19.23c1.84.6,1.92,1.76,1.25,3.17,0,0,0,0,.09.16Zm59.65,5.64c.31.21.57.41.84.6l1.07.73c-.2-.66-.29-1.11-.47-1.53a.78.78,0,0,1,.37-1.15A12.57,12.57,0,0,0,77,83.55a3.78,3.78,0,0,0-1.49-.15.73.73,0,0,1-.91-.67c-.1-.44-.28-.86-.42-1.29-.41.6-.46,1.44-.88,1.75s-1.3.17-2,.23c0,0-.08.06-.17.14.54.42,1.34.76,1.51,1.29s-.25,1.33-.45,2.19ZM57.89,83.58a12,12,0,0,0,1.15.84.75.75,0,0,1,.34,1.1A11.41,11.41,0,0,0,59,86.85l.16.08,1.69-1.18.89.63,1,.69c-.22-.7-.32-1.15-.5-1.57a.76.76,0,0,1,.36-1.09c.4-.24.75-.56,1.29-1-.48,0-.72,0-1,0-1.36,0-1.36,0-1.78-1.27-.08-.24-.18-.46-.36-.9-.3.85-.35,1.71-.78,2s-1.32.16-2,.2C58,83.43,58,83.47,57.89,83.58Zm-26.64-.1a9.63,9.63,0,0,0,1,.73,1.06,1.06,0,0,1,.54,1.6,7,7,0,0,0-.33,1l.15.1,1.7-1.2L36.18,87c-.1-.43-.15-.67-.22-.89-.41-1.32-.41-1.32.72-2.15.19-.14.35-.3.53-.45l.13-.31c-1.86.66-2.66-.15-2.92-1.71a.57.57,0,0,0-.19-.07c-.24.62-.32,1.48-.77,1.8S32.15,83.42,31.25,83.48ZM9.5,75.66l.14-.12a10.49,10.49,0,0,0-.42-1.31.75.75,0,0,1,.37-1.08c.4-.25.75-.57,1.13-.86a3.25,3.25,0,0,0-1.38-.15.83.83,0,0,1-1-.74,13.63,13.63,0,0,0-.52-1.47,15.21,15.21,0,0,0-.5,1.49c-.12.55-.39.79-1,.72a10.75,10.75,0,0,0-1.39,0,1.42,1.42,0,0,0,.5.6c1.13.83,1.13.83.72,2.15-.08.23-.12.47-.24.92l1.9-1.31Zm13.27,0h.28c-1.06-1.53-.61-2.57.83-3.29,0,0,0-.09.05-.29-1.65.48-2.53-.22-2.77-1.81,0,0-.09,0-.22-.1a13.08,13.08,0,0,0-.42,1.3.75.75,0,0,1-.93.67,13.41,13.41,0,0,0-1.42,0,2.71,2.71,0,0,0,.95.91.89.89,0,0,1,.45,1.34,11.44,11.44,0,0,0-.44,1.45l1.92-1.35Zm8.49-3.44a14.3,14.3,0,0,0,1.27.92.75.75,0,0,1,.34,1.09c-.18.43-.28.9-.42,1.34l.16.09,1.7-1.19L36,75.68a3.56,3.56,0,0,0-.28-1.44.75.75,0,0,1,.35-1.09c.4-.25.76-.57,1.14-.85a3.26,3.26,0,0,0-1.45-.16c-.59.07-.83-.19-1-.73s-.29-.83-.5-1.43c-.34.84-.42,1.69-.88,2S32.14,72.17,31.26,72.23ZM23,87.07a9.13,9.13,0,0,0-.39-1.23,1.06,1.06,0,0,1,.51-1.61,6.12,6.12,0,0,0,.88-.66l.06-.26c-1.74.51-2.63-.18-2.87-1.78,0,0-.09,0-.22-.09a13.08,13.08,0,0,0-.42,1.3.75.75,0,0,1-.93.66,13.43,13.43,0,0,0-1.42,0,2.07,2.07,0,0,0,.82.82,1.05,1.05,0,0,1,.53,1.6,8.42,8.42,0,0,0-.33,1l.16.1,1.7-1.2Zm35-14.9s0,.12,0,.15A6,6,0,0,1,59,75.71l1.79-1.22,1.9,1.32a14.13,14.13,0,0,0-.46-1.53.78.78,0,0,1,.36-1.15,11.26,11.26,0,0,0,1.11-.85,4,4,0,0,0-1.49-.14c-.55.06-.79-.18-.91-.68a12.12,12.12,0,0,0-.42-1.29c-.41.63-.48,1.49-.93,1.81S58.68,72.13,58,72.17Zm13.25,0-.23.14c1.75.67,2.08,1.8,1.06,3.37h.28l1.74-1.2.84.6,1.06.74a15,15,0,0,0-.47-1.54.79.79,0,0,1,.37-1.15,10.07,10.07,0,0,0,1.1-.85,3.89,3.89,0,0,0-1.48-.14c-.56.06-.79-.19-.91-.69s-.28-.85-.42-1.28c-.42.63-.49,1.5-.94,1.82S71.93,72.13,71.24,72.18ZM4.87,83.58a12.6,12.6,0,0,0,1.09.8.82.82,0,0,1,.37,1.22,10.77,10.77,0,0,0-.43,1.48l1.89-1.32,1.93,1.31a13.53,13.53,0,0,0-.5-1.57.76.76,0,0,1,.37-1.09c.4-.25.75-.57,1.13-.85a2.78,2.78,0,0,0-1.3-.16c-.66.08-1-.13-1.14-.81a7.4,7.4,0,0,0-.41-1.17l-.26-.13c0,2-1.1,2.33-2.62,2.14A1.42,1.42,0,0,0,4.87,83.58ZM30.6,78l-.07-.2a14,14,0,0,0-1.45,0c-.51,0-.74-.17-.87-.64s-.3-.89-.53-1.53c-.17.45-.27.66-.35.89-.42,1.26-.42,1.26-1.79,1.27-.24,0-.49,0-.73,0l-.19.19c1.89.58,1.88,1.77,1.25,3.16a1.23,1.23,0,0,0,.08.15l1.74-1.19,1.93,1.33c-.23-.7-.35-1.17-.52-1.62a.71.71,0,0,1,.34-1C29.84,78.56,30.21,78.25,30.6,78Zm7.31-.1a6.6,6.6,0,0,0,1,.74c.77.37.83.9.51,1.61a8.48,8.48,0,0,0-.32,1l.17.07,1.68-1.17,1.92,1.3a14.77,14.77,0,0,0-.46-1.49.78.78,0,0,1,.35-1.16,11.49,11.49,0,0,0,1.1-.85l0-.26c-1.75.56-2.56-.2-2.81-1.76a.77.77,0,0,0-.19-.08c-.24.63-.32,1.48-.78,1.81S38.78,77.8,37.91,77.86Zm18,3.44.13-.13a4.81,4.81,0,0,0-.26-.84,1.16,1.16,0,0,1,.56-1.8,5.66,5.66,0,0,0,.78-.61v-.26c-1.73.55-2.57-.18-2.81-1.75,0,0-.09,0-.23-.11-.14.44-.32.86-.42,1.3a.74.74,0,0,1-.92.67,13.45,13.45,0,0,0-1.42,0,3.29,3.29,0,0,0,1.09,1,.75.75,0,0,1,.34,1.1c-.18.42-.27.88-.48,1.56l1.93-1.33Zm13.2,0,.21-.06c-.15-.46-.27-.93-.45-1.38a.72.72,0,0,1,.34-1c.41-.25.78-.56,1.17-.85l-.07-.2c-.49,0-1,0-1.45,0a.72.72,0,0,1-.87-.63,12.45,12.45,0,0,0-.46-1.34A2.53,2.53,0,0,0,67,77c-.12.69-.5.89-1.15.81a10.1,10.1,0,0,0-1.23,0c.5.61,1.29.93,1.46,1.45s-.25,1.29-.4,2c0,0,0,0,.08.15l1.74-1.19ZM16.35,69.93c-1-1.46-.58-2.57,1-3.34-.77-.11-1.59.13-2-.18s-.57-1.16-.84-1.77c0,0-.09,0-.22-.1a11.5,11.5,0,0,0-.41,1.21.81.81,0,0,1-1,.76,9.84,9.84,0,0,0-1.33,0,3.37,3.37,0,0,0,1.07,1A.74.74,0,0,1,13,68.59c-.18.44-.29.91-.43,1.36l.11.28c1.15-1.62,2.3-1.31,3.45-.25C16.13,70,16.17,70,16.35,69.93ZM76,64.47c-.22-.8-.68-1.55-.5-2.08s1-.92,1.72-1.54c-.88,0-1.69.23-2.13-.07s-.57-1.16-.84-1.77c0,0-.09,0-.21-.1a8.35,8.35,0,0,0-.4,1.12c-.13.64-.42,1-1.12.85a9.93,9.93,0,0,0-1.48,0c.3.27.41.38.54.48,1.28,1,1.27,1,.84,2.47a6.65,6.65,0,0,0-.15.67c.69-.46,1.26-1.14,1.82-1.13S75.22,64,76,64.47ZM29.59,70.14a12.32,12.32,0,0,0-.45-1.45.82.82,0,0,1,.38-1.22,8.35,8.35,0,0,0,1.07-.81,3.18,3.18,0,0,0-1.37-.15.81.81,0,0,1-1-.74,13,13,0,0,0-.51-1.44c-.18.45-.27.67-.35.9-.42,1.26-.42,1.26-1.78,1.27-.25,0-.5,0-1,0a6.26,6.26,0,0,0,.92.68,1.19,1.19,0,0,1,.58,1.86,4.79,4.79,0,0,0-.27.86l.14.28C27.11,68.53,28.26,69,29.59,70.14Zm35-3.59-.35.17c2,.55,2,1.73,1.35,3.13,0,0,0,.09.12.27,1.07-1.35,2.19-1.35,3.33-.15,0,0,.09,0,.22,0a7.46,7.46,0,0,0-.32-1,1.05,1.05,0,0,1,.51-1.61,5.46,5.46,0,0,0,.87-.67,3.61,3.61,0,0,0-1.46-.15.75.75,0,0,1-.93-.67,15.78,15.78,0,0,0-.53-1.51c-.32.85-.37,1.71-.81,2S65.31,66.5,64.63,66.55Zm-13.26,0-.24.14c1.75.67,2.08,1.8,1.17,3.44,1.3-1.4,2.47-1.42,3.69,0A3.31,3.31,0,0,0,55.74,69a1.07,1.07,0,0,1,.52-1.66,6.51,6.51,0,0,0,1-.81c-.71,0-1.15,0-1.59,0s-.87-.11-1-.69a11.22,11.22,0,0,0-.41-1.28c-.42.63-.49,1.49-.94,1.81S52.05,66.5,51.37,66.55Zm12.49-5.69c-.66,0-1.13,0-1.59,0a.74.74,0,0,1-.92-.66c-.11-.45-.31-.88-.55-1.55-.23.68-.41,1.08-.5,1.5s-.39.79-1,.71a12.89,12.89,0,0,0-1.39,0,2.84,2.84,0,0,0,1,.93.86.86,0,0,1,.43,1.28,9.52,9.52,0,0,0-.43,1.48,15.65,15.65,0,0,0,1.34-1,.75.75,0,0,1,1.14,0,12.35,12.35,0,0,0,1.3.9c-.23-.86-.67-1.6-.49-2.15S63.17,61.45,63.86,60.86Zm-13.25.22-.2-.22a9.92,9.92,0,0,0-1.22,0c-.65.09-1-.12-1.14-.81a9,9,0,0,0-.48-1.35c-.17.41-.27.61-.34.81-.46,1.34-.45,1.33-1.81,1.35-.25,0-.5,0-1,0,.57.43.93.74,1.33,1A.74.74,0,0,1,46.12,63c-.18.43-.27.89-.41,1.34A3.89,3.89,0,0,0,47,63.59a.73.73,0,0,1,1.13,0,13.36,13.36,0,0,0,1.16.81l.26,0C48.5,62.81,48.89,61.72,50.61,61.08Zm-19.38-.15a15,15,0,0,0,1.3,1,.75.75,0,0,1,.34,1.1,12.21,12.21,0,0,0-.41,1.34,3.27,3.27,0,0,0,1.21-.68.82.82,0,0,1,1.27,0,9.26,9.26,0,0,0,1.08.78,3,3,0,0,0-.25-1.36.81.81,0,0,1,.38-1.22,12.42,12.42,0,0,0,1.21-.9,5.6,5.6,0,0,0-.59-.06c-1.66,0-1.66,0-2.23-1.58a2.32,2.32,0,0,0-.21-.38l-.21-.17C34.17,60.78,32.94,61,31.23,60.93Zm-10.07-2-.22,0a9.73,9.73,0,0,0-.39,1.15.82.82,0,0,1-1.07.79,11.43,11.43,0,0,0-1.31,0l-.29.28c2.13.49,1.94,1.73,1.36,3.11,0,0,0,0,.09.18a8.77,8.77,0,0,0,1-.75.89.89,0,0,1,1.41,0,11.32,11.32,0,0,0,1.21.84c-.22-.7-.32-1.15-.5-1.57a.76.76,0,0,1,.37-1.09c.39-.25.75-.56,1.12-.85a3.65,3.65,0,0,0-1.47-.15.74.74,0,0,1-.92-.66C21.48,59.77,21.3,59.34,21.16,58.91ZM7.9,58.9l-.25-.16c-.08,1.84-1,2.44-2.61,2.15,0,0-.07.06-.23.21,1.78.56,1.82,1.76,1.18,3.17,0,0,0,0,.11.21,1.1-1.38,2.28-1.4,3.49,0A5.51,5.51,0,0,0,9.24,63a.79.79,0,0,1,.37-1.15c.39-.24.73-.56,1.1-.84a3.53,3.53,0,0,0-1.4-.15c-.56.06-.88-.11-1-.69A12.74,12.74,0,0,0,7.9,58.9Zm61.22,0,.19-.21a6.24,6.24,0,0,0-.32-1c-.35-.74-.26-1.29.53-1.67a5.18,5.18,0,0,0,.85-.65A3.6,3.6,0,0,0,69,55.24c-.56.06-.87-.11-1-.68a12.12,12.12,0,0,0-.42-1.29c-.41.61-.46,1.45-.88,1.75s-1.3.18-2,.24c0,0-.07.06-.24.2,1.77.58,1.83,1.77,1.18,3.18,0,0,0,0,.1.2C66.83,57.59,68,57.34,69.12,58.9ZM56,58.93l.08-.24a11.66,11.66,0,0,0-.4-1.31A.79.79,0,0,1,56,56.23a14.17,14.17,0,0,0,1.29-1c-.75,0-1.21,0-1.68,0a.7.7,0,0,1-.88-.61,13.46,13.46,0,0,0-.44-1.36l-.24-.16c-.09,1.82-1,2.45-2.61,2.15,0,0-.07.06-.16.15a12.19,12.19,0,0,0,1.11.82.76.76,0,0,1,.38,1.08,10.56,10.56,0,0,0-.38,1.33s0,0,.1.21C53.6,57.46,54.78,57.45,56,58.93ZM41,53.27l-.24-.16c-.08,1.83-1,2.44-2.61,2.15,0,0-.07.07-.15.15a6.35,6.35,0,0,0,.84.63,1,1,0,0,1,.54,1.59,7.39,7.39,0,0,0-.33,1.07l.09.24c1.17-1.48,2.35-1.49,3.65-.08-.91-1.64-.57-2.77,1.09-3.52a5.74,5.74,0,0,0-1.56-.1.7.7,0,0,1-.87-.61C41.37,54.16,41.18,53.72,41,53.27Zm-13.16-.15-.26.13a8.49,8.49,0,0,0-.42,1.16c-.13.64-.43.94-1.12.84a7.56,7.56,0,0,0-1.26,0,3.4,3.4,0,0,0,1.08,1,.76.76,0,0,1,.36,1.09,12.64,12.64,0,0,0-.43,1.36l.11.27c1.15-1.62,2.3-1.3,3.45-.25,0,0,.05,0,.22-.05-1-1.46-.6-2.57,1-3.2a1.68,1.68,0,0,0-.14-.18C29,55.47,27.84,55.1,27.87,53.12Zm-13.25,0-.26.13a8.55,8.55,0,0,0-.43,1.16c-.13.64-.42.94-1.12.84a7.56,7.56,0,0,0-1.26,0,3.5,3.5,0,0,0,1.08,1A.75.75,0,0,1,13,57.33a10.69,10.69,0,0,0-.42,1.36l.1.27c1.15-1.62,2.3-1.3,3.46-.25,0,0,0,0,.22-.05-1-1.46-.6-2.57,1-3.2-.1-.14-.12-.18-.13-.18C15.7,55.47,14.58,55.1,14.62,53.12ZM41.05,64.55h-.2c-.08.2-.18.39-.25.59-.45,1.34-.45,1.34-1.8,1.35-.25,0-.49,0-.94,0a6.67,6.67,0,0,0,.84.64,1.25,1.25,0,0,1,.61,2,3.28,3.28,0,0,0-.22.79,3.85,3.85,0,0,0,1.28-.74.75.75,0,0,1,1.14,0c.35.31.76.55,1.14.83a3,3,0,0,0-.25-1.36.82.82,0,0,1,.38-1.22,10.25,10.25,0,0,0,1.06-.81,3.54,3.54,0,0,0-1.45-.15.74.74,0,0,1-.92-.66C41.36,65.41,41.19,65,41.05,64.55ZM31.22,49.66c.56.41.91.72,1.31,1a.74.74,0,0,1,.34,1.09c-.18.43-.28.9-.48,1.58.57-.41,1-.63,1.28-.91a.81.81,0,0,1,1.27,0,8.66,8.66,0,0,0,1.09.79,2.44,2.44,0,0,0-.21-1.2,1,1,0,0,1,.46-1.48,7.22,7.22,0,0,0,1.07-.79c-.29,0-.39-.07-.49-.07-1.74-.08-1.74-.08-2.35-1.66a1.92,1.92,0,0,0-.18-.31l-.2-.16C34.16,49.5,33,49.79,31.22,49.66Zm41.12,3.5a12,12,0,0,0,1.16-.84.74.74,0,0,1,1.14,0c.35.31.77.55,1.15.83a2.79,2.79,0,0,0-.23-1.28c-.26-.6-.2-1,.42-1.35a9.78,9.78,0,0,0,1.15-.85l-.59-.07c-1.66-.05-1.66-.05-2.23-1.58,0-.13-.14-.25-.3-.54-.2.6-.37,1-.48,1.48a.73.73,0,0,1-.93.65,13.25,13.25,0,0,0-1.41,0l-.18.22c1.81.6,2,1.73,1.24,3.15C72.24,53,72.27,53,72.34,53.16Zm-8.51-3.48c-1.78.35-2.66-.35-2.9-1.94,0,0-.09,0-.22-.1a10.86,10.86,0,0,0-.4,1.22c-.13.58-.41.83-1,.75a12,12,0,0,0-1.34,0,3.54,3.54,0,0,0,1.09,1,.74.74,0,0,1,.36,1.08,15,15,0,0,0-.46,1.46c.22-.08.31-.08.36-.14a1.8,1.8,0,0,1,3,0,3.1,3.1,0,0,0,.55.22C61.83,51.59,62.05,50.45,63.83,49.68Zm-42.67-2H21c-.08.22-.18.44-.26.67-.42,1.26-.42,1.26-1.79,1.27l-1,0c.52.38.81.64,1.14.83a.92.92,0,0,1,.48,1.4,9.21,9.21,0,0,0-.42,1.41c.6-.43,1-.67,1.35-1a.73.73,0,0,1,1.13,0c.36.31.77.55,1.35,1a10.92,10.92,0,0,0-.46-1.49.82.82,0,0,1,.39-1.22,10.27,10.27,0,0,0,1.07-.8,3.18,3.18,0,0,0-1.37-.15.81.81,0,0,1-1-.73A9.28,9.28,0,0,0,21.16,47.65ZM5.8,53.14h.25c.2-.13.41-.24.6-.38,1.15-.81,1.15-.81,2.26,0,.2.14.42.26.8.49a13.37,13.37,0,0,0-.49-1.53.76.76,0,0,1,.37-1.09,13.23,13.23,0,0,0,1.13-.84,3.67,3.67,0,0,0-1.47-.15.75.75,0,0,1-.93-.67,12.91,12.91,0,0,0-.46-1.32l-.26-.13c0,2-1.09,2.35-2.62,2.16,0,0,0,0-.12.18C6.48,50.45,6.82,51.57,5.8,53.14Zm38.71-3.46c.52.39.87.69,1.26.93a.75.75,0,0,1,.36,1.09,12.18,12.18,0,0,0-.46,1.49,2.09,2.09,0,0,0,.44-.22c1-1,1.9-1.13,2.87,0,.08.09.22.11.67.31-1.12-1.64-.73-2.7.74-3.41,0,0,0-.09.06-.26-.68,0-1.49.24-1.93-.06s-.57-1.17-.84-1.78c0,0-.09,0-.2-.09-.24.63-.31,1.49-.77,1.82S45.4,49.62,44.51,49.68Z"/><path class="cls-1" d="M1.17,45c0,.36,0,.72,0,1.07v55.19c.35,0,.64,0,.94,0h78l119.67,0H200v8.12l-1.24,0H1.25v7.95H198.84c.39,0,.77,0,1.16,0v8.12c-.41,0-.82,0-1.24,0H1.24v8H198.77c.41,0,.82,0,1.23.06v8.11c-.27,0-.55-.05-.82-.05H2.19c-.31,0-.63,0-.94.06v7.9H198.76l1.24,0c0,.05-.05.16-.08.16H1q0-52,0-104.06A3.35,3.35,0,0,1,1.17,45Z"/><path d="M200,133.58c-.41,0-.82-.06-1.23-.06H1.24v-8H198.76c.42,0,.83,0,1.24,0Z"/><path d="M200,149.64l-1.24,0H1.25v-7.9c.31,0,.63-.06.94-.06h197c.27,0,.55,0,.82.05Z"/><path d="M200,117.35c-.39,0-.77,0-1.16,0H1.25v-7.95H198.76l1.24,0Z"/><path class="cls-1" d="M200,61.06c-.33,0-.66.06-1,.06H80.74V53H198.68c.44,0,.88,0,1.32,0Z"/><path class="cls-1" d="M200,93.35H80.73V85.21H199.26l.74,0Z"/><path class="cls-1" d="M200,77.29c-.44,0-.88,0-1.32,0h-118v-8.1c.33,0,.63,0,.92,0H199.18c.27,0,.55,0,.82,0Z"/><path class="cls-1" d="M76.94,94.84c-.51.44-1.3.8-1.47,1.35s.26,1.28.48,2.1c-.42-.27-.71-.45-1-.65L74.08,97l-1.92,1.35A10,10,0,0,1,72.58,97a.94.94,0,0,0-.48-1.41,2.49,2.49,0,0,1-.9-.9,10.72,10.72,0,0,1,1.39,0c.59.07.85-.18,1-.72a3.25,3.25,0,0,1,.59-1.26c.15.45.34.88.46,1.34a.71.71,0,0,0,.86.63c.48,0,1,0,1.45,0Z"/><path class="cls-1" d="M63.88,94.88c-1.75.65-2.1,1.75-1.07,3.3l-.27,0L60.82,97l-1.73,1.22h-.27c1-1.56.69-2.7-.92-3.31a2.21,2.21,0,0,1,.1-.21c1.5.17,2.67-.14,2.63-2.14l.25.13a6.2,6.2,0,0,1,.42,1.16.87.87,0,0,0,1.14.81,9.92,9.92,0,0,1,1.22,0Z"/><path class="cls-1" d="M49.47,98.35l-1-.72L47.57,97l-1.93,1.37a11.44,11.44,0,0,1,.43-1.44.91.91,0,0,0-.43-1.36,2.55,2.55,0,0,1-1-.93c.48,0,1,0,1.42,0A.73.73,0,0,0,47,94a3.2,3.2,0,0,1,.62-1.31,8.81,8.81,0,0,1,.41,1.19c.11.65.46.85,1.09.77a3.22,3.22,0,0,1,1.33.15,9.8,9.8,0,0,1-1,.8.88.88,0,0,0-.41,1.3A10.39,10.39,0,0,1,49.47,98.35Z"/><path class="cls-1" d="M36,98.22,34.31,97l-1.72,1.21h-.28c1-1.57.71-2.72-1-3.34.15-.15.18-.21.22-.22.67-.05,1.49.11,2-.23s.47-1.14.88-1.74c.14.42.32.85.42,1.28a.74.74,0,0,0,.92.67,3.67,3.67,0,0,1,1.47.16,7.14,7.14,0,0,1-1,.76.91.91,0,0,0-.45,1.35,9.36,9.36,0,0,1,.37,1.17Z"/><path class="cls-1" d="M21.23,92.55c0,2,1.11,2.33,2.63,2.15,0,0,0,0,.11.17-.36.26-.7.56-1.08.78a.8.8,0,0,0-.39,1.16c.18.42.27.87.48,1.56L21.07,97l-1.73,1.19-.16-.08a8.52,8.52,0,0,1,.33-1c.32-.71.25-1.25-.51-1.63A7.42,7.42,0,0,1,18,94.71c.47,0,.72,0,1,0,1.35,0,1.35,0,1.81-1.35.07-.2.16-.39.24-.59Z"/><path class="cls-1" d="M7.79,97l-.9.65-1,.69A11.83,11.83,0,0,1,6.3,97a.91.91,0,0,0-.43-1.36,2.65,2.65,0,0,1-1-.94c.47,0,1,0,1.41,0A.73.73,0,0,0,7.26,94a3.26,3.26,0,0,1,.62-1.31c.15.45.34.89.45,1.35a.71.71,0,0,0,.88.61c.48,0,1,0,1.44,0l.07.21c-.37.27-.71.57-1.1.8a.8.8,0,0,0-.37,1.16c.17.42.27.87.48,1.55Z"/><path class="cls-1" d="M70.34,89.24a5,5,0,0,1-.85.63c-.76.37-.83.9-.51,1.61a2.13,2.13,0,0,1,.19,1.11l-1.72-1.21L65.72,92.6h-.28c1-1.56.69-2.69-1-3.33.16-.15.21-.21.24-.21,1.53.23,2.56-.23,2.56-2.11l.24.12A9.14,9.14,0,0,1,68,88.3.81.81,0,0,0,69,89c.43,0,.86,0,1.29,0Z"/><path class="cls-1" d="M57.11,89.24A12,12,0,0,1,56,90a.78.78,0,0,0-.36,1.15c.18.42.27.87.47,1.53l-1.92-1.34-1.92,1.36c.2-.68.3-1.15.48-1.58a.75.75,0,0,0-.34-1.1,3.32,3.32,0,0,1-1.09-1c.47,0,.94,0,1.41,0a.74.74,0,0,0,.93-.66,3.1,3.1,0,0,1,.62-1.3c.15.44.34.88.45,1.34a.7.7,0,0,0,.88.62c.46,0,.93,0,1.4,0Z"/><path class="cls-1" d="M37.87,89.12A12.51,12.51,0,0,1,39.48,89a.75.75,0,0,0,.92-.67c.1-.44.28-.87.42-1.3.14.06.23.07.23.1.24,1.57,1.08,2.3,2.81,1.76v.25a4.75,4.75,0,0,1-.84.67c-.79.38-.88.93-.53,1.67a9.65,9.65,0,0,1,.4,1.22l-2-1.36L39,92.74c.21-.68.3-1.15.48-1.59a.74.74,0,0,0-.33-1.09A13.84,13.84,0,0,1,37.87,89.12Z"/><path class="cls-1" d="M24.76,89c1.72.46,2.69-.12,2.74-2l.24.1a12,12,0,0,1,.46,1.31.75.75,0,0,0,.93.66,3.49,3.49,0,0,1,1.46.17,13.45,13.45,0,0,1-1.13.86.75.75,0,0,0-.35,1.09,3.52,3.52,0,0,1,.3,1.44l-1.73-1.21-1.89,1.33c.23-.88.66-1.63.49-2.21s-1-.87-1.49-1.3Z"/><path class="cls-1" d="M14.6,86.91c0,2,1.11,2.34,2.63,2.16,0,0,0,.05.1.17a14.15,14.15,0,0,1-1.15.84.72.72,0,0,0-.34,1,4.06,4.06,0,0,1,.31,1.48l-1.73-1.2-1.9,1.34A10,10,0,0,1,13,91.25.85.85,0,0,0,12.52,90a14.82,14.82,0,0,1-1.2-.88c.48,0,.72-.06,1-.06,1.35,0,1.35,0,1.81-1.35.05-.16.11-.32.17-.47A3.52,3.52,0,0,1,14.6,86.91Z"/><path class="cls-1" d="M50.46,72.28c-.53.45-1.33.81-1.52,1.37s.28,1.28.52,2.15l-1.89-1.32-1.86,1.3c.07-.35.09-.53.14-.7.44-1.49.44-1.49-.83-2.47-.13-.1-.24-.21-.53-.48a12.76,12.76,0,0,1,1.54,0c.62.08.89-.19,1-.76.1-.41.27-.8.41-1.21.13.06.22.08.22.1C47.91,71.89,48.82,72.54,50.46,72.28Z"/><path class="cls-1" d="M49.48,87.09l-1.9-1.33L45.7,87c.21-.84.63-1.6.46-2.18s-1-.86-1.71-1.46a7.27,7.27,0,0,1,1.18,0c1,.19,1.41-.26,1.56-1.15a1.43,1.43,0,0,1,.48-.81c.14.42.31.84.42,1.28s.35.74.9.68a3.78,3.78,0,0,1,1.49.15,10,10,0,0,1-1.1.84A.8.8,0,0,0,49,85.55,15,15,0,0,1,49.48,87.09Z"/><path class="cls-1" d="M14.43,80.11,12.7,81.32c-.06-.12-.09-.15-.09-.16.67-1.41.59-2.57-1.25-3.17l.19-.23a13.26,13.26,0,0,1,1.41,0,.74.74,0,0,0,.93-.66,3.37,3.37,0,0,1,.61-1.31A14.16,14.16,0,0,1,15,77.14a.71.71,0,0,0,.87.63c.48,0,1,0,1.45,0l.06.21c-.39.28-.76.6-1.17.84a.73.73,0,0,0-.33,1,3.69,3.69,0,0,1,.29,1.48l-.86-.61Z"/><path class="cls-1" d="M74.08,85.75,72.22,87c.2-.86.62-1.62.45-2.19s-1-.87-1.51-1.29c.09-.08.13-.14.17-.14.67-.06,1.49.1,2-.23s.47-1.15.88-1.75c.14.43.32.85.42,1.29a.73.73,0,0,0,.91.67,3.78,3.78,0,0,1,1.49.15,12.57,12.57,0,0,1-1.11.85.78.78,0,0,0-.37,1.15c.18.42.27.87.47,1.53l-1.07-.73C74.65,86.16,74.39,86,74.08,85.75Z"/><path class="cls-1" d="M57.89,83.58c.1-.11.11-.15.13-.15.68,0,1.52.14,2-.2s.48-1.16.78-2c.18.44.28.66.36.9.42,1.26.42,1.26,1.78,1.27.24,0,.48,0,1,0-.54.41-.89.73-1.29,1a.76.76,0,0,0-.36,1.09c.18.42.28.87.5,1.57l-1-.69-.89-.63-1.69,1.18L59,86.85a11.41,11.41,0,0,1,.41-1.33.75.75,0,0,0-.34-1.1A12,12,0,0,1,57.89,83.58Z"/><path class="cls-1" d="M31.25,83.48c.9-.06,1.74.12,2.21-.22s.53-1.18.77-1.8a.57.57,0,0,1,.19.07c.26,1.56,1.06,2.37,2.92,1.71l-.13.31c-.18.15-.34.31-.53.45-1.13.83-1.13.83-.72,2.15.07.22.12.46.22.89L34.3,85.75,32.6,87l-.15-.1a7,7,0,0,1,.33-1,1.06,1.06,0,0,0-.54-1.6A9.63,9.63,0,0,1,31.25,83.48Z"/><path class="cls-1" d="M9.5,75.66,7.8,74.49,5.9,75.8c.12-.45.16-.69.24-.92.41-1.32.41-1.32-.72-2.15a1.42,1.42,0,0,1-.5-.6,10.75,10.75,0,0,1,1.39,0c.58.07.85-.17,1-.72a15.21,15.21,0,0,1,.5-1.49A13.63,13.63,0,0,1,8.3,71.4a.83.83,0,0,0,1,.74,3.25,3.25,0,0,1,1.38.15c-.38.29-.73.61-1.13.86a.75.75,0,0,0-.37,1.08,10.49,10.49,0,0,1,.42,1.31Z"/><path class="cls-1" d="M22.77,75.67l-1.72-1.19-1.92,1.35a11.44,11.44,0,0,1,.44-1.45A.89.89,0,0,0,19.12,73a2.71,2.71,0,0,1-.95-.91,13.41,13.41,0,0,1,1.42,0,.75.75,0,0,0,.93-.67,13.08,13.08,0,0,1,.42-1.3c.13.06.22.07.22.1.24,1.59,1.12,2.29,2.77,1.81,0,.2,0,.28-.05.29-1.44.72-1.89,1.76-.83,3.29Z"/><path class="cls-1" d="M31.26,72.23c.88-.06,1.72.11,2.18-.22s.54-1.19.88-2c.21.6.4,1,.5,1.43s.37.8,1,.73a3.26,3.26,0,0,1,1.45.16c-.38.28-.74.6-1.14.85a.75.75,0,0,0-.35,1.09A3.56,3.56,0,0,1,36,75.68l-1.71-1.2-1.7,1.19-.16-.09c.14-.44.24-.91.42-1.34a.75.75,0,0,0-.34-1.09A14.3,14.3,0,0,1,31.26,72.23Z"/><path class="cls-1" d="M23,87.07l-1.92-1.32L19.35,87l-.16-.1a8.42,8.42,0,0,1,.33-1,1.05,1.05,0,0,0-.53-1.6,2.07,2.07,0,0,1-.82-.82,13.43,13.43,0,0,1,1.42,0,.75.75,0,0,0,.93-.66,13.08,13.08,0,0,1,.42-1.3c.13,0,.22.07.22.09.24,1.6,1.13,2.29,2.87,1.78l-.06.26a6.12,6.12,0,0,1-.88.66,1.06,1.06,0,0,0-.51,1.61A9.13,9.13,0,0,1,23,87.07Z"/><path class="cls-1" d="M58,72.17c.69,0,1.53.15,2-.19s.52-1.18.93-1.81a12.12,12.12,0,0,1,.42,1.29c.12.5.36.74.91.68a4,4,0,0,1,1.49.14,11.26,11.26,0,0,1-1.11.85.78.78,0,0,0-.36,1.15,14.13,14.13,0,0,1,.46,1.53l-1.9-1.32L59,75.71A6,6,0,0,0,58,72.32S58,72.22,58,72.17Z"/><path class="cls-1" d="M71.24,72.18c.69-.05,1.53.14,2-.19s.52-1.19.94-1.82c.14.43.31.85.42,1.28s.35.75.91.69a3.89,3.89,0,0,1,1.48.14,10.07,10.07,0,0,1-1.1.85.79.79,0,0,0-.37,1.15A15,15,0,0,1,76,75.82l-1.06-.74-.84-.6-1.74,1.2h-.28c1-1.57.69-2.7-1.06-3.37Z"/><path class="cls-1" d="M4.87,83.58A1.42,1.42,0,0,1,5,83.43c1.52.19,2.64-.17,2.62-2.14l.26.13a7.4,7.4,0,0,1,.41,1.17c.12.68.48.89,1.14.81a2.78,2.78,0,0,1,1.3.16c-.38.28-.73.6-1.13.85a.76.76,0,0,0-.37,1.09,13.53,13.53,0,0,1,.5,1.57L7.79,85.76,5.9,87.08a10.77,10.77,0,0,1,.43-1.48A.82.82,0,0,0,6,84.38,12.6,12.6,0,0,1,4.87,83.58Z"/><path class="cls-1" d="M30.6,78c-.39.29-.76.6-1.16.85a.71.71,0,0,0-.34,1c.17.45.29.92.52,1.62l-1.93-1.33L26,81.31a1.23,1.23,0,0,1-.08-.15c.63-1.39.64-2.58-1.25-3.16l.19-.19c.24,0,.49,0,.73,0,1.37,0,1.37,0,1.79-1.27.08-.23.18-.44.35-.89.23.64.42,1.08.53,1.53s.36.69.87.64a14,14,0,0,1,1.45,0Z"/><path class="cls-1" d="M37.91,77.86c.87-.06,1.71.11,2.17-.23s.54-1.18.78-1.81a.77.77,0,0,1,.19.08c.25,1.56,1.06,2.32,2.81,1.76l0,.26a11.49,11.49,0,0,1-1.1.85.78.78,0,0,0-.35,1.16,14.77,14.77,0,0,1,.46,1.49l-1.92-1.3-1.68,1.17-.17-.07a8.48,8.48,0,0,1,.32-1c.32-.71.26-1.24-.51-1.61A6.6,6.6,0,0,1,37.91,77.86Z"/><path class="cls-1" d="M55.9,81.3l-1.7-1.18-1.93,1.33c.21-.68.3-1.14.48-1.56a.75.75,0,0,0-.34-1.1,3.29,3.29,0,0,1-1.09-1,13.45,13.45,0,0,1,1.42,0,.74.74,0,0,0,.92-.67c.1-.44.28-.86.42-1.3.14.06.22.08.23.11.24,1.57,1.08,2.3,2.81,1.75v.26a5.66,5.66,0,0,1-.78.61,1.16,1.16,0,0,0-.56,1.8,4.81,4.81,0,0,1,.26.84Z"/><path class="cls-1" d="M69.1,81.28l-1.64-1.16-1.74,1.19c-.06-.1-.09-.13-.08-.15.15-.66.57-1.4.4-2s-1-.84-1.46-1.45a10.1,10.1,0,0,1,1.23,0c.65.08,1-.12,1.15-.81a2.53,2.53,0,0,1,.56-1.16A12.45,12.45,0,0,1,68,77.14a.72.72,0,0,0,.87.63c.48,0,1,0,1.45,0l.07.2c-.39.29-.76.6-1.17.85a.72.72,0,0,0-.34,1c.18.45.3.92.45,1.38Z"/><path class="cls-1" d="M16.35,69.93c-.18,0-.22.06-.23,0-1.15-1.06-2.3-1.37-3.45.25L12.56,70c.14-.45.25-.92.43-1.36a.74.74,0,0,0-.36-1.08,3.37,3.37,0,0,1-1.07-1,9.84,9.84,0,0,1,1.33,0,.81.81,0,0,0,1-.76,11.5,11.5,0,0,1,.41-1.21c.13.06.2.06.22.1.27.61.38,1.44.84,1.77s1.25.07,2,.18C15.77,67.36,15.37,68.47,16.35,69.93Z"/><path class="cls-1" d="M76,64.47c-.73-.46-1.32-1.12-1.91-1.12s-1.13.67-1.82,1.13a6.65,6.65,0,0,1,.15-.67c.43-1.49.44-1.49-.84-2.47-.13-.1-.24-.21-.54-.48a9.93,9.93,0,0,1,1.48,0c.7.11,1-.21,1.12-.85a8.35,8.35,0,0,1,.4-1.12c.12.05.19.07.21.1.27.61.38,1.45.84,1.77s1.25.07,2.13.07c-.74.62-1.53,1-1.72,1.54S75.73,63.67,76,64.47Z"/><path class="cls-1" d="M29.59,70.14c-1.33-1.13-2.48-1.61-3.63.09L25.82,70a4.79,4.79,0,0,1,.27-.86,1.19,1.19,0,0,0-.58-1.86,6.26,6.26,0,0,1-.92-.68c.46,0,.71,0,1,0,1.36,0,1.36,0,1.78-1.27.08-.23.17-.45.35-.9a13,13,0,0,1,.51,1.44.81.81,0,0,0,1,.74,3.18,3.18,0,0,1,1.37.15,8.35,8.35,0,0,1-1.07.81.82.82,0,0,0-.38,1.22A12.32,12.32,0,0,1,29.59,70.14Z"/><path class="cls-1" d="M64.63,66.55c.68,0,1.52.13,2-.2s.49-1.17.81-2A15.78,15.78,0,0,1,68,65.84a.75.75,0,0,0,.93.67,3.61,3.61,0,0,1,1.46.15,5.46,5.46,0,0,1-.87.67A1.05,1.05,0,0,0,69,68.94a7.46,7.46,0,0,1,.32,1c-.13,0-.2,0-.22,0-1.14-1.2-2.26-1.2-3.33.15-.08-.18-.14-.24-.12-.27.66-1.4.64-2.58-1.35-3.13Z"/><path class="cls-1" d="M51.37,66.55c.68,0,1.52.14,2-.2s.52-1.18.94-1.81a11.22,11.22,0,0,1,.41,1.28c.12.58.44.74,1,.69s.88,0,1.59,0a6.51,6.51,0,0,1-1,.81A1.07,1.07,0,0,0,55.74,69,3.31,3.31,0,0,1,56,70.09c-1.22-1.38-2.39-1.36-3.69,0,.91-1.64.58-2.77-1.17-3.44Z"/><path class="cls-1" d="M63.86,60.86c-.69.59-1.48.94-1.65,1.48s.26,1.29.49,2.15a12.35,12.35,0,0,1-1.3-.9.75.75,0,0,0-1.14,0,15.65,15.65,0,0,1-1.34,1,9.52,9.52,0,0,1,.43-1.48.86.86,0,0,0-.43-1.28,2.84,2.84,0,0,1-1-.93,12.89,12.89,0,0,1,1.39,0c.58.08.85-.16,1-.71s.27-.82.5-1.5c.24.67.44,1.1.55,1.55a.74.74,0,0,0,.92.66C62.73,60.82,63.2,60.86,63.86,60.86Z"/><path class="cls-1" d="M50.61,61.08c-1.72.64-2.11,1.73-1.06,3.29l-.26,0a13.36,13.36,0,0,1-1.16-.81.73.73,0,0,0-1.13,0,3.89,3.89,0,0,1-1.29.73c.14-.45.23-.91.41-1.34a.74.74,0,0,0-.33-1.09c-.4-.24-.76-.55-1.33-1,.46,0,.71,0,1,0,1.36,0,1.35,0,1.81-1.35.07-.2.17-.4.34-.81a9,9,0,0,1,.48,1.35c.12.69.49.9,1.14.81a9.92,9.92,0,0,1,1.22,0Z"/><path class="cls-1" d="M31.23,60.93c1.71.11,2.94-.15,2.89-2.19l.21.17a2.32,2.32,0,0,1,.21.38c.57,1.53.57,1.53,2.23,1.58a5.6,5.6,0,0,1,.59.06,12.42,12.42,0,0,1-1.21.9.81.81,0,0,0-.38,1.22A3,3,0,0,1,36,64.41a9.26,9.26,0,0,1-1.08-.78.82.82,0,0,0-1.27,0,3.27,3.27,0,0,1-1.21.68A12.21,12.21,0,0,1,32.87,63a.75.75,0,0,0-.34-1.1A15,15,0,0,1,31.23,60.93Z"/><path class="cls-1" d="M21.16,58.91c.14.43.32.86.42,1.3a.74.74,0,0,0,.92.66A3.65,3.65,0,0,1,24,61c-.37.29-.73.6-1.12.85A.76.76,0,0,0,22.48,63c.18.42.28.87.5,1.57a11.32,11.32,0,0,1-1.21-.84.89.89,0,0,0-1.41,0,8.77,8.77,0,0,1-1,.75c-.07-.13-.1-.16-.09-.18.58-1.38.77-2.62-1.36-3.11l.29-.28a11.43,11.43,0,0,1,1.31,0,.82.82,0,0,0,1.07-.79,9.73,9.73,0,0,1,.39-1.15Z"/><path class="cls-1" d="M7.9,58.9a12.74,12.74,0,0,1,.42,1.28c.11.58.43.75,1,.69a3.53,3.53,0,0,1,1.4.15c-.37.28-.71.6-1.1.84A.79.79,0,0,0,9.24,63a5.51,5.51,0,0,1,.35,1.45c-1.21-1.38-2.39-1.36-3.49,0C6,64.32,6,64.29,6,64.27c.64-1.41.6-2.61-1.18-3.17C5,61,5,60.89,5,60.89c1.59.29,2.53-.31,2.61-2.15Z"/><path class="cls-1" d="M69.12,58.9c-1.14-1.56-2.29-1.31-3.38-.06-.08-.15-.11-.19-.1-.2.65-1.41.59-2.6-1.18-3.18.17-.14.2-.2.24-.2.67-.06,1.5.1,2-.24s.47-1.14.88-1.75A12.12,12.12,0,0,1,68,54.56c.12.57.43.74,1,.68a3.6,3.6,0,0,1,1.41.15,5.18,5.18,0,0,1-.85.65c-.79.38-.88.93-.53,1.67a6.24,6.24,0,0,1,.32,1Z"/><path class="cls-1" d="M56,58.93c-1.18-1.48-2.36-1.47-3.47-.08-.08-.16-.11-.19-.1-.21a10.56,10.56,0,0,1,.38-1.33.76.76,0,0,0-.38-1.08,12.19,12.19,0,0,1-1.11-.82c.09-.09.13-.15.16-.15,1.59.3,2.52-.33,2.61-2.15l.24.16a13.46,13.46,0,0,1,.44,1.36.7.7,0,0,0,.88.61c.47,0,.93,0,1.68,0a14.17,14.17,0,0,1-1.29,1,.79.79,0,0,0-.36,1.15,11.66,11.66,0,0,1,.4,1.31Z"/><path class="cls-1" d="M41,53.27c.15.45.34.89.45,1.36a.7.7,0,0,0,.87.61,5.74,5.74,0,0,1,1.56.1c-1.66.75-2,1.88-1.09,3.52-1.3-1.41-2.48-1.4-3.65.08l-.09-.24a7.39,7.39,0,0,1,.33-1.07A1,1,0,0,0,38.87,56a6.35,6.35,0,0,1-.84-.63c.08-.08.12-.15.15-.15,1.59.29,2.53-.32,2.61-2.15Z"/><path class="cls-1" d="M27.87,53.12c0,2,1.09,2.35,2.61,2.16a1.68,1.68,0,0,1,.14.18c-1.62.63-2,1.74-1,3.2-.17,0-.21.06-.22.05-1.15-1.05-2.3-1.37-3.45.25l-.11-.27a12.64,12.64,0,0,1,.43-1.36.76.76,0,0,0-.36-1.09,3.4,3.4,0,0,1-1.08-1,7.56,7.56,0,0,1,1.26,0c.69.1,1-.2,1.12-.84a8.49,8.49,0,0,1,.42-1.16Z"/><path class="cls-1" d="M14.62,53.12c0,2,1.08,2.35,2.61,2.16,0,0,0,0,.13.18-1.61.63-2,1.74-1,3.2-.18,0-.21.06-.22.05-1.16-1.05-2.31-1.37-3.46.25l-.1-.27A10.69,10.69,0,0,1,13,57.33a.75.75,0,0,0-.36-1.09,3.5,3.5,0,0,1-1.08-1,7.56,7.56,0,0,1,1.26,0c.7.1,1-.2,1.12-.84a8.55,8.55,0,0,1,.43-1.16Z"/><path class="cls-1" d="M41.05,64.55c.14.43.31.86.42,1.3a.74.74,0,0,0,.92.66,3.54,3.54,0,0,1,1.45.15,10.25,10.25,0,0,1-1.06.81.82.82,0,0,0-.38,1.22,3,3,0,0,1,.25,1.36c-.38-.28-.79-.52-1.14-.83a.75.75,0,0,0-1.14,0,3.85,3.85,0,0,1-1.28.74,3.28,3.28,0,0,1,.22-.79,1.25,1.25,0,0,0-.61-2,6.67,6.67,0,0,1-.84-.64c.45,0,.69,0,.94,0,1.35,0,1.35,0,1.8-1.35.07-.2.17-.39.25-.59Z"/><path class="cls-1" d="M31.22,49.66c1.73.13,2.94-.16,2.91-2.18l.2.16a1.92,1.92,0,0,1,.18.31c.61,1.58.61,1.58,2.35,1.66.1,0,.2,0,.49.07a7.22,7.22,0,0,1-1.07.79A1,1,0,0,0,35.82,52a2.44,2.44,0,0,1,.21,1.2,8.66,8.66,0,0,1-1.09-.79.81.81,0,0,0-1.27,0c-.32.28-.71.5-1.28.91.2-.68.3-1.15.48-1.58a.74.74,0,0,0-.34-1.09C32.13,50.38,31.78,50.07,31.22,49.66Z"/><path class="cls-1" d="M72.34,53.16c-.07-.14-.1-.17-.09-.19.72-1.42.57-2.55-1.24-3.15l.18-.22a13.25,13.25,0,0,1,1.41,0,.73.73,0,0,0,.93-.65c.11-.45.28-.88.48-1.48.16.29.25.41.3.54.57,1.53.57,1.53,2.23,1.58l.59.07a9.78,9.78,0,0,1-1.15.85c-.62.32-.68.75-.42,1.35a2.79,2.79,0,0,1,.23,1.28c-.38-.28-.8-.52-1.15-.83a.74.74,0,0,0-1.14,0A12,12,0,0,1,72.34,53.16Z"/><path class="cls-1" d="M63.83,49.68c-1.78.77-2,1.91-1,3.53a3.1,3.1,0,0,1-.55-.22,1.8,1.8,0,0,0-3,0c0,.06-.14.06-.36.14a15,15,0,0,1,.46-1.46A.74.74,0,0,0,59,50.61a3.54,3.54,0,0,1-1.09-1,12,12,0,0,1,1.34,0c.62.08.9-.17,1-.75a10.86,10.86,0,0,1,.4-1.22c.13.06.22.07.22.1C61.17,49.33,62.05,50,63.83,49.68Z"/><path class="cls-1" d="M21.16,47.65a9.28,9.28,0,0,1,.4,1.23.81.81,0,0,0,1,.73,3.18,3.18,0,0,1,1.37.15,10.27,10.27,0,0,1-1.07.8.82.82,0,0,0-.39,1.22A10.92,10.92,0,0,1,23,53.27c-.58-.4-1-.64-1.35-1a.73.73,0,0,0-1.13,0c-.35.3-.75.54-1.35,1a9.21,9.21,0,0,1,.42-1.41.92.92,0,0,0-.48-1.4c-.33-.19-.62-.45-1.14-.83l1,0c1.37,0,1.37,0,1.79-1.27.08-.23.18-.45.26-.67Z"/><path class="cls-1" d="M5.8,53.14c1-1.57.68-2.69-.94-3.31.09-.14.11-.18.12-.18,1.53.19,2.65-.18,2.62-2.16l.26.13a12.91,12.91,0,0,1,.46,1.32.75.75,0,0,0,.93.67,3.67,3.67,0,0,1,1.47.15,13.23,13.23,0,0,1-1.13.84.76.76,0,0,0-.37,1.09,13.37,13.37,0,0,1,.49,1.53c-.38-.23-.6-.35-.8-.49-1.11-.79-1.11-.79-2.26,0-.19.14-.4.25-.6.38Z"/><path class="cls-1" d="M44.51,49.68c.89-.06,1.73.13,2.2-.21s.53-1.19.77-1.82c.11.05.18.05.2.09.27.61.37,1.45.84,1.78s1.25.06,1.93.06c0,.17,0,.25-.06.26-1.47.71-1.86,1.77-.74,3.41-.45-.2-.59-.22-.67-.31-1-1.1-1.92-1-2.87,0a2.09,2.09,0,0,1-.44.22,12.18,12.18,0,0,1,.46-1.49.75.75,0,0,0-.36-1.09C45.38,50.37,45,50.07,44.51,49.68Z"/></g></svg>