<svg id="Layer_1" data-name="Layer 1" xmlns="http://www.w3.org/2000/svg" viewBox="0 0 200 200"><g id="Y7TNBq"><path d="M100.17,133.3c-15.55,0-31.09,0-46.63,0-23.35-.08-41-16.78-42.45-40.08C9.79,72.33,26.83,52.33,47.6,50.39c2.53-.24,5.07-.37,7.61-.37q46.21,0,92.42,0a41.56,41.56,0,0,1,38.85,26.08c10.46,25.46-7,54.69-34.34,56.79-11.24.86-22.59.35-33.88.42-6,0-12.06,0-18.09,0Zm.24-74.54v-.21c-8.38,0-16.76,0-25.14,0s-16.77-.1-25.14.26c-17.88.76-32.35,18-30.3,35.74,2.08,18,15.72,30.16,33.87,30.17q46.62,0,93.24,0a45.46,45.46,0,0,0,5.35-.33c16.25-1.91,29.17-16.9,28.71-33.25-.49-17.32-14-31.83-30.87-32.28C133.57,58.41,117,58.76,100.41,58.76Z"/><path d="M108.91,150.89v3.43h6.65v4h-6.62v3.81h7.62v4.12H105V146.91h11.41v4Z"/><path d="M94.08,159.85v6.37H90.29V146.71c2.43,0,4.85-.16,7.25,0,3.77.31,5.53,2.49,5.51,6.46s-1.89,6.22-5.46,6.63A33.22,33.22,0,0,1,94.08,159.85Zm.14-3.75a18.52,18.52,0,0,0,4.38-1.48c.44-.29.44-2.42,0-2.69a18.07,18.07,0,0,0-4.39-1.45Z"/><path d="M142.1,159.88c-.6,4.37-2.53,6.56-5.81,7-3.67.43-7-1.25-7.82-5a26.27,26.27,0,0,1-.29-9.92c.64-3.83,3.69-5.72,7.38-5.58,3.4.12,5.37,1.95,6.46,6.19l-3.43,1,.25-.76c-1.5-.74-3.09-2.24-4.48-2.07-2.43.28-2.75,2.78-2.9,4.87a6.91,6.91,0,0,0,.33,3.59c.72,1.36,1.9,3.11,3.15,3.37,1.07.22,2.53-1.42,3.82-2.23l-.35-.91Z"/><path d="M83.29,166.26H78.74c1.69-7.33-2.49-13-5.49-19.08,4-1.1,4.15-1,5.73,2.53.55,1.25,1.15,2.48,1.75,3.77,2.61-2.26,1.44-8.56,7.72-6.45C86,153.17,81,158.55,83.29,166.26Z"/><path d="M67.55,166.31h-4V151.1h-5v-4.28h13.9v4.1H67.55Z"/><path d="M118.48,160.87v-3.93h7.14v3.93Z"/><path d="M100.29,80.23c17.71,0,35.42,0,53.14,0a11.4,11.4,0,0,1,2.93,22.43,14.68,14.68,0,0,1-3.63.37q-52.42,0-104.86,0c-6.81,0-11.66-4.25-12.13-10.48-.52-6.89,4.51-12.3,11.69-12.32C65.05,80.2,82.67,80.24,100.29,80.23Z"/><path d="M134.07,79.2h-3.75a24.54,24.54,0,0,1,.09-4.63,3,3,0,0,1,1.89-1.8c.42-.11,1.57,1,1.69,1.65A29,29,0,0,1,134.07,79.2Z"/><path d="M70.23,104a38,38,0,0,1-.07,5.08c-.09.59-1.07,1.52-1.56,1.47-.72-.07-1.84-.79-1.95-1.39a29,29,0,0,1-.09-5Z"/><path d="M130.35,104.07h3.74a29.47,29.47,0,0,1-.08,4.72c-.11.69-1.19,1.83-1.59,1.74a2.93,2.93,0,0,1-2-1.72A22.77,22.77,0,0,1,130.35,104.07Z"/><path d="M142.07,104.16a22.93,22.93,0,0,1-.09,4.57c-.16.73-1.22,1.27-1.87,1.9-.58-.61-1.53-1.15-1.65-1.83a27.19,27.19,0,0,1-.08-4.64Z"/><path d="M62.28,79.22H58.53a28.65,28.65,0,0,1,.08-4.75c.11-.69,1.2-1.79,1.63-1.7a2.89,2.89,0,0,1,1.95,1.72A24.24,24.24,0,0,1,62.28,79.22Z"/><path d="M58.53,104.07h3.76a29.72,29.72,0,0,1-.08,4.74c-.12.69-1.19,1.81-1.62,1.72a2.87,2.87,0,0,1-2-1.7A23.75,23.75,0,0,1,58.53,104.07Z"/><path d="M70.27,79.22h-3.8a20.11,20.11,0,0,1,.09-4.41c.19-.83,1.25-1.44,1.93-2.15.59.69,1.53,1.31,1.7,2.09A22.38,22.38,0,0,1,70.27,79.22Z"/><path d="M50.57,104.08H54.2a29.53,29.53,0,0,1-.08,4.82,2.41,2.41,0,0,1-1.71,1.6,2.45,2.45,0,0,1-1.76-1.59A28,28,0,0,1,50.57,104.08Z"/><path d="M82.51,104.08h3.64a30.69,30.69,0,0,1-.08,4.82,2.43,2.43,0,0,1-1.73,1.6,2.42,2.42,0,0,1-1.74-1.59A29.62,29.62,0,0,1,82.51,104.08Z"/><path d="M142.06,79.21H138.4a29.53,29.53,0,0,1,.08-4.82c.11-.66,1.14-1.65,1.72-1.63A2.53,2.53,0,0,1,142,74.39,28,28,0,0,1,142.06,79.21Z"/><path d="M74.6,104.08h3.62a29.13,29.13,0,0,1-.09,4.79,2.43,2.43,0,0,1-1.73,1.61,2.36,2.36,0,0,1-1.72-1.57A29.63,29.63,0,0,1,74.6,104.08Z"/><path d="M114.45,104.1h3.63a29.28,29.28,0,0,1-.08,4.8,2.44,2.44,0,0,1-1.72,1.64,2.45,2.45,0,0,1-1.75-1.59A29.86,29.86,0,0,1,114.45,104.1Z"/><path d="M86.14,79.21H82.49a24.86,24.86,0,0,1,.08-4.66c.14-.73,1.2-1.28,1.84-1.91.58.6,1.54,1.12,1.66,1.79A30.22,30.22,0,0,1,86.14,79.21Z"/><path d="M122.39,104H126a39.25,39.25,0,0,1-.07,5c-.08.59-1,1.54-1.51,1.49-.72-.09-1.82-.82-1.92-1.41A31.43,31.43,0,0,1,122.39,104Z"/><path d="M118.08,79.19h-3.63a28.71,28.71,0,0,1,.09-4.85,2.43,2.43,0,0,1,1.76-1.59,2.46,2.46,0,0,1,1.7,1.66A28.58,28.58,0,0,1,118.08,79.19Z"/><path d="M54.21,79.23H50.55a25.7,25.7,0,0,1,.09-4.75,2.9,2.9,0,0,1,2-1.69c.38-.1,1.43,1,1.55,1.73A30.15,30.15,0,0,1,54.21,79.23Z"/><path d="M126,79.18l-3.55.24a43.07,43.07,0,0,1,.09-5.48c.06-.5,1.23-1.22,1.85-1.17a2.24,2.24,0,0,1,1.54,1.51A35.93,35.93,0,0,1,126,79.18Z"/><path d="M146.4,79.16a29.89,29.89,0,0,1,.08-4.75c.11-.66,1.08-1.65,1.65-1.64a2.43,2.43,0,0,1,1.81,1.53,28.81,28.81,0,0,1,.08,4.86Z"/><path d="M78.21,79.21H74.58a30.74,30.74,0,0,1,.08-4.82c.11-.65,1.13-1.65,1.68-1.62a2.5,2.5,0,0,1,1.79,1.61A28.51,28.51,0,0,1,78.21,79.21Z"/><path d="M90.54,104.11h3.59a24.52,24.52,0,0,1-.07,4.47c-.16.77-1.11,1.39-1.7,2.07-.6-.66-1.59-1.24-1.74-2A24.38,24.38,0,0,1,90.54,104.11Z"/><path d="M94.11,79.22H90.55a31.88,31.88,0,0,1,.08-4.89c.1-.64,1.16-1.6,1.71-1.56A2.49,2.49,0,0,1,94,74.43,27.62,27.62,0,0,1,94.11,79.22Z"/><path d="M102.07,79.24H98.51a31.61,31.61,0,0,1,.09-5,2.52,2.52,0,0,1,1.84-1.46c.47-.07,1.47.86,1.56,1.44A37.06,37.06,0,0,1,102.07,79.24Z"/><path d="M106.46,79.38a25,25,0,0,1,.09-4.82c.15-.73,1.2-1.27,1.85-1.9.55.61,1.46,1.16,1.57,1.85a28.64,28.64,0,0,1,.08,4.68Z"/><path d="M102.09,103.93a25.61,25.61,0,0,1-.09,4.79c-.14.73-1.17,1.28-1.79,1.92-.57-.61-1.51-1.15-1.63-1.83a28.84,28.84,0,0,1-.08-4.7Z"/><path d="M110.05,104.21a23,23,0,0,1-.08,4.44c-.16.73-1.13,1.29-1.74,1.93-.59-.67-1.54-1.26-1.7-2a22.17,22.17,0,0,1-.08-4.35Z"/><path d="M146.42,104.06H150a24.23,24.23,0,0,1-.09,4.68c-.14.72-1.21,1.27-1.85,1.9-.56-.61-1.48-1.17-1.6-1.85A29.22,29.22,0,0,1,146.42,104.06Z"/></g></svg>