<svg id="Layer_1" data-name="Layer 1" xmlns="http://www.w3.org/2000/svg" viewBox="0 0 200 200"><path d="M136.73,72.1h25a11.21,11.21,0,1,0,0-7.47H120V53.42a3.73,3.73,0,0,0-3.73-3.73H86.37a3.73,3.73,0,0,0-3.74,3.73V64.63H40.9a11.21,11.21,0,1,0,0,7.47h25c-30.22,11.06-54.21,45.26-54.21,82.17a3.74,3.74,0,0,0,7.47,0c0-39.59,29.8-75.77,63.49-78.29V83.3A3.73,3.73,0,0,0,86.37,87h29.88A3.73,3.73,0,0,0,120,83.3V76c33.69,2.52,63.49,38.7,63.49,78.29a3.74,3.74,0,0,0,7.47,0C190.94,117.36,167,83.16,136.73,72.1Zm35.54-7.47a3.74,3.74,0,1,1-3.74,3.73A3.73,3.73,0,0,1,172.27,64.63ZM30.34,72.1a3.74,3.74,0,1,1,3.74-3.74A3.74,3.74,0,0,1,30.34,72.1Zm82.17,7.47H90.1V57.16h22.41Z"/></svg>