<svg id="Layer_1" data-name="Layer 1" xmlns="http://www.w3.org/2000/svg" viewBox="0 0 200 200"><g id="IdWAI3"><path d="M99.19,190A90.81,90.81,0,1,1,190,99.34,90.87,90.87,0,0,1,99.19,190ZM19.38,99.14A79.81,79.81,0,1,0,99.32,19.38,80,80,0,0,0,19.38,99.14Z"/><path d="M98.73,148.29q-.48,6.33-1,12.66a5.12,5.12,0,0,1-.37,1.19,8.52,8.52,0,0,1-.64-1.14c-2.65-6.76-5.33-13.5-7.89-20.29A107.36,107.36,0,0,0,60.42,98.43a8.55,8.55,0,0,0-1.29-.82,12.26,12.26,0,0,0,.69,1.29,216.53,216.53,0,0,1,26.79,51.33c1.77,4.81,4.28,9.34,6.44,14a5.54,5.54,0,0,1,.29,1.08,6.64,6.64,0,0,1-1-.14c-33.65-9.05-56.25-37.69-55.29-72A77.93,77.93,0,0,1,41.52,69c.31-.84.5-1.61,1.76-1C61.67,76.09,77.4,87.47,87.94,105,95,116.8,98.56,131.75,98.73,148.29Z"/><path d="M104.9,156.18c.33-16.33,3.47-31,13.17-43.68,9.3-12.11,21.65-20.07,35.71-25.56.35-.13,1.34.34,1.37.61,2,19.08-.14,37.33-11.66,53.39-8.3,11.59-19.74,19.3-32.6,25.06a4.37,4.37,0,0,1-1,.17,3.11,3.11,0,0,1,.16-.7c6.07-13.24,11.67-26.73,20.37-38.58,2.12-2.88,4.21-5.79,6.29-8.7a4.83,4.83,0,0,0,.41-.86c-.28.2-.58.38-.85.6a88,88,0,0,0-24,31.16c-2.18,4.71-4.13,9.53-6.2,14.29a3.91,3.91,0,0,1-.67.86,5.47,5.47,0,0,1-.23-1C105.11,160.65,105,158,104.9,156.18Z"/><path d="M113.47,65.82c4.76,0,5.79,1.4,4.57,6.06a8.92,8.92,0,0,1-9.44,6.67c-4.78-.25-8.28-3.59-9-8.62-1.27-8.54,5.12-14.5,13.15-12.16a7.75,7.75,0,0,1,3.52,2.15,3.29,3.29,0,0,1,.08,2.93c-.21.43-1.69.27-2.6.35-.12,0-.27-.12-.4-.19-3.41-1.73-5.64-1.69-7.36.14s-2.08,6.05-.64,8.57C106.37,73.53,108,74.53,110,74a7.28,7.28,0,0,0,3.11-2.42c.65-.76.33-1.52-.92-1.43a2.79,2.79,0,0,1-1.62-.13c-.74-.52-1.79-1.28-1.8-2s1-1.66,1.73-2A8.79,8.79,0,0,1,113.47,65.82Z"/><path d="M155.82,68.12c0,2.42.13,4.85-.06,7.26-.07,1-.72,2.56-1.28,2.64a3.9,3.9,0,0,1-3.08-1.14c-2.59-3.09-4.93-6.38-7.38-9.58a6.21,6.21,0,0,0-.94-.82,7.73,7.73,0,0,0-.17,1.16c0,2.57,0,5.14,0,7.71,0,1.48-.43,2.79-2.24,2.81s-2.26-1.23-2.27-2.64c-.06-5.09-.1-10.18,0-15.27,0-.83.79-2.21,1.4-2.32a3.49,3.49,0,0,1,2.84,1c2.63,3.19,5,6.54,7.57,9.83a6.85,6.85,0,0,0,.84.76,6.38,6.38,0,0,0,.2-1.13c0-2.62,0-5.24,0-7.86,0-1.52.43-2.91,2.35-2.85s2.17,1.41,2.19,2.86C155.85,63.08,155.82,65.6,155.82,68.12Z"/><path d="M136.77,76.57c-.49.44-1.14,1.5-1.79,1.5a4.4,4.4,0,0,1-2.67-1.31c-.66-.64-.83-2.36-1.37-2.43a32.45,32.45,0,0,0-6.61,0c-.36,0-.66,1.13-.92,1.77-.56,1.35-1.26,2.59-3,2s-1.71-2-1.21-3.4c1.76-4.88,3.46-9.79,5.47-14.56a4.48,4.48,0,0,1,3.22-2.3A4.12,4.12,0,0,1,131,60c2,4.95,3.64,10,5.41,15.07C136.56,75.39,136.6,75.75,136.77,76.57Zm-9.09-6.73c2.06.45,2.51-.3,1.71-2.17-.51-1.2-.79-2.5-1.2-3.74a3.71,3.71,0,0,0-.45-.69,4.53,4.53,0,0,0-.36.64c-.44,1.29-.76,2.63-1.31,3.87C125.27,69.55,125.66,70.29,127.68,69.84Z"/><path d="M86.23,68c0-2.37,0-4.74,0-7.11,0-1.94.91-3,3-3a49,49,0,0,1,6.19.13c.86.13,1.58,1.27,2.36,2a10.6,10.6,0,0,1-2.3,2.07,5.17,5.17,0,0,1-2.69.1c-1.67-.21-2.28.57-1.88,2a2.35,2.35,0,0,0,1.44,1.4c1.05.28,2.28,0,3.27.35a2.82,2.82,0,0,1,1.57,2c0,.59-.9,1.53-1.6,1.78a7.62,7.62,0,0,1-3.13.2c-1.62-.16-1.61.77-1.64,1.94s.17,2,1.71,1.87a8.66,8.66,0,0,1,3.45.13c.78.26,1.82,1.21,1.84,1.89a2.6,2.6,0,0,1-1.71,1.95,40,40,0,0,1-8,0c-.72-.08-1.69-1.62-1.8-2.58A64.6,64.6,0,0,1,86.23,68Z"/><path d="M85.19,59.62c-.32,1.07-.45,1.66-.67,2.22-1.87,4.78-3.68,9.59-5.69,14.32-.38.89-1.55,2-2.35,2s-2-1.12-2.34-2c-2-4.72-3.86-9.52-5.76-14.29a6.21,6.21,0,0,1-.34-1c-.29-1.4,0-2.56,1.52-3s2.28.36,2.76,1.65c1.23,3.3,2.45,6.61,3.69,9.9a8.53,8.53,0,0,0,.57,1,6.89,6.89,0,0,0,.55-1c1.2-3.37,2.26-6.79,3.65-10.08a3.44,3.44,0,0,1,2.66-1.42C84.06,57.91,84.69,59.1,85.19,59.62Z"/></g></svg>