<svg id="Layer_1" data-name="Layer 1" xmlns="http://www.w3.org/2000/svg" viewBox="0 0 200 200"><g id="sngrhA.tif"><path d="M94.3,9h1.4c5.87,6.73,15,15.48,17.39,16.53,0-1.48-.1-2.89,0-4.26A4.54,4.54,0,0,1,114,18.7c2.26-2.36,4.55-4.29,8.36-4.24,16.47.21,33,.26,49.42,0,5.32-.09,9.92.55,13.25,5.1V33.61L153.05,66.38c1,1.05,1.73,1.91,2.54,2.73,4.3,4.31,8.59,8.63,12.92,12.91Q176.73,90.18,185,98.3v1.4a13.61,13.61,0,0,0-1.09.89q-15.16,15.14-30.32,30.3a6.44,6.44,0,0,0-.78,1.27l.46.65c1.32-.52,3.07-.68,3.88-1.63,2.07-2.45,4.56-3,7.52-2.81,1.63.11,3.28,0,4.92,0a6.84,6.84,0,0,1,6.55,8.87c-1.43,4.82-3,9.62-4.45,14.43-1,3.34-2,6.69-3,10.05.52.44.85.75,1.22,1,1.72,1.25,1.28,2.82.69,4.42s-1.36,3-3.39,3c-4.57,0-9.14.09-13.7,0-2.55-.07-3.33-1.23-2.83-3.67a22.51,22.51,0,0,1,.7-2.35c1.74-5.47,3.49-10.93,5.2-16.4.37-1.18.57-2.41,1-4.24-2,0-3.48,0-5,0-3,.05-3.06,0-4,2.86-1.45,4.45-2.8,8.94-4.27,13.38a3.59,3.59,0,0,0,.61,3.81c1.75,2.3-.29,6.44-3.2,6.58-4.21.19-8.43.16-12.65,0-2.44-.08-3.21-1.34-2.54-3.85s1.56-4.91,2.31-7.37c.35-1.14.59-2.32.89-3.47a42.91,42.91,0,0,0-7.58,7c-1.1,1.36-1.39,3.4-2,5.15a3.78,3.78,0,0,1-3.68,2.67,6.52,6.52,0,0,0-3.71,1.48c-5.77,5.65-11.4,11.45-17.08,17.2H94.3c-.3-.36-.56-.76-.89-1.09q-14-14.06-28.08-28.08a16.43,16.43,0,0,0-1.77-1.37c-.94.88-1.8,1.64-2.61,2.46-3.14,3.16-6.19,6.41-9.42,9.47a6.35,6.35,0,0,1-3.6,1.78,88.59,88.59,0,0,1-14.39-.1,14.87,14.87,0,0,1-7.35-3.72c-1.05-.92-1-3.43-1-5.22-.07-13.36,0-26.71,0-40.07,0-1.76,0-3.43-1.42-4.86C17.47,112.08,11.25,105.88,5,99.7V98.3C11.24,92.13,17.46,86,23.74,79.82c1.33-1.3,1.45-2.82,1.45-4.49,0-10.76,0-21.52,0-32.29,0-1.12-.19-2.24-.27-3.1-2.2-.61-4.24-.7-5.67-1.67-2.88-2-5-4.55-4.4-8.51a45.55,45.55,0,0,0,.05-6C15,18,18.5,14.45,24.2,14.45c17.31,0,34.63.07,51.94-.07,3.36,0,6.22.47,8.46,3.12.12.14.43.13.59.17ZM71.5,97.53l-.94-.43c-.07-1.48-.22-3-.22-4.44q0-27.59,0-55.17c0-.94,0-1.87,0-2.81,0-1.76,1-2.53,2.65-2.53,1.41,0,2.81,0,4.22-.07a2,2,0,0,0,2.2-2.15c0-1.88,0-3.75,0-5.62A2.23,2.23,0,0,0,77,21.88c-.82,0-1.64,0-2.45,0H27.46c-.82,0-1.64,0-2.46,0A2,2,0,0,0,22.73,24q-.07,3,0,6a1.9,1.9,0,0,0,2.09,1.9c.58,0,1.17,0,1.75.05,6.09,0,6-.74,6,6.22V158.32c0,1.17,0,2.34,0,3.51.14,2.3.64,2.87,3,3,2,.12,4-.13,6,.09,3.68.41,6.31-.89,8.9-3.61C62.6,148.49,75,135.84,87.33,123.2c3-3,5.84-6,7-10.28a6.11,6.11,0,0,1,5.18-4.72c2.68-.23,4.26-1.62,5.86-3.35s3.33-3.63,5-5.39q32-32.82,64.12-65.56a10,10,0,0,0,3.24-8.71c-.26-2.43-.44-2.71-3-2.86-.47,0-.94,0-1.41,0q-25.47,0-50.94-.06a10.42,10.42,0,0,0-2,.43c0,2.19-.07,4.28,0,6.37.1,2.54.54,3,3.21,3.05,3.16.08,6.32,0,9.48,0,1.1,0,2.2.12,3.3.18l.36.87C115.17,54.74,93.49,76.3,71.5,97.53Zm92.28,67.8c1.54-5.07,3-9.76,4.39-14.44,1.37-4.48,2.8-8.95,4.1-13.45,1.08-3.74-.08-5.17-4-5.26-1.06,0-2.12.07-3.17,0a6.82,6.82,0,0,0-5.94,2.27c-2.14,2.24-7.93,2-10.31-.16a8.72,8.72,0,0,0-11.88,0,7.6,7.6,0,0,1-10.39.1,11.89,11.89,0,0,0-2.45-1.94c-1.42-.7-9.34-.28-11.32.45l3.37,1c-3.65,10.95-7.26,21.73-11,32.82H116c-1.88-1.76-2-1.78-1.33-3.79,2.09-6.71,4.25-13.39,6.33-20.1a3.21,3.21,0,0,1,3.55-2.64c3.63.09,7.26,0,10.89.05a16.33,16.33,0,0,1,2.71.62c-2.64,8.66-5.21,17.06-7.88,25.81h9.38c-.12-1.06-.57-2.16-.3-3,2.18-7.17,4.53-14.29,6.75-21.45a2.9,2.9,0,0,1,3-2.36c3.63,0,7.27,0,10.9.06a9.32,9.32,0,0,1,2.44.84c-2.61,8.44-5.15,16.65-7.88,25.46h11.74ZM89,132.34l-.53.69c3.31.59,1.89,2.43,1.41,3.85-3,8.84-6.12,17.66-9.17,26.48-.36,1-.6,2.1-1,3.4h13.5l0-.52-3.64-.63c.39-1.43.65-2.65,1-3.81,2.9-8.51,5.84-17,8.75-25.51.39-1.16.62-2.36,1-3.95Zm7.13-12.48c2.54,1.16,5,.8,7.34.46A2.43,2.43,0,0,0,105,119c.91-2.11,1.87-4.24,1.48-6.62C98.66,110.41,97.47,112.59,96.14,119.86Z"/></g></svg>