<svg id="Layer_1" data-name="Layer 1" xmlns="http://www.w3.org/2000/svg" viewBox="0 0 200 200"><g id="EB2M9x.tif"><path d="M141.15,187.11c-11.39.7-22.78,1.7-34.19,2-7.59.21-15.2-.72-22.8-.85-16.15-.28-32.31-.39-48.46-.54-10.17-.09-8.7.79-8.79-8.67q-.11-11.17,0-22.34a13,13,0,0,0-2.13-7.66,89.42,89.42,0,0,1-2.24-94.47c1.79-3.07,4-5.79,4.59-9.68.51-3.53,5.11-3.42,7.48-5.95,35.19-37.65,94.72-37.49,130,.06,1.58,1.68,2.82,3.78,5.64,3.85.59,0,1.31,1.41,1.7,2.29,1,2.27,1.59,4.77,2.84,6.88,18.78,32,19,64,0,95.85A18.36,18.36,0,0,0,172,158.1c.17,8.16.09,16.34,0,24.51,0,5-.08,5.07-5.27,5.1-8.53,0-17.06,0-25.6,0ZM95,64.3c3.82,3.55,5.12,3.54,8.92,0,3,1,5.81,1.25,8.53-1a5.46,5.46,0,0,1,3.57-1.09c5.53.51,10.12-1.88,14.88-4.14,2.75-1.29,5.91-1.7,8.82-2.66,5.14-1.7,10.23-3.54,15.36-5.27,2.22-.75,4.47-1.41,6.74-2a5.18,5.18,0,0,1,1.56.07c-.45.41-.9.82-1.37,1.22a3.59,3.59,0,0,1-.47.27c-1.63,1-3.5,2-.12,3.23-.16.43-.24,1.18-.48,1.25-6.48,1.62-12.62,3.89-18,8a23.35,23.35,0,0,1-6.25,3.24c-5.59,2-11.24,3.82-16.91,5.57-2.19.68-4,1.33-4.35,4.06-1,7.38-6.2,14-4.2,22a1.82,1.82,0,0,1-.1,1.08c-1.23,2.89-.13,5.67.22,8.53a82.9,82.9,0,0,1,.88,13c-.17,4.69-1.32,9.33-1.63,14-.31,4.51-.78,9.18.06,13.54a46,46,0,0,1-.21,17.77c-.63,3.18-.87,6.44-1.25,9.66-.24,2,.7,3.34,2.06,4.75.93,1,5,1.12,1.64,3.95.36.26.73.76,1.08.74a24.7,24.7,0,0,0,4.3-.46c19.31-4.28,35-14.36,47.66-29.46a10.1,10.1,0,0,0,2.33-7c-.08-24,0-47.9-.05-71.85a10.19,10.19,0,0,0-.19-3.23,2.63,2.63,0,0,0-1.86-1.37,7.21,7.21,0,0,0-2.54.62c.29.66.56,1.33.88,2a8.25,8.25,0,0,0,.57.88c-.4.17-.82.51-1.21.48-5.49-.46-11-1.38-16.43.42-9,3-18.33.58-27.48,1a2.12,2.12,0,0,1-1.07-.17,17.88,17.88,0,0,1-1.66-1.12c.46-.65.78-1.66,1.4-1.9,2.67-1.07,5.56-1.65,8.14-2.9,3.7-1.77,7.55-3,11.53-2.24,9,1.62,18,1,27.06,1.23,2.25,0,2.91-.67,2.87-2.72-.06-3.44,0-6.89,0-10.34,0-9.32,0-9.36-9.32-9.37q-25.86,0-51.71,0c-.91,0-1.81,0-2.72,0-1.48,0-2.68.08-1,2,.76.86.93,2.24,1.38,3.38,1.67,4.22.09,8.09-1.3,12a6.34,6.34,0,0,1-8.2,0C93.22,58.39,92,53,96.16,47.73c.1-.12-.35-1-.6-1a23.58,23.58,0,0,0-3.26-.15q-26.4,0-52.8,0a36.9,36.9,0,0,0-4.34.26c-3.83.47-4.29.9-4.41,4.73s0,7.62,0,11.43c0,5.83,0,5.83,6.07,5.66a10.47,10.47,0,0,1,2.17,0c6.56,1.2,13-.11,19.48-.69a34.61,34.61,0,0,1,10.73.77c3.82.88,7.46,2.61,11.12,4.12.63.26,1,1.25,1.43,1.91-.55.38-1,1-1.65,1.1a22.42,22.42,0,0,1-4.32.48c-2.89,0-5.87-.61-8.65-.08a26.71,26.71,0,0,1-13.44-.8c-5.49-1.84-11-1-16.52-1.47a11.39,11.39,0,0,0-3.1.56c.51-.76,1.07-1.5,1.51-2.3.12-.22,0-.87-.21-.92a7.59,7.59,0,0,0-3.06-.65c-.57.07-1.23,1.08-1.45,1.8a9,9,0,0,0-.11,2.7c0,24,0,47.91-.06,71.86a10.77,10.77,0,0,0,2.63,7.42A85.88,85.88,0,0,0,76.9,182.72a56.32,56.32,0,0,0,8,1.29c.21,0,.77-1,.74-1-2.21-1.89.17-2.42,1-3a6.12,6.12,0,0,0,3.05-6.45c-.47-3.4-1.29-6.76-1.55-10.17-.35-4.68-.91-9.46-.27-14a65.7,65.7,0,0,0,.12-17.27c-1.14-9.32-2.88-18.68,0-28a14.79,14.79,0,0,0,.13-4.27c0-2.33-.07-4.66-.11-7A14.46,14.46,0,0,0,88,89c-1.45-4.84-3-9.65-4.7-14.42-.38-1.07-1.13-2.47-2.06-2.83-4.35-1.71-8.86-3-13.22-4.65-4.53-1.75-9.42-3.13-13.29-5.89C50,57.88,44.66,56.61,39.63,54.37c-1.36-.61-5.48.21-.65-2.15a2.19,2.19,0,0,0-.27-1.6,8.76,8.76,0,0,0-1.77-1.21c-.49-.37-.93-.81-1.39-1.22a4.69,4.69,0,0,1,1.57-.08q3.87,1.2,7.71,2.53c3.75,1.3,7.45,2.73,11.23,4,4.3,1.38,8.81,2.24,13,4,4.34,1.82,8.4,4.07,13.37,3.59a6.26,6.26,0,0,1,4.1,1.16C89.23,65.5,92,65.25,95,64.3ZM99,42.68q28.58,0,57.16,0a41.63,41.63,0,0,0,5.18-.64,30.26,30.26,0,0,0-3.13-4.17c-32.69-31.08-84.69-31.07-117.4,0a29.68,29.68,0,0,0-2.65,2.73c-1,1.21-.54,2,1,2s2.9.08,4.35.08ZM26.89,100.32q0-18.73,0-37.47c0-1.45,0-2.9-.11-4.34,0-.44-.44-.84-.68-1.26a4.52,4.52,0,0,0-1.2.93,34.44,34.44,0,0,0-1.84,3.31c-9.9,20-11.89,40.82-5.77,62.22,1.77,6.21,4.84,12,7.39,18,.23.55,1,.87,1.55,1.29a10.82,10.82,0,0,0,.61-2,22.21,22.21,0,0,0,.05-2.71Q26.9,119.34,26.89,100.32Zm145.19-.17c0,13.24,0,26.48,0,39.73a16.31,16.31,0,0,0,.6,3.1c.71-.74,1.46-1.44,2.12-2.22a6.73,6.73,0,0,0,.79-1.42q19.13-39.25,0-78.5a13,13,0,0,0-1.34-2.36,7.14,7.14,0,0,0-1.59-1.2,5.89,5.89,0,0,0-.52,1.51c-.08,1.44-.06,2.9-.06,4.35Q172.07,81.63,172.08,100.15Zm-72.68,84c1.63,0,3.27.08,4.9,0a17.87,17.87,0,0,0,2.83-.67,11.14,11.14,0,0,0-2.18-1.36c-1.29-.45-1.65-1.08-1.23-2.42,2-6.6,1.3-13.21,0-19.82a58.36,58.36,0,0,1-.9-5.88c-.41-4.32-.68-8.65-1.06-13s-.81-8.65-1.21-13c-.1-1.08-.12-2.17-.27-3.24a.75.75,0,0,0-1.45-.19,5.59,5.59,0,0,0-.29,1.59c-.8,9.74-1.55,19.48-2.4,29.21-.15,1.79-.74,3.54-1.05,5.31-1.09,6.26-1.89,12.54.09,18.77.39,1.22.41,2-1,2.58a12.8,12.8,0,0,0-2.36,1.72c1.06.13,2.13.32,3.2.37C96.49,184.16,97.94,184.11,99.4,184.11Zm50.43,0c4.89,0,9.78.06,14.67,0,3.59-.06,3.69-.14,3.74-3.66.08-6.15,0-12.32,0-18.48a22.4,22.4,0,0,0-.47-3.12,15,15,0,0,0-2.52,1.81,88,88,0,0,1-21.16,16.86c-3,1.69-6.14,3.1-9.18,4.69a9.37,9.37,0,0,0-1.59,1.32,6.45,6.45,0,0,0,1.83.57C140,184.12,144.94,184.1,149.83,184.11Zm-100.94,0c4.89,0,9.78,0,14.67,0a12.75,12.75,0,0,0,2.11-.36,11.2,11.2,0,0,0-1.85-1.68c-4.58-2.55-9.53-4.57-13.72-7.64-5.81-4.26-11.06-9.29-16.55-14-.66-.57-1.38-1.07-2.08-1.6a12.58,12.58,0,0,0-.72,2.87c-.06,6.34.05,12.68-.06,19-.05,2.63,1,3.49,3.53,3.43C39.11,184,44,184.1,48.89,184.1Z"/><path d="M114.19,112.21a7.45,7.45,0,0,1,1.19,1.44c1.64,4,3.38,8,4.8,12.09a48.83,48.83,0,0,0,7.88,14.72c2.73,3.45,4.32,7.86,6.1,12,1.06,2.47,1.37,5.25,2.23,7.82,1.55,4.56,2.76,5.35,7.53,5.38.91,0,1.82-.13,2.72-.08a10.18,10.18,0,0,1,1.84.48,5.6,5.6,0,0,1-.8,1.34,33.77,33.77,0,0,1-3.29,2.8c-1.57,1.13-3.26,2.08-4.86,3.18-2.11,1.45-3.38,1.1-3.94-1.3a41.22,41.22,0,0,0-10.48-19.87,26.35,26.35,0,0,1-2.89-4.54c-2.46-4-4.74-8.07-7.44-11.87-1.44-2-2.43-3.84-2.18-6.41.51-5.22.76-10.47,1.14-15.7A7.49,7.49,0,0,1,114.19,112.21Z"/><path d="M54.44,165.66c5.47,0,6.59-.73,8.26-5.86.78-2.41,1.33-4.89,2-7.33a31.71,31.71,0,0,1,7.09-13.29c3.68-3.94,5.36-8.93,7.08-13.93,1.4-4.09,3.26-8,5-12,.12-.3.48-.5.73-.75.21.38.59.74.62,1.12.4,5.42.7,10.85,1.16,16.26a6.63,6.63,0,0,1-1.85,5.43,37.78,37.78,0,0,0-8,12.81,11.93,11.93,0,0,1-2.63,4.07A40,40,0,0,0,63.42,172c-.38,1.73-1.35,2.89-3,1.89-3-1.84-5.87-4-8.73-6.12a6.34,6.34,0,0,1-1.21-1.71c.77-.17,1.54-.38,2.33-.48A9.94,9.94,0,0,1,54.44,165.66Z"/></g></svg>