<svg id="Layer_1" data-name="Layer 1" xmlns="http://www.w3.org/2000/svg" viewBox="0 0 200 200"><g id="MVeKih.tif"><path d="M51.34,123.71c-1.21,3.74-2.28,7-3.34,10.33-1.85,5.78-1.25,7.42,3.52,11.17,8.93,7,19.16,11.06,30.2,13.07a92.38,92.38,0,0,0,47.3-3.21A55.32,55.32,0,0,0,149,143.36a6.47,6.47,0,0,0,1.94-7.3c-1.29-4-2.52-8-3.88-12.3,1.17-.06,2.23-.15,3.28-.16,2.54,0,5.08,0,7.62,0,6.28,0,9.83,2.64,11.61,8.71q4.34,14.8,8.62,29.63c1.82,6.31,3.75,12.59,5.33,19S182.06,191,175.37,191H23c-6.46,0-9.39-3.22-7.91-9.53,1.85-7.84,4.25-15.56,6.47-23.32,2.42-8.44,4.92-16.87,7.35-25.31,1.9-6.55,5.28-9.13,12-9.13Z"/><path d="M127.45,67.27l6.06,18.19c1.86,5.56,3.64,11.14,5.61,16.66A3.14,3.14,0,0,1,138,106a51.19,51.19,0,0,1-28.41,13.09,81.48,81.48,0,0,1-23.85-.45c-1.68-.29-1.86-1.07-1.62-2.44q3.32-18.6,6.6-37.21c.24-1.35.77-2.2,2.35-2,11.58,1.85,21.91-1.36,31.42-7.84Z"/><path d="M86,35l-3.63-1.7c1.15-3.57,2.16-7.12,3.44-10.57a50.69,50.69,0,0,1,3.71-8.46c4.5-7.57,15.2-7.7,19.29.07,3,5.62,4.67,11.9,6.87,17.91a1.68,1.68,0,0,1-.58,1.5,36.88,36.88,0,0,1-14.65,4.36c-1.92.12-2.33-.7-2-2.43.86-4.43,1.85-8.86,2.35-13.33A15.1,15.1,0,0,0,100,15.4c-1.19-3.08-4.42-3.31-6.39-.63a19.17,19.17,0,0,0-2.45,4.84c-1.51,4.26-2.83,8.58-4.25,12.87C86.71,33.21,86.41,33.92,86,35Z"/><path d="M62.7,107.37c-3.73-1.74-4.19-2.71-3.08-6Q64.8,85.78,70,70.21c.29-.88.68-1.72,1-2.58,3.86,1.65,4,1.94,2.87,5.4Q68.71,89,63.54,105C63.28,105.76,63,106.55,62.7,107.37Z"/></g></svg>