<svg id="Layer_1" data-name="Layer 1" xmlns="http://www.w3.org/2000/svg" viewBox="0 0 200 200"><g id="Timt96"><path d="M122.75,167.9c-6.08,0-12.17,0-18.26,0-7-.08-11.11-3.57-12.51-10.47-.74-3.7-1.46-7.41-2.23-11.1-.7-3.34-3-5.35-5.82-5.25s-4.4,1.82-4.92,5.32-1,7.12-1.4,10.7c-.79,6.76-4.69,10.67-11.42,10.76-11.06.16-22.14.24-33.2,0-10.72-.25-18-7.76-19.54-19.24A295.84,295.84,0,0,1,11.15,108a22.66,22.66,0,0,1,4.56-13.35A64,64,0,0,1,41.86,73.55a6.19,6.19,0,0,0,2.08-1.24C54,61.18,66.85,54.47,80.71,49.54c27.38-9.73,55.32-11,83.6-4.73A44.84,44.84,0,0,1,176,49.57c9.11,5.06,13,13.55,14,23.48,1.76,17.35-.62,33.84-10.45,48.73a6.49,6.49,0,0,0-.66,2.88c-.7,7.43-.86,15-4.91,21.63-8.34,13.69-20.31,21.31-36.56,21.6C132.53,168,127.64,167.9,122.75,167.9ZM82.82,100.53H23.88c-4.59,0-5.88,1.28-6.15,5.84A210.26,210.26,0,0,0,20,149.64a13.58,13.58,0,0,0,13.77,11.87q15.92.06,31.82,0c3.79,0,5.32-1.38,5.83-5.17.46-3.47.88-6.95,1.29-10.43.79-6.62,4.8-10.83,10.61-11.12,6.29-.31,11.19,3.63,12.54,10.13.78,3.79,1.49,7.59,2.27,11.38s2.53,5.2,6.31,5.21q16.18,0,32.38,0c7.17,0,12.17-4.69,12.84-11.79a192.49,192.49,0,0,0-1.05-42.78c-.64-5-2.19-6.41-7.12-6.41ZM24.14,94.09H114.4c9.41,0,18.82,0,28.23,0,6.11,0,11.05,4,11.87,9.91a191.13,191.13,0,0,1,1.95,37.79c-.3,5.05-1,10.08-1.46,15.2,9.08-5.82,15.77-13.33,16.85-24.73.23-2.47.58-4.94.74-7.42.73-11.38.4-22.7-2.56-33.78A73.48,73.48,0,0,0,166.79,83c-3.11,3.53-5.63,6.47-8.24,9.32-1.81,2-4.49,2-5.2-.15a5.32,5.32,0,0,1,.78-4.17c2-2.78,4.44-5.26,7.11-8.33-2.4-.17-4.11-.4-5.83-.41q-54.37,0-108.76,0a7.4,7.4,0,0,0-3,.37C36.4,83,30.28,87.86,24.14,94.09ZM170.29,78c.57-2.81,1-5,1.43-7.1a3.86,3.86,0,0,0-2.39-4.71c-3-1.33-6-3-9.14-3.78-13.42-3.41-27.05-3.33-40.67-1.57C108,62.36,97,65.39,86.85,71.34a21.27,21.27,0,0,0-2,1.58h3.65c22,0,43.91,0,65.87,0C160,72.85,165.38,73.62,170.29,78Zm-.43-19c-2.82-5.36-6.57-8.43-11.92-9.33C138,46.39,118.1,46.33,98.35,50.94c-15.38,3.59-29.87,9.34-42.58,19-1,.78-2,1.69-3.43,3,7.54,0,14.26,0,21-.06a5.25,5.25,0,0,0,2.36-1.13c5-3.14,9.65-6.82,14.89-9.38,11.24-5.48,23.42-7.76,35.81-8.53C140.88,52.9,155.33,53.16,169.86,59.05Zm9.83,49.1c-.23.3,0,.12.07-.12a71.16,71.16,0,0,0,3.36-38.62,19.84,19.84,0,0,0-7.18-12.15c3,9.2,2.63,17.64-1.17,25.88A3.17,3.17,0,0,0,174.7,85C176.36,92.81,178.06,100.61,179.69,108.15Z"/><path d="M129.21,126.89c0,2.8,0,5.37,0,7.93,0,1.58-.56,3.05-2.22,2.72a3.67,3.67,0,0,1-2.17-2.75q-.27-11.86,0-23.75c0-1,1.3-2.72,2.16-2.84a28.63,28.63,0,0,1,8.47,0,8,8,0,0,1,6.7,6.55c.81,4-.46,7.24-4,9.86,1.39,3.07,2.77,6.14,4.19,9.2.66,1.44,1.18,2.94-.69,3.74s-2.68-.43-3.36-1.93c-1.38-3.1-2.84-6.17-4.3-9.32Zm.18-4.53c3.18-.17,6.13-.42,7.84-3.37a4.09,4.09,0,0,0-.53-5.13c-2.08-2.2-4.63-2.27-7.31-1.45Z"/><path d="M110.11,128.06l5.07-16.6c.19-.61.2-1.43.62-1.8a20.7,20.7,0,0,1,2.87-1.85c.44,1,1.46,2.25,1.23,3.11-1.71,6.21-3.68,12.35-5.56,18.52a51.78,51.78,0,0,1-1.93,6,3.79,3.79,0,0,1-2.43,2.06c-.69.08-2-1.08-2.24-1.93q-3.94-12.38-7.53-24.85a3.2,3.2,0,0,1,1.17-2.81c1.46-.73,2.59.13,3.07,1.76,1.53,5.12,3.11,10.22,4.67,15.33C109.36,125.83,109.63,126.61,110.11,128.06Z"/></g></svg>