<svg id="Layer_1" data-name="Layer 1" xmlns="http://www.w3.org/2000/svg" viewBox="0 0 200 200"><g id="DUfmvf"><path d="M17.35,144.43c-1.65-3.7-4.25-6.47-7.12-9.41A39.06,39.06,0,0,1-.6,114.68C-1.95,107.6-.07,101.59,1.5,95c1.33-5.54,3.34-10.86,4.55-16.35,1.13-5.13,2.67-9.54,7-12.78,1.08-.82,1.71-2.22,2.6-3.3.68-.84,1.32-2.1,2.2-2.33,5.75-1.55,10.47-5.29,16-7.28,3.71-1.34,7.61-2.18,11.39-3.34a12.68,12.68,0,0,0,7.46-5.38c1.31-2.15,3-3.1,5.53-2,2,.92,2.46.1,2.07-1.85-.1-.48.48-1.09.71-1.65,1.85-4.63,1.84-4.63-2.73-7a4.92,4.92,0,0,1-1.61-.94A19.93,19.93,0,0,1,55,28.37a16.27,16.27,0,0,1,2.56-.49c.76,0,1.54.4,2.3.36,1.82-.11,2.48-.86,1.6-2.77-1.45-3.11-.83-5,1.68-7.15a15.13,15.13,0,0,0,3.29-3.68c3-5.16,7.16-8.72,13-9.91,8.11-1.64,15.93-1.63,22.46,4.65a3.61,3.61,0,0,0,2.4,1c7.72-.48,27.33,3.35,33.85,6.72l0,.05c-6.71-1.48-13.41-3-20.14-4.41a27.41,27.41,0,0,0-9.78-.29c3.28,4,6.91,5.69,11.38,5.84a27.18,27.18,0,0,1,5.07,1c49.23,11.24,77.37,57.88,68.57,104a88.69,88.69,0,0,1-88.54,72.95c-32.29-.71-57.17-14.67-75-41.24-3.71-5.51-7.13-11-13.06-14.93l1,4.21ZM143,162.91l.35,1.58c.07-.11.22-.26.19-.32-.19-.4-.42-.77-.65-1.16-.28-1.19-.56-2.38-.85-3.57l-.17-.17.26.13Zm14-.73a8.73,8.73,0,0,0,2.87,6.25C159.94,165.3,159.36,163.31,157,162.18Zm3.74-16.92a1.22,1.22,0,0,0-.1-.34s-.17,0-.26,0l.44.31L165,152c.11-.12.33-.3.31-.33C163.81,149.51,162.26,147.39,160.72,145.26Zm-1.82-44.34c.3-.36.6-.72.91-1.07.94-1.11,3-2.1,1.43-3.75-.6-.66-2.55-.41-3.76-.1-5.9,1.51-8.29,6.81-11.79,10.93a8.76,8.76,0,0,0,3.07-2c2.57-2.29,5.09-4.62,7.71-6.86,1.34-1.13,2.26-.85,2.36,1.06,0,.62.13,1.24.2,1.86l-3.32,2.39-8.63,6.48c-1.56,1.18-2.35,3-5.35,1.69-2.83-1.19-3.5-.55-2.37-3.39s2.8-5.32,3.54-8.16c1.79-6.81,3.38-13.69,4.64-20.62a85.82,85.82,0,0,0,1-12.64c.07-2.42-1.56-3.62-3-2.63s-3.61,8.28-3.06,10.74a9.84,9.84,0,0,1,.9-1.84A19.19,19.19,0,0,1,145,71.4c.36.77,1.15,1.62,1,2.3-1.83,9.85-3.64,19.7-5.81,29.48a12.68,12.68,0,0,1-3.74,5.8c-.6.59-2.89-.93-4.09-.53-2.07.69-2.41-.06-2.65-1.75-.94-6.67-1.72-13.37-3-20-1.18-6.12-2.8-12.17-4.43-18.2a10.14,10.14,0,0,0-2.48-3.9c-.38-.41-1.59,0-2.43,0,.22.63.26,1.55.7,1.83,2.46,1.59,3.38,4,4,6.66,1.15,4.72,2.61,9.39,3.33,14.17,1,6.81,1.54,13.7,2.19,20.56.06.62-.45,1.3-.7,2a12.27,12.27,0,0,1-1.75-1.34,11.82,11.82,0,0,1-.9-1.65c-.38-.59-.84-1.14-1.26-1.71a13.3,13.3,0,0,0-.38,2c0,.62.31,1.27.21,1.86-.27,1.64-.54,3.51-2.77,1.37-1.26-1.2-1.85-.86-1.83.87a35.63,35.63,0,0,1-.32,3.57c-5-5.4-9.49-10.22-14-15-1.22-1.28-1.19-2,.1-3.41,1.73-1.84,1.09-3.8-1.2-4.71-2.12-.84-3.91-.22-5.6,1.29-4.32,3.87-8.75,7.62-13.1,11.47a8.75,8.75,0,0,0-2.42,2.79,3.85,3.85,0,0,0,.37,3,2.52,2.52,0,0,0,2.32.77c4.74-3.06,9.38-6.27,14-9.52.29-.21.13-1.08.17-1.64-.56,0-1.21-.26-1.68-.06-1.4.57-2.74,1.31-4.1,2l.1.1c1.5-1.54,3-3.11,4.5-4.62,2-1.93,1.89-1.87,2.84.6a10.14,10.14,0,0,0,1.94,2.6q6.13,7.35,12.29,14.68l.07.08c-1,1.13-1.86,2.92-3.09,3.25-3.25.86-2.47,1.56-.33,2.86,3.46,2.1,3.48,3.32.31,5.93a5.59,5.59,0,0,0-.88,1.42c3.8,2.24,1.81,5.43,1,8.07-.56,1.77-.57,1.95,1.23,2.25,2.78.47,3.18,1.39,1.91,3.74a32.73,32.73,0,0,1-3.19,4.65q-4.92,6.27-10,12.43c-1.86,2.27-4,4.33-5.69,6.68a13.54,13.54,0,0,0-1.52,4.15c0,.13.92.76,1,.68a18.5,18.5,0,0,0,2.88-2.78c6.25-8.39,12.44-16.83,18.68-25.23.36-.49,1.16-1.61,1.31.11.22,2.57.58,2.37,1.52.23.56-1.26,1-.12,1.69.06,5,1.26,5.44,4.46,4.44,8.62-.1.39.18.87.48,2.09.37-1.42.57-2.1.73-2.79a21,21,0,0,1,1.08-4.55,5.28,5.28,0,0,1,2.65-2.29c.31-.13,1.41,1.28,1.94,2.12a7.19,7.19,0,0,1,.66,2.24q1.89,8.94,3.77,17.89c.46,2.13.86,4.29,1.51,6.36a1.64,1.64,0,0,0,3.19-.45,27.26,27.26,0,0,0-1-5c-2-7.07-4.18-14.1-6.09-21.19-.23-.85.71-2,1.11-3,3.13,2.27,2.28-1.23,3.18-2.21v0c2.4,1.66,3.59,4.14,4.56,6.78.87,2.35,1.66,4.74,2.71,7a21.14,21.14,0,0,0,2.5,3.39c-.05-1.45.31-3.06-.21-4.31-1.6-3.91-3.54-7.67-5.32-11.5a7,7,0,0,1-.33-1.29,6.09,6.09,0,0,0,1.53.54,3.74,3.74,0,0,0,1.29-.42c-1.27-1.64,2.05-3.09.13-4.92-.73-.71-.51-1.81,1.07-1.54a15.34,15.34,0,0,0,2.15.08,19.68,19.68,0,0,1-1.5-2,7.92,7.92,0,0,1-.56-1.64c.59-.12,1.24-.46,1.76-.32,1.2.32,2.33.9,3.5,1.34,2.49.92,5,2.55,7.5,2.6,6.36.1,10.27,3.81,14,8.15.71.83,1.29,1.78,2.07,2.54a8.41,8.41,0,0,0,1.87,1.09c0-.85.42-1.86.09-2.51-1.64-3.25-3.63-6.36-7.15-7.81-4.32-1.78-8.75-3.31-13.17-4.85a29.65,29.65,0,0,0-6.32-1.73c-2.78-.32-1.35-2.73-2.32-3.88a8.65,8.65,0,0,1,2.05-1.63c3.66-1.38,7.38-2.61,11-4,.42-.16.65-.81,1-1.23-.4-.2-.84-.6-1.22-.55a20.59,20.59,0,0,0-3.17.76c-2.84.87-5.74,1.61-8.49,2.74-2.1.86-2-1.45-3.19-1.77.57-.66,1-1.62,1.74-1.94,3-1.31,6.07-2.5,9.16-3.6,4-1.42,8-2.71,12.36-4.16-4.11-2.32-7.18-1.14-10.52.73-3.66,2-7.72,3.4-11.65,5-.46.19-1.53,0-1.62-.28-.28-.86-.64-2.11-.23-2.68.79-1.1,2.13-1.79,3.17-2.73,2.41-2.21,4.77-4.47,7.16-6.71C158.19,103.85,159.19,102.89,158.9,100.92ZM77.78,127.39A19.25,19.25,0,0,1,80.57,124c3.17-2.45,4-4,2.34-7.49A29.33,29.33,0,0,0,78,109.14c-2.48-2.72-10.23-2.84-12.09-.4a42.79,42.79,0,0,0-7.14,15.46c-.74,2.85,0,4.12,2.71,5a59.38,59.38,0,0,0,5.92,1.44c1.66.34,3.59,1,4.45-1,.14-.34-2.12-1.68-3.27-2.57s-2.4-1.9-3.61-2.85a34.43,34.43,0,0,1,4.17,1.36c2.8,1.29,5.4,3.33,8.75,1.71-2.13,4.34-6.35,7.14-10.87,6.33-3-.53-3.78.44-4.5,3-.63,2.24-2,4.29-3,6.42l-.64-.29c.19-1.56.38-3.12.58-4.69-4.77,7.31-7.38,15.26-9.07,23.54a2.91,2.91,0,0,0,.78,2.43c4.15,3.11,9.16,2,12.18-2.59,3.63-5.48,3.65-5.54,9.75-3.45,2.19.75,4.21,1.11,6.31-.15,1.14-.68,1.16-1.29.15-2.07-1.39-1.07-4.1-1.53-3.14-3.84.37-.9,3-1,4.63-1.22,4.73-.79,5.78-1.88,6-6.78.13-3.13.23-6.27.1-9.4,0-.77-1.08-2.14-1.62-2.12-1.86.06-1.93-.48-1-1.76,4.33-5.93,8.89-11.71,10.59-19.18a8.47,8.47,0,0,1,0,4.13c-1.43,4.62-2.84,9.26-4.61,13.75-1.53,3.89-1.37,5.36,1.81,8.61.32.33.22,1.35,0,1.9-1.49,3.35-1.42,3.53,2.18,3.62a24.84,24.84,0,0,0,3.76-.14c3.15-.4,6.23-1,8.41-3.64a5.21,5.21,0,0,0,.56-1.64c-.57-.11-1.26-.47-1.71-.28-1.87.79-3.62,1.88-5.52,2.59-.67.25-1.63-.26-2.46-.42.39-.63.62-1.48,1.18-1.85,2-1.3,4.09-2.33,6-3.66,1.24-.84,1-2.31-.43-2.24-3.38.16-6.91-2.19-10.21.52-.34.27-1.49-.45-2.26-.71.4-.59.68-1.4,1.23-1.72s1.56-.17,2.27-.45c1.82-.71,4.15-1,2.59-4.15-.4-.8.64-2.52,1.32-3.62,1.32-2.11,3-4,4.23-6.15.41-.7.29-2.49-.18-2.77-2.13-1.25-1.8-2.72-1.46-4.78.56-3.32-1.94-5-5-3.44-5.89,2.93-10.93,6.49-11.78,13.94-.23,2-2.25,3.9-3.7,5.64A23.28,23.28,0,0,1,77.78,127.39Zm8.4-98.91A33.34,33.34,0,0,1,82.76,27c-1.51-.81-2.54-.75-3.36,1-4.33,9.11-8.85,18.13-13,27.32-.87,1.93-.39,4.47-.53,6.73v-.11c-.92.51-2.78.41-1.49,2.34.44.64.76,1.36,1.2,2a20.64,20.64,0,0,0,12.91,8.54c.72.17,1.29,1,1.93,1.54a7.44,7.44,0,0,1-1.56,1.56c-2.18,1.18-4.44,2.2-6.64,3.34-1.29.67-2.52,1.38-3.72-.11l-.11.13c1.27-.92,2.57-1.8,3.81-2.76a1.39,1.39,0,0,0,.52-1.11c-.1-.32-.74-.79-1-.72C68,77.75,66.69,75,65.34,72.55c-2.15-3.81-4-7.78-6.08-11.64a40.3,40.3,0,0,0-2.47-3.65c-.64,1.53-1.29,3.05-1.92,4.58a.83.83,0,0,0,0,.46c1.07,3.54-1.77,5.41-3.39,7.77-.25.38-1.05.5-1.6.49-.18,0-.49-.79-.49-1.22a72.67,72.67,0,0,1,.19-7.53c.41-3.7-2.48-5.54-4.24-8-.21-.29-1.94-.06-2.28.41a4.72,4.72,0,0,1-5.31,2,2.63,2.63,0,0,0-2.24,1.16c-.79,2-2.19,1.84-3.84,1.66a11.54,11.54,0,0,0-3.26.23c-2.25.42-3,2.26-4.18,4-.89,1.28-3.86,1-5,2.23a107,107,0,0,0-7.56,9.59C9,78.64,9,82.37,11.35,86a65.19,65.19,0,0,0,4.05,5.12C9.14,91.52,7.15,95,10.24,100a10.48,10.48,0,0,0,3.61,3.58,52.11,52.11,0,0,0,6.93,2.88c1.66.64,3.34,1.19,5.78,2C22.33,110,19.08,111,16,112.26a7.47,7.47,0,0,0-4.73,5.5c-.28,1.33.29,2.25,1.8,1.78,1.18-.37,2.25-1.09,3.42-1.54a26.09,26.09,0,0,1,4.86-1.6c.92-.15,2,.46,3,.72A15.76,15.76,0,0,1,23,119.46c-.64.87-1.73,1.51-2.13,2.46s-.06,2,0,3a7.86,7.86,0,0,0,2.74-.56c2-1.29,3.75-2.86,5.67-4.21,1.22-.86,2.76-2.53,2.31,1.1-.23,1.85.7,3.9,1.31,5.79.76,2.4,2.5,2.9,4.76,1.45.93-.59,1.74-1.34,2.61-2,3.35-2.53,3.17-2.43,4.27,1.47a101.19,101.19,0,0,0,4.27,11.33c.28.65,1.38,1,2.1,1.42,0-1,.41-2.16,0-2.86a18.09,18.09,0,0,1-2.75-11.23,32.74,32.74,0,0,1,1-5.55c.62-2.28-.56-3-2.39-2.78a13.53,13.53,0,0,0-4.32,1.64c-1.24.66-2.26,1.7-3.46,2.44a9.17,9.17,0,0,1-2.15.69,8,8,0,0,1-.32-2.28c.24-1.54.71-3,1.06-4.56.63-2.73-.1-3.81-2.86-4.08-1.25-.12-2.6.25-3.74-.11a4.94,4.94,0,0,1-2.66-2.15c-.24-.47.78-1.67,1.33-2.47a25.43,25.43,0,0,0,2.2-2.84c.92-1.81,1.58-3.76,2.36-5.65l1,0c-.95,4.2,1.56,5.43,4.61,6.37,1.3.41,3,1.1.53,2.65-.65.42-1.2,2.29-.87,2.66a4.11,4.11,0,0,0,3,1.23c3.1-.25,6.17-.89,9.26-1.26.88-.11,2.26-.14,2.63.37,1.66,2.23,2.78.84,4.13-.27a35.87,35.87,0,0,1,13.34-6.73c2.67-.75,5.2-2,7.8-3,.15.27.23.6.45.77a9.94,9.94,0,0,0,1.29.8l.64-1.1c-.53-.12-1.06-.25-1.6-.34a5.4,5.4,0,0,0-.9,0c4.15-2.1,8.27-4.21,11.63-7.59,2.55-2.57,2.65-2.43.39-5.53a11.63,11.63,0,0,1-1-2,2.61,2.61,0,0,1,1.9.9c1.61,2,3.12,3.14,5.82,1.25,1.16-.82,3.27-.6,4.89-.38,2,.27,2.31-.59,1.83-2.06-1-2.95-2.06-5.86-3.2-8.75-1.5-3.82-1.85-4-5.92-3.48-.62.08-1.24.13-1.87.2l.1.06a35.51,35.51,0,0,1,2.37-3.9,107.06,107.06,0,0,0,16.42-28.41,18.39,18.39,0,0,0,1.57-7.71c-.38-4.65-1.59-9.24-2.4-13.86-.45-2.53-2-3.55-4.43-4.13-3.8-.91-7.53-2.17-11.23-3.44-6-2-9-.88-11.81,4.65-3.29,6.58-3.27,6.69,1.5,11.72ZM47.81,151.17c-.53-.49-1.13-1.51-1.74-1.52-3.54-.07-7.17-.32-10.61.33-2.6.49-3.16,4.32-1,5.93a63.65,63.65,0,0,0,8.46,5,2.3,2.3,0,0,0,2.09-.83C46.07,157.25,46.84,154.38,47.81,151.17ZM153,140.81l-.95.55c2.32,4.11,4.62,8.24,7,12.33.22.38,1,.47,1.47.7.06-.59.33-1.26.14-1.75A36.09,36.09,0,0,0,153,140.81Zm21.21-14.75c3.6.51,7.19,1.06,10.8,1.48.57.07,1.21-.46,1.82-.72-.44-.37-.85-1-1.33-1.09C181.69,125.18,177.91,124.45,174.16,126.06ZM131.85,79l-1.6,0,1.14,11.84,1.28-.11ZM143,80.09a13.71,13.71,0,0,0-3.18,12C141,87.7,142,83.9,143,80.09Zm10.39,89.74a9.35,9.35,0,0,0-.5-2c-.61-1.19-1.35-2.31-2-3.46,0,1.25-.12,2.5-.07,3.75a3.82,3.82,0,0,0,.49,1.8,9.14,9.14,0,0,0,1.5,1.48Zm-39-92.56-.8.21a33.28,33.28,0,0,0,.06,4.58,9.13,9.13,0,0,0,1.3,2.59,10.72,10.72,0,0,0,.49-3A33,33,0,0,0,114.41,77.27Zm63.36,31.4c-1.45-.28-2.34-.68-3.1-.51-.5.11-.81,1.06-1.2,1.64.6.25,1.29.82,1.77.68A10.75,10.75,0,0,0,177.77,108.67Zm-17.58-21.8,3.1-1.62c-.45-.34-1.08-1.07-1.31-1a24.75,24.75,0,0,0-3,1.85Zm-41.58,66c-.64-.13-1.44-.52-1.71-.29a4.89,4.89,0,0,0-1.37,2.08c-.1.27.56.81.87,1.23ZM53.33,131.64c.61-.93,1.07-1.35,1-1.56A26.5,26.5,0,0,0,53,127.34c-.21.32-.64.68-.6.95C52.57,129.23,52.9,130.14,53.33,131.64Zm99.43-65.16-1.47-1.69c-.25.31-.75.69-.69.92a10.26,10.26,0,0,0,.93,1.88ZM124.1,175.86l-.95-.21L123,179.1l.81,0Zm45-9.83c-.59-.54-1-1.11-1.17-1.05a3.09,3.09,0,0,0-1.15,1.09c-.06.11.55.89.76.85A5.91,5.91,0,0,0,169.05,166Zm-63.53,8.46-.76-1.27c-.32.4-.78.76-.9,1.21-.08.29.34.71.54,1.08Zm56.93-14.63a10.44,10.44,0,0,0,1-2.39c0-.23-.55-.47-.86-.71a4.46,4.46,0,0,0-.85,1.28C161.63,158.36,162,158.79,162.45,159.86ZM93.5,153.52c.73-.8,1.24-1.29,1.65-1.85.08-.11-.19-.49-.3-.75A12.83,12.83,0,0,0,93,152C92.93,152,93.24,152.67,93.5,153.52Zm68.24-28.27-1.43,1.26c.36.34.71.93,1.09,1s1-.41,1.45-.65ZM152,82l1,.66a5.15,5.15,0,0,0,.18-1.34,9.58,9.58,0,0,0-.41-1.55c-.33.25-.85.44-.94.75A4.52,4.52,0,0,0,152,82Zm-40.19,96.73c-.89-.38-1.46-.78-1.61-.65a4.19,4.19,0,0,0-1,1.39c0,.08.43.6.5.56A24.76,24.76,0,0,0,111.85,178.72ZM136.4,67.35a4.76,4.76,0,0,0-1.18-.45c-.17,0-.39.36-.58.56l1.34.79ZM109.91,93.22a20.59,20.59,0,0,0,1.79,1.16c.06,0,.52-.47.47-.58a3.75,3.75,0,0,0-.85-1.32C111.23,92.39,110.66,92.82,109.91,93.22Zm54.12,0,.87-.42a6.12,6.12,0,0,0-.79-1c-.06-.06-.45.22-.69.35ZM137.41,72.72a4.65,4.65,0,0,0-.25,1.16c0,.12.44.23.68.34l.5-1.11Zm39.5,60.2c-.12-.22-.2-.58-.39-.66s-.48.15-.73.24l.6,1Zm-55.15-32.37c.08-.28.26-.59.2-.83s-.42-.26-.65-.39c-.09.27-.29.58-.22.8S121.52,100.42,121.76,100.55Zm-.87,64.9c.12-.27.32-.52.31-.77s-.36-.26-.56-.39c-.1.24-.3.5-.28.72S120.7,165.31,120.89,165.45Zm-14.17-37.2c-.12,0-.29,0-.34.11a1.13,1.13,0,0,0-.1.42l.64-.16Zm45.78-8c-.1-.11-.23-.33-.3-.31a3.6,3.6,0,0,0-.73.32,5.62,5.62,0,0,0,.73.3C152.27,120.56,152.4,120.34,152.5,120.23Zm19.69-2a4.43,4.43,0,0,0-.8-.27c-.06,0-.26.32-.23.35s.37.44.57.44S172,118.44,172.19,118.26ZM97.4,149.52l-.24-.28c-.1.08-.26.16-.26.25s.14.18.22.28Zm31.1,25.36-.31-.18,0,.32Z"/><path d="M91,53.8c-4.08.14-7.54-1.63-10.94-3.57-1.58-.9-2.23-2-1.21-3.79,1.22-2.17,2.22-4.46,3.31-6.7.71-1.46,1.64-2.23,3.32-1.29,6.37,3.55,13.35,5.06,20.48,6,2,.28,2.4,1.14,1.26,2.78l.11,0a31.09,31.09,0,0,0-3.78-1.47C98.41,44.53,93.15,43.61,88.13,42c-2.81-.92-4.08-.31-4.94,2.24A15.53,15.53,0,0,1,82,46.76c-1,1.78-.46,3,1.31,3.74l7.6,3.39Z"/><path d="M35.15,90.38a79.49,79.49,0,0,1-7.1-19.95A2.54,2.54,0,0,1,28,69a6.51,6.51,0,0,1,1-1.41c.34.26.84.45,1,.8a34.12,34.12,0,0,1,2.59,6c1.34,5.21,2.39,10.49,3.56,15.73Z"/><path d="M68.53,81.14c-2.34-1.06-4.91-1.82-7-3.28a92,92,0,0,1-7.77-6.8,10.59,10.59,0,0,1,1.12-1.2c3.51-3,3.37-2.86,5.86.93,2.36,3.61,5.08,7,7.65,10.48Z"/><path d="M26.71,104c-3-1.09-6.38-2.25-9.68-3.52-.43-.17-.65-.9-1-1.37a7.61,7.61,0,0,1,1.46-.89c4.23-1.42,7.5.62,10.59,3.1a6.44,6.44,0,0,1,1.12,1.86Z"/><path d="M38.64,77.85c2.78,5,2.89,10.27,2.31,15.58-.1,1-1.28,1.84-2,2.76-.58-.46-1.71-1.23-1.65-1.34C40.34,89.35,38.81,83.55,38.64,77.85Z"/><path d="M68.16,95.46q.42-4.71.82-9.42c3,3.4.41,6.36.13,9.5Z"/><path d="M66,83.67c.53.75,1.13,1.23,1.08,1.61s-.7.81-1.09,1.21c-.38-.41-1-.78-1.06-1.23S65.51,84.41,66,83.67Z"/><path d="M90.91,53.89a8,8,0,0,1,.85,0c.42.06.84.17,1.25.25a6.9,6.9,0,0,1-1.42.18c-.21,0-.4-.35-.6-.54Z"/><path d="M42.8,97.92a3.74,3.74,0,0,1,.44-1.27A4,4,0,0,1,44.48,96c-.07.41,0,1-.24,1.18a5.41,5.41,0,0,1-1.53.66Z"/><path d="M86.07,28.58l1.67,1,.09,0-1.65-1.13Z"/><path d="M87.74,29.57l.69.07c-.08-.06-.16-.16-.24-.16a1.3,1.3,0,0,0-.36.13Z"/><polygon points="95.09 84.33 95.08 84.64 94.74 84.48 95.09 84.33"/><path d="M94,73.6l.1.06Z"/><polygon points="65.89 62.05 65.77 62.23 65.89 61.94 65.89 62.05"/><polygon points="42.71 97.83 42.86 98.11 42.8 97.92 42.71 97.83"/><polygon points="107.21 47.28 107.06 47.38 107.32 47.31 107.21 47.28"/><path d="M92.8,101.72l-.19.54c0-.08,0-.19,0-.23a1.25,1.25,0,0,1,.3-.21Z"/><path d="M114.47,115.08l.2.23-.13-.15Z"/><path d="M139,141.51l.23-.25-.23.2Z"/><path d="M80.31,142.8c-.5-.94-1.16-1.72-1-2a5.43,5.43,0,0,1,1.94-1.71c.15-.09,1.22.92,1.15,1A20.51,20.51,0,0,1,80.31,142.8Z"/><path d="M99.31,116.81c-.43-.35-.89-.56-1-.87s.39-.8.64-.83.73.31,1.09.5Z"/><path d="M78.78,118.82c-2.57-1.39-5.16-2.73-7.68-4.21-.52-.3-.72-1.15-1.07-1.74a7.91,7.91,0,0,1,2.14.18c2.93,1.08,5.69,2.42,6.53,5.86Z"/><path d="M72.11,121.63l-.13-.31,0,.3Z"/><path d="M78.7,118.91l.51.2c-.09,0-.21.06-.25,0a1.57,1.57,0,0,1-.18-.31Z"/><path d="M72,121.62l.19.21-.11-.2Z"/></g></svg>