<svg id="Layer_1" data-name="Layer 1" xmlns="http://www.w3.org/2000/svg" viewBox="0 0 200 200"><g id="gYJr2z"><path d="M95.17,201c.43-.94.79-1.93,1.29-2.82,2.67-4.72,5.46-9.37,8-14.15,1.41-2.62,2.46-5.43,3.67-8.16.49-1.12.28-1.52-.9-1.21-3.54,1-7,2.05-10.55,3.11-.55.17-1,.49-1.59.71-2,.79-2.35.54-3.5-1.21a31.75,31.75,0,0,0-3.76-4.73c-6.23-6.37-12.58-12.63-18.81-19-3.52-3.59-6.47-7.74-10.57-10.76-.74-.55-1.28-1.28-.49-2.21,1-1.14,2.29-1.36,3.21-.45s1.93,2.18,2.92,3.23q11.39,12,22.76,24.07c1.6,1.69,3.09,3.48,4.64,5.21s3.47,2.12,6,1.44a53.6,53.6,0,0,1,10.29-1.45,4.25,4.25,0,0,0,3.67-2.22,132.41,132.41,0,0,1,13.8-17.94,9.41,9.41,0,0,0,.8-1.15c-.52-.11-1-.27-1.57-.34-10.66-1.31-21.34-2.55-31.85-4.89-6.72-1.5-12.73-4.59-18.43-8.33-3.4-2.23-6.71-4.6-10-7a1.9,1.9,0,0,0-2.77,0c-9.91,8.08-19.88,16.09-29.77,24.18a37.49,37.49,0,0,0-11,14,37.11,37.11,0,0,1-9.2,12.21c-4.2,3.87-8.21,7.95-12.31,11.93A14,14,0,0,1-2,194v-6.4A62.8,62.8,0,0,0,12.11,176a37.31,37.31,0,0,0,6-9.23A27.59,27.59,0,0,1,27,155.58a268.61,268.61,0,0,0,27-23c1.68-1.6,3.56-3,5.36-4.46.49-.4.92-.76.27-1.35-7.33-6.69-9.64-15.68-11.3-24.9C47.22,96,46.44,90,45.57,84.06c-1-6.71-.11-13.35.92-20,1.39-9,4.65-17.38,7.71-25.85,1.22-3.36,2.27-6.79,3.24-10.24A16.16,16.16,0,0,1,61.2,20.9,83,83,0,0,1,77.85,7.37a58.73,58.73,0,0,1,7.6-3.6c.86-.37,1.91-1.23,2.86.07.11.15.91,0,1.24-.25,5-3.65,11-4,16.81-5.07,11.52-2.13,22.53.39,33.47,3.68a85.22,85.22,0,0,1,21.82,10.1c1.55,1,3.06,2.06,4.66,3,12.32,7,20.19,17.84,25.77,30.55,2.73,6.22,5.22,12.55,6.19,19.32a80.08,80.08,0,0,1-1,27.18c-.63,3.13-1.58,6.2-2.17,9.34A102.55,102.55,0,0,0,193.55,112c-.36,4-1.44,7.59-4.33,10.5-5.26,5.29-10.48,10.62-15.77,15.87a17.7,17.7,0,0,1-7.79,4.35,19.36,19.36,0,0,0-4.06,1.56c-9,4.91-18.72,6.72-28.85,6.67a5.38,5.38,0,0,0-4.17,1.58c-.65.66-.79,1.18-.15,2A63.3,63.3,0,0,0,141.8,166c.8.54,1,0,1-.71s-.23-1.53-.33-2.3c-.14-1.15-.31-2.3-.37-3.46,0-.27.39-.56.6-.84.27.24.71.44.77.72.29,1.42.46,2.87.72,4.3.19,1,.2,2.27,1.63,2.39a2.53,2.53,0,0,0,2.91-1.88,24.41,24.41,0,0,0,.22-3.94c0-.59,0-1.6.24-1.7a1.29,1.29,0,0,1,1.82,1.26c.1,1.33-.08,2.68-.11,4,0,.82,0,1.64,0,2.46a13.53,13.53,0,0,0,2.72-.42,2.77,2.77,0,0,0,2.09-3.08,2.56,2.56,0,0,1,.27-1.39,1.12,1.12,0,0,1,.91-.56c.39.08.95.43,1,.75.37,1.64.51,3.29-.88,4.61-.42.4-.91.73-1.3,1.15-.56.61-1.07,1.28-1.6,1.92a12.36,12.36,0,0,0,2.18,1.21c.94.31,2,.36,2.48-.81.37-.82.76-1.64,1.88-1.39.22.05.58.44.54.54-.34.87-.53,2-1.19,2.5a6.32,6.32,0,0,1-6.09.77c-1.36-.48-2.61-1.26-3.94-1.85s-2.67-1.12-4-1.6c-.3-.11-.71.07-1.07.12a4.61,4.61,0,0,0,.53,1c1.91,2.06,3.79,4.15,5.8,6.12,1.72,1.69,2.6,1.65,4.64.48a44.85,44.85,0,0,1,4.64-2.35,54.26,54.26,0,0,0,17.62-12.58c2.06-2.12,2-3.1-.14-5.1a7.5,7.5,0,0,1-1.47-1.39,5.21,5.21,0,0,1-.29-1.77c.63,0,1.39-.3,1.85,0a12.43,12.43,0,0,1,1.86,1.78,23.52,23.52,0,0,0,3.68,3.19c1.58.93,2.45.42,3-1.39.42-1.48.61-3,1-4.52.14-.45.72-1.07,1.1-1.07a1.62,1.62,0,0,1,1.28.93,6,6,0,0,1,0,2.77c-.32,1.2-1,2.31-1.42,3.49a3.94,3.94,0,0,0,0,1.37,4.6,4.6,0,0,0,1.5-.53,8.59,8.59,0,0,0,1.23-1.6,6.52,6.52,0,0,1,1-1.39,1.48,1.48,0,0,1,1.28-.3,1.3,1.3,0,0,1,.54,1.16c-.47,1.69-1,3.51-2.78,4.22a5.62,5.62,0,0,1-5.54-.46c-1.94-1.36-2.19-1.54-3.52.14-4.91,6.16-11.77,9.69-18.21,13.79-2,1.24-3.9,2.53-5.77,3.9-2.76,2-4.38,2.19-7,0a100.28,100.28,0,0,1-8.85-8.39c-1.38-1.51-2.52-1.74-4.26-1-2.25.89-4.55,1.65-6.84,2.44a44,44,0,0,1-16.27,2.61,4.14,4.14,0,0,0-4.28,2.58c-4.11,7.58-8.38,15.07-12.58,22.6A15,15,0,0,0,97.5,201ZM48.49,74.43c.08,10.88.74,21.69,3.77,32.23,1.5,5.24,3.26,10.33,6.94,14.54a50.36,50.36,0,0,0,11.87,10.09c7.81,4.72,15.72,9.2,24.41,12.12a3.11,3.11,0,0,0,2.76.1,4,4,0,0,1,2.24,0c1.11.18,1.82.24,1-1.22-.13-.22.24-1,.52-1.11.79-.25,3.33,1.86,1.67-1.38l.92-.46c2.1-1,4.41-1.58,5.79-3.83s3.09-4.22,4.67-6.3a2.35,2.35,0,0,1,.66-.43c0,.26.1.57,0,.78-1.12,2.26-2.15,4.56-3.45,6.71a6.67,6.67,0,0,1-2.57,2.25c-2.58,1.34-4.37,3.49-6.2,5.62-.91,1.06-.79,1.33.71,1.54,3.83.54,7.67,1,11.52,1.47A136.42,136.42,0,0,0,139,148a40.88,40.88,0,0,0,19.19-6.11c1.82-1.13,1.86-1.26,1.13-3.26-.64-1.72-1.38-3.41-2-5.14-.37-1-.8-1.26-1.59-.38a7.09,7.09,0,0,1-6,2.49,45.87,45.87,0,0,1-5.46-.73c-2.08-.39-4.21-.73-5.74-2.48a1.44,1.44,0,0,0-1.28-.35c-1.84,1-3.4.12-5-.63a3.45,3.45,0,0,0-3.81.08c-1.36,1-2.61.21-3.69-.69-.83-.69-.62-1.54.3-1.76a10.76,10.76,0,0,1,4.5-.46c1.73.37,3.31,1.46,5,2.19a5.06,5.06,0,0,0,1.32.21,4.59,4.59,0,0,0-.61-1.09c-1-.93-2-1.79-3-2.71-.17-.17-.16-.52-.23-.79a2.93,2.93,0,0,1,1,.11,4.62,4.62,0,0,1,1.18.84c4.16,4,9.64,4.74,14.84,6.13a5.19,5.19,0,0,0,6-2.36,13.13,13.13,0,0,1,1.23-1.63c.89-1,1.27-.86,1.71.37.68,1.91,1.39,3.81,2.19,5.67.48,1.15.89,2.73,1.8,3.19s2.27-.43,3.45-.71a3.14,3.14,0,0,1,.86-.13c2.67.14,4.6-1.32,6.35-3,3-2.9,5.77-6,8.89-8.78a25.32,25.32,0,0,0,7.51-12.2c2.9-9.85,5.82-19.7,6.43-30,.46-8,.23-15.88-1.75-23.67s-5.7-14.78-9.6-21.71a53.39,53.39,0,0,0-20-20.64c-5.86-3.39-11.86-6.55-18-9.53-6.54-3.2-13.35-5.79-20.69-6.46a76.38,76.38,0,0,0-12.16-.63A140.43,140.43,0,0,0,98.21,3.39a7.94,7.94,0,0,0-4.12,1.87,7.73,7.73,0,0,1-6,2.37c-4-.12-7.37,1.4-10.57,3.51-3,2-5.84,4.2-8.92,6a12.07,12.07,0,0,0-5.47,6.16c-2.31,5.95-4.6,11.92-6.81,17.91C54.52,46,53.21,51,51.06,55.68A27.69,27.69,0,0,0,48.49,68C48.51,70.17,48.49,72.3,48.49,74.43Zm69.07,97.71a82.55,82.55,0,0,0,9.24-1.56c3.51-1,6.87-2.5,10.29-3.8,1-.39,1-1,.24-1.67a19.12,19.12,0,0,0-1.6-1.25c-3.21-2.14-6.44-4.25-9.66-6.38-1.61-1.06-1.69-1.14-2.88.51-2.6,3.59-5.13,7.24-7.63,10.91a26.18,26.18,0,0,0-1.53,3Z"/><path d="M148.13,106.75c2.06.51,4.11,1,6.18,1.52,1.12.25,2.3.63,3.23-.46a.93.93,0,0,0,.07-.73c-1.06-.42-2.4-1.4-3.17-1.06-2.18,1-3.4-.15-4.82-1.36a2.37,2.37,0,0,0-1.87-.56,59,59,0,0,0-6,2.42c-.28.12-.28.83-.41,1.27.43.06,1,.33,1.28.16a2.37,2.37,0,0,1,3.12.59c.34.34,4.38.71,4.76,1,1.25.85,2.67.11,3.89.6,2.22.91,2.93,2.68,2,4.66-.86,1.79-1.24,1.89-3.3,1.12-.35-.13-.82.06-1.23.09.26.37.45.94.8,1.06,4.43,1.56,3.66,2.45,5.73-1.94a9.28,9.28,0,0,1,2.19-3.38,3.63,3.63,0,0,0,1.36-4.24c-.3-1.21-.38-2.5-.76-3.68a4.72,4.72,0,0,0-4.8-3.46,11.28,11.28,0,0,1-5.78-1.41c-2.28-1.19-4.93-2-7.2.42a.74.74,0,0,1-.73.05.92.92,0,0,1-.14-.77,2.81,2.81,0,0,1,3.11-2.1,16.72,16.72,0,0,1,5.84,1.34c1.71.82,3.26,1.58,5.2,1.35a6.53,6.53,0,0,1,2,.24c1.42.29,1-.74,1-1.42l.08-.06a2.25,2.25,0,0,1,.52.24c1.56,1.41,2.88,3.15,5.14,3.59.21,0,.3.72.44,1.11-2.23.66-.86,1.47-.12,2.29,0,0-.36.56-.44.53-1.1-.36-.56,2.06-1.94,1.13a1.62,1.62,0,0,0-.1.56,6.52,6.52,0,0,0,.6,2.5,4.58,4.58,0,0,1,.74,4.63A2.49,2.49,0,0,0,165,117a7.27,7.27,0,0,1,.9,3.2c0,.45-.68,1-1.05,1.46-.34-.42-1-.9-1-1.24.46-2.44-1.15-2.37-2.75-2.51-1.32-.11-2.16.55-2.48,2.19-.24,1.27.2,1.9,1.6,2.19.37.08.83-.05,1.14.12s.94.77.88.91a4,4,0,0,1-1.08,1.12.84.84,0,0,1-.57,0c-1.74-.41-2.21.49-2.23,2,0,.38-.45.76-.69,1.14-.29-.42-.74-.8-.85-1.26-.17-.74,0-1.56-.17-2.31s-.27-1.72-.77-2.1a3.84,3.84,0,0,0-2.76-1c-.84.24-.89,1.39-.57,2.49.68,2.33.17,2.91-2.27,3.15a7.27,7.27,0,0,1-2,0c-5.42-1-10.91-1.78-15.23-5.75a14,14,0,0,0-3.16-2c-1.7-.87-1.85-.78-3,.94-.16.24-.22.58-.43.75a4.06,4.06,0,0,1-.93.39,4.21,4.21,0,0,1-.26-1.06,1.47,1.47,0,0,1,.34-.79c2.09-2.88,3-6.28,4.19-9.54a10.38,10.38,0,0,1,.56-1.33c.12-.21.39-.32.59-.47a2.18,2.18,0,0,1,.15.54c0,.93,0,1.86-.07,2.79a16.81,16.81,0,0,0,3.21-1,24,24,0,0,0,3.21-2.32c2-1.53,4-3.08,6-4.6a2.24,2.24,0,0,1,1-.54c2.43-.26,4.86-.55,7.3-.65,1.4-.06,2.89-.07,3.61,1.73.22.55,1.27.77,1.95,1.13a3.24,3.24,0,0,1,1.43,4.86c-.48.84-.91,1.42-1.94.39-.54-.53-1.59-.5-2.37-.82-2.11-.85-4.2-1.74-6.3-2.62Zm-17.3,9.6c0-2.25.16-2.31,1.82-2.67,1.86-.4,3.74-.93,5.06-2.47.47-.55.75-.82,1.26,0s1.39,1.21,1.94.52c1.1-1.39,1.6-1.63,2.22.31.16.51,1.23.85,1.94,1,1.43.39,3,.38,4.33,1,.92.43,1.62.87,2.66.48a1.4,1.4,0,0,1,1.26.18c.55.62,1.16,1,1.54.14a7,7,0,0,0,.12-2.47c-.49,0-1,.06-1.48.11s-1.14.27-1.19.17c-.8-1.84-3.42-.1-4.19-2.11,0-.11-1.62.64-2.26.39s-1.18-1.68-1.88-1.8c-2.92-.51-5.81-.5-8.16,1.85a3.17,3.17,0,0,1-1.74.58c-2.59.37-4.19,1.71-4.63,4a2.36,2.36,0,0,0,.26,1.29.82.82,0,0,0,.79.1A1.26,1.26,0,0,0,130.83,116.35Zm3.35.88c-.26.11-.84.19-.9.42a1.59,1.59,0,0,0,.19,1.32c1.44,1.2,2.16,3.63,4.77,3,.14,0,.38.22.53.38,1.3,1.52,1.88,1.75,3.46.82.69-.41.89-.5,1.23.24a2.29,2.29,0,0,0,.85,1.11c.55.27,1.41.6,1.79.35a2.2,2.2,0,0,0,.67-1.76c0-.35-.73-.83-1.21-1-1.82-.54-3.69-.94-5.53-1.44-.43-.12-1.1-.32-1.2-.63-.58-1.84-3.18-.79-3.71-2.66C135.09,117.29,134.59,117.3,134.18,117.23Zm14.7,4.42,1.73-.68a8.75,8.75,0,0,1-1.27-1c-.37-.4-.53-1.07-1-1.33s-1.66-.72-1.91-.47c-1.18,1.17-1.74.71-2.31-.51-.08-.16-.84-.26-1-.11-1,1.25-2.06,1.19-3.18.1-.13-.11-.62.15-1,.24.09.25.11.64.28.71,1.38.64,2.75,1.3,4.18,1.8a32.57,32.57,0,0,0,3.54.85C147.63,121.4,148.19,121.51,148.88,121.65Zm1.39,3.64a3.77,3.77,0,0,0,1.56-.79c.35-.39-1.23-1.55-2.33-1.68-.93-.12-1.16.42-1.24,1.16C148.14,125,148.7,125.34,150.27,125.29Z"/><path d="M159.72,98c-.55-.48-1.13-1-1.66-1.46a4.69,4.69,0,0,0-5.91-.89c-1.05.56-1.47.11-1.63-.73A4.55,4.55,0,0,0,148,91.4c-.27-.13-.39-.57-.58-.87a6.12,6.12,0,0,1,1.21,0,9.34,9.34,0,0,1,1.32.45l.14.2-.2-.15a32.92,32.92,0,0,0-1.77-3c-1.8-2.47-4.05-4.1-7.33-3.81a11.78,11.78,0,0,1-3.46-.06c-1.71-.37-2.55.39-3.11,1.81-.29.72-.63,1.42-.88,2.15-.35,1-.54,1.94.7,2.73.8.51.73,1.46-.57,1.31-.82-.09-1,.19-1.06.89,0,.28-.39.52-.6.78-.25-.26-.65-.49-.72-.79a3.86,3.86,0,0,1,0-1.69,19,19,0,0,1,1.32-4.74,23.06,23.06,0,0,0,2.41-9.93A5.29,5.29,0,0,1,136,74.2c.74-1,.92-1.78-.08-2.78a6,6,0,0,1-1.16-2.25,3.77,3.77,0,0,1,.1-1.4,7.69,7.69,0,0,0,1,.86c.35.23.83.59,1.15.51,1.49-.39,2.43,1.38,4,.93.22-.06.75.92,1.14,1.42.86,1.13,1.72,2.27,2.61,3.38.09.1.35.06.53.09,0-.25.18-.58.07-.73-.72-1-1.5-2-2.23-3a2.12,2.12,0,0,1-.18-.75,2.38,2.38,0,0,1,.74.24,74.44,74.44,0,0,1,5.9,4.69,11.53,11.53,0,0,1,2,3.42c.11.21-.16.81-.41,1a1.09,1.09,0,0,1-1-.26c-.68-.68-1.18-1.57-1.91-2.17s-1.72-1.67-2.42.16a1.34,1.34,0,0,1-1.06-.12c-1-.91-1.85-2-2.89-2.85-1.75-1.46-3.25-1-4.1,1.16a1.86,1.86,0,0,1-.61.64,4.08,4.08,0,0,1-.73.34c.87,1.57-.08,3.22.15,4.72.2,1.3,1.77,1.58,3.15,1.16A8.42,8.42,0,0,1,147.12,84a6.92,6.92,0,0,1,3.31,4.58,3.2,3.2,0,0,0,2.66,2.7,23.16,23.16,0,0,0,3.14.56c5.13.75,7.69-.64,9.88-5.39.24-.53.41-1.09.64-1.62.07-.15.33-.38.38-.35.23.13.62.34.61.51a9.56,9.56,0,0,1-.42,3.33A7.75,7.75,0,0,1,165,90.87,3.78,3.78,0,0,0,163.28,94c0,1.7-.52,3.07-2.67,3-.26,0-.54.63-.81,1Z"/><path d="M163.26,81.13c.17-1,.65-2,.44-2.93A39.42,39.42,0,0,0,161.84,73c-.1-.25-.37-.42-.56-.63a6.41,6.41,0,0,0-.25.93c0,.29.1.61,0,.87a3.64,3.64,0,0,1-.53.79c-.2-.19-.53-.36-.58-.58-.23-1.12-.86-2.47-.46-3.34.68-1.49.2-2.6-.27-3.85-.69-1.8-1.42-3.6-2.11-5.41s-1.37-3.82-.63-5.91c.11-.31-.27-.79-.42-1.2-.34.29-.83.51-1,.87a6,6,0,0,0-.25,1.66c0,.34-.11.68-.16,1-.39-.21-1-.32-1.13-.64a3,3,0,0,1,.3-3.28.92.92,0,0,0-.57-1.56c-1.77-.49-3.57-.84-5.34-1.32-.87-.25-1.7-.66-2.55-1,.84-1.31,1.9-.26,2.85-.27a1.5,1.5,0,0,1,.29.06l2,.43a13.09,13.09,0,0,1-1.24-1.23.78.78,0,0,1-.11-.74.92.92,0,0,1,.77-.22,11.33,11.33,0,0,1,1.89.72c1,.46,1.86,1,2.84,1.46a8.71,8.71,0,0,0,1.87.33,6.87,6.87,0,0,0-.83-2,28.67,28.67,0,0,0-2.57-2.34c-.59-.54-.61-.91.33-1.05a35.17,35.17,0,0,0,3.92-.75c3.5-.93,7.31-1.28,9.49-4.84.13-.21.61-.2.93-.29.06.27.25.62.15.81-.6,1.09-1.25,2.15-1.93,3.2a9.2,9.2,0,0,1-.95,1l1.6.34c2.53.6,5.1,1.05,7.57,1.83a10.78,10.78,0,0,1,5.31,4.36,6,6,0,0,1,.65,1.58c0,.14-.1.48-.19.49-.24,0-.6,0-.71-.14a16.83,16.83,0,0,0-1.85-2.57c-4.46-3.93-9.7-5-15.44-3.9-.28.06-.69.11-.8.3-1.17,2.13-3.42,3.66-3.26,6.56.1,1.84.91,3.84-.61,5.57-.15.17.15.89.41,1.24,1.64,2.24,3.33,4.44,5,6.65l-.07.09c-.94.07-2.21-.13-1.27,1.51,1.77,3.11,3.58,6.2,5.28,9.34a6.62,6.62,0,0,1,.73,2.69c0,.66-.53,1.14-1,.29s-.94-.89-1.22.12c-.13.46,0,1-.19,1.42s-.64.59-1,.87a5.49,5.49,0,0,1-.74-1.24,3.08,3.08,0,0,1,.1-1.15ZM152.06,51.2l.21,0-.13-.16Z"/><path d="M151,58.41a11.51,11.51,0,0,1,.34,2,4.56,4.56,0,0,1-.42,1.38c-.38-.38-1.07-.77-1.07-1.15.05-3.14-2.2-4-4.55-4.87-2-.74-3.94-1.62-6-2.3a25.09,25.09,0,0,0-3.78-.78c-.11,0-.44.45-.41.48,1.22,1.42-.27,1.31-.92,1.63s-.07,2.43-1.76,1.2c-.93,1.45-2.67,1.59-4,2.45A15.83,15.83,0,0,1,118.57,61a6.25,6.25,0,0,0-2,.05c-3.42,1.07-5.67-1.16-8.13-2.8-.22-.14-.33-.44-.5-.67.35-.08.74-.31,1-.21a42.54,42.54,0,0,0,9.38,1.82c7.27.67,12.08-3.17,16.29-8.33a2.57,2.57,0,0,0,.43-3A49,49,0,0,0,132.44,43c-2.06-3.17-4.26-6.24-6.37-9.37a3.38,3.38,0,0,1-.32-1c.4.11.92.1,1.18.36a53.29,53.29,0,0,0,13.55,9.4,4.54,4.54,0,0,1,1,.59c.61.52.51,1.13-.22,1.27-1.23.24-2.5.24-3.75.39-.72.08-1.83-.08-1.71,1,.07.54.94,1.24,1.57,1.4a10.23,10.23,0,0,0,2.87,0c1.45-.08,2.9-.23,4.34-.27.28,0,.57.38.85.58-.26.23-.49.64-.77.67-1.35.13-2.72.06-4.06.24s-2.46.55-3.68.84c1.05.38,2.09.79,3.16,1.13.62.21.85.55.24.92-.94.57-.79.93.11,1.26,1.36.51,2.72,1,4.1,1.47a14.93,14.93,0,0,1,5.95,3.45l-.06-.07.63,1.24Z"/><path d="M116.87,56.85c-4.31,0-7.17-2.38-9.73-5.28a1.17,1.17,0,0,1-.34-.78,5.45,5.45,0,0,1,.4-1.22c.3.2.76.34.86.62.82,2.2,2.64,3.25,4.59,4.2.77.38,1.22.64,1.6-.61.31-1,.83-.85,1.58.51a2.12,2.12,0,0,0,.52.46c.91-1.52,1.62-.11,2.48.09a4.28,4.28,0,0,0,2.24-.3A11.15,11.15,0,0,0,123,53.38c-.55-.47-1.09-1-1.65-1.41-.22-.18-.57-.27-.7-.49a3.12,3.12,0,0,1-.23-1c.26-.06.59-.23.78-.14.86.43,1.67,1,2.53,1.41a1.45,1.45,0,0,0,2.27-1c.66-1.86.78-3.83-.61-5.23-3.9-3.91-8.66-6.19-14.11-3.27A5.6,5.6,0,0,0,108,46.17a5.07,5.07,0,0,1-.66,1.6,3.6,3.6,0,0,1-.84.75c-.22-.4-.71-.86-.62-1.17a11.18,11.18,0,0,1,1.35-3.72,11.56,11.56,0,0,1,12-3.86,24.17,24.17,0,0,1,4.52,2,8.92,8.92,0,0,1,3.93,9A5.3,5.3,0,0,1,125,54.39,18.25,18.25,0,0,1,116.87,56.85Z"/><path d="M151,44.44a2.78,2.78,0,0,1-.83-.17c-2.46-1.32-2.45-1.32-4.55.36-.22.18-.64.12-1,.18a2.73,2.73,0,0,1,0-1.06,2.77,2.77,0,0,1,.77-.84c1.93-1.82,2-2.21.4-4.27-3.08-4-6-8-9.37-11.8-2.09-2.36-4.78-4.18-7.16-6.3a6,6,0,0,1-.91-1.49c.61-.07,1.32-.36,1.83-.17a11.3,11.3,0,0,1,5.16,4.1,63.18,63.18,0,0,1,5,7.45c1.51,3,4.47,4.21,6.59,6.42.14.14.61,0,.93-.07s.81-.15,1.22-.23a5.45,5.45,0,0,1-.55,1.38c-.94,1.24-1,2.13,0,3.28a2.47,2.47,0,0,0,.46.31,2.42,2.42,0,0,0,.26-.47,3.59,3.59,0,0,0,.14-.86c0-3.6,2-6.17,4.52-8.43,1.79-1.63,3.61-3.23,5.44-4.8a5.85,5.85,0,0,1,4.91-1.24,4.13,4.13,0,0,1,1,.42c-.25.26-.48.71-.76.74-5.29.65-8.4,4.59-11.6,8.08A9.51,9.51,0,0,0,151,44.49Z"/><path d="M133.61,101l-2.55,1.79c.27-.94.56-1.88.78-2.83.29-1.23,0-1.43-1.64-1.45a1.42,1.42,0,0,1-1.1-.55,1.37,1.37,0,0,1,.33-1.21A4.19,4.19,0,0,1,131,96c2.76-.86,5.52-1.75,8.31-2.51a5.28,5.28,0,0,1,4.48.43c.77.51,1.17,1.29.21,1.81-3.94,2.12-6.42,5.8-9.56,8.77a4.77,4.77,0,0,1-1.16.84c-.09,0-.58-.33-.56-.46.25-1.31.57-2.61.87-3.92l.1-.15Z"/><path d="M160.94,60.74c-2.93-3.56-2.32-7.46,1.51-9.73,2.78-1.63,5.92-1.63,9-1.94a3,3,0,0,1,1.63.5A14.17,14.17,0,0,1,178.62,55c1.66,3.06,1.29,5.76-1.24,8.17-5,4.72-8.88,3.77-13.32.91-.37-.23-.57-.73-.85-1.11.25,0,.59-.14.75,0,.66.48,1.42-1.36,1.86,0,.59,1.82,1.39,2.49,3.1,1.19.16-.12.61.15.92.25a5.46,5.46,0,0,0,1.58.5c4.09-.07,7.74-5.92,6-9.6a3.8,3.8,0,0,0-.46-.74,11.15,11.15,0,0,0-11.42-3c-.88.34-1,.6-.38,1.42a11.43,11.43,0,0,1,1.29,2.81c.06.16-.21.45-.33.68-.2-.16-.47-.28-.6-.49a18.76,18.76,0,0,0-1-1.74c-1.34-1.63-3.25-1.3-4,.65a2.57,2.57,0,0,0,1.27,3.51c.57.3.75.38.24.91a14,14,0,0,0-1.14,1.57Z"/><path d="M144.66,23.18c-1.14,3.11.77,5.54,1.45,8.2.19.74.52,1.45.74,2.19.05.15-.08.36-.13.54-.15-.09-.36-.14-.43-.26a22.5,22.5,0,0,1-1.79-3.3c-1.22-3.46-2.25-7-3.48-10.45-1.16-3.26-2.12-6.64-4.51-9.34-.29-.34-.18-1-.26-1.54.61.07,1.47-.09,1.77.25a23.45,23.45,0,0,1,3.62,4.8,57.05,57.05,0,0,1,2.49,7.08C144.34,22,144.5,22.64,144.66,23.18Z"/><path d="M114.57,33.12a14.07,14.07,0,0,1,8.92,2.93,20.25,20.25,0,0,1,7.43,9.45,5,5,0,0,1,.09,1.61,11.8,11.8,0,0,1-1-1c-1.6-1.93-3-4-4.79-5.8-3.09-3.22-7.1-4.56-11.45-5.06-1.07-.12-2.33.18-3-1.09,1-.31,1.94-.66,2.92-.93A3.3,3.3,0,0,1,114.57,33.12Z"/><path d="M115.83,51.51c-2-.07-4-2.38-3.87-4.62a3.18,3.18,0,0,1,3.2-3c1.59,0,4.93,2.1,4.93,3C120.1,49.28,118,51.58,115.83,51.51Z"/><path d="M171.89,62c-2.15,0-3.71-1.05-4-2.49s.75-4.44,2-4.77a6,6,0,0,1,3.28.44c.82.3,2.31.65,1.18,2.19a1.69,1.69,0,0,0-.11.27c1.87.11,1.93,1.11,1.14,2.42A4.15,4.15,0,0,1,171.89,62Z"/><path d="M117.5,70.58c-2-.21-3.28-1.61-4.4-3.23,0-.08.37-.67.49-.64a9.34,9.34,0,0,1,1.63.58,4.56,4.56,0,0,0,3.59,0,11.21,11.21,0,0,1,4.45-.25,4.21,4.21,0,0,0,2.9-1c2-1.35,4.09-2.55,6.16-3.79.18-.11.5,0,.75,0a1.52,1.52,0,0,1-.22.5,26.31,26.31,0,0,1-14.91,7.72C117.85,70.57,117.75,70.56,117.5,70.58Z"/><path d="M118.15,140.3c1.09-5.69,2.76-10.9,6.36-15.3a2.93,2.93,0,0,1,.91-.54c0,.35.25.76.13,1a6.85,6.85,0,0,1-1.37,2.51c-2,1.71-2.39,4.13-3.21,6.38a2.13,2.13,0,0,0,.06.82c.33-.06.8,0,1-.2.73-.75,1.36-1.59,2-2.38a6.1,6.1,0,0,1,.72-.61,3.38,3.38,0,0,1,.4,1,1.8,1.8,0,0,1-.35,1.07c-1.72,2.2-3.46,4.4-5.24,6.55-.24.3-.78.34-1.19.5Z"/><path d="M148.08,17.59a14,14,0,0,1,.88-2.06,4.27,4.27,0,0,1,1.06-.84,9.78,9.78,0,0,1,0,1.08c-.23,2.67,2,4.93,5.19,5.33.77.1,1.56,0,2.32.14.31.05.85.49.81.6a1.86,1.86,0,0,1-.75,1.06,1.81,1.81,0,0,1-1.39.05c-2.26-1.07-4.53-2.14-6.69-3.39C148.87,19.18,148.53,18.23,148.08,17.59Z"/><path d="M106.39,68.3c-1.64,0-3.34-2-2.81-3.27a9.24,9.24,0,0,1,2-2.36c.09-.09.5.08.74.19a.72.72,0,0,1-.09.5c-.24.29-.64.49-.8.81-.48,1,0,1.61,1.09,1.65.28,0,.59-.24.84-.18a1.43,1.43,0,0,1,.88.57,1.11,1.11,0,0,1-.2,1A12.93,12.93,0,0,1,106.39,68.3Z"/><path d="M156,25.36c-.46-.08-1-.13-1.59-.28a2.18,2.18,0,0,0-2.87,1.24,3.23,3.23,0,0,1-1,1.36,1.39,1.39,0,0,1-1.29-.12,1.31,1.31,0,0,1-.39-1.19c.91-2.45,6.4-3.59,8.38-1.78a.61.61,0,0,1,.21.49.72.72,0,0,1-.47.27A7.68,7.68,0,0,1,156,25.36Z"/><path d="M111.37,14.42c-1.46.06-2.28-.71-2.19-1.89A11.56,11.56,0,0,1,110.25,9c.13-.3.76-.39,1.16-.58a4,4,0,0,1,.6,1.43c0,.42-.42.83-.65,1.26-.53,1-.87,1.86.83,1.91.31,0,.61.32.92.49a6.89,6.89,0,0,1-1,.78A1.85,1.85,0,0,1,111.37,14.42Z"/><path d="M165,68.36c2.9.6,5.81,1.18,8.71,1.82.27.06.46.5.69.77-.24.12-.49.36-.73.35a13.25,13.25,0,0,1-4-.34A32.87,32.87,0,0,1,165,68.31Z"/><path d="M154,78.94l-.18.61c-.22-.07-.55-.08-.65-.24a20.9,20.9,0,0,1-1.15-2c-1-2-2-4-4.37-4.78-.25-.09-.31-.7-.46-1.07.36-.07.86-.31,1.06-.16C151,73.28,153.14,75.66,154,78.94Z"/><path d="M108.57,99.06c-.87,0-2.45-2.51-2.09-3.41.08-.21.8-.37,1.11-.25.54.21,1,.86,1.47.93s1.12-1.08,1.6,0C111,97.05,109.34,99.09,108.57,99.06Z"/><path d="M152.39,73.42a2.76,2.76,0,0,1,.65.29c1.23,1.2,2.51,2.35,3.64,3.64a2.52,2.52,0,0,1,.48,1.82c-.06.43-.69.79-1.06,1.18-.13-.4-.24-.81-.4-1.19a12.86,12.86,0,0,0-1-2.25c-.64-1-1.44-1.79-2.13-2.7C152.39,74.05,152.43,73.75,152.39,73.42Z"/><path d="M93.44,111.21a1.88,1.88,0,0,0,2.86.88c.09,0,.45.23.44.26a8.47,8.47,0,0,1-.87,2,1.8,1.8,0,0,1-1.38.7c-.91-.11-2.19-2.5-1.86-3.3C92.72,111.58,93.05,111.48,93.44,111.21Z"/><path d="M78.77,96.79A9.77,9.77,0,0,1,77.45,95a4.69,4.69,0,0,1-.19-1.85c0-.08.29-.16.45-.24.77,1.6,2.47.43,3.41,1.15C81.63,94.43,79.9,96.8,78.77,96.79Z"/><path d="M149.35,10.81c-.94,1.71-1.55,2.87-2.22,4a.74.74,0,0,1-.72.15c-.25-.22-.59-.65-.53-.89a26.3,26.3,0,0,1,1.2-3.43,1.13,1.13,0,0,1,1-.38A4.91,4.91,0,0,1,149.35,10.81Z"/><path d="M143,59c-.33,0-.8.18-1,0a22.48,22.48,0,0,1-2.34-2.13,3.62,3.62,0,0,1-.49-1.13,3.38,3.38,0,0,1,1.08-.28C141.45,55.55,143,57.44,143,59Z"/><path d="M109.41,61.35a4.81,4.81,0,0,1-3.27-2.85.5.5,0,0,1,.21-.44.61.61,0,0,1,.52.09c1,.75,1.94,1.51,2.88,2.31.15.13.16.47.15.72C109.9,61.24,109.58,61.29,109.41,61.35Z"/><path d="M119.19,19.88c-.37-.56-.73-.85-.7-1.11.09-.89.42-1.78,1.52-1.63.42.06.77.69,1.14,1.06Z"/><path d="M163.31,81.06l-2.06.46,0-2.41a11.57,11.57,0,0,1,1.53,1,3.1,3.1,0,0,1,.51,1Z"/><path d="M140,103a2.25,2.25,0,0,1-.37.43c-.55.36-1.12.72-1.7,1-.37.2-.77.33-1.16.5.08-.52,0-1.36.28-1.51a11.6,11.6,0,0,1,2.63-.79C139.72,102.68,139.86,102.91,140,103Z"/><path d="M134.2,15.25c-.54.55-.87,1.17-1.27,1.21s-.87-.48-1.31-.76c.35-.47.61-1.11,1.09-1.36C132.93,14.22,133.54,14.83,134.2,15.25Z"/><path d="M95,91.64c-.66.44-1.25,1.06-1.48,1-.48-.24-.77-.86-1.14-1.33.44-.28.89-.8,1.31-.78S94.38,91.11,95,91.64Z"/><path d="M106.53,105.27c-.59.53-1.06,1.22-1.33,1.15-.5-.13-.87-.71-1.3-1.1.38-.34.73-.93,1.13-1S105.88,104.85,106.53,105.27Z"/><path d="M125.81,30.75c-.46-.61-1-1-1-1.42s.6-.77.93-1.16c.41.41,1,.75,1.15,1.23C127,29.67,126.31,30.17,125.81,30.75Z"/><path d="M123.49,143.09c.49.59,1.16,1.1,1.08,1.34-.18.49-.76.84-1.18,1.24-.33-.39-.89-.77-.91-1.18S123,143.69,123.49,143.09Z"/><path d="M153.61,63c-.54-.62-1.15-1-1.15-1.4a1,1,0,1,1,2.07-.1C154.6,61.83,154.05,62.31,153.61,63Z"/><path d="M152.11,22a23.63,23.63,0,0,1-1.64,1.91c-.22.2-.62.21-.93.3,0-.27,0-.53.09-.79A6.75,6.75,0,0,1,150,22c.14-.3.5-.72.72-.69A5,5,0,0,1,152.11,22Z"/><path d="M150.48,57.31l.12-1.39c.42.24,1,.38,1.24.74a2.36,2.36,0,0,1,.41,1.59c-.19,1.1-.81.22-1.25.16l.05.07-.63-1.24Z"/><path d="M159,82.9a6.55,6.55,0,0,1-1-1.35c-.08-.2.28-.58.45-.88a17.69,17.69,0,0,1,1.15,1.44C159.61,82.18,159.28,82.5,159,82.9Z"/><path d="M165,68.31l-1.16-.58,0,0,1.16.59Z"/><path d="M148.17,106.7l-.66-.22c.07,0,.17-.1.21-.08a4.47,4.47,0,0,1,.41.35Z"/><path d="M162.71,67.12l1.11.65,0,0-1.22-.52Z"/><path d="M160.89,60.79l.44.22-.39-.27Z"/><path d="M151,44.49l.21.1-.17-.15Z"/></g></svg>