<svg id="Layer_1" data-name="Layer 1" xmlns="http://www.w3.org/2000/svg" viewBox="0 0 200 200"><g id="mEBADF"><path d="M154.93,96.44c0,3.3.41,6.67-.08,9.89-1.28,8.34-8.92,15.11-17.33,15.73-2.63.19-5.26.22-7.9.26a4.08,4.08,0,0,0-3.15,1.48,32.7,32.7,0,0,1-10.89,7.74c-12.61,5.52-24.89,4.82-36.66-2.4a25.49,25.49,0,0,1-7.06-5.83,3.18,3.18,0,0,0-2.66-1,92.61,92.61,0,0,1-9.29-.48,19.25,19.25,0,0,1-16.29-19c0-4.33.13-8.66,0-13-.29-8.13,6.65-18,17.26-19,2.66-.27,5.35-.26,8-.28a4.3,4.3,0,0,0,3.31-1.4A37.2,37.2,0,0,1,101.51,57.8c9.06.41,16.9,4,23.72,9.86a5.82,5.82,0,0,1,1.13,1.2A4.1,4.1,0,0,0,130,70.57c3.49.17,7,.08,10.44.78,9,1.89,15.1,11,14.72,18.6-.11,2.16,0,4.33,0,6.49ZM93.27,117.66c.72,0,1.1.07,1.48.07q12.23,0,24.44,0c5.91,0,11.82.1,17.71-.19a14.79,14.79,0,0,0,13.46-12.26,61.31,61.31,0,0,0,.17-17A15.06,15.06,0,0,0,136.2,75.15c-7.31-.17-14.64-.12-22,0a15.43,15.43,0,0,0-13.93,10.63c-1,3.37-1,6.84-.93,10.3,0,3.31.23,6.63-.07,9.91C98.9,110.47,98.1,114.94,93.27,117.66ZM73.93,98.53h-.36c-.86-5-1.72-10-2.59-15.15-1.81,0-3.58,0-5.34,0-.26,0-.67.48-.73.78-.62,3.21-1.19,6.42-1.76,9.63-.28,1.57-.55,3.14-.82,4.71H62c-.69-5.05-1.37-10.1-2-15.12H53.41a1.27,1.27,0,0,0,0,.4c1.87,8.4,3.73,16.81,5.64,25.21a1.2,1.2,0,0,0,.89.63c1.45.07,2.91,0,4.37.06.7,0,1-.24,1-.92q.33-2.64.75-5.25c.53-3.22,1.09-6.43,1.64-9.64a2.07,2.07,0,0,1,.47,1c.81,4.65,1.61,9.3,2.46,13.94,0,.31.45.79.7.8,1.83.07,3.68,0,5.5,0,1.94-8.81,3.85-17.51,5.79-26.33-2.12,0-4,0-6,0-.72,0-.81.4-.88,1q-.58,4.92-1.22,9.84C74.35,95.61,74.13,97.07,73.93,98.53Zm18,10.86V90.65H86v18.74ZM89,88.34a3.13,3.13,0,0,0,3.51-3.11,3.25,3.25,0,0,0-3.34-3.34,3.35,3.35,0,0,0-3.67,3.28C85.43,87,86.86,88.29,89,88.34Z"/><path d="M27.09,44.19l7.68,7.35C22.58,64.25,16,79.27,16,96.92s6.68,32.66,18.64,45.25l-7.39,7.58C13.8,135.86,6.16,119.41,5.41,100.06,4.56,78.31,12.21,59.76,27.09,44.19Z"/><path d="M164.91,51.58l7.61-7.42c13.27,13.76,20.95,30.16,21.73,49.5.89,21.79-6.72,40.38-22,56.34-1.32-1.42-2.46-2.7-3.65-3.95s-2.39-2.39-3.69-3.69c12.09-12.74,18.84-27.72,18.8-45.43S177.09,64.25,164.91,51.58Z"/><path d="M157.46,134.75,150,127.56c.46-.56.84-1.09,1.29-1.57a41.06,41.06,0,0,0,11.37-28.12,41.05,41.05,0,0,0-9.17-27.41c-.94-1.16-2-2.23-2.92-3.4a1.2,1.2,0,0,1-.08-1.14c2.25-2.35,4.56-4.65,6.85-7C180,81.2,177.42,115.76,157.46,134.75Z"/><path d="M42.18,59c2.38,2.35,4.69,4.64,7,6.92.52.52.2.88-.19,1.28A40.44,40.44,0,0,0,37.64,89.66c-2.2,13.53,1.21,25.55,10.33,35.88.54.61,1.07,1.24,1.63,1.89L42,134.58C24.06,117.75,18.07,83.66,42.18,59Z"/><path d="M128.61,101.66H116.87v8h-6.39V83.22H130v6.42H116.93v5.67h11.68Z"/><path d="M133.64,90.4h5.85v19.22h-5.85Z"/><path d="M136.29,88.59a3,3,0,0,1-3.2-3.28,3.34,3.34,0,0,1,3.32-3.66A3.48,3.48,0,0,1,140,85.2C140,87.21,138.56,88.57,136.29,88.59Z"/></g></svg>