<svg id="Layer_1" data-name="Layer 1" xmlns="http://www.w3.org/2000/svg" viewBox="0 0 200 200"><g id="_0Q6MpZ" data-name="0Q6MpZ"><path d="M90.05,33.18V35c0,6.24-.1,12.47,0,18.71a15.62,15.62,0,0,0,1.24,5.68,7.29,7.29,0,0,0,3,3.15c5.84,3.29,8.77,8.05,8.76,14.87q-.12,53.71,0,107.44a16.86,16.86,0,0,1-.22,2.93,6.37,6.37,0,0,1-6.65,5.64q-14.42.06-28.83,0c-4,0-6.52-2.46-6.95-6.64a23.61,23.61,0,0,1-.07-2.53q0-53.56,0-107.15c0-6.2,2.48-11,7.88-13.9,4-2.14,5.2-5.47,5.26-9.5.1-6.24,0-12.47,0-18.71V33.3A70.05,70.05,0,0,1,90.05,33.18Zm-26.2,52V165H99.52V85.13Z"/><path d="M142.31,190.82a171.68,171.68,0,0,1-28.31-.07,29.13,29.13,0,0,0,4.8-1.06,29,29,0,0,0,5.65-3,6,6,0,0,0,2.49-4.72c.22-7.49.39-15,.4-22.47,0-3.15-1.66-5.8-3.33-8.38-2.4-3.69-5-7.27-7.09-11.13-3.92-7.19-4.74-15.06-3.82-23.07.55-4.81,1.63-9.57,2.44-14.12h26c.7,3.39,1.6,7.07,2.19,10.79,1.23,7.74,1.22,15.47-1.86,22.81a86.81,86.81,0,0,1-5.67,10.3c-1.37,2.34-3,4.51-4.43,6.84a14.17,14.17,0,0,0-2,7.92c.16,6.32.23,12.64.33,19a8.18,8.18,0,0,0,4.79,7.82A64.56,64.56,0,0,0,142.31,190.82Zm.5-69.11a66.5,66.5,0,0,0-2.62-17.24H117a66.83,66.83,0,0,0-2.63,17.24A109.18,109.18,0,0,1,142.81,121.71Z"/><path d="M90.05,31.34H73.55c0-.15-.07-.55-.07-.95,0-2.3,0-4.59,0-6.89,0-.8,0-1.44-.91-1.95s-.93-2.67.14-3.28a1.49,1.49,0,0,0,.77-1.59c0-1.64,0-3.28,0-4.92a1.28,1.28,0,0,1,1-1.47,21.27,21.27,0,0,1,14.59,0,1.36,1.36,0,0,1,1.07,1.54c-.08,1.31,0,2.63,0,3.94,0,1-.21,2.05,1,2.8.8.51.63,2.54-.21,3s-.78,1-.78,1.74C90.05,26,90.05,28.65,90.05,31.34Z"/><path d="M144.45,191.52c.59,1.42-.14,1.71-1,1.78-4.85.39-9.7,1-14.55,1-5,0-10.07-.61-15.11-1-1.3-.11-1.29-.24-1.27-1.77A188.09,188.09,0,0,0,144.45,191.52Z"/><path d="M116.49,101.82a103.78,103.78,0,0,1,24.28,0A106,106,0,0,1,116.49,101.82Z"/></g></svg>