<svg id="Layer_1" data-name="Layer 1" xmlns="http://www.w3.org/2000/svg" viewBox="0 0 200 200"><g id="zYhfFi.tif"><path d="M177.34,119.69l-7.29,9.76-1.32-.57c-3.26-23.67.88-46.32,9.71-69,16.82,29.26,13.43,80.28-26.19,109.71-38.17,28.37-91.37,21.91-122.31-15C.49,119.41,4,65.74,37.6,34.09,72.84.91,125.93,4.38,155.11,30.23,129.82,40.82,107.32,55.3,86.73,72.84s-38,38.1-54.11,60.93L22.33,126.3l-1.06.35c2.73,4.82,5.33,9.71,8.3,14.37.53.84,2.6,1,4,1,41.18,0,82.36-.5,123.53.25,9.49.17,14.32-2.7,17.15-11,1.26-3.69,2.83-7.29,4.26-10.93Z"/><path d="M136.52,127.21c-16.66,12.11-22.87,11.79-36.84-2.76-14.83,14.21-25.5,15-36.59,2,23.52-33.1,51.8-61.11,87.84-81.07C146,47.86,141,50.22,136.15,53,103.2,71.69,76.59,97.32,54.83,128.13c-3.45,4.9-7.85,7-13.77,7.05,13.82-38,107.13-106.33,146.83-107.72-3.77,6.8-7.79,13.38-11.19,20.27-12.53,25.3-18.26,52-14.85,80.2.84,7-1.29,8.95-8.13,7.32C147.9,133.86,142.63,130.17,136.52,127.21Z"/></g></svg>