<svg id="Layer_1" data-name="Layer 1" xmlns="http://www.w3.org/2000/svg" xmlns:xlink="http://www.w3.org/1999/xlink" viewBox="0 0 321 200"><defs><style>.cls-1{fill:none;}.cls-2{clip-path:url(#clip-path);}</style><clipPath id="clip-path"><rect class="cls-1" x="459" y="230" width="178" height="178"/></clipPath></defs><g id="_450mAR" data-name="450mAR"><path d="M21.22,147.79v-2.94l6.61-12.21c.24-4.63.54-9.45-1.82-13.17l1.06-6.88-2.5-.85v-1.93H26.7l-3.19-8.21a20.39,20.39,0,0,0-7-15c-.27-.25-.48-.64-.79-.76-3.62-1.39-6-4.6-9.51-6.22A12.23,12.23,0,0,0,0,78.54V69.6c2.19,2.07,1.94,5,2.49,7.57a24.69,24.69,0,0,1,11,4.66l-.16.16.77.91.36-.35a6.25,6.25,0,0,0-1-.72c-.17-.62-.25-1.31-.42-2s-.49-1.62-.74-2.43c2.53.52,2.34,3.36,4,4.71,3.41,2.69,6.53,5.74,9.82,8.57,1.17,1,2.6,1.71,3.77,2.71,4.52,3.88,6.39,3.11,12.2,3.3.48,0,.92,1.09,1.58.13a2.45,2.45,0,0,1,.39-.4l1.49,1.36c2.11-1.23,4.39-2.45,6.54-3.86a40.69,40.69,0,0,0,3.72-3.12l-1.09,3.53c.6,1.24,1.72,2.41.7,4.21-.88,1.57.75,3,.69,4.29l6.19.86c1.19-1-1.14-3.23,1.33-3.95v4.11c1,.39,1.59.67,2.23.89a4.62,4.62,0,0,0,1.94.52c.51-.06,1-.68,1.42-1l16,8.82,6,.92c4.18-.72,6.39-4.9,9.36-8.36v-3.28l2.17-1.45a15.93,15.93,0,0,1-13.4,14.82,3.53,3.53,0,0,0,3.33,2c1.14,0,2.34,1.1,3.42,1,5.68-.65,10.94,1.26,16.32,2.37a12,12,0,0,1,4.13,2.08,26,26,0,0,1,3.12,3c.55-1.23.82-1.94,1.18-2.6.24-.47.91-.94.84-1.3-.75-3.92,2.31-7,2.29-10.77,0-2,.55-4.29-.13-6.07-1.14-3-1.36-6.29-3.6-9.15s-3-6.51-4.06-9.93c-1.83-5.65-1.51-13.57.41-20,.5-1.68.65-3.47,1.22-5.1l2.42-7.34,5.25-6.62h3c-.13.31-.18.83-.4.92-2.62,1-4.12,3.14-5.47,5.45a11.32,11.32,0,0,1-1.93,2c-.18,1.56.35,3.12-1.07,4.61-1.71,1.79-.4,4.78-1.44,6.57-1.5,2.58.06,5.23-1,7.42a10,10,0,0,0-.46,7.71c.73,2.31.63,5,1.83,7,1.09,1.8.34,4.58,2.92,5.5,1.9,4.13,4.07,8.16,3.66,13-.18,2.21,0,4.45,0,6.68,0,1.6.29,3.35-1.13,4.53-2.06,1.69-1,4.29-2,6.43-1.58,3.5-4.61,5.79-6,9.12-4.23.2-4.23.2-10.31,3.27l-2.88,5.61c2.42.53,5,.05,7.44.29.51,0,1,.7,1.44,1.07H101.58a14.61,14.61,0,0,1,5-10l3.77-.24c-1.22-1.1-1.79-2-2.25-2a15.28,15.28,0,0,0-7.62,3.28l.79-3.08-1.91-.27,1-2-4.76-4.81a3.71,3.71,0,0,1-1.73-.45c-3.32-2.18-5.79-5.35-8.83-7.9-1.62-1.36-4.25-1.93-4.76-4.52-3.27-1.54-5.89-4.33-9.64-5-2.24-.37-4.48-.78-6.68-1.35a24,24,0,0,1-3.81-1.55c-.9-.41-1.73.79-2.92-.29-.81-.74-2.84-.14-4.32-.14h-8.2l-2.87-5.55A21.67,21.67,0,0,1,24.12,91a17.25,17.25,0,0,0-2.95-2.32l.17-.16-.78-.91-.35.35a6.17,6.17,0,0,0,1,.72c.31.75.45,1.62.83,2.37,1.69,3.3,3.33,6.6,2.73,9.33l4,10.58h1.41c.59,2.09-1.48,2.72-2.4,4.35.2,1.7,0,3.83.73,5.59A20.38,20.38,0,0,1,30,131.7c-1.06,1.84-3,3.68-2.92,5.42.12,2.64-2.62,3.45-2.56,5.7C22.1,143.6,23.16,146.68,21.22,147.79ZM103,129.67a25.55,25.55,0,0,0,3.79,1.32,25.93,25.93,0,0,0,4,0l1.2,2a12.72,12.72,0,0,0,6.84-5.68c-2.68-1.83-4.91-4.16-7.59-5a73.68,73.68,0,0,0-8.43-2.39c-3.56-.58-7.29-.14-11.14-.14,1.42,3.47,4.72,3.89,7.14,5.31C100.69,126.3,102.37,127.25,103,129.67ZM45.1,102c2.93-.37,5.47,2.5,8.55.56-.24-2.34.3-4.82-.23-6.86L43.9,99.36Zm43,14.31-.12-1-1.82.43.09.53Z"/><path d="M55.84,90.82c.62-1.25.84-2.7,1.33-3.91,1-2.53,1.22-5.44,3.14-7.62,1.74-2,2.44-4.57,4.06-6.72,2.09-2.75,2.15-6.27,1-9.68-.85-2.49-2.14-4.91-1.66-7.67.21-1.18.62-2.32,1-3.66-1.74-2-.77-4.65-1.45-7-1-2.75-2.32-5.42-2.83-8.25-1.15-6.4-4.81-10.51-9.94-14.33a49.8,49.8,0,0,0-13.63-7.6c-2.6-.89-5.31-2.08-8.19-1.74-2.64.32-5.26-.59-8,.84-1.46.75-3.73.72-5.54,1.39a39.29,39.29,0,0,0-3.9,2C6.26,17.21,3,18.81,0,22.69V19.34c3.38-1.29,6.2-4.26,10.31-3.23,1.49-.95,2.38-3.06,4.62-2.35,5.53-3,11.75-3.15,17.38-2C39,13.17,45.91,15,50.93,20.5c1.42,1.55,3.42,2.55,5,4A17.59,17.59,0,0,1,61.66,35c.43,2.52.78,5.42,2.41,7.87.89,1.34.68,3.42,1,5.56H67a46.68,46.68,0,0,0-2.14,10.13l2.43,1.67v7.19h4.18c-.75,2.37-2.92.4-4.13,1.34-1,4-5.1,11.28-7.57,14.3l-1.9,7.81Z"/><path d="M0,159H10.68l9.38-8c.61-1.06-1-3,1.16-3.2v3.73l-5.62,6.25c-1.86-.85-2.54,1.94-4.17,2.21a9.41,9.41,0,0,0-5.24,2.35c.79.8,1.2,1.57,1.79,1.76a28.88,28.88,0,0,0,11.59,1.53c1.4-.15,5.93,0,7.2.59,3.14,1.33,6.37,2,8.67,1.76,4.2,2.07,7.42,3.71,10.69,5.26,1.39.65,2.88,1.11,5.26,2l2.28,2.7h7.76c-.29.37-.57,1.06-.88,1.07-2.39.09-4.8.05-7,.05a59.8,59.8,0,0,0-18.11-8.83c-6.75-1.85-13.48-4.34-20.75-3.5-1.9.22-3.77-.42-5.68-.86-2.75-.65-3.76-1.72-3.29-4.68H0Z"/><path d="M226.73,181.29c-.29.37-.58,1.07-.87,1.07-4.25,0-8.58.53-12.68-1.71l-2.44-3.88a3.36,3.36,0,0,0-.54.4.83.83,0,0,0-.22.45q0,10.22,0,20.42h-1.11c0-2.94.1-5.88,0-8.82-.15-3.3.71-6.7-.8-9.89,2.31-3.49-1.73-6-1.41-9.21A59,59,0,0,1,214.7,180Z"/><path d="M280.34,198c-.37-.95-1.12-1.93-1-2.84a12.08,12.08,0,0,0-1.21-5.62c-1.31-3.32-2.7-6.62-4.34-10.62.43-4.63-2.48-9.23-4-14.15-.93-3.07-1.88-6-1.74-9.21.19,0,.52,0,.54,0,1.7,5.41,3.18,10.89,5.14,16.2a18.44,18.44,0,0,1,1,6.31,58.26,58.26,0,0,1,6.7,19.92Z"/><path d="M107.22,198V183a49.77,49.77,0,0,1,.06-6.11,53.37,53.37,0,0,1,1.67-6.54c.9,5.41.38,9.89.48,14.32s0,8.9,0,13.35Z"/><path d="M322.78,9.29H315c-3,0-5.94-.14-8.9,0-2.64.17-5.25.71-7.88,1.08l1.49-2.24h23.08Z"/><path d="M71.48,198a28.19,28.19,0,0,1,2-2.21c1.14-1,2.83-1.73,3.48-3a16.45,16.45,0,0,1,5.68-6c-.12.67,0,1.53-.39,2-1.17,1.37-2.52,2.59-4.08,4.15v5H77.07v-2.61L73.71,198Z"/><path d="M0,145.55,13.31,147v1.55c-4.44-1.38-8.91-.43-13.31-.71Z"/><path d="M199.92,198c.37-3.14.67-6.3,1.18-9.42.11-.65,1.05-1.17,2.27-1.42a50.11,50.11,0,0,0-1.17,5.35,50.24,50.24,0,0,0,0,5.49Z"/><path d="M316.08,85.24l6.7-6.7v2.23l-5.3,4.47Z"/><path d="M27.92,198l2.24-3.35V198Z"/><path d="M322.78,36.1c-.85-.17-2.14.55-2.23-1.12h2.23Z"/><path d="M2.23,100.88H0V99.76C.85,99.93,2.14,99.21,2.23,100.88Z"/><path d="M2.23,96.41H0V95.29C.85,95.46,2.14,94.74,2.23,96.41Z"/><path d="M0,137.73l.93.75-.93.37Z"/><path d="M196.52,141.14c-.35,3.42,2.22,6.16,2.45,9.52.09,1.29,1,2.52,1.54,3.76l1.42-1.28c.6,4.06,1.16,7.9,1.87,12.74.23.41,2.3,1,1.71,3.13l-2.24-1.31c0,2.76,0,5.3,0,7.83-.06,2.27.32,4.6-1.1,6.81,0-4.58-.08-9.15,0-13.73.08-4.19-1.84-7.72-3.29-11.7l-4.43-.33c-.07-1.36-.14-2.61-.22-4.09h-2.8c-.23-.8-.41-1.43-.66-2.26H188c-.21-1.18-.39-2.19-.6-3.35l-1.8-.37a8.33,8.33,0,0,0-.24-1.87c-1-3-3.65-3.68-5-1-.86,1.65-2.39,1.8-3.59,3.45l-1.92-4.71h-3.62l-.59-3.37-3.1-.26c0-1.91.32-4-.09-5.86s-1.53-3.44-2.41-5.29l-1.39,1.16-1.16-1-.89,1c-1.78-1.72-5-.55-6.34-3.21,2.44.37,4.87.89,7.33,1.07a59.11,59.11,0,0,0,7.66-.1c5.18-1.27,7-6.26,10.61-9.26a19.78,19.78,0,0,1,2.63-7.29c3-4.91,6-10,5.28-16.16-.06-.55.07-1.13,0-1.67-.37-2.06-3.05-3.63-2.08-5.7s.65-3.83,1.06-5.7c.31-1.45-2.16-2.74,0-4.15-1.82-3.77-4.41-7.34-3.33-11.78-.48-.54-1-.89-1.17-1.37a22.27,22.27,0,0,0-9.81-12.06c-2.52-1.53-4.46-3.85-7.26-5.32-3-1.58-6.28-1.89-9.3-3.13a12.5,12.5,0,0,0-4.54-1.07c-1.51,0-3,.89-4.55,1-2.77.17-5.56,0-8.1,0-3.91,1.46-6.88,4.61-11.2,4.47.4-.58.66-1.46,1.2-1.7a114.31,114.31,0,0,1,11.44-4.67c2-.64,4.37-.12,6.55-.36,6.58-.72,12.6,1.51,18.66,3.43a15.43,15.43,0,0,1,4.46,2.66c2.29,1.73,4.42,3.68,6.66,5.48,3.74,3,5.9,7,7.93,11.23v5.49a11,11,0,0,1,3.39,7.57c.11,2.22.1,4.46,0,6.69a15.4,15.4,0,0,0,1.15,7.33c2,4.24,1.08,8.11-1,12.06-1.68,3.22-3.09,6.53-5.05,9.63-1.53,2.41-2,5.47-2.78,7.74l-6.47,6.36c2.36,1.62,4.87-.35,6.92-1.09s4-1.94,6.45-2a6.2,6.2,0,0,0,2.75-1.35c3.2-2.12,6.37-4.3,8.05-5.44,5.44-1.34,9.13-2.63,12.91-3.09s7.8-.1,11.7-.1c-.13.32-.26.91-.4.91a85.16,85.16,0,0,0-16.89,2.19,35.65,35.65,0,0,0-12.81,5.41,27.35,27.35,0,0,1-9,3.81c-.52.15-.9.77-2,1.75,2.53.51,4.84.27,5.38,2.69-1.06-.13-2.46.13-3.11-.45-2.28-2-4.95-1.77-7.61-1.79-1.48,0-2.95,0-4.33,0l-2.83,2.79c.45,2.44-2.46,4.79,0,8,1.91-3.1,3.56-5.76,5.2-8.4,1.42,2.07-.55,3.54-1.11,5.24-.61,1.87-2.71,3.35-1.29,6.06l2.3-1.36c1.23-1.59-.74-3.74,1.63-4.49.15,3-.33,6,.36,9.33,1-.5,1.7-.63,1.83-1,.83-2.24,1.54-4.53,2.27-6.82a9.51,9.51,0,0,1,3.58-4.72c-1.24,3.06-2.35,5.78-3.69,9.06,4.25-.84,3.63-5,6.13-6.8l3-.44c-1.66-2-1.66-2-2.29-4.21,1.86,1.88,3.74,3.74,5.57,5.65.6.63.94,1.78,1.64,2,3.5,1.22,5.05,4.59,7.71,6.72s5.23,4.35,7.72,6.66c.54.51.55,1.58.81,2.4-1.08-.9-2.17-1.78-3.24-2.69-3.76-3.19-7.52-6.4-11.33-9.54a1,1,0,0,0,.17-.16l-.78-.91-.35.35A6.17,6.17,0,0,0,196.52,141.14Zm-1.78,3.43c-2.92-.64-3.37,1.67-4.58,3,2.27.17,3.09-1.65,4.06-3.19l.22.22.91-.78-.35-.35A.93.93,0,0,0,194.74,144.57Zm-3.66-.06a26.73,26.73,0,0,0,1.83-2.62,6.3,6.3,0,0,0,.22-2.15c-2.91.65-3.79,2.83-6.09,4.56Zm.33-7.57c-2.8.24-2.8.24-5.84,4.23C188.44,140.87,189.24,138.43,191.41,136.94Zm2,14.85,3.67-4.43C194.34,148.07,193.06,148.69,193.36,151.79Zm4.14-.48-1,.1.42,2.92.57-.06Zm-29.6-21.39h.38V128.8h-.38Z"/><path d="M283.69,84.12c1.32.91,2.88,1.16,3.77,3,1.26,2.64,4.54,3.19,7.09,4.79,1.8,0,3.85,0,5.89,0a15.5,15.5,0,0,0,12.38-5.14c.88-1,1.73-2,3.26-1.57A19.57,19.57,0,0,1,306.82,93h-8.26c-.91,1.81.64,4.37-2.72,5.64a52.27,52.27,0,0,1-5.69,0c-2.75-.27-5.25,1.06-7.85,1.06-2.76,0-5.08,1.58-7.6,1.7-4.52.23-8,3.06-12.23,4,1.5-3.49,5.17-3.89,7.9-5.63,1.78,2,3.51-.87,5.25.05,6.3-3,13.05-2.11,19.92-2.25.54-1.26,1.11-2.61,2.09-4.89l-2,1.23c-4.76-1.11-8.15-3.95-11.14-7.3A6.9,6.9,0,0,1,283.69,84.12Z"/><path d="M285.92,19.34c0,.37.14.82,0,1.1-1.8,3.16-3.65,6.29-5.52,9.48V35.6l-1.86,1.51c-.92,1.82.35,4-1.45,5.22,1.47,1.76-.55,3.41-.16,5.25a19,19,0,0,1,0,5.54c-.09,1-.8,1.9-1.05,2.89-.36,1.45-1,3-.74,4.39a35.92,35.92,0,0,0,2.33,7.93c1.15,2.68,2.88,5.1,4.23,7.71s2.32,5.14,2,8.08l-2.18-1.46a6.72,6.72,0,0,0-.89-5.48,29.13,29.13,0,0,1-4.37-7.67c-2.53-6.07-2.65-6-2.55-12.56,2.05-3.34,3.37-6.51,1.21-10.11a1.58,1.58,0,0,1-.14-1.05c.58-2.54,1.1-5.1,1.84-7.6.55-1.84,1.76-3.55,2-5.4s1.27-3.69,1.61-5.52A11.3,11.3,0,0,1,285.92,19.34Z"/><path d="M262.47,105.34v2l-4,.36c-1.06.92-1.84,2.55-3.79,2.13.81-2.79,3.43-3.16,5.81-4-.31-1.08-.49-1.94-.81-2.74-2.56-6.43-2.56-12.67.94-18.84a49.08,49.08,0,0,0,3.52-8,67.18,67.18,0,0,0,1.71-7.09c-2.12-2-1-4.5-1.06-6.77-.1-2.51-1.95-4.71-1.18-7.33,2.11.74.82,3.09,2.1,4.46.75.79,0,2.87.18,4.33.15,1.18.8,2.28,1.06,3.46,1,4.63-.91,8.82-2.41,12.94-1.41,3.86-3.62,7.42-5.13,10.42.34,3,.72,5.26.82,7.54C260.32,100.83,260.48,103.36,262.47,105.34Z"/><path d="M96.05,52.85c3,0,4.2,2.43,5.57,4.49.85,1.29,2.39,3,2,4-.57,1.68,2.24,2.75.36,4.21,3.6,5.34,3.38,11.38,3.19,17.42,2,3,.74,6.36,1.17,9.48-2,1.76-1.56,5.22-4.52,6.2a15,15,0,0,1,.79-2.43c1.7-3.31,3.35-6.61,2.46-10.13l-2.26-4.42c1.58-.87,0-2.29.82-3.28,1.35-1.66-.37-2.9-.64-4.35a25.12,25.12,0,0,1-.05-4.35L102.72,68V63.48C101.42,58.47,98.28,56,96.05,52.85Z"/><path d="M210,94.17c-3.49-1.71-3.64-5.4-4.27-8.38-.51-2.41-.81-5.2.76-7.9.88-1.52.16-4,.16-6a34.25,34.25,0,0,1,0-4.42,10,10,0,0,1,1.1-3.41c1.66-3.06,1.3-6.73,3.21-9.77.68-1.08,1-2.16,2.34-2.56,0,.37.13.81,0,1.11-.69,1.38-1.61,2.67-2.17,4.11A38,38,0,0,0,210,61.48c-.37,1.52-.32,3.38-1.22,4.47-1.12,1.35,0,2.59-.56,3.9-.88,1.93-1.08,4.14.41,5.82-1.68,4-3,7.91-.9,12.21A54.08,54.08,0,0,1,210,94.17Z"/><path d="M225.61,41.68c1.49-2.09,4.62-1.12,6.07-3.35a47,47,0,0,0,6.61-.06c2.8-.4,5.29.72,7.84,1.29,2.27.51,4.82.73,6.59,2.86.82,1,2.59.26,3.89,1.35.89.75,2.11,1.07,2.51,2.38a64.07,64.07,0,0,1-13.22-5.59c-3.09,0-6.63-.14-10.14,0S229,41.31,225.61,41.68Z"/><path d="M223.38,113.16v-2.88c-2.3-1-5.54-.7-6.7-3.82.55,0,1.36-.24,1.61,0,2.39,2.59,5.49,2.2,8.52,2.19h2.52c5.66-1.36,8.31-4.85,11.37-7.81h1.66A24.22,24.22,0,0,1,231,110h-4.18Z"/><path d="M69.25,47.27c.29-.38.55-1.06.87-1.08a59.14,59.14,0,0,1,21.07,2.4c.2.06.27.59.39.91-1.29,0-3.18.54-3.76-.1-1.85-2-4.33-.11-6.13-1.42-2-1.46-4.23-.51-6.35-.68S71.28,47.27,69.25,47.27Z"/><path d="M216.68,48.38c.38-.57.65-1.34,1.18-1.69a20.13,20.13,0,0,0,4.87-5h2.88c-1.16,1.35-2.08,3.38-3.53,3.87C220.05,46.22,219.2,48.93,216.68,48.38Z"/><path d="M298.21,10.41c-2.28,2.51-5.78,5-7.82,5.58C292.19,13,294.58,10.83,298.21,10.41Z"/><path d="M216.68,106.46l-4.47-3.71V98.64c1.84.2.82,1.66,1.12,2.54C214.17,103.11,217.16,103.68,216.68,106.46Z"/><path d="M260.23,48.38h1.6c1.87,1.9,1.89,4.28,1.75,6.7-.37-.26-.93-.44-1.08-.8C261.69,52.34,261,50.35,260.23,48.38Z"/><path d="M91.58,49.5c2.46-.17,3.49,1.56,4.47,3.35C93.6,53,92.57,51.29,91.58,49.5Z"/><path d="M290.39,16c-1,1.8-2,3.52-4.47,3.35C286.9,17.55,287.94,15.83,290.39,16Z"/><path d="M212.21,98.64A5.15,5.15,0,0,1,210,94.17C212.45,94.8,212.3,96.74,212.21,98.64Z"/><path d="M214.44,50.62V48.38h2.24Z"/><path d="M259.12,46.15c1.67.09.95,1.39,1.11,2.23C258.56,48.29,259.29,47,259.12,46.15Z"/><path d="M103.87,98.64c-.17.85.55,2.14-1.12,2.24C102.92,100,102.2,98.74,103.87,98.64Z"/><path d="M67,48.38c.1-1.67,1.39-1,2.24-1.11C69.15,48.94,67.86,48.21,67,48.38Z"/><path d="M213.32,51.73l1.12-1.11Z"/><path d="M158.5,84.5v2.79H146.61c-2.37-1.55-1.07-4.06-1.47-6.21A14.84,14.84,0,0,1,158.5,84.5Zm-12-1.11L148,86.33l.56-.21c-.09-1.37-.18-2.75-.3-4.52Z"/><path d="M174.81,82.78c2.9,1.34,5.37-2.23,8.28-.49-1.1,3.5-1.1,3.5.08,5.75l-1.56,1.51-7-1.34C172.76,86,172.76,86,174.81,82.78Zm-.58,2.74v.56h2.24v-.56Z"/><path d="M174.2,116l-18.78-1.9-.2-2.07c1.36,0,3-.5,3.74.11,1.49,1.24,3,.89,4.61,1s3-.11,4.65.93c1.1.7,3.28-.3,5.78-.64l.83,1.87Z"/><path d="M140.48,112.92c-1.93-1.06-3.1-1.33-3.66-2.07a24,24,0,0,1-4.94-17.3,2.61,2.61,0,0,1,.82-.46,4.79,4.79,0,0,1,1.39.29,15.26,15.26,0,0,0-.5,1.81c-.23,1.36-1,3.19-.46,4,1.41,2,1.66,4.11,2.18,6.35.43,1.89,2.29,3.45,3.52,5.15Z"/><path d="M157.38,71.71v2.36c-2.61,0-5.15-.15-7.65.05-2.18.17-4.33.74-7,1.23,2.32-2.81,5.45-1.51,7.34-2.6C152.72,71.22,154.94,72.45,157.38,71.71Z"/><path d="M160.83,67.37c-2.39,0-5.37-.88-7,.23-2,1.3-4.35-.11-6,1.91-.51.63-2.45.09-3.74.09.25-2.12,2-.78,3-1.26,4.06-2,8.44-2.34,12.89-2C160.28,66.32,160.54,67,160.83,67.37Z"/><path d="M160.87,67.17c2.62.44,5.23,1,7.87,1.27s5.09,0,7.6.47C171.05,69.69,165.76,70.36,160.87,67.17Z"/><path d="M91.58,166.77c.77-4.92,2.35-10,5.59-12.28,0,.37.13.81,0,1.09a76.13,76.13,0,0,0-4.65,10.79C92.42,166.59,91.9,166.64,91.58,166.77Z"/><path d="M84.88,181.29c0-.73-.31-1.74.05-2.16,2.31-2.73,3-6.46,5.54-9a10.92,10.92,0,0,1-1,4A29.82,29.82,0,0,1,84.88,181.29Z"/><path d="M174.53,99.05l2.25,1.29L173,107.53l-3.64-1.78,3.69-.66Z"/><path d="M100.52,148.9c0-1.49,1.18-1.23,1.94-1.08,2.57.52,4.82-.71,7.18-1.24.8-.18,1.37-1.4,2-2.15l1.28.71c-1,3.44-4.22,2.92-6.46,3.64C104.7,149.37,102.53,148.9,100.52,148.9Z"/><path d="M165,64.13l-14.13-1.71C156.52,61.08,160.82,62.2,165,64.13Z"/><path d="M157.53,104.85v-3.5l2.55-2.17,1,2.21-2.47,1.15c0,2.28,1.85,2.66,4.09,3.48C159.32,106.22,159.32,106.22,157.53,104.85Z"/><path d="M141.84,114.28a16,16,0,0,1,7.82,6.7,3,3,0,0,1-2.86-1.12c-1.44-1.53-3.09-2.85-5-4.54Z"/><path d="M131.5,127.39c-.89,2.84-1.56,5.78-4.57,7.27l-.77-1.37Z"/><path d="M178.63,74c-2.45.29-5.09-.57-7.59.91l-.13-1.5c.38-.18.68-.46,1-.47C176.79,72.91,176.79,72.91,178.63,74Z"/><path d="M171.62,96.64c-1.73-2.26-1.73-2.26-1.6-5.64l1.54-.19C170.64,92.83,172.91,94.48,171.62,96.64Z"/><path d="M82.65,186.88l-1.37-2.63,3.6-3A16.68,16.68,0,0,1,82.65,186.88Z"/><path d="M148.55,140a4.17,4.17,0,0,0,5.58,0v2l-5.58.25Z"/><path d="M150.58,63.84h-7.42C145.58,62.52,148.09,63.1,150.58,63.84Z"/><path d="M148.39,140.26a15.11,15.11,0,0,0-2.73-1.36c-.8-.23-1.72-.05-2.63-.87l3.93-.38-.55.75,2.68,1Z"/><path d="M150.78,122.1c1.45,1.16,3.9,1,4.47,3.35l-4.47-1.33Z"/><path d="M154.25,138.05l4.31-.4-.28,2.83Z"/><path d="M130.76,127.94l3.58-3,1.21,2.43Z"/><path d="M144.08,70.43h-5.49A5.24,5.24,0,0,1,144.08,70.43Z"/><path d="M158.23,76.06a11,11,0,0,1,2,1.39c.4.41.5,1.11.1,2.22a11.91,11.91,0,0,0-1.55-1.47,10.48,10.48,0,0,0-1.84-.81Z"/><path d="M173.65,78.94l-2.58,3.51v-4Z"/><path d="M98.29,152.25V148.9h2.23Z"/><ellipse cx="165.86" cy="104.79" rx="2.37" ry="0.39"/><path d="M139.61,112l2.23,2.24h-2.23Z"/><path d="M176.47,65.1l2.21.16-.14,2.13-2.63-1.7Z"/><path d="M134.22,119.65v-3l.58,0,.41,3Z"/><path d="M90.47,170.12c.42-1.1-1-2.82,1.11-3.35C91.16,167.87,92.62,169.6,90.47,170.12Z"/><path d="M97.17,154.49c.17-.85-.56-2.14,1.12-2.24C98.12,153.1,98.84,154.39,97.17,154.49Z"/><path d="M134.22,111.87V110l.53-.09.43,1.82Z"/><path d="M178.7,74.07c.85.17,2.14-.55,2.24,1.12C180.09,75,178.8,75.74,178.7,74.07Z"/><path d="M158.6,132.15c-1.67-.1-.95-1.39-1.12-2.23C159.15,130,158.43,131.3,158.6,132.15Z"/><path d="M161.3,133.44l-2.7-.77a9,9,0,0,1,1.56-.48C160.32,132.16,160.54,132.58,161.3,133.44Z"/><path d="M155.25,138.85,154.13,140Z"/><path d="M157.38,130l-.91-.78.35-.35.78.91Z"/><path d="M149.66,121l1.12,1.12Z"/><path d="M205.51,169l1.11,1.11Z"/><path d="M181,75.07l.91.78-.35.35-.78-.91Z"/><path d="M174.23,98.64l-1.11-1.11Z"/><path d="M173.12,97.53,172,96.41Z"/><path d="M176.37,65.25l-.92-.78.36-.35.77.91Z"/><path d="M262.47,143.32v2.84c-2.89,5-5.48,9.23-7.74,13.62-.6,1.18-1,2.15-2.31,2.52,1-4.21,3.24-7.83,5.4-11.46,2-3.36,2.29-3.47,2.64-7.52Z"/><path d="M249.07,165.66v1.61c-3.36,2.26-6.74,4.44-10,6.76-2.14,1.52-4,3.54-6.74,3.91,1.12-3.19,4.48-3.95,6.71-5.91C242,169.44,245.68,167.74,249.07,165.66Z"/><path d="M237.9,131c0,.37.14.83,0,1.08a82.77,82.77,0,0,0-6.87,13c-.3.68-1.34,1-2,1.56,1.23-5,4.23-9.18,6.51-13.69C235.9,132.14,237.07,131.67,237.9,131Z"/><path d="M268.05,155.6c-.31-.13-.9-.24-.9-.38-.22-4.45-2-8.75-1.36-13.28.1-.78.43-2-1.09-2,.36-1.13.73-2.25,1.45-4.48,1.14,3.19.55,5.31.8,7.33s-.33,4.16.62,6.36C268.38,151,267.94,153.44,268.05,155.6Z"/><path d="M254.65,109.81l-4.12,5.59h-1.46l3-5.25-2-1,.63-1.94Z"/><path d="M243.48,123.21c0,.37.16.88,0,1.08-1.92,2.2-3,5.13-5.56,6.74C238.32,127.4,240.49,125,243.48,123.21Z"/><path d="M225.61,151.14c-.43,4-3.56,4.81-6.7,5.58C220.51,154.09,223.47,153.11,225.61,151.14Z"/><path d="M217.79,157.84c-.17,1.78-1.57.86-2.77,1.21-1.08-2-4.12-2.59-3.93-5.68l5.3,4.47Z"/><path d="M321.87,103.57l-7.23,2.86c.55-1,.73-1.9,1.23-2.15C317.68,103.37,319.58,102.38,321.87,103.57Z"/><path d="M246.83,117.63v2.92l-3.35,2.66C243.46,120.67,245.55,119.39,246.83,117.63Z"/><path d="M229,146.67c.17,2.45-1.56,3.48-3.35,4.47C225.44,148.68,227.17,147.65,229,146.67Z"/><path d="M306.88,95.62c0,1.92-.65,3.18-3.48,2.91A12.85,12.85,0,0,1,306.88,95.62Z"/><path d="M264.7,140a2.75,2.75,0,0,1-2.23,3.35A2.75,2.75,0,0,1,264.7,140Z"/><path d="M249.07,115.4l-2.24,2.23-1.11-2.23Z"/><path d="M307.65,105.29l-2-2c1.4,0,2.57-.35,3.31.07,1.41.8-.36.81-.55,1.26C308.28,104.89,307.91,105.07,307.65,105.29Z"/><path d="M232.31,177.94a2.75,2.75,0,0,1-3.35,2.23A2.75,2.75,0,0,1,232.31,177.94Z"/><path d="M229,180.17c-.09,1.68-1.39,1-2.23,1.12C226.82,179.62,228.11,180.34,229,180.17Z"/><path d="M218.91,156.72l-1.12,1.12Z"/><path d="M252.42,162.3l-1.12,1.12Z"/><path d="M251.3,163.42l-1.12,1.12Z"/><path d="M250.18,164.54l-1.11,1.12Z"/><path d="M310.59,105.23l.92.78-.35.35-.78-.92Z"/><path d="M310.49,105.34l-1.11-1.11Z"/><path d="M29.66,51.92l6.07,3.37-1.62,3.09H23.87l-2.55-3.2V51.92Zm-5.59,4.43,1.33-.15V52.71l-2.1.43Zm9.06-1.27h-.37V56.2h.37Z"/><path d="M58.86,59.7,49,58l1-3.72,9.94-1.76Zm-7.47-4.38c-.1,2.35.82,2.37,2.31,1.5l-.29-1.47c-.32-.14-.48-.26-.63-.25A12.46,12.46,0,0,0,51.39,55.32Z"/><path d="M15.67,40.19c5.82-.32,11.07-2.34,16.42-4a6.3,6.3,0,0,1,3.64.53,20.78,20.78,0,0,0,9.37,1.65c1.25-.12,2.52,0,4.63,0-3.39,1.19-9.23,1.44-11.56.76-3.88-1.15-6.57-1-11,.33A38.38,38.38,0,0,1,20.1,41C18.66,41.19,17.15,40.5,15.67,40.19Z"/><path d="M24.57,33.86c.48-.37,1-1.09,1.43-1.06,4.47.33,8.91-.49,13.47.86,3.4,1,7.34.18,11,.22.8,0,2-.42,2,1.1-2.78,0-5.56,0-8.34,0C37.59,35.08,31.16,33.06,24.57,33.86Z"/><path d="M51.27,84v2.55l-2.56-1c-6.16.94-11.71-.8-17.32-2.17C38,83.47,44.57,84.74,51.27,84Z"/><path d="M49.3,67.4l3,1.53a8.36,8.36,0,0,1-2.55,8.39H47.13V75l1.45,1.23,2.6-5.07C50.7,70,48.32,69.52,49.3,67.4Z"/><path d="M38.27,70.89l-3.34,3.63,4.82,1.22-3.11,1c.36.17-.37-.09-1-.48s-1.43-1-2.09-1.53C34,71.09,34,71.09,38.27,70.89Z"/><path d="M12.76,78.45c-1.36-1.36-2.44-1.92-2.52-2.6C9.7,71.65,8,67.52,9.76,63.11a71.46,71.46,0,0,0,.65,7.34C10.85,72.81,11.75,75.09,12.76,78.45Z"/><path d="M49.16,67.37H47.3l-1.12-5.66,1.33-1.33Z"/><path d="M27,43h7.43C32,44.31,29.5,43.71,27,43Z"/><path d="M39.71,76l3.17-2.5,1,2.5Z"/><ellipse cx="48.58" cy="49.5" rx="0.39" ry="3.16"/><path d="M35.38,46,37,48.91l-.69.6a6.83,6.83,0,0,1-1.14-1.14,11.15,11.15,0,0,1-.7-1.71Z"/><path d="M54.73,43.91a2.77,2.77,0,0,1,3.35,2.24A2.75,2.75,0,0,1,54.73,43.91Z"/><path d="M24.57,34.69H20.2v-.5h4.38Z"/><path d="M21.22,44.21h4.37v.5H21.22Z"/><path d="M52.77,34.55l3.44,2.24C53.63,37.72,53.14,36.22,52.77,34.55Z"/><ellipse cx="48.58" cy="44.47" rx="2.37" ry="0.39"/><path d="M54.56,43.78H51.41C53.27,42.74,53.27,42.74,54.56,43.78Z"/><path d="M54.08,40.74,51.38,40a9.07,9.07,0,0,1,1.56-.49C53.1,39.46,53.32,39.88,54.08,40.74Z"/><path d="M21.25,45.9l-2.14.18L19,45.36l2.18-.43Z"/><path d="M58.18,46l.91.78-.35.35L58,46.25Z"/><path d="M51.28,39.56l-.92-.77.36-.36.77.92Z"/><path d="M317.54,51.68a45,45,0,0,1-11.34,1.07V49.61l6.26-3.46h6.76c.1,1.17.2,2.38.3,3.66-.92,1-1.84,2-2,1.87,0-4.2,0-4.2-2.24-3.9.25.92.52,1.88.84,2.89L316,50.5l-.92.78.36.35a6.17,6.17,0,0,0,.72-1C316.82,50.62,317.57,50.62,317.54,51.68Z"/><path d="M281.45,46.93,290,48.64c1.88,2.42,1.88,2.42.14,4.93l-7.09,1.66L281.37,53l.76-3.16C282,49.36,281.79,48.37,281.45,46.93Zm8.77,4.61-.1-1-2.93.42.07.57Z"/><path d="M290.9,81.84l-1.69-1.69,2.16-1.56c1.68.42,4,2.51,6.21,0,3.9.32,7.71-.65,11.69-1.57V79.4c-2.16.21-4.54-.12-6.33.76-2.05,1-3.95.21-5.86.61S292.66,79.76,290.9,81.84Z"/><path d="M289.51,65.46l2.43,5.14,2.58.3c.11.21.23.46.23.46-.92.49-1.84,1-3.08,1.58-1.26-2.43-2.6-5-3.69-7.16,2-2,3.51-3.52,4.49-4.49.13-2.34.2-3.59.28-4.93l1.67-.12C294.72,60.25,294.72,60.25,289.51,65.46Z"/><path d="M303.78,32.58c-5,3.25-10.33,2.17-15.6,1.52,1.75-.16,3.77.16,5.19-.61,1.8-1,3.25,1.57,5.16-.23C299.57,32.28,302,32.76,303.78,32.58Z"/><path d="M318.31,39.33h-11c-.09-.6-.16-1.1-.26-1.77C311.21,36.31,314.71,38.17,318.31,39.33Z"/><path d="M299.54,29c4.3-1.3,8.56-2.51,14.09-1.36-3.15,1-5.66-.05-7.53.8A10.6,10.6,0,0,1,299.54,29Z"/><path d="M307.14,66.81v3.44c-.47.45-.93,1.17-1.56,1.4a13,13,0,0,1-3.16.25l4.09-3.46-4.43-2.93,3.34-.42Z"/><path d="M303.79,32.75c0-.19,0-.52,0-.53a14.69,14.69,0,0,1,12.28,1.64C311.94,34,308,32,303.79,32.75Z"/><path d="M283.69,40.56l2.21-2.87,4.81.64c.8.1,1.91-.35,1.91,1.12a43.36,43.36,0,0,0-5,0A27,27,0,0,0,283.69,40.56Z"/><path d="M293.63,45.7l-1.86,1.86c-.12-1.78-.21-3.15-.39-5.88Z"/><path d="M290.78,29.93c-1.76.71-3,1.21-4.23,1.68-.08,0-.26-.2-.5-.4C287,29.46,288.3,28.93,290.78,29.93Z"/><ellipse cx="317.75" cy="28.84" rx="3.95" ry="0.39"/><path d="M303.2,44.71l2.47-3.38C305.57,43.76,305.57,43.76,303.2,44.71Z"/><path d="M320.55,35a19.42,19.42,0,0,1-3.15,0c-.49-.08-.88-.69-1.32-1.07a20.52,20.52,0,0,1,3.14,0C319.71,34,320.11,34.61,320.55,35Z"/><path d="M300.27,70.53h-3l-.07-.57,2.93-.42Z"/><path d="M318.48,39.59h3.15C319.77,40.62,319.77,40.62,318.48,39.59Z"/><path d="M283.81,40.67l-.78.91-.36-.35.92-.78Z"/><path d="M292.72,39.33l.92.78-.35.35-.78-.91Z"/><ellipse cx="293.18" cy="29.95" rx="0.26" ry="0.79"/><path d="M94.88,136.57a26.06,26.06,0,0,0-4.41,6.09,18.58,18.58,0,0,1-4.51,8,27.54,27.54,0,0,0-2.35,3.39c-.78,1-1.7,1.91-7.58,6.68.7,1.11,3-4.51,6.52-9A15.32,15.32,0,0,1,79.89,150a13,13,0,0,1-1.58-2.59,8.6,8.6,0,0,0-3.51,5.41c-.61,2.14-1.62,4.17-2.16,6.32-.5,2-.61,4.08,3.39,1.63,3.73-1.83,2.25,1-.23,3.37-1.65,1.57-1.62,1.59-2,3.77l-10,10.05H61.43L67,173a5.58,5.58,0,0,1,0-1.55,101.86,101.86,0,0,0,5.72-19.36c.5-2.8,2.65-5.3,4.09-8l6,6.27c2.69-2.46,4.58-4.68,5.64-7.69A19,19,0,0,1,92,136.9c2-2.29,4-4.64,7.45-4.75l-5,10-.65-.18c.39-1.79.79-3.57,1.13-5.41a1.11,1.11,0,0,0,.16.16L96,136l-.35-.35A6.25,6.25,0,0,0,94.88,136.57Z"/><path d="M57.06,195.63c-6.64,0-12.89-1.67-19.05-3.71a8.44,8.44,0,0,1-4.29-2.83l7.08,2.25a20,20,0,0,0,5.65,1.24c1.85,0,3.6,1.37,5.65,1S55.54,194.64,57.06,195.63Z"/><path d="M101.19,135c-1.83,2.82-1.6,6-4.74,7C97.8,139.84,97.72,136.74,101.19,135Z"/><path d="M29.85,194.6l1.74-5.77C33.61,191.74,30.79,192.9,29.85,194.6Z"/><path d="M57.13,196h3.14C58.42,197,58.42,197,57.13,196Z"/><path d="M12.47,117c2.76-2.15,6.16-1.51,9.44-1.51l-1,6.67-8.4-1.51Zm1.23.68V120l2-.41-.4-2Z"/><path d="M12.33,129.86l3.23,3.19-2.93,7.29-3.72-1.76.23-.7h2.47C13.56,135.21,13.8,132.62,12.33,129.86Z"/><path d="M1.13,101h14.3l.28,1.93C11.3,100.77,6.47,103.09,1.13,101Z"/><path d="M15.64,97.53c-4,0-8,0-12,0-.47,0-.93-.7-1.4-1.07,4,0,8,0,12,0C14.71,96.47,15.17,97.15,15.64,97.53Z"/><path d="M11.17,129.36l-2.1-2.1v-3.77l.6-.46,1,2.4.53-.52Z"/><path d="M17.47,106.23l-7.54,1.19,1.5-1.86C15.94,105.34,15.94,105.34,17.47,106.23Z"/><path d="M9.52,112.76l2.58-3.51v4Z"/><path d="M17.87,106.46a2.75,2.75,0,0,1,3.35,2.23l-1.73,1Z"/><path d="M15.64,97.49l2.21.16-.14,2.13-2.63-1.7Z"/><path d="M6.49,137.54h-3l0-.58,3-.41Z"/><path d="M24.57,109.81c-1.1-.42-2.83,1-3.35-1.12C22.32,109.12,24.05,107.66,24.57,109.81Z"/><path d="M4.29,104H2.44l-.09-.54,1.82-.43Z"/><path d="M12.29,129.92l-1.12-1.12Z"/><path d="M77.05,125.61c1.27-3.3,3.49-2.13,5.47-1.77Z"/><path d="M31.27,109h4.38v.51H31.28Z"/><path d="M33.76,102l-.19-2.14.72-.09.43,2.18Z"/><path d="M30.16,110.93l1.11-1.12Z"/><path d="M35.84,103l.91.78-.35.35-.78-.91Z"/><path d="M35.74,103.11,34.62,102Z"/><path d="M71.48,76.42c4.93-.56,8.48,1.09,12.12,5.13-4.1.57-7.33.22-10.43.35l-1.69-1.69ZM73,78.63,74.1,81l.54-.4V78.63Z"/><path d="M102.59,77.81c-.43,2-.85,4-1.29,6.11l-7.12-1.23c-.14-3.33-.14-3.45,2.35-4.12C98.49,78,100.38,76.52,102.59,77.81Zm-7.78,3.4c2.15.75,2.74.2,2.32-.83Z"/><path d="M79.4,103.09v-1.28c2.52.45,4.85,1,7.22,1.25,2.57.21,5.17,0,7.76,0l2,2L93,104.74c-1.88,2.43-4-.91-6.29-.56A13.07,13.07,0,0,1,79.4,103.09Z"/><path d="M64.78,99.76H63.66c-1.78-3.76-4-7.4-3.26-11.82L62,86.36c1.49,1.64.13,2.92-.37,3.91C62.73,93.62,63.76,96.69,64.78,99.76Z"/><path d="M71.48,67.37c1.58-1.72,3.73-1.9,5.85-2.26,1.5-.25,3-1,4.46-1a11.17,11.17,0,0,1,3.82,1.24c.22.08.26.59.39.9H78.23C75.92,66.25,73.92,68.14,71.48,67.37Z"/><path d="M94.88,90.18,97,92.38l-3.7,6.94-1.17-2.58C94.41,95.84,95.09,93.56,94.88,90.18Z"/><path d="M86.22,66.38h9.86C92.39,67.83,88.46,67.72,86.22,66.38Z"/><path d="M70.66,62.73c3.15-1.9,6.08.37,7.81-1.74l3.1,1.74Z"/><path d="M82.1,96.42l-1.5-1.53,1.34-2.82H84.7Z"/><path d="M74.86,71.35,69.58,73,69.05,71l5.77-.33Z"/><path d="M69.25,104.23c-2.88-.57-3.9-1.6-4.47-4.47Z"/><path d="M86.22,63h7.63C90.28,64.43,88.43,64.37,86.22,63Z"/><path d="M74.83,69.89h6.61l0,.55c-1.13.09-2.26.22-3.39.27s-2.23,0-3.35,0Z"/><path d="M93.3,90.23l-.76-2.92-.82.83V84.29c.42.15.86.2.9.35.45,1.67.84,3.37,1.24,5.06Z"/><path d="M98.56,70.29,102,72.53C99.42,73.46,98.93,72,98.56,70.29Z"/><path d="M98.29,70.72H93.82A2.77,2.77,0,0,1,98.29,70.72Z"/><path d="M85.83,62.76H82.69C84.54,61.73,84.54,61.73,85.83,62.76Z"/><path d="M93.63,74.24v3l-.57.07-.42-2.93Z"/><path d="M81.25,73.25l2.17-.41L84.09,76Z"/><path d="M87.41,97.8,87,95.63,90.17,95Z"/><path d="M94.46,62.73l2.71.77A8.87,8.87,0,0,1,95.6,64C95.44,64,95.22,63.58,94.46,62.73Z"/><path d="M85.36,97.7l-2.71-.77a9,9,0,0,1,1.56-.48C84.37,96.42,84.6,96.84,85.36,97.7Z"/><path d="M93.85,71.59l-2.14.18-.09-.72,2.18-.43Z"/><path d="M97.27,63.9l.91.78-.35.35-.78-.91Z"/><path d="M93.82,89.71l1.12,1.11Z"/><path d="M240.47,76.3a20.66,20.66,0,0,1-7.79,1.06l-1.51-2a2.93,2.93,0,0,1,.53-1.14,7.68,7.68,0,0,1,6.2-2.35c1.41.12,2.85,0,4.13,0,1.1,2.93-1.07,4-1.56,4.46a5.73,5.73,0,0,0,.64-3.36l-2.1.23.16,1.9C239.91,75.12,240.58,75.18,240.47,76.3Z"/><path d="M212.62,78.63c-.39-1.92-.73-3.57-1.13-5.53,2.73-.27,5.81-.68,8.54,1.57V77Zm6.11-2.52-.12-1-1.82.43.09.53Z"/><path d="M217.62,99.38l1.59-1.6c2.06,1.26,4.1.83,6.46-.12,2.18-.87,4.82-.57,7.63-.83l1.37,1.38C229,99.11,223.48,100.63,217.62,99.38Z"/><path d="M248.72,94.52c1.75-4.55,3.24-8.74,2.41-13.9a4.27,4.27,0,0,1,2.47,2.3l-1.33,2.42L253.49,87C250.93,88.65,252.32,92.83,248.72,94.52Z"/><path d="M220.34,83.71,218.64,89l3.44,2.62-2.26,2.09c-1.22-2.35-2.21-4.28-3.23-6.24Z"/><path d="M242.36,66.13h-9.84l-.26-1.78C236,63.18,239.1,65.29,242.36,66.13Z"/><path d="M242.36,100.88l6.71-6.71a7.06,7.06,0,0,1-.81,2.41c-1.29,1.54-2.79,2.9-4.17,4.3Z"/><path d="M216.68,58.43c.46-.37.91-1,1.39-1.06,3.63-.09,7.26,0,10.89,0-.46.37-.92,1-1.39,1.06C223.94,58.47,220.31,58.43,216.68,58.43Z"/><path d="M240.13,57.32H229c0-.19,0-.52,0-.54a22.17,22.17,0,0,1,11.15,0S240.13,57.13,240.13,57.32Z"/><path d="M236.78,60.67H229A7.16,7.16,0,0,1,236.78,60.67Z"/><path d="M229,60.67c-2.64,1.44-5.23.91-7.85.25,1.32-.08,2.64-.2,4-.24S227.74,60.67,229,60.67Z"/><path d="M240.35,61.91H248C244.41,63.31,242.56,63.25,240.35,61.91Z"/><path d="M231.2,90.82v-1.7l-2.9-1.3,3.87-.45.16,3Z"/><path d="M243.86,118l-4.38,2.18C240.41,117.86,240.41,117.86,243.86,118Z"/><path d="M219.63,84.49l2-5C222.93,81.89,222,83.21,219.63,84.49Z"/><path d="M224.79,88.69l2.37,2.91-2.37.48Z"/><ellipse cx="220.58" cy="70.16" rx="0.39" ry="2.37"/><path d="M240.13,61.79c-1.1-.43-2.83,1-3.35-1.12C237.88,61.09,239.61,59.63,240.13,61.79Z"/><path d="M251.11,100v3l-.59,0-.4-3Z"/><path d="M234.37,118.61h-3.14C233.09,117.57,233.09,117.57,234.37,118.61Z"/><ellipse cx="220.03" cy="65.69" rx="1.58" ry="0.39"/><path d="M245.07,67.54l-2.71-.77a10.11,10.11,0,0,1,1.57-.48C244.09,66.27,244.31,66.69,245.07,67.54Z"/><path d="M232.48,110.46l-.76,2.7a9.07,9.07,0,0,1-.49-1.56C231.21,111.44,231.63,111.22,232.48,110.46Z"/><path d="M231.22,91.69l-2.13.18-.1-.72,2.19-.42Z"/><path d="M230.27,69.43V67.57l.53-.08.43,1.82Z"/><path d="M242.89,58.62l-2.76-.78a8.91,8.91,0,0,1,1.57-.49C241.86,57.33,242.08,57.75,242.89,58.62Z"/><ellipse cx="250.74" cy="96.41" rx="0.39" ry="1.58"/><path d="M214.47,67.12l-2.13.18-.1-.72,2.18-.43Z"/><path d="M216.79,58.54l-.78.91-.35-.35.91-.78Z"/><path d="M217.68,61.68l.77-.91.36.35-.92.78Z"/><path d="M217.91,61.89l-.78.91-.35-.35.91-.78Z"/><path d="M214.32,66.15l.78-.91.36.35-.92.78Z"/><path d="M234.65,118.63l.91.78-.35.35-.78-.91Z"/><ellipse cx="217.23" cy="65.69" rx="0.26" ry="0.79"/><path d="M231.31,113.26l-.78.92-.35-.36.91-.78Z"/><path d="M176.47,136.32v-3.14l3.31-2.59c.77,1.28-1,1.69-1.6,2.65C177.69,134.05,177.26,134.88,176.47,136.32Z"/></g><g class="cls-2"><g id="vurX8n"><path d="M167.94,191.62a78.71,78.71,0,0,1-.06,9.22c-.85,7-5.73,11.76-11.88,12-8.07.35-13.39-3.05-14.42-10.93a80,80,0,0,1,.1-21c1.07-7.82,6.88-11.37,14.92-10.61,6.08.57,10.93,6,11.38,12.94.17,2.76,0,5.55,0,8.32Zm-7.32.11c0-3.07.17-6.15,0-9.21-.28-3.94-2.48-6.09-5.88-6.17-3.57-.08-6.06,2-6.24,6.09-.26,6.13-.27,12.29,0,18.41.19,4,2.78,6.18,6.31,6.06,3.35-.11,5.54-2.32,5.8-6.27C160.78,197.68,160.63,194.7,160.62,191.73Z"/><path d="M135.19,191.67a74.41,74.41,0,0,1-.07,9.21c-.88,7-5.74,11.74-11.9,12-8.07.33-13.35-3.08-14.4-11a77.9,77.9,0,0,1,.05-20.69c1.1-8,6.91-11.65,15-10.85,6.18.61,11,6.19,11.35,13.28.14,2.67,0,5.35,0,8Zm-7.3,0c0-3,.15-5.95,0-8.91-.26-4.1-2.48-6.34-6-6.38s-6,2.12-6.16,6.2c-.25,6-.25,12.08,0,18.11.16,4,2.67,6.29,6.14,6.27s5.74-2.27,6-6.38C128,197.58,127.89,194.6,127.89,191.63Z"/><path d="M189.39,168.09h7.07v15.34c2.36-.88,4.31-2,6.36-2.29,5.68-.69,9.75,1.89,12,7.19,1.93,4.64,1.95,9.51,1.12,14.32-1.75,10.13-12.29,13.51-19.79,6.93-.91,4.26-4,2.4-6.72,2.59Zm7.16,28.66c0,1.38,0,2.77,0,4.16,0,3.44,1.37,5.27,4.26,5.76,3.91.65,6.73-.41,7.27-3.8a35.32,35.32,0,0,0-.18-11.65c-.64-3.48-3.57-4.66-7.21-3.94-2.81.56-4.13,2.43-4.14,5.89C196.54,194.36,196.55,195.56,196.55,196.75Z"/><path d="M79.19,171.08h21.89v6H85.44c-.43,3.31-.8,6.23-1.18,9.21a46.38,46.38,0,0,1,6.31-1c6.13-.14,10.76,3.53,11.79,9.54a25.91,25.91,0,0,1,.06,8c-.89,6-5.87,10-12.14,10.13-7.77.14-12.69-2.95-13.82-8.91-.17-.95.71-3,1-3,2,.15,4.7-1.77,5.88,1.37,1.35,3.59,3,4.81,6.59,4.48,3.06-.29,4.93-2.25,5.26-5.78.15-1.56.43-3.38-.18-4.68-.87-1.83-2.22-4-3.91-4.71-2.37-1-5.31-1-7.28,1.61-1.79,2.36-4.15.87-6.26.8-.24,0-.68-1.14-.63-1.71C77.63,185.38,78.4,178.4,79.19,171.08Z"/><path d="M41.63,183.56a11.82,11.82,0,0,1,5-10.72c7.81-5.83,19.68-2.16,21.71,6.71A12.2,12.2,0,0,1,66,189.94c-2.76,3.61-5.82,7-8.81,10.43-1.55,1.79-3.23,3.46-5.51,5.9h18v5.79H42.45a7,7,0,0,1,2-7.34c4.44-4.52,8.64-9.28,12.83-14,2.18-2.46,4.13-5.12,3.95-8.69-.14-2.94-1.89-5.12-4.42-5.53-3.71-.61-7,.64-7.38,3.75-.51,3.77-2.61,3.76-5.31,3.51C43.4,183.67,42.72,183.64,41.63,183.56Z"/><path d="M-4.74,212.28V181.84H1.59c.19,1,.37,1.91.41,2.16,3-1,5.8-2.57,8.74-2.83,5.5-.48,9.54,2.57,9.93,8,.55,7.56.14,15.19.14,22.62-.24.23-.31.35-.39.36-6.77.92-6.76.92-6.77-5.87,0-4.56,0-9.12,0-13.68-.06-3.93-1.62-5.42-5.42-5.4s-5.74,1.71-5.75,5.43c0,5.35-.16,10.71.06,16.06.12,2.83-.7,4.05-3.61,3.64A28.46,28.46,0,0,0-4.74,212.28Z"/><path d="M247.2,193a25.64,25.64,0,0,1-4.7-.08,3.32,3.32,0,0,1-2.17-1.7c-1.12-2.84-3-4.29-6.08-4.2s-5.33,1.8-5.54,4.73c-.27,3.94-.38,8.11.62,11.87,1,3.94,7.56,4.45,10.08,1.22,2.64-3.39,2.81-3.46,7.38-2.66,1.49,4.54-4.64,10.25-10.27,10.65-9.53.68-15.42-4.61-15.86-14.22-.22-4.66.24-9.12,3.27-12.93,3.66-4.6,8.69-5.35,14-4.43a10.58,10.58,0,0,1,8.91,8.13A26.36,26.36,0,0,1,247.2,193Z"/></g></g></svg>