<svg id="Layer_1" data-name="Layer 1" xmlns="http://www.w3.org/2000/svg" xmlns:xlink="http://www.w3.org/1999/xlink" viewBox="0 0 200 200"><defs><style>.cls-1{fill:none;}.cls-2{clip-path:url(#clip-path);}</style><clipPath id="clip-path"><rect class="cls-1" x="679" y="230" width="178" height="178"/></clipPath></defs><g id="YOVqQR"><path d="M137.86,166.1l1.59,6c7.66,2.11,15.15,1,22.48,1.76,4.07.42,8.38.66,12.34,2.63,2.49,1.23,5.56,1.29,8.73,2l-1.57,2.43c-3.59-1-7.05-1.67-10.24-3a16.83,16.83,0,0,0-6.61-1c-4.13,0-8.28-.21-12.4.06-3.22.21-6.09-1.1-9.17-1.41a26.23,26.23,0,0,1-4.65-1.34c-.87-1.26-1.94-2.81-3.36-4.89v-3.22c-1.42,0-2.65-.06-3.88,0-8.45.52-15.34-3.54-22.19-7.62-.9-.53-1.18-2-2-2.74-4.9-4.16-9.87-8.25-14.85-12.3s-9.61-8.23-13-13.65c-.45-.71-.67-1.69-1.29-2.13-1.61-1.14-1.75-2.85-2.3-4.48-1-3-1.57-6.12-2.67-9.13s-.36-6.4-.16-9.63a17.3,17.3,0,0,1,1.31-4.15h1.74c-.12,1.83.48,3.51-.41,5.5a9,9,0,0,0,.67,9c2,2.7,2,5.42,2,8,3.72,7.34,9.56,12.47,15,17.93a83.69,83.69,0,0,0,10.5,8.45c2,1.46,3.6,3.51,5.39,5.28a27.72,27.72,0,0,0,20.75,8.52c3.59-.05,7.19,0,10.78,0a17,17,0,0,0,7.6-2.51c2-1.21,4.12-2.16,6.36-3.32,1.3-4.63,5.62-7.16,8.52-10.57l1.56-10.17c2.65-1.91,3.45-5.46,5.42-8.12,2.16-2.91,2.2-6.91,5.25-9.2-.61-3.73,3.2-5.94,3.24-9.47l-.8-.86c.3-1.16.57-2.12.79-3.08s-1.81-1.34-.24-2.52c.38-.28-.19-1.84-.34-2.82a27.58,27.58,0,0,0-.51-3,9.88,9.88,0,0,0-1.09-2.78,16.79,16.79,0,0,0-2-2.2,32.17,32.17,0,0,1,1.78-14.31c-2.49-2-1.4-5.66-2.57-8.79l.62-.68-1.44-5.7-2.53-2.07a60.67,60.67,0,0,0-4.24-18.06c-1-2.52-1.78-5.41-3.7-7-3.34-2.79-4.94-7.16-9.27-9.11-2.6-1.17-4.55-3.74-6.89-5.55a5.46,5.46,0,0,0-2.13-.58c-1.37-1.51-2.4-3.19-3.89-4.2-4.32-2.92-11.41-4.86-17.2-6.65-10.24-3.15-20.64-1.59-31-2-4.2,1.59-8.82,1.7-12.68,4.67a22.5,22.5,0,0,1-8.54,4c-1.9.45-3.59,1.72-5.41,2.55a26.59,26.59,0,0,1-3,.95,18.24,18.24,0,0,0-4.66,5.95c-1,1.81-2.56,3.31-4.11,5.25-1,3.05-1.26,6.82-3.36,10a15.78,15.78,0,0,0-2.3,8.26,21,21,0,0,1-3.12,10.06c0,3.19.08,7,0,10.72,0,1.68.68,3.5-.94,5a2.71,2.71,0,0,0,0,2.57c1.69,2.62.73,5.48,1.55,8,1.26,3.43,2.91,6.77,3.69,10.3A32.55,32.55,0,0,0,54,107.18a39.29,39.29,0,0,1,4.63,9.42,15.47,15.47,0,0,1,.92,5c0,7.37,0,14.74,0,21.91-.5,1.08-.95,2-1.31,2.9-.43,1.08-.45,2.66-1.22,3.2-1.47,1,.28,1.51,0,2.41-1.26,4.75-3.73,8.9-5.76,13.28-1.56,3.35-4.79,5.06-6.77,7.94l2.2,2.2-1.87.81c-7.61-.11-14.75,2.24-21.77,7H13.45L13,181.52c2.72-.58,5.37-.1,8.19-.33a32.87,32.87,0,0,1,17-6.58A71.33,71.33,0,0,0,44.32,170a16.23,16.23,0,0,0,3.79-4.88c1.68-3.64,4.36-6.76,5.42-10.7.13-.47.66-.92.61-1.34-.5-4.29,1.68-7.92,2.79-11.81a12,12,0,0,0,.47-3c.05-3.77-.14-7.56.05-11.32.39-7.37-2.24-13.65-6.42-19.48-2.16-3-4.24-6-4.51-10-.16-2.44-2.7-4.4-2.05-7.21-2.82-3-2.45-7-3.09-10.55-.68-3.84-1-8.15.06-11.78C43,62.7,40.81,57,44.32,52.29c1-1.29-.59-3.51.84-5-.78-4.78,4-7.87,3.81-12.45,1.71-1.43.55-3.36,1-5.34A46.78,46.78,0,0,0,57.49,20a8.31,8.31,0,0,1,4-3C65.68,15.3,70,13.86,74,11.91c2.56-1.23,4.9-2.91,7.47-4.12A22.19,22.19,0,0,1,91.77,5.27c6.82.2,13.67.31,20.49,0C117.58,5,122.4,6.84,127.37,8a29.49,29.49,0,0,1,6.69,2c6.34,3.16,11.58,7.76,17.23,11.84,2.79,2,5.18,4.46,8.09,6.37,2.47,1.63,4.21,4.56,5.9,7.16a51.46,51.46,0,0,1,4.08,8c1.11,2.61,1.06,5.61,2.45,8.16-.86,4.63,1.36,8.25,3.6,12a16,16,0,0,1,1.74,6.26c.31,2.74-.33,5.58,1.11,8.19a1.86,1.86,0,0,1,0,1.58c-1.7,2.78-.82,5.82-1.09,8.74,0,.62-.59,1.19-.94,1.84l3.15,4.65V97.9l1.77.37c-1.51,5-.22,10.28-.87,15.68a10.23,10.23,0,0,0-2.17,3.68c-.81,3.16-2.12,6.59-4.28,8.91-2.79,3-2.65,7.52-6.21,10-.94.65-.9,2.79-1.19,4.27a25.13,25.13,0,0,1-3.06,9c-1.34,2.15-3.85,2.25-5,4.29a61.46,61.46,0,0,1-3.44,5.58,3.84,3.84,0,0,1-1.71,1C148.49,162.66,144.43,166.47,137.86,166.1Z"/><path d="M121.16,87.33l-1.66,3.26c-3,0-6.23-.67-9,.18s-5.45.73-8.17.9c-2.06-1.27-2.94-4-5.87-4.49v-4.9L100,79c3.36,0,6.85-.58,10,.18,2.79.67,5.21,2.85,7.81,4.34a17,17,0,0,0,1.81.78ZM98.57,85c1.79,1,2.44,3.5,4.74,3.47.53-2.25,1-4.18,1.41-6.11,0-.09-.23-.25-.17-.19H99.82Z"/><path d="M164,94.67l-15.69-3.21V85.4l3.16-2,11-1.55,4.07,3.9c-.47,2.58-.93,5.09-1.44,7.9Zm-8.49-5.42V85.07c-1.57,1.91-5.21.35-5.25,4.18Z"/><path d="M134,46.16l2.07,1.35,2.37-1.31L140,47.33l1.06-.95.66.6,9.74-.88L159,51.47l-.78,1.7-6.75-4.67c-5.25,0-11,0-16.7,0-3.3,0-6.51-.09-9.51-1.74-1.35-.75-1.43-.58-3.66.61-3.84-1.87-15.67-1.37-27,1.2l-1.13-2a.81.81,0,0,1,.53-.27,14.22,14.22,0,0,0,6-1c1.64-.73,3.82.67,5.5-1.09.43-.45,1.72-.08,2.62-.08,4.3,0,8.6.06,12.9,0a12.52,12.52,0,0,1,6.43,1.4c1.61.85,3.63,1,5.47,1.33C133.15,46.94,133.47,46.53,134,46.16Z"/><path d="M84.27,58.62l1.84-.88-.36-.61c2.49,0,5-.05,7.46,0A19.4,19.4,0,0,0,103,54.83c2-1.12,4.52-.29,6.2-2,2.54.77,4.65-1.2,7.11-1.11s5,0,7.09,0c3.68,2,7,3.46,11,3.27,3.41-.17,7-.69,10.2.16a35,35,0,0,0,7.46.84l3.16,1.78c-3.94-.26-7-.54-10-.64-3.24-.1-6.48-.15-9.71,0-4,.2-7.28-1.34-10.6-3-1.74-.72-3.94.7-5.41-1.31-2.31.5-4.62,1-6.92,1.52a60.78,60.78,0,0,0-8.35,2A45.22,45.22,0,0,1,96.4,58.4a31.88,31.88,0,0,1-6.06.89H84.53Z"/><path d="M148.45,127.47l-5.65-1.6v-2.49c1.84-1.71,3.1,1,4.64.67l4.12-9.67c-2.63-3.83-6.94-5.89-8.79-11v-6.1l1.51-.26c.21.36.55.66.53.94-.34,4.3,1.62,7.63,4.47,10.55,1.76,1.79,3.6,3.49,5.72,5.54a44,44,0,0,0-2.38,5c-.74,2.21-3.18,3.75-2.49,6.58C150.24,126.05,149.06,126.82,148.45,127.47Z"/><path d="M148.66,141.31c-6,0-11.89-.11-17.81,0-3.51.09-6.7-1-10-1.79-1.81-.44-3.86.16-6.26.33.25-.65.33-1.56.82-2a25,25,0,0,1,3.38-2.05c8.55,4.31,24.42,4,30,2l2.56,4c0-.15,0,.69-.09,1.48l-1.51.09Z"/><path d="M79.22,163.26l-4.64,2.19-.5-.64-9,11.95H60.9c-.1-.49-.17-.82-.25-1.15.19-.28.39-.82.55-.81,2.74.19,3.79-1.46,5-3.69,1.81-3.47,3.94-6.72,8-8.42a10.6,10.6,0,0,1,4.77-.76Z"/><path d="M105.19,189.85h5.17l4.47-5.22H122l.1,1.81h-7l-2.94,4.4H104c-.8-2.53-3.41-3.42-5.21-5.48H92.08l-.27-.48,2-.73-.49-.63h4.51C100.47,185.45,104.31,185.71,105.19,189.85Z"/><path d="M120.76,118.21c1,1.73,1.82,3.17,2.66,4.65l3.94.19v3c-1.09,0-2.52.35-3.68-.06-4.88-1.76-5.05-5.86-4.67-10.13a8.75,8.75,0,0,1,7.72-1.15c-.5.69-.77,1.46-1.3,1.71C124.11,117.09,122.67,117.51,120.76,118.21Z"/><path d="M149.12,63.76c7.08-1.23,12.88,1.06,17.46,7.4-4-.25-5.83-3.2-8.25-5.35H147.62l-3.21,2.84-.8-2.64Z"/><path d="M119.47,63.61,121,65.15c-.21.2-.45.61-.64.59-2.55-.32-5.11-.63-7.64-1.07-3.39-.59-6.54.72-9.67,1.47S96.66,66.86,94,69c-.41.32-1.29,0-2.44,0,2.5-3,5.63-3.5,8.44-4.21a51.34,51.34,0,0,1,9.78-1.14C113,63.47,116.24,63.61,119.47,63.61Z"/><path d="M74.58,149.83c3.74-3.05.92-6.85,3.34-9.37q-.54-4.28-1.1-8.55l.72-.49.49,2,1-.6c0,4.43.11,8.87-.07,13.3a9.42,9.42,0,0,1-1.49,3.66C77.34,150,76.53,149.83,74.58,149.83Z"/><path d="M119.29,167.39c2.35.46,1.22,2.9,2.28,4a38.87,38.87,0,0,0,3.92,3.21l-.58,1.28C119.29,173.5,118.87,172.86,119.29,167.39Z"/><path d="M120,70.15c.67,0,.9-.13,1-.06,1.49,1.18,3,2.38,4.25,3.43v2.89c-.41-.15-.74-.18-.88-.36C123,74.19,121.61,72.31,120,70.15Z"/><path d="M145.79,71.12c1.45,2.13,2.17,3.2,2.84,4.17l-1.74.61v3.84C145.65,77.3,146.05,74.85,145.79,71.12Z"/><path d="M132,123.85v-1.78h5.19v1.78Z"/></g><g class="cls-2"><g id="vurX8n"><path d="M178.21,212.39c-2.5-.78-5.74,1.76-6.64-2.35-2.18.93-4.32,2.38-6.62,2.71-6.31.91-11.48-2.24-12.64-8.5a38.42,38.42,0,0,1,.15-14.3c1.54-7.55,9.65-12.22,18.5-6.16V168.17h7.25Zm-7.15-15.47c0-1.48-.11-3,0-4.45.25-2.82-1.44-4.36-3.7-5-2.41-.7-4.93-.6-6.71,1.78-2.37,3.18-2.72,11.68-.57,15.09,1.41,2.23,4.07,3.17,7.12,2.25,2.46-.75,4.09-2.29,3.86-5.2C171,199.9,171.06,198.4,171.06,196.92Z"/><path d="M82.54,184.75c-1.27.06-2.24.05-3.21.16-2.44.27-4-.07-4.3-3.2-.25-2.73-2.39-4.59-5.16-5.09-3.41-.61-6.73-.54-9.19,2.57-3.65,4.62-3.68,20.12,0,24.74,2.52,3.18,5.92,3.41,9.44,2.65a6.34,6.34,0,0,0,5.18-6.11c.14-1.6.82-2.28,2.45-2.18,1.47.1,3,0,4.35,0,1.17,4.34-.93,9.39-5.28,12a17.11,17.11,0,0,1-17.29.81c-5.74-2.84-8.51-7.9-8.64-14.2-.1-4.83-.42-9.84.65-14.47,3.23-14.05,18.46-14.44,25.76-9.35C81.12,175.83,82.86,179.66,82.54,184.75Z"/><path d="M88.47,168.38c.31-.2.39-.29.47-.29,6.68-.74,6.67-.74,6.68,6,0,3.07,0,6.15,0,9.22,0,.19.09.38,0,.18,2.64-.81,5.25-2.14,7.94-2.33,5.86-.41,10.07,3.13,10.38,9,.39,7.2.1,14.43.1,22.1a29.9,29.9,0,0,1-5.63-.11c-.68-.14-1.52-1.6-1.54-2.47-.15-5.55,0-11.1-.12-16.65-.07-4.64-2.27-6.43-6.85-5.78-2.94.42-4.34,2-4.36,4.94,0,5.65-.11,11.3,0,16.95.07,2.45-.68,3.47-3.18,3.17a35.3,35.3,0,0,0-4,0Z"/><path d="M138.12,194.14c.5-6-2.77-8.85-7.29-6.9-.62.27-1.48.66-1.64,1.17-.93,3.08-3.39,2.29-5.55,2.42-2.57.15-2.83-1-2.06-3.1,1.75-4.8,8-7.6,14.85-6.61,5.47.79,9.08,4.61,9.25,9.94.11,3.26,0,6.54,0,9.8,0,1.89-.09,3.78,0,5.65s.45,3.52.68,5.26c-4.84,1.38-6.77.78-8.26-2.84-2.65,2.62-5.61,4.25-9.44,4-4.6-.31-8.13-2.91-8.82-6.93-.87-5.07,1-8.85,5.54-10.53a31,31,0,0,1,7.23-1.29A51.48,51.48,0,0,1,138.12,194.14Zm.13,6.33c-.17-.18-.81-1.4-1.55-1.47a16.44,16.44,0,0,0-6.15.36,6,6,0,0,0-3.14,3.12c-.39.88.24,3.22.78,3.34a15,15,0,0,0,6.45.29C136.77,205.64,138.53,204.1,138.25,200.47Z"/></g></g></svg>