<svg id="Layer_1" data-name="Layer 1" xmlns="http://www.w3.org/2000/svg" viewBox="0 0 200 200"><g id="Tax8yg"><path d="M158.89,24.6c-1,9.66-1.92,20-3.21,30.39-.51,4.08.41,6.07,4.79,6.88,9.78,1.81,19.46,4.13,29.18,6.29,5.24,1.16,5.31,1.34,1.62,5.5C184.59,81.2,178,88.8,171.08,96.14c-2.66,2.84-2.5,4.72.08,7.5,7.25,7.82,14.22,15.91,21.33,23.86,1.81,2,1.79,3.05-1.2,3.68-10.56,2.21-21.06,4.71-31.63,6.87-3.22.66-4.46,2-4.08,5.33,1.19,10.48,2.22,21,3.24,31.46a17.76,17.76,0,0,1-.45,3.73,17,17,0,0,1-3.37-.77c-9.9-4.3-19.82-8.56-29.62-13.08-2.72-1.25-4-.69-5.37,1.78-5.3,9.4-10.88,18.65-16.17,28.06-2,3.47-3.11,3.06-4.9-.11C93.7,185.16,88.19,176,83,166.72c-1.43-2.54-2.66-3.34-5.61-2-9.78,4.56-19.71,8.79-29.61,13.09a16.2,16.2,0,0,1-3.38.68,16.33,16.33,0,0,1-.38-3.44c1-10.49,2.05-21,3.27-31.46.4-3.44-.73-4.93-4.18-5.61-9.87-1.95-19.69-4.22-29.52-6.4-5.62-1.25-5.68-1.39-2-5.58,6.68-7.54,13.3-15.14,20.19-22.48,2.67-2.84,2.5-4.72-.08-7.5-7.25-7.82-14.22-15.91-21.33-23.86-1.82-2-1.79-3,1.2-3.68,10.56-2.21,21.06-4.71,31.63-6.87,3.23-.66,4.46-2,4.08-5.33C46.07,45.83,45,35.34,44,24.85a17.1,17.1,0,0,1,.44-3.73,17.76,17.76,0,0,1,3.37.77c9.9,4.3,19.82,8.56,29.62,13.08,2.72,1.25,4,.7,5.37-1.78,5.3-9.4,10.88-18.65,16.17-28,2-3.48,3.11-3.07,4.89.1,5.25,9.29,10.76,18.44,16,27.73,1.43,2.54,2.66,3.34,5.61,2,9.89-4.6,19.95-8.85,29.91-13.28C157.88,20.56,159.42,20.56,158.89,24.6ZM97,80.83c0-3.11.19-6.24-.09-9.32a4.5,4.5,0,0,0-2.06-3.26c-6.22-2.46-12.55-4.7-18.9-6.8-.6-.2-2.4,1-2.4,1.57,0,6.81.18,13.63.62,20.43a4.72,4.72,0,0,0,2.58,3.27c5.7,2.16,11.5,4.07,17.35,5.8.71.2,2.69-1.21,2.77-2A92,92,0,0,0,97,80.83Zm8.82,0c0,3.12,0,6.23,0,9.34,0,2.41.82,3.29,3.29,2.42,5.53-1.93,11.17-3.59,16.62-5.72a5.44,5.44,0,0,0,3-3.72c.49-6.55.61-13.14.6-19.71,0-.65-2-2-2.7-1.83-3.12.79-6.1,2.09-9.16,3.14C105.81,68.73,105.81,68.73,105.82,80.8Zm-26.6,40.3a9.72,9.72,0,0,0,2.38-1.76c3.77-5,7.4-10,11.15-15,1.52-2,.78-2.88-1.3-3.56-5.92-1.92-11.79-4-17.75-5.82a4.25,4.25,0,0,0-3.68.85c-4.32,5.29-8.44,10.74-12.47,16.25-.38.51.06,2.47.49,2.61C64.88,116.87,71.78,118.88,79.22,121.1Zm67.12-7.35a16.41,16.41,0,0,0-.92-1.66C141.2,106.56,137,101,132.67,95.6a3.51,3.51,0,0,0-3.1-.79c-6.18,1.9-12.32,3.94-18.38,6.19-.69.25-1.44,2.58-1,3.18,3.52,5.13,7.2,10.17,11.07,15a4.56,4.56,0,0,0,3.85,1.3c6.38-1.66,12.67-3.62,19-5.53A13,13,0,0,0,146.34,113.75Zm-44.8-6.25a15.1,15.1,0,0,0-1.85,1.76c-3.79,5.09-7.62,10.14-11.2,15.37a4.19,4.19,0,0,0,0,3.76C92.14,134,96,139.48,99.75,145.06c1.26,1.89,2.14,1.8,3.36,0,3.65-5.48,7.52-10.8,11-16.39a5.16,5.16,0,0,0-.2-4.62c-3.24-4.88-6.84-9.51-10.33-14.22C103,109.05,102.33,108.39,101.54,107.5Zm23,39.13h.12a44.28,44.28,0,0,0,.08,6.1c.17,1.12.88,2.68,1.78,3.1,6.83,3.21,13.74,6.22,20.69,9.15.4.17,1.93-.93,1.89-1.35-.57-7.15-1.11-14.32-2.17-21.41a6.85,6.85,0,0,0-3.76-4.33c-4.64-1.9-9.55-3.11-14.31-4.72-2.37-.8-3.6-.5-3.66,2.35C125.09,139.24,124.73,142.93,124.5,146.63Zm-46.16-.07c-.24-3.7-.56-7.4-.68-11.1-.07-2.49-1-3.16-3.37-2.36-4.65,1.57-9.31,3.14-14,4.4-3,.8-4.36,2.47-4.61,5.48-.57,6.8-1.19,13.59-2,20.36-.29,2.56.77,2.29,2.41,1.56,4.7-2.1,9.29-4.54,14.15-6.17C76.36,156.69,80.27,153.72,78.34,146.56ZM49.22,69c-7.95,1.77-15.44,3.39-22.88,5.21-.38.09-.87,2.2-.47,2.66,4.68,5.45,9.46,10.82,14.39,16A4.34,4.34,0,0,0,44,93.92c5.68-1.88,11.29-4,16.83-6.26a2.91,2.91,0,0,0,.79-2.72c-3.15-4.8-6.47-9.5-9.86-14.15A9.76,9.76,0,0,0,49.22,69Zm104.31,0a10.75,10.75,0,0,0-2.46,1.92c-3.38,4.65-6.7,9.35-9.85,14.15a2.9,2.9,0,0,0,.92,2.68C147.69,90,153.3,92.06,159,94a4,4,0,0,0,3.42-.91c5-5.32,9.87-10.77,14.65-16.29a3,3,0,0,0-.28-2.55C169.2,72.4,161.59,70.74,153.53,69Zm-38.78-27.6a13.08,13.08,0,0,0-.65-1.58q-5.59-9.63-11.22-19.24c-1.45-2.47-2.4-.94-3.25.5C96.12,27,92.51,33,89.25,39.1a5.4,5.4,0,0,0,.43,4.67c3.07,4.42,6.58,8.52,9.82,12.84,1.35,1.8,2.31,2.06,3.78.09,3.29-4.41,6.75-8.7,10.11-13.07A21.69,21.69,0,0,0,114.75,41.35Zm36.06,90c6.27-1.37,12.1-2.64,17.93-3.94a4,4,0,0,0,1.12-.68c-.37-.25-.72-.55-1.11-.76-10.11-5.46-20.29-4.85-30.47-.24-.3.14-.43,1.35-.41,1.36C142.27,128.55,146.7,130,150.81,131.31ZM52,131.3c4.07-1.31,8.5-2.74,12.9-4.23,0,0,0-1.23-.32-1.36-10.17-4.64-20.34-5.26-30.46.2-.4.21-.77.48-1.15.73.35.24.68.62,1.07.7C39.88,128.65,45.72,129.92,52,131.3Zm45.14,33.07.32-.07c-.5-3.26-.31-6.84-1.66-9.7-1.91-4-4.95-7.58-7.54-11.32a10.12,10.12,0,0,0-1.22-1.23,8.94,8.94,0,0,0-.56,1.9c-.69,7.87.62,15.22,5.49,21.7,1.68,2.22,3.17,4.58,4.74,6.88Zm8.65-1.23c0,1.42,0,1.78,0,2.14.16,2.43.33,4.87.49,7.3,1.34-2.07,2.54-4.25,4-6.2,5.17-6.73,6.72-14.37,6-22.63a9.56,9.56,0,0,0-.43-1.63c-.36.24-.86.4-1.06.74C111,149.59,103.56,154.86,105.81,163.14Zm42.57-120c-9.92,7.23-11,17.91-10.74,29.05a12.48,12.48,0,0,0,.26,1.7c.37-.24.85-.4,1.07-.74,3.47-5.33,8.36-9.89,8.34-17.05C147.3,51.73,148,47.32,148.38,43.17Zm-93.8-.94c.48,11.2.47,22,8.79,30.28L64.83,74a9.83,9.83,0,0,0,.36-2c-.15-3.7-.21-7.42-.62-11.1-.29-2.53-.58-5.31-1.81-7.42C60.53,49.66,57.59,46.28,54.58,42.23Zm1.63,57a13.09,13.09,0,0,0-1.89,0c-10.58,1.83-16.5,9.86-22.92,17.23a4.45,4.45,0,0,0-.48.92,3.62,3.62,0,0,0,1.23.21c10.83-1.77,18.18-8.3,23.62-17.4C55.89,100,56,99.79,56.21,99.25ZM172.4,117.61a62.39,62.39,0,0,1-5.16-5.81c-4.47-6.56-10.71-10.38-18.23-12.38a19.65,19.65,0,0,0-2-.3,3.92,3.92,0,0,0,.22,1.26c5.34,9,12.67,15.4,23.34,17.22A15.52,15.52,0,0,0,172.4,117.61ZM62.53,37.67c.42,1.11.55,1.59.78,2C68,48.92,76,53.62,85.77,55.78a11.91,11.91,0,0,0,1.69.14,9.28,9.28,0,0,0-.69-1.85c-3.88-6.15-8.92-10.83-16.1-13A83.6,83.6,0,0,1,62.53,37.67Zm77.52.33c-9.28,3.53-19,6.51-24.14,16.27a12.28,12.28,0,0,0-.61,1.6A8.53,8.53,0,0,0,117,55.8C127.33,53.39,135.86,48.56,140.05,38Z"/></g></svg>