<svg id="Layer_1" data-name="Layer 1" xmlns="http://www.w3.org/2000/svg" viewBox="0 0 200 200"><g id="kG0T0M"><path d="M123.48,15l.88.29A1.83,1.83,0,0,1,125.72,17c0,.25,0,.51,0,.76V53H80.43V18.34c0-2.45,0-2.52,2.27-3.34Z"/><path d="M82.7,186.81l-.88-.29a1.82,1.82,0,0,1-1.36-1.68,6.61,6.61,0,0,1,0-.77V148.82h45.32v34.65c0,2.45,0,2.52-2.27,3.34Z"/><path d="M125.68,146.71H80.45c-.18-6.57-3.24-12-6.66-17.28a6.43,6.43,0,0,0-.69-.87A40.39,40.39,0,0,1,62.2,99c.36-10,4.15-18.53,10.64-26.1a30.69,30.69,0,0,0,7.5-16.69c0-.23,0-.46.08-.68a2,2,0,0,1,.08-.3h45c.53,2.24.92,4.43,1.59,6.54A39,39,0,0,0,132.44,72c1.16,1.68,2.69,3.1,3.89,4.77a41.33,41.33,0,0,1-2.73,51.37,30.07,30.07,0,0,0-7.86,18.32A1.73,1.73,0,0,1,125.68,146.71ZM103,141.17a40.56,40.56,0,1,0-40.41-40.75A40.5,40.5,0,0,0,103,141.17Z"/><path d="M102.94,139.71a39.09,39.09,0,1,1,39.08-39A39,39,0,0,1,102.94,139.71ZM129,121.94l-2.05-1.55.16-.23,2.13,1.51,2.64-3.78-3.09-1.82.66-1.11,3.08,1.75,1.42-3-2.07-1,.1-.22,2.11.83L135,111l-2.21-.8.07-.24,2.28.68.61-2.44-2.26-.56,0-.23,2.34.39.44-2.72-2.31-.27,0-.24,2.37.13c.07-1.13.14-2.17.21-3.31h-8.85V100h8.85l-.13-2.48-2.45.18v-.26l2.43-.3L136,94.52l-2.45.34,0-.25,2.42-.47-.6-2.48-2.4.63-.07-.25,2.39-.73-.89-2.7-2.31,1-.1-.23,2.27-1.1-1.17-2.6-3.18,1.65-.59-1.15,3.2-1.72-2.43-3.77-2.25,1.45-.15-.2,2.16-1.55-1.66-2-2.06,1.52-.16-.22,1.93-1.53-2-2.18-1.4,2-.25-.26,1.7-1.73-2.14-1.81-1.47,1.76-.19-.17,1.38-1.85-3.13-2.14-1.83,3.18-1.13-.64,1.8-3.22L116,69.55l-1,2.25-.24-.11.93-2.27-2.46-.89-.86,2.33-.24-.08.74-2.37-2.46-.64-.58,2.36-.23-.06.44-2.4-2.74-.44-.3,2.38-.23,0,.14-2.43-3.31-.23V76.1h-1.34V66.94l-2.78.2.14,2.44-.25,0-.28-2.42-2.55.41L96.8,70l-.24,0-.42-2.32-2.47.61.6,2.32-.23.07-.75-2.29-2.61.94.86,2.16-.24.1-1-2.14-2.25,1,1.74,3.34-1.16.59-1.77-3.33L83.81,73l1.38,2.14-.25.16-1.41-2.09-2.08,1.62,1.5,2-.23.16-1.54-2-1.86,1.73-.24.41L81,78.48l-.28.28-1.51-1.94-2,2.3L79,80.61l-.16.21-1.9-1.44L74.16,83.3l3.31,1.92-.65,1.13-3.29-1.88-1.12,2.28,2,1.14-.12.22-2-1-1,2.42,1.94.94-.1.23-2-.81-.71,2.39,1.82.64-.07.23-1.83-.48-.54,2.65,1.67.4-.06.22-1.71-.23L69.44,100h7.89v1.37H69.44l.19,2.81h1.72l0,.17-1.7.23.4,2.48,1.75-.14v.21l-1.69.36.59,2.33,1.63-.34.06.2-1.59.57.91,2.53,1.49-.59.1.21-1.48.77L73,115.72l3.3-1.72.6,1.15-3.31,1.77,2.3,3.59,1.78-1.32.15.19-1.69,1.42,1.66,2,1.75-1.59.2.21L78.09,123l1.81,1.82,1.56-1.8.21.2-1.58,1.92L82.26,127l1.45-2.17.23.13-1.41,2.3,3.34,2.27,1.86-3.19,1.11.65-1.79,3.21,2.8,1.34,1-2.12.24.09-.84,2.17,2.43.89.84-2.26.22.08L93,132.72l2.44.64L96,131l.24.06-.42,2.37,2.73.48.27-2.38H99V134l3.29.19v-9h1.32v9l2.86-.19-.13-2.26.24,0,.29,2.24,2.52-.41-.24-2.2.24,0,.39,2.18,2.44-.61-.52-2.06.25-.07.63,2,2.6-.89-.74-1.92.24-.11.87,1.9,2.54-1.19-1.63-3.13,1.15-.61,1.67,3.16,3.06-1.95-1.35-2,.2-.15,1.45,1.89,2-1.59-1.54-1.94.21-.17,1.6,1.87,2-1.84-1.85-1.69.14-.16L127.1,124Z"/><path d="M102.42,99.38l.75-3,.16,0a24.61,24.61,0,0,1,.75,2.45,4.51,4.51,0,0,0,2,3,16,16,0,0,1,1.41,1.18l-2.36.59q.39,12,.79,24h-.17l-1.41-9.18c-.7-4.51-1.4-9-2.07-13.53-.08-.58-.43-.73-.87-.91L85.55,97.33a1.21,1.21,0,0,1-.63-.47Zm1,3.64a1.31,1.31,0,0,0,1.25-1.36,1.29,1.29,0,0,0-2.57.06A1.32,1.32,0,0,0,103.39,103Z"/></g></svg>