<svg id="Layer_1" data-name="Layer 1" xmlns="http://www.w3.org/2000/svg" xmlns:xlink="http://www.w3.org/1999/xlink" viewBox="0 0 200 200"><defs><style>.cls-1{fill:none;}.cls-2{clip-path:url(#clip-path);}</style><clipPath id="clip-path"><rect class="cls-1" x="239" y="10" width="178" height="178"/></clipPath></defs><g id="Omo3Bc"><path d="M75.41,121.31c.53,1.24.82,2.34-1.18,2.26l.07.05-1.17-1.16L72,121.35V120.2l1.14-1.15c.07-1,.49-2.13.08-2.81s-1.65-.52-2.53-.75a14.68,14.68,0,0,0-.34,2.63,8.74,8.74,0,0,0,.55,2.06L72,121.32l1.11,1.15,0,1.15,0-.07c-.18.31-.55.67-.5.94.34,1.53.78,3,1.18,4.55.16-1.44.31-2.89.47-4.34l-.06,0c2.51,1.3,3.71,4.16,2.86,6-1.38,3,0,4.83,1.59,6.36,4.36,4.3,9,8.34,13.61,12.37,5,4.35,10.09,8.57,15.14,12.85.14.12.2.37.35.42,1.08.39,2.18.75,3.27,1.12l-.71-3.11.06.06c.92,0,2-.28,2.75.1a40.2,40.2,0,0,1,4.33,2.83c-.2.25-.4.49-.61.72l-2,.63c.36.48.7,1.36,1.08,1.38,4.79.23,9.59.36,14.39.36a17.1,17.1,0,0,0,.39-2.68l-.05.05,2-.39-2-.8.06.06v-1.2l-.05.09c.14-.12.41-.28.39-.36a5.07,5.07,0,0,0-.39-.86l.05.06c.36-1.38.3-3.35,1.19-4s2.78-.06,4.2.16c.29,0,.55.85.62,1.34,0,.18-.62.7-.78.64-1-.44-2.32-1.28-2.47.47-.07.74,1.43,1.71,2.36,2.4.36.28,1.08.09,1.64.11l0-.05-.06,1.82,2.38-.71v2.33a3.39,3.39,0,0,0-.55,0l-5.62,1.11c.06.18.06.46.17.5,2.43,1,4.25-.15,5.95-1.7l2.06-1.94-2.07-.28c.2-.9.09-2.24.65-2.63,7.83-5.46,8.28-6.2,8.29-15.21,0-.75,0-1.5,0-2.25l.34-.41c2.19-2.46,4.84-4.29,6.86-7.16,3.62-5.12,2.22-10.9,3.69-16.23.82-2.93,1.11-5.75,3.69-7.87,1.7-1.4.5-2.31-1.11-2.4-2.43-.14-4.88,0-7.31-.09a4,4,0,0,1-1-.34c.36-.23.71-.63,1.09-.65,1.5-.08,3-.05,4.5-.06,5.77,0,6.43-.67,6.1-6.55a26.89,26.89,0,0,0-1.11-7.75c-.87-2.34.26-3.49,1.42-4.92l-.07.06c3.12.55,3-2.13,2.71-3.52-1.2-6-.95-12.32-4.86-17.65-1.1-1.49-1-3.88-1.36-5.89-1.28-7.47-3.64-14.46-8.76-20.26l-.26-.21a10.5,10.5,0,0,0-1.64-2.25c-5.69-4.55-11.32-9.21-17.26-13.41-1.61-1.14-4.23-1-6.41-1.12-1.76-.11-2.69,1-2.7,2.84,0,3.18,0,6.36-.07,9.54l.06,0c-.4-1.38-1.19-2.78-1.12-4.15.14-3-1.65-3.93-4-4.39-1.09-.21-2.23-.12-3.35-.23-4.87-.49-4.87-.5-5.1,4.31l.06-.05c-.14-.13-.33-.22-.4-.38C108,24.25,108,24.25,99.43,24.25l-9.4,0,0,.05c6.77-2.08,13.62-1.31,20.44-.39,3.69.49,7.33,1.28,11,1.86.65.1,1.86-.05,2-.38.87-2.38,2.82-2.14,4.69-2.23a3.55,3.55,0,0,0,1-.35c-.3-.4-.52-1-.91-1.16-4.09-1.35-8.16-2.75-12.31-3.88-9-2.47-18.28-1.38-27.43-1.21a31.47,31.47,0,0,0-10.9,2.15C70.74,21.51,64,24.79,57.31,28.12,52.21,30.66,51.68,36.21,56,40c2,1.72,4.13,3.25,6,5.05,2.08,2,3.46,1.23,5.09-.62,2.06-2.36,4.54-4.36,6.54-6.77,3.65-4.4,9.52-6.6,11.89-12.21h0q0,5.08,0,10.17l.06-.05c-1.19-1.46-2-3.84-4.48-1.29-3.89,4-8,7.68-12,11.58-2.13,2.1-1,3.67,1.14,4.79,1.48.77,3.11,1.27,4.61,2,3.57,1.79,4.38,4.29,2.26,7.67a17.35,17.35,0,0,0-2.58,11.2c.32,3.51.66,7,1.27,10.51a5.35,5.35,0,0,0,2.09,2.85A9.33,9.33,0,0,0,81.07,86c4.62,1.27,4.61,1.26,5.81-3.53.08-.31.48-.54.73-.81l.4.48c-.38,8.08-1.14,7.13,6.38,5.89s13.93,1.53,19.81,5.85A5.72,5.72,0,0,1,116,96.6c.36,1.14-.06,2.69-1.56,1.91-4.18-2.15-8.43-.42-12.62-.58-3.49-.13-6.62-.35-9.16-3.17-1.17-1.29-2.71-3.49-4.6-2-1.09.84-1,3.23-1.4,4.92l.06-.05c-.37-1.38-1.1-2.78-1-4.15.11-3-1.53-4.14-4.08-5.11-3.14-1.19-5.81-.4-8.47,1-.33.17-.15,1.27-.25,1.93A21.38,21.38,0,0,1,72.23,95c-1.34,4-3.33,4.45-6.19,1.25a58.3,58.3,0,0,1-3.42-4.74c-1-1.34-2-2.66-3-4-.55,1.39-1.12,2.77-1.64,4.16-1.07,2.82-3.19,1.9-5.18,1.49l-.25-.23.28.19c.72,7.82,5.71,14,8.08,21.2a5.52,5.52,0,0,0,.18.53c.7,1.73,3,3.59.27,5.21-2.16,1.28-3.08-.89-4.39-2.2-1-1-2.76-1.44-4.18-2.12l-.33-.29.39.23a13.15,13.15,0,0,0,.31,3.35c2.22,6.15,2,12.51,2.07,18.9,0,5.48-1.07,10.62-2.41,16a56.76,56.76,0,0,1-6.19,16c-1.06,1.75-2.58,3.22-3.56,5-.85,1.52-5,1.83-2,4.9-.72.47-1.45,1.36-2.16,1.35-7.19-.13-13.38,2.63-19.62,5.87-2.41,1.26-5.8.66-8.75.8-.33,0-.92-.69-1-1.09s.63-1.15.84-1.1c6.16,1.36,10.43-3.38,15.72-4.82,5.77-1.57,11.55-3.39,15.27-8.58,3.56-5,7.47-9.83,7.78-16.38a5.75,5.75,0,0,1,.45-2.19c3.82-7.79,2.75-16.14,2.78-24.35a28.54,28.54,0,0,0-.85-4.94c-.29-1.6-.85-2.68-2.85-2.76-3.45-.14-5.33-2.2-6.08-5.56a7.74,7.74,0,0,0-1.83-3.34c-1.14-1.25-1.92-2.2-.54-3.82a2.75,2.75,0,0,0,.36-2.46c-1.52-2.82-2.68-6.33-5.08-8-3.29-2.37-5.1-5.74-7.78-8.45.14-.13.27-.27.4-.41,1.84-2.28,1-4.76,0-6.82-1.68-3.19-1.52-7.3-5.25-9.6-.95-.58-.91-3.55-.59-5.28C23.15,63.41,22,60,19,56.64c-2.32-2.56-3.84-5.9-5.46-9-1-1.93.16-5.55,2.13-7,1.34-1,2.07-2,1.59-3.72a18.77,18.77,0,0,1-.58-3.32c-.53-5.86.41-6.58,6-4.73,3.31,1.08,3.79.75,4-2.83a9.34,9.34,0,0,1,.06-1.68c.31-1.2.65-3.32,1.13-3.37a5.77,5.77,0,0,1,4,1.14,20,20,0,0,0,13.39,5.19c.89,0,2.13.06,2.6.61,2.27,2.64,3.57,1.57,5.85-.39,2.6-2.24,6.16-3.37,9.33-4.93,3.36-1.65,6.79-3.14,10.11-4.86a30.64,30.64,0,0,1,14.49-3.95c3.37,0,6.73-.45,10.1-.64,10.9-.62,21.22,2,31.23,5.95,2.84,1.12,5.32,3,8-.25.39-.48,1.75-.07,2.6-.28,2.34-.58,4.86,0,6.89-2.37,1.76-2.05,3.22-1.32,4.82,1a55.94,55.94,0,0,0,4.22,4.92l-.35.23.31-.28c3.45.92,3.33,4.07,2.18,5.83-3.92,6-.74,11,1.26,16.29,1.66,4.37,4,8.55,5.08,13a106.26,106.26,0,0,0,4.25,13.7C171,77.71,172.1,85.1,170,92.73c-1.29,4.61-1.23,9.6-1.91,14.4-.25,1.83-.27,4.36-1.42,5.28-5,3.94-5,9.52-5.11,14.8-.16,6.33-3.15,11-7.35,15-1.63,1.57-2.5,3-2.4,5.29.3,6.75-3.49,12.16-6.64,17.59-1.93,3.33-5.92,4.4-9.7,5.06-1.4.24-3.59-.18-3.24,2,.25,1.58,1.45,3.81,2.74,4.25a44,44,0,0,0,10.41,2c3.73.33,7.57-.3,11.25.23,5.53.79,11,2.21,16.42,3.46.48.11.78,1,1.17,1.53-.61.33-1.27,1-1.83.92a25.78,25.78,0,0,1-6-1.32c-4.47-1.81-9.11-1.92-13.81-2.09-5.42-.19-10.82-.85-16.23-1-4.18-.15-6.41-2.67-6.86-6.18s-2.28-3.75-4.92-3.62a31.36,31.36,0,0,1-19.58-5.84,12.2,12.2,0,0,1-1.38-1c-8.64-7.77-17.49-15.31-25.79-23.42-4.08-4-7.43-8.67-8.28-14.92-.52-3.76-3-7.26-2.3-11.35.44-2.77,1-5.52,1.44-8.28l0,0c.13-.12.38-.27.36-.36a4.9,4.9,0,0,0-.36-.86l0,0,2.51-1.67a14.41,14.41,0,0,1,.4,2.51A15.23,15.23,0,0,1,71,107.4c-.69,4.16-.68,4.21,3.57,4.26,1.81,0,3,.76,2.69,2.55-.42,2.43-1.27,4.78-1.93,7.16l-.31-.25Zm21-30.68-2,.93c.72.93,1.42,1.87,2.2,2.75,0,0,1-.52,1-.63C97.35,92.68,96.91,91.71,96.46,90.63Zm70,3.69-.25-1.06a3.16,3.16,0,0,0-.4,1,3.43,3.43,0,0,0,.28,1C166.16,94.94,166.29,94.63,166.41,94.32Z"/><path d="M173,142.06c3.75,0,7.49-.05,11.24,0,2.77,0,5.71,3,5.8,5.8a16.56,16.56,0,0,1-.08,3.73,2.84,2.84,0,0,1-1.41,1.77c-.3.16-1.21-.53-1.63-1-2-2.38-4-4.63-7.65-4.25-2.84.3-5.73,0-8.6.1a5.17,5.17,0,0,0-2.15.44c-.27.13-.35,1.35-.23,1.4,3,1.28,4,4.83,6.95,6.2,1,.46,1,4.94.06,5.15-2.06.45-2.37,2.35-3.56,3.46-2.16,2-4,4.38-6.54,6a1.07,1.07,0,0,0-.35,1,1.66,1.66,0,0,0,1,.84c2,.1,4,.1,6,.11,3,0,6,0,9,0,1.37,0,2.52.06,3.24-1.72.63-1.54,3-1.88,3.61-3.81a3.31,3.31,0,0,1,1.9.43c1.08,1.19.3,4.49-1.14,5.41-.31.2-.9.28-1,.5-.63,3-3,2.43-5,2.44-6.86,0-13.73,0-20.59,0-1.28,0-3.11.48-3.27-1.5-.14-1.66-1-3.57,1.51-4.83,1.63-.83,2.67-2.78,4.06-4.13s3.13-2.75,4.64-4.18a3.69,3.69,0,0,0,0-4.66c-1.56-1.83-3.68-3.06-4.89-5.34-.71-1.35-2.49-2.22-3.92-3.06s-1.55-2.09-1.61-3.5c-.08-1.84.56-2.8,2.56-2.76,4,.07,8,0,12,0Z"/><path d="M119.42,107.83a7.11,7.11,0,0,0,3.39-7.06c-.49-4.8-.78-9.61-1.16-14.43l0,0c1.56,1.85,3,3,6,2.79,3.79-.27,7.69.91,11.54,1.41a15.31,15.31,0,0,0,2.53-.07c-.13-.89,0-2-.45-2.63-1.71-2.11-3.15-4.19-1.84-7a9.63,9.63,0,0,1,.87-1.28,4.61,4.61,0,0,1,.74,1.27c.35,1.65-.77,4,2.09,4.42l0,0c.18,7.63.18,7.63,7.78,6.15a8.2,8.2,0,0,1,2.17-.51c2.15.23,5.85.19,6.11,1.08.64,2.21,0,5-.75,7.32-.25.76-2.45,1.36-3.7,1.25-2.19-.19-4.31-1.22-6.51-1.47-4.34-.5-4.9.07-5.07,4.34-.07,1.86,0,3.73,0,5.6l.05-.06c-.81-4.27-2.06-8.51-2.22-12.8-.08-2.08-.65-2.69-2.18-3a83,83,0,0,0-10.43-1.79c-3.17-.23-4.2,1-4.34,4.39-.11,2.61-.06,5.23-.06,7.85,0,3-1.37,4.54-4.49,4.21ZM147,96.14l1-.22c-.13-.23-.27-.66-.38-.65a3.59,3.59,0,0,0-1,.35Z"/><path d="M134.08,140.54c.6-1.4,1.14-2.82,1.82-4.17.21-.43.94-1,1.14-.94.54.25,1.38.95,1.3,1.28-1.61,6.68,1.95.61,2.82,1.11.09.06.51-.44.78-.68l0,0,1.14,0,0-.06c-.33,2,2.78,4.51-1,5.89a13.12,13.12,0,0,1,2,2.23,8.51,8.51,0,0,1,.57,2.52,7.11,7.11,0,0,1-2.35-.39c-2.37-1.3-2.08,1.48-3.21,2s-2.29,6.19-3.39-.25c-.44-2.62-4.29-2.19-6.89-1.94-3.1.29-2.08,2.94-2.63,4.7l-.19.13.18-.16a8.57,8.57,0,0,1,.16,1.93c-2.38.7-8.8-2-10.12-4.12-.27-.44-.59-1.12-.43-1.51a14.39,14.39,0,0,1,1.48-2.37c-1.61-.4-3.49-1.54-4.78-1.06-4.59,1.69-3-2.58-3.83-4-1.33-2.43.05-4.23,2.89-4.62l-.07-.06.63,2.74c2.33-.54,2.62,1.11,3.84,2.56,1.56,1.85,4.85,2.73,7.51,3.05,3.86.48,7.83.12,11.75,0,.62,0,1.22-.65,1.83-1-.72-.31-1.45-.58-2.14-.94a3.88,3.88,0,0,1-.79-.78l-.06.07v-1.21Zm-10.19,9c.16-.54.32-1.08.46-1.62,0,0-.29-.1-.45-.15l0,1.82H121.6a5.64,5.64,0,0,0-.17-1.66c-.17-.44-.65-.76-1-1.13a4.17,4.17,0,0,0-.1,1.77c.17.43.85.65,1.31,1Z"/><path d="M141.92,64.88c-8.43-1.41-17.24.21-25.45-3.44-2.18-1-5.19-.65-7.67-.17-4.39.86-8.6,2.6-13,3.41-4.75.87-9.61,1.14-14.43,1.6-.45,0-.95-.44-1.43-.68.4-.29.82-.86,1.21-.83,9.43.53,17.82-4,26.84-5.35a26.77,26.77,0,0,1,11.58.76,44.74,44.74,0,0,0,13.15,2.24c4.46,0,8.92.65,13.38,1.09.36,0,.66.73,1,1.12-.42.22-.85.62-1.27.61C144.52,65.2,143.22,65,141.92,64.88Z"/><path d="M111.54,51.23c2.22.13,4.12-.24,5.55.41,8,3.69,16.53,2.81,24.92,2.78a13.72,13.72,0,0,1,8.29,2.9c.43.31.47,1.15.69,1.74-.52,0-1.25.25-1.52,0-4.07-3.79-9.06-3-13.91-2.86a86.83,86.83,0,0,1-17.78-1.83c-6.3-1.14-13-.08-19.56.14-2.61.08-5.21.56-7.83.69-.49,0-1-.74-1.55-1.14a5.51,5.51,0,0,1,1.44-.58C97.53,52.69,104.79,51.93,111.54,51.23Z"/><path d="M137.12,103.36c.59.75,1.33,1.26,1.35,1.79.14,5.41,3.6,8.83,7.17,12.15,1.92,1.78,2.39,3.62,1.19,6s-2.11,4.78-3.29,7.1a3.77,3.77,0,0,1-6.73.45c-.15-.21.77-1.71,1.09-1.68,5.36.57,4.32-4.62,6.21-7,1.75-2.25-1.3-3.44-2.31-5-1.6-2.45-3.69-4.6-5.09-7.15-.73-1.34-.5-3.24-.56-4.89C136.13,104.64,136.63,104.19,137.12,103.36Z"/><path d="M73.65,167.69a15.51,15.51,0,0,1-2.77,1.82c-3.13,1-4.87,3.27-6.28,6.06-1.28,2.52-2.82,5-5.89,5.61-.61.13-1.36-.39-2.05-.61a7,7,0,0,1,.8-1.75c1.92-2.23,4.07-4.28,5.82-6.62,2.12-2.82,4.57-5,8.12-5.58C71.9,166.53,72.52,167.12,73.65,167.69Z"/><path d="M102.48,196.5c-1.89-1.06-3.8-1.6-4.9-2.85a11.94,11.94,0,0,0-8.12-4.38c-.6-.06-1.15-.6-1.72-.92a6.74,6.74,0,0,1,2-.71c3.61-.13,6.39,1.7,9,3.94,2.92,2.53,4.7,2.35,7.63-.08a16.34,16.34,0,0,1,5.22-2.67c.9-.31,2.11.27,3.17.45a25.82,25.82,0,0,0-3,1.32c-1.55.92-3,2-4.53,3S104.24,195.42,102.48,196.5Z"/><path d="M118.81,120.13l1.32.88a8.71,8.71,0,0,1-1.16,1.67c-1,.9-3,1.65-3,2.52-.08,2,1.49,3.22,3.56,3.75.65.17,1.13,1.06,1.69,1.62-.81.32-1.65,1-2.42.91-3-.24-6.24-4.09-6.09-7.1C112.81,121.78,114.92,120.19,118.81,120.13Z"/><path d="M108.66,71.9c-6.84-.19-13.24,1.74-19.61,3.82-.53.17-1.22-.18-1.84-.3.34-.42.61-1.12,1-1.24a147.63,147.63,0,0,1,14.5-3.74c3.25-.55,6.69,0,10,.11.42,0,.82.59,1.23.9-.49.31-1,.87-1.49.87A36.32,36.32,0,0,1,108.66,71.9Z"/><path d="M125,136l-1.14,5.67,0,0h-1.17l.06.06c-.8-1.28-1.07-3.36-3.43-2.32l0,.06c-1.41-4.06-4.67-3.79-8-3.43l.07.06c1-3.44,2.73-4.07,5.72-2.11,2,1.33,3.78,3.56,6.68,2.06l0,0h1.18Z"/><path d="M146.3,70.28c3.75.42,7.15,1.23,9.7,4.11A31.2,31.2,0,0,1,158,77.11c-1-.35-2.23-.45-2.9-1.12-4.19-4.2-9.21-3.23-14.22-2.54a17.25,17.25,0,0,1-2.49,0c.68-.61,1.26-1.5,2-1.76C142.3,71.06,144.32,70.73,146.3,70.28Z"/><path d="M72.15,145.66c-.18-3-.34-4.68-.35-6.35,0-.44.43-.88.66-1.31.37.36,1,.67,1.07,1.11a20.87,20.87,0,0,1-.74,14.66c-.18.4-.88.57-1.35.85a4.43,4.43,0,0,1-.36-1.5C71.46,150.2,71.91,147.28,72.15,145.66Z"/><path d="M114.86,83c.83-.43,3.07.66,2-1.79a23.28,23.28,0,0,0-1.53-2.28c-.14-.25,0-.66,0-1,.49,0,1.3-.15,1.43.07,1.36,2.33,2.61,4.72,3.89,7.1l-.27.27L114.89,83Z"/><path d="M153.34,41.33c-2.89.33-5.77.76-8.67,1-2.4.16-4.83,0-7.25,0l0,.06,15.63-1.26Z"/><path d="M118.79,179.24c-.41.19-.83.58-1.18.52-2.29-.38-5-3.9-4.72-6.2,0-.24,1-.64,1-.59C115.5,175,117.05,177,118.79,179.24Z"/><path d="M104.68,41.18c-3.61.39-7.22.81-10.84,1.14-.39,0-.83-.4-1.25-.62a5.88,5.88,0,0,1,1.52-.46c3.54,0,7.08,0,10.62,0Z"/><path d="M80.58,132.14c.63,1.57,1.18,2.89,1.66,4.24,0,.09-.62.52-.62.51-1-1.17-2-2.38-3-3.58Z"/><path d="M94.55,106.69c4.12.49,8.44-1.24,12.38,1.14l0-.06L94.6,106.63Z"/><path d="M119.37,107.77a14.7,14.7,0,0,1-12.39,0l0,.06h12.49Z"/><path d="M130.14,156.69c-1,.76-1.52,1.51-1.93,1.44a12.19,12.19,0,0,1-2.76-1.09c.64-.57,1.21-1.48,1.93-1.61S128.84,156.05,130.14,156.69Z"/><path d="M131.66,128.39a28,28,0,0,1-4.45,1.35c-.45.06-1-.69-1.5-1.08a8.39,8.39,0,0,1,2.51-1.52C128.91,127,129.76,127.65,131.66,128.39Z"/><path d="M90,105.58c-2.1-.28-3.33-1.37-3.34-3.59,0-1.46,0-2.92,0-4.39l-.06.05,3.45,7.84Z"/><path d="M112.58,35.62c1.36,3.55,1.23,3.94-1.76,4.44a16.58,16.58,0,0,1-2.73,0l0,.06c1.27-1.75,5.2-.87,4.5-4.56Z"/><path d="M137.42,42.32a8.38,8.38,0,0,1-9,0l-.06.06h9.06Z"/><path d="M149.83,84.13c1.64,0,3.29-.1,4.93,0a18,18,0,0,1,2.85.63,12.13,12.13,0,0,1-3.13.41,37.38,37.38,0,0,1-4.6-1.08Z"/><path d="M85.51,35.59c.68,1.78,1.37,3.56,2,5.35,0,0-.24.18-.37.27l-1.61-5.67Z"/><path d="M143,109c.37,0,.74,0,1.11,0l5.44.43c-.07.12-.16.36-.22.35-2.1-.27-4.19-.56-6.28-.84Z"/><path d="M165.68,88.59a16,16,0,0,1-1.82-1.15c-.78-.64-1.47-1.38-2.2-2.07A17,17,0,0,1,165,86.68c.44.28.43,1.29.62,2Z"/><path d="M143.1,137.16c.45-.54.8-1.29,1.37-1.54a2.69,2.69,0,0,1,1.93.2c.23.09.16.88.22,1.35-.66.06-1.32.18-2,.18a10.94,10.94,0,0,1-1.59-.25Z"/><path d="M87.61,81.62c.45-.28.91-.81,1.35-.8,1.39,0,2.79.26,4.18.42L89.08,82c-.35.06-.71.09-1.07.13Z"/><path d="M148.55,143l-2-.74.68-1.34,1.67,1.67Z"/><path d="M127.27,140.55a3.07,3.07,0,0,1,1-.43,14.15,14.15,0,0,1,1.83.17c0,.18,0,.5-.08.51a7.53,7.53,0,0,1-1.86.35c-.27,0-.54-.42-.82-.65Z"/><path d="M114.89,83a3.38,3.38,0,0,1-.55,0c-1.26-.15-2.51-.32-3.77-.48.1-.14.21-.4.28-.38,1.34.27,2.67.57,4,.87Z"/><path d="M126,41.45l-.89-4.78-.06,0c.44,1.45.89,2.89,1.34,4.33Z"/><path d="M119.38,164.23l1.38,1.24-2.67,0,.39-.44,1-.9Z"/><path d="M90,24.27l-4.5,1.15h0l4.53-1.11Z"/><path d="M94.6,106.63l-4.58-1,.07-.09,4.46,1.2Z"/><path d="M132.39,137.36c-.18-.48-.47-.87-.37-1.07a4.82,4.82,0,0,1,.94-1c.12.29.41.64.33.84A6,6,0,0,1,132.39,137.36Z"/><path d="M131.61,152.7l2.59-.15-1.1,1.67-.51-.4a1,1,0,0,0-.57-.57Z"/><path d="M141.94,137.14c-.31-.18-.72-.28-.9-.54a3.59,3.59,0,0,1-.55-1.39c0-.11.5-.32.77-.48a9,9,0,0,1,.65,1.32,3.79,3.79,0,0,1,.05,1.07Z"/><path d="M129.56,163.06l-1.48-1,2.61-1.25-.05-.06V162l.05-.09-1.19,1.2Z"/><path d="M117.4,160.66l-.66.6a4.31,4.31,0,0,1-.32-.77c0-.07.28-.31.34-.28A3.09,3.09,0,0,1,117.4,160.66Z"/><path d="M111.46,32.21c.37,1.14.74,2.27,1.12,3.41l.06,0-1.12-3.41Z"/><path d="M143.09,85.25l1.75-1,.36.68-2.15.27Z"/><path d="M104.73,41.25l3.41-1.12,0-.06-3.41,1.11Z"/><path d="M130.68,149.52l-1-.17.3-.53.69.74Z"/><polygon points="66.48 99.55 66.07 99.31 66.52 99.14 66.48 99.55"/><polygon points="125.55 163.29 125.41 162.83 125.8 162.89 125.55 163.29"/><path d="M127.27,134.9a9.09,9.09,0,0,1,.75.77c0,.06-.1.28-.16.43l-.54-1.26Z"/><path d="M121,160.1c0,.13,0,.31-.06.36s-.28.07-.43.1l.08-.62Z"/><path d="M128.45,42.32l-2.5-.87.39-.4,2,1.33Z"/><path d="M134.08,141.62l-1.45-.34,1.45-.74-.05-.06v1.21Z"/><path d="M123.86,141.66l.35.19-.3-.24Z"/><path d="M122.74,141.61l-.23.48.29-.42Z"/><polygon points="118.22 140.5 117.96 140.81 118.27 140.55 118.22 140.5"/><polygon points="127.31 140.5 127.03 140.26 127.27 140.55 127.31 140.5"/><path d="M130.65,149.56l.42.22-.39-.26Z"/><path d="M125,134.9h1.15l0-.06L125,136l0,0v-1.18Z"/><path d="M130.69,152.9l-.4-.2.34.27Z"/><path d="M131.76,154.1l-1.07-1.2-.06.07a4.19,4.19,0,0,0,1-.27l.41.55a6.52,6.52,0,0,0-.16.74Z"/><path d="M123.92,136a4.66,4.66,0,0,1-.34-.76c0-.08.21-.22.33-.33l0-.05V136Z"/><path d="M127.32,134.84h-1.2l0,.06h1.11Z"/><path d="M133.1,154.22l-1.34-.12.1-.11a3.68,3.68,0,0,1,.73-.17Z"/><path d="M123.91,134.9H125l0-.05h-1.18Z"/><path d="M74.23,123.57c0,.39,0,.79,0,1.18l.06,0-1.15-1.15,0,.07H74.3Z"/><path d="M110.33,160.79l-.17.36.23-.3Z"/><polygon points="137.45 161.99 137.73 161.67 137.4 161.94 137.45 161.99"/><path d="M118,163.89l1.38.34.05-.06a4.26,4.26,0,0,0-.93.25A6.36,6.36,0,0,1,118,163.89Z"/><path d="M130.69,164.19h-1.17l0,0c0-.39,0-.78,0-1.17l-.05.05h1.2l-.06-.06v1.19Z"/><path d="M117.47,163.78l.53.11a6.36,6.36,0,0,0,.5.53,4.66,4.66,0,0,1,0,.65l-.39.44-1.23-1C117.07,164.27,117.27,164,117.47,163.78Z"/><path d="M129.52,164.18l-.18.33.23-.28Z"/><path d="M68.63,105.54a4.22,4.22,0,0,1-.33-.8c0-.08.21-.22.33-.33l0,0v1.22Z"/><path d="M27.79,89.92l-.35-.73.75.32C28.06,89.65,27.93,89.79,27.79,89.92Z"/><path d="M120.67,85.09l1,1.28,0,0-1.25-1Z"/><polygon points="149.88 84.08 149.53 83.8 149.83 84.13 149.88 84.08"/><path d="M118.27,140.55l1.15-1.14,0-.06-1.15,1.15Z"/><path d="M72,119v1.2h-1.2Z"/><path d="M73.16,119.1h0Z"/></g><g class="cls-2"><g id="vurX8n"><path d="M434.21,210.06h9c2.43-2.93,5.35-7.05,8.88-10.55,5.1-5.07,10.54-9.83,16-14.47,3-2.51,3.81-7.4,1.07-10.31a29.58,29.58,0,0,1-8.12-22.49c.08-1.91-.09-4,2.54-4.29s4.82.44,5.69,3.18c1.06,3.39,1.9,6.85,3,10.24a16.19,16.19,0,0,0,1.57,2.92l.84-.31c-.38-1.44-.68-2.91-1.15-4.31-2.24-6.56-1.82-12.83,1.82-18.83,1.89-3.11,4-4.21,6.52-3.27s3.89,3.84,3.47,7.14c-.58,4.48-1,9-1.23,13.5-.16,3.44,1.58,5.07,5.57,5.58-.28-1.91-.44-3.75-.84-5.52-1.38-6.07,1.16-10.84,5-15.11,2.13-2.35,5-2.72,8-2.12,3.7.76,4.94,6,2.36,9.55-1.52,2.06-2.92,4.2-4.48,6.23a3.24,3.24,0,0,0,0,4.54c2.94,3.63,3.37,7.92,3,12.37a4.51,4.51,0,0,1-.77,2.2c-1.7,2.22-.4,3,1.57,3.41,4.75.91,8-1.76,8-6.58,0-1,0-2,0-3-.22-5.08,1.65-4.95,5.33-6,2.61-.71,5.07,1,5.89,4.23,1.22,4.75,3.13,9.75-.55,14.21-3.3,4-7.21,7.32-12.83,7.45a68,68,0,0,1-7.14,0c-3.92-.32-6.19,1.78-7.52,5-3.63,8.92-7.64,17.75-13.73,25.16-5,6.07-8.89,13.13-15.38,17.95-7,5.19-14,9.72-22.92,11.8a109.38,109.38,0,0,1-20.76,2.6c-6.88.28-12.76-2.46-18.65-5.19A48.22,48.22,0,0,1,382.61,229a10.32,10.32,0,0,0-3.16-3.15c.23,1.13.49,2.25.69,3.39,1.79,10,3.82,20,5.25,30.05,1.07,7.52,1.3,15.16,2,22.74.65,7,1.4,14,2.16,20.93a49.18,49.18,0,0,0,1.18,7.27,4.2,4.2,0,0,0,2.3,2.23c7.64,3.24,15.29,6.5,21.31,12.46,1.86,1.84,3.2,4.21,4.91,6.22,2.41,2.84,4.54,6.12,7.5,8.23,6.3,4.47,11.31,10.16,15.94,16.13,4.4,5.67,8,11.93,12,17.94.21.33.39.82.69.94,4.32,1.61,5.89,5.94,8.64,9,5.1,5.72,5.6,13.39,3.86,20-1.8,6.87-2.16,13.89-3.93,20.67-2,7.73-4.18,15.46-9.1,22-4,5.29-7.88,10.65-12,15.8-.79,1-2.6,1.47-4,1.59-4.89.42-7.85,3.57-10.34,7.21-1.56,2.29-.93,3.16,1.85,3.73,7.6,1.56,14.89.34,22.21-1.92a13.16,13.16,0,0,1,7.75.33c4.37,1.55,6.69,4.93,5.53,9.8-1,4.17-3.41,7.55-7.67,8.64-6.87,1.77-13.84,3.22-20.83,4.46-3.57.64-7.29.4-10.92.8-4.33.47-7.57-1.47-10.69-4.1-2.18-1.83-4.64-3.31-6.82-5.13a41.48,41.48,0,0,1-4.34-4.45c-1.23-1.39-2.33-2.89-3.49-4.34-3.67,3-4.57,3-8.34,0-.86-.66-2.13-1-2.68-1.8-.67-1-1.39-2.62-1-3.55a38.29,38.29,0,0,1,16.76-19.35c2.79-1.62,3.34-4.24,4.65-6.59.43-.77.43-1.9,1-2.45,4.34-4.06,3.44-9.87,5.2-14.77a92.34,92.34,0,0,1,6-13.2,53.14,53.14,0,0,1,6.9-9.85c1.75-1.94,1.12-3.52.23-5a4.77,4.77,0,0,0-3.23-2.26c-9-.12-17.33-3.08-25.2-7-9.42-4.65-18.24-10.31-24-19.61a4.89,4.89,0,0,0-7.48-1.11c-6.26,5.68-13.77,7.45-21.86,7.78a2.81,2.81,0,0,0-.63.22c0,.25-.2.59-.09.78,2.78,5,2.66,10.69,3.62,16.1.64,3.59.87,7.25,1.23,10.88a3.49,3.49,0,0,1-.15,2.05c-1.88,2.85-.13,4.95,1.56,6.78a42.74,42.74,0,0,1,8.64,14.69A17,17,0,0,1,363,435c.28,2.47.18,4.87,3.85,5.16,1.07.09,2.5,2.41,2.82,3.91A65.94,65.94,0,0,1,370.88,455c.14,4,2.18,6.88,4.77,9.57,1.57,1.63,3.16,3.24,4.69,4.9s1.7,3.21.17,4.76c-2.71,2.75-5.39,5.55-8.33,8.05-2.73,2.32-4.82,2.18-7.34-.3-1.79-1.77-2.79-1.6-4,.57A33.9,33.9,0,0,1,339,499.1c-5,1.22-10.62.17-15.9-.36a17.39,17.39,0,0,1-9.77-3.83c-3.08-2.61-3.57-6.4-1-9.55,3.34-4,8-6,12.63-8.05a12.76,12.76,0,0,0,2.23-.79c2.74-2,7.45-2.23,6.94-7.32-.35-3.53.71-7-1.89-10.49-5.31-7.06-9.08-14.9-8-24.18.3-2.62-.44-4.31-3.21-5.08-3-.86-4.68-3-4.23-6.27.6-4.26-1.11-7.21-4.21-10.06a107.55,107.55,0,0,1-12.19-13c-5.67-7.3-8.52-15.92-10.34-25a52.24,52.24,0,0,1,2.45-30c4.3-10.85,9.83-21.27,21-27a22,22,0,0,1,12.38-2.35c2.26.23,3.1-.7,2.85-2.88-.77-6.77-1.5-13.54-2.31-20.31-.39-3.23-.83-6.46-1.47-9.64a5.73,5.73,0,0,0-1.79-2.73c-4.17-3.91-8.74-7.44-12.56-11.65a153.22,153.22,0,0,1-11.56-14.9c-6.32-9-12.45-18.16-14.86-29.14a39.27,39.27,0,0,1-.52-8.27c0-1.88-.35-2.88-2.48-3.54-7.06-2.2-13.46-5.61-18.27-11.49a3.62,3.62,0,0,0-1.94-1.15c-10.89-2.18-19.37-8.75-27.63-15.5-2.66-2.17-4.33-5.6-6.33-8.54a6,6,0,0,0-3.9-2.58c-9.08-2.52-18.25-.53-27.35-.89-4.27-.17-7.94-1-11.36-3.48-2.57-1.87-3.64-1.3-5.19,1.53a81.45,81.45,0,0,1-6.43,10.2c-4,5.17-9.45,6.08-15.47,4.61a4.12,4.12,0,0,1-3.52-4.46c.08-5,2.62-8.56,6.56-11.34,2.58-1.82,5.15-3.66,7.61-5.63.66-.53,1.43-1.92,1.18-2.36a4.12,4.12,0,0,0-2.6-2.05,9.6,9.6,0,0,0-8,2.59c-3.62,3.34-8.06,5.88-13.23,6a32.09,32.09,0,0,1-9.59-1.09c-3.15-1-3.66-3-1.93-5.84,1.43-2.34,3.27-4.44,4.93-6.64.47-.62.95-1.23,1.52-2a15.5,15.5,0,0,1-3.26-1.72c-1.4-1.23-3.4-2.6-3.64-4.15-.37-2.39,1.21-4.59,3.69-5.52,2.77-1,5.62-1.81,9.18-2.94l-4.33-.29c-2-.14-4.1-.36-4.64-2.83s1.16-6.5,3.46-6.71a64.87,64.87,0,0,1,14.4-.18c4.52.62,8.81,2.73,13.29,3.84a25.58,25.58,0,0,0,6.79.38,28.54,28.54,0,0,1,18.44,6.12,4.39,4.39,0,0,0,3.5.29,58.38,58.38,0,0,1,25.1-3.46c5.95.56,12,.75,16.81,5.44,1.23,1.19,3.93.94,6,1.24,6.26.93,12.45,1.88,18.35,4.56s10.1,7.45,14.32,12.12c1.45,1.6,2.57,3.51,4,5.15a2.41,2.41,0,0,0,1.95.62,10.42,10.42,0,0,0,3.61-1.31c5.85-3.86,12.53-4.21,19.13-4.29,5.58-.07,11.17.68,17,1.08-1.78-3.69-3.71-7.72-5.82-12.09a21.78,21.78,0,0,0-11.31,5.44,10.8,10.8,0,0,1-8.09,3A31.18,31.18,0,0,1,281.59,152c-2.85-1.74-3.51-4.31-2.18-7.41,1.57-3.63,4.57-5.64,7.82-7.38,2.06-1.1,2.26-2.29.67-3.92a15.84,15.84,0,0,1-4.33-9.68c-.27-2.45.82-4.29,3.16-5.53a35.16,35.16,0,0,0,4.74-3.59l-.41-.6c-3.18,0-6.36.06-9.54,0-5.26-.12-7.59-4.1-4.76-8.39,3.52-5.34,7.32-10.49,10.95-15.76,3-4.36,6.64-8.47,6.5-14.27-.09-4-1.48-5.38-5.4-5.21-2.37.1-3.38-.86-4.23-3.12-3.85-10.25-8-20.39-12-30.61-1.81-4.71-3.4-9.5-4.92-14.3-.68-2.17.73-3.33,3-2.71A249.34,249.34,0,0,1,320.2,39.06c10,5.27,19.76,10.92,29.42,16.76,11.31,6.84,16.85,17.14,17,30.37a64,64,0,0,1-2,18.49c-.95,3.37.32,7.39.63,11.11.09,1.08.45,2.14.51,3.22.6,10.66,1.14,21.33,1.76,32a22.68,22.68,0,0,0,.84,5.83,3.94,3.94,0,0,0,2.66,2c6.47,1.28,13.06,2,19.43,3.67,2.7.7,5,3,7.4,4.81,3.63,2.72,7,5.82,10.73,8.36A43.17,43.17,0,0,1,421.38,189c2.48,4,5.41,7.78,7.9,11.81C431.19,203.88,432.72,207.21,434.21,210.06Zm-95.21-22c2.87,3.7,5.51,6.42,7.32,9.61,2.48,4.39,6.86,6.34,10.7,8.64s8.35,3,12.67,4c1.46.34,3.29-.25,4.78-.84,1.91-.75,3.27-.35,3.71,1.52,1.05,4.56,2.24,9,5.39,12.64,3.51,4.11,6.69,8.5,10.28,12.53,2.6,2.91,5.91,4.87,9.44,6.76,5.68,3,11.28,5.26,17.79,5.88,10,1,19-2.71,28.33-4.92a6.7,6.7,0,0,0,1.65-.66c9.61-5.4,18-12.06,23.5-21.91a23.28,23.28,0,0,1,1.57-2.16c2.95-4.08,6.09-8,8.77-12.29,1.75-2.79,2.8-6,4.21-9,.88-1.88,1.78-3.76,2.81-5.56,1.82-3.18,4-6,8.23-5.69,1.48.09,3-.18,4.45,0,6.78,1,10.71-3.62,15-7.44a3,3,0,0,0,.83-2.15,51.38,51.38,0,0,0-.89-7.64c-.15-.72-1.7-1.79-2.28-1.62a3.67,3.67,0,0,0-2,2.34c-.33,1.31.21,2.84-.15,4.13a14.65,14.65,0,0,1-2.39,5.5c-2.6,3.09-8.86,3.94-12.54,2.13-2.25-1.11-3-3.94-2.65-6.47.57-4.34,1.41-8.81-1.36-12.9-2.12-3.13-1.79-6.13.61-8.89a62.62,62.62,0,0,0,4.45-5.56,2.87,2.87,0,0,0,.08-2.6,2.84,2.84,0,0,0-2.4-1.1,5.39,5.39,0,0,0-3.09,2c-2,3.4-3.79,6.9-3.33,11.16a88.63,88.63,0,0,1,.17,9.51c0,2.45-1.3,3-3.28,1.92-1.45-.8-2.66-2-4.11-2.82-2.95-1.58-4.77-3.77-4.74-7.25,0-4.57.09-9.13,0-13.69a8.64,8.64,0,0,0-1.07-2.69c-.9.68-2.47,1.27-2.57,2.05a52.35,52.35,0,0,0-.68,11.43c.34,3.57,1.93,7,2.61,10.55a4.4,4.4,0,0,1-1.28,3.57c-.5.42-2.4-.29-3.33-1a15,15,0,0,1-6.45-10.23,65.2,65.2,0,0,0-2-7.3l-.85.2a14.6,14.6,0,0,0-.34,1.94,24.25,24.25,0,0,0,6.87,18.06c3,3.14,4.37,6.62,3.69,10.75a6.93,6.93,0,0,1-2.54,3.87c-2.4,1.89-5.49,3-7.61,5.13-5.49,5.48-10.69,11.28-15.85,17.09a61.1,61.1,0,0,0-4.71,6.71c-.6.88-1.09,1.83-1.63,2.74a15.67,15.67,0,0,1-2.18-2.44c-.75-1.28-1.08-2.81-3.21-2.11-4.13,1.35-6.2.83-7.69-3.23-3.12-8.45-8.91-15.17-13.67-22.56-3.13-4.87-7.76-7.8-12.47-10.71a19.12,19.12,0,0,1-2.74-1.56c-3-2.71-5.94-5.47-8.81-8.31s-7.71-.54-10.38-3.92c-8.47-.91-17-2.79-25.07,1.89-1.38.8-2.79,1.55-4.26,2.35a24.12,24.12,0,0,0,1.71,2.39c.6.65,1.54,1.06,1.94,1.79a20.1,20.1,0,0,1,1.19,3.48,32.45,32.45,0,0,1-3.47.73,10.6,10.6,0,0,1-2-.34c-3.41-.35-3.71.22-2.68,3.48a25.11,25.11,0,0,1,.55,5.31c-1.59,0-3.18-.08-4.78-.1-.17,0-.34.16-.7.33C344.05,187.06,342.78,188.5,339,188.07Zm21.14-72.89a8.25,8.25,0,0,1-1.82.89,23,23,0,0,1-2.89.29,9.66,9.66,0,0,1,.32-3.13c1.46-3.22,3-6.4,4.75-9.5,3.69-6.73,2.78-14,2.68-21.21a9.54,9.54,0,0,0-.77-2.84c-.42-1.22-1-2.39-1.36-3.63-1.49-4.84-2.9-9.73-8.34-11.74-2.88-1.07-5.86-1.89-8.66-3.12-6-2.64-12.1-1.86-18.09-.78-7.57,1.36-15,3.28-22.5,5.18a67.74,67.74,0,0,0-7.75,3c.62,2.63,1.62,3.26,3.61,2.45a26.44,26.44,0,0,1,5.41-1.6c5.06-.85,10.18-2,15.2.08.87.36,1.4,1.58,2.08,2.4-.89.45-1.76,1.23-2.67,1.27-3.12.17-6.24.07-9.39.07.21,3,.24,2.93,2.29,3.48A72.28,72.28,0,0,1,319.3,79c3,1.15,3.52,3.73,1.07,5.71s-4.79,4.33-8.58,3.45a13.31,13.31,0,0,0-5.62,0c-3,.63-5-.89-6.88-2.58A14.27,14.27,0,0,1,297,82.12c-1.68,2.86-3.24,5.85-5.12,8.64-1.24,1.85-3.07,3.29-4.38,5.11-1.43,2-2.54,4.22-3.82,6.33-1.44,2.38-2.91,4.75-4.57,7.45,5.37,2.1,9.84.17,14.4-.86-.74-.39-1.58-.34-2.2-.68a36.21,36.21,0,0,1-3.37-2.28c1-1.13,1.79-2.85,3-3.27,2.32-.78,4.74-.49,6.13,2.16a23.07,23.07,0,0,0,1.79,2.71c1.28,1.8.79,2.93-1.42,3.13-.66.06-1.33,0-2,0-.23,2.06-1.3,4.57-.47,5.72,1.6,2.25,1.9,4,.61,6.47a6.63,6.63,0,0,0,1.88-2.08c1.32-2.15,3-2,4.26-.24a11.06,11.06,0,0,1,1.93,5.07c.22,2.5-.89,2.85-3.31,2.22a16.21,16.21,0,0,0-10.26.72c1.56.77,3.21.81,4.77,1.21a15.8,15.8,0,0,1,3.17,1.56l-2.78,2.54c-.9.83-1.87,1.59-2.7,2.49a41.39,41.39,0,0,1-3.13,3.67c-1.42,1.21-3.21,2-4.66,3.13-3,2.39-3,5.4.08,6.59a109.58,109.58,0,0,0,11.27,3.48,5.19,5.19,0,0,0,3.46-.26c2.68-1.41,5.13-3.25,7.8-4.69a48.13,48.13,0,0,1,7-3.09c9.13-3.19,18.36-6.12,27.42-9.52a7.3,7.3,0,0,0,3.65-4.51,29.06,29.06,0,0,0,.52-8.55c-.08-1.52-1-3-1.54-4.51l-1-.44c1.12-.73,2.28-2.07,3.33-2a3.75,3.75,0,0,1,2.47,2.71,95.9,95.9,0,0,1-.07,15,7.15,7.15,0,0,1-6.52,6.63A16.24,16.24,0,0,0,339.4,141c-4.62,1.71-9.19,3.56-13.86,5.07-3.18,1-4,1.93-2.73,5a15,15,0,0,0,2.63,4.2c2.2,2.54,2.21,7.87.44,10.16-3.6,4.66-6.85,9.59-10.21,14.44-.16.23,0,.71.09,1.76,3.78-2.48,7.17-4.68,10.54-6.92,3-2,5.7-4.4,8.88-5.87,5.64-2.6,11.53-4.66,17.34-6.89,3.52-1.35,7.14-2.48,10.6-4,.69-.3,1.23-1.87,1.19-2.83-.24-6.12-.84-12.23-1-18.36C363.15,129.58,363.26,122.36,360.14,115.18ZM214,168.86a27.19,27.19,0,0,1,.37-5.6c.25-.93,1.63-1.57,2.5-2.34.58,1,1.64,2,1.66,3,.08,3.36,1.66,5.76,5,6.07a6.58,6.58,0,0,1,5.23,2.83c1.08,1.52,2.12,3.08,3.17,4.62,2.05,3,4.21,5.83,7.71,7.49,2.41,1.14,4.44,3,6.7,4.52,4.39,2.88,8.5,6.17,14,7a12.76,12.76,0,0,1,5.95,3.31c4.37,3.89,9,7.28,14.58,9.17a47.63,47.63,0,0,1,5.89,1.9c1.73.86,2.76.41,3.27-1.11a43.4,43.4,0,0,0,1.74-6.84c1.19-7.23,1.17-14.71,5.69-21.13,3.95-5.62,7.62-11.29,14.47-13.94,2.4-.93,4.48-2.69,7.08-4.31-1-.45-1.51-.88-2-.87-6.43.11-12.91-.2-19.26.59-4.79.6-8.75,4.13-13.54,5.41-3,.81-5.36.11-6.48-2.87a14.41,14.41,0,0,0-2.27-4c-1.49-1.83-3.34-3.38-4.82-5.22-4.42-5.48-10.21-8.1-17.13-8.49-.58,0-1.52,0-1.68-.29-1.26-2.36-3.62-1.59-5.48-2-3.86-.75-7.93-.21-11.17-3.47s-8.13-3-12.34-3.43a39.92,39.92,0,0,0-20.63,2.65c-3.88,1.66-7.91,2.69-12.11-1-2.56-2.26-6.81-2.68-10.35-3.76-5.11-1.56-11.15,1.5-15.69-3.08a1.05,1.05,0,0,0-.55-.22c-2.91-.6-5.79-1.4-8.73-1.74a100.17,100.17,0,0,0-11.22-.61c-.7,0-1.39,1.3-2.09,2,.64.58,1.22,1.54,1.94,1.67,4.08.7,8.18,1.23,12.29,1.74,1.76.22,3.64-.06,5.31.43a3.84,3.84,0,0,1,2.26,2.52,3.08,3.08,0,0,1-1.85,2.42c-3.12.47-6.3.48-9.46.72q-5.42.42-10.83,1c-1.7.17-3,1.12-2.4,2.87a4,4,0,0,0,2.93,2,65.76,65.76,0,0,0,8.87-.25c2.46-.18,4.91-.72,7.36-.75.82,0,1.65,1.08,2.48,1.67-.63.74-1.1,1.82-1.9,2.18-6.13,2.74-12.36,5.25-18.44,8.07a3.8,3.8,0,0,0-1.81,3.12c.12.84,1.76,1.86,2.87,2.06,5.38,1,9.78-1.27,13.93-4.45,6.48-5,11.81-5.29,16.88-1.25,2,1.56,2.38,4.29.54,5.95-2.75,2.49-5.77,4.7-8.66,7-1.54,1.24-3.48,2.25-4.44,3.84-.86,1.42-.88,3.53-.74,5.29,0,.43,2.18.94,3.36,1,5.45.1,12-5.19,12.85-10.83.47-3.28,3-4.44,4.81-6.34s3.4-1.51,5.39.22,4.29,3.48,6.57,3.62C199,169.14,206.41,168.86,214,168.86Zm95.46,44.44c2.37,4,4.25,7.92,8.85,7.07,2.73-.51,3.64-3.39,3.81-6.1.15-2.36-.2-4.57-2.94-5.51a10.55,10.55,0,0,0,1.17,3.07c1,2,0,5.45-1.89,6.6-2.22,1.31-3.76-.22-4.71-1.76a42.65,42.65,0,0,1-2.64-6.37c-.15-.37-.34-.73-.8-1.69-.48,1.69-.78,2.76-1.1,3.9-3.1-2.8-6.62-4.06-8.46-3.1-2.08,1.08-3.05,5.27-2.22,9.28C299,221,301,221,302.65,221.4,308.91,222.79,308.48,217.65,309.47,213.3Zm19.83-3.67c-2.43.26-4.43,3.48-4.36,7.29a3.21,3.21,0,0,0,1.84,2.37c3.08.91,5.73.15,6.42-1.6a19.66,19.66,0,0,1-2.58.74c-3.51.52-4.85-1.14-3.53-4.44C327.66,212.56,328.48,211.22,329.3,209.63Zm14.81-2.18c-.22,2,.08,3.86-.7,5-.64.94-2.55,1-3.89,1.47,3.73-.56,4.51,1.86,5.14,4.71a55.67,55.67,0,0,0,2,5.84l.79-.25Zm-7.87,1.5c-1.68,4.73-.43,9,2.14,13,.27.42,1.25.39,1.9.56,0-.86.21-1.88-.16-2.56-.84-1.53-2.37-2.77-2.9-4.37C336.53,213.49,336.53,211.17,336.24,209Zm-44.8-89.79c-.86,1-1.66,1.54-1.9,2.29-.11.33,1.09,1.56,1.41,1.46a9.57,9.57,0,0,0,2.39-1.61Zm60.87,99.5.54,0v-7.91l-.54,0Zm.34,9.57c2.08-1.31,2-2.64,1.08-4l-1.08,0Z"/><path d="M200-28.55a34.81,34.81,0,0,0-3.58,0c-2.51.28-3.93-.18-4.24-3.26s-2.61-4.84-5.58-5.46c-3.35-.7-6.51-.43-9,2.33-4.35,4.79-4.44,21.63-.13,26.55,2.62,3,6,3.33,9.51,2.47,3.34-.81,5-3.17,5.59-6.57a3.22,3.22,0,0,1,2.14-2,25.89,25.89,0,0,1,4.9-.09,12.23,12.23,0,0,1-7,13.34C182.79,3.43,169,.22,167.09-14.67a52.1,52.1,0,0,1,.48-16c2.28-12.19,17.3-17.51,27.22-10C198.62-37.7,200.27-33.79,200-28.55Z"/></g></g></svg>