<svg id="Layer_1" data-name="Layer 1" xmlns="http://www.w3.org/2000/svg" viewBox="0 0 200 200"><path d="M39.2,124.82c-5.59,1-9.12,4.55-11.17,9.1A23.45,23.45,0,0,0,19.59,145c-3.53,10.19,0,22.86,9.09,29.12,14.73,10.2,32-4.39,36.87-18.33C71.13,139.8,56.11,121.76,39.2,124.82Z"/><path d="M92.9,135.71C82.56,100.77,48.22,86.56,14.23,97.05c-7.15,2.21-4,11.93,3,10.9,25.9-3.77,51.38,1.84,61,28.38a109.44,109.44,0,0,1,5.61,26.15,73.11,73.11,0,0,1,.28,9.7,14.16,14.16,0,0,1-.36,3.2A6.34,6.34,0,0,1,87,173.12c-4,1.48-5.79,6.32-2.54,9.6,5.67,5.69,12.77-.39,13.66-6.76C100,162.77,96.63,148.28,92.9,135.71Z"/><path d="M83.76,175.38c-.43.65-.24.89,0,0Z"/><path d="M146.18,147.35c0-21.47-9.9-45.15-23.17-61.73C97.62,53.88,44.44,31.5,8,59c-4.53,3.41-2.12,11.72,4.13,9.78,39.37-12.22,77.29-4.56,102.28,30.42,12.41,17.37,17.69,39,16.37,60-.5,3.71-1.15,7.41-1.92,11.07-1.13,5.67-3.67,6,.64,5.15-2.4.46-3.24,2.75-4,4.71-2.21,5.54,4,9.3,8.6,8.61C147.16,186.75,146.2,156.15,146.18,147.35Z"/><path d="M194,140.79a232.72,232.72,0,0,0-25.56-76.74C138.55,9.22,70.12-3.16,14.28,14.3c-5.66,1.77-4.93,11.34,1.45,10.75,25.52-2.33,50-6.3,75.51-1.3,26.3,5.15,48.82,21.91,62.6,44.64,11.77,19.41,18.83,42.05,23.57,64.12a132.61,132.61,0,0,1,3,32.7c-.28,7.56-4.69,14.57-4.37,21.91.14,3.28,3.51,6.76,7,5.36C200,185.79,196,154.67,194,140.79Z"/></svg>