<svg id="Layer_1" data-name="Layer 1" xmlns="http://www.w3.org/2000/svg" viewBox="0 0 200 200"><g id="ujGBI8"><path d="M98.1,99.81V141.2H83.37V76.92c.36,0,.69,0,1,0,4.2,0,8.39,0,12.59,0a1.58,1.58,0,0,1,1.5.79q6.33,9.58,12.73,19.14c.21.31.43.61.72,1,.21-.41.39-.73.55-1.06,3.16-6.33,6.34-12.65,9.47-19a1.39,1.39,0,0,1,1.48-.9c5.37,0,10.73,0,16.1,0h1.06v64.36H125.91V99.82l-.25-.1L112,120.24,98.29,99.74Z"/><path d="M23.37,141.29c.32-.5.51-.82.72-1.13Q44.88,109,65.65,77.78a1.81,1.81,0,0,1,1.73-.93c4.1,0,8.19,0,12.28,0h1.19v64.36H66.2V99.82L66,99.73l-.6.87Q52.1,120.49,38.84,140.41a1.72,1.72,0,0,1-1.65.9C32.65,141.26,28.12,141.29,23.37,141.29Z"/><path d="M143.63,141.22V76.93h14.74V126.5h1.4c7.77,0,15.55,0,23.32,0a1.88,1.88,0,0,1,1.81,1c2.79,4.26,5.63,8.48,8.45,12.71.21.31.39.63.65,1Z"/><path d="M5.64,76.87c4.94,0,9.68,0,14.42,0,.33,0,.73.43,1,.76q6.43,9.59,12.83,19.2c.2.31.42.62.69,1l.75-1.09Q41.66,87.21,48,77.64a1.56,1.56,0,0,1,1.49-.79c4.57,0,9.14,0,13.88,0-.24.39-.39.68-.57.95Q41.91,109.17,21,140.5a1.71,1.71,0,0,1-1.16.75c-4.54.05-9.08,0-13.61,0a4.33,4.33,0,0,1-.55-.06l.7-1.08Q16.42,125.05,26.51,110a1.35,1.35,0,0,0,0-1.8Q16.41,93.1,6.35,78C6.15,77.68,6,77.36,5.64,76.87Z"/></g></svg>