<svg id="Layer_1" data-name="Layer 1" xmlns="http://www.w3.org/2000/svg" viewBox="0 0 200 200"><path d="M183.09,58.4c-6.4-7.6-18.21-10.71-40.78-10.71H60.41C37.33,47.69,25.32,51,18.94,59.1,12.72,67,12.72,78.63,12.72,94.73v30.69c0,31.2,7.38,47,47.69,47h81.9c19.57,0,30.41-2.73,37.43-9.45,7.19-6.88,10.26-18.12,10.26-37.58V94.73C190,77.75,189.52,66.05,183.09,58.4Zm-56.55,55.91-37.2,19.44a5.71,5.71,0,0,1-5.61-.18A5.71,5.71,0,0,1,81,128.68V89.93a5.71,5.71,0,0,1,8.35-5.07l37.19,19.31a5.71,5.71,0,0,1,0,10.14Z"/></svg>